<?xml version="1.0" encoding="UTF-8" standalone="no"?>
<!-- Created with Inkscape (http://www.inkscape.org/) -->

<svg
   width="210mm"
   height="297mm"
   viewBox="0 0 210 297"
   version="1.1"
   id="svg5"
   sodipodi:docname="man_5.svg"
   inkscape:version="1.1.1 (c3084ef, 2021-09-22)"
   xmlns:inkscape="http://www.inkscape.org/namespaces/inkscape"
   xmlns:sodipodi="http://sodipodi.sourceforge.net/DTD/sodipodi-0.dtd"
   xmlns="http://www.w3.org/2000/svg"
   xmlns:svg="http://www.w3.org/2000/svg">
  <sodipodi:namedview
     id="namedview7"
     pagecolor="#505050"
     bordercolor="#eeeeee"
     borderopacity="1"
     inkscape:pageshadow="0"
     inkscape:pageopacity="0"
     inkscape:pagecheckerboard="0"
     inkscape:document-units="mm"
     showgrid="false"
     inkscape:zoom="0.67546093"
     inkscape:cx="625.4988"
     inkscape:cy="354.57269"
     inkscape:window-width="1512"
     inkscape:window-height="837"
     inkscape:window-x="0"
     inkscape:window-y="38"
     inkscape:window-maximized="1"
     inkscape:current-layer="layer1" />
  <defs
     id="defs2" />
  <g
     inkscape:label="Layer 1"
     inkscape:groupmode="layer"
     id="layer1">
    <path
       d="m 110.07024,60.837003 c -0.0278,-0.0278 -0.0506,-0.139 -0.0506,-0.24709 0,-0.10809 -0.0853,-0.3568 -0.1896,-0.55269 -0.16043,-0.30137 -0.1896,-0.45772 -0.1896,-1.0161 0,-0.58708 0.0209,-0.68738 0.1896,-0.90852 0.18209,-0.23873 0.18953,-0.29162 0.18771,-1.33439 -0.001,-0.59719 -0.0337,-2.06555 -0.0727,-3.26303 -0.0637,-1.95924 -0.0863,-2.20762 -0.22563,-2.48079 -0.13253,-0.25978 -0.15516,-0.44892 -0.15692,-1.31148 -0.002,-1.04175 -0.0402,-1.5092 -0.29438,-3.61022 -0.0929,-0.76791 -0.20444,-1.35761 -0.2941,-1.55475 -0.0794,-0.17469 -0.18312,-0.41147 -0.23038,-0.52618 -0.0952,-0.23119 -0.316,-0.28385 -0.31796,-0.0758 -7.9e-4,0.073 -0.0841,0.26924 -0.18544,0.43609 -0.10131,0.16685 -0.23889,0.42235 -0.30574,0.56778 -0.0669,0.14542 -0.18532,0.33313 -0.26328,0.41712 -0.078,0.084 -0.22535,0.34043 -0.32755,0.56985 -0.1022,0.22942 -0.29353,0.55078 -0.42517,0.71412 -0.13164,0.16335 -0.26147,0.38511 -0.2885,0.4928 -0.027,0.10769 -0.18837,0.46891 -0.35853,0.80271 -0.49823,0.97733 -0.64979,1.34204 -0.80606,1.93956 -0.2143,0.81942 -0.88451,3.81619 -0.9844,4.40161 -0.0948,0.55564 -0.17228,0.6994 -0.70634,1.31061 l -0.36721,0.42027 0.11859,0.36288 c 0.0652,0.19958 0.14136,0.51646 0.1692,0.70416 0.066,0.44533 0.1804,0.65842 0.54038,1.00685 0.23997,0.23228 0.37026,0.29516 0.69005,0.33303 0.34687,0.0411 0.39938,0.0705 0.43707,0.24455 0.0236,0.10881 0.0787,0.29258 0.12253,0.40835 0.0624,0.16484 0.0548,0.23887 -0.0351,0.34129 -0.0631,0.0719 -0.1382,0.20757 -0.1668,0.30143 -0.0463,0.15188 -0.10135,0.17064 -0.50081,0.17064 -0.29594,0 -0.68208,-0.0775 -1.13364,-0.22752 -0.37665,-0.12514 -0.73446,-0.22753 -0.79513,-0.22753 -0.0607,0 -0.24125,-0.0683 -0.4013,-0.15168 -0.32218,-0.16793 -0.97247,-0.26547 -2.3049,-0.34575 l -0.884801,-0.0533 -0.36276,-0.3683 -0.36276,-0.3683 0.26162,-0.54711 c 0.14389,-0.30091 0.478,-0.85006 0.74248,-1.22032 0.579091,-0.81072 0.731741,-1.14025 0.850931,-1.83703 0.0787,-0.46005 0.43131,-1.47901 0.79482,-2.29678 0.0609,-0.13698 0.11071,-0.3356 0.11071,-0.44136 0,-0.10577 0.10519,-0.45443 0.23375,-0.77481 0.12856,-0.32037 0.32875,-0.8214 0.44488,-1.11339 0.11613,-0.29199 0.23428,-0.68278 0.26256,-0.86841 0.0283,-0.18564 0.0842,-0.37705 0.1243,-0.42536 0.0401,-0.0483 0.13768,-0.44703 0.21684,-0.88603 0.11879,-0.6587 0.19147,-0.86729 0.41587,-1.19352 0.14956,-0.21742 0.31041,-0.5371 0.35744,-0.7104 0.047,-0.1733 0.13098,-0.41748 0.18655,-0.54262 0.0556,-0.12513 0.119,-0.31533 0.14096,-0.42265 0.022,-0.10732 0.24644,-0.42906 0.49884,-0.71497 0.25238,-0.28591 0.47944,-0.60173 0.50456,-0.70183 0.0251,-0.10009 0.0302,-0.53004 0.0113,-0.95543 -0.0302,-0.67895 -0.0608,-0.81856 -0.25081,-1.14273 -0.20957,-0.35762 -0.21839,-0.41511 -0.27883,-1.81832 -0.0343,-0.79696 -0.0618,-1.59718 -0.061,-1.77827 10e-4,-0.26552 -0.0654,-0.42983 -0.34401,-0.84883 -0.18998,-0.28577 -0.45502,-0.58756 -0.58899,-0.67065 -0.13397,-0.0831 -0.3568,-0.26824 -0.49519,-0.41145 l -0.2516,-0.26038 0.0402,-1.31833 c 0.0221,-0.72509 0.0451,-1.40366 0.0511,-1.50794 0.006,-0.10429 -0.0251,-0.565021 -0.0691,-1.023871 -0.044,-0.45884 -0.11728,-1.289444 -0.16288,-1.845784 -0.0456,-0.55635 -0.12841,-1.1536 -0.18403,-1.32723 -0.0556,-0.17364 -0.14289,-0.61319 -0.19393,-0.9768 -0.0886,-0.63084 -0.0855,-0.67038 0.0664,-0.86346 0.16744,-0.21286 0.21083,-0.520209 0.0845,-0.598309 -0.0411,-0.0254 -0.21204,-0.28132 -0.3799,-0.56873 l -0.3052,-0.52258 0.14592,-0.3702 c 0.0952,-0.24152 0.17941,-0.76373 0.24225,-1.50242 0.10742,-1.2625 0.11325,-1.65578 0.032,-2.1585 -0.0391,-0.24154 -0.008,-0.57273 0.10413,-1.11428 0.0878,-0.42383 0.15968,-0.91897 0.15968,-1.10032 0,-0.75971 0.36244,-1.63259 0.93743,-2.25764 0.17267,-0.18771 0.39928,-0.46911 0.50356,-0.62535 0.24475,-0.36668 0.55405,-0.5088 1.27457,-0.58566 0.32094,-0.0342 0.71042,-0.11705 0.86551,-0.18403 0.15508,-0.067 0.35268,-0.12179 0.43911,-0.12179 0.21761,0 0.6689,-0.24106 1.05468,-0.56337 0.17833,-0.14899 0.3722,-0.27089 0.43082,-0.27089 0.21503,0 0.0523,-1.57141 -0.23172,-2.23733 -0.0915,-0.21458 -0.12943,-0.51421 -0.12955,-1.02386 -1.5e-4,-0.68201 0.0146,-0.74885 0.27703,-1.2513897 0.35197,-0.67408 0.86098,-1.19697 1.44667,-1.48612 0.39427,-0.19465 0.59723,-0.23786 1.42975,-0.30439 l 0.97025,-0.0775 0.28417,0.19693 c 0.17032,0.11803 0.4707,0.22698 0.74969,0.27191 0.25603,0.0412 0.54275,0.10512 0.63716,0.14197 0.28136,0.10982 0.64674,0.55006 0.77707,0.93629 0.11349,0.33631 0.11291,0.37706 -0.008,0.58208 -0.11744,0.1988097 -0.12111,0.2936197 -0.0374,0.9655997 0.11578,0.92885 0.0162,2.22672 -0.22097,2.87945 -0.0888,0.24437 -0.20577,0.63202 -0.25995,0.86145 -0.12794,0.54164 -0.26215,0.82305 -0.4128,0.86549 -0.0667,0.0188 -0.31483,0.0725 -0.55147,0.11939 -0.23664,0.0469 -0.46782,0.13049 -0.51373,0.18581 -0.0459,0.0553 -0.13507,0.29866 -0.19813,0.54076 l -0.11465,0.44019 0.42696,0.43147 c 0.39457,0.39872 0.43096,0.46529 0.47952,0.87717 0.0622,0.52749 0.11724,0.63516 0.32469,0.63516 0.0905,0 0.37046,0.21541 0.67206,0.51701 0.60258,0.60258 0.68331,0.83726 0.50482,1.46744 -0.063,0.22251 -0.15394,0.60036 -0.20202,0.83967 -0.0481,0.23931 -0.18498,0.61792 -0.30421,0.84135 -0.11923,0.22343 -0.27409,0.60782 -0.34414,0.8542 -0.07,0.24638 -0.27733,0.76137 -0.46062,1.14442 -0.31152,0.65103 -0.33326,0.73775 -0.33326,1.32934 0,0.52649 -0.0241,0.653469 -0.14318,0.755459 -0.18973,0.16245 -0.26053,0.92986 -0.17431,1.88935 0.0561,0.62459 0.0975,0.77394 0.29445,1.06178 0.12602,0.18422 0.35391,0.57703 0.5064,0.8729 0.26446,0.51312 0.27235,0.54988 0.17088,0.796344 -0.16771,0.40735 -0.22152,0.87128 -0.12252,1.05625 0.0749,0.13993 0.1297,0.15697 0.36595,0.1138 0.15283,-0.0279 0.42316,-0.13515 0.60074,-0.23826 l 0.32287,-0.18747 0.0663,0.17438 c 0.12747,0.33526 0.31183,1.608401 0.31183,2.153371 0,0.47968 -0.0248,0.57912 -0.19501,0.78139 -0.18254,0.21693 -0.18739,0.24264 -0.0758,0.4019 0.17642,0.25188 0.14799,0.78134 -0.0663,1.23428 -0.20326,0.42965 -0.20904,0.52487 -0.42197,6.94132 -0.045,1.35567 -0.11875,2.99385 -0.16391,3.6404 -0.0452,0.64655 -0.10987,2.30179 -0.1438,3.67832 -0.0339,1.37652 -0.0954,2.69048 -0.13655,2.9199 -0.0412,0.22942 -0.0772,0.80961 -0.0801,1.28931 l -0.005,0.87218 0.42364,0.34128 c 0.94269,0.75943 1.00659,0.7959 1.38297,0.78934 0.19486,-0.003 0.7784,-0.0977 1.29675,-0.20962 1.03769,-0.224 1.27442,-0.20392 1.59291,0.13511 0.14445,0.15376 0.16113,0.22978 0.11617,0.52958 -0.0584,0.38922 -0.2809,0.72747 -0.47861,0.72747 -0.0711,0 -0.38777,0.17996 -0.70376,0.3999 -0.31598,0.21995 -0.86114,0.53105 -1.21145,0.69133 -0.35031,0.16029 -0.84808,0.38988 -1.10615,0.5102 -0.30597,0.14266 -0.59213,0.21877 -0.82247,0.21877 -0.20396,0 -0.67871,0.1109 -1.12344,0.26242 -0.76936,0.26213 -1.98223,0.57184 -2.23942,0.57184 -0.0749,0 -0.15886,-0.0228 -0.18666,-0.0506 z"
       style="fill:#000000;stroke-width:0.0200664"
       id="path759" />
  </g>
</svg>
