<?xml version="1.0" encoding="UTF-8" standalone="no"?>
<!-- Created with Inkscape (http://www.inkscape.org/) -->

<svg
   width="210mm"
   height="297mm"
   viewBox="0 0 210 297"
   version="1.1"
   id="svg5"
   sodipodi:docname="man_10.svg"
   inkscape:version="1.1.1 (c3084ef, 2021-09-22)"
   xmlns:inkscape="http://www.inkscape.org/namespaces/inkscape"
   xmlns:sodipodi="http://sodipodi.sourceforge.net/DTD/sodipodi-0.dtd"
   xmlns="http://www.w3.org/2000/svg"
   xmlns:svg="http://www.w3.org/2000/svg">
  <sodipodi:namedview
     id="namedview7"
     pagecolor="#505050"
     bordercolor="#eeeeee"
     borderopacity="1"
     inkscape:pageshadow="0"
     inkscape:pageopacity="0"
     inkscape:pagecheckerboard="0"
     inkscape:document-units="mm"
     showgrid="false"
     inkscape:zoom="0.62885375"
     inkscape:cx="592.34759"
     inkscape:cy="446.04966"
     inkscape:window-width="1512"
     inkscape:window-height="837"
     inkscape:window-x="0"
     inkscape:window-y="38"
     inkscape:window-maximized="1"
     inkscape:current-layer="layer1" />
  <defs
     id="defs2" />
  <g
     inkscape:label="Layer 1"
     inkscape:groupmode="layer"
     id="layer1">
    <path
       d="m 101.33508,61.380445 c -0.37774,-0.23033 -0.42942,-0.39996 -0.42977,-1.41056 0,-0.83478 0.0148,-0.93422 0.17405,-1.14967 0.16402,-0.22185 0.16708,-0.24627 0.0515,-0.41134 -0.0717,-0.10229 -0.12291,-0.32648 -0.12291,-0.53758 0,-0.30457 0.0407,-0.40735 0.25608,-0.64675 0.25547,-0.28395 0.25592,-0.28579 0.1882,-0.77663 -0.0374,-0.2706 -0.0984,-0.60253 -0.13569,-0.73761 -0.0373,-0.1351 -0.0502,-0.31319 -0.0286,-0.39575 0.0244,-0.0932 -0.0651,-0.31673 -0.23616,-0.58962 -0.15149,-0.2417 -0.34579,-0.67837 -0.43179,-0.97035 -0.086,-0.292 -0.27059,-0.78687 -0.4102,-1.09971 -0.13961,-0.31284 -0.325519,-0.87597 -0.413139,-1.25139 -0.45438,-1.94693 -0.53885,-2.32961 -0.6528,-2.95781 -0.0681,-0.37542 -0.12206,-0.73378 -0.1199,-0.79634 0.0122,-0.35254 0.16162,-1.28651 0.23982,-1.49882 0.0501,-0.1361 0.0732,-0.29415 0.0513,-0.35124 -0.022,-0.0571 0.007,-0.23584 0.0639,-0.39722 0.0649,-0.1835 0.0876,-0.43945 0.0605,-0.68324 -0.0306,-0.2754 -0.004,-0.49162 0.0892,-0.7366 0.0752,-0.19694 0.10873,-0.40535 0.0776,-0.48236 -0.0302,-0.0745 -0.0822,-0.44274 -0.11569,-0.81816 -0.13532,-1.51915 -0.24076,-2.37327 -0.34472,-2.79252 -0.0837,-0.33755 -0.0892,-0.47932 -0.0234,-0.60235 0.10915,-0.20396 0.11486,-0.97825 0.0104,-1.41146 -0.0461,-0.19127 -0.16179,-0.39995 -0.27323,-0.49296 -0.1063,-0.0887 -0.24599,-0.28075 -0.31043,-0.42674 -0.13056,-0.29576 -0.31876,-0.62542 -0.51841,-0.90801 -0.10278,-0.14548 -0.13249,-0.3432 -0.13249,-0.88186 0,-0.52265 -0.0279,-0.71752 -0.11303,-0.78814 -0.0703,-0.0583 -0.0963,-0.16049 -0.0688,-0.27009 0.0419,-0.16699 -0.20376,-0.89475 -0.48507,-1.43695 -0.0649,-0.12514 -0.19422,-0.48349 -0.28732,-0.79634 -0.0931,-0.31285 -0.29344,-0.89303 -0.44523,-1.2893 -0.45254,-1.18148 -0.58742,-2.35598 -0.54593,-4.75425 0.0186,-1.07676 0.0307,-2.02599 0.0269,-2.10942 -0.004,-0.0834 -0.003,-0.59536 0.003,-1.13762 0.005,-0.54227 0.005,-1.12246 0,-1.28931 -0.0286,-0.90862 -0.004,-1.0814 0.22992,-1.57998 0.33745,-0.72111 1.66471,-2.01749 2.70945,-2.64641 0.25028,-0.15066 0.54566,-0.29664 0.65643,-0.3244 0.11074,-0.0277 0.27788,-0.13191 0.37139,-0.23145 0.0935,-0.0995 0.283019,-0.21828 0.421119,-0.26385 0.1489,-0.0491 0.31528,-0.18674 0.40882,-0.33809 0.1018,-0.16471 0.23994,-0.27328 0.38951,-0.30613 0.3571,-0.0784 0.51861,-0.50689 0.51375,-1.36296 -0.002,-0.37542 -0.0317,-0.85322 -0.0657,-1.06179 -0.31746,-1.945561 -0.32109,-2.007022 -0.14618,-2.459181 0.26952,-0.696662 0.31994,-0.7836331 0.63921,-1.1026511 0.31047,-0.310222 1.06972,-0.807972 1.51846,-0.995471 0.13513,-0.0565 0.5349,-0.10758 0.88838,-0.113599 0.56749,-0.01 0.68229,0.0123 0.98124,0.187449 0.21667,0.126989 0.45088,0.1984 0.65062,0.1984 0.17166,0 0.39738,0.0389 0.50163,0.0864 0.17405,0.0793 0.42434,0.46971 0.42434,0.661901 0,0.113789 0.25697,0.237691 0.49297,0.237691 0.47913,0 0.67169,0.3963481 0.30825,0.6344791 -0.16336,0.107029 -0.17651,0.149669 -0.11376,0.368469 0.10646,0.37121 0.0865,0.640741 -0.0706,0.952989 -0.12804,0.254492 -0.1363,0.393743 -0.0864,1.456934 0.0355,0.75718 0.0969,1.28344 0.17237,1.47871 0.13395,0.34636 0.11382,0.41686 -0.11947,0.41849 -0.29159,0.002 -0.31976,0.039 -0.84623,1.11146 -0.30608,0.62347 -0.38145,0.66545 -1.34606,0.74966 -0.32181,0.0281 -0.63969,0.091 -0.70639,0.13977 -0.10933,0.0799 -0.10495,0.10945 0.0444,0.29939 0.0911,0.11589 0.47729,0.44532 0.85809,0.73208 0.89849,0.67662 1.25869,1.03674 1.49,1.48963 0.18591,0.364 0.18828,0.3929 0.18828,2.3026 0,1.77648 0.0117,1.95131 0.14443,2.1471 l 0.14446,0.21314 -0.27717,0.22847 -0.27718,0.22847 0.004,0.65809 c 0.003,0.36195 0.0339,0.89699 0.0694,1.18899 0.18397,1.50886 0.23869,1.75122 0.53157,2.35423 0.39025,0.80351 0.56719,1.47526 0.79407,3.01485 0.1815,1.23166 0.54588,2.65956 0.874,3.42503 0.0873,0.20384 0.27704,0.50142 0.42147,0.66129 0.14443,0.15988 0.2626,0.31977 0.2626,0.35532 0,0.0356 0.11069,0.0964 0.24596,0.1352 0.30637,0.0879 0.35349,0.28578 0.12576,0.52819 -0.15327,0.16316 -0.17091,0.25092 -0.15543,0.77309 0.0144,0.48562 -0.0153,0.6631 -0.16898,1.01064 -0.22211,0.50222 -0.60325,0.86001 -0.83714,0.78585 -0.45445,-0.14411 -0.45543,-0.14269 -0.53739,0.76762 -0.0417,0.46332 -0.11629,0.89077 -0.16574,0.94987 -0.1006,0.12029 -0.26493,0.59811 -0.39842,1.15845 -0.0487,0.20467 -0.23854,0.68246 -0.42174,1.06178 -0.18319,0.37932 -0.3568,0.79207 -0.38578,0.9172 -0.029,0.12514 -0.1,0.32141 -0.15777,0.43613 -0.1629,0.32339 -0.36578,1.42399 -0.47346,2.56864 -0.0339,0.35951 -0.0875,0.69573 -0.11927,0.74714 -0.0318,0.0514 -0.0859,0.34406 -0.12022,0.65032 -0.0343,0.30626 -0.11422,0.65695 -0.1775,0.77933 -0.0632,0.12237 -0.18791,0.49118 -0.27695,0.81957 -0.23203,0.8558 -0.34047,1.21008 -0.55423,1.81056 -0.16358,0.45956 -0.43377,1.59952 -0.45735,1.92955 -0.004,0.0642 0.13154,0.1586 0.32993,0.22873 0.23173,0.0819 0.3831,0.19705 0.48228,0.36687 0.20132,0.34469 0.0932,0.56781 -0.58938,1.21621 -0.49474,0.46992 -0.53852,0.53473 -0.44647,0.66062 0.14566,0.19922 0.12609,0.64711 -0.045,1.0292 -0.22816,0.50961 -0.19492,0.52239 1.35957,0.52239 1.2465,0 1.36035,0.0115 1.54545,0.15718 0.16727,0.13156 0.19984,0.21771 0.19984,0.52836 0,0.32506 -0.0339,0.40512 -0.27305,0.64425 -0.27758,0.27758 -1.233,1.00752 -1.50922,1.15303 -0.0834,0.044 -0.64656,0.13666 -1.2514,0.20603 -0.60483,0.0693 -1.49434,0.20944 -1.9767,0.31131 -1.05717,0.22324 -1.17825,0.22627 -1.48821,0.0373 z m 1.50216,-12.59926 c 0.30614,-0.99841 0.37047,-1.28366 0.37648,-1.66942 0.004,-0.22576 0.0309,-0.6067 0.0609,-0.84655 0.0367,-0.29412 0.0279,-0.43609 -0.0271,-0.43609 -0.0448,0 -0.24286,0.14815 -0.44009,0.32923 l -0.35859,0.32922 v 0.56908 c 0,1.05718 0.0948,2.19168 0.18069,2.16304 0.0448,-0.015 0.13826,-0.21227 0.20764,-0.43851 z m -3.574849,-15.29527 c -8e-4,-0.0313 -0.0342,-0.10808 -0.0747,-0.17065 -0.0595,-0.092 -0.0737,-0.0811 -0.0747,0.0569 -8e-4,0.0938 0.033,0.17064 0.0747,0.17064 0.0417,0 0.0753,-0.0256 0.0747,-0.0569 z m -0.19283,-1.23728 c -0.18754,-0.20724 -0.23338,-0.11788 -0.0686,0.13367 0.0863,0.13172 0.14927,0.17316 0.16974,0.11173 0.0179,-0.0537 -0.0277,-0.16413 -0.10117,-0.2454 z"
       style="fill:#000000;stroke-width:0.0200664"
       id="path3301" />
  </g>
</svg>
