<?xml version="1.0" encoding="UTF-8" standalone="no"?>
<!-- Created with Inkscape (http://www.inkscape.org/) -->

<svg
   width="210mm"
   height="297mm"
   viewBox="0 0 210 297"
   version="1.1"
   id="svg5"
   sodipodi:docname="man_9.svg"
   inkscape:version="1.1.1 (c3084ef, 2021-09-22)"
   xmlns:inkscape="http://www.inkscape.org/namespaces/inkscape"
   xmlns:sodipodi="http://sodipodi.sourceforge.net/DTD/sodipodi-0.dtd"
   xmlns="http://www.w3.org/2000/svg"
   xmlns:svg="http://www.w3.org/2000/svg">
  <sodipodi:namedview
     id="namedview7"
     pagecolor="#505050"
     bordercolor="#eeeeee"
     borderopacity="1"
     inkscape:pageshadow="0"
     inkscape:pageopacity="0"
     inkscape:pagecheckerboard="0"
     inkscape:document-units="mm"
     showgrid="false"
     inkscape:zoom="0.62885375"
     inkscape:cx="592.34759"
     inkscape:cy="446.04966"
     inkscape:window-width="1512"
     inkscape:window-height="837"
     inkscape:window-x="0"
     inkscape:window-y="38"
     inkscape:window-maximized="1"
     inkscape:current-layer="layer1" />
  <defs
     id="defs2" />
  <g
     inkscape:label="Layer 1"
     inkscape:groupmode="layer"
     id="layer1">
    <path
       d="m 94.676778,58.510234 c -0.08342,-0.01439 -0.26076,-0.130231 -0.394074,-0.2574 -0.192142,-0.183272 -0.252984,-0.315992 -0.29349,-0.640191 -0.05564,-0.44535 0.0693,-1.066189 0.243136,-1.208141 0.354713,-0.28965 0.781774,-1.162928 0.78405,-1.603279 0.0018,-0.354161 -0.05932,-0.396579 -0.256938,-0.178211 -0.19554,0.21607 -0.413787,0.245272 -0.581284,0.0778 -0.341453,-0.341439 -0.02832,-0.678061 0.778973,-0.837361 0.3769,-0.0744 0.437015,-0.11072 0.470906,-0.284739 0.07147,-0.367041 0.06013,-2.150211 -0.02852,-4.48455 -0.04832,-1.272241 -0.07569,-3.0128 -0.06083,-3.86792 0.02502,-1.439389 0.04047,-1.585701 0.208248,-1.971879 0.09967,-0.22942 0.238217,-0.502452 0.30788,-0.606742 0.141428,-0.211699 0.227782,-0.55213 0.269341,-1.061779 0.04755,-0.58311 0.08465,-0.76604 0.173355,-0.854749 0.135071,-0.13507 0.100544,-0.420601 -0.08047,-0.66543 -0.15906,-0.21513 -0.162403,-0.253032 -0.07833,-0.888061 0.0483,-0.364839 0.108639,-1.328851 0.134079,-2.142249 0.05203,-1.66361 0.163241,-2.576259 0.446926,-3.66767 0.106899,-0.411261 0.194362,-0.949878 0.194362,-1.19693 0,-0.24705 0.05102,-0.571288 0.113379,-0.72055 0.108502,-0.259668 0.105803,-0.27731 -0.06269,-0.409859 -0.09684,-0.0761 -0.286885,-0.346388 -0.422313,-0.60047 -0.135427,-0.254098 -0.329052,-0.55135 -0.430272,-0.66057 -0.106676,-0.115099 -0.184038,-0.29084 -0.184038,-0.418049 0,-0.381101 -0.504089,-1.233919 -1.119671,-1.894261 -0.271617,-0.291349 -0.382946,-0.51022 -0.63256,-1.243539 -0.166612,-0.489479 -0.386579,-1.088689 -0.488815,-1.3316 -0.107684,-0.255839 -0.185886,-0.590611 -0.185886,-0.795751 0,-0.47634 0.276318,-2.06997 0.417497,-2.407859 0.06236,-0.14927 0.113395,-0.352591 0.113395,-0.451831 0,-0.0992 0.06753,-0.25831 0.150076,-0.35347 0.08254,-0.0952 0.168834,-0.296638 0.191761,-0.447699 0.108657,-0.71592 0.229576,-1.170321 0.5047,-1.8966 0.164113,-0.433239 0.347496,-0.97623 0.407519,-1.206669 0.212276,-0.81498 1.177066,-2.022261 1.914857,-2.39613 0.381662,-0.193411 0.908416,-0.361572 1.609109,-0.51372 0.449282,-0.0975 1.080245,-0.295971 1.175545,-0.36966 0.04172,-0.0323 0.208169,-0.0584 0.369899,-0.0582 0.2022,2.64e-4 0.39173,-0.0682 0.60673,-0.21902 l 0.31268,-0.219432 0.0523,-0.94474 c 0.0696,-1.25558 0.0317,-1.505379 -0.24291,-1.601089 -0.1171,-0.0408 -0.3058,-0.208259 -0.41932,-0.372081 -0.19631,-0.283268 -0.20187,-0.315518 -0.11356,-0.6585692 0.0511,-0.19839 0.12141,-0.42898 0.1563,-0.5124 0.0349,-0.0834 0.0794,-0.5271 0.0989,-0.985941 0.0195,-0.45884 0.0733,-0.93091 0.11962,-1.04903 0.11704,-0.298689 1.42599,-1.691299 1.7215,-1.831528 0.15186,-0.0721 0.46159,-0.115192 0.82732,-0.115192 h 0.58458 l 0.66875,0.67709 0.66876,0.677082 0.0245,1.135388 c 0.0216,0.998281 0.0423,1.155081 0.17224,1.298411 0.25108,0.277029 0.20939,0.8713102 -0.0943,1.3449092 -0.14352,0.223782 -0.27575,0.552892 -0.31052,0.77284 -0.0333,0.210682 -0.10474,0.436311 -0.15876,0.501401 -0.11783,0.14197 -0.1937,1.64393 -0.11851,2.34605 l 0.0508,0.47476 0.39346,0.18302 c 0.2164,0.100661 0.43192,0.262189 0.47892,0.35895 0.11118,0.228841 0.29459,0.352761 0.8044,0.54351 0.2292,0.0857 0.48102,0.226959 0.55959,0.313769 0.0786,0.0868 0.24533,0.20986 0.37057,0.27342 0.12523,0.0635 0.45318,0.281512 0.72877,0.484341 0.42798,0.314979 0.52501,0.431319 0.66515,0.797529 0.23203,0.606332 0.35465,1.77791 0.2489,2.378231 -0.0687,0.389969 -0.0629,0.520221 0.0331,0.74844 0.22156,0.526439 0.57687,2.17552 0.61679,2.86272 0.0312,0.53607 0.003,0.87507 -0.12826,1.51683 -0.21102,1.03582 -0.38738,1.37518 -0.75002,1.44322 -0.32249,0.0605 -1.8368,-0.0949 -2.10195,-0.215731 -0.16069,-0.0732 -0.2131,-0.0638 -0.33079,0.0594 -0.18536,0.193998 -0.26057,1.077777 -0.10932,1.284629 0.0575,0.0786 0.10391,0.324281 0.10391,0.549809 0,0.316622 0.0418,0.46251 0.1872,0.653111 0.16163,0.21191 0.18542,0.317428 0.17418,0.772319 -0.009,0.385421 0.0245,0.597461 0.12657,0.789731 0.12073,0.227319 0.133,0.370861 0.0907,1.061791 -0.0269,0.43942 -0.0857,1.003708 -0.13071,1.25398 -0.0868,0.482629 -0.1938,1.352229 -0.28928,2.351098 -0.0319,0.3337 -0.0967,0.845629 -0.14402,1.137618 -0.35404,2.185181 -0.43035,2.855352 -0.40875,3.589771 0.0153,0.52092 -0.007,0.819669 -0.0662,0.891141 -0.0555,0.0668 -0.23624,0.107939 -0.4781,0.10867 -0.21388,7.93e-4 -0.42515,0.02619 -0.46947,0.0569 -0.0443,0.0306 -0.12143,0.414071 -0.17134,0.852062 -0.0599,0.52592 -0.12861,0.82455 -0.20227,0.879409 -0.15108,0.11253 -0.4142,0.70676 -0.41657,0.940779 -0.001,0.10429 -0.0866,0.496771 -0.19008,0.872191 -0.10348,0.375409 -0.26131,0.955601 -0.35072,1.289301 -0.0894,0.333698 -0.24352,0.703199 -0.34247,0.821108 -0.12344,0.14709 -0.17992,0.309372 -0.17992,0.516922 0,0.34386 -0.10245,0.573299 -0.33913,0.75946 -0.16744,0.13172 -0.47559,0.839348 -0.68838,1.580829 -0.0658,0.229421 -0.18175,0.553641 -0.25759,0.720501 -0.35685,0.785129 -0.50903,1.63059 -0.2935,1.63059 0.0495,0 0.16037,0.0645 0.24648,0.14338 0.0861,0.0788 0.33688,0.181139 0.55725,0.227269 0.43238,0.0905 0.91313,0.30933 1.10824,0.504449 0.18954,0.18954 0.15485,0.48119 -0.0673,0.56564 -0.16972,0.0645 -0.18007,0.0913 -0.10178,0.263152 0.0479,0.105219 0.19269,0.258969 0.32167,0.341659 0.12898,0.0827 0.2857,0.183189 0.34827,0.2233 0.0626,0.0401 0.35515,0.161039 0.65019,0.268701 0.33881,0.123639 0.6284,0.29065 0.78609,0.453329 l 0.24966,0.25758 -0.19995,0.262159 c -0.24384,0.319691 -0.42117,0.356301 -1.71352,0.353812 -0.89577,-0.0021 -1.18681,-0.0434 -2.27524,-0.325433 -0.22943,-0.0595 -0.89382,-0.147597 -1.47645,-0.195868 -1.137498,-0.0943 -1.575419,-0.234479 -1.913762,-0.61283 -0.199776,-0.223401 -0.214938,-0.36335 -0.06288,-0.580441 0.223245,-0.31873 0.360497,-0.8788 0.327419,-1.336098 l -0.03226,-0.445892 0.356436,-0.180628 c 0.305539,-0.15481 0.363887,-0.221692 0.408626,-0.468331 0.02871,-0.15825 0.134283,-0.46909 0.234619,-0.690761 0.100336,-0.22166 0.22189,-0.61414 0.27012,-0.87218 0.04823,-0.258019 0.137994,-0.67391 0.199474,-0.92419 0.375078,-1.526918 0.395458,-1.67191 0.397398,-2.827528 0.001,-0.855041 0.0318,-1.230442 0.11571,-1.43129 0.0626,-0.149762 0.11376,-0.325641 0.11376,-0.39085 0,-0.0652 0.0633,-0.189032 0.14062,-0.275141 0.0773,-0.0861 0.30577,-0.54906 0.50762,-1.028761 0.31092,-0.738899 0.36712,-0.947499 0.36778,-1.365149 0.001,-0.78145 -0.11694,-1.77165 -0.2266,-1.898499 -0.0837,-0.0968 -0.0807,-0.172763 0.018,-0.455052 0.20081,-0.574429 0.0205,-1.84254 -0.22665,-1.594098 -0.0582,0.0585 -0.0878,0.450048 -0.0878,1.16142 v 1.073208 l -0.22752,0.0468 c -0.48289,0.0994 -0.65811,0.245501 -0.8157,0.680262 -0.08316,0.22942 -0.208908,0.485378 -0.279441,0.568809 -0.45459,0.537689 -0.604179,0.97976 -0.654426,1.933969 -0.02087,0.396272 -0.0689,0.89113 -0.106743,1.099691 -0.03785,0.208571 -0.107959,0.669311 -0.155815,1.02386 -0.04786,0.354571 -0.151752,0.832369 -0.230882,1.061789 -0.188572,0.54674 -0.60172,2.53864 -0.676411,3.261191 -0.03234,0.31284 -0.09999,0.893029 -0.150332,1.289309 -0.133272,1.049052 0.0114,4.44091 0.210645,4.93858 0.11405,0.284861 -0.01062,0.753542 -0.251675,0.946082 -0.187174,0.149508 -0.195632,0.184708 -0.147211,0.612669 l 0.05137,0.45407 -0.368572,0.3195 -0.368571,0.31949 -1.023862,-0.02201 c -0.563125,-0.0122 -1.092119,-0.0339 -1.175546,-0.0483 z m 0.07584,-4.151231 0.379208,-0.344291 -0.293742,0.0477 c -0.469864,0.0762 -0.757066,0.34053 -0.616776,0.56751 0.07517,0.121629 0.129483,0.0939 0.53131,-0.270891 z m 8.532182,-1.051181 c 0,-0.01839 -0.0341,-0.0545 -0.0758,-0.0803 -0.0417,-0.0258 -0.0759,-0.0108 -0.0759,0.0334 0,0.0442 0.0341,0.0803 0.0759,0.0803 0.0417,0 0.0758,-0.01511 0.0758,-0.0334 z m 0.13724,-0.438529 c 0.0312,-0.164721 -0.39825,-0.437451 -0.68947,-0.43784 -0.41373,-7.94e-4 -0.31201,0.325159 0.17047,0.545891 0.20032,0.0917 0.49268,0.0308 0.519,-0.108051 z M 97.730133,27.498236 c 0.08982,-0.281562 0.198381,-0.784961 0.241245,-1.118672 0.08094,-0.630179 0.222749,-1.120748 0.36512,-1.26312 0.05972,-0.0597 0.05961,-0.13339 -3.71e-4,-0.26506 -0.06126,-0.134459 -0.05999,-0.20546 0.0048,-0.27028 0.06666,-0.0667 0.05775,-0.12125 -0.03685,-0.225779 -0.109784,-0.12132 -0.113221,-0.185989 -0.02862,-0.538639 0.09415,-0.392441 0.09136,-0.40785 -0.134162,-0.742011 -0.12667,-0.18769 -0.254792,-0.442341 -0.284716,-0.565901 -0.07914,-0.3268 -0.497598,-1.248508 -0.566811,-1.248508 -0.03248,0 -0.152146,0.247428 -0.26592,0.549849 -0.113774,0.302419 -0.336553,0.79911 -0.495063,1.103749 -0.416915,0.80127 -0.491128,1.239761 -0.33785,1.99621 0.176652,0.87181 0.667809,2.21484 0.984331,2.69154 0.149192,0.224711 0.29832,0.408551 0.331396,0.408551 0.03308,0 0.13363,-0.23037 0.223451,-0.511929 z m 9.465807,-4.057531 c -0.0277,-0.0939 -0.12202,-0.537519 -0.20965,-0.985941 -0.0876,-0.44841 -0.18711,-0.815289 -0.22106,-0.815289 -0.0339,0 -0.097,0.145039 -0.14003,0.32232 -0.0431,0.177279 -0.13624,0.504399 -0.20704,0.72694 -0.15527,0.48808 -0.10899,0.58804 0.35778,0.772769 0.4522,0.17898 0.47852,0.17767 0.42,-0.0208 z"
       style="fill:#000000;stroke-width:0.0200664"
       id="path2724" />
  </g>
</svg>
