<?xml version="1.0" encoding="UTF-8" standalone="no"?>
<!-- Created with Inkscape (http://www.inkscape.org/) -->

<svg
   width="210mm"
   height="297mm"
   viewBox="0 0 210 297"
   version="1.1"
   id="svg5"
   sodipodi:docname="man_11.svg"
   inkscape:version="1.1.1 (c3084ef, 2021-09-22)"
   xmlns:inkscape="http://www.inkscape.org/namespaces/inkscape"
   xmlns:sodipodi="http://sodipodi.sourceforge.net/DTD/sodipodi-0.dtd"
   xmlns="http://www.w3.org/2000/svg"
   xmlns:svg="http://www.w3.org/2000/svg">
  <sodipodi:namedview
     id="namedview7"
     pagecolor="#505050"
     bordercolor="#eeeeee"
     borderopacity="1"
     inkscape:pageshadow="0"
     inkscape:pageopacity="0"
     inkscape:pagecheckerboard="0"
     inkscape:document-units="mm"
     showgrid="false"
     inkscape:zoom="0.62885375"
     inkscape:cx="652.77499"
     inkscape:cy="446.04966"
     inkscape:window-width="1512"
     inkscape:window-height="837"
     inkscape:window-x="0"
     inkscape:window-y="38"
     inkscape:window-maximized="1"
     inkscape:current-layer="layer1" />
  <defs
     id="defs2" />
  <g
     inkscape:label="Layer 1"
     inkscape:groupmode="layer"
     id="layer1">
    <path
       d="m 104.34714,62.128554 c -0.0834,-0.0348 -0.25055,-0.16767 -0.37138,-0.29539 -0.20551,-0.21721 -0.2167,-0.2606 -0.17318,-0.67149 0.0256,-0.2416 0.0678,-0.54399 0.0937,-0.67195 0.0364,-0.1796 0.005,-0.28341 -0.13679,-0.45506 -0.10119,-0.12229 -0.245,-0.3947 -0.3196,-0.6053 -0.13242,-0.37389 -0.13075,-0.44063 0.0703,-2.8228 0.11328,-1.34193 0.18671,-2.63713 0.16318,-2.87826 -0.0235,-0.2411 -0.0702,-0.71141 -0.10371,-1.04512 -0.0335,-0.3337 -0.11659,-0.70989 -0.18462,-0.83598 -0.24564,-0.45522 -0.39096,-1.58067 -0.33834,-2.62033 0.0267,-0.52746 0.0689,-1.06109 0.0939,-1.18582 0.0414,-0.20706 0.015,-0.24458 -0.30318,-0.43105 -0.55118,-0.32302 -0.65179,-0.46843 -0.65179,-0.942 0,-0.35229 -0.0426,-0.47608 -0.29329,-0.85142 -0.46161,-0.69127 -0.82919,-2.39196 -0.91406,-4.22905 -0.0455,-0.98525 -0.0821,-1.26124 -0.18018,-1.35933 -0.11354,-0.11353 -0.12892,-0.10769 -0.1985,0.0753 -0.0415,0.10911 -0.14941,0.61843 -0.23983,1.13179 -0.0926,0.52583 -0.25845,1.15127 -0.379764,1.43232 -0.25284,0.58574 -0.35198,1.08885 -0.22949,1.16456 0.1365,0.0844 0.0951,0.59367 -0.0683,0.83932 -0.46541,0.7 -0.62369,1.18246 -0.69549,2.11991 -0.0385,0.50256 -0.051,1.05026 -0.0277,1.21711 0.0912,0.65455 0.0609,1.81868 -0.0564,2.16377 -0.24719,0.72724 -0.38714,2.29948 -0.39133,4.39653 -0.004,1.94303 0.002,2.02041 0.16662,2.32911 0.14385,0.26919 0.17064,0.43678 0.17064,1.06753 0,0.67913 -0.0158,0.76263 -0.17064,0.90425 -0.27301,0.24963 -0.63319,0.4013 -0.95299,0.4013 -0.34618,0 -0.50391,0.10578 -1.3033,0.87403 l -0.56881,0.54665 -0.74268,0.0869 c -0.55799,0.0653 -0.78432,0.0653 -0.9101,9e-5 -0.38139,-0.19791 -1.11544,-0.76438 -1.11544,-0.86082 0,-0.14915 0.80117,-0.84216 1.17883,-1.01968 0.17609,-0.0828 0.39288,-0.24606 0.48174,-0.36286 0.66368,-0.87229 0.86136,-1.08195 1.27278,-1.35 l 0.46566,-0.30336 0.0933,-0.75565 c 0.0743,-0.60171 0.074,-0.80255 -10e-4,-0.98593 -0.19245,-0.46867 -0.72661,-2.74578 -0.80122,-3.41565 -0.0279,-0.25028 -0.0823,-0.51423 -0.12089,-0.58659 -0.0988,-0.18513 -0.13421,-0.58305 -0.19071,-2.1437 -0.0472,-1.30404 -0.0574,-1.37264 -0.22786,-1.53218 -0.16507,-0.1545 -0.17846,-0.22575 -0.17846,-0.9501 0,-0.54515 -0.032,-0.82874 -0.10524,-0.93334 -0.22953,-0.32769 -0.29309,-5.2811 -0.0945,-7.36364 0.17184,-1.80186 0.16578,-2.1068 -0.0458,-2.30389 -0.10063,-0.0938 -0.17369,-0.25695 -0.17958,-0.40112 -0.006,-0.13368 -0.0367,-0.37533 -0.0693,-0.53699 -0.0477,-0.23601 -0.0347,-0.30775 0.0658,-0.36403 0.0689,-0.0385 0.12523,-0.12239 0.12523,-0.18633 0,-0.064 0.0996,-0.3438 0.22131,-0.62193 0.12171,-0.27811 0.26009,-0.7275 0.30751,-0.99864 0.0474,-0.27114 0.1407,-0.69161 0.20731,-0.9344 0.1117,-0.40712 0.11138,-0.46188 -0.004,-0.70412 -0.16919,-0.3548 -0.15748,-0.52639 0.0692,-1.0133 0.16053,-0.34487 0.19544,-0.54027 0.20783,-1.16304 0.01,-0.49054 -0.0153,-0.77361 -0.0727,-0.82126 -0.0568,-0.0471 -0.31063,-0.0283 -0.7205,0.0532 -0.62809,0.12496 -0.63717,0.12454 -1.20169,-0.0555 -0.49629,-0.15834 -0.58572,-0.21507 -0.70142,-0.44491 -0.16537,-0.3285 -0.17462,-1.13854 -0.0204,-1.79224 0.16975,-0.71983 0.13117,-0.91198 -0.2451,-1.22071 -0.17728,-0.14548 -0.32216,-0.3201 -0.32196,-0.38808 2.3e-4,-0.068 0.15607,-0.46486 0.34637,-0.882 0.1903,-0.41713 0.44903,-1.0485 0.57495,-1.40306 0.12591,-0.35456 0.29824,-0.76411 0.38295,-0.9101 0.0847,-0.14599 0.28397,-0.65792 0.44279,-1.13764 0.53285,-1.60939 0.52388,-1.59219 0.90703,-1.7384 0.36867,-0.14067 1.24834,-0.700693 2.27525,-1.448482 0.35455,-0.258191 0.99088,-0.636651 1.41405,-0.841042 0.42317,-0.20438 0.79005,-0.425418 0.8153,-0.49121 0.12028,-0.313449 0.0387,-1.213829 -0.1738,-1.918991 -0.26259,-0.871169 -0.332,-1.299318 -0.2669,-1.646309 0.0341,-0.181779 0.0894,-0.25813 0.18702,-0.25813 0.10676,0 0.14699,-0.074 0.17515,-0.322328 0.0201,-0.177282 0.0715,-0.641181 0.11429,-1.030881 0.0739,-0.6734514 0.2215,-1.0737324 0.396004,-1.0737324 0.0435,0 0.36587,-0.175299 0.71649,-0.389559 0.63402,-0.387429 0.6403,-0.38935 1.15168,-0.3518 0.87723,0.0644 2.00019,0.66988 2.13272,1.149889 0.0394,0.142672 0.0341,0.6802924 -0.0129,1.3181524 -0.078,1.05764 -0.0764,1.08042 0.0865,1.253871 0.11657,0.124079 0.16597,0.271859 0.16597,0.496527 0,0.439981 -0.15716,0.777161 -0.56587,1.21412 -0.33467,0.357781 -0.35041,0.395711 -0.42824,1.032053 -0.10058,0.822237 -0.0662,0.963078 0.27437,1.125508 0.14901,0.071 1.01038,0.594651 1.91416,1.16355 0.90378,0.568894 1.80678,1.102324 2.00668,1.185394 l 0.36345,0.15105 v 0.60038 c 0,0.38643 0.0407,0.67911 0.11423,0.82127 0.14301,0.27657 0.4049,1.32002 0.49468,1.97099 0.082,0.59428 0.46835,1.90637 0.63735,2.1643 l 0.12166,0.18569 -0.49428,0.23352 c -0.57621,0.27225 -0.60521,0.33496 -0.55511,1.20036 0.0264,0.45597 0.0888,0.70566 0.27703,1.10782 0.13611,0.29088 0.2758,0.75079 0.31765,1.04584 0.0411,0.28967 0.0897,0.55096 0.10806,0.58067 0.0184,0.0297 0.0479,1.17756 0.0657,2.55082 l 0.0324,2.49683 0.19813,0.0986 c 0.10896,0.0543 0.23671,0.17074 0.28388,0.25889 0.11277,0.21072 0.044,1.09355 -0.10726,1.37647 -0.0667,0.12479 -0.13698,0.52805 -0.1652,0.94802 -0.0546,0.81231 -0.17881,1.86147 -0.239,2.01832 -0.0215,0.0561 -0.13049,0.12471 -0.24218,0.15259 -0.24949,0.0623 -0.46437,0.24791 -0.55193,0.47688 -0.0363,0.0949 -0.12624,0.19433 -0.19986,0.22091 -0.0736,0.0266 -0.22534,0.11164 -0.33714,0.18906 -0.20074,0.13898 -0.20479,0.1386 -0.32352,-0.0309 -0.11403,-0.16282 -0.1107,-0.17482 0.0647,-0.23328 0.23616,-0.0787 0.32721,-0.3446 0.39217,-1.14518 0.0654,-0.80574 0.003,-1.18299 -0.19624,-1.18299 -0.17565,0 -0.28109,0.18005 -0.34707,0.59269 -0.0332,0.20781 -0.1242,0.37505 -0.27907,0.51303 l -0.22976,0.20472 0.0447,1.04395 c 0.0245,0.57417 0.0875,1.25133 0.13984,1.5048 0.0777,0.3764 0.0751,0.73565 -0.0145,1.9602 -0.0603,0.82462 -0.10967,2.23927 -0.10967,3.14365 v 1.64432 l -0.21263,0.22219 c -0.21175,0.22127 -0.21226,0.22428 -0.12369,0.73287 0.13756,0.78996 0.051,2.60018 -0.18871,3.94719 -0.30886,1.73545 -0.54801,2.71995 -0.80037,3.29494 -0.26953,0.6141 -0.28056,0.78486 -0.0793,1.22832 0.0825,0.18184 0.15077,0.46083 0.15168,0.61999 0.002,0.36693 0.11662,0.58279 0.30915,0.58279 0.11915,0 0.14134,0.0363 0.10666,0.17454 -0.0274,0.10916 0.0289,0.31924 0.15023,0.56086 0.10673,0.21249 0.19405,0.46154 0.19405,0.55346 0,0.23178 0.20406,0.63887 0.43698,0.8718 0.17175,0.17175 0.19868,0.27029 0.2237,0.81853 l 0.0284,0.62329 -0.51668,0.24649 c -0.47414,0.2262 -0.57586,0.24608 -1.2357,0.24167 -0.39547,-0.003 -0.78728,-0.0332 -0.87071,-0.068 z m 2.4863,-25.42898 c 0.0671,-0.38584 0.14493,-0.86486 0.17302,-1.06448 0.0281,-0.19963 0.13775,-0.48973 0.24366,-0.64467 0.25483,-0.37276 0.2913,-0.82892 0.13572,-1.6974 -0.18859,-1.05273 -0.38989,-1.74164 -0.7665,-2.62329 -0.18603,-0.43551 -0.33824,-0.89086 -0.33824,-1.01191 0,-0.42989 -0.13281,-0.21193 -0.17783,0.29184 -0.12086,1.35257 -0.13803,2.30087 -0.0539,2.97679 0.1081,0.86836 0.17916,1.11276 0.41757,1.4359 0.18101,0.24534 0.18188,0.25568 0.13817,1.64282 -0.0494,1.56679 0.0331,1.8176 0.22832,0.6944 z m -0.76904,-8.03221 -0.073,-0.25349 -0.007,0.27177 c -0.004,0.14947 0.018,0.29664 0.0485,0.32706 0.0929,0.0929 0.10838,-0.0778 0.0314,-0.34534 z"
       style="fill:#000000;stroke-width:0.0200664"
       id="path2953" />
  </g>
</svg>
