<?xml version="1.0" encoding="UTF-8" standalone="no"?>
<!-- Created with Inkscape (http://www.inkscape.org/) -->

<svg
   width="210mm"
   height="297mm"
   viewBox="0 0 210 297"
   version="1.1"
   id="svg5"
   sodipodi:docname="man_14.svg"
   inkscape:version="1.1.1 (c3084ef, 2021-09-22)"
   xmlns:inkscape="http://www.inkscape.org/namespaces/inkscape"
   xmlns:sodipodi="http://sodipodi.sourceforge.net/DTD/sodipodi-0.dtd"
   xmlns="http://www.w3.org/2000/svg"
   xmlns:svg="http://www.w3.org/2000/svg">
  <sodipodi:namedview
     id="namedview7"
     pagecolor="#505050"
     bordercolor="#eeeeee"
     borderopacity="1"
     inkscape:pageshadow="0"
     inkscape:pageopacity="0"
     inkscape:pagecheckerboard="0"
     inkscape:document-units="mm"
     showgrid="false"
     inkscape:zoom="0.62885375"
     inkscape:cx="652.77499"
     inkscape:cy="446.04966"
     inkscape:window-width="1512"
     inkscape:window-height="837"
     inkscape:window-x="0"
     inkscape:window-y="38"
     inkscape:window-maximized="1"
     inkscape:current-layer="layer1" />
  <defs
     id="defs2" />
  <g
     inkscape:label="Layer 1"
     inkscape:groupmode="layer"
     id="layer1">
    <path
       d="m 105.80968,60.361914 c -0.39776,-0.57854 -0.44406,-0.87987 -0.2666,-1.73549 0.0836,-0.40332 0.17414,-1.26772 0.20936,-1.9997 0.0505,-1.0502 0.10417,-1.45106 0.28925,-2.16149 0.35335,-1.35634 0.35566,-1.38685 0.12546,-1.66041 -0.34273,-0.40732 -0.43023,-0.32476 -0.37324,0.35214 0.0453,0.53862 0.0331,0.61824 -0.14647,0.95203 -0.10778,0.20035 -0.19596,0.39733 -0.19596,0.43773 0,0.0404 -0.0864,0.20395 -0.19193,0.36347 -0.111,0.16773 -0.22442,0.49174 -0.26896,0.76836 -0.0424,0.26306 -0.10958,0.53912 -0.14936,0.61345 -0.0398,0.0744 -0.0723,0.27155 -0.0723,0.43827 0,0.28317 -0.0383,0.33653 -0.58198,0.81068 -0.32009,0.27917 -0.69441,0.55456 -0.83182,0.61197 -0.32297,0.13495 -1.01867,0.1346 -1.20357,-7.9e-4 -0.32184,-0.23533 -0.24488,-1.68983 0.1156,-2.18479 0.0818,-0.11228 0.23545,-0.38531 0.34151,-0.60673 0.10605,-0.22143 0.35636,-0.6825 0.55624,-1.02461 0.19988,-0.34211 0.42755,-0.81068 0.50593,-1.04128 0.17916,-0.52708 0.10883,-0.76795 -0.28358,-0.9712 -0.64645,-0.33485 -1.03344,-1.13188 -0.93914,-1.93424 0.0265,-0.22581 0.0147,-0.53593 -0.0264,-0.68914 -0.0704,-0.26264 -0.16279,-0.9667 -0.30224,-2.30286 -0.0356,-0.34131 -0.12796,-0.71198 -0.22256,-0.89347 -0.0889,-0.17044 -0.16167,-0.42737 -0.16167,-0.57079 0,-0.14342 -0.0722,-0.39918 -0.16031,-0.56835 -0.13341,-0.25596 -0.15245,-0.38682 -0.11345,-0.77971 0.0325,-0.32705 -0.004,-0.77513 -0.11884,-1.45809 -0.12027,-0.71552 -0.16441,-1.28756 -0.16095,-2.08564 0.007,-1.59032 0.0785,-3.08457 0.17073,-3.56455 0.13942,-0.72533 0.17643,-1.25698 0.12254,-1.76022 l -0.0523,-0.48808 -0.53052,-0.28653 c -0.37308,-0.20151 -0.61284,-0.39682 -0.80793,-0.65814 -0.152584,-0.20437 -0.320454,-0.37159 -0.373044,-0.37159 -0.17663,0 -0.32719,0.43138 -0.32296,0.92529 0.008,0.97283 0.11711,1.64902 0.2959,1.83933 0.21974,0.2339 0.28955,0.56803 0.352324,1.68624 0.0518,0.92225 0.0515,0.92473 -0.148534,1.1624 -0.11023,0.131 -0.20042,0.30192 -0.20042,0.37982 0,0.0779 -0.0805,0.23521 -0.17888,0.3496 l -0.17889,0.20797 -0.4944,-0.24585 c -0.91849,-0.45673 -0.99986,-0.66179 -1.0122,-2.55064 -0.005,-0.75083 -0.0331,-1.62824 -0.0626,-1.94978 -0.0386,-0.42042 -0.0264,-0.63345 0.0433,-0.75841 0.072,-0.12905 0.10983,-0.99386 0.14703,-3.35914 0.0521,-3.3124 0.0956,-3.81533 0.40714,-4.70218 0.15553,-0.44277 0.19966,-0.77007 0.26584,-1.97188 0.0461,-0.83635 0.1292,-1.61602 0.19815,-1.85812 0.0653,-0.22942 0.14871,-0.55365 0.18527,-0.72049 0.55357,-2.52609 0.64811,-2.80339 1.191514,-3.49512 0.16109,-0.20504 0.40031,-0.53003 0.53161,-0.72219 0.23247,-0.3402 0.25152,-0.35069 0.72538,-0.39924 0.82601,-0.0846 1.16554,-0.20679 2.51677,-0.90556 0.12514,-0.0647 0.49114,-0.24006 0.81334,-0.38965 0.79432,-0.3688 0.92652,-0.64443 0.53326,-1.11181 l -0.20815,-0.24737 -0.0563,-1.66753 -0.0563,-1.667539 0.19412,-0.2545 c 0.19377,-0.25404 0.19388,-0.25514 0.0636,-0.596191 -0.10812,-0.283099 -0.11556,-0.391499 -0.0434,-0.632381 0.0479,-0.15989 0.0873,-0.3891301 0.0876,-0.5094291 2.6e-4,-0.1203 0.0644,-0.315621 0.14246,-0.434041 0.14765,-0.223948 0.7149,-0.662098 1.10843,-0.85617 0.4741,-0.233799 0.74149,-0.40137 0.88323,-0.553508 0.17874,-0.191853 0.28349,-0.198351 0.40995,-0.0254 0.0705,0.0964 0.21884,0.135839 0.55151,0.146579 0.34464,0.01109 0.57174,0.0745 0.93579,0.261059 0.56927,0.291772 1.0519,0.69837 1.17858,0.99291 0.0559,0.13 0.14921,0.21192 0.24137,0.21192 0.18483,0 0.2601,0.213151 0.19598,0.5549611 -0.0412,0.21957 -0.0248,0.26442 0.1097,0.29958 0.087,0.0227 0.15815,0.0969 0.15815,0.164891 0,0.101719 -0.0279,0.10858 -0.15818,0.0389 -0.22848,-0.122269 -0.25083,-0.0491 -0.0737,0.241411 0.20979,0.344109 0.19696,0.585248 -0.0779,1.46457 l -0.23395,0.74845 0.23395,0.183089 c 0.34028,0.26631 0.30959,0.49794 -0.1395,1.05296 -0.36391,0.44976 -0.74985,0.71182 -1.04829,0.71182 -0.30915,0 -0.55014,0.51767 -0.55014,1.18175 0,0.3307 0.0259,0.4089 0.14792,0.44765 0.0814,0.0258 0.20369,0.17334 0.27184,0.32781 0.0779,0.17651 0.25933,0.37046 0.48841,0.52205 0.20048,0.13265 0.46327,0.38825 0.58399,0.568 0.17457,0.25993 0.37417,0.40818 0.9753,0.7244 0.41569,0.21868 0.92541,0.46211 1.13269,0.54097 0.30351,0.11547 0.38836,0.18763 0.43579,0.37069 0.0324,0.12502 0.11023,0.2699 0.17297,0.32198 0.0627,0.052 0.11406,0.15119 0.11406,0.22028 0,0.0691 0.10146,0.36354 0.22547,0.65432 l 0.22548,0.52871 0.005,3.45079 c 0.004,2.69217 0.0293,3.57585 0.11542,4.01962 0.27964,1.44132 0.34448,2.13072 0.41374,4.3988 0.0824,2.69984 0.20008,4.72838 0.30346,5.23307 0.0384,0.18771 0.0706,0.63139 0.0715,0.98595 0.002,0.62083 -0.0668,0.8768 -0.36451,1.36515 -0.0382,0.0626 -0.10705,0.20902 -0.15311,0.32545 -0.0601,0.15188 -0.21773,0.27508 -0.55795,0.43603 -0.55602,0.26304 -0.64144,0.26963 -0.88341,0.0682 -0.17355,-0.14452 -0.17948,-0.17979 -0.13264,-0.78907 0.027,-0.3508 0.0831,-0.72748 0.12479,-0.83708 0.0417,-0.10961 0.0758,-0.49406 0.0758,-0.85434 0,-0.6311 0.009,-0.66402 0.23727,-0.89988 0.20718,-0.21374 0.24198,-0.31063 0.27442,-0.76403 0.033,-0.46081 0.01,-0.58302 -0.20404,-1.08604 -0.64936,-1.52591 -1.16782,-3.3331 -1.40039,-4.88126 -0.0616,-0.41005 -0.13577,-0.76742 -0.16482,-0.79416 -0.0903,-0.0831 0.039,1.71588 0.16733,2.32811 0.13341,0.63645 0.10154,2.06387 -0.058,2.59626 -0.0618,0.20615 -0.0615,0.47316 0.001,1.00389 0.12148,1.03004 0.11063,1.87863 -0.0265,2.07445 -0.10867,0.15514 -0.40705,1.63796 -0.60803,3.02156 -0.0912,0.62758 -0.39903,2.0076 -0.57923,2.59644 -0.0413,0.13494 -0.10445,0.47623 -0.14033,0.75841 -0.14777,1.16206 -0.36173,2.14857 -0.49886,2.30008 -0.11559,0.12774 -0.12573,0.192 -0.0584,0.37034 0.0471,0.12473 0.054,0.25916 0.0163,0.31853 -0.0358,0.0565 -0.0656,0.2339 -0.0663,0.3942 -0.002,0.41022 -0.28186,1.76588 -0.44925,2.17339 -0.0771,0.18771 -0.16425,0.47618 -0.19365,0.64103 -0.0294,0.16486 -0.13594,0.45468 -0.23675,0.64405 -0.22274,0.41842 -0.23175,0.72015 -0.0313,1.04889 0.17376,0.28499 0.18164,0.32049 0.0711,0.32049 -0.0442,0 -0.21852,0.11092 -0.38746,0.24649 -0.39974,0.32075 -0.7419,1.00099 -0.82658,1.64334 -0.0362,0.27454 -0.10535,0.67346 -0.15367,0.8865 -0.0776,0.34198 -0.0691,0.43743 0.0724,0.81551 0.0881,0.2355 0.26341,0.63263 0.38955,0.88251 0.2738,0.5424 0.4552,1.19926 0.4552,1.64834 0,0.38554 -0.24666,0.82176 -0.62998,1.11414 -0.23805,0.18156 -0.31377,0.19564 -1.05204,0.19564 h -0.7955 l -0.27375,-0.39816 z m 0.20684,-9.60103 c 0.0244,-0.0769 -0.003,-0.25209 -0.0606,-0.38934 -0.0915,-0.2175 -0.0883,-0.31402 0.0245,-0.75135 0.0712,-0.27599 0.18396,-0.607 0.25066,-0.73558 0.10469,-0.20184 0.10802,-0.28476 0.0243,-0.60674 -0.0907,-0.34897 -0.0846,-0.39829 0.0944,-0.76728 0.16194,-0.33381 0.17778,-0.42402 0.10317,-0.58777 -0.0485,-0.10639 -0.11668,-0.19344 -0.15157,-0.19344 -0.1072,0 -0.38506,0.91515 -0.46798,1.54129 -0.0872,0.65848 -0.1072,2.50025 -0.028,2.57944 0.0879,0.0879 0.16527,0.0552 0.21111,-0.0892 z m 7.92806,-10.77084 c -0.002,-0.0873 -0.14143,-0.27246 -0.17755,-0.23589 -0.0194,0.0196 -0.0576,0.17224 -0.0848,0.3391 l -0.0495,0.30336 0.15648,-0.17905 c 0.0861,-0.0985 0.15597,-0.20086 0.15533,-0.22752 z m -14.332904,-0.7438 c 0,-0.3462 -0.17678,-1.09124 -0.2529,-1.06586 -0.0464,0.0155 -0.17765,0.18682 -0.2916,0.38077 l -0.20718,0.35263 0.25621,0.12158 c 0.14091,0.0668 0.27484,0.17014 0.29761,0.22948 0.0572,0.14905 0.19786,0.13582 0.19786,-0.0186 z"
       style="fill:#000000;stroke-width:0.0200664"
       id="path3069" />
  </g>
</svg>
