<?xml version="1.0" encoding="UTF-8" standalone="no"?>
<!-- Created with Inkscape (http://www.inkscape.org/) -->

<svg
   width="210mm"
   height="297mm"
   viewBox="0 0 210 297"
   version="1.1"
   id="svg5"
   inkscape:version="1.1.1 (c3084ef, 2021-09-22)"
   sodipodi:docname="man_1.svg"
   xmlns:inkscape="http://www.inkscape.org/namespaces/inkscape"
   xmlns:sodipodi="http://sodipodi.sourceforge.net/DTD/sodipodi-0.dtd"
   xmlns="http://www.w3.org/2000/svg"
   xmlns:svg="http://www.w3.org/2000/svg">
  <sodipodi:namedview
     id="namedview7"
     pagecolor="#505050"
     bordercolor="#eeeeee"
     borderopacity="1"
     inkscape:pageshadow="0"
     inkscape:pageopacity="0"
     inkscape:pagecheckerboard="0"
     inkscape:document-units="mm"
     showgrid="false"
     inkscape:zoom="0.67546093"
     inkscape:cx="585.5261"
     inkscape:cy="384.1821"
     inkscape:window-width="1512"
     inkscape:window-height="837"
     inkscape:window-x="0"
     inkscape:window-y="38"
     inkscape:window-maximized="1"
     inkscape:current-layer="layer1" />
  <defs
     id="defs2" />
  <g
     inkscape:label="Layer 1"
     inkscape:groupmode="layer"
     id="layer1">
    <path
       d="m 101.53657,59.277082 c -0.0914,-0.0368 -0.22377,-0.15477 -0.2941,-0.26211 -0.12468,-0.19029 -0.12333,-0.29273 0.0117,-0.88387 l 0.0454,-0.19869 -0.63264,-0.0338 c -0.706979,-0.0378 -1.030129,-0.1585 -1.190539,-0.44469 -0.0961,-0.1714 -0.0928,-0.22616 0.0291,-0.48296 0.18433,-0.38846 0.47918,-0.55093 1.115819,-0.61486 0.46537,-0.0467 0.56845,-0.0869 0.83006,-0.32322 0.18138,-0.16387 0.39367,-0.27927 0.54051,-0.29382 0.13299,-0.0132 0.38392,-0.0447 0.55762,-0.0701 l 0.31581,-0.0462 0.0255,-0.82083 c 0.0224,-0.72148 0.0472,-0.85018 0.20493,-1.06327 0.13781,-0.1862 0.1704,-0.30636 0.14048,-0.51801 -0.0646,-0.45702 -0.60362,-1.51399 -1.04531,-2.04984 -0.12245,-0.14855 -0.22264,-0.30766 -0.22264,-0.35358 0,-0.11116 -0.41428,-0.74442 -0.77313,-1.18179 -0.15876,-0.1935 -0.28865,-0.37657 -0.28865,-0.40682 0,-0.0302 -0.22142,-0.392939 -0.49205,-0.805979 -0.27062,-0.41304 -0.569249,-0.89282 -0.663609,-1.06617 -0.40176,-0.73807 -0.64173,-1.14094 -0.87759,-1.47325 -0.13804,-0.19449 -0.39947,-0.64926 -0.58095,-1.01062 l -0.329972,-0.65702 -0.04635,-2.95397 c -0.02549,-1.62468 -0.06579,-3.39884 -0.08957,-3.94256 l -0.04322,-0.98859 -0.387339,-0.092 c -0.498947,-0.11852 -0.548569,-0.17326 -0.439419,-0.48472 0.08117,-0.23163 0.07266,-0.26484 -0.10434,-0.40676 -0.243116,-0.19493 -0.251858,-0.55185 -0.03708,-1.51398 0.160881,-0.7207 0.478174,-2.8138 0.565072,-3.72765 l 0.05157,-0.54231 -0.237034,-0.0521 c -0.281177,-0.0618 -0.387636,-0.20921 -0.645301,-0.89383 -0.287163,-0.76298 -0.26675,-1.50721 0.07861,-2.86626 0.05899,-0.23216 0.107266,-0.57738 0.107266,-0.76715 0,-0.22099 0.05072,-0.41007 0.14106,-0.52592 0.07758,-0.0995 0.160095,-0.28325 0.18336,-0.40839 0.02326,-0.12514 0.07842,-0.36404 0.122578,-0.53089 0.04415,-0.16686 0.08108,-0.45773 0.08209,-0.6464 9.79e-4,-0.18866 0.08713,-0.67937 0.191414,-1.09046 0.104282,-0.4111 0.189973,-0.85399 0.190424,-0.98421 4.5e-4,-0.13021 0.05586,-0.4074 0.123119,-0.61597 0.06726,-0.20856 0.150316,-0.73755 0.184561,-1.17554 0.181311,-2.31886 0.127971,-2.15476 0.971311,-2.98837 l 0.52962,-0.52351 -0.0422,-0.53827 c -0.0333,-0.424958 -0.08,-0.579054 -0.22214,-0.732021 -0.26803,-0.288544 -0.22521,-0.404142 0.2328,-0.628406 0.22703,-0.111167 0.43382,-0.236156 0.45953,-0.277753 0.0257,-0.0416 0.124329,-0.07563 0.219179,-0.07563 0.27019,0 0.98815,-0.918257 0.88337,-1.129827 -0.16261,-0.328333 -0.24558,-0.76879 -0.29797,-1.581846 -0.0653,-1.0135047 -0.17666,-1.3058557 -0.68452,-1.7973336 -0.185359,-0.179373 -0.309799,-0.369688 -0.309799,-0.473791 0,-0.442073 1.332929,-1.44069 2.395209,-1.794459 0.52999,-0.176502 0.67812,-0.195201 1.209,-0.152601 1.02681,0.08239 1.98269,0.647222 2.1586,1.27551 0.0794,0.283762 0.0754,0.370916 -0.0267,0.57564 -0.0912,0.182898 -0.10063,0.278103 -0.0388,0.39362 0.0584,0.109157 0.0572,0.318875 -0.004,0.7394779 -0.0667,0.456216 -0.0646,0.666669 0.01,0.9439627 0.0858,0.320808 0.0784,0.405682 -0.0733,0.840246 -0.0928,0.265866 -0.16871,0.594204 -0.16871,0.729641 0,0.271142 0.2542,0.853229 0.47622,1.090473 0.0781,0.08342 0.29432,0.380173 0.48056,0.659437 0.39333,0.589788 0.72633,0.895316 0.97582,0.895316 0.0971,0 0.32282,0.122149 0.50151,0.271444 0.17869,0.14929 0.49761,0.35879 0.70871,0.46555 0.55996,0.28319 1.23901,0.75926 1.37159,0.9616 0.0634,0.0967 0.22479,0.49641 0.35869,0.88819 l 0.24347,0.71233 0.0246,4.04069 c 0.0246,4.03761 0.0245,4.04095 -0.14259,4.37543 -0.27112,0.54286 -0.64054,0.82775 -1.85114,1.42753 -0.62569,0.31 -1.21263,0.58714 -1.30431,0.61587 -0.15924,0.0499 -0.16486,0.0817 -0.12588,0.71201 0.0508,0.82255 0.25185,1.86587 0.62388,3.23837 0.0791,0.292 0.18288,0.90631 0.23052,1.36515 0.0477,0.45885 0.14076,1.04758 0.20692,1.30831 0.14541,0.57305 0.0912,1.04865 -0.10977,0.96285 -0.0704,-0.0301 -0.25516,-0.0909 -0.41047,-0.13523 -0.25295,-0.0722 -0.30235,-0.0618 -0.47401,0.0995 -0.15661,0.14713 -0.19163,0.25108 -0.19163,0.56878 0,0.2138 -0.0346,0.42331 -0.0768,0.46556 -0.10597,0.10597 -0.33353,3.2986 -0.33725,4.73154 -0.003,1.2734 0.0477,2.18876 0.12926,2.32014 0.0612,0.0985 0.18714,0.75978 0.29486,1.54778 0.0998,0.72995 0.042,3.17389 -0.0804,3.40268 -0.0498,0.093 -0.15654,0.704989 -0.23726,1.359979 -0.0807,0.655 -0.18093,1.27622 -0.2227,1.38051 -0.1321,0.32983 -0.22043,1.39194 -0.12411,1.4924 0.12625,0.1317 0.50277,0.0358 0.50277,-0.12798 0,-0.11533 0.13858,-0.2268 0.28196,-0.2268 0.0231,0 0.0228,0.14505 -7.7e-4,0.32233 -0.0256,0.19301 2.3e-4,0.44403 0.0644,0.62569 0.12875,0.36455 0.13886,0.7246 0.0272,0.9696 -0.0632,0.13869 -0.0544,0.24688 0.0379,0.46788 0.0661,0.15812 0.12012,0.35552 0.12012,0.43869 0,0.0832 0.0583,0.31537 0.12957,0.51603 0.10976,0.30901 0.11436,0.39326 0.0301,0.55073 -0.0845,0.15797 -0.0811,0.21404 0.0232,0.37318 0.11519,0.17579 0.11301,0.1996 -0.0356,0.3885 -0.13202,0.16784 -0.21872,0.20123 -0.52251,0.20123 -0.56701,0 -0.81236,0.0725 -0.90058,0.26611 -0.0475,0.10417 -0.17533,0.19578 -0.31655,0.2268 -0.1442,0.0317 -0.26176,0.11733 -0.30035,0.21885 -0.12473,0.32805 -0.59875,0.56231 -1.48224,0.73251 -0.45884,0.0884 -1.0206,0.20914 -1.24836,0.26832 -0.46538,0.12094 -0.72194,0.12919 -0.96559,0.031 z"
       style="fill:#000000;stroke-width:0.0200664"
       id="path559" />
  </g>
</svg>
