<?xml version="1.0" encoding="UTF-8" standalone="no"?>
<!-- Created with Inkscape (http://www.inkscape.org/) -->

<svg
   width="210mm"
   height="297mm"
   viewBox="0 0 210 297"
   version="1.1"
   id="svg5"
   sodipodi:docname="man_16.svg"
   inkscape:version="1.1.1 (c3084ef, 2021-09-22)"
   xmlns:inkscape="http://www.inkscape.org/namespaces/inkscape"
   xmlns:sodipodi="http://sodipodi.sourceforge.net/DTD/sodipodi-0.dtd"
   xmlns="http://www.w3.org/2000/svg"
   xmlns:svg="http://www.w3.org/2000/svg">
  <sodipodi:namedview
     id="namedview7"
     pagecolor="#505050"
     bordercolor="#eeeeee"
     borderopacity="1"
     inkscape:pageshadow="0"
     inkscape:pageopacity="0"
     inkscape:pagecheckerboard="0"
     inkscape:document-units="mm"
     showgrid="false"
     inkscape:zoom="0.62885375"
     inkscape:cx="398.34381"
     inkscape:cy="433.3281"
     inkscape:window-width="1512"
     inkscape:window-height="837"
     inkscape:window-x="0"
     inkscape:window-y="38"
     inkscape:window-maximized="1"
     inkscape:current-layer="layer1" />
  <defs
     id="defs2" />
  <g
     inkscape:label="Layer 1"
     inkscape:groupmode="layer"
     id="layer1">
    <path
       d="m 93.299114,62.343464 c -0.0606,-0.0384 -0.0851,-0.12121 -0.0571,-0.19391 0.0637,-0.166 -0.0899,-0.76953 -0.2242,-0.88101 -0.0865,-0.0718 -0.0519,-0.15042 0.19804,-0.44891 0.16662,-0.19902 0.30295,-0.39147 0.30295,-0.4277 0,-0.0362 0.15357,-0.25306 0.34128,-0.48189 0.18771,-0.22885 0.34129,-0.46776 0.34129,-0.53097 0,-0.0632 0.0854,-0.27517 0.1896,-0.47106 0.10428,-0.1959 0.18961,-0.4005 0.18961,-0.4547 0,-0.0542 0.11945,-0.26652 0.26544,-0.47188 0.30878,-0.43429 0.33519,-0.70885 0.10419,-1.08263 l -0.16125,-0.26091 0.23926,-0.24686 c 0.18314,-0.18894 0.25616,-0.35221 0.31131,-0.69605 0.0396,-0.24707 0.12397,-0.76125 0.18743,-1.14265 0.0634,-0.3814 0.11539,-0.81226 0.11539,-0.95745 0,-0.1452 0.0507,-0.40768 0.11267,-0.5833 0.062,-0.17562 0.15148,-0.5468 0.19894,-0.82484 0.0475,-0.27805 0.12069,-0.54857 0.16278,-0.60118 0.0421,-0.0526 0.10461,-0.63279 0.13898,-1.28931 0.0671,-1.28208 0.1116,-1.50636 0.41956,-2.11502 0.17379,-0.3435 0.18848,-0.42566 0.11415,-0.63886 -0.0469,-0.13457 -0.0853,-0.34312 -0.0853,-0.46341 0,-0.24038 0.30074,-0.88841 0.48218,-1.03899 0.16157,-0.13408 0.22667,-0.50073 0.12324,-0.694 -0.0705,-0.13167 -0.0569,-0.2337 0.0708,-0.53042 0.17494,-0.40667 0.19906,-0.68977 0.078,-0.91594 -0.0632,-0.11801 -0.0352,-0.24085 0.13273,-0.58276 l 0.21274,-0.43327 0.004,-2.04771 c 0.003,-1.12626 0.0197,-2.09784 0.0379,-2.15907 0.0234,-0.0785 -0.0451,-0.12324 -0.23227,-0.15168 -0.24692,-0.0375 -0.26848,-0.0631 -0.30886,-0.36562 -0.0306,-0.22883 -0.002,-0.41739 0.0957,-0.63602 0.0765,-0.1709 0.17306,-0.55353 0.21455,-0.85026 0.0415,-0.29676 0.13179,-0.89998 0.20069,-1.3405 0.1139,-0.72814 0.11459,-0.83237 0.008,-1.1463 -0.21229,-0.62303 -1.04983,-1.8885 -1.6441,-2.48413 -0.45884,-0.45988 -0.57329,-0.62284 -0.6225,-0.88631 -0.0331,-0.17754 -0.17471,-0.47267 -0.31452,-0.65585 l -0.25421,-0.33303 0.0578,-0.60086 c 0.0318,-0.33049 0.096,-1.12988 0.14269,-1.77643 0.23479,-3.24918 0.43107,-4.94231 0.63743,-5.49852 0.0619,-0.16684 0.11406,-0.40746 0.11588,-0.53471 0.002,-0.15259 0.18741,-0.52193 0.54409,-1.08503 0.46631,-0.73615 0.60414,-0.89487 1.00102,-1.15276 0.25315,-0.1645 0.5027,-0.29908 0.55456,-0.29908 0.0519,0 0.3245,-0.14433 0.60586,-0.32073 0.5084,-0.31877 1.07828,-0.58624 1.658696,-0.77854 1.29466,-0.4289 1.632,-0.8733 1.62864,-2.14553 -0.002,-0.7097 -0.0116,-0.75213 -0.26544,-1.1505 -0.3663,-0.57495 -0.33308,-1.1366 0.0764,-1.292296 0.18276,-0.0695 0.19099,-0.0996 0.19146,-0.70018 7.9e-4,-0.4987 0.0314,-0.67429 0.15118,-0.85509 0.086,-0.12989 0.15144,-0.35771 0.15244,-0.53089 7.9e-4,-0.18791 0.0731,-0.41884 0.18933,-0.60674 0.10318,-0.16684 0.20823,-0.36019 0.23345,-0.42967 0.0253,-0.0694 0.13648,-0.1489101 0.24725,-0.1765401 0.11077,-0.0277 0.31004,-0.13291 0.44282,-0.23395 0.18797,-0.14302 0.33411,-0.1837 0.66005,-0.1837 0.23023,0 0.50615,-0.0399 0.61312,-0.0886 0.16293,-0.0742 0.24795,-0.0619 0.52381,0.0759 0.18112,0.0905 0.36389,0.16447 0.40615,0.16447 0.22215,0 0.79348,0.33232 0.85656,0.4982201 0.0385,0.1014 0.10465,0.18435 0.14691,0.18435 0.0423,0 0.0987,0.13676 0.12541,0.3039 0.0356,0.22253 0.1,0.32917 0.24039,0.39818 0.33511,0.16469 0.36984,0.30767 0.17553,0.72254 -0.10449,0.22308 -0.17926,0.53482 -0.18599,0.77552 -0.0108,0.38392 -7.9e-4,0.40528 0.20978,0.4631 0.42151,0.11558 0.40711,0.26629 -0.10037,1.051476 -0.29064,0.44966 -0.3103,0.51501 -0.3103,1.03101 v 0.55095 l -0.3792,0.41492 c -0.20857,0.2282 -0.37922,0.46768 -0.37922,0.53219 0,0.11803 0.44156,0.40235 1.21347,0.78133 0.48651,0.23887 0.52818,0.28723 0.52973,0.61472 0.002,0.34828 0.33071,0.69131 0.75405,0.78606 0.62696,0.14034 1.59163,1.03733 1.7138,1.59356 0.0288,0.13098 0.2193,0.59578 0.42341,1.03287 0.2041,0.4371 0.37109,0.85742 0.37109,0.93403 0,0.0767 0.0331,0.15982 0.0736,0.18486 0.0405,0.025 0.0959,0.21327 0.12311,0.4183 0.0284,0.21417 0.10897,0.42664 0.18935,0.49939 0.10998,0.0995 0.1228,0.1586 0.0599,0.27609 -0.0844,0.1576 -0.0317,0.96449 0.0805,1.23451 0.0347,0.0834 0.18388,0.5271 0.33157,0.98594 0.21412,0.66528 0.26032,0.91155 0.22803,1.21588 -0.0333,0.31383 0.004,0.49429 0.21024,1.01605 l 0.25072,0.63446 -0.16112,0.42491 c -0.39179,1.03336 -0.91749,2.21379 -1.69227,3.79988 -0.45846,0.93854 -0.83307,1.73681 -0.83245,1.7739 8e-4,0.0371 -0.10176,0.23465 -0.2275,0.43903 -0.24938,0.40528 -0.24343,0.45158 0.12024,0.9345 0.0942,0.12514 0.26615,0.45919 0.38203,0.74235 0.20381,0.49801 0.20647,0.52197 0.0815,0.73353 -0.11635,0.19696 -0.12115,0.32715 -0.0483,1.30823 0.0568,0.76555 0.0571,1.15216 8e-4,1.30017 -0.0974,0.25615 -0.10269,0.73025 -0.01,0.87702 0.0409,0.0646 0.0376,0.18559 -0.008,0.30336 -0.0419,0.10777 -0.0987,0.72494 -0.12604,1.37149 -0.0488,1.15374 -0.053,1.17601 -0.22506,1.20038 -0.22957,0.0325 -0.28672,0.20075 -0.17409,0.51223 0.0761,0.21049 0.0708,0.29222 -0.0319,0.49084 -0.0976,0.18875 -0.11243,0.3536 -0.0713,0.79294 0.0433,0.46169 0.029,0.59348 -0.0848,0.78627 -0.13355,0.22607 -0.13284,0.23957 0.0297,0.56491 0.0916,0.18331 0.16646,0.39048 0.16646,0.46038 0,0.0699 0.0504,0.20406 0.11207,0.29813 0.0683,0.10432 0.14198,0.52487 0.18873,1.07808 0.10965,1.29738 0.25022,2.10004 0.41068,2.34493 0.0922,0.14065 0.12623,0.29362 0.1006,0.45162 -0.0213,0.1315 0.007,0.32307 0.0631,0.42609 0.0691,0.12696 0.0877,0.32656 0.0579,0.62052 -0.0349,0.34417 -0.0155,0.47682 0.0946,0.64464 0.19619,0.29925 0.2081,1.1595 0.0211,1.52622 -0.19955,0.39143 -0.17494,0.58989 0.1587,1.27983 0.24891,0.51471 0.36675,0.66611 0.72375,0.92983 0.31367,0.23172 0.47786,0.42367 0.62096,0.72589 0.1259,0.2659 0.38158,0.58732 0.72462,0.91092 0.38903,0.36699 0.51998,0.53869 0.49213,0.64523 -0.0209,0.0798 0.027,0.22774 0.10638,0.32866 0.0794,0.10092 0.14434,0.26693 0.14434,0.36889 0,0.25978 -0.30369,0.68036 -0.53587,0.74217 -0.10704,0.0285 -0.61203,0.009 -1.12223,-0.0433 -0.86429,-0.0886 -0.95586,-0.11385 -1.34119,-0.3697 -0.38253,-0.25398 -0.41358,-0.29666 -0.41358,-0.56862 0,-0.57149 -0.53832,-1.14372 -1.4385,-1.52913 -0.35578,-0.15232 -0.37446,-0.1953 -0.27353,-0.62951 0.0512,-0.22024 0.0776,-0.61475 0.0587,-0.87667 -0.0206,-0.28435 0.005,-0.59813 0.0654,-0.77878 0.0711,-0.21544 0.077,-0.33872 0.0206,-0.42819 -0.0571,-0.0905 -0.0477,-0.21835 0.0335,-0.45668 0.10785,-0.31652 0.10426,-0.34978 -0.0819,-0.7588 -1.03037,-2.26381 -1.04028,-2.29046 -1.1149,-2.9987 -0.0898,-0.85174 -0.13654,-1.01309 -0.48245,-1.66353 -0.16496,-0.31016 -0.27561,-0.62428 -0.27561,-0.78236 0,-0.14528 -0.0408,-0.33868 -0.0905,-0.42978 -0.0498,-0.0911 -0.0821,-0.25305 -0.0717,-0.35984 0.0121,-0.12395 -0.0792,-0.3297 -0.25223,-0.56881 -0.14912,-0.20606 -0.32435,-0.49409 -0.38941,-0.64008 -0.065,-0.14601 -0.2566,-0.54615 -0.42564,-0.88923 -0.2953,-0.59936 -0.30249,-0.63118 -0.18359,-0.81263 0.21905,-0.33433 0.1001,-0.98459 -0.25038,-1.3687 -0.20806,-0.22802 -0.24362,-0.43114 -0.11788,-0.67332 0.18609,-0.35842 0.12864,-0.8395 -0.20744,-1.73722 -0.10304,-0.27523 -0.47819,-0.58624 -0.70716,-0.58624 -0.15243,0 -0.22491,0.094 -0.45265,0.5869 -0.29732,0.64351 -0.87973,1.62499 -1.1294,1.90325 -0.12249,0.13655 -0.16046,0.28386 -0.16613,0.64466 -0.0104,0.66276 -0.13226,1.10328 -0.35745,1.29232 -0.28442,0.23875 -0.58323,0.89551 -0.58323,1.2819 0,0.3654 -0.0595,0.46135 -0.474,0.76466 -0.26625,0.1948 -0.28441,0.23358 -0.28441,0.6071 0,0.34705 -0.0271,0.41924 -0.20857,0.5544 -0.31567,0.23518 -0.930136,1.18437 -0.981616,1.51635 -0.0248,0.15991 -0.12204,0.44489 -0.2161,0.6333 -0.22093,0.44255 -0.34838,0.92175 -0.37897,1.42492 -0.0178,0.2927 -0.11727,0.58662 -0.36504,1.07863 -0.3944,0.78316 -0.69844,1.9528 -0.6335,2.43701 0.0559,0.41684 -0.0396,0.63979 -0.4562,1.06486 -0.31105,0.31739 -0.35311,0.40153 -0.38342,0.76702 -0.0259,0.31264 -7.9e-4,0.46121 0.10518,0.62301 0.13233,0.20197 0.18387,0.45787 0.20071,0.99681 0.004,0.15358 -0.067,0.33826 -0.19852,0.51073 -0.24141,0.31651 -0.38423,0.69357 -0.46234,1.22059 -0.0741,0.49962 -0.13296,0.60338 -0.63524,1.11867 l -0.42508,0.43609 -1.06416,-7.9e-4 c -0.58528,-7.9e-4 -1.11179,-0.0314 -1.17,-0.0682 z m 15.957046,-31.02688 0.27544,-1.09375 -0.16767,-0.96909 c -0.17318,-1.00107 -0.2769,-1.2201 -0.49282,-1.0409 -0.22975,0.19067 -0.41157,0.66371 -0.41247,1.07311 -8e-4,0.59622 0.39406,3.35311 0.46318,3.22962 0.0324,-0.0579 0.18284,-0.59743 0.33434,-1.19899 z"
       style="fill:#000000;stroke-width:0.0200664"
       id="path3687" />
  </g>
</svg>
