<?xml version="1.0" encoding="UTF-8" standalone="no"?>
<!-- Created with Inkscape (http://www.inkscape.org/) -->

<svg
   width="210mm"
   height="297mm"
   viewBox="0 0 210 297"
   version="1.1"
   id="svg5"
   sodipodi:docname="man_18.svg"
   inkscape:version="1.1.1 (c3084ef, 2021-09-22)"
   xmlns:inkscape="http://www.inkscape.org/namespaces/inkscape"
   xmlns:sodipodi="http://sodipodi.sourceforge.net/DTD/sodipodi-0.dtd"
   xmlns="http://www.w3.org/2000/svg"
   xmlns:svg="http://www.w3.org/2000/svg">
  <sodipodi:namedview
     id="namedview7"
     pagecolor="#505050"
     bordercolor="#eeeeee"
     borderopacity="1"
     inkscape:pageshadow="0"
     inkscape:pageopacity="0"
     inkscape:pagecheckerboard="0"
     inkscape:document-units="mm"
     showgrid="false"
     inkscape:zoom="0.62885375"
     inkscape:cx="398.34381"
     inkscape:cy="433.3281"
     inkscape:window-width="1512"
     inkscape:window-height="837"
     inkscape:window-x="0"
     inkscape:window-y="38"
     inkscape:window-maximized="1"
     inkscape:current-layer="layer1" />
  <defs
     id="defs2" />
  <g
     inkscape:label="Layer 1"
     inkscape:groupmode="layer"
     id="layer1">
    <path
       d="m 98.844454,67.540824 c -0.147304,-0.15619 -0.330383,-0.38655 -0.406839,-0.51193 -0.178139,-0.29211 -0.181372,-0.84669 -0.0065,-1.10889 0.07278,-0.1091 0.223938,-0.33525 0.33591,-0.50254 0.111974,-0.1673 0.316746,-0.39281 0.455051,-0.50113 l 0.251463,-0.19694 -0.01508,-2.52378 c -0.01074,-1.79548 -0.04941,-2.77548 -0.134025,-3.39596 -0.06541,-0.47971 -0.140737,-1.49422 -0.167394,-2.25449 l -0.04847,-1.38231 0.28688,-0.57284 0.286885,-0.57286 0.01844,-2.44366 c 0.01016,-1.34401 -0.01421,-2.90439 -0.05412,-3.46751 -0.03992,-0.56313 -0.09523,-1.83769 -0.122928,-2.83236 l -0.05036,-1.8085 -0.208476,-0.16623 c -0.256347,-0.20441 -0.277884,-0.56115 -0.05971,-0.98907 0.132675,-0.26024 0.136776,-0.30891 0.03792,-0.45003 -0.12568,-0.17944 -0.152313,-1.07911 -0.03733,-1.26096 0.05012,-0.0793 0.02745,-0.15915 -0.07658,-0.26988 -0.08127,-0.0865 -0.178078,-0.31952 -0.215122,-0.51782 -0.0386,-0.2066 -0.163037,-0.47992 -0.291479,-0.6402 -0.308684,-0.38524 -0.371985,-0.52618 -0.427593,-0.95208 -0.03175,-0.24316 -0.180464,-0.59821 -0.436089,-1.04113 -0.213352,-0.36968 -0.495027,-0.97152 -0.625946,-1.33745 -0.229663,-0.64191 -0.237961,-0.70794 -0.236021,-1.87876 0.0021,-1.31231 0.136162,-2.36126 0.459637,-3.59838 0.103026,-0.39402 0.218027,-1.00833 0.255558,-1.36515 0.03753,-0.35681 0.135678,-0.80233 0.218107,-0.99003 0.08243,-0.18771 0.208407,-0.61432 0.279955,-0.94802 0.07155,-0.333706 0.160142,-0.639156 0.196869,-0.678786 0.03673,-0.0396 0.06678,-0.15958 0.06678,-0.26656 0,-0.10699 0.06371,-0.31347 0.141573,-0.45885 0.07787,-0.14538 0.165481,-0.37334 0.194702,-0.50659 0.09543,-0.43513 0.913074,-1.02461 1.712718,-1.2348 0.18701,-0.0492 0.74956,-0.2877 1.25012,-0.5301 0.98488,-0.47694 1.66503,-1.01903 2.20991,-1.7613 0.36886,-0.50248 0.37225,-0.75125 0.0166,-1.21702 -0.26539,-0.34757 -0.26925,-0.36329 -0.31575,-1.28566 -0.0487,-0.96657 0.0147,-1.67245 0.20325,-2.26103 0.20947,-0.65396 0.30356,-0.82742 0.46103,-0.84997 0.10615,-0.0152 0.15334,-0.0761 0.14923,-0.19286 -0.005,-0.12984 0.0362,-0.17064 0.17064,-0.17064 0.0972,0 0.17666,-0.0341 0.17666,-0.0759 0,-0.0417 0.0364,-0.0759 0.0809,-0.0759 0.0445,0 0.19139,-0.0843 0.32642,-0.18726 0.32535,-0.24816 0.74758,-0.41934 1.21799,-0.4938 0.30719,-0.0486 0.46836,-0.0298 0.80163,0.0933 0.91086,0.33673 1.63113,0.98963 2.51433,2.27914 l 0.46198,0.6745 -0.43776,0.44237 c -0.4323,0.43687 -0.43651,0.44537 -0.33817,0.68277 0.0548,0.13222 0.21346,0.37672 0.35266,0.54333 0.3199,0.38289 0.32199,0.60998 0.0111,1.20311 -0.22953,0.43789 -0.50231,0.67814 -0.76996,0.67814 -0.11839,0 -0.20148,0.15682 -0.20148,0.38025 0,0.0772 -0.10377,0.2142 -0.23059,0.30451 -0.2868,0.20422 -0.58443,0.80122 -0.48111,0.96502 0.0674,0.10689 0.90158,0.43945 2.60774,1.03965 1.3997,0.49239 1.64954,0.67194 1.39746,1.00432 -0.16369,0.21586 -0.12729,0.36583 0.15548,0.64048 0.2724,0.26458 0.27766,0.28021 0.7599,2.261466 0.0657,0.26975 0.21551,0.64517 0.333,0.83426 0.33268,0.53539 0.43123,0.8664 0.72331,2.42946 0.0585,0.31284 0.17643,0.74644 0.26216,0.96356 0.0881,0.22313 0.19167,0.75293 0.23823,1.21863 0.0746,0.74656 0.0679,0.87769 -0.0713,1.39724 -0.0845,0.31534 -0.2418,0.80789 -0.34955,1.09454 -0.10775,0.28664 -0.27473,0.73017 -0.37108,0.98562 -0.0964,0.25543 -0.28448,0.62328 -0.41807,0.81745 -0.29429,0.42774 -0.61183,1.12774 -0.61183,1.34875 0,0.0889 -0.13634,0.3382 -0.30297,0.55418 -0.20736,0.26879 -0.32685,0.51866 -0.37867,0.79189 -0.0788,0.41539 -0.12011,0.50904 -0.48916,1.10818 -0.12252,0.19893 -0.26757,0.53438 -0.32232,0.74547 -0.12437,0.47944 -0.13091,2.17524 -0.0104,2.69731 0.0836,0.36227 0.0777,0.40149 -0.0946,0.63148 -0.18128,0.24194 -0.18446,0.27476 -0.23852,2.46286 -0.0417,1.68683 -0.0841,2.31858 -0.17734,2.63919 -0.0674,0.23185 -0.11978,0.65024 -0.1164,0.92977 0.003,0.27953 0.0118,0.84953 0.0187,1.26666 0.007,0.41713 -0.0134,0.91199 -0.0451,1.0997 -0.0531,0.31442 -0.0355,0.37336 0.22286,0.74857 l 0.28047,0.40728 -0.17516,0.23692 c -0.16721,0.22616 -0.17793,0.32142 -0.23583,2.0955 -0.17978,5.50777 -0.15368,5.11703 -0.34351,5.14399 -0.21452,0.0305 -0.21659,0.14461 -0.007,0.36806 0.12575,0.13386 0.17482,0.3071 0.21048,0.74308 0.0446,0.54569 0.0601,0.58258 0.38587,0.91893 0.18665,0.19271 0.46435,0.43073 0.61711,0.52889 0.20982,0.13485 0.31788,0.28594 0.44189,0.61785 0.0903,0.24165 0.23184,0.54906 0.31456,0.68315 0.0827,0.13409 0.18123,0.35128 0.21891,0.48265 0.06,0.2092 0.0414,0.26595 -0.14954,0.45691 l -0.21803,0.21804 -0.9954,-0.0249 -0.99538,-0.0249 -0.25917,-0.25119 c -0.14254,-0.13815 -0.2807,-0.34922 -0.30702,-0.46905 -0.0597,-0.27174 -0.36302,-0.63892 -0.65077,-0.78771 -0.12017,-0.0622 -0.21849,-0.15026 -0.21849,-0.19583 0,-0.0456 -0.10238,-0.19945 -0.22752,-0.34198 -0.12514,-0.14252 -0.22753,-0.30385 -0.22753,-0.3585 0,-0.0546 -0.22177,-0.35139 -0.49282,-0.6594 -0.60269,-0.68486 -0.70573,-0.94275 -0.52709,-1.31921 0.0954,-0.20107 0.10625,-0.29451 0.043,-0.37073 -0.0629,-0.0758 -0.057,-0.15831 0.0228,-0.32183 0.0591,-0.12097 0.14902,-0.66473 0.19991,-1.20839 0.0811,-0.86675 0.078,-1.01651 -0.0253,-1.21627 -0.41862,-0.80952 -0.68241,-4.42049 -0.40147,-5.49563 0.1058,-0.40486 0.10405,-0.41924 -0.0738,-0.60634 -0.14423,-0.15172 -0.17378,-0.24651 -0.14184,-0.45505 0.0278,-0.1812 -0.008,-0.35716 -0.11578,-0.56384 -0.0859,-0.16523 -0.15687,-0.40413 -0.15779,-0.53088 -7.9e-4,-0.12675 -0.0701,-0.38136 -0.1538,-0.5658 -0.0837,-0.18444 -0.18558,-0.57114 -0.22645,-0.85931 -0.0409,-0.28817 -0.10916,-0.58908 -0.15176,-0.66869 -0.0456,-0.0852 -0.0572,-0.34276 -0.0281,-0.62633 0.0486,-0.47484 -0.01,-0.7093 -0.23235,-0.93185 -0.0498,-0.0498 -0.13003,-0.62314 -0.1859,-1.32879 -0.17211,-2.17343 -0.13183,-2.13288 -0.63004,-0.63444 -0.23577,0.70912 -0.50223,1.54527 -0.59213,1.85812 -0.0899,0.31283 -0.26402,0.79968 -0.38693,1.08185 -0.17035,0.39113 -0.21172,0.57559 -0.17407,0.77627 0.0365,0.1943 0.006,0.34617 -0.11569,0.57992 -0.10558,0.20257 -0.14835,0.38332 -0.11868,0.50154 0.0329,0.13122 -0.01,0.25819 -0.14653,0.43776 -0.12694,0.16644 -0.19374,0.35192 -0.19533,0.5424 -0.001,0.15921 -0.0532,0.35667 -0.11531,0.43881 -0.17605,0.23286 -0.25225,0.60929 -0.37823,1.86843 -0.0643,0.64217 -0.16516,1.37653 -0.22423,1.63191 -0.0591,0.25539 -0.16301,0.97743 -0.23097,1.60455 -0.10152,0.93686 -0.10622,1.17189 -0.0263,1.31794 0.0629,0.11491 0.10783,0.59326 0.12718,1.35328 0.025,0.98271 0.004,1.29882 -0.12869,1.92708 -0.0872,0.41334 -0.15939,0.83995 -0.16031,0.94802 -0.002,0.22335 -0.2233,0.7115 -0.4503,0.99282 -0.0842,0.10429 -0.20275,0.42851 -0.26356,0.72049 -0.33352,1.60138 -0.34257,1.61933 -1.04891,2.08085 -0.388756,0.25402 -0.536791,0.30816 -0.842509,0.30816 -0.330234,0 -0.400243,-0.0311 -0.638709,-0.28397 z m 12.206966,-31.32566 c 0.15163,-0.17525 0.21553,-0.33089 0.21553,-0.52492 0,-0.15168 0.0564,-0.33812 0.12536,-0.41432 0.11675,-0.129 0.11576,-0.15979 -0.0143,-0.44831 -0.11372,-0.25218 -0.12256,-0.33723 -0.0476,-0.45733 0.0772,-0.12366 0.0599,-0.20248 -0.10681,-0.48702 -0.13582,-0.23177 -0.2213,-0.52591 -0.26939,-0.92695 -0.0387,-0.32311 -0.0877,-0.63584 -0.10886,-0.69495 -0.12974,-0.36291 -0.40934,0.78464 -0.41134,1.68823 -0.001,0.60062 0.12551,2.27922 0.19853,2.62739 0.0378,0.18037 0.0431,0.18201 0.12145,0.0379 0.0451,-0.0829 0.17889,-0.26272 0.29743,-0.39973 z m -10.62428,-1.38925 c 0.15066,-0.21158 0.16238,-0.30154 0.13107,-1.00555 -0.0326,-0.73358 -0.13376,-1.14723 -0.2389,-0.97712 -0.0261,0.0422 -0.0829,0.32666 -0.1262,0.63208 -0.0492,0.34673 -0.15329,0.68251 -0.277162,0.89388 -0.191413,0.32662 -0.195192,0.35598 -0.107241,0.83331 0.05014,0.27211 0.112154,0.52872 0.13781,0.57023 0.02567,0.0416 0.107063,-0.10226 0.180903,-0.31949 0.0738,-0.21723 0.20871,-0.49952 0.29972,-0.62734 z m 9.32298,-14.784406 c 0,-0.10496 -0.31522,-0.52782 -0.39347,-0.52782 -0.10063,0 -0.0699,0.51491 0.0332,0.55651 0.16797,0.0678 0.36024,0.0525 0.36024,-0.0287 z"
       style="fill:#000000;stroke-width:0.0200664"
       id="path3919" />
  </g>
</svg>
