<?xml version="1.0" encoding="UTF-8" standalone="no"?>
<!-- Created with Inkscape (http://www.inkscape.org/) -->

<svg
   width="210mm"
   height="297mm"
   viewBox="0 0 210 297"
   version="1.1"
   id="svg5"
   sodipodi:docname="man_12.svg"
   inkscape:version="1.1.1 (c3084ef, 2021-09-22)"
   xmlns:inkscape="http://www.inkscape.org/namespaces/inkscape"
   xmlns:sodipodi="http://sodipodi.sourceforge.net/DTD/sodipodi-0.dtd"
   xmlns="http://www.w3.org/2000/svg"
   xmlns:svg="http://www.w3.org/2000/svg">
  <sodipodi:namedview
     id="namedview7"
     pagecolor="#505050"
     bordercolor="#eeeeee"
     borderopacity="1"
     inkscape:pageshadow="0"
     inkscape:pageopacity="0"
     inkscape:pagecheckerboard="0"
     inkscape:document-units="mm"
     showgrid="false"
     inkscape:zoom="0.62885375"
     inkscape:cx="652.77499"
     inkscape:cy="446.04966"
     inkscape:window-width="1512"
     inkscape:window-height="837"
     inkscape:window-x="0"
     inkscape:window-y="38"
     inkscape:window-maximized="1"
     inkscape:current-layer="layer1" />
  <defs
     id="defs2" />
  <g
     inkscape:label="Layer 1"
     inkscape:groupmode="layer"
     id="layer1">
    <path
       d="m 94.938986,62.663782 c -0.0614,-0.0993 -0.19302,-2.28682 -0.18083,-3.00492 0.007,-0.43668 -0.25918,-7.42597 -0.38103,-9.98965 -0.0417,-0.87597 -0.11158,-2.6336 -0.15542,-3.90584 -0.0906,-2.62986 -0.12683,-3.10951 -0.23481,-3.10951 -0.0421,0 -0.21884,-0.11624 -0.39271,-0.25832 -0.17388,-0.14208 -0.62329,-0.42495 -0.99871,-0.62858 -0.78209,-0.42424 -0.72933,-0.25864 -0.52698,-1.65379 0.0726,-0.50056 0.14646,-1.44998 0.16414,-2.10984 0.0367,-1.3712 -0.008,-1.52454 -0.47457,-1.61199 -0.50659,-0.095 -0.60973,-0.37461 -0.33477,-0.90742 0.15344,-0.29734 0.15373,-0.31412 0.0288,-1.62356 -0.0695,-0.72772 -0.1082,-1.52291 -0.0861,-1.76711 0.0324,-0.35759 0.004,-0.53149 -0.1425,-0.89373 -0.1688,-0.41543 -0.18239,-0.54687 -0.17823,-1.72161 0.003,-0.69954 0.0359,-1.44251 0.0743,-1.65107 0.0383,-0.20857 0.1731,-1.06178 0.29939,-1.89605 0.28117,-1.85719 0.34605,-2.21573 0.45034,-2.48874 0.0449,-0.11743 0.0816,-0.34321 0.0816,-0.5017 0,-0.1782 0.061,-0.36571 0.1597,-0.49123 0.10056,-0.12784 0.1439,-0.26344 0.11702,-0.36619 -0.0502,-0.19182 0.14576,-0.84801 0.33469,-1.12098 0.16014,-0.23135 1.25395,-0.79452 1.77761,-0.91524 0.20857,-0.0481 0.43666,-0.11638 0.50689,-0.15178 0.0702,-0.0354 0.34326,-0.13687 0.60673,-0.22547 0.66842,-0.22476 0.70308,-0.26327 0.51328,-0.57038 l -0.15597,-0.25236 0.53489,-1.076824 c 0.29418,-0.592248 0.53381,-1.131379 0.5325,-1.19807 -7.9e-4,-0.0667 -0.0864,-0.257749 -0.18921,-0.424601 -0.10276,-0.16686 -0.18703,-0.380619 -0.18724,-0.475038 0,-0.0944 -0.0401,-0.23531 -0.0887,-0.31309 -0.071,-0.113612 -0.0576,-0.20039 0.068,-0.44133 0.0887,-0.17009 0.16793,-0.491162 0.18312,-0.74173 l 0.0268,-0.441812 -0.62457,-0.250968 c -0.7235,-0.290721 -1.02305,-0.470011 -0.98378,-0.588822 0.017,-0.0516 0.3459,-0.0989 0.8485,-0.122169 l 0.82066,-0.0379 0.12762,-0.455051 c 0.1232,-0.439241 0.39716,-1.039091 0.82618,-1.808941 0.2044,-0.366789 0.69731,-0.8075983 0.90305,-0.8075983 0.0596,0 0.28312,0.13915 0.49673,0.309229 0.36873,0.2935903 0.40956,0.3075303 0.80719,0.2755503 0.230354,-0.01849 0.560744,-0.0757 0.734214,-0.1271 0.25621,-0.0759 0.35582,-0.0742 0.53088,0.009 0.29494,0.139959 0.64315,0.84927 0.67313,1.37119 0.0126,0.219768 0.0599,0.49567 0.105,0.6131 0.0452,0.11742 0.0821,0.350039 0.0821,0.516909 0,0.16688 0.0398,0.377769 0.0884,0.46864 0.0486,0.0909 0.12764,0.318929 0.17557,0.50678 0.0863,0.338061 0.0927,0.343401 0.63207,0.524309 0.29971,0.100521 0.54494,0.20705 0.54494,0.236731 0,0.0621 -0.45991,0.147601 -0.80081,0.148831 -0.4291,0.0021 -0.50641,0.127929 -0.49642,0.811559 0.007,0.462039 -0.0192,0.634151 -0.10628,0.706461 -0.13117,0.108868 -0.0254,0.303009 0.16517,0.303009 0.17014,0 0.56275,0.22293 0.93497,0.53089 0.18771,0.15531 0.44367,0.334861 0.56881,0.39901 0.12514,0.0641 0.31889,0.21936 0.43056,0.344921 0.11167,0.125558 0.26156,0.26103 0.3331,0.30108 0.11744,0.0657 0.10327,0.116168 -0.14615,0.520279 -0.34583,0.560275 -0.35559,0.709955 -0.0462,0.709955 0.3832,0 0.71528,0.18947 1.06653,0.60855 0.18376,0.21922 0.44035,0.52181 0.57021,0.6724 0.35748,0.41456 0.92509,2.11312 1.28269,3.83837 0.23082,1.11365 0.37255,1.63971 0.61296,2.27525 0.59371,1.56943 0.7002,2.22815 0.79687,4.92969 0.0388,1.08453 0.0709,2.06944 0.0713,2.18868 0,0.11923 0.0849,0.32721 0.18789,0.46219 0.10294,0.13501 0.18718,0.28104 0.18718,0.32457 0,0.0435 -0.11382,0.24507 -0.25294,0.44789 -0.2661,0.38794 -0.34125,0.65293 -0.42005,1.48141 -0.0265,0.27826 -0.065,0.51716 -0.0857,0.5309 -0.0207,0.0137 -0.13862,0.0767 -0.26209,0.13993 -0.17092,0.0875 -0.27382,0.24132 -0.43131,0.64466 -0.23163,0.59316 -0.26288,1.06472 -0.10044,1.51562 0.0662,0.18364 0.10974,0.59149 0.11043,1.03334 l 7.9e-4,0.72998 -0.22055,0.0441 c -0.24105,0.0482 -0.64176,-0.0427 -0.81249,-0.18445 -0.0596,-0.0495 -0.11856,-0.0764 -0.13116,-0.0601 -0.0126,0.0164 -0.10049,0.15872 -0.19529,0.31632 -0.13759,0.22874 -0.15394,0.30874 -0.0811,0.39658 0.0699,0.0841 0.0709,0.1684 0.004,0.35811 -0.0478,0.13643 -0.11818,0.76236 -0.15632,1.39093 -0.0382,0.62858 -0.10494,1.23659 -0.14849,1.35113 -0.11326,0.29789 -0.0979,0.54807 0.0424,0.68829 0.10238,0.10237 0.1234,0.35716 0.13342,1.61705 0.006,0.82253 0.0448,1.54672 0.0849,1.60929 0.0401,0.0626 0.0833,0.16495 0.0959,0.22752 0.0486,0.24181 0.16518,3.43475 0.1675,4.58842 0.002,1.09763 -0.0156,1.26664 -0.18665,1.77058 -0.10398,0.30641 -0.18907,0.56551 -0.18907,0.57577 0,0.0102 0.13244,0.0583 0.2943,0.10682 0.2125,0.0637 0.32017,0.15063 0.38738,0.31287 0.0511,0.12357 0.14058,0.26411 0.19866,0.31231 0.058,0.0482 0.1056,0.16087 0.1056,0.25036 0,0.0895 0.0881,0.29236 0.19578,0.45082 0.10767,0.15846 0.17863,0.33278 0.15768,0.38738 -0.021,0.0546 0.009,0.19028 0.0668,0.3015 0.0577,0.11125 0.12862,0.3288 0.15758,0.48345 0.0935,0.4996 0.23969,0.74238 0.70752,1.17552 0.44135,0.40862 0.54526,0.59815 0.38291,0.6985 -0.0508,0.0314 -0.0508,0.0941 0,0.18908 0.0418,0.0781 0.0761,0.24673 0.0761,0.37461 v 0.23251 l -0.62569,-7.9e-4 c -0.85881,-7.9e-4 -1.24805,-0.13699 -1.87858,-0.65571 -0.58799,-0.48373 -0.86419,-0.85329 -1.06495,-1.42494 l -0.13464,-0.38339 -0.40436,-0.0234 c -0.43999,-0.0254 -0.72521,-0.22135 -0.9505,-0.65292 -0.16552,-0.31707 -0.10821,-1.51619 0.0865,-1.81079 0.11704,-0.17704 0.13237,-0.30228 0.0934,-0.76287 -0.0256,-0.30307 -0.10194,-0.68356 -0.16962,-0.84553 -0.0677,-0.16197 -0.16902,-0.6719 -0.2252,-1.13318 -0.0562,-0.46128 -0.15669,-1.12878 -0.22335,-1.48334 -0.0667,-0.35498 -0.14831,-1.37735 -0.18153,-2.27524 -0.0531,-1.43412 -0.0802,-1.6735 -0.22462,-1.98668 -0.0903,-0.19586 -0.16489,-0.40063 -0.16564,-0.45505 -7.9e-4,-0.0545 -0.10172,-0.28099 -0.22436,-0.50348 -0.16241,-0.29461 -0.21097,-0.4646 -0.17874,-0.62574 0.0257,-0.12875 -0.0202,-0.43526 -0.10971,-0.73313 -0.24552,-0.81636 -0.37955,-1.38066 -0.47281,-1.99079 -0.11022,-0.72101 -0.10578,-0.70348 -0.32576,-1.28611 -0.10171,-0.26938 -0.21484,-0.49933 -0.25138,-0.51101 -0.10468,-0.0334 -0.4157,1.34586 -0.48686,2.15902 -0.0355,0.4058 -0.10371,0.92552 -0.15157,1.15494 -0.11934,0.57223 -0.1487,1.39175 -0.052,1.45273 0.05,0.0315 0.0156,0.15604 -0.0942,0.34129 -0.25699,0.43345 -0.609004,1.59281 -0.609004,2.00579 0,0.19888 -0.0316,0.44487 -0.0703,0.54662 -0.0387,0.10176 -0.10754,1.01693 -0.153,2.0337 -0.0454,1.01678 -0.12052,2.17291 -0.16678,2.56918 -0.0711,0.60898 -0.0659,0.77411 0.0336,1.06689 0.11816,0.34756 0.1388,1.07214 0.0335,1.1774 -0.0309,0.0309 -0.0563,0.20244 -0.0563,0.38112 0,0.21838 -0.0396,0.34705 -0.12084,0.39251 -0.11057,0.0619 -0.11057,0.0979 0,0.42353 0.0665,0.19577 0.12084,0.45511 0.12084,0.57633 0,0.12122 0.0374,0.24352 0.0831,0.27178 0.0504,0.0312 0.0632,0.14485 0.0324,0.28888 -0.0279,0.13063 -0.0623,0.66412 -0.0765,1.18552 -0.0482,1.76837 -0.13418,2.19607 -0.5836,2.90095 l -0.22968,0.36025 h -0.63942 c -0.76973,0 -0.9162,-0.0773 -1.24914,-0.65923 -0.4024,-0.70332 -0.38391,-1.56239 0.0413,-1.91524 0.15263,-0.12667 0.15708,-0.69599 0.008,-0.98486 -0.134,-0.25912 -0.0654,-0.56389 0.2097,-0.93128 0.10275,-0.13722 0.24203,-0.35873 0.30953,-0.49221 0.15198,-0.3006 0.1647,-0.78115 0.0207,-0.78115 -0.32539,0 -0.56664,-0.80579 -0.61385,-2.05029 -0.0197,-0.52 -0.0722,-1.08197 -0.11653,-1.24882 -0.0443,-0.16685 -0.0991,-0.74704 -0.12173,-1.2893 -0.0226,-0.54227 -0.0736,-1.1054 -0.11318,-1.25139 -0.0883,-0.32527 0.0658,-2.33477 0.19204,-2.50277 0.0608,-0.081 0.0735,-0.68895 0.0441,-2.11148 l -0.0414,-1.9977 -0.1894,-0.14916 c -0.10418,-0.0821 -0.3852,-0.31946 -0.62451,-0.52762 -0.43108,-0.37499 -0.85067,-0.58966 -0.95288,-0.48752 -0.0292,0.0291 -0.0519,0.22931 -0.0507,0.44485 0.004,0.74963 0.1922,5.93707 0.26406,7.29347 0.0398,0.75083 0.10657,2.67911 0.14846,4.28506 0.0419,1.60595 0.11433,3.72193 0.16099,4.70217 0.13588,2.85505 0.14168,2.68834 -0.0946,2.71569 -0.11077,0.0128 -0.22832,-0.0202 -0.26123,-0.0735 z"
       style="fill:#000000;stroke-width:0.0200664"
       id="path3417" />
  </g>
</svg>
