<?xml version="1.0" encoding="UTF-8" standalone="no"?>
<!-- Created with Inkscape (http://www.inkscape.org/) -->

<svg
   width="210mm"
   height="297mm"
   viewBox="0 0 210 297"
   version="1.1"
   id="svg5"
   sodipodi:docname="man_3.svg"
   inkscape:version="1.1.1 (c3084ef, 2021-09-22)"
   xmlns:inkscape="http://www.inkscape.org/namespaces/inkscape"
   xmlns:sodipodi="http://sodipodi.sourceforge.net/DTD/sodipodi-0.dtd"
   xmlns="http://www.w3.org/2000/svg"
   xmlns:svg="http://www.w3.org/2000/svg">
  <sodipodi:namedview
     id="namedview7"
     pagecolor="#505050"
     bordercolor="#eeeeee"
     borderopacity="1"
     inkscape:pageshadow="0"
     inkscape:pageopacity="0"
     inkscape:pagecheckerboard="0"
     inkscape:document-units="mm"
     showgrid="false"
     inkscape:zoom="0.67546093"
     inkscape:cx="625.4988"
     inkscape:cy="354.57269"
     inkscape:window-width="1512"
     inkscape:window-height="837"
     inkscape:window-x="0"
     inkscape:window-y="38"
     inkscape:window-maximized="1"
     inkscape:current-layer="layer1" />
  <defs
     id="defs2" />
  <g
     inkscape:label="Layer 1"
     inkscape:groupmode="layer"
     id="layer1">
    <path
       d="m 93.879992,59.005045 c -0.6074,-0.13573 -0.94802,-0.26841 -0.94802,-0.36926 0,-0.31995 0.55791,-0.92283 1.91784,-2.07244 0.86198,-0.72868 1.11583,-1.02272 1.11583,-1.29252 0,-0.22617 0.31813,-0.53601 0.66195,-0.64469 0.30182,-0.0954 0.35758,-0.50173 0.18822,-1.37148 l -0.14767,-0.75842 0.19383,-0.20856 c 0.10661,-0.11471 0.2371,-0.20857 0.28996,-0.20857 0.0528,0 0.11738,-0.12798 0.14334,-0.2844 0.026,-0.15643 0.0787,-0.38335 0.11721,-0.50429 0.0385,-0.12094 0.07,-0.44941 0.07,-0.72995 0,-0.28054 0.0666,-0.91536 0.14805,-1.41071 0.0814,-0.49536 0.18262,-1.30251 0.22486,-1.79368 0.0481,-0.55964 0.1504,-1.12592 0.27393,-1.51684 0.45011,-1.42439 0.44012,-1.3664 0.39459,-2.29086 -0.0366,-0.74375 -0.0211,-0.93864 0.10236,-1.2901 0.1642,-0.46718 0.18754,-1.01128 0.0587,-1.36768 -0.0862,-0.23834 -0.0556,-0.76364 0.25119,-4.31724 l 0.0848,-0.98208 -0.36799,-0.31923 -0.36797,-0.31922 0.13044,-0.67058 c 0.0718,-0.36881 0.16292,-0.94927 0.20258,-1.2899 0.0397,-0.34063 0.13902,-0.90376 0.22081,-1.251388 0.30607,-1.301055 0.39479,-1.703896 0.45654,-2.073048 0.0349,-0.208566 0.15086,-0.673529 0.2577,-1.033251 0.32054,-1.07932 0.32487,-1.150871 0.0763,-1.257313 -2.42332,-1.037643 -2.95271,-1.316434 -3.38273,-1.781405 -0.36558,-0.395311 -0.37457,-0.41677 -0.49013,-1.171524 l -0.11772,-0.768837 0.31334,-0.624031 c 0.17233,-0.343217 0.33477,-0.738324 0.36098,-0.878016 0.0263,-0.139691 0.0953,-0.293509 0.15348,-0.341816 0.0582,-0.04831 0.10583,-0.145332 0.10583,-0.215614 0,-0.07028 0.11934,-0.364729 0.26521,-0.654328 0.14587,-0.289598 0.26532,-0.578674 0.26544,-0.64239 0,-0.06372 0.0473,-0.183167 0.10489,-0.265445 0.12003,-0.171591 0.43882,-1.041598 0.66621,-1.818115 0.46381,-1.583924 0.59492,-2.085558 0.64059,-2.450911 0.0592,-0.473723 0.1329,-0.562283 0.61593,-0.740488 0.1989,-0.07338 0.41324,-0.176774 0.47633,-0.229767 0.11149,-0.09366 0.651468,-0.207786 1.528348,-0.323012 0.23626,-0.03105 0.47517,-0.09264 0.53089,-0.136882 0.0557,-0.04424 0.33073,-0.155702 0.61114,-0.247696 0.35566,-0.116686 0.62607,-0.271781 0.89429,-0.512928 0.56714,-0.509915 0.63332,-0.675965 0.53271,-1.336635 -0.11725,-0.769964 -0.20314,-0.97813 -0.47483,-1.150793 -0.18977,-0.120599 -0.25844,-0.237163 -0.33519,-0.568812 -0.13079,-0.5651805 -0.12283,-0.7445175 0.0487,-1.0997025 0.0988,-0.204521 0.14737,-0.468951 0.14911,-0.811565 0.004,-0.931745 0.11727,-1.248278 0.63817,-1.794603 0.59575,-0.624851 0.90704,-0.762841 1.85047,-0.820317 0.85477,-0.05207 1.13066,0.03268 1.85978,0.571309 0.62547,0.462061 0.76526,0.80487 0.79941,1.960357 0.0256,0.865276 0.0386,0.932763 0.20081,1.039025 0.17136,0.112285 0.17214,0.119807 0.0654,0.6293715 -0.0686,0.327443 -0.2221,0.704446 -0.42038,1.03264 -0.2707,0.448073 -0.31681,0.58947 -0.34624,1.061782 -0.0331,0.532002 -0.0275,0.553336 0.24121,0.903151 0.37365,0.48653 0.89473,0.869432 1.36189,1.000759 0.79388,0.223174 0.9301,0.265845 1.4121,0.442329 0.27113,0.09928 0.7301,0.240057 1.0199,0.312849 0.28983,0.07279 0.72497,0.254572 0.96698,0.403956 l 0.44005,0.271607 0.002,0.614914 c 7.9e-4,0.457784 0.0416,0.702123 0.15819,0.9562 0.34332,0.748531 0.55336,1.462294 0.63068,2.143101 0.0226,0.198451 0.0953,0.443802 0.1618,0.545224 0.0665,0.10142 0.16926,0.415886 0.22846,0.698811 0.0592,0.282925 0.24902,0.811939 0.42183,1.175588 0.24503,0.515596 0.3037,0.713718 0.26648,0.899807 -0.0495,0.247804 0.11969,0.898374 0.30477,1.171526 0.064,0.0944 0.10106,0.374229 0.10054,0.758417 -0.002,1.026302 -0.0263,1.09209 -0.5683,1.504743 -0.26372,0.200768 -0.65544,0.43189 -0.87049,0.513601 -0.21506,0.08171 -0.63514,0.271521 -0.93355,0.421791 -0.59895,0.30163 -1.2948,0.552947 -1.53899,0.555829 -0.22356,0.0026 -0.26776,0.07328 -0.16165,0.25832 0.0507,0.08837 0.11509,0.604346 0.14314,1.146614 0.028,0.542269 0.084,1.190713 0.12437,1.44099 0.0403,0.250277 0.12834,0.864595 0.19554,1.365149 0.0672,0.500552 0.17699,1.097812 0.24401,1.327232 0.19522,0.66821 0.32729,1.37478 0.3303,1.76696 0.003,0.3038 -0.0316,0.39419 -0.20578,0.54745 -0.11471,0.10096 -0.28535,0.18465 -0.3792,0.18597 -0.12681,0.002 -0.17064,0.0472 -0.17064,0.17683 0,0.0959 -0.037,0.21143 -0.0822,0.25665 -0.0511,0.0511 -0.10779,0.82541 -0.14972,2.04393 -0.0371,1.07895 -0.10586,2.23475 -0.15271,2.56845 -0.10021,0.7136 -0.0944,0.55434 -0.0708,1.94146 0.0159,0.92836 -0.002,1.13842 -0.10779,1.30051 -0.15656,0.23894 -0.0984,0.90576 0.10415,1.19537 0.18597,0.26581 0.22238,0.50801 0.34366,2.28579 0.0641,0.9402 0.14966,1.66844 0.21405,1.82254 0.14994,0.35886 0.20246,0.86338 0.2751,2.64253 0.0504,1.23501 0.043,1.57939 -0.0366,1.70238 -0.0548,0.0848 -0.12334,0.36653 -0.1522,0.62606 l -0.0525,0.47188 0.38876,0.42537 c 0.21382,0.23395 0.38877,0.46786 0.38877,0.5198 0,0.0519 0.0854,0.17459 0.1896,0.27255 0.10429,0.098 0.18961,0.2221 0.18961,0.27585 0,0.0537 0.19623,0.23135 0.43608,0.39468 0.23986,0.16334 0.50211,0.37048 0.58279,0.46033 0.0807,0.0898 0.25409,0.22972 0.38535,0.31085 0.13127,0.0811 0.31763,0.30105 0.41416,0.48872 0.0965,0.18767 0.2388,0.39851 0.31618,0.46854 0.17068,0.15446 0.18363,0.33133 0.0243,0.33133 -0.064,0 -0.20548,0.0584 -0.31436,0.12969 -0.16156,0.10586 -0.38755,0.13025 -1.22976,0.13273 -1.23204,0.004 -1.74057,-0.12688 -1.96003,-0.50297 -0.0735,-0.12591 -0.25302,-0.29044 -0.39902,-0.36562 -0.146,-0.0752 -0.43117,-0.28277 -0.63372,-0.46134 -0.30681,-0.27048 -0.38908,-0.30966 -0.49296,-0.23482 -0.25172,0.18133 -0.32618,0.17794 -0.77261,-0.0352 -0.29038,-0.1386 -0.46662,-0.2722 -0.48668,-0.36896 -0.0173,-0.0834 -0.0487,-0.62948 -0.0698,-1.21346 -0.0273,-0.75749 -0.0729,-1.13088 -0.15928,-1.30287 -0.0801,-0.15961 -0.11896,-0.4287 -0.11496,-0.79633 0.0147,-1.35269 0,-1.62551 -0.15035,-2.74237 -0.0874,-0.65019 -0.20847,-1.34555 -0.26906,-1.54525 -0.0605,-0.1997 -0.11121,-0.60199 -0.11249,-0.89398 -8e-4,-0.29199 -0.0391,-0.76979 -0.0842,-1.06178 -0.0451,-0.29199 -0.0785,-0.58208 -0.0743,-0.64466 0.0414,-0.61741 -0.0166,-1.2828 -0.14416,-1.6536 -0.0818,-0.23762 -0.20038,-0.70434 -0.26361,-1.03715 -0.0632,-0.3328 -0.16699,-0.76173 -0.23056,-0.95317 -0.0636,-0.19144 -0.16778,-0.61878 -0.23154,-0.94964 -0.2644,-1.37211 -0.72412,-3.15717 -0.89714,-3.48357 -0.0663,-0.12513 -0.12083,-0.31975 -0.12108,-0.43248 -8e-4,-0.23461 -0.67442,-1.59083 -0.81215,-1.63449 -0.0552,-0.0175 -0.13438,0.13021 -0.20063,0.37438 -0.19172,0.70657 -0.36596,1.44923 -0.46827,1.99596 -0.0546,0.29199 -0.15319,0.63328 -0.21901,0.75842 -0.0658,0.12513 -0.11989,0.31693 -0.12014,0.4262 0,0.10928 -0.0687,0.41235 -0.15214,0.6735 -0.0834,0.26114 -0.15244,0.51302 -0.15338,0.55973 -7.9e-4,0.0467 -0.0684,0.17024 -0.14999,0.27453 -0.0816,0.10428 -0.14907,0.29973 -0.15,0.43434 -7.9e-4,0.17345 -0.0546,0.27946 -0.18362,0.36394 -0.20617,0.13509 -0.31125,0.36097 -0.42251,0.90815 -0.0424,0.20857 -0.10978,0.49866 -0.14971,0.64466 -0.04,0.14599 -0.091,0.35518 -0.11342,0.46486 -0.0225,0.10968 -0.19908,0.37543 -0.39251,0.59057 l -0.35168,0.39115 -0.0252,1.07795 c -0.0138,0.59287 -0.0614,1.26565 -0.10554,1.49507 -0.0443,0.22942 -0.11009,0.63897 -0.14634,0.9101 -0.0919,0.6871 -0.14269,0.88774 -0.34574,1.36515 -0.0976,0.22942 -0.2405,0.61785 -0.31763,0.86317 -0.10695,0.34018 -0.22217,0.52017 -0.48555,0.75841 -0.461298,0.41731 -0.466318,0.43006 -0.32838,0.83491 0.16777,0.49238 0.10506,1.41834 -0.245998,3.6323 -0.0479,0.30223 -0.30571,0.50943 -0.63381,0.50943 -0.0869,0 -0.31895,0.0809 -0.51569,0.17978 -0.19676,0.0989 -0.43876,0.20492 -0.5378,0.23563 -0.28325,0.0878 -1.03911,0.63365 -1.61181,1.16389 -0.34888,0.323 -0.61838,0.50693 -0.80696,0.55073 -0.28834,0.067 -1.6002,0.0795 -1.87582,0.0179 z M 111.64893,24.196639 c 0.16728,-0.04481 0.16873,-0.05198 0.0394,-0.194843 -0.0951,-0.105123 -0.14884,-0.336255 -0.1844,-0.793635 -0.0562,-0.72237 -0.17705,-0.971785 -0.24523,-0.505993 -0.0235,0.160424 -0.0647,0.573241 -0.0916,0.917372 -0.0486,0.620558 -0.0475,0.625686 0.1296,0.624659 0.0982,-6.09e-4 0.25669,-0.02197 0.35221,-0.04756 z m -11.41898,-0.42009 c 0.0437,-0.13119 -0.0797,-0.976628 -0.17786,-1.217831 -0.110498,-0.271651 -0.217668,-0.196682 -0.221858,0.155195 -0.002,0.153962 -0.0525,0.416445 -0.11261,0.583297 -0.14771,0.409977 -0.14003,0.476941 0.059,0.515288 0.320378,0.06171 0.423438,0.05353 0.453258,-0.03595 z"
       style="fill:#000000;stroke-width:0.0200664"
       id="path1460" />
  </g>
</svg>
