<?xml version="1.0" encoding="UTF-8" standalone="no"?>
<!-- Created with Inkscape (http://www.inkscape.org/) -->

<svg
   width="210mm"
   height="297mm"
   viewBox="0 0 210 297"
   version="1.1"
   id="svg5"
   sodipodi:docname="man_19.svg"
   inkscape:version="1.1.1 (c3084ef, 2021-09-22)"
   xmlns:inkscape="http://www.inkscape.org/namespaces/inkscape"
   xmlns:sodipodi="http://sodipodi.sourceforge.net/DTD/sodipodi-0.dtd"
   xmlns="http://www.w3.org/2000/svg"
   xmlns:svg="http://www.w3.org/2000/svg">
  <sodipodi:namedview
     id="namedview7"
     pagecolor="#505050"
     bordercolor="#eeeeee"
     borderopacity="1"
     inkscape:pageshadow="0"
     inkscape:pageopacity="0"
     inkscape:pagecheckerboard="0"
     inkscape:document-units="mm"
     showgrid="false"
     inkscape:zoom="0.62885375"
     inkscape:cx="398.34381"
     inkscape:cy="433.3281"
     inkscape:window-width="1512"
     inkscape:window-height="837"
     inkscape:window-x="0"
     inkscape:window-y="38"
     inkscape:window-maximized="1"
     inkscape:current-layer="layer1" />
  <defs
     id="defs2" />
  <g
     inkscape:label="Layer 1"
     inkscape:groupmode="layer"
     id="layer1">
    <path
       d="m 104.4684,62.375063 c -0.33517,-0.1006 -0.43125,-0.22122 -0.43125,-0.54135 0,-0.37499 0.13202,-0.68879 0.48193,-1.14552 0.15207,-0.19849 0.27649,-0.44195 0.27649,-0.54103 0,-0.17109 0.51544,-0.72866 0.67359,-0.72866 0.0365,0 0.10865,-0.11092 0.16027,-0.24649 0.0516,-0.13556 0.22415,-0.51951 0.38341,-0.85321 0.36273,-0.76005 0.45125,-1.49483 0.45125,-3.74573 v -1.57829 l -1.05834,-1.03528 c -0.58209,-0.56939 -1.09548,-1.03526 -1.14087,-1.03526 -0.0454,0 -0.24319,-0.14674 -0.43954,-0.32607 -0.38514,-0.35177 -1.9116,-1.47347 -2.75485,-2.02436 -0.40932,-0.26742 -0.73602,-0.70616 -0.82976,-1.11435 -0.10734,-0.46742 -0.318048,-3.80121 -0.274492,-4.34298 0.02196,-0.2733 0.07875,-0.78699 0.126162,-1.14156 0.0983,-0.73483 0.0415,-1.54049 -0.117926,-1.67279 -0.08409,-0.0698 -0.148828,-0.0626 -0.293878,0.0323 -0.102314,0.067 -0.203211,0.0941 -0.224208,0.0601 -0.02101,-0.034 -0.142272,-0.58819 -0.269494,-1.23158 -0.185978,-0.94056 -0.262509,-1.19211 -0.390504,-1.28358 -0.340069,-0.24302 -0.826587,-0.706 -0.827032,-0.78704 -2.27e-4,-0.0468 -0.05119,-0.18239 -0.113191,-0.30127 -0.07815,-0.14983 -0.108447,-0.41495 -0.09878,-0.86434 0.01379,-0.64048 0.01728,-0.65148 0.294527,-0.9215 0.169648,-0.16522 0.300929,-0.37822 0.332044,-0.53872 0.08318,-0.42907 0.503494,-1.69849 0.662699,-2.00144 0.04142,-0.0788 0.104082,-0.34684 0.139248,-0.59562 0.03516,-0.24876 0.117141,-0.51109 0.182173,-0.58296 0.06503,-0.0718 0.150254,-0.28164 0.189378,-0.46615 0.132379,-0.62435 0.209328,-0.86552 0.372872,-1.16865 0.08969,-0.16623 0.163072,-0.40937 0.163072,-0.54032 0,-0.29136 0.17469,-0.80337 0.36762,-1.07744 0.15363,-0.21826 0.30504,-1.45421 0.35816,-2.92369 0.0151,-0.41735 0.0954,-1.01178 0.18153,-1.34418 0.12902,-0.49777 0.15447,-0.83289 0.15447,-2.034456 0,-0.85042 0.0302,-1.45717 0.0738,-1.48412 0.0406,-0.0251 0.1095,-0.17826 0.15316,-0.3404 0.0875,-0.32498 0.86943,-1.10849 1.31204,-1.31473 1.26929,-0.59141 1.60057,-0.73515 1.69426,-0.73515 0.11179,0 0.26392,-0.29669 0.20417,-0.39817 -0.0184,-0.0313 -0.16906,-0.0569 -0.33476,-0.0569 -0.2202,0 -0.31268,-0.0357 -0.34369,-0.13273 -0.0233,-0.073 -0.077,-0.20546 -0.11938,-0.29437 -0.0423,-0.0889 -0.0531,-0.27033 -0.0239,-0.40317 0.0311,-0.14169 0.0149,-0.33354 -0.0391,-0.46412 -0.0687,-0.16585 -0.0704,-0.24888 -0.007,-0.32573 0.0643,-0.0775 0.0572,-0.17122 -0.0287,-0.37671 -0.0629,-0.15045 -0.1143,-0.39249 -0.1143,-0.53786 0,-0.14538 -0.0386,-0.34908 -0.0858,-0.45268 -0.0754,-0.16552 -0.0533,-0.23266 0.18207,-0.55343 0.30965,-0.42194 0.36795,-0.87949 0.13094,-1.02752 -0.11903,-0.0744 -0.12354,-0.1059 -0.0346,-0.24238 0.0562,-0.0864 0.19165,-0.44066 0.30095,-0.78744 0.1093,-0.34679 0.25963,-0.69143 0.33407,-0.76588 0.12991,-0.1299 0.12939,-0.14353 -0.0128,-0.33877 -0.11124,-0.1527 -0.13586,-0.26909 -0.0988,-0.46679 0.0646,-0.3443698 0.403,-0.5198898 1.34616,-0.6982098 1.324,-0.25033 2.24629,-0.12544 3.22682,0.43696 0.78963,0.4528998 1.35809,1.5166198 1.28891,2.4118298 -0.0368,0.47651 -0.28244,1.4858 -0.47012,1.93179 -0.0666,0.15825 -0.10003,0.3218 -0.0743,0.36342 0.0257,0.0417 -0.0926,0.36498 -0.26303,0.71857 -0.17039,0.35359 -0.30981,0.67029 -0.30981,0.70377 0,0.11392 0.26463,0.57983 0.55286,0.9734 0.31636,0.43198 0.58759,0.62043 1.17261,0.81474 0.21326,0.0709 0.53513,0.24 0.71526,0.37592 0.50335,0.37983 1.46192,1.00937 1.79794,1.18079 0.60706,0.3097 0.73507,0.71948 0.6132,1.96298 -0.0477,0.48697 -0.15276,1.07311 -0.23341,1.302526 -0.0806,0.22942 -0.12759,0.50469 -0.10433,0.61171 0.0275,0.12649 -0.007,0.25918 -0.0997,0.37921 -0.0781,0.10154 -0.27227,0.49178 -0.43144,0.8672 -0.15918,0.37542 -0.35256,0.76397 -0.42974,0.86345 -0.0772,0.0995 -0.14033,0.21709 -0.14033,0.26136 0,0.0974 -0.34406,0.6229 -0.57937,0.885 -0.0936,0.10427 -0.20859,0.34317 -0.25547,0.53088 -0.38829,1.55455 -0.43241,1.9442 -0.28048,2.4769 0.0695,0.24365 0.19843,0.972 0.28652,1.61856 0.09,0.66026 0.22492,1.32404 0.30789,1.51431 0.0812,0.18633 0.24914,0.98835 0.37309,1.78227 0.12394,0.79394 0.25893,1.52152 0.29996,1.61686 0.10553,0.24523 0.24285,1.49864 0.21367,1.95022 l -0.0245,0.37921 -0.31683,-0.025 c -0.5415,-0.0426 -0.92567,0.18601 -1.26055,0.75021 -0.15834,0.26678 -0.32134,0.63428 -0.36221,0.8167 -0.0409,0.18241 -0.11951,0.42201 -0.17472,0.53247 -0.0552,0.11045 -0.1614,0.45678 -0.23596,0.76963 -0.0746,0.31285 -0.19911,0.80989 -0.27677,1.10454 -0.0959,0.36392 -0.14118,0.79845 -0.14118,1.35492 v 0.8192 l -0.27722,0.25392 -0.27722,0.25392 0.045,1.05201 c 0.0469,1.09745 0.16728,1.99305 0.4791,3.56527 0.1731,0.8728 0.17763,0.9554 0.0698,1.27299 -0.15418,0.45412 -0.15284,0.46212 0.13755,0.81948 0.13907,0.17116 0.34646,0.47224 0.46088,0.66909 0.23477,0.4039 0.15324,0.37795 1.59943,0.50917 1.4138,0.12828 1.92287,0.20485 2.04703,0.30789 0.082,0.0681 0.11446,0.2447 0.11446,0.62247 0,0.46143 -0.0451,0.63191 -0.35987,1.36163 -0.35033,0.812 -0.36549,0.83303 -0.57123,0.79187 -0.29117,-0.0582 -0.32704,0.067 -0.42513,1.48418 -0.0449,0.64833 -0.12057,1.36297 -0.1682,1.58807 -0.20853,0.98543 -0.75989,1.77393 -1.50411,2.15104 -0.43648,0.2212 -0.65202,0.2429 -0.71751,0.0723 -0.0886,-0.23087 -0.0447,-0.7709 0.11097,-1.36577 0.17113,-0.65384 0.19811,-1.08996 0.0804,-1.29964 -0.0787,-0.14023 -0.0887,-0.12887 -0.18031,0.20521 -0.0221,0.0805 -0.0699,0.0525 -0.16936,-0.0993 -0.11471,-0.17507 -0.13607,-0.34744 -0.12394,-1.00039 0.0101,-0.54406 -0.0238,-0.92125 -0.10934,-1.21538 -0.11848,-0.40757 -0.13292,-0.42396 -0.32531,-0.36917 -0.11072,0.0315 -0.31109,0.0516 -0.44527,0.0446 -0.3183,-0.0167 -0.37165,0.094 -0.43924,0.91146 -0.0584,0.70588 0.0415,1.34736 0.23481,1.50776 0.14145,0.11739 0.14132,0.84677 -2.3e-4,1.11691 -0.1253,0.23917 -0.53645,0.64009 -0.79027,0.77061 -0.0974,0.0501 -0.2227,0.19922 -0.27848,0.33142 -0.14453,0.3426 -0.53788,0.69024 -1.03747,0.91691 -0.23717,0.1076 -0.46703,0.19565 -0.5108,0.19565 -0.0438,0 -0.38774,0.10239 -0.7644,0.22753 -0.68975,0.22915 -1.07181,0.26839 -1.4648,0.15041 z m 1.46674,-16.54016 c -0.15286,-1.62118 -0.35303,-2.73748 -0.49354,-2.75238 -0.0409,-0.004 -0.18543,0.24808 -0.32105,0.56092 -0.24125,0.55649 -0.24661,0.59316 -0.24786,1.69246 -8e-4,0.61801 0.0319,1.1857 0.0725,1.26152 0.0406,0.0759 0.20269,0.16197 0.36024,0.19141 0.34163,0.0639 0.47607,0.16189 0.47607,0.34719 0,0.13504 0.21674,0.41141 0.2761,0.35205 0.0168,-0.0168 -0.0383,-0.76071 -0.12248,-1.65317 z m -5.30516,-7.4731 c 0.19377,-2.59276 0.38201,-3.67695 0.83789,-4.82578 0.32338,-0.81493 0.33187,-0.84611 0.20981,-0.77067 -0.0463,0.0287 -0.28351,0.47433 -0.52708,0.99045 -0.24357,0.51611 -0.59466,1.15168 -0.7802,1.41237 -0.18554,0.26069 -0.433812,0.67133 -0.551715,0.91254 -0.178417,0.36501 -0.19848,0.46041 -0.119626,0.56882 0.05211,0.0717 0.164348,0.27665 0.249422,0.45559 0.192229,0.40432 0.117169,0.70032 -0.273648,1.07912 -0.337113,0.32674 -0.342537,0.50194 -0.01752,0.56614 0.470747,0.093 0.652377,0.20121 0.734877,0.43787 0.0446,0.12796 0.1,0.2138 0.12301,0.19075 0.023,-0.023 0.0747,-0.48078 0.11479,-1.0172 z"
       style="fill:#000000;stroke-width:0.0200664"
       id="path4035" />
  </g>
</svg>
