<?xml version="1.0" encoding="UTF-8" standalone="no"?>
<!-- Created with Inkscape (http://www.inkscape.org/) -->

<svg
   width="210mm"
   height="297mm"
   viewBox="0 0 210 297"
   version="1.1"
   id="svg5"
   sodipodi:docname="man_7.svg"
   inkscape:version="1.1.1 (c3084ef, 2021-09-22)"
   xmlns:inkscape="http://www.inkscape.org/namespaces/inkscape"
   xmlns:sodipodi="http://sodipodi.sourceforge.net/DTD/sodipodi-0.dtd"
   xmlns="http://www.w3.org/2000/svg"
   xmlns:svg="http://www.w3.org/2000/svg">
  <sodipodi:namedview
     id="namedview7"
     pagecolor="#505050"
     bordercolor="#eeeeee"
     borderopacity="1"
     inkscape:pageshadow="0"
     inkscape:pageopacity="0"
     inkscape:pagecheckerboard="0"
     inkscape:document-units="mm"
     showgrid="false"
     inkscape:zoom="0.67546093"
     inkscape:cx="625.4988"
     inkscape:cy="354.57269"
     inkscape:window-width="1512"
     inkscape:window-height="837"
     inkscape:window-x="0"
     inkscape:window-y="38"
     inkscape:window-maximized="1"
     inkscape:current-layer="layer1" />
  <defs
     id="defs2" />
  <g
     inkscape:label="Layer 1"
     inkscape:groupmode="layer"
     id="layer1">
    <path
       d="m 97.84844,61.367956 c -0.19478,-0.0985 -0.43198,-0.3068 -0.56118,-0.49276 -0.19077,-0.27458 -0.2238,-0.3935 -0.2238,-0.80582 0,-0.41526 0.0447,-0.57358 0.31583,-1.11887 0.55597,-1.11809 0.77818,-1.97 0.78199,-2.998 0.003,-0.6365 -0.0575,-0.82652 -0.39214,-1.24525 -0.12818,-0.16038 -0.16808,-0.36539 -0.22361,-1.149 -0.0707,-0.99752 -0.23901,-1.88419 -0.40692,-2.14358 -0.0543,-0.0839 -0.1201,-0.40858 -0.14613,-0.72143 -0.0261,-0.31285 -0.15579,-0.92371 -0.28832,-1.35746 l -0.24097,-0.78866 0.12572,-1.33491 c 0.23645,-2.51071 0.15027,-3.85959 -0.39544,-6.18878 -0.16615,-0.70912 -0.42657,-1.97188 -0.57871,-2.80614 -0.35277,-1.93426 -0.3986,-2.10966 -0.53729,-2.05644 -0.0922,0.0354 -0.10853,-0.14315 -0.10527,-1.15025 0.005,-1.73934 0.0985,-2.70923 0.30287,-3.16179 0.15876,-0.35161 0.16696,-0.44519 0.12162,-1.39034 -0.0267,-0.55736 -0.0784,-1.06662 -0.11482,-1.1317 -0.0613,-0.10957 -0.47927,1.0436 -0.96615,2.66568 -0.0742,0.24707 -0.24567,0.58836 -0.38115,0.75842 -0.13548,0.17005 -0.45603,0.71874 -0.71232,1.21929 -0.43928,0.85797 -0.47234,0.96006 -0.577,1.78228 -0.0611,0.4797 -0.17946,1.11108 -0.26312,1.40307 -0.33822,1.18045 -0.33657,1.14639 -0.0757,1.56602 0.12925,0.20791 0.23499,0.41061 0.23499,0.45045 0,0.0398 -0.0939,0.10971 -0.20856,0.15528 -0.11471,0.0456 -0.29211,0.11544 -0.39421,0.15527 -0.15,0.0585 -0.16456,0.086 -0.0759,0.14305 0.31697,0.20388 -0.60215,0.30906 -0.98241,0.11242 -0.11687,-0.0604 -0.31995,-0.23227 -0.45128,-0.38185 -0.2219,-0.25273 -0.23878,-0.31172 -0.23878,-0.83439 0,-0.74059 0.11883,-1.27935 0.38685,-1.75386 0.13886,-0.24585 0.27591,-0.67578 0.37471,-1.17555 0.19961,-1.00967 0.43262,-1.85312 0.60653,-2.19555 0.20388,-0.40146 0.34903,-1.02751 0.641,-2.7648 0.21522,-1.28065 0.31207,-1.67414 0.53187,-2.16094 0.21872,-0.48442 0.25985,-0.65064 0.22106,-0.89325 -0.036,-0.22498 0.0188,-0.51519 0.22319,-1.18352 0.2934,-0.959092 0.42517,-1.544069 0.65645,-2.914108 0.19611,-1.161673 0.19211,-1.433251 -0.0259,-1.759797 -0.24584,-0.368278 -0.43044,-0.866131 -0.43044,-1.160876 0,-0.584926 1.24846,-1.937228 2.46291,-2.667771 0.41607,-0.250277 0.89652,-0.597183 1.06768,-0.770903 0.17118,-0.17372 0.43056,-0.36572 0.57643,-0.426667 0.29472,-0.123137 0.72677,-0.599648 0.79843,-0.88058 0.0327,-0.12824 -0.0458,-0.363798 -0.26542,-0.796337 -0.17154,-0.337825 -0.33523,-0.749278 -0.36377,-0.914341 -0.0477,-0.27622 -0.12814,-0.484942 -0.57762,-1.50011 -0.15611,-0.352572 -0.15646,-0.364059 -0.0189,-0.619439 0.12066,-0.224044 0.12766,-0.301824 0.0504,-0.559666 -0.11203,-0.373942 -0.11413,-0.80523 -0.006,-1.307798 0.0678,-0.3163522 0.15869,-0.4628682 0.48775,-0.7867232 0.43676,-0.429813 1.127,-0.833417 1.55247,-0.907765 0.14599,-0.02551 0.636192,-0.01355 1.08931,0.02657 0.85257,0.0755 1.25773,0.226622 1.58905,0.592728 0.20545,0.227017 0.3534,0.886459 0.35441,1.5797202 7.9e-4,0.840575 0.0536,1.055294 0.28238,1.159573 0.17613,0.08025 0.18637,0.11302 0.13904,0.444733 -0.0956,0.669437 -0.20211,0.940187 -0.49521,1.258148 -0.30505,0.330953 -0.75957,1.338618 -0.75957,1.683984 0,0.105093 0.0809,0.271961 0.17974,0.370818 0.18467,0.18468 1.02827,0.483984 1.82555,0.647704 0.38449,0.07895 1.20985,0.436004 2.68895,1.163245 0.47793,0.234986 1.20114,0.925321 1.41825,1.353771 0.43033,0.84922 0.4525,1.136928 0.37261,4.835415 -0.0435,2.014984 -0.0355,2.261498 0.0823,2.52277 0.11746,0.260492 0.12575,0.5008 0.0826,2.393142 -0.0535,2.34222 -0.17882,4.52381 -0.28645,4.98554 -0.0389,0.16686 -0.084,1.02008 -0.10025,1.89604 -0.0162,0.87598 -0.0607,1.69507 -0.0987,1.82021 -0.0394,0.12981 -0.15765,0.2705 -0.27521,0.3276 -0.11332,0.055 -0.28585,0.22569 -0.38342,0.37921 -0.21151,0.33283 -0.40292,0.50849 -0.62907,0.57734 -0.20673,0.0629 -0.17124,-0.19337 -0.59403,4.2902 -0.36714,3.89351 -0.42355,4.2249 -1.02062,5.9946 -0.23033,0.6827 -0.40385,1.35866 -0.45552,1.77444 -0.066,0.53159 -0.14598,0.79307 -0.38332,1.25402 -0.16492,0.32031 -0.29944,0.68219 -0.29894,0.80417 7.9e-4,0.31617 0.14904,0.82427 0.60487,2.07991 l 0.39923,1.0997 0.0346,1.0997 0.0346,1.09971 -0.54401,0.39846 c -0.2992,0.21915 -0.63136,0.42038 -0.73813,0.44718 -0.42927,0.10774 -1.0073,-0.45998 -1.4657,-1.43955 -0.19699,-0.42099 -0.24955,-0.65286 -0.3054,-1.34765 -0.0371,-0.46154 -0.0855,-0.86832 -0.10748,-0.90393 -0.022,-0.0356 -0.0702,-0.38263 -0.10719,-0.77113 -0.037,-0.38849 -0.15347,-1.01351 -0.25893,-1.38893 -0.3841,-1.3673 -0.35231,-1.63878 0.25573,-2.18399 l 0.32115,-0.28795 -0.067,-0.73591 c -0.0369,-0.40475 -0.067,-1.11708 -0.067,-1.58294 0,-0.7595 0.0177,-0.87087 0.17064,-1.07767 0.23593,-0.31888 0.21929,-0.56712 -0.13909,-2.07457 -0.21378,-0.89929 -0.31966,-1.5322 -0.3418,-2.04325 -0.0176,-0.40721 -0.0801,-0.97187 -0.13866,-1.25478 -0.0586,-0.28292 -0.1302,-0.7741 -0.15907,-1.09153 -0.0567,-0.62372 -0.12119,-0.80055 -0.2604,-0.71452 -0.17151,0.10601 -0.22028,0.41063 -0.30518,1.90685 -0.12147,2.1404 -0.287808,3.76104 -0.418018,4.07266 -0.0886,0.21197 -0.12224,0.87219 -0.16194,3.17464 -0.067,3.88918 -0.0657,4.10682 0.0308,5.33395 0.0873,1.10875 0.23559,1.75413 0.482828,2.10166 0.13329,0.18736 0.14934,0.38455 0.18084,2.22147 0.0402,2.3457 0.0202,2.45154 -0.511858,2.69298 -0.489272,0.22207 -1.576302,0.21152 -2.033492,-0.0197 z m 8.17839,-23.82013 c 0.0129,-0.1532 -0.009,-0.27855 -0.0487,-0.27855 -0.0926,0 -0.16438,0.1875 -0.16438,0.42965 0,0.299 0.18627,0.16694 0.21315,-0.1511 z m 0.15622,-3.30615 c 0.26849,-0.62413 0.33353,-1.06802 0.2359,-1.61025 -0.11861,-0.65887 -0.52257,-2.13406 -0.60798,-2.22028 -0.12224,-0.12341 -0.31744,0.49648 -0.35648,1.13209 -0.0499,0.81167 0.32799,3.07159 0.51354,3.07159 0.03,0 0.12674,-0.16792 0.21502,-0.37315 z"
       style="fill:#000000;stroke-width:0.0200664"
       id="path1112" />
  </g>
</svg>
