<?xml version="1.0" encoding="UTF-8" standalone="no"?>
<!-- Created with Inkscape (http://www.inkscape.org/) -->

<svg
   width="210mm"
   height="297mm"
   viewBox="0 0 210 297"
   version="1.1"
   id="svg5"
   sodipodi:docname="man_13.svg"
   inkscape:version="1.1.1 (c3084ef, 2021-09-22)"
   xmlns:inkscape="http://www.inkscape.org/namespaces/inkscape"
   xmlns:sodipodi="http://sodipodi.sourceforge.net/DTD/sodipodi-0.dtd"
   xmlns="http://www.w3.org/2000/svg"
   xmlns:svg="http://www.w3.org/2000/svg">
  <sodipodi:namedview
     id="namedview7"
     pagecolor="#505050"
     bordercolor="#eeeeee"
     borderopacity="1"
     inkscape:pageshadow="0"
     inkscape:pageopacity="0"
     inkscape:pagecheckerboard="0"
     inkscape:document-units="mm"
     showgrid="false"
     inkscape:zoom="0.62885375"
     inkscape:cx="652.77499"
     inkscape:cy="446.04966"
     inkscape:window-width="1512"
     inkscape:window-height="837"
     inkscape:window-x="0"
     inkscape:window-y="38"
     inkscape:window-maximized="1"
     inkscape:current-layer="layer1" />
  <defs
     id="defs2" />
  <g
     inkscape:label="Layer 1"
     inkscape:groupmode="layer"
     id="layer1">
    <path
       d="m 97.196762,62.00415 c -0.0501,-0.0501 -0.091,-0.12992 -0.091,-0.1775 0,-0.0476 -0.0994,-0.28816 -0.22085,-0.53468 -0.50037,-1.01545 -0.56074,-1.48158 -0.30358,-2.34448 0.19295,-0.64744 0.28023,-2.17149 0.15722,-2.74506 -0.0584,-0.27217 -0.061,-0.67762 -0.009,-1.36183 0.0409,-0.53584 0.0934,-2.18583 0.11664,-3.66663 0.0352,-2.24343 0.0622,-2.73032 0.16154,-2.91991 0.0923,-0.17615 0.12552,-0.54175 0.14694,-1.61939 0.0253,-1.26997 0.0146,-1.41609 -0.12132,-1.66851 -0.11658,-0.2165 -0.16813,-0.54872 -0.23708,-1.52804 -0.20018,-2.84293 -0.25115,-3.26578 -0.53279,-4.41975 -0.17977,-0.7366 -0.20417,-2.39058 -0.0391,-2.65515 0.10542,-0.16901 0.2065,-0.8734 0.23633,-1.64688 0.009,-0.22942 0.055,-0.6219 0.10251,-0.87218 0.0942,-0.49596 0.11525,-1.47187 0.0399,-1.84864 -0.0272,-0.13622 -0.0947,-0.237 -0.15868,-0.237 -0.0612,0 -0.19881,-0.0689 -0.3058,-0.15301 -0.11379,-0.0895 -0.25231,-0.13467 -0.33376,-0.10882 -0.0974,0.0309 -0.27484,-0.0752 -0.59025,-0.35281 -0.24805,-0.21836 -0.64425,-0.47849 -0.88043,-0.57809 -0.57753,-0.24354 -1.06488,-0.75866 -1.13026,-1.19466 -0.0539,-0.35977 0.12072,-2.02176 0.30127,-2.8665 0.0644,-0.3014 0.17049,-0.80396 0.23572,-1.11681 0.12988,-0.62288 1.03568,-3.35405 1.3331,-4.0196 0.41848,-0.93638 1.13524,-1.94132 1.71958,-2.41091 0.26596,-0.21373 0.35391,-0.23665 1.17339,-0.30583 0.82113,-0.0693 0.93351,-0.0987 1.53773,-0.40225 0.938708,-0.47157 1.013718,-0.60266 1.013678,-1.77144 l -4e-5,-0.91146 -0.37917,-0.32653 -0.379168,-0.326533 v -0.745371 c 0,-0.66684 0.0151,-0.7493 0.14319,-0.782799 0.130398,-0.0341 0.146028,-0.13825 0.174918,-1.165439 0.0274,-0.973661 0.0541,-1.169482 0.19537,-1.431351 0.09,-0.166851 0.2465,-0.474009 0.34778,-0.682569 0.3439,-0.7081308 0.90745,-1.0460698 1.81513,-1.0884508 1.27598,-0.0596 1.58551,0.10696 2.06312,1.1100988 0.0653,0.137051 0.19882,0.279662 0.29679,0.31691 0.27327,0.103891 0.34846,0.45485 0.34846,1.626391 0,0.98801 0.0116,1.077421 0.15168,1.164871 0.13615,0.085 0.15124,0.174278 0.14741,0.871468 -0.005,0.911624 -0.10798,1.296644 -0.35614,1.331884 -0.27341,0.0388 -0.35376,0.30157 -0.554,1.8117 -0.0873,0.65835 -0.0828,0.72908 0.08,1.23511 0.14013,0.43578 0.23649,0.59302 0.51213,0.83564 0.19932,0.17545 0.4534,0.31963 0.61531,0.34916 0.5033,0.0918 1.69641,0.7453 2.03872,1.11667 0.30782,0.33395 0.35631,0.44022 0.42077,0.92232 0.0168,0.12514 0.12002,0.58588 0.22953,1.02386 0.10951,0.43799 0.25163,1.12056 0.31583,1.51683 0.12629,0.77965 0.31048,1.82817 0.40631,2.31317 0.033,0.16685 0.0973,0.37209 0.14285,0.45609 0.0456,0.084 0.13644,0.53787 0.20188,1.00862 0.0655,0.47074 0.17095,0.93008 0.23445,1.02074 0.17179,0.24525 0.14977,1.02446 -0.0427,1.51239 -0.087,0.22053 -0.18565,0.62281 -0.21921,0.89394 -0.0336,0.27114 -0.15188,0.83426 -0.26289,1.25139 -0.11104,0.41713 -0.22963,0.88631 -0.26353,1.04261 -0.0339,0.15629 -0.15158,0.42007 -0.26148,0.58614 -0.1099,0.16608 -0.19984,0.32499 -0.19984,0.35312 0,0.0281 -0.10388,0.27107 -0.23087,0.53983 -0.12699,0.26875 -0.25192,0.59628 -0.27763,0.72785 -0.0257,0.13154 -0.0897,0.30742 -0.14215,0.39085 -0.18035,0.28672 -0.31642,1.02755 -0.48759,2.65446 -0.0351,0.3337 -0.15445,0.86269 -0.26523,1.17554 -0.18481,0.52203 -0.20966,0.73717 -0.30209,2.61653 -0.0889,1.80929 -0.11994,2.09047 -0.26593,2.4148 -0.1266,0.28131 -0.17535,0.57372 -0.20856,1.25139 -0.0287,0.58487 -0.0763,0.90998 -0.14075,0.96015 -0.0585,0.0455 -0.112,0.31834 -0.13394,0.68257 -0.0689,1.14331 -0.18214,2.27535 -0.2618,2.61654 -0.20345,0.87147 -0.31248,3.70451 -0.15581,4.04837 0.0709,0.15545 0.058,0.23219 -0.0752,0.44772 l -0.16077,0.26013 0.16316,0.56075 c 0.13871,0.47676 0.22668,0.62655 0.58722,1.00007 0.23323,0.24162 0.6045,0.56385 0.82504,0.71606 0.22053,0.15221 0.46786,0.38498 0.5496,0.51727 0.0818,0.13227 0.33628,0.47556 0.5656,0.76284 0.22933,0.28729 0.41702,0.59059 0.41708,0.67402 8e-5,0.0834 -0.0664,0.26075 -0.14764,0.39405 -0.18571,0.30458 -0.58971,0.40692 -0.87318,0.22118 -0.10263,-0.0673 -0.26906,-0.12226 -0.36985,-0.12226 -0.10077,0 -0.41767,-0.0881 -0.7042,-0.19566 -0.90831,-0.34113 -1.40948,-0.70359 -1.6965,-1.22695 -0.24503,-0.44678 -0.537,-0.67168 -0.73101,-0.56308 -0.11102,0.0622 -0.23026,0.0293 -0.5583,-0.15375 -0.22942,-0.12802 -0.50021,-0.31187 -0.60173,-0.40854 l -0.18462,-0.17577 0.0865,-1.60852 c 0.0476,-0.88469 0.0653,-1.64291 0.0393,-1.68494 -0.0781,-0.12639 -0.19869,-1.9899 -0.19953,-3.08379 -7.9e-4,-0.93603 0.0258,-1.7063 0.13918,-4.04877 0.0272,-0.56161 0.0123,-0.85882 -0.0466,-0.92975 -0.0476,-0.0573 -0.11753,-0.33432 -0.15542,-0.61549 -0.14725,-1.09283 -0.2021,-1.43222 -0.27866,-1.7247 -0.0436,-0.16685 -0.11534,-0.61053 -0.15927,-0.98594 -0.11471,-0.98018 -0.15381,-1.17555 -0.2353,-1.17555 -0.0399,0 -0.0724,0.0811 -0.0724,0.18007 0,0.099 -0.0502,0.32262 -0.11177,0.49684 -0.0615,0.17423 -0.16513,0.7257 -0.23035,1.22551 -0.0652,0.49981 -0.14821,0.98661 -0.1844,1.08181 -0.0362,0.0952 -0.089,0.37563 -0.11731,0.62319 -0.0283,0.24755 -0.11384,0.68901 -0.19002,0.981 -0.0761,0.29199 -0.16169,0.66741 -0.19001,0.83425 -0.0283,0.16686 -0.0799,0.3378 -0.11465,0.37987 -0.16845,0.20406 -0.34864,1.32363 -0.45764,2.84341 -0.10176,1.41872 -0.354288,3.32077 -0.483388,3.64087 -0.0254,0.0628 -0.0745,0.63524 -0.10926,1.27203 -0.0581,1.063 -0.0777,1.17325 -0.24037,1.34641 -0.17353,0.1847 -0.17778,0.2257 -0.20585,1.98684 l -0.0287,1.79824 -0.2617,0.49802 c -0.14393,0.2739 -0.36966,0.629 -0.50163,0.7891 -0.34665,0.42054 -0.89448,0.6226 -1.10831,0.40877 z M 106.6916,34.8239 c 0.0254,-0.066 0.046,-0.40525 0.046,-0.75394 0,-0.34868 0.0341,-0.65507 0.0759,-0.68085 0.0418,-0.0258 0.0765,-0.29229 0.0773,-0.59224 0.002,-0.65093 0.184,-2.08684 0.30856,-2.43129 0.0731,-0.20209 0.0669,-0.28744 -0.0348,-0.48421 -0.068,-0.13138 -0.12354,-0.32748 -0.12354,-0.43578 0,-0.14017 -0.0661,-0.23412 -0.22963,-0.32609 -0.12631,-0.071 -0.24882,-0.21452 -0.27226,-0.3188 -0.22708,-1.01036 -0.40195,-0.90035 -0.54976,0.34584 -0.0443,0.37292 -0.10407,1.03637 -0.13301,1.47436 -0.0289,0.43798 -0.0766,0.88166 -0.10595,0.98594 -0.0312,0.1108 -0.0129,0.26841 0.0439,0.37921 0.20685,0.40311 0.34502,1.02018 0.32891,1.46903 -0.014,0.3898 0.14646,1.19068 0.28687,1.43191 0.0583,0.10021 0.23393,0.0608 0.28149,-0.0631 z"
       style="fill:#000000;stroke-width:0.0200664"
       id="path3185" />
  </g>
</svg>
