<?xml version="1.0" encoding="UTF-8" standalone="no"?>
<!-- Created with Inkscape (http://www.inkscape.org/) -->

<svg
   width="57.229149mm"
   height="121.48728mm"
   viewBox="0 0 57.229149 121.48728"
   version="1.1"
   id="svg5"
   inkscape:version="1.1.1 (3bf5ae0d25, 2021-09-20)"
   sodipodi:docname="kid.svg"
   xmlns:inkscape="http://www.inkscape.org/namespaces/inkscape"
   xmlns:sodipodi="http://sodipodi.sourceforge.net/DTD/sodipodi-0.dtd"
   xmlns="http://www.w3.org/2000/svg"
   xmlns:svg="http://www.w3.org/2000/svg">
  <sodipodi:namedview
     id="namedview7"
     pagecolor="#ffffff"
     bordercolor="#666666"
     borderopacity="1.0"
     inkscape:pageshadow="2"
     inkscape:pageopacity="0.0"
     inkscape:pagecheckerboard="0"
     inkscape:document-units="mm"
     showgrid="false"
     fit-margin-top="0"
     fit-margin-left="0"
     fit-margin-right="0"
     fit-margin-bottom="0"
     inkscape:zoom="0.73406285"
     inkscape:cx="202.29875"
     inkscape:cy="-42.911857"
     inkscape:window-width="1920"
     inkscape:window-height="1009"
     inkscape:window-x="-8"
     inkscape:window-y="-8"
     inkscape:window-maximized="1"
     inkscape:current-layer="layer1" />
  <defs
     id="defs2">
    <pattern
       id="EMFhbasepattern"
       patternUnits="userSpaceOnUse"
       width="6"
       height="6"
       x="0"
       y="0" />
    <pattern
       id="EMFhbasepattern-8"
       patternUnits="userSpaceOnUse"
       width="6"
       height="6"
       x="0"
       y="0" />
    <pattern
       id="EMFhbasepattern-86"
       patternUnits="userSpaceOnUse"
       width="6"
       height="6"
       x="0"
       y="0" />
    <pattern
       id="EMFhbasepattern-6"
       patternUnits="userSpaceOnUse"
       width="6"
       height="6"
       x="0"
       y="0" />
    <pattern
       id="EMFhbasepattern-5"
       patternUnits="userSpaceOnUse"
       width="6"
       height="6"
       x="0"
       y="0" />
  </defs>
  <g
     inkscape:label="Layer 1"
     inkscape:groupmode="layer"
     id="layer1"
     transform="translate(-22.240565,-127.88965)">
    <path
       style="fill:#000000;stroke-width:0.264418"
       d="m 57.375008,249.13694 c -1.728249,-0.43769 -2.13166,-0.77192 -2.352489,-1.94904 -0.212787,-1.13425 0.310464,-5.05431 0.883615,-6.61982 0.537135,-1.46714 0.336633,-5.08164 -0.574135,-10.35008 -0.362699,-2.09808 -0.789839,-5.31075 -0.949201,-7.13928 -0.315331,-3.61813 -0.830456,-5.30772 -1.618222,-5.30772 -1.107608,0 -1.545806,-0.91307 -1.554513,-3.23911 -0.01478,-3.94673 -1.468795,-10.69894 -1.807839,-8.39526 -0.110267,0.74923 0.396618,6.12969 0.747313,7.93252 0.376893,1.93752 0.123663,2.61992 -1.041366,2.80621 -1.704539,0.27257 -1.676524,0.18923 -1.333741,3.96779 0.341601,3.76554 0.208795,6.00128 -0.553831,9.32345 -0.766855,3.3406 -1.266893,6.74195 -1.034829,7.03909 0.113575,0.14543 0.271948,0.62138 0.351937,1.05767 0.07999,0.43629 0.378286,1.44769 0.662879,2.24755 0.601362,1.69015 0.960346,5.23578 0.588974,5.81718 -0.202377,0.31684 -1.013365,0.40978 -4.031212,0.46201 -2.077825,0.036 -4.395269,0.19162 -5.149872,0.34591 -1.522801,0.31136 -7.128303,0.39892 -7.991866,0.12483 -0.482638,-0.15318 -0.551786,-0.38422 -0.551786,-1.84365 0,-1.92133 0.0263,-1.95341 2.379758,-2.90268 0.945293,-0.38128 2.214117,-1.04757 2.819611,-1.48063 0.605493,-0.43306 1.171716,-0.78739 1.258272,-0.78739 0.08656,0 0.650151,-0.35696 1.25243,-0.79325 0.60228,-0.43629 1.299847,-0.79325 1.550151,-0.79325 0.724483,0 0.861111,-2.0926 0.345877,-5.29751 -0.465169,-2.89348 -0.669195,-13.69422 -0.285091,-15.09218 0.185178,-0.67397 0.153941,-0.69428 -1.298079,-0.84414 -0.818302,-0.0845 -1.578264,-0.24965 -1.688803,-0.36709 -0.501681,-0.53301 -0.256138,-22.71426 0.279824,-25.27793 0.149926,-0.71714 0.09571,-1.23063 -0.190528,-1.8044 -0.237277,-0.47564 -0.337122,-1.11684 -0.245356,-1.57567 0.14278,-0.7139 0.09511,-0.77367 -0.616959,-0.77367 -0.577101,0 -0.889903,-0.20011 -1.240479,-0.79359 -0.257833,-0.43648 -0.710765,-0.86835 -1.006515,-0.95972 -0.587776,-0.18158 -3.16949,-2.70682 -4.695428,-4.59271 -0.529524,-0.65443 -1.81415,-2.20128 -2.854724,-3.43743 -4.491232,-5.33537 -4.741418,-8.41781 -0.890736,-10.9744 2.157728,-1.43258 4.862357,-3.79682 4.862357,-4.2504 0,-0.2008 0.494812,-0.61752 1.099583,-0.92605 0.60477,-0.30853 1.943384,-1.42194 2.974697,-2.47423 2.142376,-2.18597 4.593762,-3.57682 6.346342,-3.60076 2.487918,-0.034 5.372053,-1.26198 4.606124,-5.01921 -1.612812,-1.37243 -3.06692,-3.38468 -3.961521,-5.04853 -2.709775,-1.46407 -0.348648,-3.29518 -2.078008,-4.99113 -0.223706,-0.13826 -0.227113,-0.46575 -0.01312,-1.26048 0.213117,-0.79145 0.209259,-1.24894 -0.01467,-1.74042 -0.248305,-0.54497 -0.224944,-0.74559 0.127908,-1.09844 0.546307,-0.5463 0.403578,-0.44702 0.352643,-1.03443 -0.03431,-0.39574 1.421206,-1.3546 1.842531,-1.99765 0.681632,-2.36819 0.586429,-1.66518 2.166479,-3.04545 1.291764,-1.16703 2.606882,-1.72008 4.090225,-1.72008 0.639256,0 1.796053,-0.12019 2.570667,-0.2671 0.983459,-0.18651 1.492957,-0.18178 1.6887,0.0157 0.198533,0.20027 0.12603,0.23235 -0.24852,0.10995 -0.391711,-0.12801 -0.433992,-0.10524 -0.163059,0.0878 2.201344,-0.42079 6.349863,0.37227 6.641289,5.69399 0.221359,2.99415 0.779503,4.74003 0.793247,8.92084 v 2.84283 l -1.063818,1.34583 c -0.5851,0.74021 -1.170336,1.34583 -1.300522,1.34583 -0.590558,0 -1.383125,1.85603 -1.215712,2.84694 0.252193,1.49273 1.199562,1.9152 4.901891,2.186 3.588913,0.26249 4.955844,0.68757 6.742896,2.09683 0.727149,0.57342 2.004685,1.49432 2.838972,2.04645 0.834285,0.55212 1.579049,1.19025 1.655027,1.41806 0.07598,0.22781 1.178199,0.99257 2.449379,1.69945 8.508081,4.73122 7.92609,8.06058 -3.109323,17.78724 -2.545019,2.24318 -4.733043,4.30155 -4.862274,4.57413 -0.129234,0.27259 -0.634377,0.62743 -1.122542,0.78854 -0.499985,0.16501 -1.306157,0.80375 -1.846121,1.46271 -0.527201,0.64338 -1.135425,1.16978 -1.35161,1.16978 -0.273064,0 -0.332963,0.14127 -0.196203,0.46273 0.6492,1.52597 0.752743,2.42624 0.333192,2.89695 -0.38133,0.42783 -0.385013,0.65599 -0.03753,2.32529 0.21191,1.01801 0.426463,3.55078 0.476787,5.62838 0.08364,3.45306 0.151176,3.89584 0.786415,5.15614 0.420094,0.83345 0.674839,1.74469 0.64415,2.30415 -0.02792,0.50901 0.10613,1.9684 0.297891,3.2431 0.26428,1.75674 0.275888,2.47736 0.04797,2.97758 -0.18523,0.40654 -0.237359,1.26586 -0.13576,2.23791 0.191904,1.83602 -0.05463,2.28664 -1.387845,2.53675 -0.990323,0.18579 -0.98582,0.13228 -0.235054,2.79273 0.6817,2.41569 0.723245,4.23271 0.243192,10.63611 -0.485732,6.47914 -0.304135,11.94201 0.436234,13.12311 0.136743,0.21815 0.484439,0.75359 0.772657,1.18988 0.53699,0.81287 0.738463,3.35499 0.318269,4.01583 -0.559978,0.88067 -4.167546,1.32318 -6.32752,0.77615 z m 4.570283,-0.72566 c 1.790955,-0.45097 1.95656,-2.34497 0.378643,-4.33052 -0.602676,-0.75837 -0.771814,-1.2297 -0.745369,-2.0771 0.0188,-0.60287 -0.115987,-2.24037 -0.299548,-3.6389 -0.257154,-1.9592 -0.265848,-3.16696 -0.03787,-5.26253 0.647593,-5.95279 0.668784,-11.02805 0.05592,-13.39215 -0.783081,-3.02069 -0.752805,-3.42088 0.274354,-3.62631 1.381891,-0.27638 1.538955,-0.55063 1.367417,-2.3876 -0.08826,-0.94518 -0.03776,-1.86769 0.118194,-2.1591 0.254108,-0.4748 -0.106758,-3.60526 -0.611481,-5.3045 -0.09232,-0.3108 -0.03968,-0.64431 0.116973,-0.74112 0.188741,-0.11665 0.06272,-0.61434 -0.373593,-1.47535 -0.362128,-0.71463 -0.658413,-1.52142 -0.658413,-1.79288 0,-0.27145 -0.06962,-0.56317 -0.154708,-0.64826 -0.08509,-0.0851 -0.189524,-1.85999 -0.232077,-3.94423 -0.04447,-2.17804 -0.248436,-4.52039 -0.479645,-5.50823 -0.366057,-1.56397 -0.363918,-1.76189 0.02377,-2.19818 0.392131,-0.44128 0.390005,-0.58097 -0.02669,-1.7542 -0.572001,-1.61053 -0.567532,-1.86481 0.03279,-1.86481 0.267043,0 0.951224,-0.59016 1.520401,-1.31148 0.654174,-0.82903 1.244296,-1.31538 1.604166,-1.32209 0.314382,-0.006 0.906365,-0.41293 1.322088,-0.90913 0.414035,-0.49419 2.801218,-2.69706 5.304845,-4.89526 10.210867,-8.96518 10.688024,-11.87689 2.663182,-16.25124 -1.263268,-0.68861 -2.361656,-1.45619 -2.440862,-1.70575 -0.07921,-0.24955 -0.543508,-0.66888 -1.031784,-0.93183 -0.488276,-0.26295 -1.530108,-1.01207 -2.315182,-1.6647 -2.641299,-2.19571 -4.916186,-3.00304 -8.461994,-3.00304 -3.372209,0 -4.467575,-0.81164 -4.467575,-3.31039 0,-1.38418 0.03837,-1.45554 1.69649,-3.15498 l 1.696493,-1.73876 0.188664,-2.01334 c 0.140742,-1.50193 0.07099,-2.5741 -0.274627,-4.221 -0.254808,-1.21421 -0.400341,-2.44838 -0.323401,-2.74259 0.272736,-1.04295 -0.108874,-3.85462 -1.220233,-5.57531 -0.237365,-0.3675 -0.642583,-1.08168 -0.642583,-1.08168 -0.434848,-0.31634 -0.446263,-0.34449 -0.895371,-0.57903 -0.258821,-0.13516 -0.141492,-0.18209 -0.758686,-0.23144 -0.274705,-0.022 -0.227378,0.17534 -0.708889,0.26738 -0.384897,0.0736 -0.754511,-0.0177 -0.877457,-0.21658 -0.307962,-0.4983 -5.971365,-0.52047 -6.870596,-0.0269 -1.405403,0.77139 -2.847307,2.52778 -2.686874,3.27291 0.02348,0.10907 -0.07629,0.19831 -0.221719,0.19831 -0.14543,0 -0.264418,0.17574 -0.264418,0.39053 0,0.21479 -0.267723,0.56615 -0.594939,0.78079 -1.194729,0.7837 -2.216649,3.93341 -1.775387,5.47201 0.140242,0.48899 0.256295,1.36582 0.257897,1.9485 0.0057,2.06518 0.27097,2.99056 0.816463,2.84791 0.327397,-0.0856 0.547091,0.0379 0.645573,0.36295 0.341059,1.12569 1.275971,2.74028 1.586733,2.74028 0.183706,0 0.458452,0.35696 0.610545,0.79325 0.205511,0.58953 0.442466,0.79325 0.922661,0.79325 0.821689,0 1.037255,0.76805 0.795712,2.83509 -0.304093,2.60233 -1.415422,3.56162 -4.684913,4.04397 -2.397668,0.35372 -4.242207,1.40859 -6.574731,3.76 -1.138072,1.14729 -2.415815,2.2068 -2.839428,2.35447 -0.423613,0.14767 -0.866276,0.53633 -0.983695,0.86369 -0.245922,0.68562 -2.991815,3.05437 -5.072974,4.37621 -2.452163,1.55749 -2.963464,3.18767 -1.786637,5.69635 1.311103,2.79492 9.253765,12.031 10.346182,12.031 0.223401,0 0.637198,0.37987 0.919548,0.84416 0.405357,0.66655 0.696599,0.84736 1.384305,0.85936 l 0.870943,0.0152 -0.08905,1.26734 c -0.05126,0.72943 0.04595,1.43002 0.22903,1.65061 0.221371,0.26673 0.257829,0.84615 0.119909,1.90567 -0.294361,2.26131 -0.479842,8.77099 -0.491655,17.25524 l -0.01049,7.5359 1.575428,0.22608 1.575428,0.22608 0.0031,7.17761 c 0.0024,5.48525 0.106394,7.76989 0.441318,9.68958 0.553984,3.17528 0.397126,5.28835 -0.392565,5.28835 -0.298072,0 -1.205089,0.43884 -2.015595,0.97521 -0.810507,0.53636 -1.89248,1.2475 -2.404386,1.58031 -0.511906,0.33281 -1.701785,0.91517 -2.644176,1.29414 -2.15329,0.86592 -2.325214,1.05546 -2.178903,2.40223 0.169482,1.56006 2.661415,1.88534 7.636208,0.99679 1.549928,-0.27684 3.027639,-0.36608 4.346517,-0.26249 3.348219,0.26298 5.477467,-0.34782 4.526741,-1.29854 -0.08809,-0.0881 -0.186042,-0.87361 -0.217674,-1.7456 -0.03472,-0.95718 -0.274198,-2.03305 -0.604332,-2.71502 -0.300757,-0.62127 -0.546826,-1.44195 -0.546826,-1.82374 0,-0.38179 -0.134221,-0.77712 -0.298268,-0.87851 -0.410371,-0.25362 -0.15249,-2.45598 0.860589,-7.34961 0.790738,-3.81962 0.819284,-4.17178 0.634991,-7.83347 -0.106135,-2.10873 -0.21072,-4.30777 -0.23241,-4.88675 l -0.03944,-1.05269 1.413656,-0.22751 1.413655,-0.22752 -0.164515,-1.09955 c -1.332762,-8.90765 -0.654047,-14.04983 1.131067,-8.56935 1.024899,3.14654 1.082809,3.49326 1.137202,6.80875 0.05202,3.17099 0.182125,3.57427 1.22007,3.78186 1.159439,0.23189 1.845241,2.05102 2.013352,5.34055 0.07432,1.45429 0.511587,4.90494 0.9717,7.66811 0.850671,5.1086 1.126768,10.34467 0.582401,11.04498 -0.827516,1.06458 -1.229563,6.01873 -0.544071,6.70422 0.82874,0.82874 3.80114,1.12805 5.915436,0.59566 z M 36.410845,181.81021 c -0.218144,-0.14097 -0.720187,-0.25814 -1.115649,-0.26037 -0.853865,-0.005 -1.806814,-1.36575 -3.941679,-5.62925 -0.744669,-1.48717 -1.577239,-3.01979 -1.850154,-3.40581 -0.697058,-0.98595 -0.640024,-1.15291 0.617788,-1.80852 0.612698,-0.31936 1.402166,-0.80732 1.754373,-1.08437 0.352206,-0.27704 0.853176,-0.50372 1.113264,-0.50372 0.260089,0 0.809235,-0.28119 1.220325,-0.62486 0.41109,-0.34368 1.015285,-0.7087 1.342656,-0.81116 0.327371,-0.10247 0.718268,-0.41622 0.86866,-0.69723 0.639053,-1.19408 1.380167,-0.62636 1.145201,0.87727 -0.119311,0.7635 -0.177069,4.27365 -0.128353,7.80032 0.09281,6.71849 0.06982,6.85616 -1.026432,6.1477 z m 0.396626,-7.24403 v -6.71523 l -0.793252,0.40658 c -0.436289,0.22362 -1.077022,0.62773 -1.423851,0.89803 -0.346829,0.2703 -0.794865,0.49145 -0.995634,0.49145 -0.200769,0 -1.047385,0.44188 -1.881368,0.98196 -0.833983,0.54007 -1.559526,1.00964 -1.612317,1.04348 -0.135557,0.0869 2.755698,5.73315 3.873715,7.56489 0.645754,1.058 1.141536,1.57162 1.617518,1.67574 0.657877,0.14391 1.215189,0.30325 1.215189,0.34745 z m 22.452615,6.41376 c -0.896936,-1.45127 -0.262147,-5.84951 1.62992,-11.29318 0.639441,-1.83973 1.164132,-3.68001 1.165981,-4.0895 0.01066,-2.36261 1.849616,-2.25827 4.527812,0.25689 0.521643,0.48989 0.858733,0.60612 1.379061,0.47552 0.490532,-0.12311 0.891738,-0.0131 1.394499,0.38237 0.388207,0.30537 0.872001,0.55521 1.075098,0.55521 0.619165,0 0.694947,0.73337 0.156141,1.51102 -0.280677,0.40509 -1.231771,2.04539 -2.113542,3.64512 -0.881772,1.59973 -2.149789,3.85622 -2.817816,5.01442 l -1.214594,2.10584 -1.744553,0.47789 c -0.959503,0.26284 -2.083933,0.6534 -2.49873,0.8679 -0.546258,0.28248 -0.80521,0.30743 -0.939277,0.0905 z m 2.006009,-1.29918 c 0.363574,-0.12345 1.166742,-0.35384 1.784818,-0.51198 0.618076,-0.15815 1.123775,-0.38593 1.123775,-0.50619 0,-0.12025 0.815228,-1.63276 1.811622,-3.36113 2.768708,-4.80268 4.00573,-7.0302 4.003893,-7.20985 -0.0036,-0.34913 -1.582777,-1.03981 -2.080112,-0.90975 -0.499834,0.13071 -2.148898,-0.63157 -2.148898,-0.99333 0,-0.28624 -1.982635,-1.56546 -2.42628,-1.56546 -0.283527,0 -0.471406,0.35551 -0.593903,1.12378 -0.09855,0.61807 -0.780309,2.90859 -1.515028,5.09004 -1.56395,4.6435 -2.17445,9.6955 -1.120204,9.26988 0.2746,-0.11087 0.796742,-0.30257 1.160317,-0.42601 z"
       id="path2723"
       sodipodi:nodetypes="csssssssssssssssssssssssssscsssssssssssssscccssssccssssccccsssssssssssssssssssssssssssscccssssssssssssssssssscssssssssscsssssssscsssssssssssssssssssssscsssscccssssssssssssssssscccssssssssccscsssssssssssccsssssssccsssssssssscsssssssssssssss" />
  </g>
</svg>
