<?xml version="1.0" encoding="UTF-8" standalone="no"?>
<!-- Created with Inkscape (http://www.inkscape.org/) -->

<svg
   width="60.683441mm"
   height="203.33501mm"
   viewBox="0 0 60.683441 203.33501"
   version="1.1"
   id="svg5"
   inkscape:version="1.1.1 (3bf5ae0d25, 2021-09-20)"
   sodipodi:docname="man.svg"
   xmlns:inkscape="http://www.inkscape.org/namespaces/inkscape"
   xmlns:sodipodi="http://sodipodi.sourceforge.net/DTD/sodipodi-0.dtd"
   xmlns="http://www.w3.org/2000/svg"
   xmlns:svg="http://www.w3.org/2000/svg">
  <sodipodi:namedview
     id="namedview7"
     pagecolor="#ffffff"
     bordercolor="#666666"
     borderopacity="1.0"
     inkscape:pageshadow="2"
     inkscape:pageopacity="0.0"
     inkscape:pagecheckerboard="0"
     inkscape:document-units="mm"
     showgrid="false"
     fit-margin-top="0"
     fit-margin-left="0"
     fit-margin-right="0"
     fit-margin-bottom="0"
     inkscape:zoom="0.25953041"
     inkscape:cx="-360.26607"
     inkscape:cy="493.19847"
     inkscape:window-width="1284"
     inkscape:window-height="1032"
     inkscape:window-x="255"
     inkscape:window-y="0"
     inkscape:window-maximized="0"
     inkscape:current-layer="layer1" />
  <defs
     id="defs2">
    <pattern
       id="EMFhbasepattern"
       patternUnits="userSpaceOnUse"
       width="6"
       height="6"
       x="0"
       y="0" />
    <pattern
       id="EMFhbasepattern-8"
       patternUnits="userSpaceOnUse"
       width="6"
       height="6"
       x="0"
       y="0" />
    <pattern
       id="EMFhbasepattern-86"
       patternUnits="userSpaceOnUse"
       width="6"
       height="6"
       x="0"
       y="0" />
    <pattern
       id="EMFhbasepattern-6"
       patternUnits="userSpaceOnUse"
       width="6"
       height="6"
       x="0"
       y="0" />
    <pattern
       id="EMFhbasepattern-5"
       patternUnits="userSpaceOnUse"
       width="6"
       height="6"
       x="0"
       y="0" />
  </defs>
  <g
     inkscape:label="Layer 1"
     inkscape:groupmode="layer"
     id="layer1"
     transform="translate(-133.91769,-40.025087)">
    <path
       style="fill:#000000;stroke-width:0.264415"
       d="m 177.5076,242.72076 c -1.61062,-0.75161 -3.17143,-2.41921 -3.40173,-3.63447 -0.15999,-0.8442 -0.2801,-0.93239 -1.95397,-1.43469 l -1.7835,-0.53521 -0.0761,-3.82764 c -0.0419,-2.10521 -0.18203,-13.52506 -0.31151,-25.37746 -0.20652,-18.90633 -0.51048,-28.45138 -0.95264,-29.91521 -0.15453,-0.5116 -4.58644,-0.3856 -4.93556,0.14031 -0.62713,0.94468 -0.10257,16.66976 0.84769,25.41205 0.53689,4.93929 0.96146,11.54439 1.2025,18.70718 0.0771,2.2904 0.25621,4.46965 0.39807,4.84279 0.14187,0.37313 0.25794,2.31805 0.25794,4.32204 0,4.00121 -0.21769,4.58492 -1.70993,4.58492 -0.59354,0 -0.66985,0.10914 -0.67021,0.95851 -0.001,2.53217 -1.72423,3.656 -6.60124,4.30533 -5.23323,0.69676 -6.88923,-1.50884 -4.14329,-5.51836 2.53603,-3.70302 3.34671,-6.02448 2.80559,-8.03405 -0.15248,-0.56627 -0.86523,-4.5105 -1.5839,-8.76495 -0.71866,-4.25446 -1.66704,-9.81764 -2.1075,-12.36264 -1.10301,-6.37317 -1.78009,-11.9846 -2.10572,-17.45138 -0.15159,-2.545 -0.47168,-7.18548 -0.7113,-10.31218 l -0.43569,-5.68493 -1.76392,-1.89145 c -1.9857,-2.12929 -3.31074,-4.55887 -3.7498,-6.87565 -0.30575,-1.61334 -0.11675,-15.6438 0.25876,-19.20895 l 0.18948,-1.79898 -1.13096,-1.18033 c -1.73331,-1.80898 -0.97655,-3.82454 2.41971,-6.44474 1.75154,-1.3513 1.8734,-1.59452 0.38013,-0.75867 -1.43146,0.80126 -3.14758,2.32178 -3.94982,3.49964 -1.00237,1.4717 -1.34738,1.25646 -2.7174,-1.69529 -4.15778,-8.95805 -6.22542,-19.38359 -5.35965,-27.02472 0.86588,-7.64209 5.34237,-26.287639 6.87154,-28.621458 0.51246,-0.78211 2.64524,-1.825838 7.01367,-3.432301 4.17995,-1.537153 5.18521,-2.139828 7.73116,-4.634982 2.3635,-2.316352 2.449,-2.605775 1.42173,-4.812479 -0.36444,-0.782853 -0.65961,-1.902645 -0.66104,-2.507788 -0.002,-0.86157 -0.13751,-1.18176 -0.63905,-1.51038 -0.9116,-0.597304 -1.5659,-2.756472 -1.42511,-4.702824 l 0.11353,-1.569568 -1.11868,-0.494846 c -2.50656,-1.108771 -2.066,-3.797462 0.55261,-3.372519 2.21687,0.359748 2.26236,0.01357 1.15888,-8.818992 -0.60692,-4.857991 0.59575,-5.486645 9.94872,-5.200333 7.85178,0.240357 8.09748,0.486144 7.1596,7.162176 -0.92326,6.572001 -0.85449,6.933583 1.30089,6.839776 1.69069,-0.07358 2.24832,0.267894 2.24832,1.37682 0,0.994023 -1.20223,2.261728 -2.14491,2.261728 -0.44973,0 -0.47738,0.07561 -0.21019,0.57486 0.69837,1.304924 -0.18989,5.139995 -1.38609,5.984403 -0.34266,0.24189 -0.49023,0.678042 -0.49203,1.454282 -0.001,0.62161 -0.29189,1.73023 -0.66104,2.523205 -1.14929,2.468805 -1.12944,2.504115 2.88605,5.132312 4.23696,2.773147 4.97152,3.113893 8.89203,4.12482 4.3105,1.11149 4.42307,1.168603 5.01217,2.542918 1.28516,2.998156 3.00656,12.811959 4.89418,27.90203 0.37293,2.98128 0.85795,6.81417 1.07782,8.51753 0.822,6.36799 1.28317,24.8533 0.64507,25.85642 -0.21798,0.34268 -0.3343,0.34657 -0.8553,0.0286 l -0.603,-0.36797 0.51535,0.57915 c 0.83471,0.93804 0.95113,7.74476 0.17611,10.29635 -0.77783,2.56084 -3.74732,5.78212 -5.12684,5.56155 -0.17825,-0.0285 -0.52366,0.0359 -0.76758,0.143 -2.1357,0.93818 -2.34187,-0.93738 -0.44337,-4.03321 1.27099,-2.07255 1.40394,-2.43716 1.46033,-4.00474 0.0495,-1.37686 0.0186,-1.538 -0.15322,-0.79916 -0.51278,2.20471 -1.79674,4.23064 -2.68123,4.23064 -0.46328,0 -0.51561,0.19376 -0.5177,1.91701 -0.003,2.59415 -0.47159,8.99976 -0.78271,10.703 -0.24451,1.33851 -0.49297,7.55098 -1.07623,26.91002 -0.27128,9.00414 -0.65021,15.14087 -1.4368,23.26852 -0.21112,2.18142 -0.57547,6.05929 -0.80967,8.61748 l -0.42581,4.65125 0.68826,1.6947 c 0.37854,0.93209 1.36295,2.7593 2.18757,4.06046 2.20242,3.47519 2.28662,6.29981 0.21361,7.16598 -1.49353,0.62403 -4.77162,0.50113 -6.35614,-0.2383 z m 6.50155,-0.92758 c 0.97108,-1.19923 0.69329,-2.50655 -1.21386,-5.71259 -3.06116,-5.146 -3.04464,-4.97406 -1.70269,-17.72491 1.03076,-9.79401 1.48343,-17.7372 1.83835,-32.25862 0.30367,-12.4243 0.48121,-15.89601 1.18315,-23.13631 0.94362,-9.73309 0.37215,-25.35119 -1.31722,-35.99906 -1.85856,-11.71429 -1.97433,-21.37898 -0.2561,-21.37898 0.26467,0 0.38733,0.28643 0.38733,0.90448 0,0.49747 0.23145,2.96644 0.51435,5.48661 0.28289,2.52017 0.82247,7.43781 1.19906,10.92809 0.3766,3.49028 0.8609,7.81504 1.07622,9.61058 0.21533,1.79555 0.46724,4.5025 0.55981,6.01544 0.0926,1.51295 0.17998,2.74902 0.19424,2.74683 0.0143,-0.002 0.50186,-0.17544 1.08358,-0.38501 1.54253,-0.55572 4.04402,-0.50979 5.23239,0.0961 l 0.98136,0.50032 0.0298,-2.94616 c 0.0978,-9.68731 -0.22929,-16.18777 -1.22609,-24.36377 -2.39889,-19.676198 -4.51156,-32.084051 -5.8114,-34.130844 -0.406,-0.639305 -1.7064,-1.142064 -5.02315,-1.942046 -2.94688,-0.710771 -4.36859,-1.352242 -7.40362,-3.340489 -1.30885,-0.857428 -2.70225,-1.765281 -3.09644,-2.017454 l -0.71671,-0.45849 0.25398,0.668018 c 1.43562,3.775964 -0.62163,17.166748 -4.58613,29.851435 -1.55178,4.96503 -1.51916,4.97697 -3.81205,-1.39528 -4.18602,-11.63348 -5.89156,-19.520628 -5.5449,-25.642043 l 0.15655,-2.764553 -1.50712,1.434293 c -2.01181,1.914583 -3.17926,2.557381 -7.77882,4.283011 -4.682,1.756559 -5.87457,2.459477 -6.43062,3.790285 -1.36668,3.270921 -4.90618,17.690307 -6.11746,24.921547 -1.37661,8.21832 0.51677,19.08363 5.04034,28.92444 l 0.95903,2.08631 0.75202,-1.03813 c 1.36417,-1.88318 4.72868,-4.08125 5.68519,-3.7142 0.59288,0.2275 0.29784,1.49341 -0.46823,2.00903 -0.91999,0.61921 -3.43581,3.28229 -3.83962,4.06436 -0.36608,0.70898 -0.34059,0.77274 0.75534,1.88941 l 1.1342,1.15566 -0.32801,6.59913 c -0.18041,3.62952 -0.27391,8.576 -0.20779,10.99219 l 0.12021,4.39306 1.09146,2.20264 c 0.76812,1.55014 1.59403,2.708 2.78798,3.90852 l 1.69653,1.70587 0.2981,4.49505 c 1.25944,18.99082 1.644,22.59317 3.47185,32.52304 0.42832,2.32685 0.84312,4.58759 0.92179,5.02388 0.0787,0.43628 0.55795,3.37168 1.06509,6.52311 0.50713,3.15143 1.05169,6.0666 1.21012,6.47817 0.6701,1.74078 -0.33508,4.7429 -2.83123,8.45591 -2.77356,4.12564 -0.54017,5.56087 5.95615,3.82756 2.38871,-0.63734 2.86232,-1.07855 3.12695,-2.91298 0.2123,-1.47163 0.43588,-1.72923 1.73988,-2.00458 l 0.74097,-0.15647 -0.12863,-3.6272 c -0.38339,-10.81063 -1.05732,-21.04254 -1.93694,-29.40765 -0.7011,-6.66726 -1.0673,-23.94959 -0.51916,-24.50035 0.27464,-0.27595 5.79778,-0.64166 6.04068,-0.39998 0.40883,0.40677 0.773,4.81797 0.90965,11.01855 0.24325,11.03812 0.65533,41.01589 0.61629,44.83431 l -0.0367,3.58559 1.12702,0.4427 c 0.88478,0.34756 1.209,0.37468 1.50839,0.12621 0.51296,-0.42572 1.01648,0.26604 1.26445,1.73714 0.52205,3.09709 7.2795,5.40557 9.13084,3.11927 z m -37.0083,-109.04184 c -1.14055,-3.11041 -3.20616,-13.96039 -3.20616,-16.8409 0,-2.90182 2.61781,-12.00892 3.40821,-11.85685 1.19078,0.22909 2.13156,24.72289 1.08702,28.30113 -0.32546,1.11493 -0.95469,1.30854 -1.28907,0.39662 z m 1.00909,-8.26296 c 0.0249,-5.26344 -0.69214,-17.28535 -1.0547,-17.68199 -0.22927,-0.25081 -0.90761,1.78189 -1.84172,5.5189 -0.88946,3.55839 0.19595,12.4701 2.31873,19.03788 0.32424,1.00317 0.55328,-1.72249 0.57769,-6.87479 z m 4.11383,-45.347161 c 1.01019,-1.017997 1.89621,-1.850904 1.96892,-1.850904 0.0727,0 -0.69431,0.832907 -1.70451,1.850904 -1.0102,1.017998 -1.89621,1.850905 -1.96893,1.850905 -0.0727,0 0.69432,-0.832907 1.70452,-1.850905 z m 23.12207,-0.198311 -0.91122,-0.991556 0.99156,0.911219 c 0.92291,0.84814 1.11313,1.071893 0.91121,1.071893 -0.0442,0 -0.49038,-0.4462 -0.99155,-0.991556 z m 13.0525,78.733152 c 0.72777,-0.005 3.32619,-2.60984 4.09216,-4.1015 0.58482,-1.13888 0.69548,-1.75238 0.7966,-4.41627 0.21458,-5.65328 -0.12259,-6.54931 -2.48755,-6.61053 -3.37916,-0.0875 -3.9351,0.69716 -4.34659,6.13458 -0.12657,1.67243 -0.30655,3.39774 -0.39997,3.83402 l -0.16984,0.79325 0.68293,-0.97037 c 0.37561,-0.5337 0.90542,-1.78306 1.17735,-2.77635 0.80303,-2.93327 1.89505,-2.22355 1.89505,1.23161 0,1.36699 -0.14322,1.74284 -1.56778,4.11449 -1.59371,2.65323 -1.72604,3.19334 -0.71601,2.92231 0.3108,-0.0834 0.78044,-0.15325 1.04365,-0.15524 z m -2.60064,-9.55607 c 0.20328,-5.4411 0.73261,-6.18023 4.42603,-6.18023 2.27858,0 2.52308,-0.0415 1.87668,-0.31859 -1.11325,-0.4772 -2.81798,-0.40594 -4.36673,0.18254 -1.8112,0.6882 -1.78229,0.7419 -2.22373,-4.1312 -0.20896,-2.30672 -0.79097,-7.88261 -1.29337,-12.39089 -1.26889,-11.38649 -1.70982,-15.66999 -1.75556,-17.05476 -0.0298,-0.90305 -0.0878,-0.71183 -0.2404,0.79324 -0.32937,3.24803 0.20264,9.70387 1.45991,17.7158 1.09343,6.9679 1.72731,14.85452 1.72731,21.49102 0,3.64323 0.25234,3.57402 0.38986,-0.10693 z m -20.68679,-43.92155 c 0.0694,-0.32936 0.6698,-2.44314 1.33423,-4.697268 2.83875,-9.630693 4.92573,-21.306976 3.91948,-21.928866 -0.14571,-0.09006 -0.17568,-0.30816 -0.0666,-0.484673 0.10909,-0.176513 0.10892,-1.125268 -2.6e-4,-2.108342 -0.1093,-0.983073 -0.20484,-1.943225 -0.2123,-2.133667 -0.008,-0.194178 -0.56521,0.11263 -1.26955,0.69855 -1.98642,1.652445 -4.16836,2.767346 -5.13752,2.625104 -0.74788,-0.109767 -0.78048,-0.08716 -0.33937,0.23539 0.58045,0.424436 1.23576,0.459852 1.60867,0.08694 0.3808,-0.380914 3.0187,-1.316609 3.71165,-1.316609 0.6096,0 1.21411,1.267232 1.21411,2.545133 0,0.340012 0.1129,0.548426 0.25088,0.463147 0.13799,-0.08528 0.12612,0.06562 -0.0264,0.335342 -0.15249,0.269716 -0.45849,0.950513 -0.67999,1.512884 -0.34558,0.877413 -0.49655,1.004552 -1.06402,0.896073 -0.36371,-0.06953 -0.86966,0.03176 -1.12433,0.225073 -0.25467,0.193319 -0.57502,0.35527 -0.71188,0.359897 -0.13687,0.0046 -0.0179,-0.166287 0.26441,-0.379805 0.4622,-0.349588 0.44859,-0.449455 -0.0521,-0.382447 -0.0928,0.01243 -0.24154,-0.07682 -0.33052,-0.198311 -0.79733,-1.088753 -2.4147,-1.644833 -2.94068,-1.011062 -1.28621,1.549796 -4.49249,1.818376 -4.49249,0.37632 0,-0.242159 -0.26454,-0.783548 -0.58787,-1.203088 -0.32333,-0.419539 -0.39954,-0.613371 -0.16936,-0.430737 0.36855,0.292414 0.43637,0.159056 0.56807,-1.116965 0.22469,-2.177047 0.65273,-2.433654 2.66032,-1.594832 1.48101,0.618805 1.41673,0.480643 -0.31408,-0.675149 -0.88274,-0.589474 -1.89654,-1.418258 -2.25288,-1.841748 -0.78058,-0.927671 -0.91395,-0.721192 -1.14714,1.776043 -0.12362,1.323815 -0.0598,1.789558 0.32641,2.382995 0.41132,0.631986 0.41666,0.685633 0.0373,0.3747 -2.16334,-1.772955 1.00848,11.996701 6.03737,26.209648 0.46102,1.30295 0.76989,1.4283 0.98647,0.40033 z m -4.0026,-24.300491 c 0.49435,-0.165514 1.27758,-0.581967 1.74051,-0.925453 1.06363,-0.78918 1.7506,-0.788255 2.81164,0.0038 0.95502,0.712897 2.76946,1.366095 3.04085,1.094705 0.21142,-0.211421 0.24704,-3.727825 0.0399,-3.935005 -0.20277,-0.202774 -2.40942,0.380298 -3.02497,0.799303 -0.60159,0.409504 -2.67569,0.479175 -2.91139,0.0978 -0.0874,-0.141475 -0.63734,-0.386038 -1.22201,-0.543473 -0.58467,-0.157435 -1.22682,-0.349094 -1.42699,-0.425909 -0.48713,-0.186928 -0.77622,1.38504 -0.54198,2.947074 0.19637,1.309515 0.2096,1.317368 1.49449,0.887173 z m 5.01238,-5.506864 c 2.42852,-1.442759 3.42194,-2.618271 3.42336,-4.050864 5.3e-4,-0.662726 0.26864,-1.641889 0.66104,-2.415345 0.4508,-0.888567 0.65993,-1.733994 0.65993,-2.66781 0,-1.1938 0.082,-1.404397 0.64724,-1.661931 1.20769,-0.550261 2.03958,-4.813865 0.93925,-4.813865 -1.265,0 -0.60831,-1.16207 1.0778,-1.907287 2.17072,-0.959397 2.22598,-1.917276 0.11206,-1.942513 -2.71764,-0.03244 -3.07733,-1.396931 -2.10119,-7.970891 0.88433,-5.955623 0.79289,-6.028587 -7.54995,-6.0246 -8.25972,0.0039 -8.51503,0.141205 -7.95953,4.279163 1.12663,8.392355 0.71973,10.539402 -1.84323,9.725951 -0.28018,-0.08893 -0.7474,-0.08615 -1.03825,0.0062 -1.19585,0.379548 -0.21956,1.56323 1.76524,2.140226 1.53405,0.44596 2.15488,1.693791 0.84271,1.693791 -1.23619,0 -0.21515,4.476212 1.11751,4.899184 0.41299,0.131078 0.50518,0.414282 0.50518,1.551988 0,0.960072 0.20465,1.795049 0.65993,2.692434 0.3924,0.773456 0.66038,1.752619 0.66103,2.415345 0.001,1.376111 0.98511,2.601846 3.28119,4.088342 1.92882,1.248728 1.97436,1.248316 4.13868,-0.03748 z"
       id="path2270"
       sodipodi:nodetypes="sssccsssssssscssssssscssscsssssssssscsscsssssssssscsssssssscssscsscscsssscssssssssssssssssscssccssssscsssscssssscssssscsscsscssssssssscsssssscsssssssssssssssssssscssscssssscssssscssssssscsssssssccssscsssssssssscsssssssssscssscsssssssssccscssssssscsscssssscsss" />
  </g>
</svg>
