<?xml version="1.0" encoding="UTF-8" standalone="no"?>
<!-- Created with Inkscape (http://www.inkscape.org/) -->

<svg
   width="59.011028mm"
   height="189.99254mm"
   viewBox="0 0 59.011028 189.99254"
   version="1.1"
   id="svg5"
   inkscape:version="1.1.1 (3bf5ae0d25, 2021-09-20)"
   sodipodi:docname="woman.svg"
   xmlns:inkscape="http://www.inkscape.org/namespaces/inkscape"
   xmlns:sodipodi="http://sodipodi.sourceforge.net/DTD/sodipodi-0.dtd"
   xmlns="http://www.w3.org/2000/svg"
   xmlns:svg="http://www.w3.org/2000/svg">
  <sodipodi:namedview
     id="namedview7"
     pagecolor="#ffffff"
     bordercolor="#666666"
     borderopacity="1.0"
     inkscape:pageshadow="2"
     inkscape:pageopacity="0.0"
     inkscape:pagecheckerboard="0"
     inkscape:document-units="mm"
     showgrid="false"
     fit-margin-top="0"
     fit-margin-left="0"
     fit-margin-right="0"
     fit-margin-bottom="0"
     inkscape:zoom="0.73406285"
     inkscape:cx="597.36029"
     inkscape:cy="333.07775"
     inkscape:window-width="1920"
     inkscape:window-height="1009"
     inkscape:window-x="-8"
     inkscape:window-y="-8"
     inkscape:window-maximized="1"
     inkscape:current-layer="layer1" />
  <defs
     id="defs2">
    <pattern
       id="EMFhbasepattern"
       patternUnits="userSpaceOnUse"
       width="6"
       height="6"
       x="0"
       y="0" />
    <pattern
       id="EMFhbasepattern-8"
       patternUnits="userSpaceOnUse"
       width="6"
       height="6"
       x="0"
       y="0" />
    <pattern
       id="EMFhbasepattern-86"
       patternUnits="userSpaceOnUse"
       width="6"
       height="6"
       x="0"
       y="0" />
    <pattern
       id="EMFhbasepattern-6"
       patternUnits="userSpaceOnUse"
       width="6"
       height="6"
       x="0"
       y="0" />
    <pattern
       id="EMFhbasepattern-5"
       patternUnits="userSpaceOnUse"
       width="6"
       height="6"
       x="0"
       y="0" />
  </defs>
  <g
     inkscape:label="Layer 1"
     inkscape:groupmode="layer"
     id="layer1"
     transform="translate(82.114583,-44.260056)">
    <path
       style="fill:#000000;stroke-width:0.254423"
       d="m -51.874604,233.94424 c -3.13523,-1.12008 -3.58129,-1.83492 -3.78744,-6.0696 -0.0903,-1.85473 -0.1828,-3.12281 -0.2056,-2.81796 -0.19562,2.61692 -6.48953,1.07916 -7.995914,-1.9536 -0.834623,-1.68034 -0.780111,-13.2815 0.07149,-15.20662 1.065445,-2.40861 1.141769,-4.25173 0.397517,-9.5996 -2.53319,-18.20254 -2.652853,-20.7969 -1.186819,-25.73099 0.463754,-1.56083 0.463754,-1.56083 -0.647484,-1.68608 -1.66677,-0.18787 -7.951455,0.56944 -7.954384,-1.53057 -0.0077,-5.25899 4.836965,-18.36031 3.788197,-23.43259 -0.674902,-3.26413 -1.0724,-8.12367 -0.973329,-11.89926 0.0844,-3.21805 0.0844,-3.21805 -0.717323,-3.08747 -2.624068,0.42741 -3.603592,-1.85016 -2.285455,-5.31413 0.83944,-2.206 0.83944,-2.206 0.26276,-2.51463 -1.545231,-0.82698 -1.315025,-1.9001 1.349372,-6.29036 1.123829,-1.85177 1.123829,-1.85177 -0.24563,-3.4347 -5.52105,-6.38168 -10.109937,-13.30771 -10.109937,-15.258978 0,-1.01642 3.370746,-7.40561 8.355118,-15.836984 3.018559,-5.10608 3.245489,-5.275062 8.691207,-6.472065 5.889474,-1.29454 6.462774,-1.723582 6.773714,-5.069224 0.20347,-2.189247 -0.31388,-3.519783 -1.418665,-3.648528 -0.486241,-0.05666 -0.66759,-0.24256 -0.725715,-0.743894 -0.15363,-1.325164 -0.985999,-1.758555 -2.853068,-1.485516 -1.662751,0.24316 -10.037237,0.358558 -10.703642,0.147491 -0.197477,-0.06255 -0.681338,-0.184573 -1.075233,-0.271171 -1.485921,-0.326684 -0.805989,-1.186742 1.627711,-2.058938 3.547105,-1.271217 9.003894,-4.685086 8.72543,-5.45879 -3.756734,-10.437902 9.927582,-17.956162 16.245942,-8.925638 0.43044,0.615212 0.43044,0.615212 3.17518,-0.311683 8.07547,-2.72707 10.50464,-2.670761 10.50464,0.243502 0,3.142386 -5.28131,8.746954 -10.1382,10.758746 -0.82838,0.343124 -0.82838,0.343124 -0.65465,3.31326 0.26085,4.459553 -1.52603,9.247421 -3.72477,9.980332 -0.54345,0.181152 -0.0558,1.364215 0.70909,1.720182 1.28158,0.596443 4.22909,1.548284 6.81191,2.199774 4.49986,1.135041 4.95013,1.526908 9.9121,8.626388 1.66262,2.378856 4.19773,5.870806 5.63357,7.759886 4.246,5.58634 4.23893,5.83075 -0.3508,12.124878 -8.64768,11.859 -8.50519,11.5749 -7.12622,14.20788 1.61148,3.07693 1.58312,3.61026 -0.24381,4.58606 -0.0342,0.0183 0.2806,1.04759 0.69966,2.28733 1.28644,3.80579 0.6668,5.36237 -2.0579,5.16959 -1.2031,-0.0852 -1.2031,-0.0852 -1.06469,2.23041 0.18756,3.13753 -0.33401,9.08722 -1.20211,13.7131 -1.08117,5.76123 -1.36399,8.44568 -2.0356,19.32061 -0.28263,4.57632 -0.21922,4.42726 -1.97159,4.63481 -1.47506,0.17469 -1.30319,-0.76217 -1.81305,9.8828 -0.24672,5.15119 -1.64124,15.04113 -3.19284,22.64361 -1.68045,8.23386 -1.95382,13.92971 -0.94635,19.71777 1.01829,5.85013 1.02714,8.37212 0.0333,9.50397 -1.44569,1.64654 -2.5477,1.98455 -4.35973,1.33719 z m 3.28585,-1.22663 c 1.37825,-1.26964 1.37981,-4.1778 0.006,-11.14107 -0.73896,-3.74531 -0.15027,-12.82752 1.18734,-18.31843 0.43075,-1.76827 2.35648,-13.32485 2.92529,-17.55517 0.14112,-1.04949 0.37853,-4.82767 0.52758,-8.39595 0.31506,-7.54294 0.23469,-7.12383 1.36616,-7.12383 2.1448,0 2.04058,0.28482 2.38753,-6.52439 0.32006,-6.28144 1.07665,-13.49538 1.71725,-16.37365 1.58458,-7.11968 1.75629,-16.70099 0.4163,-23.22988 -0.52197,-2.5432 -0.46754,-2.6782 0.73902,-1.83287 2.4635,1.72595 2.72137,1.15685 1.12224,-2.47672 -0.70627,-1.60479 -1.03928,-2.64391 -0.86583,-2.70172 0.56069,-0.1869 1.94556,-1.56473 2.64613,-2.63267 2.05503,-3.13267 3.53779,-5.25876 6.04844,-8.6727 3.89891,-5.30169 4.61272,-6.553768 4.44581,-7.798218 -0.14121,-1.05282 -0.3316,-1.35063 -3.77199,-5.90013 -1.20229,-1.58987 -3.58725,-4.89426 -5.29991,-7.343077 -4.25274,-6.080677 -5.19537,-6.9427 -8.30149,-7.591593 -3.97457,-0.830318 -8.04914,-2.331773 -8.64796,-3.18673 -0.5736,-0.818916 -0.49474,-2.451658 0.11839,-2.451658 1.66378,0 4.16956,-6.066674 3.62525,-8.776981 -0.48147,-2.397453 -0.39825,-3.617884 0.27427,-4.02191 0.31484,-0.189151 1.53967,-0.907354 2.72183,-1.596007 5.0058,-2.91606 9.06821,-8.532536 7.25815,-10.034748 -2.14468,-1.779928 -22.95538,6.396399 -28.107601,11.043209 -2.109126,1.902233 -6.059289,4.277142 -8.522201,5.123701 -2.462912,0.846561 -2.462912,0.846561 -1.231937,1.054244 1.879806,0.317151 8.096595,0.226048 10.470719,-0.153442 2.224045,-0.355502 3.80899,0.47182 3.50244,1.828241 -0.07679,0.339641 0.06368,0.445239 0.59198,0.445239 1.27316,0 1.90004,1.598869 1.67925,4.282986 -0.32993,4.010863 -0.72556,4.36651 -6.273225,5.639225 -4.987958,1.144309 -5.235255,1.226279 -6.166569,2.043986 -1.460785,1.282582 -11.351836,18.417635 -11.350998,19.664235 9.63e-4,1.74196 5.827569,10.295758 10.532927,15.463468 3.729408,4.09588 3.525948,3.83775 2.680043,3.40032 -0.826433,-0.42738 -1.293896,0.29509 -3.013077,4.65668 -0.647974,1.64392 -0.0048,1.86767 1.630563,0.56767 0.820768,-0.65227 1.399327,-0.94085 1.399327,-0.69799 0,0.0359 -0.11834,0.46525 -0.262973,0.95408 -1.576032,5.3268 -1.570761,19.74078 0.0087,24.80455 0.60434,1.93706 -2.793845,12.48602 -3.889378,20.82411 -0.454804,3.46151 5.984423,1.92456 7.162839,2.08184 2.140995,0.28575 2.034505,-0.0608 1.081273,3.51883 -0.990921,3.72116 -0.965757,7.6479 0.09722,15.17332 2.173464,15.38708 2.225298,16.2854 1.086265,18.82728 -0.572643,1.27792 -1.104416,10.0416 -0.799399,13.17393 0.26381,2.70906 2.311651,4.53223 5.426972,4.83157 1.47318,0.14155 1.68865,-0.12141 1.95476,-2.38566 0.12591,-1.07128 0.22784,-1.34214 0.36912,-0.98083 0.19228,0.49172 0.19577,0.49157 0.23493,-0.01 0.0681,-0.8719 0.42845,0.64388 0.62987,2.64957 0.0997,0.99266 0.28408,1.86838 0.40975,1.94605 0.12568,0.0777 0.22675,0.27758 0.22461,0.44423 -0.002,0.18207 -0.10233,0.15069 -0.25053,-0.0786 -0.39817,-0.61614 -0.30913,2.93846 0.098,3.91294 0.86472,2.06958 4.41699,3.04318 5.95018,1.63083 z m -8.17851,-19.72783 c -0.0797,-0.80461 -0.21249,-2.66508 -0.29512,-4.13437 -0.0827,-1.4693 -0.3259,-3.66848 -0.54063,-4.88708 -0.43568,-2.47252 -0.35794,-3.55714 0.79861,-11.14155 0.90833,-5.95673 1.5574,-11.03531 1.91847,-15.01094 0.28289,-3.11469 0.69679,-5.10297 0.76797,-3.68913 0.0256,0.50884 0.0256,0.50884 0.26586,0 0.16544,-0.35041 0.19858,0.006 0.10645,1.1449 -0.37034,4.57785 -0.41858,8.79625 -0.15905,13.90753 0.40479,7.97167 0.65054,19.84017 0.43982,21.24107 -0.16931,1.1257 -0.93029,2.40852 -1.24314,2.09566 -0.0806,-0.0806 -0.44255,0.32216 -0.80424,0.89511 -0.87511,1.38625 -1.0829,1.31652 -1.255,-0.4212 z m 2.65966,-3.35587 c 0.22308,-1.04023 0.22596,-2.60423 0.0117,-6.35831 -0.15629,-2.73831 -0.37059,-8.3562 -0.47621,-12.48421 -0.10563,-4.128 -0.2272,-6.99026 -0.27014,-6.36056 -0.043,0.6297 -0.4181,3.32021 -0.83367,5.97893 -1.51766,9.70974 -1.55007,10.30644 -0.89828,16.53748 0.62668,5.99105 0.50599,5.58676 1.41895,4.7529 0.52627,-0.48068 0.84053,-1.10047 1.04765,-2.06623 z m 15.01932,-90.55209 c -0.65368,-2.15209 -0.66914,-2.583 -0.0925,-2.57795 0.36414,0.003 0.37901,0.0458 0.0816,0.23398 -0.30975,0.19602 -0.28151,0.5031 0.19075,2.07396 0.30487,1.01413 0.51012,1.88808 0.45607,1.94212 -0.054,0.0541 -0.34023,-0.69841 -0.63598,-1.67211 z m -29.267781,1.17088 c 0.02592,-0.41837 0.952693,-2.92601 0.978253,-2.64699 0.02948,0.32227 -0.762692,2.96502 -0.888816,2.96502 -0.06002,0 -0.100285,-0.14311 -0.08941,-0.31803 z m 0.955699,-7.81979 c -1.42453,-1.17422 -5.236024,-7.87449 -6.700643,-11.77913 -0.713296,-1.901638 0.06677,-3.636128 4.476376,-9.953718 2.083122,-2.98443 2.451004,-3.16093 2.963807,-1.42191 2.10008,7.12182 3.672827,14.847448 3.366326,16.536068 -0.251709,1.38675 -2.283694,7.462 -2.442646,7.30305 -0.06217,-0.0621 0.177381,-0.97816 0.532333,-2.03555 1.058975,-3.15462 0.825301,-3.26411 -0.761277,-0.35668 -0.906867,1.66184 -0.925462,1.74484 -0.468519,2.0909 0.261713,0.19819 0.358812,0.36399 0.215779,0.36845 -0.143029,0.005 -0.674726,-0.33372 -1.181536,-0.75148 z m 1.964919,-4.58331 c 1.987355,-2.48714 1.97008,-2.90577 -0.524883,-12.721138 -1.433918,-5.64111 -1.421037,-5.5973 -1.644999,-5.5973 -0.450979,0 -5.393268,7.6211 -5.860616,9.03718 -0.386283,1.17043 1.382476,5.288148 4.392779,10.226498 1.274107,2.09015 1.274107,2.09015 1.795196,1.39933 0.286596,-0.37995 1.115734,-1.43501 1.842523,-2.34457 z m 26.555233,4.26158 c -0.30037,-0.31485 -0.83715,-1.03042 -1.19285,-1.59014 -0.78027,-1.22787 -1.00232,-1.3904 -1.90637,-1.39543 -0.49675,-0.003 -0.69853,-0.13303 -0.69577,-0.44914 0.003,-0.37343 0.0421,-0.38488 0.24059,-0.071 0.13018,0.20584 0.31166,0.2993 0.40328,0.20768 0.0916,-0.0916 -0.21699,-0.64426 -0.68583,-1.22809 -1.42492,-1.77445 -0.71101,-6.75369 2.46999,-17.227048 0.88754,-2.92223 0.79518,-2.98062 7.1431,4.516 3.71532,4.38764 3.76135,3.87534 -1.09262,12.161158 -3.68536,6.29098 -3.60621,6.2052 -4.68352,5.07598 z m 3.33948,-4.4524 c 5.37661,-9.031568 5.31883,-8.082498 0.81235,-13.342808 -1.92407,-2.24593 -3.68724,-4.32067 -3.91813,-4.61054 -0.49379,-0.61989 -0.78913,0.21957 -2.51824,7.15759 -2.18554,8.769518 -2.18645,8.617308 0.0663,11.128588 0.87982,0.98083 1.88592,2.20801 2.23575,2.72709 0.84927,1.26013 0.63002,1.46208 3.32202,-3.05992 z m 1.80374,22.07301 c 0.85549,-0.8555 0.86897,-0.69046 -0.33776,-4.13621 -0.74167,-2.11778 -0.8161,-2.2262 -1.52843,-2.2262 -0.78147,0 -1.70753,-0.38601 -2.07506,-0.86496 -0.12792,-0.1667 -0.15193,-0.0869 -0.0594,0.19722 0.26566,0.81534 0.91003,4.76375 0.91368,5.5987 0.005,1.19643 0.25604,1.89868 0.72231,2.02252 1.04652,0.27797 1.6452,0.12832 2.3646,-0.59107 z m -36.762369,0.31229 c 0.161386,-0.10281 0.423887,-1.27985 0.583337,-2.61565 0.15944,-1.3358 0.440988,-3.0787 0.625661,-3.87312 0.33576,-1.4444 0.33576,-1.4444 -0.412046,-0.81516 -0.411285,0.34608 -1.057102,0.62923 -1.435138,0.62923 -0.660355,0 -2.343965,3.66634 -2.330265,5.07454 0.0105,1.08014 2.054816,2.18215 2.968451,1.60016 z m 36.741789,-7.44692 c 0.81675,-0.43711 -0.83673,-5.15463 -1.92787,-5.5004 -0.96142,-0.30465 -0.93709,0.41026 0.096,2.81857 0.57858,1.34887 1.05196,2.56335 1.05196,2.69885 0,0.31415 0.16805,0.31049 0.78,-0.0171 z m -36.989086,-3.26459 c 1.144129,-2.58499 1.328118,-3.1923 1.063662,-3.51095 -0.401169,-0.48338 -0.509643,-0.34741 -2.398486,3.00624 -1.532388,2.72077 -1.556493,2.8049 -0.971596,3.3898 0.654998,0.655 0.84445,0.41802 2.30642,-2.88509 z m 10.713787,-64.468479 c 2.185659,-1.298667 8.621729,-4.451369 10.293549,-5.042282 1.02028,-0.360623 1.20258,-0.664464 0.54914,-0.915214 -1.96461,-0.753895 -15.346919,6.225538 -14.937647,7.790608 0.141973,0.542921 -0.04413,0.626234 4.094958,-1.833112 z m -1.006019,-1.588499 c 3.007748,-1.930172 9.513818,-4.70648 11.029268,-4.70648 1.20078,0 -0.81231,-1.852644 -3.20174,-2.94656 -5.47095,-2.504682 -12.149512,2.821547 -11.229635,8.955753 0.175723,1.171765 0.175723,1.171765 0.85551,0.53352 0.373884,-0.351034 1.519853,-1.177339 2.546597,-1.836233 z"
       id="path1372"
       sodipodi:nodetypes="cscsssssssssssssssssssssssssssssssssssssscssssssssscssssssssssssssssssssssssssscsssssssssssssssssssssssscssccssssssscsssssscssssssscssssccsssssssssssssscsscsssssccccsssssscccsssssccssssscsssscssssscsssccsssssssssssssssss" />
  </g>
</svg>
