<?xml version="1.0" standalone="no"?>
<!DOCTYPE svg PUBLIC "-//W3C//DTD SVG 20010904//EN"
 "http://www.w3.org/TR/2001/REC-SVG-20010904/DTD/svg10.dtd">
<svg version="1.0" xmlns="http://www.w3.org/2000/svg"
 width="610.000000pt" height="980.000000pt" viewBox="0 0 610.000000 980.000000"
 preserveAspectRatio="xMidYMid meet">

<g transform="translate(0.000000,980.000000) scale(0.100000,-0.100000)"
fill="#000000" stroke="none">
<path d="M3000 9794 c-235 -46 -409 -223 -442 -451 -12 -80 -5 -137 28 -250 5
-20 3 -23 -22 -23 -16 0 -83 -9 -149 -20 -759 -128 -1373 -419 -1785 -846
-323 -335 -508 -719 -592 -1231 l-23 -138 -2 -3184 c-3 -2898 -2 -3190 13
-3240 51 -179 188 -317 374 -377 52 -16 211 -18 2624 -26 2829 -9 2638 -12
2774 54 133 64 252 215 282 358 8 41 10 859 7 3250 -4 3491 1 3205 -58 3485
-69 331 -236 673 -451 930 -403 480 -1045 816 -1818 950 -85 15 -160 28 -166
30 -8 2 -6 20 7 58 58 171 16 361 -111 500 -99 109 -225 166 -375 172 -49 2
-101 1 -115 -1z m-1253 -1110 c2 -7 -67 -59 -154 -117 -191 -127 -296 -210
-423 -337 -325 -322 -508 -678 -587 -1140 -16 -99 -18 -283 -23 -3032 l-5
-2927 -21 -28 c-33 -45 -79 -63 -164 -63 -93 0 -154 27 -182 80 -18 34 -18
133 -15 2860 l3 2825 22 138 c42 255 97 436 197 645 199 415 549 752 1020 982
238 117 322 145 332 114z m2726 -20 c134 -53 366 -173 487 -252 493 -322 801
-771 914 -1333 52 -255 50 -114 53 -3114 3 -2724 3 -2821 -15 -2854 -32 -59
-70 -72 -199 -69 -108 3 -113 4 -142 32 l-30 29 -4 2931 c-3 3090 -1 2962 -48
3190 -61 295 -214 606 -414 846 -82 98 -249 260 -350 340 -44 35 -141 103
-215 151 -177 115 -175 114 -166 127 11 18 29 15 129 -24z m-1659 -116 c22
-31 20 -56 -14 -284 -37 -248 -76 -600 -89 -808 -7 -106 -11 -1189 -11 -3230
0 -2904 -1 -3073 -18 -3106 -27 -54 -74 -80 -144 -80 -75 0 -122 20 -148 62
-20 33 -20 42 -20 2878 0 1785 4 2901 10 2995 40 598 142 1085 306 1459 57
131 94 163 128 114z m548 -7 c34 -40 139 -310 188 -481 71 -253 118 -507 157
-860 16 -143 17 -391 20 -3123 2 -2063 0 -2973 -7 -2987 -21 -39 -66 -52 -161
-48 -85 3 -90 4 -121 36 l-33 32 -5 3193 c-5 2922 -7 3205 -23 3347 -28 255
-57 474 -88 678 -28 179 -29 196 -14 218 21 33 57 31 87 -5z m-851 9 c27 -15
24 -35 -25 -162 -152 -387 -247 -901 -276 -1493 -6 -121 -10 -1300 -10 -2997
l0 -2797 -24 -28 c-23 -26 -30 -28 -114 -31 -100 -4 -148 11 -157 51 -3 12 -4
1395 -3 3072 l4 3050 21 135 c52 328 121 551 244 790 68 130 168 276 249 362
60 62 61 63 91 48z m1182 -62 c82 -88 195 -260 266 -408 141 -291 218 -623
241 -1038 6 -108 10 -1294 10 -3042 0 -2708 -1 -2867 -18 -2900 -9 -19 -28
-40 -42 -47 -32 -16 -161 -17 -195 -1 -59 27 -55 -179 -55 2855 0 1688 -4
2867 -10 2988 -30 602 -125 1116 -280 1507 -40 100 -42 128 -8 141 26 11 34 6
91 -55z m-1495 31 c1 -8 -31 -65 -73 -128 -194 -295 -309 -628 -372 -1086 -15
-109 -17 -396 -22 -3145 l-6 -3025 -23 -32 c-36 -51 -89 -65 -230 -61 -132 3
-159 13 -194 74 -16 27 -17 185 -23 2159 -3 1201 -2 2490 4 2955 8 759 11 833
29 932 87 458 273 809 604 1134 124 123 275 247 292 241 6 -2 12 -10 14 -18z
m1818 -50 c116 -93 288 -262 373 -369 239 -299 380 -633 438 -1037 17 -122 18
-275 17 -3038 -1 -2221 -4 -2916 -13 -2933 -25 -46 -59 -54 -237 -50 l-164 3
-27 28 -28 27 -6 3043 c-5 3279 -2 3089 -54 3367 -63 336 -195 672 -359 910
-49 71 -63 97 -54 107 6 7 14 13 17 13 4 0 48 -32 97 -71z m344 -1 c598 -372
937 -879 1000 -1497 13 -138 14 -5829 0 -5865 -18 -49 -64 -66 -173 -66 -111
0 -148 13 -166 57 -8 21 -12 800 -14 2963 l-3 2935 -22 136 c-66 402 -215 743
-461 1054 -30 39 -113 129 -183 201 -100 102 -125 133 -116 142 16 16 18 15
138 -60z m-2487 48 c3 -8 -33 -51 -90 -107 -326 -323 -545 -708 -633 -1114
-58 -267 -54 -51 -60 -3237 l-5 -2927 -21 -28 c-68 -93 -264 -82 -316 17 -17
33 -18 146 -18 2886 0 1875 4 2887 10 2955 62 626 390 1119 1001 1508 96 62
123 71 132 47z m1216 -14 c19 -36 92 -561 128 -927 17 -168 18 -381 18 -3315
0 -3119 0 -3135 -20 -3162 -32 -43 -76 -58 -169 -58 -96 0 -138 20 -169 80
-16 33 -17 190 -14 3155 3 2850 5 3135 20 3290 35 350 108 887 127 933 12 28
64 31 79 4z"/>
</g>
</svg>
