<?xml version="1.0" encoding="UTF-8" standalone="no"?>
<svg
   id="Layer_1"
   data-name="Layer 1"
   viewBox="0 0 988.12 922.64"
   version="1.1"
   sodipodi:docname="fruit_shop.svg"
   inkscape:version="1.1.1 (c3084ef, 2021-09-22)"
   xmlns:inkscape="http://www.inkscape.org/namespaces/inkscape"
   xmlns:sodipodi="http://sodipodi.sourceforge.net/DTD/sodipodi-0.dtd"
   xmlns="http://www.w3.org/2000/svg"
   xmlns:svg="http://www.w3.org/2000/svg"
   xmlns:rdf="http://www.w3.org/1999/02/22-rdf-syntax-ns#"
   xmlns:cc="http://creativecommons.org/ns#"
   xmlns:dc="http://purl.org/dc/elements/1.1/">
  <sodipodi:namedview
     id="namedview1419"
     pagecolor="#505050"
     bordercolor="#eeeeee"
     borderopacity="1"
     inkscape:pageshadow="0"
     inkscape:pageopacity="0"
     inkscape:pagecheckerboard="0"
     showgrid="false"
     inkscape:zoom="0.42299136"
     inkscape:cx="297.87843"
     inkscape:cy="457.45615"
     inkscape:window-width="1512"
     inkscape:window-height="837"
     inkscape:window-x="0"
     inkscape:window-y="38"
     inkscape:window-maximized="1"
     inkscape:current-layer="Layer_1" />
  <defs
     id="defs826">
    <style
       id="style824">.cls-1{fill:#6d5844;}.cls-2{fill:#514336;}.cls-3{fill:#8571a5;}.cls-4{fill:#736391;}.cls-5{fill:#fcee21;}.cls-6{fill:none;stroke:#9e7f51;stroke-width:6.48px;}.cls-17,.cls-19,.cls-6{stroke-miterlimit:10;}.cls-7{fill:#f7931e;}.cls-8{fill:#bf7217;}.cls-9{fill:#f78f16;}.cls-10{fill:#f78c0f;}.cls-11{fill:#f7ab1e;}.cls-12{fill:#ff7800;}.cls-13{fill:#ff6200;}.cls-14{fill:#ff9109;}.cls-15{fill:#ffb120;}.cls-16{fill:#e85100;}.cls-17{fill:#009047;stroke:#006837;stroke-width:0.34px;}.cls-18{fill:#006322;}.cls-19{fill:#aed3e2;stroke:#29abe2;stroke-width:3px;}.cls-20{font-size:110px;fill:#ed1e79;font-family:ArialMT, Arial;}</style>
  </defs>
  <title
     id="title828">լադեն-02</title>
  <metadata
     id="metadata2282">
    <rdf:RDF>
      <cc:Work
         rdf:about="">
        <dc:title>լադեն-02</dc:title>
      </cc:Work>
    </rdf:RDF>
  </metadata>
  <g
     id="g1337"
     transform="translate(0,-60)">
    <rect
       class="cls-1"
       x="23.894476"
       y="769.7251"
       width="931.51813"
       height="154"
       id="rect830-0"
       style="fill:#6d5844;stroke-width:1.09775" />
    <rect
       class="cls-2"
       x="23.894476"
       y="598.7251"
       width="921.62805"
       height="171"
       id="rect832-4"
       style="fill:#514336;stroke-width:1.09617" />
    <rect
       class="cls-1"
       x="23.894476"
       y="297.7251"
       width="21"
       height="496"
       id="rect834-6"
       style="fill:#6d5844" />
    <rect
       class="cls-1"
       x="933.41266"
       y="267.7251"
       width="22"
       height="502"
       id="rect836-0"
       style="fill:#6d5844" />
    <path
       class="cls-3"
       d="m 957.2002,236.74198 -957.3057,-6 q 30.2429,-40.5 60.4859,-81 h 857.2713 q 19.7859,43.5 39.5485,87 z"
       id="path838-3"
       style="fill:#8571a5;stroke-width:1.07851" />
    <path
       class="cls-4"
       d="m 849.8945,282.72508 c -3.87,11.26 -9.5944,27.56648 -38.1907,33.35051 -47.2784,2.69089 -58.5893,-43.78051 -101.3593,-47.35051 -27.7229,6.22879 -59,49.71 -107,47 -42.76,-2.42 -48.79,-45.93 -90.79,-46 -41.55,-0.07 -47.84,42.51 -91.68,45 -45.17,2.56 -53.34,-41.8 -98.87,-40 -46.94,1.85 -58.21,49.78 -99.77,43 -29.42,-4.8 -32.23,-30.2 -64.72,-32 -10.5,-0.58 -28.12,6.27 -62.92,20 -40.79,16.09 -47.89,21.08 -61.12,19 -14.64,-2.31 -30.65,-12.33 -46.74,-37 l 13.12,-58 870.9429,6 z"
       id="path840-2"
       sodipodi:nodetypes="ccccccccccccccc"
       style="fill:#736391" />
    <path
       class="cls-5"
       d="m 164.8945,216.72508 a 417.39,417.39 0 0 1 -7,50 c -3.67,18.14 -5.87,22.61 -8,26 -13.28,21.13 -39.56,24.7 -42,25 a 62.67,62.67 0 0 1 -55,-22 c -26,-31.74 -5,-76.92 -4,-79 1.42,-2.92 2.41,-4.47 26,-36 9.9,-13.23 18.17,-24.24 24,-32 h 104 z"
       id="path842-6"
       style="fill:#fcee21" />
    <path
       class="cls-5"
       d="m 360.8945,216.72508 a 123.49,123.49 0 0 1 5,27 c 1,14.2 2.15,26.63 -4,40 a 58,58 0 0 1 -21,24 c -17.06,10.92 -43.27,14.48 -63,1 -17.39,-11.9 -21.45,-31.37 -23,-39 -4.05,-20 1.64,-36.35 5,-46 5.5,-15.76 10.64,-18.78 21,-40 a 253.23,253.23 0 0 0 14,-35 h 72 z"
       id="path844-9"
       style="fill:#fcee21" />
    <path
       class="cls-5"
       d="m 465.5495,217.51638 a 116.89,116.89 0 0 0 -5.34,27 c -1.09,14.2 -2.29,26.63 4.27,40 7,14.28 18.94,21.92 22.41,24 18.2,10.92 46.17,14.48 67.22,1 18.56,-11.89999 22.89,-31.37 24.54,-39 4.32,-20 -1.75,-36.35 -5.34,-46 -5.85,-15.76 -11.34,-18.78 -22.4,-40 a 244.53,244.53 0 0 1 -14.94,-35 h -76.83 q 3.21,33.99 6.41,68 z"
       id="path846-7-4"
       style="fill:#fcee21" />
    <path
       class="cls-5"
       d="m 851.867,218.6379 a 116.89,116.89 0 0 0 -5.34,27 c -1.09,14.2 -2.29,26.63 4.27,40 7,14.28 18.94,21.92 22.41,24 18.2,10.92 46.17,14.48 67.22,1 18.56,-11.9 22.89,-31.37 24.54,-39 4.32,-20 -1.75,-36.35 -5.34,-46 -5.85,-15.76 -11.34,-18.78 -22.4,-40 a 244.53,244.53 0 0 1 -14.94,-35 h -76.83 q 3.21,33.99 6.41,68 z"
       id="path846-6-1"
       style="fill:#fcee21" />
    <rect
       class="cls-1"
       x="33.894474"
       y="576.7251"
       width="906.45312"
       height="33"
       id="rect850-3"
       style="fill:#6d5844;stroke-width:1.09864" />
    <rect
       class="cls-1"
       x="33.894474"
       y="598.7251"
       width="12"
       height="171"
       id="rect852-7"
       style="fill:#6d5844" />
    <rect
       class="cls-1"
       x="784.89447"
       y="598.7251"
       width="12"
       height="171"
       id="rect854-8"
       style="fill:#6d5844" />
    <rect
       class="cls-1"
       x="633.89447"
       y="598.7251"
       width="12"
       height="171"
       id="rect856-8"
       style="fill:#6d5844" />
    <rect
       class="cls-1"
       x="482.89447"
       y="598.7251"
       width="12"
       height="171"
       id="rect858-3"
       style="fill:#6d5844" />
    <rect
       class="cls-1"
       x="334.89447"
       y="598.7251"
       width="12"
       height="171"
       id="rect860-8"
       style="fill:#6d5844" />
    <rect
       class="cls-1"
       x="183.89447"
       y="598.7251"
       width="12"
       height="171"
       id="rect862-1"
       style="fill:#6d5844" />
    <path
       class="cls-5"
       d="m 663.9602,217.62376 c 1.68,8.53 3.93,21.3 5.59,37 2.43,22.88 1.27,29.8 7,38 8.82,12.62 24.91,15.31 35,17 6.39,1.07 38.15,6.38 55,-13 5.89,-6.76 7.58,-13.8 10.51,-26 a 100,100 0 0 0 1.49,-43 c -3,-15.49 -9,-25.41 -21,-45 a 312,312 0 0 0 -23.17,-33 h -96.83 q 13.2,33.99 26.41,68 z"
       id="path848-3"
       style="fill:#fcee21" />
    <rect
       class="cls-6"
       x="58.511696"
       y="798.26599"
       width="863.56061"
       height="106.27861"
       id="rect864-5"
       style="fill:none;stroke:#9e7f51;stroke-width:6.48px;stroke-miterlimit:10" />
  </g>
</svg>
