<?xml version="1.0" encoding="UTF-8" standalone="no"?>
<!-- Created with Inkscape (http://www.inkscape.org/) -->

<svg
   width="210mm"
   height="297mm"
   viewBox="0 0 210 297"
   version="1.1"
   id="svg5"
   inkscape:version="1.1.1 (c3084ef, 2021-09-22)"
   sodipodi:docname="house.svg"
   xmlns:inkscape="http://www.inkscape.org/namespaces/inkscape"
   xmlns:sodipodi="http://sodipodi.sourceforge.net/DTD/sodipodi-0.dtd"
   xmlns="http://www.w3.org/2000/svg"
   xmlns:svg="http://www.w3.org/2000/svg">
  <sodipodi:namedview
     id="namedview7"
     pagecolor="#505050"
     bordercolor="#eeeeee"
     borderopacity="1"
     inkscape:pageshadow="0"
     inkscape:pageopacity="0"
     inkscape:pagecheckerboard="0"
     inkscape:document-units="mm"
     showgrid="false"
     inkscape:zoom="0.30396918"
     inkscape:cx="-62.506336"
     inkscape:cy="695.79422"
     inkscape:window-width="1512"
     inkscape:window-height="835"
     inkscape:window-x="0"
     inkscape:window-y="38"
     inkscape:window-maximized="1"
     inkscape:current-layer="layer1" />
  <defs
     id="defs2" />
  <g
     inkscape:label="Layer 1"
     inkscape:groupmode="layer"
     id="layer1">
    <path
       d="m 144.86349,135.92583 0.68652,-0.0807 -0.0815,-2.7817 c -0.0449,-1.52993 -0.13609,-8.61716 -0.20278,-15.7494 -0.0666,-7.13225 -0.15122,-13.73256 -0.18788,-14.66737 -0.0367,-0.93481 -0.0963,-5.212256 -0.13255,-9.505455 -0.0363,-4.293194 -0.12576,-11.715008 -0.19891,-16.492915 -0.0731,-4.777911 -0.14332,-10.018504 -0.15595,-11.645764 l -0.0229,-2.958654 -46.677477,-0.03164 c -25.672612,-0.01741 -46.69001,-0.01741 -46.705332,0 -0.04444,0.05049 -0.206363,29.237523 -0.290563,52.374618 l -0.07732,21.24565 h 31.098903 c 17.104407,0 31.126119,-0.0439 31.159339,-0.0978 0.0332,-0.0538 0.008,-2.3908 -0.0555,-5.19338 -0.13396,-5.88949 -0.43073,-25.31812 -0.43073,-28.1983 v -1.95145 l 2.07736,0.006 c 5.06711,0.0129 15.45322,0.37366 15.63616,0.54316 0.2051,0.19003 0.3504,8.53657 0.36521,20.98048 0.008,7.33997 0.0438,13.52636 0.0781,13.7475 0.049,0.31713 0.13258,0.41283 0.3952,0.45297 0.5641,0.0862 12.99309,0.0906 13.72261,0.005 z M 158.0609,56.595123 c 0.0905,-0.05752 -1.19863,-0.950596 -3.31368,-2.295749 -1.90394,-1.210882 -3.61354,-2.286963 -3.79913,-2.391292 -0.18558,-0.104328 -0.9171,-0.571729 -1.62558,-1.038674 -0.70851,-0.466945 -1.31931,-0.848991 -1.35733,-0.848991 -0.0381,0 -0.73307,-0.430993 -1.54456,-0.957766 -0.8115,-0.526777 -1.75873,-1.139758 -2.10495,-1.362182 -0.34622,-0.222428 -0.96943,-0.627094 -1.3849,-0.899257 -0.41547,-0.272168 -0.81205,-0.516833 -0.8813,-0.543699 -0.0693,-0.02689 -0.38844,-0.239324 -0.70932,-0.472126 -0.32088,-0.232801 -0.62322,-0.423272 -0.67186,-0.423272 -0.0487,0 -0.32434,-0.15905 -0.61264,-0.353442 -0.28831,-0.194392 -0.87551,-0.590979 -1.30491,-0.8813 -0.42939,-0.290325 -0.83542,-0.527862 -0.90229,-0.527862 -0.0668,0 -0.14044,-0.04697 -0.16352,-0.104391 -0.0231,-0.05742 -0.49521,-0.377614 -1.04917,-0.711556 -0.55396,-0.333942 -1.18251,-0.740203 -1.39678,-0.902808 -0.21427,-0.162605 -0.43413,-0.295645 -0.48857,-0.295645 -0.0544,0 -0.37499,-0.198294 -0.71233,-0.440651 -0.33734,-0.242359 -0.65036,-0.440654 -0.69561,-0.440654 -0.0452,0 -0.25756,-0.133002 -0.47183,-0.295569 C 132.51371,40.137439 130.08233,38.579062 115.54749,29.30509 107.1641,23.956063 99.68821,19.214919 98.441174,18.456419 97.801885,18.067581 97.559691,18.09758 96.74804,18.666144 c -0.391371,0.274152 -2.001269,1.364762 -3.577557,2.423577 -1.576282,1.058815 -2.894301,1.954812 -2.928923,1.991104 -0.03464,0.03631 -0.51619,0.370821 -1.070152,0.743396 -2.525623,1.698646 -5.81425,3.929878 -13.723114,9.310683 -2.495435,1.697775 -5.935561,4.032893 -8.435312,5.725796 -0.96943,0.656525 -3.093993,2.101132 -4.721253,3.210242 -1.627259,1.109108 -4.686631,3.186011 -6.798608,4.615345 -2.111972,1.429336 -4.859747,3.29051 -6.106155,4.135946 -1.246414,0.845435 -3.425452,2.322281 -4.842307,3.281875 -3.398348,2.301595 -3.567848,2.427351 -3.375698,2.504634 0.257841,0.1037 116.728829,0.09013 116.891939,-0.01361 z"
       style="fill:#000000;stroke-width:0.033311"
       id="path66" />
  </g>
</svg>
