<?xml version="1.0" encoding="UTF-8" standalone="no"?>
<svg
   id="Layer_1"
   data-name="Layer 1"
   viewBox="0 0 694.6686 399.46612"
   version="1.1"
   sodipodi:docname="mandarin_store_1.svg"
   width="694.66858"
   height="399.46613"
   inkscape:version="1.1.1 (3bf5ae0d25, 2021-09-20)"
   xmlns:inkscape="http://www.inkscape.org/namespaces/inkscape"
   xmlns:sodipodi="http://sodipodi.sourceforge.net/DTD/sodipodi-0.dtd"
   xmlns="http://www.w3.org/2000/svg"
   xmlns:svg="http://www.w3.org/2000/svg"
   xmlns:rdf="http://www.w3.org/1999/02/22-rdf-syntax-ns#"
   xmlns:cc="http://creativecommons.org/ns#"
   xmlns:dc="http://purl.org/dc/elements/1.1/">
  <sodipodi:namedview
     id="namedview169"
     pagecolor="#ffffff"
     bordercolor="#666666"
     borderopacity="1.0"
     inkscape:pageshadow="2"
     inkscape:pageopacity="0.0"
     inkscape:pagecheckerboard="0"
     showgrid="false"
     fit-margin-top="0"
     fit-margin-left="0"
     fit-margin-right="0"
     fit-margin-bottom="0"
     inkscape:zoom="0.75940284"
     inkscape:cx="356.20093"
     inkscape:cy="185.01379"
     inkscape:window-width="1920"
     inkscape:window-height="1009"
     inkscape:window-x="-8"
     inkscape:window-y="-8"
     inkscape:window-maximized="1"
     inkscape:current-layer="Layer_1" />
  <defs
     id="defs4">
    <rect
       x="556.35822"
       y="341.71588"
       width="115.55132"
       height="45.75964"
       id="rect4700" />
    <style
       id="style2">.cls-1{fill:#ebae44;}.cls-2{fill:#b07949;}.cls-19,.cls-3,.cls-6{fill:#99c45a;}.cls-3,.cls-6{stroke:#589255;}.cls-14,.cls-15,.cls-20,.cls-21,.cls-22,.cls-25,.cls-26,.cls-27,.cls-3,.cls-4,.cls-5,.cls-6,.cls-8{stroke-miterlimit:10;}.cls-3{stroke-width:3px;}.cls-4{fill:#92b6ae;}.cls-4,.cls-8{stroke:#fff;}.cls-4,.cls-6{stroke-width:2px;}.cls-5{fill:#6a978d;stroke:#6a978d;}.cls-7{fill:#d4de4e;}.cls-20,.cls-22,.cls-25,.cls-26,.cls-8{fill:none;}.cls-8{stroke-width:1.94px;}.cls-9{fill:#edf1c6;}.cls-10{fill:#b8bb9a;}.cls-11{fill:#825b3f;}.cls-12{fill:#916543;}.cls-13{fill:#adb091;}.cls-14{fill:#473421;}.cls-14,.cls-15,.cls-21,.cls-22{stroke:#3c5f42;}.cls-14,.cls-15{stroke-width:4px;}.cls-15,.cls-16{fill:#291d11;}.cls-17{fill:#d86a43;}.cls-18{fill:#f6ed54;}.cls-20{stroke:#5f887a;stroke-width:3.35px;}.cls-21{fill:#589255;}.cls-21,.cls-22{stroke-width:0.84px;}.cls-23{fill:#d24a43;}.cls-24{fill:#db7653;}.cls-25{stroke:#d24a43;}.cls-25,.cls-26,.cls-27{stroke-width:1.03px;}.cls-26{stroke:#201600;}.cls-27{fill:#f7ef68;stroke:#4d59a1;}.cls-28{fill:#81589f;}</style>
    <rect
       x="556.35822"
       y="341.71588"
       width="115.55132"
       height="45.75964"
       id="rect4700-2" />
  </defs>
  <title
     id="title6">Untitled-10svg</title>
  <metadata
     id="metadata986">
    <rdf:RDF>
      <cc:Work
         rdf:about="">
        <dc:title>Untitled-10svg</dc:title>
      </cc:Work>
    </rdf:RDF>
  </metadata>
  <path
     class="cls-1"
     d="M 604.79997,397.96612 H 45.360001 c 9.34,-70.63 11.05,-160.8 -14,-259.92 -5.11,-20.17 -10.95,-39.260003 -17.28,-57.240003 H 621.07997 c -2,30.250003 -3.24,49.680003 -3.24,49.680003 v 0 c -20.71997,1.11 -22.71997,2.16 -22.71997,2.16 -12.14,6.28 -6.94,37.71 -4.32,58.32 8.46997,66.68 -4.85,61.35 5.4,149 2.48997,21.65 5.52997,41.09 8.59997,58 z"
     id="path8"
     style="fill:#ebae44" />
  <path
     class="cls-2"
     d="m 13.440001,79.246117 12,-0.48 c 3.47,-0.13 10.35,-0.28 25.44,0.48 22.88,1.16 43.68,3.36 43.68,3.36 0,0 3.36,35.150003 4.8,53.280003 2.449999,30.77 2.429999,51 2.879999,78.24 1.55,93.42 7.2,181 7.2,181 l -70.079999,2.88 v -52.84 l 5.28,-1 c -6.28,-55.83 -9.39,-90 -9.39,-90 -5.6,-61.59 -8.37,-119.81 -8.37,-119.81 z"
     id="path10"
     style="fill:#b07949" />
  <path
     class="cls-3"
     d="m 259.2,397.96612 h -90 l -12.24,-237.6 102.24,-0.72 z"
     id="path12"
     style="fill:#99c45a;stroke:#589255;stroke-width:3px;stroke-miterlimit:10" />
  <path
     class="cls-4"
     d="m 234.72,326.68612 h -46.08 l -5,-144.72 h 54.68 z"
     id="path14"
     style="fill:#92b6ae;stroke:#ffffff;stroke-width:2px;stroke-miterlimit:10" />
  <path
     class="cls-5"
     d="m 235.92,285.81612 -22.8,20.44 -22.8,20.43 h 45.6 z"
     id="path16"
     style="fill:#6a978d;stroke:#6a978d;stroke-miterlimit:10" />
  <path
     class="cls-5"
     d="m 186.79,273.65612 49.13,-36.73 c 0.57,16.08 0.61,17.05 0.61,17.05 v 0 l -49.32,31.67 v 0 c 0,0 -0.16,-4.69 -0.42,-11.99 z"
     id="path18"
     style="fill:#6a978d;stroke:#6a978d;stroke-miterlimit:10" />
  <path
     class="cls-6"
     d="m 240,381.88612 -49.68,-1.92 -5.52,-37.2 58.56,0.48 z"
     id="path20"
     style="fill:#99c45a;stroke:#589255;stroke-width:2px;stroke-miterlimit:10" />
  <circle
     class="cls-7"
     cx="249.00003"
     cy="287.68613"
     r="5.6399999"
     id="circle22"
     style="fill:#d4de4e" />
  <path
     class="cls-8"
     d="m 234.72,326.68612 h -46.08 l -5,-144.72 h 54.68 z"
     id="path24"
     style="fill:none;stroke:#ffffff;stroke-width:1.94px;stroke-miterlimit:10" />
  <path
     class="cls-9"
     d="M 626.39997,84.046117 H 84.240001 v -19.44 H 642.59997 Z"
     id="path26"
     style="fill:#edf1c6" />
  <rect
     class="cls-10"
     x="0"
     y="64.60611"
     width="84.239998"
     height="19.440001"
     id="rect28"
     style="fill:#b8bb9a" />
  <path
     class="cls-2"
     d="m 277.65,397.96612 h -4.46 q -4.12,-126.28 -8.23,-252.6 l 17.28,0.23 z"
     id="path30"
     style="fill:#b07949" />
  <rect
     class="cls-2"
     x="17.130005"
     y="81.206116"
     width="604.51001"
     height="13.42"
     id="rect32"
     style="fill:#b07949" />
  <path
     class="cls-11"
     d="m 56.120001,346.36612 -12.93,0.23 c -2.79,-28.89 -4.45,-52.44 -5.43,-68.15 -4.22,-67.43 -2.54,-95.19 -10.8,-141.48 a 506.71,506.71 0 0 0 -12.4,-53.000003 l 23.2,-2.12 z"
     id="path34"
     style="fill:#825b3f" />
  <rect
     class="cls-9"
     x="13.440002"
     y="124.00612"
     width="611.88"
     height="12.96"
     id="rect36"
     style="fill:#edf1c6" />
  <path
     class="cls-2"
     d="m 578.88,138.04612 q 0.07,4.59 -487.439999,17.28 l 2.16,-18.36 q 485.219999,-3.49 485.279999,1.08 z"
     id="path38"
     style="fill:#b07949" />
  <path
     class="cls-2"
     d="m 112.37,397.96612 -2.18,-0.07 4.08,-243.27 8.44,0.5 q -5.17,121.41 -10.34,242.84 z"
     id="path40"
     style="fill:#b07949" />
  <path
     class="cls-9"
     d="m 158.54,398.22612 -43,1.18 5.4,-315.360003 h 21.6 q 8.01,157.100003 16,314.180003 z"
     id="path42"
     style="fill:#edf1c6" />
  <path
     class="cls-9"
     d="m 319.38,398.22612 -43,1.18 5.4,-315.360003 h 21.6 q 8.02,157.100003 16,314.180003 z"
     id="path44"
     style="fill:#edf1c6" />
  <path
     class="cls-12"
     d="m 106.74,347.56612 -70.379999,-1.08 5.76,-2.28 H 107.64 Z"
     id="path46"
     style="fill:#916543" />
  <rect
     class="cls-13"
     x="116.44998"
     y="344.20615"
     width="39.34"
     height="3.3599999"
     id="rect48"
     style="fill:#adb091" />
  <rect
     class="cls-13"
     x="278.22"
     y="345.88614"
     width="39.34"
     height="3.3599999"
     id="rect50"
     style="fill:#adb091" />
  <path
     class="cls-9"
     d="M 604.79997,397.96612 H 572.4 v -264.24 l 22.72,-1.08 z"
     id="path52"
     style="fill:#edf1c6" />
  <rect
     class="cls-13"
     x="13.440002"
     y="130.4861"
     width="611.88"
     height="6.48"
     id="rect54"
     style="fill:#adb091" />
  <path
     class="cls-13"
     d="m 628.93997,80.996117 v 0 L 8.4960936e-7,78.656117 3.6000008,84.056117 Z"
     id="path56"
     style="fill:#adb091" />
  <rect
     class="cls-13"
     x="568.93005"
     y="347.56613"
     width="39.34"
     height="3.3599999"
     id="rect58"
     style="fill:#adb091" />
  <path
     class="cls-14"
     d="m 529.92,326.68612 h -198 l -15.12,-162 231.84,1.44 z"
     id="path60"
     style="fill:#473421;stroke:#3c5f42;stroke-width:4px;stroke-miterlimit:10" />
  <path
     class="cls-15"
     d="m 529.92,326.92612 -196.8,-1.44 -3.3,-36.88 203.46,6.64 z"
     id="path62"
     style="fill:#291d11;stroke:#3c5f42;stroke-width:4px;stroke-miterlimit:10" />
  <path
     class="cls-16"
     d="m 530.12,303.82612 -196.74,1.62 -3.26,-23.08 201.42,8.82 c -0.42,2.7 -0.79,5.53 -1.08,8.46 q -0.21,2.14 -0.34,4.18 z"
     id="path64"
     style="fill:#291d11" />
  <circle
     class="cls-17"
     cx="351.25003"
     cy="310.58609"
     r="8.21"
     id="circle66"
     style="fill:#d86a43" />
  <circle
     class="cls-17"
     cx="399.55002"
     cy="313.24612"
     r="9.54"
     id="circle68"
     style="fill:#d86a43" />
  <circle
     class="cls-17"
     cx="440.30002"
     cy="302.37613"
     r="9.3000002"
     id="circle70"
     style="fill:#d86a43" />
  <circle
     class="cls-17"
     cx="343.04001"
     cy="290.61612"
     r="8.21"
     id="circle72"
     style="fill:#d86a43" />
  <circle
     class="cls-17"
     cx="505.72"
     cy="310.58609"
     r="8.21"
     id="circle74"
     style="fill:#d86a43" />
  <circle
     class="cls-17"
     cx="383.42001"
     cy="307.04611"
     r="8.21"
     id="circle76"
     style="fill:#d86a43" />
  <circle
     class="cls-17"
     cx="523.33008"
     cy="305.02609"
     r="8.21"
     id="circle78"
     style="fill:#d86a43" />
  <circle
     class="cls-17"
     cx="467.69003"
     cy="305.02609"
     r="8.21"
     id="circle80"
     style="fill:#d86a43" />
  <circle
     class="cls-17"
     cx="346.36002"
     cy="290.61612"
     r="8.21"
     id="circle82"
     style="fill:#d86a43" />
  <circle
     class="cls-17"
     cx="351.25003"
     cy="285.64615"
     r="8.21"
     id="circle84"
     style="fill:#d86a43" />
  <circle
     class="cls-17"
     cx="488.11002"
     cy="310.58609"
     r="8.21"
     id="circle86"
     style="fill:#d86a43" />
  <circle
     class="cls-17"
     cx="363.42001"
     cy="310.58609"
     r="8.21"
     id="circle88"
     style="fill:#d86a43" />
  <circle
     class="cls-17"
     cx="412.05002"
     cy="296.96609"
     r="8.21"
     id="circle90"
     style="fill:#d86a43" />
  <circle
     class="cls-17"
     cx="482.35001"
     cy="296.96609"
     r="8.21"
     id="circle92"
     style="fill:#d86a43" />
  <circle
     class="cls-17"
     cx="403.84"
     cy="285.64615"
     r="8.21"
     id="circle94"
     style="fill:#d86a43" />
  <circle
     class="cls-17"
     cx="450.90005"
     cy="286.71609"
     r="8.21"
     id="circle96"
     style="fill:#d86a43" />
  <circle
     class="cls-17"
     cx="379.20004"
     cy="290.61612"
     r="8.21"
     id="circle98"
     style="fill:#d86a43" />
  <circle
     class="cls-17"
     cx="496.33005"
     cy="290.25613"
     r="8.21"
     id="circle100"
     style="fill:#d86a43" />
  <circle
     class="cls-17"
     cx="440.61002"
     cy="283.63614"
     r="8.21"
     id="circle102"
     style="fill:#d86a43" />
  <circle
     class="cls-17"
     cx="336.73001"
     cy="285.64615"
     r="8.21"
     id="circle104"
     style="fill:#d86a43" />
  <ellipse
     class="cls-17"
     cx="391.64005"
     cy="292.23611"
     rx="8.21"
     ry="6.5900002"
     id="ellipse106"
     style="fill:#d86a43" />
  <circle
     class="cls-17"
     cx="367.34"
     cy="293.07614"
     r="8.21"
     id="circle108"
     style="fill:#d86a43" />
  <circle
     class="cls-17"
     cx="512.75"
     cy="293.32614"
     r="8.21"
     id="circle110"
     style="fill:#d86a43" />
  <path
     class="cls-18"
     d="M 612.71997,217.96612 H 352.12 l -33.88,-52.6 h 229.68 z"
     id="path112"
     style="fill:#f6ed54" />
  <path
     class="cls-13"
     d="m 568.34,181.96612 -236.42,2.88 -6.48,-10.08 h 234 z"
     id="path114"
     style="fill:#adb091" />
  <path
     class="cls-19"
     d="m 597.76,205.83612 -252.88,-0.11 -4.32,-8.64 244.8,1.44 z"
     id="path116"
     style="fill:#99c45a" />
  <line
     class="cls-20"
     x1="650.89001"
     y1="102.7961"
     x2="653.5"
     y2="125.93611"
     id="line118"
     style="fill:none;stroke:#5f887a;stroke-width:3.35px;stroke-miterlimit:10" />
  <line
     class="cls-20"
     x1="674.67004"
     y1="100.31612"
     x2="674.42004"
     y2="125.93611"
     id="line120"
     style="fill:none;stroke:#5f887a;stroke-width:3.35px;stroke-miterlimit:10" />
  <polygon
     class="cls-19"
     points="1005.35,558.03 1005.35,526.51 1031.34,510.76 1057.34,526.51 1057.34,558.03 1031.34,573.78 "
     id="polygon122"
     style="fill:#99c45a"
     transform="translate(-362.88,-397.63388)" />
  <polygon
     class="cls-21"
     points="998.23,563.38 998.23,532 1022.99,516.32 1047.75,532 1047.75,563.38 1022.99,579.07 "
     id="polygon124"
     style="fill:#589255;stroke:#3c5f42;stroke-width:0.84px;stroke-miterlimit:10"
     transform="translate(-362.88,-397.63388)" />
  <line
     class="cls-22"
     x1="694.45996"
     y1="128.87611"
     x2="684.87"
     y2="134.3661"
     id="line126"
     style="fill:none;stroke:#3c5f42;stroke-width:0.84px;stroke-miterlimit:10" />
  <line
     class="cls-22"
     x1="668.45996"
     y1="113.12611"
     x2="660.10999"
     y2="118.68611"
     id="line128"
     style="fill:none;stroke:#3c5f42;stroke-width:0.84px;stroke-miterlimit:10" />
  <line
     class="cls-20"
     x1="590.97998"
     y1="109.06612"
     x2="680.51001"
     y2="99.7061"
     id="line130"
     style="fill:none;stroke:#5f887a;stroke-width:3.35px;stroke-miterlimit:10" />
  <circle
     class="cls-17"
     cx="652.20007"
     cy="150.05611"
     r="11.17"
     id="circle132"
     style="fill:#d86a43" />
  <path
     class="cls-23"
     d="m 652.76997,159.00612 c 1,-3.86 3.24,-8.13 7.32,-9.38 3.15,-1 1.81,-5.92 -1.36,-4.94 -5.85,1.79 -9.4,7.29 -10.9,12.95 -0.85,3.2 4.1,4.56 4.94,1.37 z"
     id="path134"
     style="fill:#d24a43" />
  <ellipse
     class="cls-24"
     cx="663.17004"
     cy="159.64613"
     rx="12.29"
     ry="11.17"
     id="ellipse136"
     style="fill:#db7653" />
  <path
     class="cls-25"
     d="m 648.55997,142.47612 a 3.78,3.78 0 0 0 4.36,-0.46"
     id="path138"
     style="fill:none;stroke:#d24a43;stroke-width:1.03px;stroke-miterlimit:10" />
  <path
     class="cls-26"
     d="m 667.46997,151.93612 a 3,3 0 0 1 1,1.68 h 1.87"
     id="path140"
     style="fill:none;stroke:#201600;stroke-width:1.03px;stroke-miterlimit:10" />
  <line
     class="cls-26"
     x1="168.48001"
     y1="64.60611"
     x2="169.92001"
     y2="30.766117"
     id="line142"
     style="fill:none;stroke:#201600;stroke-width:1.03px;stroke-miterlimit:10" />
  <line
     class="cls-26"
     x1="432.72"
     y1="64.60611"
     x2="431.55002"
     y2="27.886112"
     id="line144"
     style="fill:none;stroke:#201600;stroke-width:1.03px;stroke-miterlimit:10" />
  <path
     class="cls-27"
     d="M 475.2,46.246117 H 158.4 L 149.76,0.52611673 475.2,6.2861167 Z"
     id="path146"
     style="fill:#f7ef68;stroke:#4d59a1;stroke-width:1.03px;stroke-miterlimit:10" />
  <text
     xml:space="preserve"
     id="text4698"
     style="font-style:normal;font-weight:normal;font-size:40px;line-height:1.25;font-family:sans-serif;white-space:pre;shape-inside:url(#rect4700-2);fill:#0000ff;fill-opacity:1;stroke:none"
     transform="translate(-306.91498,-338.37679)"><tspan
       x="556.35742"
       y="378.21001"
       id="tspan8425">ՄԻՐԳ</tspan></text>
</svg>
