<?xml version="1.0" standalone="no"?>
<!DOCTYPE svg PUBLIC "-//W3C//DTD SVG 20010904//EN"
 "http://www.w3.org/TR/2001/REC-SVG-20010904/DTD/svg10.dtd">
<svg version="1.0" xmlns="http://www.w3.org/2000/svg"
 width="892.000000pt" height="1280.000000pt" viewBox="0 0 892.000000 1280.000000"
 preserveAspectRatio="xMidYMid meet">
<metadata>
Created by potrace 1.15, written by Peter Selinger 2001-2017
</metadata>
<g transform="translate(0.000000,1280.000000) scale(0.100000,-0.100000)"
fill="#000000" stroke="none">
<path d="M8470 12787 c-15 -7 -123 -154 -268 -362 -134 -193 -248 -349 -255
-347 -7 2 -19 10 -28 18 -22 20 -30 19 -153 -28 l-111 -42 -80 -95 c-44 -53
-313 -431 -596 -841 -2637 -3811 -3894 -5627 -4988 -7208 -705 -1019 -1314
-1905 -1353 -1970 -289 -478 -465 -990 -518 -1505 -9 -82 -17 -111 -49 -175
-76 -153 -87 -212 -41 -227 30 -9 57 9 160 111 75 73 110 100 165 125 260 117
591 352 859 608 95 91 263 278 361 401 51 63 726 1031 1500 2150 775 1119
1742 2517 2150 3106 l741 1071 0 -111 c-1 -84 4 -120 17 -149 9 -21 21 -37 26
-35 22 7 808 1103 2514 3501 113 159 127 184 127 220 0 54 -36 113 -106 175
l-57 50 46 80 47 81 0 124 0 125 -75 51 c-41 29 -75 54 -75 56 0 3 105 157
233 342 129 186 239 349 246 362 17 31 6 83 -22 108 -26 23 -303 215 -334 232
-28 14 -52 14 -83 -2z m-30 -1662 c0 -3 -453 -676 -1007 -1495 -1001 -1482
-1007 -1491 -1061 -1520 -29 -16 -52 -25 -50 -21 9 23 2103 3041 2110 3041 4
0 8 -2 8 -5z"/>
</g>
</svg>
