<?xml version="1.0" standalone="no"?>
<!DOCTYPE svg PUBLIC "-//W3C//DTD SVG 20010904//EN"
 "http://www.w3.org/TR/2001/REC-SVG-20010904/DTD/svg10.dtd">
<svg version="1.0" xmlns="http://www.w3.org/2000/svg"
 width="1244.000000pt" height="1280.000000pt" viewBox="0 0 1244.000000 1280.000000"
 preserveAspectRatio="xMidYMid meet">
<metadata>
Created by potrace 1.15, written by Peter Selinger 2001-2017
</metadata>
<g transform="translate(0.000000,1280.000000) scale(0.100000,-0.100000)"
fill="#000000" stroke="none">
<path d="M6928 12784 c-117 -28 -201 -90 -239 -177 -29 -66 -35 -191 -45 -912
-9 -661 5 -895 66 -1085 26 -81 141 -317 210 -430 128 -210 311 -466 518 -723
138 -173 175 -252 202 -442 14 -102 12 -417 -5 -675 -8 -124 -19 -308 -25
-410 -14 -249 -47 -389 -107 -460 -33 -40 -48 -47 -123 -59 -135 -22 -276
-110 -464 -290 -149 -142 -209 -186 -266 -196 -61 -10 -92 1 -197 72 -220 148
-506 251 -933 337 -190 38 -314 49 -565 49 -475 0 -990 -73 -1400 -198 -172
-53 -176 -54 -296 -115 -606 -306 -1819 -1412 -2047 -1866 -94 -187 -181 -537
-232 -930 -53 -414 -80 -970 -61 -1239 13 -182 9 -238 -20 -297 -47 -92 -122
-77 -232 47 -80 91 -186 128 -266 95 -25 -10 -37 -31 -84 -143 -79 -187 -107
-290 -107 -392 0 -85 18 -191 46 -277 l16 -48 -88 -82 c-103 -98 -171 -186
-180 -235 -15 -78 41 -169 231 -378 65 -71 157 -172 203 -223 231 -254 663
-535 896 -582 35 -7 84 -9 117 -6 101 12 361 7 480 -9 167 -22 260 -48 388
-111 201 -98 430 -168 701 -213 190 -32 252 -37 980 -86 1177 -78 1363 -88
1655 -88 256 -1 287 1 356 20 104 29 184 71 264 139 172 146 170 206 -21 467
-154 210 -183 290 -126 347 39 39 83 49 257 61 83 5 172 14 198 19 26 6 137
51 245 101 250 115 381 160 488 167 109 6 151 -12 230 -104 129 -150 194 -208
294 -258 123 -63 215 -122 430 -275 365 -261 522 -348 689 -384 85 -18 129
-21 381 -20 357 0 666 32 907 94 295 75 375 251 203 450 -46 54 -156 131 -465
324 -469 293 -556 369 -614 538 -55 158 -29 292 78 410 76 84 147 118 340 161
270 61 391 133 495 293 107 167 152 331 166 620 15 303 49 467 124 594 34 58
66 147 85 234 42 203 65 609 41 736 -15 77 -61 169 -134 268 -94 127 -109 162
-104 236 6 74 34 131 96 197 66 71 103 87 230 99 316 29 802 139 957 216 91
46 241 212 430 475 235 328 233 325 247 371 7 23 12 89 12 147 -1 84 -6 121
-26 182 -49 150 -131 265 -239 339 -121 82 -164 146 -263 392 -81 200 -124
278 -223 409 -48 64 -151 217 -227 340 -289 464 -353 538 -546 637 -245 126
-491 197 -738 211 -152 9 -195 22 -218 68 -10 20 -21 158 -54 682 -17 280
-138 731 -341 1277 -147 396 -341 815 -493 1067 -76 127 -96 150 -151 179 -79
41 -291 17 -433 -50 -97 -45 -128 -136 -143 -408 -11 -225 -16 -259 -38 -286
-53 -65 -165 55 -366 390 -93 155 -166 250 -273 353 -105 101 -213 175 -310
212 -139 53 -306 69 -424 40z"/>
</g>
</svg>
