<?xml version="1.0" standalone="no"?>
<!DOCTYPE svg PUBLIC "-//W3C//DTD SVG 20010904//EN"
 "http://www.w3.org/TR/2001/REC-SVG-20010904/DTD/svg10.dtd">
<svg version="1.0" xmlns="http://www.w3.org/2000/svg"
 width="794.000000pt" height="800.000000pt" viewBox="0 0 794.000000 800.000000"
 preserveAspectRatio="xMidYMid meet">

<g transform="translate(0.000000,800.000000) scale(0.100000,-0.100000)"
fill="#000000" stroke="none">
<path d="M3110 7360 c-258 -41 -452 -81 -690 -143 -130 -34 -399 -121 -455
-147 -11 -5 -51 -21 -90 -36 -38 -15 -90 -36 -115 -46 -25 -11 -65 -29 -90
-40 -487 -214 -953 -555 -1244 -908 -180 -218 -351 -531 -397 -725 -6 -27 -16
-54 -20 -59 -5 -6 -9 -179 -9 -384 0 -402 0 -400 56 -529 8 -17 14 -34 14 -38
0 -13 84 -184 133 -270 93 -164 126 -211 281 -408 210 -268 534 -573 832 -784
l101 -71 16 -119 c21 -146 21 -213 1 -350 -19 -132 -73 -334 -114 -428 -4 -11
-32 -74 -61 -140 -28 -66 -70 -154 -92 -195 -22 -41 -49 -93 -61 -115 -64
-125 -249 -416 -398 -628 l-108 -152 151 -3 152 -3 141 70 c78 38 161 82 186
99 25 16 90 58 145 93 95 60 440 314 475 349 3 3 46 39 95 80 351 291 722 662
897 898 38 50 74 92 81 91 7 0 66 -6 132 -14 66 -8 206 -21 310 -29 105 -9
231 -20 282 -26 139 -15 596 -12 790 5 486 44 755 93 1193 215 132 37 398 132
505 180 11 5 54 23 95 41 404 172 815 445 1106 734 303 302 471 575 588 955
15 49 17 102 14 465 -4 388 -5 414 -25 475 -42 125 -54 156 -113 278 -219 453
-611 843 -1174 1168 -168 97 -388 202 -561 268 -38 15 -79 31 -90 36 -56 26
-325 113 -455 147 -243 63 -441 104 -695 143 -70 11 -1647 11 -1715 0z m1470
-114 c584 -67 988 -163 1465 -349 123 -48 510 -237 585 -286 19 -13 78 -51
130 -85 490 -318 824 -712 988 -1166 64 -176 95 -375 89 -564 -6 -211 -27
-320 -99 -526 -28 -82 -120 -274 -157 -329 -10 -14 -37 -55 -61 -91 -166 -248
-452 -521 -745 -711 -159 -103 -187 -120 -325 -192 -169 -88 -456 -217 -483
-217 -5 0 -23 -7 -40 -15 -37 -17 -246 -86 -332 -110 -118 -33 -211 -57 -275
-71 -36 -8 -92 -20 -125 -28 -331 -77 -928 -134 -1277 -123 -196 7 -527 30
-673 47 -49 6 -153 17 -230 26 -77 8 -152 17 -166 20 -24 5 -29 1 -53 -51 -54
-119 -185 -276 -440 -530 -406 -404 -874 -779 -1230 -984 -75 -44 -209 -111
-221 -111 -12 0 -3 25 24 63 129 185 318 507 413 707 97 203 146 331 202 530
49 177 57 432 21 653 l-18 107 -91 62 c-400 270 -809 675 -1038 1028 -277 426
-362 758 -293 1140 43 240 103 400 228 612 181 306 498 620 852 842 33 20 85
53 115 72 88 56 464 239 590 287 125 48 313 113 425 146 184 55 525 131 656
146 30 4 70 11 89 16 32 7 216 28 440 49 155 15 898 5 1060 -14z"/>
</g>
</svg>
