<?xml version="1.0" standalone="no"?>
<!DOCTYPE svg PUBLIC "-//W3C//DTD SVG 20010904//EN"
 "http://www.w3.org/TR/2001/REC-SVG-20010904/DTD/svg10.dtd">
<svg version="1.0" xmlns="http://www.w3.org/2000/svg"
 width="794.000000pt" height="1123.000000pt" viewBox="0 0 794.000000 1123.000000"
 preserveAspectRatio="xMidYMid meet">

<g transform="translate(0.000000,1123.000000) scale(0.100000,-0.100000)"
fill="#000000" stroke="none">
<path d="M3460 10829 c-1476 -89 -2738 -801 -3159 -1781 -100 -232 -140 -408
-148 -653 -7 -198 5 -322 47 -493 196 -802 948 -1491 2010 -1842 996 -330
2157 -329 3134 1 83 29 158 51 167 51 18 -1 341 -129 554 -220 400 -171 840
-376 1364 -633 212 -104 382 -187 380 -185 -3 3 -68 47 -146 99 -445 297 -794
619 -992 914 -80 120 -155 287 -194 433 -31 114 -37 99 71 188 122 100 311
291 400 402 603 756 601 1678 -5 2435 -692 864 -2062 1369 -3483 1284z m595
-199 c316 -19 638 -68 920 -140 1164 -297 2002 -995 2185 -1820 106 -478 -10
-956 -337 -1392 -127 -169 -366 -399 -567 -544 l-29 -21 27 -123 c49 -231 133
-437 247 -609 27 -41 48 -76 46 -77 -2 -2 -75 28 -163 67 -203 91 -537 230
-728 303 l-148 57 -97 -35 c-579 -210 -1237 -309 -1854 -277 -122 6 -283 18
-357 27 -1333 154 -2415 828 -2745 1709 -80 214 -111 406 -102 634 6 168 24
271 74 426 262 822 1182 1489 2383 1729 396 79 839 110 1245 86z"/>
</g>
</svg>
