<?xml version="1.0" standalone="no"?>
<!DOCTYPE svg PUBLIC "-//W3C//DTD SVG 20010904//EN"
 "http://www.w3.org/TR/2001/REC-SVG-20010904/DTD/svg10.dtd">
<svg version="1.0" xmlns="http://www.w3.org/2000/svg"
 width="794.000000pt" height="1123.000000pt" viewBox="0 0 794.000000 1123.000000"
 preserveAspectRatio="xMidYMid meet">

<g transform="translate(0.000000,1123.000000) scale(0.100000,-0.100000)"
fill="#000000" stroke="none">
<path d="M4213 10969 c-69 -12 -164 -48 -295 -113 -282 -142 -441 -299 -626
-622 -23 -39 -47 -75 -54 -81 -9 -8 -45 -2 -126 18 -279 71 -591 62 -811 -22
-100 -38 -242 -111 -306 -157 -137 -97 -269 -240 -365 -395 l-55 -88 -180 7
c-272 10 -418 -17 -610 -111 -178 -86 -352 -234 -456 -386 -54 -79 -133 -246
-156 -329 -14 -53 -18 -103 -18 -265 0 -231 8 -270 96 -445 158 -315 451 -543
793 -616 40 -9 152 -18 256 -21 l185 -6 19 -96 c42 -220 153 -478 283 -660
223 -312 582 -555 967 -655 169 -44 294 -58 506 -58 169 0 212 4 320 26 219
44 413 118 597 228 58 35 110 62 114 61 5 -2 66 -27 136 -57 149 -64 324 -119
438 -137 111 -18 339 -16 455 5 216 38 442 132 612 253 102 72 250 217 311
303 69 100 162 283 201 400 l35 105 223 6 c207 5 229 8 308 33 171 56 285 132
445 297 70 72 112 125 137 174 82 158 115 324 97 500 -34 336 -192 555 -553
767 -52 31 -54 36 -91 168 -80 293 -269 523 -550 672 -165 86 -304 125 -487
135 -116 6 -118 7 -118 74 0 50 -49 219 -90 314 -158 358 -507 656 -900 764
-68 19 -101 21 -355 20 -154 -1 -303 -5 -332 -10z m714 -138 c59 -21 137 -53
173 -71 247 -123 459 -335 576 -575 50 -104 77 -200 99 -357 8 -61 18 -114 21
-117 3 -3 64 -8 137 -12 73 -4 161 -12 197 -19 372 -68 675 -320 784 -652 13
-42 32 -114 41 -160 l17 -83 104 -54 c239 -123 413 -316 470 -521 9 -31 18
-116 21 -195 6 -172 -9 -253 -68 -375 -36 -72 -59 -102 -153 -196 -119 -118
-217 -187 -326 -227 -114 -43 -186 -51 -393 -44 -121 4 -196 3 -208 -3 -25
-14 -43 -51 -83 -173 -154 -468 -516 -789 -997 -882 -117 -22 -344 -30 -454
-16 -111 15 -274 69 -465 154 l-145 64 -103 -64 c-260 -160 -442 -225 -751
-269 -127 -18 -388 -5 -543 26 -337 69 -620 227 -866 484 -160 168 -258 332
-332 555 -35 104 -90 344 -90 391 0 17 -12 18 -212 17 -238 -2 -330 10 -468
64 -271 105 -512 351 -599 614 -66 198 -65 416 3 595 113 301 354 532 666 637
l85 28 281 0 c212 1 286 4 297 14 9 6 46 61 83 121 129 208 270 343 464 444
150 77 277 115 429 128 203 17 338 -2 634 -89 27 -8 77 52 152 184 96 168 140
226 247 328 153 146 323 250 503 308 113 36 94 35 392 36 l272 1 108 -39z"/>
<path d="M6218 6341 c-120 -39 -212 -120 -272 -240 -33 -65 -36 -78 -36 -159
0 -112 19 -174 74 -249 72 -98 200 -169 337 -188 64 -8 174 11 238 42 73 35
170 133 212 213 33 63 34 69 34 180 0 109 -2 118 -30 169 -63 114 -161 196
-276 232 -79 25 -203 24 -281 0z m302 -132 c201 -107 234 -350 69 -506 -67
-63 -112 -78 -229 -78 -91 0 -111 3 -148 23 -140 75 -212 218 -177 354 16 64
48 120 91 159 75 68 140 90 250 85 69 -3 91 -9 144 -37z"/>
<path d="M6918 5687 c-58 -19 -124 -71 -153 -121 -33 -57 -43 -145 -24 -213
19 -70 104 -153 183 -177 219 -69 423 132 351 345 -35 103 -130 170 -249 175
-39 2 -88 -2 -108 -9z m186 -126 c50 -31 70 -76 64 -145 -4 -45 -11 -63 -33
-86 -70 -73 -192 -69 -258 9 -87 104 7 262 146 247 27 -3 63 -14 81 -25z"/>
<path d="M7377 5276 c-77 -28 -127 -101 -127 -184 0 -116 142 -205 257 -161
34 12 90 64 109 101 67 129 -97 296 -239 244z m112 -132 c38 -31 38 -44 5 -83
-32 -38 -62 -40 -103 -5 -38 32 -39 57 -5 89 34 32 65 32 103 -1z"/>
</g>
</svg>
