<?xml version="1.0" standalone="no"?>
<!DOCTYPE svg PUBLIC "-//W3C//DTD SVG 20010904//EN"
 "http://www.w3.org/TR/2001/REC-SVG-20010904/DTD/svg10.dtd">
<svg version="1.0" xmlns="http://www.w3.org/2000/svg"
 width="794.000000pt" height="1123.000000pt" viewBox="0 0 794.000000 1123.000000"
 preserveAspectRatio="xMidYMid meet">

<g transform="translate(0.000000,1123.000000) scale(0.100000,-0.100000)"
fill="#000000" stroke="none">
<path d="M3730 11185 c-500 -70 -918 -297 -1153 -626 -61 -86 -132 -234 -159
-334 -32 -118 -32 -357 0 -468 12 -42 22 -79 22 -81 0 -3 -27 6 -60 20 -83 34
-214 70 -323 91 -143 26 -429 24 -575 -5 -213 -43 -400 -117 -566 -227 -102
-67 -255 -210 -326 -304 -65 -86 -153 -263 -187 -376 -25 -84 -27 -102 -27
-280 0 -178 2 -196 27 -280 35 -118 123 -292 191 -380 30 -38 52 -73 50 -76
-2 -4 -33 -24 -69 -44 -164 -91 -339 -255 -419 -392 -176 -298 -125 -620 138
-888 281 -285 733 -460 1283 -496 254 -16 565 11 802 72 41 10 78 19 82 19 4
0 28 -39 54 -86 324 -594 1068 -944 1802 -849 678 89 1226 509 1418 1088 18
56 39 138 46 182 7 44 16 84 19 88 4 4 72 1 151 -9 273 -31 612 -10 869 56
489 125 868 398 1022 737 97 214 96 463 -2 679 -103 228 -317 431 -611 578
-81 41 -152 75 -159 78 -7 2 4 35 34 94 67 133 89 223 89 369 0 91 -5 139 -21
198 -82 302 -346 568 -702 708 -235 93 -388 121 -664 124 l-199 1 -17 65 c-24
93 -79 214 -135 300 -63 94 -247 279 -346 346 -233 159 -526 268 -827 307
-149 19 -417 20 -552 1z m650 -294 c528 -92 911 -374 1081 -795 36 -90 37 -91
70 -90 19 1 95 -2 169 -7 527 -36 989 -290 1166 -641 60 -120 79 -205 79 -358
-1 -114 -5 -150 -27 -230 -15 -53 -38 -122 -52 -154 -14 -32 -26 -60 -26 -61
0 -2 17 -9 38 -15 66 -22 195 -93 273 -152 337 -254 450 -672 273 -1008 -101
-192 -261 -334 -507 -450 -244 -115 -521 -176 -907 -200 -96 -6 -217 -10 -269
-8 l-94 3 -14 -70 c-111 -548 -676 -1018 -1364 -1134 -462 -78 -895 12 -1239
258 -106 76 -260 228 -336 332 -51 69 -157 242 -167 272 -2 6 -50 -8 -108 -31
-414 -161 -883 -182 -1265 -56 -108 35 -269 113 -356 171 -132 87 -267 230
-337 357 -97 173 -103 395 -16 573 68 138 168 244 336 358 46 32 86 59 87 61
2 1 -16 31 -41 66 -166 235 -235 445 -224 678 6 139 31 230 93 352 155 299
466 532 864 648 176 51 277 65 485 64 199 0 305 -15 450 -63 33 -11 61 -18 64
-16 2 2 -1 24 -7 48 -56 221 -20 477 95 672 199 339 657 586 1193 645 131 14
407 4 540 -19z"/>
<path d="M5110 4844 c-106 -23 -223 -85 -294 -156 -82 -83 -109 -139 -114
-243 -5 -105 19 -173 91 -252 67 -73 148 -125 250 -160 76 -26 93 -28 237 -28
144 0 161 2 237 28 99 34 182 86 246 156 74 79 92 127 92 241 0 89 -2 99 -34
158 -65 119 -213 220 -378 256 -88 19 -244 20 -333 0z m287 -225 c147 -20 253
-89 253 -165 0 -97 -96 -160 -260 -171 -139 -9 -302 48 -392 138 -42 42 -48
53 -48 89 0 55 33 84 113 104 75 17 227 20 334 5z"/>
<path d="M6230 3945 c-107 -30 -191 -102 -239 -205 -22 -47 -26 -69 -26 -150
0 -85 3 -101 29 -154 62 -126 188 -209 320 -210 90 0 147 16 216 62 196 133
216 417 39 576 -88 79 -226 112 -339 81z m216 -213 c112 -58 138 -180 55 -263
-83 -84 -217 -71 -317 30 -75 74 -96 161 -53 215 28 36 69 46 179 43 74 -3
104 -8 136 -25z"/>
</g>
</svg>
