<?xml version="1.0" standalone="no"?>
<!DOCTYPE svg PUBLIC "-//W3C//DTD SVG 20010904//EN"
 "http://www.w3.org/TR/2001/REC-SVG-20010904/DTD/svg10.dtd">
<svg version="1.0" xmlns="http://www.w3.org/2000/svg"
 width="794.000000pt" height="1123.000000pt" viewBox="0 0 794.000000 1123.000000"
 preserveAspectRatio="xMidYMid meet">

<g transform="translate(0.000000,1123.000000) scale(0.100000,-0.100000)"
fill="#000000" stroke="none">
<path d="M3085 10281 c-146 -39 -326 -129 -467 -232 -275 -203 -472 -521 -518
-836 l-12 -83 -62 0 c-358 0 -733 -202 -932 -500 -73 -111 -115 -205 -149
-338 -13 -51 -31 -102 -40 -112 -9 -10 -43 -32 -76 -50 -138 -73 -301 -220
-386 -348 -90 -136 -139 -334 -130 -532 6 -142 25 -214 91 -350 69 -143 288
-353 451 -433 146 -72 186 -80 435 -85 l225 -4 30 -96 c82 -265 251 -514 462
-679 264 -206 561 -307 903 -307 225 1 395 41 664 160 55 24 106 44 113 44 6
0 54 -26 105 -57 257 -156 538 -243 838 -258 714 -37 1368 333 1670 943 62
125 124 307 147 434 l18 98 128 0 c70 0 171 5 224 11 421 47 803 368 938 789
24 72 28 108 33 232 5 169 -8 278 -45 382 -114 317 -354 564 -669 689 -155 61
-229 72 -479 70 l-220 -1 -75 115 c-173 268 -432 463 -727 548 -198 58 -480
56 -718 -5 -113 -28 -121 -29 -133 -13 -7 10 -48 76 -90 147 -127 213 -265
361 -441 474 -79 51 -307 159 -376 178 -49 14 -114 18 -360 21 -268 2 -307 1
-370 -16z m735 -128 c207 -74 362 -173 520 -332 85 -86 118 -128 172 -221 105
-182 148 -247 173 -260 18 -10 38 -7 121 19 133 40 179 50 297 61 280 27 534
-34 760 -183 153 -101 264 -222 375 -408 29 -48 59 -92 68 -100 13 -11 73 -14
288 -14 310 0 332 -4 501 -84 115 -55 241 -146 316 -229 109 -120 207 -297
246 -443 23 -87 23 -317 0 -411 -56 -230 -189 -428 -388 -578 -205 -154 -417
-209 -745 -196 l-160 7 -13 -80 c-33 -218 -110 -454 -196 -605 -221 -388 -641
-686 -1084 -770 -140 -27 -401 -40 -505 -26 -309 41 -490 105 -753 266 -58 35
-110 64 -116 64 -6 0 -81 -31 -166 -69 -292 -129 -418 -157 -665 -148 -164 6
-263 22 -398 67 -387 129 -684 436 -814 840 -32 103 -58 156 -81 169 -11 6
-93 7 -213 4 -229 -7 -305 5 -435 67 -104 50 -190 116 -297 228 -136 144 -184
256 -194 462 -7 133 11 264 50 360 71 175 249 348 467 456 74 36 77 39 83 78
51 332 219 580 501 741 138 79 364 135 545 135 120 0 116 -3 130 108 16 132
37 223 72 311 89 226 262 432 483 573 100 65 145 86 280 135 l120 43 285 -3
285 -3 85 -31z"/>
<path d="M1498 5661 c-119 -38 -220 -123 -277 -233 -29 -57 -31 -67 -31 -167
0 -93 3 -113 26 -161 92 -199 281 -304 482 -270 152 25 284 120 346 245 25 51
30 75 34 163 5 102 4 103 -31 176 -64 128 -154 208 -278 247 -78 24 -194 24
-271 0z m274 -119 c112 -51 188 -164 188 -282 0 -90 -23 -150 -80 -213 -164
-179 -446 -138 -551 81 -13 26 -24 72 -27 112 -4 58 -1 76 22 126 43 95 122
164 216 191 61 17 177 10 232 -15z"/>
<path d="M881 4998 c-218 -84 -228 -377 -16 -491 62 -33 183 -31 251 5 167 88
201 293 71 426 -77 78 -197 102 -306 60z m199 -116 c97 -72 93 -206 -9 -266
-75 -43 -192 -12 -226 61 -45 94 -3 192 95 224 37 12 111 2 140 -19z"/>
<path d="M511 4595 c-79 -25 -141 -105 -141 -183 0 -30 8 -51 33 -83 49 -65
79 -82 146 -87 52 -4 67 -1 105 22 25 15 57 43 71 64 63 93 2 240 -113 272
-45 12 -46 12 -101 -5z m89 -120 c17 -9 33 -27 36 -42 6 -22 1 -32 -25 -55
-41 -37 -73 -36 -105 3 -14 17 -26 34 -26 38 0 15 33 53 54 61 30 12 33 12 66
-5z"/>
</g>
</svg>
