<?xml version="1.0" encoding="UTF-8" standalone="no"?>
<!-- Created with Inkscape (http://www.inkscape.org/) -->

<svg
   width="210mm"
   height="297mm"
   viewBox="0 0 210 297"
   version="1.1"
   id="svg97"
   inkscape:version="1.1.1 (c3084ef, 2021-09-22)"
   sodipodi:docname="video_icon.svg"
   xmlns:inkscape="http://www.inkscape.org/namespaces/inkscape"
   xmlns:sodipodi="http://sodipodi.sourceforge.net/DTD/sodipodi-0.dtd"
   xmlns="http://www.w3.org/2000/svg"
   xmlns:svg="http://www.w3.org/2000/svg">
  <sodipodi:namedview
     id="namedview99"
     pagecolor="#505050"
     bordercolor="#eeeeee"
     borderopacity="1"
     inkscape:pageshadow="0"
     inkscape:pageopacity="0"
     inkscape:pagecheckerboard="0"
     inkscape:document-units="mm"
     showgrid="false"
     inkscape:zoom="0.38583657"
     inkscape:cx="548.15955"
     inkscape:cy="625.91268"
     inkscape:window-width="1312"
     inkscape:window-height="835"
     inkscape:window-x="0"
     inkscape:window-y="38"
     inkscape:window-maximized="0"
     inkscape:current-layer="layer1" />
  <defs
     id="defs94" />
  <g
     inkscape:label="Layer 1"
     inkscape:groupmode="layer"
     id="layer1">
    <path
       d="m 160.95376,128.47075 c 2.05974,-0.51047 2.85777,-0.89417 4.71964,-2.26926 2.72007,-2.00892 4.86536,-5.46448 5.71567,-9.20658 0.41383,-1.8212 0.44404,-4.57329 0.36741,-33.469788 -0.075,-28.27586 -0.12736,-31.60679 -0.51383,-32.67604 -0.98097,-2.71411 -1.61348,-3.81972 -3.04204,-5.31742 -1.72657,-1.81013 -3.49874,-2.90686 -5.92687,-3.66793 -1.67892,-0.52624 -2.32772,-0.53287 -52.45922,-0.53624 -45.177182,-0.003 -50.923803,0.042 -52.255223,0.40932 -4.777002,1.31798 -8.06436,4.54551 -9.432631,9.26094 -0.601589,2.07327 -0.655918,64.390568 -0.058,66.526328 1.586072,5.66536 5.30455,9.62019 10.31366,10.96921 1.16772,0.31448 9.192601,0.37578 51.109984,0.39046 45.07071,0.0158 49.88731,-0.0229 51.46145,-0.413 z m -98.607383,-2.21191 c -4.390811,-1.10597 -7.40224,-3.98846 -8.98729,-8.60247 -0.417081,-1.21409 -0.461201,-3.78123 -0.53639,-31.208188 -0.0552,-20.13297 0.009,-30.3211 0.195509,-31.22084 0.438581,-2.11133 1.395521,-3.79385 3.18091,-5.5928 1.70428,-1.71722 3.187991,-2.57641 5.94967,-3.44534 1.530429,-0.48154 3.2283,-0.4995 47.228134,-0.4995 49.6399,0 46.55321,-0.0926 49.91275,1.49694 3.02321,1.43037 4.97652,3.66473 5.97658,6.8365 0.42404,1.34487 0.45942,3.67535 0.46302,30.49752 0.004,27.765318 -0.0183,29.119688 -0.50015,30.823958 -0.27723,0.98042 -0.68415,2.1993 -0.90428,2.70863 -1.0345,2.3936 -5.07583,5.69266 -9.51583,7.76805 l -2.06062,0.9632 -44.24146,-0.0211 c -41.927873,-0.02 -44.341834,-0.0464 -46.160553,-0.50452 z M 106.06963,95.742392 c 0.87312,-0.47961 2.24234,-1.23853 3.0427,-1.68649 0.80037,-0.44795 2.94349,-1.5868 4.7625,-2.53077 1.819,-0.94396 3.78354,-1.98648 4.36562,-2.3167 0.58208,-0.33022 2.07036,-1.13498 3.30729,-1.78835 1.23693,-0.65338 2.91938,-1.58867 3.73878,-2.07843 0.8194,-0.48977 1.62307,-0.89049 1.78594,-0.89049 0.16286,0 0.29398,-0.20836 0.29137,-0.46302 -0.003,-0.30436 -0.92686,-1.00698 -2.69587,-2.05052 -1.48011,-0.87312 -2.88558,-1.66514 -3.12326,-1.76003 -0.23768,-0.0949 -1.19743,-0.63839 -2.13278,-1.20779 -0.93535,-0.56939 -1.87923,-1.11837 -2.09751,-1.21995 -0.21828,-0.10158 -0.87313,-0.46478 -1.45521,-0.80711 -0.58208,-0.34232 -1.65364,-0.94675 -2.38124,-1.34316 -0.7276,-0.39642 -1.6801,-0.93351 -2.11667,-1.19355 -0.43656,-0.26003 -1.38906,-0.80108 -2.11666,-1.20233 -0.72761,-0.40125 -1.97776,-1.09029 -2.77813,-1.53121 -2.95201,-1.62624 -7.823903,-4.10222 -8.434352,-4.28648 l -0.62914,-0.1899 0.1641,6.31242 c 0.0903,3.47183 0.229079,10.42008 0.308499,15.44055 0.0794,5.02047 0.204711,9.51466 0.278421,9.98708 l 0.134019,0.85896 3.097043,-1.59035 c 1.70337,-0.8747 3.81141,-1.98277 4.68454,-2.46238 z"
       style="fill:#000000;stroke-width:0.0700042"
       id="path158" />
  </g>
</svg>
