<?xml version="1.0" encoding="UTF-8" standalone="no"?>
<!-- Created with Inkscape (http://www.inkscape.org/) -->

<svg
   width="62.794449mm"
   height="108.69907mm"
   viewBox="0 0 62.794449 108.69907"
   version="1.1"
   id="svg5"
   inkscape:version="1.1.1 (3bf5ae0d25, 2021-09-20)"
   sodipodi:docname="Weight.svg"
   xmlns:inkscape="http://www.inkscape.org/namespaces/inkscape"
   xmlns:sodipodi="http://sodipodi.sourceforge.net/DTD/sodipodi-0.dtd"
   xmlns="http://www.w3.org/2000/svg"
   xmlns:svg="http://www.w3.org/2000/svg">
  <sodipodi:namedview
     id="namedview7"
     pagecolor="#ffffff"
     bordercolor="#666666"
     borderopacity="1.0"
     inkscape:pageshadow="2"
     inkscape:pageopacity="0.0"
     inkscape:pagecheckerboard="0"
     inkscape:document-units="mm"
     showgrid="false"
     fit-margin-top="0"
     fit-margin-left="0"
     fit-margin-right="0"
     fit-margin-bottom="0"
     inkscape:zoom="1"
     inkscape:cx="141.5"
     inkscape:cy="316.5"
     inkscape:window-width="1920"
     inkscape:window-height="1009"
     inkscape:window-x="-8"
     inkscape:window-y="-8"
     inkscape:window-maximized="1"
     inkscape:current-layer="layer1" />
  <defs
     id="defs2" />
  <g
     inkscape:label="Layer 1"
     inkscape:groupmode="layer"
     id="layer1"
     transform="translate(-84.225688,-52.454265)">
    <g
       transform="matrix(0.03527778,0,0,-0.03527778,-110.15488,274.65078)"
       fill="#000000"
       stroke="none"
       id="g8441"
       style="fill:#ffffff">
      <path
         d="m 6215,6286 c -119,-28 -264,-97 -289,-139 -13,-21 5,-37 45,-37 42,0 76,-35 120,-124 72,-147 64,-255 -26,-334 -53,-46 -136,-80 -217,-89 -32,-3 -62,-11 -67,-17 -6,-7 -16,-39 -23,-71 l -13,-60 -115,-6 c -63,-4 -116,-7 -117,-8 -2,0 -3,-480 -3,-1065 V 3272 l 38,-6 c 425,-65 1303,-65 1710,0 l 32,5 -2,1067 -3,1067 -115,5 -114,5 -13,64 c -15,72 -23,81 -71,81 -42,0 -143,34 -192,65 -92,58 -130,166 -99,280 16,56 65,156 89,183 12,12 33,22 48,22 16,0 36,6 46,13 17,13 16,15 -14,41 -48,39 -117,72 -217,102 -109,33 -320,43 -418,20 z"
         id="path8427"
         style="fill:#ffffff" />
    </g>
  </g>
</svg>
