<?xml version="1.0" standalone="no"?>
<!DOCTYPE svg PUBLIC "-//W3C//DTD SVG 20010904//EN"
 "http://www.w3.org/TR/2001/REC-SVG-20010904/DTD/svg10.dtd">
<svg version="1.0" xmlns="http://www.w3.org/2000/svg"
 width="512.000000pt" height="512.000000pt" viewBox="0 0 512.000000 512.000000"
 preserveAspectRatio="xMidYMid meet">

<g transform="translate(0.000000,512.000000) scale(0.100000,-0.100000)"
fill="#000000" stroke="none">
<path d="M3115 5110 c-158 -32 -306 -138 -385 -277 l-35 -61 -62 5 c-83 8
-140 -14 -192 -73 -42 -48 -67 -124 -58 -172 5 -24 -1 -30 -55 -62 -123 -71
-227 -207 -263 -346 -19 -73 -19 -212 0 -284 42 -158 156 -296 301 -366 l82
-39 4 -50 c8 -93 78 -166 179 -187 43 -9 60 -17 67 -34 20 -42 78 -98 127
-120 130 -61 296 1 350 129 l16 39 32 -27 c52 -43 169 -95 238 -106 238 -39
469 119 529 362 11 42 15 47 61 63 116 42 252 159 322 277 63 108 90 206 90
334 1 131 -17 206 -74 316 -107 206 -316 340 -553 356 l-95 6 -35 57 c-48 78
-151 172 -229 209 -114 54 -249 73 -362 51z m208 -105 c97 -20 200 -78 275
-153 34 -35 62 -67 62 -72 0 -4 -15 -11 -32 -14 -18 -3 -60 -20 -93 -36 -33
-17 -51 -28 -40 -24 128 41 271 50 375 25 211 -50 386 -213 461 -428 30 -85
36 -230 15 -327 -36 -159 -138 -310 -269 -394 -35 -23 -66 -42 -69 -42 -3 0
-8 27 -11 59 -6 52 -44 178 -52 169 -1 -2 2 -32 8 -67 38 -231 -131 -477 -363
-530 -105 -24 -236 -6 -334 47 -40 21 -52 33 -56 57 l-5 29 -20 -44 c-43 -96
-130 -158 -234 -167 -70 -7 -126 8 -187 50 -55 37 -66 57 -32 57 13 1 34 7 48
15 24 14 23 14 -30 15 -141 1 -259 124 -260 269 -1 30 -2 33 -11 18 -10 -16
-14 -16 -62 10 -75 41 -178 147 -216 224 -76 156 -77 322 -1 476 41 83 127
182 184 212 26 14 28 13 52 -15 l24 -29 -7 30 c-14 53 -7 128 15 171 36 71
115 124 185 124 l34 0 -13 -67 c-20 -104 -15 -126 9 -43 49 163 146 280 290
349 124 60 230 74 360 46z"/>
<path d="M1302 3705 c-68 -15 -132 -48 -188 -97 -131 -115 -172 -320 -96 -481
36 -78 115 -162 179 -191 l41 -18 56 27 c67 33 122 29 182 -11 44 -30 66 -27
136 17 139 89 216 257 189 411 -31 179 -163 314 -340 348 -66 12 -80 12 -159
-5z"/>
<path d="M2154 3421 c-162 -73 -112 -313 65 -313 144 0 222 162 128 269 -55
63 -119 78 -193 44z m119 -71 c30 -23 47 -74 40 -114 -8 -38 -66 -86 -106 -86
-104 0 -155 128 -76 194 39 33 104 36 142 6z"/>
<path d="M1891 3196 c-55 -31 -65 -91 -22 -138 57 -64 153 -28 153 57 0 66
-75 113 -131 81z m79 -41 c16 -20 16 -61 0 -80 -21 -25 -72 -15 -89 16 -13 24
-13 29 2 53 20 30 67 36 87 11z"/>
<path d="M1333 2923 c-48 -9 -78 -54 -118 -173 -52 -157 -123 -294 -179 -350
-42 -40 -46 -42 -46 -21 0 12 15 41 34 64 53 65 169 317 154 333 -10 10 -186
5 -234 -7 -193 -47 -310 -218 -274 -401 40 -206 212 -327 392 -274 163 47 306
238 410 548 46 139 47 191 7 235 -40 43 -86 58 -146 46z"/>
<path d="M1628 2782 c-55 -2 -78 -7 -78 -16 0 -30 -75 -240 -119 -332 -62
-129 -113 -204 -189 -277 -73 -69 -150 -106 -238 -114 l-64 -6 0 -168 0 -169
175 0 175 0 -6 44 c-11 75 26 150 89 183 21 11 71 19 145 24 99 6 122 11 177
38 91 45 135 117 135 221 0 64 -34 172 -67 210 -18 22 -23 34 -15 42 40 40
122 -128 122 -252 0 -188 -140 -300 -374 -300 -111 0 -182 -62 -173 -149 9
-86 70 -131 175 -131 211 0 420 85 523 213 87 108 136 266 125 407 -13 162
-70 301 -168 405 -95 102 -182 133 -350 127z"/>
<path d="M940 882 c0 -677 1 -719 19 -757 35 -75 111 -125 190 -125 23 0 60
11 92 28 43 22 59 38 81 81 l28 53 0 514 0 514 40 0 40 0 0 -496 c0 -328 4
-510 11 -539 15 -59 68 -119 124 -141 93 -35 203 5 252 91 l23 40 0 726 0 726
-450 1 -450 2 0 -718z"/>
</g>
</svg>
