<?xml version="1.0" standalone="no"?>
<!DOCTYPE svg PUBLIC "-//W3C//DTD SVG 20010904//EN"
 "http://www.w3.org/TR/2001/REC-SVG-20010904/DTD/svg10.dtd">
<svg version="1.0" xmlns="http://www.w3.org/2000/svg"
 width="813.000000pt" height="1280.000000pt" viewBox="0 0 813.000000 1280.000000"
 preserveAspectRatio="xMidYMid meet">
<metadata>
Created by potrace 1.15, written by Peter Selinger 2001-2017
</metadata>
<g transform="translate(0.000000,1280.000000) scale(0.100000,-0.100000)"
fill="#000000" stroke="none">
<path d="M5525 12793 c-270 -32 -544 -166 -714 -350 -155 -168 -236 -369 -256
-640 l-8 -93 421 0 420 0 6 23 c3 12 6 36 6 54 0 55 38 139 79 176 132 119
361 32 361 -138 0 -98 -58 -161 -210 -226 -187 -80 -256 -117 -307 -163 -102
-92 -141 -221 -150 -498 l-6 -168 456 0 457 0 0 61 c0 144 27 179 215 277 189
98 293 197 364 345 80 169 97 436 40 632 -94 323 -378 584 -734 675 -136 35
-314 48 -440 33z"/>
<path d="M2046 12214 c-181 -112 -331 -205 -332 -207 -2 -1 74 -50 168 -107
94 -57 167 -105 162 -106 -5 -2 -151 -15 -324 -30 -173 -14 -316 -27 -317 -28
-2 -2 -42 -521 -40 -522 1 0 74 -55 162 -121 88 -65 227 -158 308 -205 l149
-87 -39 -10 c-69 -19 -110 -77 -119 -168 -5 -55 0 -74 96 -343 l102 -285 -2
-98 c-3 -195 31 -280 169 -418 53 -53 131 -122 174 -154 l78 -58 -3 -148 c-2
-81 -6 -151 -11 -155 -4 -4 -60 14 -125 39 -125 50 -153 54 -262 37 -126 -20
-194 -63 -363 -227 -84 -82 -153 -150 -155 -153 -1 -3 37 -16 85 -29 l88 -24
-7 -106 c-4 -58 -19 -522 -34 -1031 -28 -997 -27 -1050 20 -1144 25 -49 55
-66 117 -66 l46 0 95 258 c103 276 231 655 294 869 21 73 39 131 40 130 1 -1
12 -60 24 -132 12 -71 38 -193 57 -270 l35 -140 -11 -145 c-33 -398 -146 -856
-305 -1229 -59 -138 -173 -370 -225 -459 l-30 -51 153 -3 152 -3 -417 -1058
c-229 -582 -414 -1059 -410 -1061 3 -2 201 -48 438 -102 238 -54 438 -101 444
-105 9 -5 -4 -149 -47 -537 l-58 -530 -66 -31 c-36 -16 -72 -29 -80 -29 -47 2
-392 -137 -610 -246 -162 -82 -692 -386 -860 -494 -189 -121 -338 -257 -392
-358 -16 -29 -34 -86 -42 -136 -13 -73 -13 -98 -2 -168 7 -44 19 -87 27 -94
22 -21 421 -76 809 -112 231 -22 800 -25 995 -6 351 35 720 109 835 167 54 28
94 68 113 115 21 51 22 413 2 530 -44 253 -192 588 -322 727 l-29 31 165 516
c122 379 170 516 181 516 8 -1 218 -47 465 -104 248 -56 452 -102 453 -100 4
3 191 1971 192 2014 0 19 3 21 9 10 4 -8 131 -449 281 -980 151 -531 274 -966
275 -967 1 -2 185 85 410 192 224 108 411 192 415 188 5 -6 323 -900 427
-1199 3 -7 -5 -10 -20 -7 -72 14 -262 -344 -340 -637 -30 -114 -31 -118 -31
-372 l-1 -256 30 -43 c44 -62 123 -101 295 -143 584 -141 1231 -158 2059 -51
252 33 373 53 383 63 5 5 15 45 22 89 26 147 -10 286 -102 398 -104 126 -253
230 -706 494 -347 203 -567 318 -753 395 -158 65 -334 127 -344 121 -4 -3 -40
10 -78 30 l-71 35 -22 -47 c-21 -44 -22 -45 -29 -22 -13 41 -249 1380 -245
1387 2 4 137 70 300 147 162 77 295 143 296 146 0 4 -122 253 -271 555 -149
302 -345 699 -435 883 l-165 335 113 -115 c136 -138 203 -179 308 -187 135 -9
299 53 549 208 121 75 135 87 154 129 25 57 34 169 17 211 -34 81 -112 104
-241 70 -46 -12 -159 -35 -251 -49 l-168 -27 -19 20 c-44 48 -271 342 -271
351 0 6 92 286 204 622 l204 612 -32 93 c-85 242 -181 435 -463 930 -118 208
-212 382 -208 388 3 5 22 10 41 10 19 0 34 2 34 5 0 15 -264 267 -313 299 -79
52 -200 107 -337 154 -63 22 -151 54 -194 71 -177 71 -366 90 -562 56 -49 -9
-90 -12 -92 -8 -2 4 -31 85 -66 178 l-64 170 70 69 c110 108 187 245 218 388
l13 57 71 26 c58 22 79 36 115 78 281 332 305 384 305 652 -1 136 -3 158 -28
231 -39 117 -73 168 -131 189 -44 17 -49 17 -98 2 -29 -10 -57 -20 -63 -25 -7
-4 -43 -70 -80 -147 -92 -189 -94 -154 -9 154 l66 240 -127 433 c-70 238 -128
434 -128 435 -1 1 -154 32 -341 68 -305 60 -1222 205 -1285 204 -14 0 -163
-86 -354 -205z m675 -3084 c12 0 12 -37 -1 -45 -5 -3 -17 9 -26 26 -15 30 -15
31 1 25 9 -3 21 -6 26 -6z m-497 -750 l7 -135 -90 -325 c-50 -178 -91 -331
-91 -339 0 -8 -2 -12 -5 -10 -2 3 6 86 20 185 36 269 48 444 42 595 -5 129 -4
136 13 132 15 -4 26 9 51 59 l33 63 7 -45 c4 -25 10 -106 13 -180z m2724 -187
c28 -49 119 -214 202 -368 238 -437 372 -651 525 -842 30 -37 53 -75 50 -83
-3 -8 -71 -256 -152 -550 -145 -528 -147 -537 -151 -655 -3 -101 1 -149 27
-301 36 -212 35 -194 16 -194 -9 0 -22 24 -35 68 -261 863 -300 981 -372 1142
-87 193 -127 290 -219 534 l-67 180 14 45 c28 90 64 248 80 351 11 73 18 206
21 433 3 180 7 327 8 327 2 0 26 -39 53 -87z"/>
<path d="M5492 10636 c-187 -47 -349 -195 -403 -366 -28 -90 -28 -231 0 -321
84 -267 377 -418 688 -353 116 24 205 73 293 163 116 117 157 223 148 382 -6
105 -33 180 -93 265 -71 100 -170 172 -295 216 -71 26 -261 34 -338 14z"/>
</g>
</svg>
