<?xml version="1.0" encoding="UTF-8" standalone="no"?>
<!-- Created with Inkscape (http://www.inkscape.org/) -->

<svg
   width="210mm"
   height="297mm"
   viewBox="0 0 210 297"
   version="1.1"
   id="svg5"
   sodipodi:docname="pens.svg"
   inkscape:version="1.1.1 (c3084ef, 2021-09-22)"
   xmlns:inkscape="http://www.inkscape.org/namespaces/inkscape"
   xmlns:sodipodi="http://sodipodi.sourceforge.net/DTD/sodipodi-0.dtd"
   xmlns="http://www.w3.org/2000/svg"
   xmlns:svg="http://www.w3.org/2000/svg">
  <sodipodi:namedview
     id="namedview7"
     pagecolor="#505050"
     bordercolor="#eeeeee"
     borderopacity="1"
     inkscape:pageshadow="0"
     inkscape:pageopacity="0"
     inkscape:pagecheckerboard="0"
     inkscape:document-units="mm"
     showgrid="false"
     inkscape:zoom="0.57767376"
     inkscape:cx="379.10671"
     inkscape:cy="341.02293"
     inkscape:window-width="1133"
     inkscape:window-height="842"
     inkscape:window-x="0"
     inkscape:window-y="38"
     inkscape:window-maximized="0"
     inkscape:current-layer="layer1" />
  <defs
     id="defs2" />
  <g
     inkscape:label="Layer 1"
     inkscape:groupmode="layer"
     id="layer1">
    <path
       style="fill:#000000;stroke-width:0.267021"
       d="m 114.79556,77.247091 c -0.34352,-0.311293 -0.27845,-2.38022 0.33599,-10.682475 l 0.76202,-10.296412 10.25266,-21.995558 c 11.31315,-24.270683 10.83219,-23.425525 13.98342,-24.5720527 2.48023,-0.9023956 4.23417,-0.8098371 6.6923,0.3531397 1.71794,0.812779 2.2821,1.239564 3.05929,2.314307 1.21333,1.677859 1.82009,3.907708 1.5477,5.687813 -0.12313,0.804688 -4.11294,9.647133 -10.49719,23.264494 l -10.29856,21.966429 -7.27062,7.017692 c -3.99884,3.85973 -7.46645,7.087666 -7.7058,7.173189 -0.23935,0.08552 -0.62689,-0.01824 -0.86121,-0.230566 z m 10.03629,-11.341105 3.84504,-3.713932 -0.65816,-1.850941 c -0.54135,-1.521051 -0.71503,-1.802277 -0.97575,-1.578369 -1.11829,0.96039 -4.00423,2.798794 -4.37987,2.790067 -0.59674,-0.01387 -0.83421,-0.757603 -1.00969,-3.162368 -0.08,-1.096962 -0.16628,-2.052486 -0.19161,-2.123385 -0.0253,-0.0709 -0.8661,0.165113 -1.86837,0.524471 l -1.82231,0.65339 -0.35685,4.733035 c -0.19627,2.603171 -0.3581,4.966912 -0.35963,5.25276 -0.002,0.384186 0.47526,0.749744 1.83033,1.401765 1.00822,0.485122 1.89367,0.860728 1.96766,0.834681 0.074,-0.02615 1.86481,-1.718631 3.97958,-3.761296 z m 12.90398,-22.396046 7.5885,-16.030038 -1.00908,-0.504528 -1.00908,-0.504527 -1.22654,2.570813 c -0.6746,1.413949 -1.41807,2.639252 -1.65217,2.722898 -0.23409,0.08364 -0.64024,-0.0424 -0.90255,-0.280094 -0.42852,-0.388327 -0.34907,-0.704283 0.78321,-3.113871 l 1.26013,-2.681693 -1.86283,-0.896337 -1.86283,-0.896339 -3.65615,7.68726 c -2.01088,4.227992 -3.82591,7.747914 -4.03338,7.822048 -0.48826,0.174462 -1.15856,-0.147305 -1.33489,-0.640801 -0.0762,-0.213258 1.49909,-3.849506 3.50063,-8.08055 l 3.63918,-7.692803 -0.9754,-0.436528 -0.9754,-0.436527 -7.6486,16.429989 -7.6486,16.429987 1.35053,-0.394685 1.35052,-0.394684 1.26748,-2.738318 c 1.29274,-2.79289 1.53964,-3.093635 2.25983,-2.752632 0.73989,0.350339 0.67493,0.867775 -0.45299,3.608053 -0.97873,2.377819 -1.09289,2.924423 -0.9356,4.479538 0.0985,0.974185 0.23328,1.796879 0.29944,1.828208 0.0662,0.03133 0.80751,-0.448985 1.64742,-1.067366 l 1.5271,-1.124326 5.43945,-11.483016 c 5.0085,-10.573264 5.49014,-11.475441 6.07937,-11.387463 0.35196,0.05255 0.71292,0.299851 0.80214,0.549556 0.0935,0.261597 -2.10309,5.212781 -5.18292,11.68263 l -5.34515,11.228622 0.47577,1.331529 c 0.26168,0.73234 0.56112,1.301034 0.66537,1.263786 0.10427,-0.03726 3.60442,-7.281263 7.77809,-16.097785 z m -11.77576,3.325755 c -0.94302,-0.17573 -0.87618,-0.949753 0.28436,-3.293256 1.19511,-2.413311 1.33824,-2.575454 1.99773,-2.263184 0.85995,0.40718 0.79221,1.275231 -0.26496,3.39568 -1.12144,2.249342 -1.18372,2.316063 -2.01713,2.16076 z m 20.75505,-22.290547 0.37137,-0.852106 -5.69956,-2.69873 -5.69957,-2.698728 -0.44319,0.935997 -0.44319,0.935995 5.62377,2.667583 c 3.09307,1.46717 5.69019,2.64385 5.77138,2.614839 0.0812,-0.029 0.31474,-0.436194 0.51899,-0.90485 z m 2.08473,-4.491493 c 0.88367,-2.194364 0.89337,-3.239364 0.0486,-5.23947 -0.57415,-1.359424 -0.90949,-1.808863 -1.84021,-2.466311 -2.32561,-1.642781 -5.59612,-1.638456 -7.61528,0.01007 -0.88512,0.722656 -2.7715,3.67313 -2.6393,4.128118 0.10216,0.351591 10.7509,5.377294 11.11673,5.246576 0.16274,-0.05815 0.58099,-0.813696 0.92944,-1.678988 z"
       id="path21"
       sodipodi:nodetypes="sscsssssscssscccssssscssscccccccsssscccsssscccccccsssssscsssscssscsssssscccccssssssssss" />
    <path
       style="fill:#000000;stroke-width:0.296142"
       d="m 57.528618,168.21572 c -0.07555,-0.5458 -0.518991,-3.55994 -0.98542,-6.69808 l -0.848048,-5.7057 6.678488,3.00378 6.67849,3.00378 -5.323288,3.51202 c -2.927806,1.93162 -5.489686,3.59405 -5.693067,3.6943 -0.268465,0.13233 -0.407419,-0.0896 -0.507154,-0.8101 z m 5.775234,-11.44589 -6.846902,-3.08915 9.711069,-21.63018 c 5.34109,-11.8966 9.824287,-21.68257 9.962656,-21.7466 0.13838,-0.064 0.622572,0.0349 1.076002,0.21987 l 0.82441,0.33629 -9.345977,20.82369 -9.345968,20.82369 0.977069,0.44014 0.977072,0.44014 9.249715,-20.60224 c 5.087338,-11.33124 9.372485,-20.65906 9.522546,-20.72849 0.352328,-0.16304 9.312406,3.88172 9.424606,4.25445 0.0468,0.15522 -4.285504,10.01691 -9.627202,21.91486 l -9.71218,21.63263 z m 20.444233,-45.76095 -6.747677,-3.04462 0.716606,-1.67656 c 1.258157,-2.94355 2.193395,-4.23086 3.519657,-4.84457 0.655561,-0.30335 1.500104,-0.53196 1.876752,-0.50801 0.983116,0.0625 7.880967,3.1376 8.615127,3.84067 0.72078,0.69024 1.2347,2.20755 1.17158,3.45899 -0.0421,0.83615 -1.89376,5.58246 -2.24033,5.74284 -0.0901,0.0417 -3.200474,-1.29419 -6.911711,-2.96873 z"
       id="path250" />
    <path
       style="fill:#000000;stroke-width:0.221854"
       d="m 8.9185935,166.93746 c 0.007,-0.24692 -0.17459,-4.01914 -0.40376,-8.38276 l -0.41666,-7.93387 7.3096495,3.64278 c 4.02032,2.00353 7.29483,3.67047 7.27672,3.70431 -0.0179,0.034 -2.9679,2.04085 -6.55509,4.45999 -3.58718,2.41913 -6.6800095,4.52443 -6.8729595,4.67843 -0.27194,0.21705 -0.3479,0.17908 -0.3379,-0.16888 z m 8.5863995,-16.96276 -7.23123,-3.60872 8.55796,-17.16481 8.55797,-17.16479 7.29725,3.63912 7.29724,3.63911 -8.51927,17.08947 c -4.68634,9.39884 -8.56629,17.10976 -8.62389,17.13447 -0.0577,0.0247 -3.35874,-1.57894 -7.3359,-3.56373 z m 19.30909,-38.57402 -7.29689,-3.64144 2.1716,-4.34708 2.1716,-4.347079 7.29687,3.641439 7.29688,3.64143 -2.1716,4.34709 -2.17159,4.34707 z"
       id="path362" />
    <path
       style="fill:#000000;stroke-width:0.25004"
       d="m 75.779418,68.984049 4.9499,-3.711237 9.48467,-19.727449 C 102.48183,20.029096 104.06347,16.655535 104.09271,15.942487 104.15161,14.507704 103.5775,14.103636 96.877458,10.8638 l -6.51826,-3.1519398 -1.05195,0.395365 -1.05194,0.395369 -11.87559,24.4934578 -11.87558,24.49346 -0.006,9.319761 c -0.005,6.954373 0.0845,9.406128 0.35213,9.660017 4.08978,-1.521801 7.39024,-4.831416 10.92979,-7.485245 z m -9.66143,4.677513 c 0.0116,-0.226665 0.0216,-3.752907 0.0225,-7.83608 l 0.002,-7.423956 1.75699,-0.240354 1.75703,-0.240341 0.7708,2.415033 c 0.5415,1.696578 0.88636,2.457661 1.15922,2.558312 0.21361,0.07881 1.44055,-0.217519 2.72653,-0.658496 l 2.33816,-0.801775 0.87653,1.27176 c 0.48211,0.699471 0.93272,1.442754 1.00138,1.65175 0.0961,0.291868 -1.25766,1.429177 -5.84203,4.908264 -3.2818,2.490557 -6.10703,4.591222 -6.27829,4.668147 -0.18699,0.084 -0.30303,-0.02479 -0.29043,-0.272258 z m 12.7005,-12.030081 -0.93538,-1.438266 8.74014,-17.77548 8.74015,-17.775478 1.24398,0.602197 1.24398,0.602202 -3.93396,8.216023 c -10.43671,21.796671 -13.87396,28.897956 -14.01273,28.950109 -0.0831,0.03126 -0.57198,-0.590439 -1.08643,-1.38148 z m -6.97017,-2.596647 -0.62769,-1.966648 8.66519,-17.869341 8.66522,-17.869344 2.64247,1.302099 2.64246,1.302099 -8.74798,17.804575 -8.74798,17.804573 -1.93182,0.729398 -1.93182,0.729393 -0.62771,-1.966681 z M 68.183728,56.4374 c -0.65267,0.07687 -1.20943,0.134577 -1.23723,0.128215 -0.0278,-0.0064 3.93792,-8.354303 8.81277,-18.55101 l 8.86334,-18.539462 1.10862,0.506505 c 0.60972,0.27858 1.10466,0.591553 1.09977,0.695499 -0.0253,0.540801 -16.83368,35.384866 -17.12146,35.493022 -0.18654,0.07009 -0.87313,0.19035 -1.52581,0.267227 z m 19.21103,-42.604521 c 1.15671,-2.392565 2.11728,-4.0679778 2.39154,-4.1710623 0.63409,-0.2383172 12.376582,5.4234473 12.581812,6.0664523 0.0948,0.297246 -0.58572,2.010393 -1.78056,4.48193 l -1.934152,4.000757 -6.5959,-3.189658 -6.59593,-3.189664 z"
       id="path474"
       sodipodi:nodetypes="ccssscccccsccsscccssscscssssscccccsssccccccccccccssscsssssssscccs" />
    <path
       style="fill:#000000;stroke-width:0.841192"
       d="m 162.60389,173.79865 c -0.19185,-0.44593 -0.13563,-5.94536 0.12508,-12.22095 l 0.47395,-11.41011 9.67895,-24.09096 9.67888,-24.09099 7.67379,3.09089 7.67378,3.09094 -9.67212,23.84086 -9.67213,23.8409 -7.80567,9.38008 c -4.2931,5.15909 -7.96265,9.01526 -8.15451,8.56934 z m 8.19003,-19.23329 c -2.61068,-0.82268 -4.92038,-1.42058 -5.13267,-1.32871 -0.21242,0.0918 -0.35601,2.02447 -0.31933,4.29469 0.0633,3.91926 0.16643,4.17323 2.04273,5.0313 1.94106,0.88759 2.03094,0.83795 5.06599,-2.79894 l 3.08985,-3.70261 z m 22.4911,-41.41479 c -0.57324,-1.33224 -11.07744,-4.77778 -11.72899,-3.8473 -0.45653,0.65194 1.05668,1.67066 4.66256,3.13865 4.86782,1.9818 7.73813,2.26966 7.06643,0.70865 z"
       id="path685"
       sodipodi:nodetypes="sscccccccssssssscsssss" />
    <path
       d="m 109.17769,169.04263 c 0.0432,-1.73647 0.0597,-6.76205 0.0358,-11.16789 l -0.0427,-8.0107 2.84708,-7.27733 c 4.50061,-11.5039 15.57913,-36.57575 16.80707,-38.0362 1.78585,-2.12397 4.03933,-1.92941 9.81492,0.84736 7.74053,3.72152 8.00621,1.68103 -3.84175,29.5055 l -9.51403,22.34334 -7.22688,6.75951 c -9.95688,9.31293 -8.97207,8.75433 -8.87943,5.03641 z m 14.28848,-11.16132 c 2.2705,-2.2787 3.05363,-4.4399 2.23663,-6.17244 -0.81797,-1.73468 -1.96388,-1.68104 -3.71097,0.17373 l -1.56593,1.66244 0.0803,-2.55297 c 0.0695,-2.20711 -0.0953,-2.55747 -1.21667,-2.58565 -0.78171,-0.0199 -1.89805,0.56666 -2.80974,1.47586 l -1.51271,1.50854 -0.0139,-2.68976 c -0.0113,-2.21919 -0.21582,-2.70617 -1.16757,-2.78327 -1.42852,-0.11559 -3.01526,1.1558 -3.677,2.94634 -0.27527,0.74482 -0.47844,3.57266 -0.45151,6.28415 l 0.049,4.92987 3.97242,1.77472 c 4.39393,1.9632 3.52122,2.31736 9.78763,-3.97169 z m 10.40664,-44.50009 c -3.90199,-1.71636 -6.12302,-2.28157 -6.48582,-1.65018 -0.37735,0.65682 1.36686,1.79035 5.51825,3.58626 3.91864,1.69511 6.21738,2.28008 6.4858,1.65016 0.26858,-0.63027 -1.68541,-1.90012 -5.51823,-3.58624 z"
       style="fill:#000000;stroke-width:0.146232"
       id="path926" />
    <path
       d="m 160.14469,77.788863 c -0.054,-0.385971 0.1535,-5.355353 0.46122,-11.043147 l 0.55955,-10.341316 5.74113,-12.50745 c 3.15762,-6.87913 7.1131,-15.420035 8.78994,-18.979827 l 3.04877,-6.472354 1.85438,0.77869 c 1.02044,0.427087 1.88605,1.004705 1.92479,1.280912 0.0387,0.276222 -3.29813,7.91702 -7.41518,16.979521 -6.64825,14.634308 -7.55999,16.371508 -8.15144,15.531941 -0.75638,-1.073542 -2.71531,-0.598756 -4.18424,1.014214 -0.74243,0.815232 -1.07968,2.532117 -1.34336,6.838923 l -0.35208,5.750434 3.81169,1.683659 3.81165,1.683643 3.53938,-3.574832 c 4.73301,-4.780462 6.03548,-8.786885 2.9994,-9.2261 -1.32836,-0.192128 -1.26163,-0.376109 6.21735,-17.136286 4.15806,-9.318168 7.68611,-17.002518 7.84012,-17.076288 0.15411,-0.07401 1.12351,0.412821 2.15419,1.081824 l 1.87426,1.215761 -7.97341,17.853899 c -4.38541,9.819642 -8.56997,18.701502 -9.299,19.737504 -1.18416,1.682775 -13.7682,14.278312 -15.226,15.239937 -0.32071,0.211564 -0.62737,0.06911 -0.68165,-0.316549 z m 11.53886,-22.632754 c -0.44872,-0.645557 -1.20241,-0.918697 -1.67486,-0.606995 -0.4724,0.311475 -0.80978,0.291304 -0.74965,-0.04499 0.0601,-0.33633 3.54103,-8.127342 7.73551,-17.313249 l 7.62631,-16.701722 1.6917,1.175292 1.69168,1.175276 -7.75242,16.745019 c -7.56692,16.344426 -7.77191,16.716949 -8.56828,15.571411 z m 15.00734,-36.148383 -7.49637,-3.49235 1.28215,-2.558179 c 2.34319,-4.6750904 3.86095,-5.0100101 10.09141,-2.226706 4.60848,2.057502 5.59911,2.816753 5.82932,4.460113 0.25431,1.815597 -0.96155,6.485865 -1.83926,7.064834 -0.20408,0.134649 -3.74429,-1.326866 -7.86732,-3.247582 z"
       style="fill:#000000;stroke-width:0.161948"
       id="path1248" />
    <path
       style="fill:#000000;stroke-width:0.25004"
       d="m 29.243461,67.744146 4.9499,-3.71124 9.48467,-19.72745 c 12.26784,-25.51627 13.84948,-28.88983 13.87872,-29.60287 0.0589,-1.43479 -0.51521,-1.83885 -7.21525,-5.0786897 -2.172753,-1.05065 -6.065981,-3.04056 -6.51826,-3.15194 -1.043581,-0.34471 -1.681935,-0.0767 -2.10389,0.79073 l -11.87559,24.4934597 -11.87558,24.49346 -0.006,9.31976 c -0.005,6.95438 -0.0089,9.64361 -0.0089,9.64361 0,0 11.290172,-7.46883 11.290812,-7.46884 z m -9.674261,-0.82676 0.03733,-9.75576 1.75699,-0.24036 1.75703,-0.24034 0.7708,2.41503 c 0.5415,1.69658 0.88636,2.45766 1.15922,2.55832 0.21361,0.0788 1.44055,-0.21752 2.72653,-0.6585 l 2.33816,-0.80178 0.87653,1.27176 c 0.48211,0.69948 0.93272,1.44276 1.00138,1.65175 0.0961,0.29187 -3.532562,2.65876 -8.116932,6.13785 z m 12.713331,-6.52581 -0.93538,-1.43827 8.74014,-17.77548 8.74015,-17.77547 1.24398,0.60219 1.24398,0.60221 -3.93396,8.21602 c -10.43671,21.79667 -13.87396,28.89795 -14.01273,28.95011 -0.0831,0.0313 -0.57198,-0.59044 -1.08643,-1.38148 z m -6.97017,-2.59665 -0.62769,-1.96664 8.66519,-17.86935 8.66522,-17.86934 2.64247,1.3021 2.64246,1.3021 -8.74798,17.80457 -8.74798,17.80458 -1.93182,0.72939 -1.93182,0.7294 -0.62771,-1.96668 z m -3.66459,-2.59743 c -0.65267,0.0769 -1.20943,0.13458 -1.23723,0.12821 -0.0278,-0.006 3.93792,-8.3543 8.81277,-18.55101 l 8.86334,-18.53946 1.10862,0.50651 c 0.60972,0.27858 1.10466,0.59155 1.09977,0.6955 -0.0253,0.5408 -16.83368,35.38486 -17.12146,35.49302 -0.18654,0.0701 -0.87313,0.19035 -1.52581,0.26723 z m 19.21103,-42.60452 c 1.15671,-2.39257 2.11728,-4.0679797 2.39154,-4.1710597 0.63409,-0.23832 12.37658,5.4234397 12.58181,6.0664497 0.0948,0.29724 -0.58572,2.01039 -1.78056,4.48193 l -1.93415,4.00075 -6.5959,-3.18965 -6.59593,-3.18967 z"
       id="path474-1"
       sodipodi:nodetypes="scsssccccsccscccssscscscccccccsssccscccccccccssscsssssssscccscs" />
  </g>
</svg>
