<?xml version="1.0" encoding="UTF-8" standalone="no"?>
<!-- Created with Inkscape (http://www.inkscape.org/) -->

<svg
   width="210mm"
   height="297mm"
   viewBox="0 0 210 297"
   version="1.1"
   id="svg5"
   inkscape:version="1.1.1 (c3084ef, 2021-09-22)"
   sodipodi:docname="pen_1.svg"
   xmlns:inkscape="http://www.inkscape.org/namespaces/inkscape"
   xmlns:sodipodi="http://sodipodi.sourceforge.net/DTD/sodipodi-0.dtd"
   xmlns="http://www.w3.org/2000/svg"
   xmlns:svg="http://www.w3.org/2000/svg">
  <sodipodi:namedview
     id="namedview7"
     pagecolor="#505050"
     bordercolor="#eeeeee"
     borderopacity="1"
     inkscape:pageshadow="0"
     inkscape:pageopacity="0"
     inkscape:pagecheckerboard="0"
     inkscape:document-units="mm"
     showgrid="false"
     inkscape:zoom="0.57767376"
     inkscape:cx="379.10671"
     inkscape:cy="341.02293"
     inkscape:window-width="1133"
     inkscape:window-height="842"
     inkscape:window-x="0"
     inkscape:window-y="38"
     inkscape:window-maximized="0"
     inkscape:current-layer="layer1" />
  <defs
     id="defs2" />
  <g
     inkscape:label="Layer 1"
     inkscape:groupmode="layer"
     id="layer1">
    <path
       style="fill:#000000;stroke-width:0.25004"
       d="m 29.243461,67.744146 4.9499,-3.71124 9.48467,-19.72745 c 12.26784,-25.51627 13.84948,-28.88983 13.87872,-29.60287 0.0589,-1.43479 -0.51521,-1.83885 -7.21525,-5.0786897 -2.172753,-1.05065 -6.065981,-3.04056 -6.51826,-3.15194 -1.043581,-0.34471 -1.681935,-0.0767 -2.10389,0.79073 l -11.87559,24.4934597 -11.87558,24.49346 -0.006,9.31976 c -0.005,6.95438 -0.0089,9.64361 -0.0089,9.64361 0,0 11.290172,-7.46883 11.290812,-7.46884 z m -9.674261,-0.82676 0.03733,-9.75576 1.75699,-0.24036 1.75703,-0.24034 0.7708,2.41503 c 0.5415,1.69658 0.88636,2.45766 1.15922,2.55832 0.21361,0.0788 1.44055,-0.21752 2.72653,-0.6585 l 2.33816,-0.80178 0.87653,1.27176 c 0.48211,0.69948 0.93272,1.44276 1.00138,1.65175 0.0961,0.29187 -3.532562,2.65876 -8.116932,6.13785 z m 12.713331,-6.52581 -0.93538,-1.43827 8.74014,-17.77548 8.74015,-17.77547 1.24398,0.60219 1.24398,0.60221 -3.93396,8.21602 c -10.43671,21.79667 -13.87396,28.89795 -14.01273,28.95011 -0.0831,0.0313 -0.57198,-0.59044 -1.08643,-1.38148 z m -6.97017,-2.59665 -0.62769,-1.96664 8.66519,-17.86935 8.66522,-17.86934 2.64247,1.3021 2.64246,1.3021 -8.74798,17.80457 -8.74798,17.80458 -1.93182,0.72939 -1.93182,0.7294 -0.62771,-1.96668 z m -3.66459,-2.59743 c -0.65267,0.0769 -1.20943,0.13458 -1.23723,0.12821 -0.0278,-0.006 3.93792,-8.3543 8.81277,-18.55101 l 8.86334,-18.53946 1.10862,0.50651 c 0.60972,0.27858 1.10466,0.59155 1.09977,0.6955 -0.0253,0.5408 -16.83368,35.38486 -17.12146,35.49302 -0.18654,0.0701 -0.87313,0.19035 -1.52581,0.26723 z m 19.21103,-42.60452 c 1.15671,-2.39257 2.11728,-4.0679797 2.39154,-4.1710597 0.63409,-0.23832 12.37658,5.4234397 12.58181,6.0664497 0.0948,0.29724 -0.58572,2.01039 -1.78056,4.48193 l -1.93415,4.00075 -6.5959,-3.18965 -6.59593,-3.18967 z"
       id="path474-1"
       sodipodi:nodetypes="scsssccccsccscccssscscscccccccsssccscccccccccssscsssssssscccscs" />
  </g>
</svg>
