<?xml version="1.0" encoding="UTF-8" standalone="no"?>
<!-- Created with Inkscape (http://www.inkscape.org/) -->

<svg
   width="210mm"
   height="297mm"
   viewBox="0 0 210 297"
   version="1.1"
   id="svg5"
   sodipodi:docname="pen_4.svg"
   inkscape:version="1.1.1 (c3084ef, 2021-09-22)"
   xmlns:inkscape="http://www.inkscape.org/namespaces/inkscape"
   xmlns:sodipodi="http://sodipodi.sourceforge.net/DTD/sodipodi-0.dtd"
   xmlns="http://www.w3.org/2000/svg"
   xmlns:svg="http://www.w3.org/2000/svg">
  <sodipodi:namedview
     id="namedview7"
     pagecolor="#505050"
     bordercolor="#eeeeee"
     borderopacity="1"
     inkscape:pageshadow="0"
     inkscape:pageopacity="0"
     inkscape:pagecheckerboard="0"
     inkscape:document-units="mm"
     showgrid="false"
     inkscape:zoom="0.57767376"
     inkscape:cx="379.10671"
     inkscape:cy="341.02293"
     inkscape:window-width="1133"
     inkscape:window-height="842"
     inkscape:window-x="0"
     inkscape:window-y="38"
     inkscape:window-maximized="0"
     inkscape:current-layer="layer1" />
  <defs
     id="defs2" />
  <g
     inkscape:label="Layer 1"
     inkscape:groupmode="layer"
     id="layer1">
    <path
       d="m 160.14469,77.788863 c -0.054,-0.385971 0.1535,-5.355353 0.46122,-11.043147 l 0.55955,-10.341316 5.74113,-12.50745 c 3.15762,-6.87913 7.1131,-15.420035 8.78994,-18.979827 l 3.04877,-6.472354 1.85438,0.77869 c 1.02044,0.427087 1.88605,1.004705 1.92479,1.280912 0.0387,0.276222 -3.29813,7.91702 -7.41518,16.979521 -6.64825,14.634308 -7.55999,16.371508 -8.15144,15.531941 -0.75638,-1.073542 -2.71531,-0.598756 -4.18424,1.014214 -0.74243,0.815232 -1.07968,2.532117 -1.34336,6.838923 l -0.35208,5.750434 3.81169,1.683659 3.81165,1.683643 3.53938,-3.574832 c 4.73301,-4.780462 6.03548,-8.786885 2.9994,-9.2261 -1.32836,-0.192128 -1.26163,-0.376109 6.21735,-17.136286 4.15806,-9.318168 7.68611,-17.002518 7.84012,-17.076288 0.15411,-0.07401 1.12351,0.412821 2.15419,1.081824 l 1.87426,1.215761 -7.97341,17.853899 c -4.38541,9.819642 -8.56997,18.701502 -9.299,19.737504 -1.18416,1.682775 -13.7682,14.278312 -15.226,15.239937 -0.32071,0.211564 -0.62737,0.06911 -0.68165,-0.316549 z m 11.53886,-22.632754 c -0.44872,-0.645557 -1.20241,-0.918697 -1.67486,-0.606995 -0.4724,0.311475 -0.80978,0.291304 -0.74965,-0.04499 0.0601,-0.33633 3.54103,-8.127342 7.73551,-17.313249 l 7.62631,-16.701722 1.6917,1.175292 1.69168,1.175276 -7.75242,16.745019 c -7.56692,16.344426 -7.77191,16.716949 -8.56828,15.571411 z m 15.00734,-36.148383 -7.49637,-3.49235 1.28215,-2.558179 c 2.34319,-4.6750904 3.86095,-5.0100101 10.09141,-2.226706 4.60848,2.057502 5.59911,2.816753 5.82932,4.460113 0.25431,1.815597 -0.96155,6.485865 -1.83926,7.064834 -0.20408,0.134649 -3.74429,-1.326866 -7.86732,-3.247582 z"
       style="fill:#000000;stroke-width:0.161948"
       id="path1248" />
  </g>
</svg>
