<?xml version="1.0" encoding="UTF-8" standalone="no"?>
<!-- Created with Inkscape (http://www.inkscape.org/) -->

<svg
   width="210mm"
   height="297mm"
   viewBox="0 0 210 297"
   version="1.1"
   id="svg5"
   sodipodi:docname="pen_3.svg"
   inkscape:version="1.1.1 (c3084ef, 2021-09-22)"
   xmlns:inkscape="http://www.inkscape.org/namespaces/inkscape"
   xmlns:sodipodi="http://sodipodi.sourceforge.net/DTD/sodipodi-0.dtd"
   xmlns="http://www.w3.org/2000/svg"
   xmlns:svg="http://www.w3.org/2000/svg">
  <sodipodi:namedview
     id="namedview7"
     pagecolor="#505050"
     bordercolor="#eeeeee"
     borderopacity="1"
     inkscape:pageshadow="0"
     inkscape:pageopacity="0"
     inkscape:pagecheckerboard="0"
     inkscape:document-units="mm"
     showgrid="false"
     inkscape:zoom="0.57767376"
     inkscape:cx="379.10671"
     inkscape:cy="341.02293"
     inkscape:window-width="1133"
     inkscape:window-height="842"
     inkscape:window-x="0"
     inkscape:window-y="38"
     inkscape:window-maximized="0"
     inkscape:current-layer="layer1" />
  <defs
     id="defs2" />
  <g
     inkscape:label="Layer 1"
     inkscape:groupmode="layer"
     id="layer1">
    <path
       style="fill:#000000;stroke-width:0.267021"
       d="m 114.79556,77.247091 c -0.34352,-0.311293 -0.27845,-2.38022 0.33599,-10.682475 l 0.76202,-10.296412 10.25266,-21.995558 c 11.31315,-24.270683 10.83219,-23.425525 13.98342,-24.5720527 2.48023,-0.9023956 4.23417,-0.8098371 6.6923,0.3531397 1.71794,0.812779 2.2821,1.239564 3.05929,2.314307 1.21333,1.677859 1.82009,3.907708 1.5477,5.687813 -0.12313,0.804688 -4.11294,9.647133 -10.49719,23.264494 l -10.29856,21.966429 -7.27062,7.017692 c -3.99884,3.85973 -7.46645,7.087666 -7.7058,7.173189 -0.23935,0.08552 -0.62689,-0.01824 -0.86121,-0.230566 z m 10.03629,-11.341105 3.84504,-3.713932 -0.65816,-1.850941 c -0.54135,-1.521051 -0.71503,-1.802277 -0.97575,-1.578369 -1.11829,0.96039 -4.00423,2.798794 -4.37987,2.790067 -0.59674,-0.01387 -0.83421,-0.757603 -1.00969,-3.162368 -0.08,-1.096962 -0.16628,-2.052486 -0.19161,-2.123385 -0.0253,-0.0709 -0.8661,0.165113 -1.86837,0.524471 l -1.82231,0.65339 -0.35685,4.733035 c -0.19627,2.603171 -0.3581,4.966912 -0.35963,5.25276 -0.002,0.384186 0.47526,0.749744 1.83033,1.401765 1.00822,0.485122 1.89367,0.860728 1.96766,0.834681 0.074,-0.02615 1.86481,-1.718631 3.97958,-3.761296 z m 12.90398,-22.396046 7.5885,-16.030038 -1.00908,-0.504528 -1.00908,-0.504527 -1.22654,2.570813 c -0.6746,1.413949 -1.41807,2.639252 -1.65217,2.722898 -0.23409,0.08364 -0.64024,-0.0424 -0.90255,-0.280094 -0.42852,-0.388327 -0.34907,-0.704283 0.78321,-3.113871 l 1.26013,-2.681693 -1.86283,-0.896337 -1.86283,-0.896339 -3.65615,7.68726 c -2.01088,4.227992 -3.82591,7.747914 -4.03338,7.822048 -0.48826,0.174462 -1.15856,-0.147305 -1.33489,-0.640801 -0.0762,-0.213258 1.49909,-3.849506 3.50063,-8.08055 l 3.63918,-7.692803 -0.9754,-0.436528 -0.9754,-0.436527 -7.6486,16.429989 -7.6486,16.429987 1.35053,-0.394685 1.35052,-0.394684 1.26748,-2.738318 c 1.29274,-2.79289 1.53964,-3.093635 2.25983,-2.752632 0.73989,0.350339 0.67493,0.867775 -0.45299,3.608053 -0.97873,2.377819 -1.09289,2.924423 -0.9356,4.479538 0.0985,0.974185 0.23328,1.796879 0.29944,1.828208 0.0662,0.03133 0.80751,-0.448985 1.64742,-1.067366 l 1.5271,-1.124326 5.43945,-11.483016 c 5.0085,-10.573264 5.49014,-11.475441 6.07937,-11.387463 0.35196,0.05255 0.71292,0.299851 0.80214,0.549556 0.0935,0.261597 -2.10309,5.212781 -5.18292,11.68263 l -5.34515,11.228622 0.47577,1.331529 c 0.26168,0.73234 0.56112,1.301034 0.66537,1.263786 0.10427,-0.03726 3.60442,-7.281263 7.77809,-16.097785 z m -11.77576,3.325755 c -0.94302,-0.17573 -0.87618,-0.949753 0.28436,-3.293256 1.19511,-2.413311 1.33824,-2.575454 1.99773,-2.263184 0.85995,0.40718 0.79221,1.275231 -0.26496,3.39568 -1.12144,2.249342 -1.18372,2.316063 -2.01713,2.16076 z m 20.75505,-22.290547 0.37137,-0.852106 -5.69956,-2.69873 -5.69957,-2.698728 -0.44319,0.935997 -0.44319,0.935995 5.62377,2.667583 c 3.09307,1.46717 5.69019,2.64385 5.77138,2.614839 0.0812,-0.029 0.31474,-0.436194 0.51899,-0.90485 z m 2.08473,-4.491493 c 0.88367,-2.194364 0.89337,-3.239364 0.0486,-5.23947 -0.57415,-1.359424 -0.90949,-1.808863 -1.84021,-2.466311 -2.32561,-1.642781 -5.59612,-1.638456 -7.61528,0.01007 -0.88512,0.722656 -2.7715,3.67313 -2.6393,4.128118 0.10216,0.351591 10.7509,5.377294 11.11673,5.246576 0.16274,-0.05815 0.58099,-0.813696 0.92944,-1.678988 z"
       id="path21"
       sodipodi:nodetypes="sscsssssscssscccssssscssscccccccsssscccsssscccccccsssssscsssscssscsssssscccccssssssssss" />
  </g>
</svg>
