<?xml version="1.0" encoding="UTF-8" standalone="no"?>
<!-- Created with Inkscape (http://www.inkscape.org/) -->

<svg
   width="210mm"
   height="297mm"
   viewBox="0 0 210 297"
   version="1.1"
   id="svg5"
   sodipodi:docname="pencil_2.svg"
   inkscape:version="1.1.1 (c3084ef, 2021-09-22)"
   xmlns:inkscape="http://www.inkscape.org/namespaces/inkscape"
   xmlns:sodipodi="http://sodipodi.sourceforge.net/DTD/sodipodi-0.dtd"
   xmlns="http://www.w3.org/2000/svg"
   xmlns:svg="http://www.w3.org/2000/svg">
  <sodipodi:namedview
     id="namedview7"
     pagecolor="#505050"
     bordercolor="#eeeeee"
     borderopacity="1"
     inkscape:pageshadow="0"
     inkscape:pageopacity="0"
     inkscape:pagecheckerboard="0"
     inkscape:document-units="mm"
     showgrid="false"
     inkscape:zoom="0.57767376"
     inkscape:cx="379.10671"
     inkscape:cy="341.02293"
     inkscape:window-width="1133"
     inkscape:window-height="842"
     inkscape:window-x="0"
     inkscape:window-y="38"
     inkscape:window-maximized="0"
     inkscape:current-layer="layer1" />
  <defs
     id="defs2" />
  <g
     inkscape:label="Layer 1"
     inkscape:groupmode="layer"
     id="layer1">
    <path
       style="fill:#000000;stroke-width:0.25004"
       d="m 75.779418,68.984049 4.9499,-3.711237 9.48467,-19.727449 C 102.48183,20.029096 104.06347,16.655535 104.09271,15.942487 104.15161,14.507704 103.5775,14.103636 96.877458,10.8638 l -6.51826,-3.1519398 -1.05195,0.395365 -1.05194,0.395369 -11.87559,24.4934578 -11.87558,24.49346 -0.006,9.319761 c -0.005,6.954373 0.0845,9.406128 0.35213,9.660017 4.08978,-1.521801 7.39024,-4.831416 10.92979,-7.485245 z m -9.66143,4.677513 c 0.0116,-0.226665 0.0216,-3.752907 0.0225,-7.83608 l 0.002,-7.423956 1.75699,-0.240354 1.75703,-0.240341 0.7708,2.415033 c 0.5415,1.696578 0.88636,2.457661 1.15922,2.558312 0.21361,0.07881 1.44055,-0.217519 2.72653,-0.658496 l 2.33816,-0.801775 0.87653,1.27176 c 0.48211,0.699471 0.93272,1.442754 1.00138,1.65175 0.0961,0.291868 -1.25766,1.429177 -5.84203,4.908264 -3.2818,2.490557 -6.10703,4.591222 -6.27829,4.668147 -0.18699,0.084 -0.30303,-0.02479 -0.29043,-0.272258 z m 12.7005,-12.030081 -0.93538,-1.438266 8.74014,-17.77548 8.74015,-17.775478 1.24398,0.602197 1.24398,0.602202 -3.93396,8.216023 c -10.43671,21.796671 -13.87396,28.897956 -14.01273,28.950109 -0.0831,0.03126 -0.57198,-0.590439 -1.08643,-1.38148 z m -6.97017,-2.596647 -0.62769,-1.966648 8.66519,-17.869341 8.66522,-17.869344 2.64247,1.302099 2.64246,1.302099 -8.74798,17.804575 -8.74798,17.804573 -1.93182,0.729398 -1.93182,0.729393 -0.62771,-1.966681 z M 68.183728,56.4374 c -0.65267,0.07687 -1.20943,0.134577 -1.23723,0.128215 -0.0278,-0.0064 3.93792,-8.354303 8.81277,-18.55101 l 8.86334,-18.539462 1.10862,0.506505 c 0.60972,0.27858 1.10466,0.591553 1.09977,0.695499 -0.0253,0.540801 -16.83368,35.384866 -17.12146,35.493022 -0.18654,0.07009 -0.87313,0.19035 -1.52581,0.267227 z m 19.21103,-42.604521 c 1.15671,-2.392565 2.11728,-4.0679778 2.39154,-4.1710623 0.63409,-0.2383172 12.376582,5.4234473 12.581812,6.0664523 0.0948,0.297246 -0.58572,2.010393 -1.78056,4.48193 l -1.934152,4.000757 -6.5959,-3.189658 -6.59593,-3.189664 z"
       id="path474"
       sodipodi:nodetypes="ccssscccccsccsscccssscscssssscccccsssccccccccccccssscsssssssscccs" />
  </g>
</svg>
