<?xml version="1.0" encoding="iso-8859-1"?>
<!-- Generator: Adobe Illustrator 16.0.0, SVG Export Plug-In . SVG Version: 6.00 Build 0)  -->
<!DOCTYPE svg PUBLIC "-//W3C//DTD SVG 1.1//EN" "http://www.w3.org/Graphics/SVG/1.1/DTD/svg11.dtd">
<svg version="1.1" id="Capa_1" xmlns="http://www.w3.org/2000/svg" xmlns:xlink="http://www.w3.org/1999/xlink" x="0px" y="0px"
	 width="381.085px" height="381.085px" viewBox="0 0 381.085 381.085" style="enable-background:new 0 0 381.085 381.085;"
	 xml:space="preserve">
<g>
	<g>
		<path d="M117.017,228.17l62.572-25.619c-0.228-9.552-0.538-17.883-0.8-23.681c-7.281,6.137-13.119,10.825-16.272,12.938
			c-11.782,7.87-42.137,18.929-57.445,24.265c-18.141-11.724-44.589-7.392-62.163,11.304c-19.221,20.435-20.879,49.908-3.795,67.084
			c0.303,0.316,0.625,0.607,0.934,0.923c17.878,16.792,48.25,13.628,67.692-7.076C124.561,270.395,127.935,245.593,117.017,228.17z
			 M48.834,286.02l-0.63-0.619c-11.981-12.039-10.165-34.133,4.041-49.254c14.613-15.543,36.853-18.462,49.563-6.504l0.636,0.606
			c11.992,12.027,10.159,34.12-4.046,49.254C83.79,295.045,61.557,297.977,48.834,286.02z"/>
		<path d="M204.321,356.28c13.884-20.867,12.845-47.188-2.476-62.577c-0.21-0.211-0.443-0.387-0.653-0.584
			c-0.596-14.434-0.129-45.729,11.28-81.343C214.211,197.226,316.41,2.557,316.41,2.557L309.333,0L187.64,172.044
			c0,0,4.771,79.504-2.814,111.733c-18.963-5.36-41.5,3.549-54.584,23.214c-13.884,20.866-12.839,47.175,2.476,62.565
			c1.827,1.846,3.865,3.516,6.037,4.951C159.166,388.111,188.581,379.926,204.321,356.28z M200.771,181.462
			c-3.036-3.047-3.013-7.987,0.023-11.023c3.06-3.036,7.987-3.036,11.035,0.023c3.036,3.048,3.024,7.987-0.023,11.023
			C208.747,184.539,203.807,184.527,200.771,181.462z M145.848,363.835c-1.46-0.958-2.826-2.078-4.04-3.315
			c-11.041-11.094-11.409-30.606-0.888-46.429c11.812-17.749,33.256-24.335,47.794-14.655c1.46,0.97,2.82,2.09,4.052,3.305
			c11.029,11.094,11.415,30.617,0.887,46.429C181.825,366.941,160.386,373.504,145.848,363.835z"/>
		<path d="M353.765,29.87l-5.372-5.395L279.23,89.143c-12.611,24.621-25.701,50.48-36.27,72.019L353.765,29.87z"/>
	</g>
</g>
<g>
</g>
<g>
</g>
<g>
</g>
<g>
</g>
<g>
</g>
<g>
</g>
<g>
</g>
<g>
</g>
<g>
</g>
<g>
</g>
<g>
</g>
<g>
</g>
<g>
</g>
<g>
</g>
<g>
</g>
</svg>
