<?xml version="1.0" encoding="UTF-8" standalone="no"?>
<!-- Created with Inkscape (http://www.inkscape.org/) -->

<svg
   width="210mm"
   height="297mm"
   viewBox="0 0 210 297"
   version="1.1"
   id="svg5"
   sodipodi:docname="bishop.svg"
   inkscape:version="1.1.1 (c3084ef, 2021-09-22)"
   xmlns:inkscape="http://www.inkscape.org/namespaces/inkscape"
   xmlns:sodipodi="http://sodipodi.sourceforge.net/DTD/sodipodi-0.dtd"
   xmlns="http://www.w3.org/2000/svg"
   xmlns:svg="http://www.w3.org/2000/svg">
  <sodipodi:namedview
     id="namedview7"
     pagecolor="#505050"
     bordercolor="#eeeeee"
     borderopacity="1"
     inkscape:pageshadow="0"
     inkscape:pageopacity="0"
     inkscape:pagecheckerboard="0"
     inkscape:document-units="mm"
     showgrid="false"
     inkscape:zoom="2.7042094"
     inkscape:cx="113.34181"
     inkscape:cy="489.05236"
     inkscape:window-width="1512"
     inkscape:window-height="837"
     inkscape:window-x="0"
     inkscape:window-y="38"
     inkscape:window-maximized="1"
     inkscape:current-layer="layer1" />
  <defs
     id="defs2" />
  <g
     inkscape:label="Layer 1"
     inkscape:groupmode="layer"
     id="layer1">
    <g
       id="g236">
      <path
         d="m 12.078138,149.64662 c -0.742892,-0.38743 -1.45451,-1.11501 -1.471851,-1.50489 -0.0168,-0.37793 1.67812,-2.09742 2.47826,-2.51419 1.35306,-0.70476 3.82883,-1.11389 6.799969,-1.12374 3.441181,-0.0114 6.852941,-0.28387 6.852941,-0.54726 0,-0.10764 -0.506011,-0.27233 -1.124479,-0.36599 -0.618461,-0.0936 -1.779321,-0.49811 -2.57968,-0.89879 -1.198891,-0.60018 -1.5133,-0.90488 -1.785012,-1.72984 -0.44097,-1.3389 0.187,-4.20629 1.226522,-5.60047 l 0.734239,-0.98475 -1.24039,-1.24039 c -1.668319,-1.66832 -2.213181,-3.31023 -2.05791,-6.20144 0.0927,-1.72698 0.283739,-2.50291 0.96739,-3.92998 1.06085,-2.21444 3.48402,-4.7166 5.939531,-6.13313 l 1.789118,-1.0321 -0.581989,-0.61951 c -0.838419,-0.89244 -0.97215,-3.10801 -0.25636,-4.24722 1.535039,-2.44305 4.70993,-2.48344 6.329508,-0.0805 0.808583,1.19967 0.717701,3.37096 -0.181149,4.32775 l -0.581988,0.6195 1.789117,1.0321 c 2.438782,1.40688 4.781363,3.82539 5.896013,6.0871 0.740619,1.50279 0.919049,2.20328 1.01274,3.97601 0.152839,2.89181 -0.392742,4.53442 -2.059741,6.20142 l -1.240399,1.24041 0.734248,0.98475 c 1.039521,1.39416 1.667491,4.26156 1.226521,5.60045 -0.271711,0.82498 -0.586121,1.12967 -1.785009,1.72986 -0.800372,0.40068 -1.961221,0.80513 -2.57969,0.89879 -0.618461,0.0936 -1.124482,0.25834 -1.124482,0.366 0,0.26542 3.433731,0.53703 6.852941,0.54207 1.5424,0.002 3.49808,0.16736 4.34597,0.36685 1.592712,0.37474 4.229179,1.96896 4.694713,2.8388 0.3506,0.65514 -0.16846,1.43797 -1.313841,1.98149 -0.832644,0.39511 -1.055794,0.39511 -2.854246,-7e-5 -1.435245,-0.31537 -3.365346,-0.43016 -7.301285,-0.43422 -3.370851,-0.004 -5.962092,-0.13371 -7.003942,-0.35204 -1.36311,-0.28564 -1.944169,-0.28564 -3.307289,0 -1.041331,0.21822 -3.662021,0.35011 -7.077599,0.35618 -3.799411,0.007 -5.899441,0.12446 -7.011461,0.39297 -2.009849,0.48529 -2.21584,0.48516 -3.149949,-0.002 z m 24.049776,-22.85647 c 0,-0.3233 0.233278,-0.95853 -0.183498,-1.08203 -0.685966,-0.20326 -3.497919,-0.22501 -3.994901,-0.39766 -0.112371,-0.82416 -0.285307,-3.15022 -0.545111,-3.97723 -0.42797,-0.29523 -0.774541,-0.20009 -1.12025,-0.0573 -0.249982,0.32739 -0.441587,3.37072 -0.557449,3.92539 -0.03819,0.18283 -3.605379,0.3626 -4.111654,0.65474 -0.358976,0.20716 -0.291714,0.675 -0.160147,0.94963 0.156464,0.32661 3.889092,0.2446 4.152712,0.5934 0.303109,0.40104 0.497613,3.51856 0.879587,3.71373 0.226435,0.1157 0.881322,0.17981 1.107395,-0.0784 0.215875,-0.2466 -0.01178,-3.43572 0.438167,-3.71422 0.495937,-0.30697 4.095149,-0.22928 4.095149,-0.53002 z"
         style="fill:#000000;stroke-width:0.0700042"
         id="path780"
         sodipodi:nodetypes="ssssscssscscsscsssscsssscssscscsssscsscssssscccsssssssss" />
    </g>
  </g>
</svg>
