<?xml version="1.0" encoding="UTF-8" standalone="no"?>
<!-- Created with Inkscape (http://www.inkscape.org/) -->

<svg
   width="210mm"
   height="297mm"
   viewBox="0 0 210 297"
   version="1.1"
   id="svg5"
   inkscape:version="1.1.1 (c3084ef, 2021-09-22)"
   sodipodi:docname="king.svg"
   xmlns:inkscape="http://www.inkscape.org/namespaces/inkscape"
   xmlns:sodipodi="http://sodipodi.sourceforge.net/DTD/sodipodi-0.dtd"
   xmlns="http://www.w3.org/2000/svg"
   xmlns:svg="http://www.w3.org/2000/svg">
  <sodipodi:namedview
     id="namedview7"
     pagecolor="#505050"
     bordercolor="#eeeeee"
     borderopacity="1"
     inkscape:pageshadow="0"
     inkscape:pageopacity="0"
     inkscape:pagecheckerboard="0"
     inkscape:document-units="mm"
     showgrid="false"
     inkscape:zoom="5.831142"
     inkscape:cx="86.003736"
     inkscape:cy="144.82583"
     inkscape:window-width="1512"
     inkscape:window-height="837"
     inkscape:window-x="0"
     inkscape:window-y="38"
     inkscape:window-maximized="1"
     inkscape:current-layer="layer1" />
  <defs
     id="defs2" />
  <g
     inkscape:label="Layer 1"
     inkscape:groupmode="layer"
     id="layer1">
    <path
       id="path283"
       style="fill:#000000;stroke-width:0.0700042"
       d="m 30.063281,1.5936001 c -0.692341,-0.00635 -1.553959,0.3683726 -2.179196,0.8950358 -0.328321,0.276561 0.08746,4.5743603 -0.288869,4.9309651 -0.390147,0.3696833 -4.255741,0.3720973 -4.815728,0.3741373 -1.41195,0.00508 -1.725278,2.7981937 -1.611788,3.6008137 0.07941,0.56169 0.243033,0.640485 1.478463,0.711584 l 5.033802,0.0801 0.04444,1.345654 c 0.04346,1.314623 0.02029,2.904168 -0.572059,3.429765 -1.233415,1.09441 -2.17057,2.518057 -1.603003,4.508252 l 0.329695,1.156518 -2.549715,-1.3255 c -2.15479,-1.09723 -2.48807,-1.186572 -4.77852,-1.286743 -2.11632,-0.09257 -2.655973,-0.02416 -3.843692,0.486792 -1.758191,0.756349 -3.533959,2.702917 -4.288628,4.702038 -0.71624,1.897308 -0.6225462,4.654308 0.213424,6.284888 0.76783,1.497661 2.682871,3.558132 4.417301,4.752681 l 1.466578,1.010275 0.0021,4.387844 0.0021,4.387847 1.092439,0.623734 c 1.489331,0.850729 4.472475,1.877277 6.708635,2.308387 1.23237,0.23759 3.268558,0.327385 6.085418,0.267684 4.890661,-0.1036 7.234131,-0.598837 10.451041,-2.207617 l 1.984375,-0.992188 0.07286,-4.134114 0.07286,-4.134115 1.514637,-1.005107 c 4.854173,-3.220778 7.006542,-7.443083 5.739183,-11.258743 -0.65059,-1.958751 -2.867883,-4.173051 -4.964039,-4.957321 -2.736244,-1.023759 -7.066817,-0.198729 -9.356018,1.301213 l -1.875338,0.86558 0.643374,-1.234033 C 35.556743,19.80711 34.634445,17.55581 33.225361,16.943567 32.513217,16.512247 32.8042,15.148505 32.8042,13.833163 v -1.434538 l 5.22242,-0.123507 c 1.235432,-0.07113 1.399043,-0.149377 1.478463,-0.711067 0.113487,-0.80262 -0.331097,-3.5172658 -1.743046,-3.5222658 -0.535962,-0.00193 -4.448252,0.00298 -4.844151,-0.3198771 -0.416748,-0.3398795 -0.446312,-4.5056744 -0.480073,-4.9454344 -0.04697,-0.6120069 -1.472922,-0.966039 -1.927532,-1.1151775 -0.136774,-0.044869 -0.287229,-0.06623 -0.447,-0.067696 z M 30.357106,36.98235 c 2.242134,0.01918 3.955648,0.05539 6.229593,0.74259 1.865477,1.251196 2.850872,1.538272 0.807704,1.280544 -4.778695,-0.811072 -9.247065,-0.920514 -14.336077,0 -1.829303,0.358447 -1.767885,0.113813 0.145211,-1.072287 2.500209,-0.836735 4.612481,-0.972572 7.153569,-0.950847 z m -0.600784,5.444932 c 0.155667,-3e-6 0.312989,7.09e-4 0.471808,0.0021 2.242134,0.01918 3.955647,0.05487 6.229593,0.742071 1.865476,1.251197 2.850872,1.538788 0.807701,1.28106 -4.778692,-0.811072 -9.247063,-0.920514 -14.336075,0 -1.829303,0.358447 -1.767885,0.113297 0.145211,-1.072803 2.343946,-0.784437 4.346769,-0.952357 6.681762,-0.952397 z"
       sodipodi:nodetypes="ssccccccccccccsscccccsccccccssccccsccscccsscccccccccccccc" />
  </g>
</svg>
