<?xml version="1.0" encoding="UTF-8" standalone="no"?>
<!-- Created with Inkscape (http://www.inkscape.org/) -->

<svg
   width="210mm"
   height="297mm"
   viewBox="0 0 210 297"
   version="1.1"
   id="svg5"
   sodipodi:docname="knight.svg"
   inkscape:version="1.1.1 (c3084ef, 2021-09-22)"
   xmlns:inkscape="http://www.inkscape.org/namespaces/inkscape"
   xmlns:sodipodi="http://sodipodi.sourceforge.net/DTD/sodipodi-0.dtd"
   xmlns="http://www.w3.org/2000/svg"
   xmlns:svg="http://www.w3.org/2000/svg">
  <sodipodi:namedview
     id="namedview7"
     pagecolor="#505050"
     bordercolor="#eeeeee"
     borderopacity="1"
     inkscape:pageshadow="0"
     inkscape:pageopacity="0"
     inkscape:pagecheckerboard="0"
     inkscape:document-units="mm"
     showgrid="false"
     inkscape:zoom="6.037782"
     inkscape:cx="149.97229"
     inkscape:cy="669.03707"
     inkscape:window-width="1512"
     inkscape:window-height="837"
     inkscape:window-x="0"
     inkscape:window-y="38"
     inkscape:window-maximized="1"
     inkscape:current-layer="layer1" />
  <defs
     id="defs2" />
  <g
     inkscape:label="Layer 1"
     inkscape:groupmode="layer"
     id="layer1">
    <path
       d="m 47.520572,191.34808 c -0.714693,-17.13198 -7.079793,-22.70174 -11.290014,-26.06399 -1.243435,-0.993 -3.559063,-2.78721 -5.038526,-3.43841 -1.148019,-0.30861 -1.410388,-0.37917 -1.549823,-1.83032 -0.154729,-1.6104 -0.395976,-1.60993 -1.586151,0.003 -0.474768,0.64342 -0.985467,1.31868 -1.13493,1.50059 -0.156581,0.1906 -0.880269,0.33072 -1.708124,0.33072 h -1.436423 l -1.114874,-1.50912 c -1.181656,-1.59959 -1.827441,-1.48387 -1.599632,0.30848 0.194573,1.53086 0.734153,2.53217 -0.596543,4.3024 -2.196915,2.92252 -6.768921,11.42539 -7.097692,13.17786 -0.24167,1.28826 0.0768,2.88859 0.964846,3.54142 1.702278,1.06128 2.376744,1.18597 4.231367,0.78224 1.82528,-0.71795 2.446363,-1.09095 5.587097,-3.0304 4.961493,-3.73053 3.838449,-3.39651 5.287204,-4.35961 1.695793,-0.95794 1.691026,1.53131 1.771515,2.5885 -0.0057,1.51558 -1.582689,3.86501 -2.464327,5.17126 -0.705681,0.94091 -2.392063,3.02717 -3.683834,5.43766 -1.95312,3.6446 -2.349106,4.55499 -2.712167,6.52723 l -0.182642,0.99219 H 34.936167 47.705436 Z M 16.032201,178.23517 c 0,0 -0.02828,-0.49764 0.361751,-0.91173 0.245985,-0.26116 0.608473,-0.39484 0.978839,-0.3175 0.647481,0.1352 0.897124,0.49724 0.884818,1.08638 -0.01512,0.72409 -0.236016,0.81881 -0.594959,0.9652 -0.250259,0.10206 -0.78225,0.10049 -1.073881,-0.0272 -0.297749,-0.19841 -0.517845,-0.44124 -0.556568,-0.79515 z m 7.035983,-8.60245 c 0,0.0225 -1.082949,-1.11764 0.778167,-2.37483 0.459453,-0.31036 1.27649,-0.49593 1.882286,0.0439 0.438643,0.39088 0.578392,0.71381 0.353649,1.25634 -0.186063,0.44915 -0.376101,0.64459 -0.879556,1.05789 -1.047986,0.86031 -1.444935,0.43973 -2.134546,0.0167 z"
       style="fill:#000000;stroke-width:0.0700042"
       id="path1012"
       sodipodi:nodetypes="sscssssccsssccccccsscccscssssccssssss" />
  </g>
</svg>
