<?xml version="1.0" encoding="UTF-8" standalone="no"?>
<!-- Created with Inkscape (http://www.inkscape.org/) -->

<svg
   width="210mm"
   height="297mm"
   viewBox="0 0 210 297"
   version="1.1"
   id="svg5"
   sodipodi:docname="pawn.svg"
   inkscape:version="1.1.1 (c3084ef, 2021-09-22)"
   xmlns:inkscape="http://www.inkscape.org/namespaces/inkscape"
   xmlns:sodipodi="http://sodipodi.sourceforge.net/DTD/sodipodi-0.dtd"
   xmlns="http://www.w3.org/2000/svg"
   xmlns:svg="http://www.w3.org/2000/svg">
  <sodipodi:namedview
     id="namedview7"
     pagecolor="#505050"
     bordercolor="#eeeeee"
     borderopacity="1"
     inkscape:pageshadow="0"
     inkscape:pageopacity="0"
     inkscape:pagecheckerboard="0"
     inkscape:document-units="mm"
     showgrid="false"
     inkscape:zoom="3.1394462"
     inkscape:cx="123.74794"
     inkscape:cy="1036.3293"
     inkscape:window-width="1512"
     inkscape:window-height="837"
     inkscape:window-x="0"
     inkscape:window-y="38"
     inkscape:window-maximized="1"
     inkscape:current-layer="layer1" />
  <defs
     id="defs2" />
  <g
     inkscape:label="Layer 1"
     inkscape:groupmode="layer"
     id="layer1">
    <path
       d="m 44.487051,288.69499 c -5e-6,-0.30343 -0.02776,-0.65142 -0.07937,-1.03042 -0.03496,-0.25666 -0.08086,-0.52755 -0.136503,-0.80845 -0.04631,-0.23377 -0.09936,-0.47447 -0.158463,-0.71967 -0.05853,-0.24282 -0.122989,-0.49006 -0.192709,-0.73936 -0.07778,-0.27814 -0.162114,-0.55885 -0.252053,-0.83885 -0.09402,-0.29272 -0.194176,-0.58467 -0.299389,-0.87212 -0.07649,-0.20899 -0.155661,-0.41559 -0.237091,-0.61838 -0.0784,-0.19524 -0.158905,-0.38695 -0.241137,-0.57384 -0.07794,-0.17713 -0.157431,-0.34992 -0.238167,-0.5173 -0.06858,-0.14217 -0.138048,-0.28043 -0.208225,-0.4141 -0.148902,-0.28363 -0.306106,-0.56035 -0.471129,-0.82971 -0.171189,-0.27943 -0.350791,-0.55095 -0.538265,-0.81407 -0.07503,-0.1053 -0.151317,-0.20926 -0.228832,-0.31184 -0.101065,-0.13374 -0.204215,-0.26515 -0.309372,-0.39415 -0.138902,-0.17039 -0.281307,-0.33658 -0.427036,-0.49841 -0.171211,-0.19013 -0.347012,-0.37423 -0.527114,-0.55206 -0.12362,-0.12206 -0.249267,-0.24115 -0.376847,-0.35721 -0.17511,-0.15929 -0.353862,-0.31286 -0.536017,-0.46047 -0.12761,-0.10342 -0.256889,-0.20391 -0.387756,-0.30142 -0.177547,-0.13228 -0.358016,-0.25905 -0.5412,-0.38013 -0.170325,-0.11258 -0.342998,-0.22024 -0.517852,-0.32283 -0.183009,-0.10737 -0.368407,-0.20919 -0.556005,-0.30527 -0.143023,-0.0733 -0.287324,-0.14319 -0.432819,-0.20972 -0.187192,-0.0856 -0.37636,-0.16554 -0.567325,-0.2397 -0.131139,-0.0509 -0.263126,-0.0991 -0.395902,-0.14453 -0.291896,-0.0998 -0.370503,-0.19284 -0.114662,-0.49985 0.08049,-0.0966 0.194088,-0.21437 0.344562,-0.3602 0.135248,-0.13107 0.30029,-0.28482 0.497863,-0.46622 0.15902,-0.14601 0.309054,-0.29237 0.450327,-0.43959 0.13091,-0.13643 0.254297,-0.27358 0.370339,-0.41186 0.194816,-0.23215 0.368931,-0.46747 0.52319,-0.70782 0.109157,-0.17007 0.208372,-0.34266 0.297944,-0.51842 0.09529,-0.18698 0.179663,-0.37755 0.253485,-0.5725 0.08599,-0.22707 0.157655,-0.46008 0.215577,-0.70028 0.05993,-0.24852 0.105139,-0.50473 0.136268,-0.77002 0.03462,-0.29504 0.05182,-0.60131 0.05247,-0.92072 7.36e-4,-0.37458 -0.02182,-0.7346 -0.06829,-1.08116 -0.02922,-0.21789 -0.0679,-0.43047 -0.116187,-0.63799 -0.04388,-0.18858 -0.0957,-0.373 -0.155575,-0.55344 -0.02681,-0.0808 -0.05523,-0.1608 -0.08528,-0.24002 -0.02131,-0.0562 -0.04343,-0.11196 -0.06638,-0.16736 -0.02762,-0.0667 -0.05643,-0.13283 -0.08644,-0.19843 -0.01996,-0.0436 -0.04046,-0.087 -0.06148,-0.13018 -0.01876,-0.0385 -0.03794,-0.0768 -0.05755,-0.11496 -0.0267,-0.0519 -0.05419,-0.10351 -0.08247,-0.15475 -0.02049,-0.0371 -0.0414,-0.0741 -0.06272,-0.11087 -0.01864,-0.0322 -0.0376,-0.0642 -0.05688,-0.096 -0.02202,-0.0364 -0.04446,-0.0727 -0.06732,-0.10875 -0.0192,-0.0303 -0.0387,-0.0605 -0.05849,-0.0906 -0.02116,-0.0321 -0.04266,-0.0641 -0.06449,-0.096 -0.02403,-0.0351 -0.04847,-0.07 -0.07332,-0.10471 -0.02053,-0.0287 -0.04134,-0.0573 -0.06244,-0.0858 -0.01563,-0.0211 -0.03142,-0.0422 -0.04737,-0.0632 -0.02816,-0.0371 -0.0568,-0.074 -0.08592,-0.11066 -0.02262,-0.0285 -0.04554,-0.0569 -0.06874,-0.0852 -0.02354,-0.0287 -0.04738,-0.0573 -0.07152,-0.0857 -0.02454,-0.0289 -0.04939,-0.0578 -0.07456,-0.0865 -0.02794,-0.0319 -0.05626,-0.0636 -0.08497,-0.0952 -0.024,-0.0264 -0.04827,-0.0527 -0.07281,-0.079 -0.02236,-0.0239 -0.04494,-0.0477 -0.06774,-0.0714 -0.03085,-0.0321 -0.06211,-0.0641 -0.09378,-0.0959 -0.03871,-0.0389 -0.07805,-0.0776 -0.118,-0.11602 -0.02615,-0.0252 -0.05257,-0.0503 -0.07925,-0.0753 -0.03687,-0.0346 -0.07426,-0.0689 -0.112151,-0.10316 -0.02486,-0.0224 -0.04993,-0.0448 -0.07523,-0.0671 -0.02239,-0.0197 -0.04496,-0.0394 -0.06769,-0.0591 -0.02293,-0.0198 -0.04604,-0.0396 -0.06932,-0.0593 -0.02391,-0.0202 -0.048,-0.0404 -0.07228,-0.0605 -0.02236,-0.0185 -0.04487,-0.037 -0.06754,-0.0554 -0.02214,-0.018 -0.04443,-0.0359 -0.06687,-0.0539 -0.02462,-0.0196 -0.04942,-0.0392 -0.0744,-0.0587 -0.01938,-0.0152 -0.03888,-0.0303 -0.05848,-0.0454 -0.02596,-0.02 -0.0521,-0.0399 -0.07845,-0.0598 -0.02464,-0.0186 -0.04944,-0.0371 -0.07442,-0.0556 -0.02481,-0.0184 -0.04979,-0.0367 -0.07494,-0.055 -0.02143,-0.0156 -0.04299,-0.0311 -0.06466,-0.0466 -0.02561,-0.0183 -0.05138,-0.0366 -0.07733,-0.0548 -0.0186,-0.0131 -0.03728,-0.0261 -0.05606,-0.0391 -0.02205,-0.0153 -0.04421,-0.0306 -0.0665,-0.0458 -0.02043,-0.014 -0.04097,-0.0279 -0.0616,-0.0418 -0.01453,-0.01 -0.0291,-0.0196 -0.04373,-0.0293 -0.01841,-0.0123 -0.03691,-0.0246 -0.05548,-0.0368 l -0.06706,-0.0442 -0.07406,-0.0488 -0.06919,-0.0456 -0.05978,-0.0394 -0.07613,-0.0502 -0.07086,-0.0467 -0.10063,-0.0664 -0.04726,-0.0312 -0.05052,-0.0333 0.0297,-0.0554 0.03657,-0.0682 0.05747,-0.10723 0.05343,-0.0997 0.07261,-0.13548 0.05279,-0.0985 0.05613,-0.10472 0.06957,-0.1298 0.07261,-0.13548 0.05942,-0.11087 c 0.02421,-0.0452 0.0476,-0.0905 0.07017,-0.13597 0.01841,-0.0371 0.03627,-0.0743 0.05359,-0.11151 0.03483,-0.0749 0.06747,-0.1502 0.09794,-0.22572 0.0332,-0.0823 0.06382,-0.1649 0.09187,-0.2477 0.01882,-0.0556 0.03648,-0.11119 0.053,-0.16689 0.01698,-0.0573 0.03274,-0.11458 0.0473,-0.17193 0.0179,-0.0705 0.03397,-0.14106 0.04824,-0.21159 0.01694,-0.0838 0.03131,-0.16747 0.04315,-0.25103 0.0099,-0.07 0.01806,-0.13998 0.02443,-0.20975 0.0086,-0.0944 0.01398,-0.18843 0.01615,-0.28203 0.0017,-0.0728 0.0014,-0.14528 -7.67e-4,-0.21743 -0.0023,-0.0749 -0.0066,-0.14937 -0.01302,-0.22339 -0.0064,-0.0745 -0.01497,-0.14846 -0.02557,-0.22189 -0.01048,-0.0726 -0.02297,-0.14467 -0.03748,-0.21611 -0.01298,-0.0639 -0.02757,-0.12736 -0.04375,-0.19024 -0.0125,-0.0485 -0.02594,-0.0968 -0.04034,-0.1446 -0.01617,-0.0538 -0.03353,-0.10706 -0.05208,-0.15987 -0.0262,-0.0746 -0.05476,-0.14818 -0.08567,-0.22069 -0.02689,-0.0631 -0.05555,-0.12531 -0.08597,-0.18666 -0.02621,-0.0529 -0.05373,-0.10505 -0.08255,-0.15654 -0.05188,-0.0927 -0.107971,-0.18307 -0.168227,-0.27091 -0.04743,-0.0691 -0.09744,-0.13669 -0.150005,-0.20253 -0.0957,-0.11988 -0.199878,-0.23406 -0.31238,-0.3418 -0.05892,-0.0564 -0.120112,-0.11107 -0.183572,-0.16384 -0.07101,-0.059 -0.144849,-0.11573 -0.221492,-0.1699 -0.07534,-0.0532 -0.151279,-0.10365 -0.227743,-0.15121 -0.07557,-0.047 -0.151652,-0.0912 -0.228165,-0.13269 -0.08188,-0.0444 -0.164253,-0.0856 -0.247024,-0.12362 -0.06583,-0.0303 -0.131912,-0.0585 -0.198202,-0.0848 -0.06195,-0.0246 -0.124072,-0.0474 -0.186336,-0.0684 -0.06256,-0.0212 -0.125266,-0.0406 -0.188068,-0.0583 -0.06712,-0.0189 -0.134356,-0.0358 -0.201656,-0.0507 -0.06021,-0.0133 -0.120475,-0.0251 -0.180753,-0.0352 -0.06323,-0.0107 -0.126485,-0.0196 -0.189714,-0.0268 -0.06953,-0.008 -0.139026,-0.0137 -0.208445,-0.0174 -0.04916,-0.003 -0.09827,-0.004 -0.147323,-0.005 -0.05541,-6.2e-4 -0.110742,8e-5 -0.165971,0.002 -0.0606,0.002 -0.121072,0.006 -0.181387,0.0116 -0.06733,0.006 -0.13446,0.0143 -0.201339,0.0245 -0.06803,0.0103 -0.135808,0.0227 -0.203269,0.0371 -0.07191,0.0154 -0.143453,0.0331 -0.214575,0.0532 -0.07371,0.0208 -0.146968,0.0441 -0.219707,0.0699 -0.06844,0.0242 -0.136405,0.0507 -0.20385,0.0794 -0.07433,0.0316 -0.148027,0.0658 -0.221011,0.10275 -0.0644,0.0326 -0.128227,0.0672 -0.191447,0.1039 -0.06311,0.0366 -0.125611,0.0753 -0.187453,0.11606 -0.07725,0.0509 -0.153469,0.10498 -0.228543,0.16226 -0.0775,0.0591 -0.153788,0.12165 -0.228739,0.18756 -0.06767,0.0595 -0.134242,0.12176 -0.199646,0.18676 -0.04002,0.0398 -0.07959,0.0806 -0.118706,0.12238 -0.03432,0.0367 -0.06828,0.0742 -0.101879,0.11243 -0.03592,0.0409 -0.07087,0.0817 -0.104828,0.12224 -0.03694,0.0441 -0.07272,0.0881 -0.107348,0.13191 -0.03932,0.0498 -0.07716,0.0993 -0.113496,0.14869 -0.03817,0.0519 -0.07469,0.10355 -0.109583,0.15511 -0.04211,0.0622 -0.08183,0.12425 -0.119176,0.18617 -0.04064,0.0674 -0.07847,0.13461 -0.113488,0.20182 -0.03391,0.0651 -0.06519,0.13011 -0.09385,0.19521 -0.03788,0.086 -0.07119,0.17219 -0.09996,0.25867 -0.02766,0.0832 -0.05111,0.16661 -0.07039,0.25058 -0.02075,0.0904 -0.03665,0.18136 -0.04774,0.27315 -0.01039,0.086 -0.01655,0.1728 -0.01851,0.26048 -0.0012,0.054 -8.08e-4,0.10826 0.0012,0.16297 0.0022,0.0603 0.0063,0.12103 0.01233,0.18233 0.007,0.0714 0.01666,0.14345 0.02888,0.21638 0.01243,0.0742 0.02755,0.1492 0.04534,0.22519 0.0152,0.0649 0.03235,0.13058 0.05144,0.19699 0.02209,0.0768 0.04677,0.15468 0.07404,0.23366 0.01736,0.0503 0.03577,0.10101 0.05523,0.15222 0.02343,0.0617 0.04839,0.12408 0.07485,0.18721 0.03288,0.0785 0.0681,0.15804 0.10564,0.23887 0.02728,0.0587 0.05579,0.11814 0.08553,0.17822 0.03974,0.0803 0.07697,0.15602 0.111773,0.22761 0.017,0.035 0.03342,0.0689 0.04926,0.10191 0.02304,0.048 0.04486,0.0939 0.06548,0.13788 0.03225,0.0688 0.06161,0.13294 0.0881,0.19276 0.02649,0.0598 0.05013,0.11536 0.07097,0.16701 0.02918,0.0723 0.05288,0.13699 0.0713,0.19519 0.02345,0.0741 0.03833,0.13775 0.04498,0.19321 0.0049,0.0407 0.0053,0.077 0.0015,0.10988 -0.0044,0.0376 -0.0143,0.0706 -0.0296,0.10047 -0.019,0.0371 -0.0462,0.0693 -0.08125,0.0994 -0.0363,0.0311 -0.08095,0.0599 -0.133575,0.0894 -0.08976,0.0502 -0.185469,0.1107 -0.285588,0.1798 -0.204105,0.14087 -0.42655,0.31767 -0.654375,0.51696 -0.160298,0.14022 -0.323261,0.29158 -0.484372,0.4494 -0.150516,0.14744 -0.299417,0.30053 -0.443021,0.45544 -0.103492,0.11164 -0.204234,0.22424 -0.300847,0.33635 -0.203849,0.23657 -0.38932,0.47101 -0.54347,0.68993 -0.126343,0.17944 -0.231647,0.34845 -0.308784,0.49965 -0.05982,0.11727 -0.11586,0.23516 -0.168125,0.35359 -0.08451,0.1915 -0.159157,0.3844 -0.224018,0.57832 -0.06511,0.19467 -0.120356,0.39036 -0.165811,0.5867 -0.03804,0.16431 -0.06923,0.32908 -0.09359,0.49406 -0.02803,0.18981 -0.04705,0.37991 -0.0571,0.56995 -0.01375,0.25985 -0.01076,0.5196 0.0088,0.77836 0.01133,0.14974 0.02821,0.29915 0.05061,0.44806 0.03614,0.24024 0.08665,0.47916 0.151389,0.71606 0.05053,0.18489 0.109728,0.36855 0.177534,0.55062 0.05802,0.15581 0.12235,0.31046 0.192939,0.46374 0.07058,0.15327 0.147429,0.30517 0.230496,0.45548 0.08995,0.16276 0.187189,0.32366 0.291675,0.48243 0.09422,0.14318 0.194341,0.28462 0.300312,0.42413 0.102116,0.13444 0.209668,0.26708 0.322622,0.39775 0.134019,0.15503 0.275644,0.30728 0.424818,0.45646 l 0.553413,0.55342 0.447391,0.44739 0.38265,0.38265 -0.47356,0.22063 -0.467484,0.2178 -0.817853,0.38104 c -0.264326,0.12315 -0.524122,0.25983 -0.779011,0.40943 -0.241505,0.14174 -0.478605,0.29508 -0.710979,0.45949 -0.2224,0.15735 -0.440471,0.32484 -0.653933,0.50202 -0.24905,0.20671 -0.491825,0.42661 -0.72788,0.65895 -0.250074,0.24615 -0.492605,0.50626 -0.727064,0.77949 -0.228568,0.26636 -0.449464,0.54517 -0.662196,0.83564 -0.106537,0.14546 -0.211025,0.29385 -0.313405,0.44506 -0.123469,0.18236 -0.243871,0.36882 -0.361097,0.55921 -0.194804,0.31638 -0.380839,0.64361 -0.557607,0.98087 -0.10057,0.19188 -0.19814,0.38701 -0.29262,0.58523 -0.103167,0.21645 -0.202648,0.4366 -0.298325,0.66024 -0.144096,0.33682 -0.279562,0.68158 -0.405992,1.03361 -0.126659,0.35267 -0.244248,0.71263 -0.352359,1.07922 -0.08589,0.29125 -0.1658,0.58668 -0.239521,0.88595 -0.124639,0.50599 -0.231591,1.02297 -0.319865,1.54934 -0.0495,0.29515 -0.09313,0.59325 -0.130702,0.89401 l -0.186002,1.48885 h 1.0606 1.040691 1.618853 1.541765 2.197014 2.119927 1.734485 1.284854 1.336146 1.541764 1.464677 1.96575 1.387588 1.387588 0.925059 0.925059 1.002147 0.66241 z"
       style="fill:#000000;stroke-width:0.0700042"
       id="path1664"
       sodipodi:nodetypes="sssssssssssssssssssssssssssssssssssscssssssssssssssssssssssssssssssssssssssssssssssccccccccccccccccccsssssssssssssssssssssssssssssssssssssssssssssssssssssssssssssssssssssssssssssssssssssssssssssssssssssssssscccccssssssssssssssssscccccccccccccccccccs" />
  </g>
</svg>
