<?xml version="1.0" encoding="UTF-8" standalone="no"?>
<!-- Created with Inkscape (http://www.inkscape.org/) -->

<svg
   width="210mm"
   height="297mm"
   viewBox="0 0 210 297"
   version="1.1"
   id="svg5"
   sodipodi:docname="queen.svg"
   inkscape:version="1.1.1 (c3084ef, 2021-09-22)"
   xmlns:inkscape="http://www.inkscape.org/namespaces/inkscape"
   xmlns:sodipodi="http://sodipodi.sourceforge.net/DTD/sodipodi-0.dtd"
   xmlns="http://www.w3.org/2000/svg"
   xmlns:svg="http://www.w3.org/2000/svg">
  <sodipodi:namedview
     id="namedview7"
     pagecolor="#505050"
     bordercolor="#eeeeee"
     borderopacity="1"
     inkscape:pageshadow="0"
     inkscape:pageopacity="0"
     inkscape:pagecheckerboard="0"
     inkscape:document-units="mm"
     showgrid="false"
     inkscape:zoom="3.5805876"
     inkscape:cx="146.20505"
     inkscape:cy="285.00909"
     inkscape:window-width="1512"
     inkscape:window-height="837"
     inkscape:window-x="0"
     inkscape:window-y="38"
     inkscape:window-maximized="1"
     inkscape:current-layer="layer1" />
  <defs
     id="defs2" />
  <g
     inkscape:label="Layer 1"
     inkscape:groupmode="layer"
     id="layer1">
    <path
       d="m 25.679979,99.653037 c -3.863351,-0.206651 -8.123394,-0.688592 -8.879605,-1.00456 -0.97074,-0.405601 -1.703728,-1.331862 -1.703728,-2.152951 0,-0.787829 1.225748,-3.486349 2.003398,-4.410538 1.226878,-1.458061 0.857943,-2.687392 -1.67564,-5.583413 -0.620099,-0.7088 -1.187294,-1.542258 -1.260433,-1.852128 -0.07314,-0.309862 -0.607177,-3.480422 -1.186746,-7.045683 -1.358297,-8.355629 -1.167403,-7.672919 -2.145414,-7.672919 -0.574275,0 -1.0810048,-0.265829 -1.7147508,-0.899581 -0.73401,-0.734009 -0.899584,-1.101658 -0.899584,-1.997508 0,-1.4834 0.576445,-2.495741 1.73386,-3.044971 2.7371458,-1.298858 5.5463888,1.614022 4.1465978,4.299572 l -0.52699,1.011049 3.077957,4.836269 3.077953,4.836271 0.07091,-6.56948 c 0.05499,-5.094509 -0.0038,-6.594401 -0.26204,-6.68047 -0.618337,-0.20611 -1.764921,-1.5393 -1.946682,-2.26351 -0.0993,-0.395631 -0.03938,-1.19048 0.133149,-1.76634 0.393433,-1.313151 1.553836,-2.07768 3.1556,-2.079061 0.956823,-7.94e-4 1.30266,0.150741 2.050521,0.898601 0.735126,0.735119 0.899583,1.10108 0.899583,2.001769 0,1.281282 -0.341045,2.04706 -1.24243,2.78974 l -0.64534,0.53171 2.426742,6.165461 c 1.334712,3.391 2.474635,6.117569 2.533166,6.05904 0.05853,-0.0585 0.702458,-3.07226 1.430954,-6.69717 l 1.324533,-6.590761 -0.672261,-0.490489 c -0.898062,-0.65523 -1.451197,-1.78438 -1.451197,-2.96241 0,-0.742061 0.204676,-1.170321 0.883991,-1.849631 1.451565,-1.45157 2.845848,-1.52731 4.378288,-0.23785 1.47315,1.239581 1.423456,3.32422 -0.113808,4.774052 l -0.900787,0.849548 1.355701,6.77555 c 0.745633,3.726551 1.385922,6.74392 1.422866,6.705262 0.03694,-0.0387 1.149313,-2.724132 2.471933,-5.96773 l 2.404769,-5.897452 -0.924396,-0.92439 c -0.782349,-0.782349 -0.924388,-1.107419 -0.924388,-2.115508 0,-1.993501 1.299152,-3.289162 3.298039,-3.289162 0.704895,0 1.19266,0.22874 1.931366,0.905711 0.898112,0.82306 0.988301,1.031049 0.988301,2.27921 0,1.283899 -0.07368,1.438871 -1.129419,2.37576 l -1.129419,1.002279 0.07109,6.133912 0.07109,6.133899 3.077953,-4.836311 3.077954,-4.836319 -0.526989,-1.011049 c -1.399789,-2.68555 1.409451,-5.59843 4.146597,-4.299572 1.157415,0.54923 1.73386,1.561571 1.73386,3.044971 0,0.89585 -0.165574,1.263499 -0.899583,1.997508 -0.633746,0.633752 -1.140476,0.899581 -1.714752,0.899581 -0.978011,0 -0.787117,-0.68271 -2.145413,7.672919 -0.57957,3.565261 -1.113608,6.735821 -1.186747,7.045683 -0.07314,0.30987 -0.640334,1.143328 -1.26043,1.852128 -2.490515,2.84679 -2.878203,4.077071 -1.740529,5.523392 0.623837,0.79308 1.27781,2.80027 1.465029,4.496509 0.160375,1.45302 -0.629692,2.180169 -2.729817,2.512452 -3.680748,0.582358 -12.255871,0.889158 -17.304425,0.619109 z"
       style="fill:#000000;stroke-width:0.0700042"
       id="path515"
       sodipodi:nodetypes="sssssssssssscccscsscssscscscssssscscscsssssscccccsssssssssssss" />
  </g>
</svg>
