<?xml version="1.0" encoding="UTF-8" standalone="no"?>
<!-- Created with Inkscape (http://www.inkscape.org/) -->

<svg
   width="210mm"
   height="297mm"
   viewBox="0 0 210 297"
   version="1.1"
   id="svg5"
   inkscape:version="1.1.1 (c3084ef, 2021-09-22)"
   sodipodi:docname="cage.svg"
   xmlns:inkscape="http://www.inkscape.org/namespaces/inkscape"
   xmlns:sodipodi="http://sodipodi.sourceforge.net/DTD/sodipodi-0.dtd"
   xmlns="http://www.w3.org/2000/svg"
   xmlns:svg="http://www.w3.org/2000/svg">
  <sodipodi:namedview
     id="namedview7"
     pagecolor="#505050"
     bordercolor="#eeeeee"
     borderopacity="1"
     inkscape:pageshadow="0"
     inkscape:pageopacity="0"
     inkscape:pagecheckerboard="0"
     inkscape:document-units="mm"
     showgrid="false"
     inkscape:zoom="0.4032206"
     inkscape:cx="329.84426"
     inkscape:cy="719.20929"
     inkscape:window-width="1312"
     inkscape:window-height="832"
     inkscape:window-x="0"
     inkscape:window-y="38"
     inkscape:window-maximized="0"
     inkscape:current-layer="layer1" />
  <defs
     id="defs2" />
  <g
     inkscape:label="Layer 1"
     inkscape:groupmode="layer"
     id="layer1">
    <g
       id="g10">
      <path
         style="fill:#000000;stroke-width:0.264583"
         d="m 37.892628,264.02477 c -2.0734,-1.07191 -8.11043,-4.48482 -13.415621,-7.58424 -5.3052,-3.09942 -12.08659,-6.99908 -15.0697696,-8.66591 -11.48563,-6.41752 -30.7772704,-17.51397 -38.6925004,-22.25572 -9.8909,-5.92532 -9.12523,-5.02131 -9.48466,-11.1982 -0.72097,-12.38973 -0.48451,-170.057216 0.2653,-176.897553 0.22857,-2.085184 1.26393,-3.6045 2.90409,-4.261514 1.2143,-0.486428 28.7867504,-4.97861 95.01402,-15.479953 C 116.04395,8.7020568 129.69817,6.6171146 130.41286,6.8403755 c 5.34234,1.6688938 68.93506,33.0885135 78.81048,38.9383475 1.52716,0.904637 2.11298,1.413521 2.33012,2.024116 0.80467,2.262706 0.89342,11.233901 0.89677,90.641701 0.004,99.11337 0.0338,98.13241 -2.98622,98.94561 -1.16634,0.31406 -15.11137,2.79438 -31.25261,5.55872 -6.03911,1.03426 -12.28989,2.10805 -13.89062,2.38621 -4.7015,0.81698 -42.16982,7.22865 -54.10729,9.25897 -22.660803,3.85414 -67.711582,11.37965 -68.123272,11.37965 -0.23527,0 -2.12418,-0.87702 -4.19759,-1.94893 z m 16.166289,-8.28285 c 6.29556,-0.83322 11.59384,-1.60603 11.77396,-1.71734 0.38428,-0.23749 0.49088,-170.050775 0.10816,-172.298248 l -0.21933,-1.287997 -0.9713,0.166515 c -2.77372,0.475523 -8.55002,1.280864 -14.33275,1.9983 -3.56526,0.442325 -6.869239,0.870016 -7.342189,0.950423 l -0.85989,0.146196 v 86.771341 c 0,47.72424 0.0893,86.77459 0.19843,86.77855 0.10915,0.004 5.349349,-0.67452 11.644909,-1.50774 z m 33.33102,-5.39432 c 6.07728,-1.02728 11.16865,-1.98571 11.31417,-2.12986 0.17498,-0.17332 0.29311,-29.55483 0.34879,-86.75039 l 0.0842,-86.488303 -1.53942,0.135707 c -1.47912,0.130395 -19.61098,3.066677 -21.51545,3.484224 l -0.92604,0.20303 -0.23783,15.864496 c -0.25671,17.123906 0.19613,156.275926 0.51119,157.085846 0.23981,0.61645 -0.53575,0.70754 11.96038,-1.40475 z M 33.601408,148.09309 33.419138,79.292681 29.681418,77.207846 c -7.336701,-4.092284 -11.042391,-6.027039 -11.214361,-5.855067 -0.38541,0.385405 -0.55084,28.892601 -0.57148,98.474321 l -0.0217,73.05443 4.56406,2.39393 c 2.51023,1.31667 6.052341,3.21883 7.871351,4.22703 l 3.3073,1.8331 0.0835,-17.22105 c 0.0459,-9.47157 0.002,-48.18123 -0.0987,-86.02145 z m 78.464162,97.48712 c 6.54791,-0.71059 66.72467,-10.52473 67.15265,-10.95183 0.37383,-0.37307 0.51876,-26.46429 0.54933,-98.89582 l 0.0314,-74.28177 h -1.2066 c -1.41722,0 -10.74584,1.438786 -24.98715,3.853857 -5.60255,0.950092 -18.2758,3.094043 -28.16278,4.764336 -9.88699,1.670294 -18.04277,3.103317 -18.12396,3.184493 -0.28654,0.286473 -0.3159,172.426134 -0.0294,172.603184 0.29178,0.18033 0.88246,0.14614 4.7766,-0.27645 z M 9.4072374,152.3704 V 66.283754 l -7.73906,-4.571815 c -4.25648,-2.514499 -7.82836,-4.620974 -7.9375,-4.681056 -0.10914,-0.06008 -0.19843,38.822515 -0.19843,86.405767 v 86.51501 l 3.10885,1.5757 c 3.48371004,1.76569 11.70424,6.31149 12.09146,6.68635 0.13824,0.13383 0.3466,0.24333 0.46302,0.24333 0.11641,0 0.21166,-38.73899 0.21166,-86.08664 z m 187.9864626,79.2484 6.35,-0.96697 0.20425,-49.47708 c 0.20064,-48.60284 0.0548,-122.459384 -0.24518,-124.161975 -0.1468,-0.833207 -0.18916,-0.859613 -1.11417,-0.694439 -1.60696,0.286949 -13.36457,2.753374 -13.86001,2.907451 -0.43974,0.136755 -0.46302,4.507836 -0.46302,86.928533 v 86.78454 l 1.38906,-0.17654 c 0.76399,-0.0971 4.24657,-0.61169 7.73907,-1.14352 z M -15.260313,52.379717 c -0.18456,-0.114144 -3.01448,-1.643771 -6.28869,-3.399173 -3.27422,-1.755405 -6.69727,-3.607028 -7.60678,-4.114721 l -1.65364,-0.923075 0.002,86.475372 0.002,86.47538 7.86928,4.2612 7.86928,4.2612 0.071,-86.41432 c 0.0572,-69.571124 0.006,-86.454781 -0.26458,-86.621863 z m 70.05877,21.896027 c 5.66696,-0.94992 13.3992,-2.255541 17.18274,-2.901375 3.78354,-0.645832 16.70182,-2.851097 28.707293,-4.900586 54.86286,-9.365798 96.61901,-16.629679 96.8375,-16.845812 0.41344,-0.408982 -7.99704,-4.926229 -11.24479,-6.039545 l -1.32292,-0.453491 -12.83229,2.127578 C 131.86718,51.937371 43.113948,66.963222 34.079638,68.633648 c -1.63711,0.302699 -2.97656,0.658479 -2.97656,0.79062 0,0.769419 11.42329,6.489731 13.11204,6.565974 0.15387,0.007 4.916369,-0.764577 10.583339,-1.714498 z M 45.361928,58.264207 c 13.912999,-2.334705 32.321039,-5.425199 40.906769,-6.867766 8.58573,-1.442566 24.242443,-4.063801 34.792703,-5.824963 21.74379,-3.62971 50.04009,-8.401084 51.13073,-8.62176 0.40019,-0.08097 0.72761,-0.245359 0.72761,-0.365305 0,-0.657511 -9.63272,-5.995009 -13.88614,-7.694323 -1.89102,-0.755495 -2.30657,-0.828394 -3.96875,-0.696226 -4.72871,0.376004 -147.2838726,23.921175 -149.8909426,24.756787 -0.63337,0.203007 -0.58546,0.267198 1.12831,1.511803 2.38281,1.730489 12.8808996,8.046669 13.3743196,8.046669 0.21397,0 11.772401,-1.910212 25.685391,-4.244916 z M 15.492657,42.412977 C 75.725207,32.587063 139.07761,22.057024 142.16192,21.358808 c 0.96074,-0.217489 0.71892,-0.5236 -1.57699,-1.996365 -5.20242,-3.337222 -9.72277,-5.159171 -12.22128,-4.925855 -2.81448,0.26282 -40.639833,6.164419 -86.809532,13.544223 -25.731901,4.113009 -39.8662606,6.356617 -51.726041,8.210704 -6.18464,0.966866 -11.29153,1.804114 -11.34864,1.860547 -0.64709,0.639355 12.4346104,8.433712 13.7298904,8.180562 0.3638,-0.0711 10.8413,-1.789943 23.2833296,-3.819647 z"
         id="path57"
         sodipodi:nodetypes="ssssssssssscssssssssscssscsssssscsscssssccssscsscssccsccsssssccscssscssssscssssscsscssccccccccssssscssscsssssssssssssssssscss" />
      <path
         d="m 147.12723,64.046956 -0.56353,0.207172 -0.14473,16.1881 c -0.15622,17.473197 1.20328,161.761392 1.39501,162.587832 m -1.25028,-178.775932 -5.7835,-0.172941 -1.36875,0.249045 c -1.37925,0.250958 0.9718,178.478308 0.73796,178.720638 l 7.66457,-0.0208"
         style="fill:#000000;stroke-width:0.0551635"
         id="path1323"
         sodipodi:nodetypes="csccccscc" />
    </g>
  </g>
</svg>
