<?xml version="1.0" encoding="UTF-8" standalone="no"?>
<!-- Created with Inkscape (http://www.inkscape.org/) -->

<svg
   width="210mm"
   height="297mm"
   viewBox="0 0 210 297"
   version="1.1"
   id="svg5"
   sodipodi:docname="boy_2.svg"
   inkscape:version="1.1.1 (c3084ef, 2021-09-22)"
   xmlns:inkscape="http://www.inkscape.org/namespaces/inkscape"
   xmlns:sodipodi="http://sodipodi.sourceforge.net/DTD/sodipodi-0.dtd"
   xmlns="http://www.w3.org/2000/svg"
   xmlns:svg="http://www.w3.org/2000/svg">
  <sodipodi:namedview
     id="namedview7"
     pagecolor="#505050"
     bordercolor="#eeeeee"
     borderopacity="1"
     inkscape:pageshadow="0"
     inkscape:pageopacity="0"
     inkscape:pagecheckerboard="0"
     inkscape:document-units="mm"
     showgrid="false"
     inkscape:zoom="4.7602405"
     inkscape:cx="677.59181"
     inkscape:cy="974.74066"
     inkscape:window-width="1512"
     inkscape:window-height="842"
     inkscape:window-x="0"
     inkscape:window-y="38"
     inkscape:window-maximized="1"
     inkscape:current-layer="layer1" />
  <defs
     id="defs2" />
  <g
     inkscape:label="Layer 1"
     inkscape:groupmode="layer"
     id="layer1">
    <path
       style="fill:#000000;stroke-width:0.5;stroke-miterlimit:4;stroke-dasharray:none"
       d="m 151.72066,253.77071 c 0.0846,-0.25386 2.06509,-1.09172 4.40105,-1.86191 l 4.24719,-1.40033 0.2252,-3.90776 c 0.12386,-2.14926 0.22591,-4.97334 0.2268,-6.27573 l 0.002,-2.36797 -2.23654,0.20885 -2.23654,0.20885 -0.2313,-4.01449 c -0.12721,-2.20796 -0.23202,-5.8798 -0.2329,-8.15962 l -0.002,-4.14514 h -0.88194 c -0.48507,0 -0.88195,-0.12553 -0.88195,-0.27895 0,-0.15343 1.03188,-3.74033 2.29306,-7.9709 1.26118,-4.23058 2.29305,-7.71796 2.29305,-7.74974 0,-0.0318 -1.54781,0.0444 -3.43958,0.16934 -1.89177,0.12492 -3.55864,0.15659 -3.70417,0.0704 -0.14552,-0.0862 -0.26458,-1.64579 -0.26458,-3.46571 v -3.30896 l -1.4993,-0.1937 c -1.5208,-0.19647 -8.96336,-0.90786 -9.49808,-0.90786 -0.16033,0 -0.29368,0.35718 -0.29632,0.79375 -0.007,1.16791 -0.38511,2.38125 -0.74189,2.38125 -0.1714,0 -0.31163,-0.56781 -0.31163,-1.26179 v -1.26179 l -0.91331,1.0854 c -0.50231,0.59697 -1.05794,1.0854 -1.23472,1.0854 -0.60635,0 -0.32082,-0.84396 0.61654,-1.82236 1.03577,-1.0811 0.88495,-1.24788 -1.29073,-1.42724 -0.6791,-0.056 -1.1893,-0.26054 -1.13377,-0.45457 0.0555,-0.19402 0.69053,-0.30576 1.41111,-0.2483 1.45975,0.11641 1.2722,-0.12173 -1.07109,-1.36001 -1.26348,-0.66767 -1.75274,-1.3903 -0.94131,-1.3903 0.20989,0 1.34566,0.56501 2.52393,1.25558 2.39775,1.40528 2.7242,1.28693 2.7335,-0.99099 0.004,-0.89851 0.16444,-1.32292 0.50112,-1.32292 0.3903,0 0.45613,0.43653 0.30957,2.05281 l -0.18614,2.05281 4.71751,0.41714 c 6.46917,0.57203 6.30501,0.58416 6.30501,-0.46582 0,-0.48507 0.0397,-0.90131 0.0882,-0.92498 0.0485,-0.0237 2.29797,-0.14274 4.99882,-0.26459 3.45117,-0.1557 4.95397,-0.3526 5.05648,-0.66251 0.081,-0.24481 -0.14185,-0.44251 -0.50091,-0.44442 -2.16141,-0.0115 -7.64169,-4.07101 -8.59154,-6.36414 -0.50099,-1.20949 -0.37447,-1.18485 -2.60642,-0.50776 -2.51783,0.76381 -5.76479,0.68402 -7.17588,-0.17634 -0.63059,-0.38448 -1.14653,-0.91428 -1.14653,-1.17734 0,-1.03722 1.01924,-3.78081 1.74941,-4.70907 1.17198,-1.48994 3.81068,-3.22703 5.90459,-3.88708 1.68797,-0.53209 1.98695,-0.78572 2.96129,-2.51215 3.06419,-5.42945 9.65907,-8.91801 15.90692,-8.41443 6.66537,0.53722 12.01771,3.05599 14.22363,6.69353 0.23293,0.38411 1.25161,0.72109 2.99861,0.99197 1.45521,0.22563 2.79664,0.54659 2.98097,0.71324 0.47635,0.43069 -2.24067,0.37868 -4.39906,-0.0842 -2.16024,-0.46329 -2.7101,-0.20623 -0.81041,0.37886 0.74061,0.22811 1.57154,0.48726 1.84652,0.57589 0.31853,0.10268 0.37737,0.28375 0.16216,0.49896 -0.2145,0.2145 -0.76481,0.21534 -1.50762,0.002 -1.10073,-0.31568 -1.15747,-0.28944 -0.96073,0.44439 0.115,0.42894 0.21126,1.21644 0.21391,1.75002 0.004,0.78116 0.16596,0.97014 0.83208,0.97014 0.91777,0 1.99496,0.99172 1.99496,1.83667 0,0.785 -0.88354,1.40661 -2.13977,1.50543 -0.98577,0.0776 -1.21704,0.3523 -2.47821,2.94406 -1.63489,3.35976 -4.58994,6.73218 -6.86336,7.83273 -0.86429,0.41839 -1.57144,0.9617 -1.57144,1.20735 0,0.29032 1.75936,0.814 5.02708,1.49633 l 5.02709,1.0497 -0.1107,1.58093 -0.1107,1.58094 4.52042,0.94964 c 5.16149,1.08433 5.40165,1.1068 5.40433,0.5058 0.001,-0.24253 0.1673,-1.03628 0.36936,-1.76389 0.51139,-1.8414 1.16996,-1.72632 0.85311,0.14909 l -0.24869,1.472 1.50555,-1.1072 c 0.82805,-0.60896 1.6481,-1.0191 1.82231,-0.91142 0.42667,0.26369 -0.24448,1.02338 -1.69743,1.92135 -0.65729,0.40622 -1.19506,0.87466 -1.19506,1.04098 0,0.16631 0.68811,0.40558 1.52913,0.5317 0.84102,0.12612 1.74924,0.36534 2.01826,0.5316 0.90353,0.55841 0.0448,0.76431 -1.66591,0.39945 -0.93287,-0.19896 -1.72973,-0.32814 -1.7708,-0.28707 -0.0411,0.0411 0.48371,0.7803 1.16618,1.64273 1.63984,2.07226 0.8222,2.38516 -0.87947,0.33657 -1.23514,-1.48694 -1.26579,-1.50052 -1.49954,-0.66436 -0.13125,0.46949 -0.25446,1.43956 -0.2738,2.15571 -0.0338,1.25102 -0.50084,2.01728 -0.86773,1.42364 -0.0967,-0.15642 -0.039,-1.38686 0.12807,-2.73433 0.16711,-1.34746 0.23709,-2.51668 0.15552,-2.59826 -0.13128,-0.13127 -8.80975,-2.11612 -9.37635,-2.14445 -0.12316,-0.006 -0.33613,0.88682 -0.47327,1.98439 -0.38999,3.12135 -0.29873,3.03889 -3.05653,2.76193 -1.91977,-0.19279 -2.41773,-0.14448 -2.40949,0.23376 0.006,0.26223 0.79118,3.08502 1.74549,6.27288 0.9543,3.18786 1.65463,5.92629 1.55629,6.08542 -0.0983,0.15912 -0.89451,0.28931 -1.76926,0.28931 -1.34709,0 -1.56331,0.0945 -1.4131,0.61736 0.0975,0.33955 0.49751,1.72861 0.88882,3.08681 1.41053,4.89576 2.86193,10.42864 2.86193,10.90995 0,0.331 -0.80557,0.63521 -2.46944,0.93257 -1.3582,0.24272 -2.46934,0.61432 -2.4692,0.82578 1.3e-4,0.21146 0.39713,3.22863 0.88221,6.70481 0.48508,3.47619 0.7533,7.21686 0.7533,7.21686 0.5337,0.41163 8.2312,2.56216 8.47364,2.97214 0.14746,0.24936 0.0606,0.39234 -0.54974,0.37008 -2.89465,-0.86735 -5.99961,-1.68968 -8.84958,-2.69437 0,0 -1.47297,-14.13595 -1.73063,-14.42785 -0.11779,-0.13345 -1.4048,-0.0146 -2.86,0.26417 -1.45521,0.27874 -2.68946,0.50699 -2.74276,0.50722 -0.0533,2.3e-4 -0.25145,-0.40601 -0.44032,-0.90276 -0.34996,-0.92046 -1.05026,-0.8866 -1.05026,0.0508 0,0.65151 -1.41809,1.20354 -3.10977,1.21057 -2.22246,0.009 -2.21649,-0.007 -2.52387,7.01907 -0.15437,3.52867 -0.33901,6.46925 -0.41032,6.53461 -0.10937,0.10025 -5.98394,2.01418 -8.72625,2.843 -0.6093,0.18416 -0.79384,0.12756 -0.68163,-0.20905 z M 162.41,236.876 c 3.687,-0.38681 4.20473,-0.65296 4.63968,-2.38512 0.29695,-1.1826 1.0716,-0.95991 1.53393,0.44097 0.22413,0.6791 0.59363,1.23411 0.82111,1.23335 0.65559,-0.002 9.54065,-1.77613 9.70149,-1.93697 0.0797,-0.0797 -0.13308,-1.27935 -0.47286,-2.66586 l -0.61779,-2.52094 -1.08138,0.21628 c -0.59476,0.11895 -1.90052,0.31255 -2.90169,0.43022 l -1.82031,0.21394 -0.2155,-2.07112 c -0.11852,-1.13912 -0.3212,-3.22958 -0.4504,-4.64547 l -0.2349,-2.57435 -2.33402,0.22185 c -1.28371,0.12202 -3.44528,0.32797 -4.80347,0.45768 l -2.46944,0.23583 v 4.93889 4.93889 l -2.38125,0.10431 -2.38125,0.10432 v 3.01052 3.01052 l 0.97013,-0.19381 c 0.53358,-0.1066 2.55764,-0.36037 4.49792,-0.56393 z m -2.96976,-6.35387 h 1.38226 v -4.40973 -4.40972 h -1.38226 c -2.53253,0 -2.49829,-0.0663 -2.49829,4.83799 0,3.87615 0.0675,4.38381 0.55802,4.19559 0.30691,-0.11778 1.18003,-0.21413 1.94027,-0.21413 z m 16.55638,-1.9742 c 1.41287,-0.18742 1.74226,-0.35274 1.60694,-0.80647 -0.0936,-0.3139 -0.5948,-2.11854 -1.11373,-4.01031 l -0.94351,-3.43958 -1.27649,0.005 c -2.07501,0.009 -2.11592,0.10788 -1.74502,4.22793 0.39339,4.36986 0.48615,4.72252 1.17276,4.45904 0.28704,-0.11014 1.32161,-0.30635 2.29905,-0.43602 z m -7.41301,-8.62864 c 4.94771,-0.41952 9.2628,-0.86456 9.5891,-0.98899 0.52672,-0.20086 0.33831,-1.0713 -1.68025,-7.76221 -2.52332,-8.36405 -2.94265,-9.40939 -2.95923,-7.37701 -0.0122,1.49547 -0.88886,2.29 -2.88394,2.61376 -2.1758,0.35308 -3.82195,-1.82062 -3.8276,-5.05426 -10e-4,-0.61913 0.11985,-1.20099 0.26873,-1.293 0.14889,-0.092 1.4771,-0.22045 2.95158,-0.28541 l 2.68088,-0.1181 -0.51263,-1.41111 c -0.28195,-0.77611 -0.55969,-1.64924 -0.6172,-1.94028 -0.0575,-0.29104 -0.32159,-0.46685 -0.58686,-0.3907 -0.79858,0.22928 -7.13135,0.16047 -7.90434,-0.0859 -0.66134,-0.21077 -0.81441,0.13297 -1.90096,4.26882 -1.09382,4.16356 -5.47489,19.27757 -5.93708,20.48204 -0.17223,0.44882 0.13938,0.49676 2.06052,0.31694 1.2449,-0.11652 6.31157,-0.55509 11.25928,-0.9746 z m 12.14828,-14.53258 c 0.58222,-2.76283 0.93454,-6.01704 0.67738,-6.25666 -0.33019,-0.30766 -8.59232,-2.08277 -8.59232,-1.84605 0,0.0802 0.67087,2.02893 1.49082,4.33061 1.62323,4.55658 1.4934,4.42873 4.58787,4.51781 1.46489,0.0422 1.68943,-0.049 1.83625,-0.74571 z m -21.78266,-0.39039 c 0.23031,-0.23031 2.00902,-7.61715 1.8681,-7.75807 -0.0944,-0.0944 -2.11621,-0.082 -4.49294,0.0275 l -4.32133,0.1991 v 4.05337 4.05337 l 3.43781,-0.25235 c 1.8908,-0.13879 3.46956,-0.2841 3.50836,-0.3229 z m 13.31335,-0.0758 c 0.65615,-0.65616 0.7052,-1.72988 0.15158,-3.31801 l -0.40279,-1.15544 -2.09453,0.18992 c -1.15199,0.10447 -2.16675,0.26216 -2.25503,0.35043 -0.24415,0.24415 0.55303,3.51396 0.98302,4.03206 0.52896,0.63736 2.94759,0.5712 3.61775,-0.099 z m -1.84425,-10.07285 c 3.89972,-0.82743 6.04781,-2.46173 8.71802,-6.63277 3.06998,-4.7955 3.66382,-10.65785 1.24046,-12.24569 -1.29119,-0.84602 -1.48987,-0.28215 -0.32792,0.93067 1.46256,1.52659 0.80294,1.71941 -0.96118,0.28097 -1.70273,-1.38838 -2.95594,-1.4578 -1.67349,-0.0927 0.44098,0.4694 0.65637,0.99897 0.50556,1.24298 -0.18061,0.29224 -0.60575,0.0361 -1.35988,-0.81944 l -1.09712,-1.24458 -3.52778,0.47435 c -1.94028,0.26089 -6.201,0.58593 -9.46827,0.72231 -3.78455,0.15798 -5.9916,0.38872 -6.08131,0.63579 -0.0774,0.2133 -0.19689,0.77632 -0.26543,1.25114 -0.0685,0.47483 -0.33225,0.93253 -0.58602,1.01712 -0.35011,0.1167 -0.41424,-0.19793 -0.26584,-1.30429 0.10756,-0.80195 0.0689,-1.45809 -0.0859,-1.45809 -0.3526,0 -0.70973,0.90209 -0.70973,1.79274 0,1.14567 -0.65404,0.74733 -0.7714,-0.46983 l -0.11054,-1.14652 -0.88195,1.76389 c -2.44447,4.88894 0.0893,11.03449 5.70609,13.83963 1.65274,0.82541 6.14288,1.77371 8.65224,1.82732 0.81507,0.0174 2.3232,-0.14684 3.35139,-0.365 z m -6.93821,-5.4817 c -3.10635,-0.95304 -5.45259,-3.09506 -6.81398,-6.22088 -0.51707,-1.18723 -0.54366,-1.6591 -0.0935,-1.6591 0.18495,0 0.66933,0.75407 1.0764,1.6757 0.89811,2.03334 2.51814,3.78389 4.39779,4.75209 1.80383,0.92914 5.31805,1.21592 7.48059,0.61044 2.23057,-0.62452 4.84155,-3.1382 5.3869,-5.18614 0.46929,-1.76235 1.28364,-2.08848 0.94134,-0.37698 -0.62854,3.14268 -3.5059,5.87379 -6.97136,6.617 -2.25755,0.48415 -3.26341,0.44467 -5.4042,-0.21213 z m 0.76745,-8.45306 c -0.85658,-0.85658 0.25939,-2.88803 1.35547,-2.46742 0.86205,0.3308 0.5451,2.48122 -0.38533,2.61441 -0.39604,0.0567 -0.83261,-0.009 -0.97014,-0.14699 z m 3.4793,-0.33406 c -0.30491,-0.3049 -0.55437,-0.76981 -0.55437,-1.03313 0,-0.72623 1.01109,-1.58349 1.60076,-1.35721 0.72167,0.27693 1.04046,1.78348 0.51211,2.42012 -0.55313,0.66648 -0.86827,0.66045 -1.5585,-0.0298 z m -17.75587,6.80821 c 1.574,-0.68051 1.48718,-1.55014 -0.15476,-1.55014 -1.12513,0 -2.39929,-1.11361 -2.39929,-2.09695 0,-0.79153 1.33838,-1.9012 2.29305,-1.9012 0.75791,0 0.88195,-0.15955 0.88195,-1.13448 v -1.13447 l -1.94028,1.91617 c -2.25925,2.23119 -2.59979,1.70949 -0.50542,-0.7743 1.37708,-1.63314 1.39484,-1.68453 0.44097,-1.27647 -3.34733,1.43199 -5.74204,3.97677 -6.01416,6.39107 -0.16591,1.47193 -0.11342,1.59511 0.83411,1.95736 1.36352,0.52129 4.94068,0.30515 6.56383,-0.39659 z m 0.62095,-3.60801 c 0,-0.95381 -0.14448,-1.23472 -0.635,-1.23472 -1.23667,0 -2.08182,1.8157 -1.0407,2.2358 1.23595,0.49872 1.6757,0.23601 1.6757,-1.00108 z m 33.97774,-1.36812 c 0.23542,-0.6135 -0.40918,-1.27771 -1.23997,-1.27771 -0.44214,0 -0.635,0.26785 -0.635,0.88194 0,0.69504 0.17891,0.88194 0.8442,0.88194 0.46432,0 0.92816,-0.21878 1.03077,-0.48617 z m -17.74997,-6.17003 2.99862,-0.23617 -2.5829,-0.21268 c -1.4206,-0.11698 -2.73362,-0.3634 -2.91782,-0.54761 -0.45738,-0.45738 1.50713,-3.11732 2.95374,-3.99936 0.62473,-0.38091 1.4842,-0.69315 1.90994,-0.69388 1.0495,-0.002 2.4526,1.3073 3.09781,2.89023 0.58779,1.44206 0.48239,1.60323 -1.37165,2.09751 -1.7867,0.47633 3.09846,0.0136 6.76018,-0.64038 1.79476,-0.32052 3.2632,-0.69431 3.2632,-0.83065 0,-0.13633 -0.30739,-0.63865 -0.68308,-1.11626 -1.72082,-2.18767 -8.73288,-4.59656 -13.42804,-4.613 -2.44622,-0.009 -5.62182,0.76707 -7.90099,1.92982 -1.67,0.85197 -4.72464,3.6776 -5.6127,5.19191 l -0.63731,1.08672 5.5762,-0.035 c 3.06691,-0.0193 6.92557,-0.14129 8.5748,-0.27119 z m 4.47845,-1.77213 c 0.31608,-0.16571 0.28117,-0.51075 -0.13955,-1.37946 -0.80524,-1.66262 -1.60761,-1.99122 -3.11522,-1.27582 -1.0599,0.50296 -2.63479,2.13972 -2.63479,2.73831 0,0.49095 4.92725,0.42149 5.88956,-0.083 z"
       id="path3991"
       sodipodi:nodetypes="cscsccccsccssssssscssssscssssssssscsscssssssssssssssssssssscscssssssscccscsscssssssssssssssscsscssssssssscsccssssscsssccssscsscsscsscsscccccccssscccsssscssccssccssssscsscsssssssssssssssssscccssssscssssssssssssscssssssssscssssssssssssssscsscssssssssssscsssssssssssssssccssscssssscssccscssssss" />
  </g>
</svg>
