<?xml version="1.0" encoding="UTF-8" standalone="no"?>
<!-- Created with Inkscape (http://www.inkscape.org/) -->

<svg
   width="210mm"
   height="297mm"
   viewBox="0 0 210 297"
   version="1.1"
   id="svg5"
   inkscape:version="1.1.1 (c3084ef, 2021-09-22)"
   sodipodi:docname="boy_1.svg"
   xmlns:inkscape="http://www.inkscape.org/namespaces/inkscape"
   xmlns:sodipodi="http://sodipodi.sourceforge.net/DTD/sodipodi-0.dtd"
   xmlns="http://www.w3.org/2000/svg"
   xmlns:svg="http://www.w3.org/2000/svg">
  <sodipodi:namedview
     id="namedview7"
     pagecolor="#505050"
     bordercolor="#eeeeee"
     borderopacity="1"
     inkscape:pageshadow="0"
     inkscape:pageopacity="0"
     inkscape:pagecheckerboard="0"
     inkscape:document-units="mm"
     showgrid="false"
     inkscape:zoom="1.5613115"
     inkscape:cx="564.58945"
     inkscape:cy="215.20369"
     inkscape:window-width="1312"
     inkscape:window-height="842"
     inkscape:window-x="0"
     inkscape:window-y="38"
     inkscape:window-maximized="0"
     inkscape:current-layer="layer1" />
  <defs
     id="defs2" />
  <g
     inkscape:label="Layer 1"
     inkscape:groupmode="layer"
     id="layer1">
    <path
       d="m 153.64036,103.94172 c 0,-0.17801 1.54781,-0.83278 3.43958,-1.455 1.89178,-0.62222 3.54613,-1.23063 3.67634,-1.35199 0.13021,-0.12139 0.35057,-3.117915 0.48968,-6.658905 l 0.25294,-6.43819 h -2.49734 c -1.37354,0 -2.5607,-0.11909 -2.63815,-0.26458 -0.0774,-0.14552 0.0611,-2.40774 0.30782,-5.02709 0.24675,-2.61939 0.56313,-6.24267 0.70306,-8.05179 l 0.25444,-3.2893 -1.24823,0.23419 c -0.69141,0.1297 -1.34147,0.0833 -1.45725,-0.10406 -0.11496,-0.18601 0.26373,-1.63359 0.84154,-3.21683 1.37752,-3.774502 1.40911,-5.019542 0.0748,-2.949052 -1.15171,1.787212 -2.1838,2.119102 -1.30498,0.41965 0.54314,-1.05034 0.5389,-1.07111 -0.14414,-0.70556 -1.7721,0.9484 -1.45074,-0.10049 0.38603,-1.26 l 1.48895,-0.93994 -3.64327,-3.39976 c -2.96211,-2.76414 -3.5517,-3.47577 -3.15351,-3.80624 0.26938,-0.22356 1.70651,-1.20076 3.19363,-2.17156 2.70314,-1.76464 2.70378,-1.76543 2.37011,-2.92885 -0.18356,-0.64006 -0.33376,-1.25789 -0.33376,-1.37299 0,-0.11509 1.67153,-0.97392 3.7145,-1.90851 l 3.7145,-1.69926 -1.50963,-0.85207 c -2.98633,-1.68554 -4.84235,-4.11553 -5.93547,-7.77099 -0.38806,-1.29766 -0.58049,-1.4993 -1.43084,-1.4993 -0.61284,0 -1.18736,-0.29249 -1.527,-0.77739 -0.70534,-1.00702 -0.15051,-1.95485 1.67861,-2.86764 0.71243,-0.35553 1.29533,-0.87599 1.29533,-1.15659 0,-0.340167 0.97684,-2.250339 0.97684,-2.250339 -1.09055,-2.486974 -0.86776,-2.71207 1.46045,-2.57814 0.0603,0.0035 0.0926,-0.02144 0.0926,-0.02144 -0.61887,-1.939909 -0.61211,-2.444273 1.58142,-1.850919 -0.37432,-2.342676 0.0815,-2.814438 2.03576,-1.960551 0.45754,0.199917 0.1609,-0.144608 0.1609,-0.144608 -0.0499,-2.130354 0.72455,-2.645282 2.19588,-0.965616 0.87065,-2.591024 0.44686,-2.466937 3.07217,-0.809552 1.28046,-2.097745 1.18959,-2.11834 2.6233,-0.487353 1.464,-1.92953 1.4818,-1.588965 2.61342,0.2797 1.60804,-1.503498 1.23432,-1.989735 2.79529,0.55969 1.81315,-1.376628 1.82354,-1.425503 2.50716,0.85792 1.72778,-1.053785 2.09473,-0.834377 2.09044,0.635599 -5.6e-4,0.191879 -0.005,0.548656 0.15465,0.497973 1.52992,-0.486299 1.85786,-0.741347 1.85209,1.488399 2.10368,-0.69632 2.28371,-0.181757 1.70331,2.059355 0.0773,0.274738 0.26005,0.141779 0.26005,0.141779 2.14516,-0.02144 2.18393,0.152417 1.33399,2.40363 1.4827,3.30096 1.7121,3.936895 2.50406,4.055435 0.39648,0.0594 1.00077,0.41718 1.34286,0.79518 0.85537,0.94517 0.20946,2.38495 -1.19603,2.66605 -0.85076,0.17015 -1.0998,0.49187 -1.59378,2.05897 -1.09717,3.48064 -3.44564,5.92195 -7.14184,7.4242 -2.1498,0.87374 -2.13712,0.8922 1.09307,1.5908 4.30503,0.93105 4.47356,1.01181 4.26904,2.04561 -0.72147,3.64702 -0.91603,3.19262 2.42658,5.66732 1.6698,1.23624 2.97876,2.42686 2.9088,2.64584 -0.07,0.21897 -1.99032,1.74534 -4.26745,3.39193 -4.46512,3.22874 -4.42442,3.11311 -1.36822,3.88612 1.71359,0.43341 2.11413,1.27386 0.44097,0.92528 -0.58208,-0.12126 -1.56801,-0.32639 -2.19094,-0.45583 l -1.13261,-0.23532 1.13261,1.37403 c 1.12645,1.366602 1.44209,2.271642 0.79224,2.271642 -0.1872,0 -0.51756,-0.3311 -0.73414,-0.73576 -0.21657,-0.40468 -0.47314,-0.6564 -0.57015,-0.55938 -0.097,0.097 0.002,0.50983 0.22018,0.91739 0.44421,0.83 0.36857,0.88138 -1.83663,1.2478 -1.25907,0.20921 -1.29814,0.25586 -0.83557,0.99762 0.59184,0.94906 3.22003,14.64772 2.87684,14.99464 -0.1346,0.13607 -2.1581,0.56491 -4.49667,0.95297 l -4.25194,0.70554 0.0648,7.22204 c 0.0357,3.97214 0.10229,7.259513 0.14805,7.305253 0.0458,0.0458 1.74354,0.35116 3.77285,0.67866 3.49258,0.56361 4.60105,0.93358 4.14966,1.38499 -0.20008,0.20008 -8.36243,-1.09244 -8.63779,-1.36779 -0.0814,-0.0814 -0.24469,-3.515023 -0.36287,-7.630223 l -0.21487,-7.48223 -0.99856,0.19971 c -0.87743,0.17547 -1.08212,0.0404 -1.68752,-1.11368 l -0.68897,-1.3134 -0.60281,1.49932 -0.6028,1.49931 h -2.20209 -2.20209 l -0.20497,3.08679 c -0.11273,1.69775 -0.30305,4.78515 -0.42293,6.86091 l -0.21796,3.774073 -3.76033,1.25301 c -4.09929,1.36594 -4.28816,1.40687 -4.28816,0.9293 z m 13.38477,-18.638135 c 0.47363,-1.01864 0.9985,-1.85208 1.16636,-1.85208 0.16787,0 0.62121,0.71438 1.00744,1.5875 0.38623,0.87313 0.77072,1.5875 0.85444,1.5875 0.29032,0 9.1672,-1.42335 9.92019,-1.59065 0.67629,-0.15025 0.72648,-0.30919 0.4717,-1.4936 -0.15682,-0.729 -0.4612,-2.19857 -0.6764,-3.26574 -0.37995,-1.8841 -0.4258,-1.94101 -1.58375,-1.9653 -2.51204,-0.0527 -3.88172,-1.87145 -4.45297,-5.91285 -0.16125,-1.14081 -0.34255,-2.11815 -0.4029,-2.17191 -0.0891,-0.0794 -9.06851,0.7298 -9.37013,0.84433 -0.0485,0.0185 -0.0882,0.56928 -0.0882,1.22415 0,3.2666 -1.73301,5.80419 -4.46549,6.5387 -1.62586,0.43702 -1.48705,0.0418 -2.08191,5.92711 l -0.22148,2.1912 3.29624,0.12472 c 6.02645,0.22802 5.64952,0.32888 6.62685,-1.77308 z m -6.1363,-8.06893 c 1.0987,-0.7199 1.76782,-1.96501 2.06217,-3.83731 0.32411,-2.06155 -0.008,-2.356 -2.34727,-2.08108 l -1.97814,0.23249 -0.21214,2.33543 c -0.11667,1.28447 -0.28585,2.7918 -0.37594,3.34962 -0.15543,0.96232 -0.10971,1.00344 0.89301,0.80288 0.58125,-0.11626 1.46249,-0.47717 1.95831,-0.80203 z m 18.01475,-1.19962 c -0.84778,-5.3017 -1.45072,-6.39831 -3.34819,-6.0896 l -1.1919,0.19394 0.21806,2.08621 c 0.33825,3.23623 1.67468,5.22873 3.50705,5.22873 1.019,0 1.03693,-0.0312 0.81498,-1.41928 z m -9.47641,-6.56378 c 5.86933,-0.53859 10.67152,-1.11321 10.67152,-1.27694 0,-0.16369 -1.05208,-2.869982 -2.33796,-6.013962 -1.28587,-3.14399 -2.64359,-6.82758 -3.01715,-8.18578 -0.37356,-1.35819 -0.9839,-3.50132 -1.35632,-4.7625 l -0.6771,-2.29305 -3.59467,-0.0223 -3.59467,-0.0223 -2.2855,4.78475 c -1.25702,2.63161 -3.04446,6.92787 -3.97209,9.54724 -0.92762,2.61941 -2.10313,5.856642 -2.61223,7.193892 l -0.92564,2.43136 1.51514,-0.20064 c 0.83333,-0.11033 6.31733,-0.64127 12.18667,-1.17985 z m 14.37758,-9.105732 4.07934,-2.97768 -2.56979,-1.94624 -2.56978,-1.94625 -0.39434,1.93747 c -0.21688,1.0656 -0.45501,1.99759 -0.52916,2.07108 -0.0742,0.0735 -0.84921,-0.004 -1.72233,-0.17318 -0.87313,-0.16875 -2.00936,-0.31372 -2.52496,-0.32217 l -0.93746,-0.0154 1.26421,3.175 c 0.69532,1.74625 1.39038,3.175 1.54458,3.175 0.1542,0 2.11606,-1.33996 4.35969,-2.97767 z m -24.9188,-0.57569 c 0.60743,-1.6633 1.10441,-3.14484 1.10441,-3.2923 0,-0.14746 -0.74644,-0.21533 -1.65877,-0.15082 l -1.65877,0.11731 -0.4977,-1.76389 c -0.27373,-0.97013 -0.54114,-1.81203 -0.59426,-1.87086 -0.0531,-0.0588 -1.25685,0.64362 -2.67498,1.561 l -2.57842,1.66797 3.6404,3.48121 c 2.00222,1.91466 3.67939,3.43471 3.72704,3.37789 0.0477,-0.0568 0.58362,-1.4642 1.19105,-3.12751 z m 23.05481,-7.00266 c 0.35666,-2.02131 0.52466,-3.78728 0.37333,-3.92438 -0.35338,-0.32017 -8.27667,-2.15371 -8.47026,-1.96012 -0.15971,0.15971 1.99482,8.0654 2.35835,8.6536 0.22042,0.35665 3.58025,1.05881 4.5815,0.95748 0.35994,-0.0364 0.69817,-1.12575 1.15708,-3.72658 z m -21.4011,2.35241 c 0.0417,-0.0477 1.0399,-2.0158 2.21813,-4.37363 2.13445,-4.27137 2.13918,-4.28771 1.30309,-4.49756 -0.57407,-0.14408 -1.9903,0.30626 -4.48331,1.42562 -2.00428,0.89993 -3.70117,1.68439 -3.77087,1.74326 -0.0697,0.0589 0.23683,1.48317 0.68116,3.16512 l 0.80786,3.0581 1.58402,-0.21712 c 0.87122,-0.11941 1.61818,-0.25612 1.65992,-0.30379 z m 16.53999,-10.15319 c 2.0814,-0.64881 2.77274,-1.08913 4.60554,-2.93318 1.69818,-1.70859 2.29087,-2.60177 2.78861,-4.20241 0.83076,-2.67159 0.53111,-5.67573 -0.8529,-8.55067 -1.54057,-2.41581 -4.13412,-5.219664 -5.06024,-5.92943 -2.00847,-1.242458 -2.35569,-1.524951 -4.43076,-2.10285 -1.69925,-0.432057 -3.4938,-0.522004 -6.02565,-0.61078 -1.1088,0.01382 -1.57469,0.114273 -2.32614,0.290844 -1.73451,0.478974 -2.39897,0.683 -3.44315,1.17708 -0.48248,0.302867 -1.13618,0.698963 -1.52822,1.017494 -0.61876,0.538701 -1.27683,1.233869 -1.82515,1.904862 -2.4453,2.99238 -3.69837,5.27941 -3.72719,8.83278 -0.0273,3.36694 0.70526,5.26713 2.98341,7.73864 1.97808,2.14596 3.48713,3.02932 6.48533,3.79633 3.31743,0.84869 8.87751,0.65577 12.35651,-0.42873 z m -8.27213,-4.90338 c -3.57856,-1.08855 -7.10085,-4.60604 -7.47179,-7.46162 -0.16125,-1.24134 0.52999,-1.07116 0.98129,0.24159 1.54421,4.49179 5.84684,7.16245 10.8874,6.75784 3.6434,-0.29246 6.20693,-2.05635 7.02749,-4.8354 0.46401,-1.57153 1.15625,-1.83522 0.97135,-0.37002 -0.29231,2.31631 -2.32615,4.52992 -5.04265,5.48835 -1.51234,0.53359 -5.84131,0.63912 -7.35309,0.17926 z m 3.3594,-9.41644 c -1.14884,-1.14884 0.14826,-3.29171 1.37581,-2.27293 0.77047,0.63943 0.70141,2.04003 -0.12232,2.48088 -0.51696,0.27667 -0.81897,0.22656 -1.25349,-0.20795 z m -3.62582,-0.18876 c -0.95939,-0.9594 -0.10382,-2.60382 1.2219,-2.34851 0.96353,0.18556 0.89729,2.54425 -0.0754,2.68365 -0.39032,0.0559 -0.90626,-0.0949 -1.14653,-0.33514 z m 18.60941,4.47125 c 0.58644,-0.70661 0.19557,-1.59199 -0.70282,-1.59199 -0.59841,0 -0.70019,0.17346 -0.56925,0.97014 0.20175,1.22753 0.16452,1.14653 0.52705,1.14653 0.17027,0 0.50553,-0.2361 0.74502,-0.52468 z m -33.07965,-1.25606 c 0.1341,-0.91365 0.0528,-1.05941 -0.54129,-0.97014 -1.0123,0.15211 -1.6315,1.26118 -0.94754,1.69719 0.91533,0.5835 1.32591,0.383 1.48883,-0.72705 z"
       style="fill:#000000;fill-opacity:1;stroke-width:1;stroke-miterlimit:4;stroke-dasharray:none"
       id="path4969"
       sodipodi:nodetypes="cssscscssccsscssscsssssscssssssssscssccccccssccsccssssssscsssscsssscssssccssssscsscccccsscsccsssssssssscssscsssssscsssscscssccsssscccsssccccccccsscscssccssscssscscssssssscssssscscssscccccccsssssssssssssssssscscccsssssssss" />
  </g>
</svg>
