<?xml version="1.0" encoding="UTF-8" standalone="no"?>
<!-- Created with Inkscape (http://www.inkscape.org/) -->

<svg
   width="210mm"
   height="297mm"
   viewBox="0 0 210 297"
   version="1.1"
   id="svg5"
   sodipodi:docname="children.svg"
   inkscape:version="1.1.1 (c3084ef, 2021-09-22)"
   xmlns:inkscape="http://www.inkscape.org/namespaces/inkscape"
   xmlns:sodipodi="http://sodipodi.sourceforge.net/DTD/sodipodi-0.dtd"
   xmlns="http://www.w3.org/2000/svg"
   xmlns:svg="http://www.w3.org/2000/svg">
  <sodipodi:namedview
     id="namedview7"
     pagecolor="#505050"
     bordercolor="#eeeeee"
     borderopacity="1"
     inkscape:pageshadow="0"
     inkscape:pageopacity="0"
     inkscape:pagecheckerboard="0"
     inkscape:document-units="mm"
     showgrid="false"
     inkscape:zoom="0.47123162"
     inkscape:cx="531.58572"
     inkscape:cy="615.40862"
     inkscape:window-width="1512"
     inkscape:window-height="840"
     inkscape:window-x="0"
     inkscape:window-y="38"
     inkscape:window-maximized="1"
     inkscape:current-layer="layer1" />
  <defs
     id="defs2" />
  <g
     inkscape:label="Layer 1"
     inkscape:groupmode="layer"
     id="layer1">
    <path
       style="fill:#000000;stroke-width:0.5;stroke-miterlimit:4;stroke-dasharray:none"
       d="m 151.72066,253.77071 c 0.0846,-0.25386 2.06509,-1.09172 4.40105,-1.86191 l 4.24719,-1.40033 0.2252,-3.90776 c 0.12386,-2.14926 0.22591,-4.97334 0.2268,-6.27573 l 0.002,-2.36797 -2.23654,0.20885 -2.23654,0.20885 -0.2313,-4.01449 c -0.12721,-2.20796 -0.23202,-5.8798 -0.2329,-8.15962 l -0.002,-4.14514 h -0.88194 c -0.48507,0 -0.88195,-0.12553 -0.88195,-0.27895 0,-0.15343 1.03188,-3.74033 2.29306,-7.9709 1.26118,-4.23058 2.29305,-7.71796 2.29305,-7.74974 0,-0.0318 -1.54781,0.0444 -3.43958,0.16934 -1.89177,0.12492 -3.55864,0.15659 -3.70417,0.0704 -0.14552,-0.0862 -0.26458,-1.64579 -0.26458,-3.46571 v -3.30896 l -1.4993,-0.1937 c -1.5208,-0.19647 -8.96336,-0.90786 -9.49808,-0.90786 -0.16033,0 -0.29368,0.35718 -0.29632,0.79375 -0.007,1.16791 -0.38511,2.38125 -0.74189,2.38125 -0.1714,0 -0.31163,-0.56781 -0.31163,-1.26179 v -1.26179 l -0.91331,1.0854 c -0.50231,0.59697 -1.05794,1.0854 -1.23472,1.0854 -0.60635,0 -0.32082,-0.84396 0.61654,-1.82236 1.03577,-1.0811 0.88495,-1.24788 -1.29073,-1.42724 -0.6791,-0.056 -1.1893,-0.26054 -1.13377,-0.45457 0.0555,-0.19402 0.69053,-0.30576 1.41111,-0.2483 1.45975,0.11641 1.2722,-0.12173 -1.07109,-1.36001 -1.26348,-0.66767 -1.75274,-1.3903 -0.94131,-1.3903 0.20989,0 1.34566,0.56501 2.52393,1.25558 2.39775,1.40528 2.7242,1.28693 2.7335,-0.99099 0.004,-0.89851 0.16444,-1.32292 0.50112,-1.32292 0.3903,0 0.45613,0.43653 0.30957,2.05281 l -0.18614,2.05281 4.71751,0.41714 c 6.46917,0.57203 6.30501,0.58416 6.30501,-0.46582 0,-0.48507 0.0397,-0.90131 0.0882,-0.92498 0.0485,-0.0237 2.29797,-0.14274 4.99882,-0.26459 3.45117,-0.1557 4.95397,-0.3526 5.05648,-0.66251 0.081,-0.24481 -0.14185,-0.44251 -0.50091,-0.44442 -2.16141,-0.0115 -7.64169,-4.07101 -8.59154,-6.36414 -0.50099,-1.20949 -0.37447,-1.18485 -2.60642,-0.50776 -2.51783,0.76381 -5.76479,0.68402 -7.17588,-0.17634 -0.63059,-0.38448 -1.14653,-0.91428 -1.14653,-1.17734 0,-1.03722 1.01924,-3.78081 1.74941,-4.70907 1.17198,-1.48994 3.81068,-3.22703 5.90459,-3.88708 1.68797,-0.53209 1.98695,-0.78572 2.96129,-2.51215 3.06419,-5.42945 9.65907,-8.91801 15.90692,-8.41443 6.66537,0.53722 12.01771,3.05599 14.22363,6.69353 0.23293,0.38411 1.25161,0.72109 2.99861,0.99197 1.45521,0.22563 2.79664,0.54659 2.98097,0.71324 0.47635,0.43069 -2.24067,0.37868 -4.39906,-0.0842 -2.16024,-0.46329 -2.7101,-0.20623 -0.81041,0.37886 0.74061,0.22811 1.57154,0.48726 1.84652,0.57589 0.31853,0.10268 0.37737,0.28375 0.16216,0.49896 -0.2145,0.2145 -0.76481,0.21534 -1.50762,0.002 -1.10073,-0.31568 -1.15747,-0.28944 -0.96073,0.44439 0.115,0.42894 0.21126,1.21644 0.21391,1.75002 0.004,0.78116 0.16596,0.97014 0.83208,0.97014 0.91777,0 1.99496,0.99172 1.99496,1.83667 0,0.785 -0.88354,1.40661 -2.13977,1.50543 -0.98577,0.0776 -1.21704,0.3523 -2.47821,2.94406 -1.63489,3.35976 -4.58994,6.73218 -6.86336,7.83273 -0.86429,0.41839 -1.57144,0.9617 -1.57144,1.20735 0,0.29032 1.75936,0.814 5.02708,1.49633 l 5.02709,1.0497 -0.1107,1.58093 -0.1107,1.58094 4.52042,0.94964 c 5.16149,1.08433 5.40165,1.1068 5.40433,0.5058 0.001,-0.24253 0.1673,-1.03628 0.36936,-1.76389 0.51139,-1.8414 1.16996,-1.72632 0.85311,0.14909 l -0.24869,1.472 1.50555,-1.1072 c 0.82805,-0.60896 1.6481,-1.0191 1.82231,-0.91142 0.42667,0.26369 -0.24448,1.02338 -1.69743,1.92135 -0.65729,0.40622 -1.19506,0.87466 -1.19506,1.04098 0,0.16631 0.68811,0.40558 1.52913,0.5317 0.84102,0.12612 1.74924,0.36534 2.01826,0.5316 0.90353,0.55841 0.0448,0.76431 -1.66591,0.39945 -0.93287,-0.19896 -1.72973,-0.32814 -1.7708,-0.28707 -0.0411,0.0411 0.48371,0.7803 1.16618,1.64273 1.63984,2.07226 0.8222,2.38516 -0.87947,0.33657 -1.23514,-1.48694 -1.26579,-1.50052 -1.49954,-0.66436 -0.13125,0.46949 -0.25446,1.43956 -0.2738,2.15571 -0.0338,1.25102 -0.50084,2.01728 -0.86773,1.42364 -0.0967,-0.15642 -0.039,-1.38686 0.12807,-2.73433 0.16711,-1.34746 0.23709,-2.51668 0.15552,-2.59826 -0.13128,-0.13127 -8.80975,-2.11612 -9.37635,-2.14445 -0.12316,-0.006 -0.33613,0.88682 -0.47327,1.98439 -0.38999,3.12135 -0.29873,3.03889 -3.05653,2.76193 -1.91977,-0.19279 -2.41773,-0.14448 -2.40949,0.23376 0.006,0.26223 0.79118,3.08502 1.74549,6.27288 0.9543,3.18786 1.65463,5.92629 1.55629,6.08542 -0.0983,0.15912 -0.89451,0.28931 -1.76926,0.28931 -1.34709,0 -1.56331,0.0945 -1.4131,0.61736 0.0975,0.33955 0.49751,1.72861 0.88882,3.08681 1.41053,4.89576 2.86193,10.42864 2.86193,10.90995 0,0.331 -0.80557,0.63521 -2.46944,0.93257 -1.3582,0.24272 -2.46934,0.61432 -2.4692,0.82578 1.3e-4,0.21146 0.39713,3.22863 0.88221,6.70481 0.48508,3.47619 0.84215,6.35514 0.7935,6.39768 -0.34757,0.30372 -7.38229,3.68598 -7.66677,3.68598 -0.19755,0 -0.35919,-0.16795 -0.35919,-0.37324 0,-0.20527 1.5478,-1.09161 3.43955,-1.96963 1.89175,-0.87803 3.50023,-1.65709 3.5744,-1.73126 0.19272,-0.19272 -1.42684,-12.28077 -1.6845,-12.57267 -0.11779,-0.13345 -1.4048,-0.0146 -2.86,0.26417 -1.45521,0.27874 -2.68946,0.50699 -2.74276,0.50722 -0.0533,2.3e-4 -0.25145,-0.40601 -0.44032,-0.90276 -0.34996,-0.92046 -1.05026,-0.8866 -1.05026,0.0508 0,0.65151 -1.41809,1.20354 -3.10977,1.21057 -2.22246,0.009 -2.21649,-0.007 -2.52387,7.01907 -0.15437,3.52867 -0.33901,6.46925 -0.41032,6.53461 -0.10937,0.10025 -5.98394,2.01418 -8.72625,2.843 -0.6093,0.18416 -0.79384,0.12756 -0.68163,-0.20905 z M 162.41,236.876 c 3.687,-0.38681 4.20473,-0.65296 4.63968,-2.38512 0.29695,-1.1826 1.0716,-0.95991 1.53393,0.44097 0.22413,0.6791 0.59363,1.23411 0.82111,1.23335 0.65559,-0.002 9.54065,-1.77613 9.70149,-1.93697 0.0797,-0.0797 -0.13308,-1.27935 -0.47286,-2.66586 l -0.61779,-2.52094 -1.08138,0.21628 c -0.59476,0.11895 -1.90052,0.31255 -2.90169,0.43022 l -1.82031,0.21394 -0.2155,-2.07112 c -0.11852,-1.13912 -0.3212,-3.22958 -0.4504,-4.64547 l -0.2349,-2.57435 -2.33402,0.22185 c -1.28371,0.12202 -3.44528,0.32797 -4.80347,0.45768 l -2.46944,0.23583 v 4.93889 4.93889 l -2.38125,0.10431 -2.38125,0.10432 v 3.01052 3.01052 l 0.97013,-0.19381 c 0.53358,-0.1066 2.55764,-0.36037 4.49792,-0.56393 z m -2.96976,-6.35387 h 1.38226 v -4.40973 -4.40972 h -1.38226 c -2.53253,0 -2.49829,-0.0663 -2.49829,4.83799 0,3.87615 0.0675,4.38381 0.55802,4.19559 0.30691,-0.11778 1.18003,-0.21413 1.94027,-0.21413 z m 16.55638,-1.9742 c 1.41287,-0.18742 1.74226,-0.35274 1.60694,-0.80647 -0.0936,-0.3139 -0.5948,-2.11854 -1.11373,-4.01031 l -0.94351,-3.43958 -1.27649,0.005 c -2.07501,0.009 -2.11592,0.10788 -1.74502,4.22793 0.39339,4.36986 0.48615,4.72252 1.17276,4.45904 0.28704,-0.11014 1.32161,-0.30635 2.29905,-0.43602 z m -7.41301,-8.62864 c 4.94771,-0.41952 9.2628,-0.86456 9.5891,-0.98899 0.52672,-0.20086 0.33831,-1.0713 -1.68025,-7.76221 -2.52332,-8.36405 -2.94265,-9.40939 -2.95923,-7.37701 -0.0122,1.49547 -0.88886,2.29 -2.88394,2.61376 -2.1758,0.35308 -3.82195,-1.82062 -3.8276,-5.05426 -10e-4,-0.61913 0.11985,-1.20099 0.26873,-1.293 0.14889,-0.092 1.4771,-0.22045 2.95158,-0.28541 l 2.68088,-0.1181 -0.51263,-1.41111 c -0.28195,-0.77611 -0.55969,-1.64924 -0.6172,-1.94028 -0.0575,-0.29104 -0.32159,-0.46685 -0.58686,-0.3907 -0.79858,0.22928 -7.13135,0.16047 -7.90434,-0.0859 -0.66134,-0.21077 -0.81441,0.13297 -1.90096,4.26882 -1.09382,4.16356 -5.47489,19.27757 -5.93708,20.48204 -0.17223,0.44882 0.13938,0.49676 2.06052,0.31694 1.2449,-0.11652 6.31157,-0.55509 11.25928,-0.9746 z m 12.14828,-14.53258 c 0.58222,-2.76283 0.93454,-6.01704 0.67738,-6.25666 -0.33019,-0.30766 -8.59232,-2.08277 -8.59232,-1.84605 0,0.0802 0.67087,2.02893 1.49082,4.33061 1.62323,4.55658 1.4934,4.42873 4.58787,4.51781 1.46489,0.0422 1.68943,-0.049 1.83625,-0.74571 z m -21.78266,-0.39039 c 0.23031,-0.23031 2.00902,-7.61715 1.8681,-7.75807 -0.0944,-0.0944 -2.11621,-0.082 -4.49294,0.0275 l -4.32133,0.1991 v 4.05337 4.05337 l 3.43781,-0.25235 c 1.8908,-0.13879 3.46956,-0.2841 3.50836,-0.3229 z m 13.31335,-0.0758 c 0.65615,-0.65616 0.7052,-1.72988 0.15158,-3.31801 l -0.40279,-1.15544 -2.09453,0.18992 c -1.15199,0.10447 -2.16675,0.26216 -2.25503,0.35043 -0.24415,0.24415 0.55303,3.51396 0.98302,4.03206 0.52896,0.63736 2.94759,0.5712 3.61775,-0.099 z m -1.84425,-10.07285 c 3.89972,-0.82743 6.04781,-2.46173 8.71802,-6.63277 3.06998,-4.7955 3.66382,-10.65785 1.24046,-12.24569 -1.29119,-0.84602 -1.48987,-0.28215 -0.32792,0.93067 1.46256,1.52659 0.80294,1.71941 -0.96118,0.28097 -1.70273,-1.38838 -2.95594,-1.4578 -1.67349,-0.0927 0.44098,0.4694 0.65637,0.99897 0.50556,1.24298 -0.18061,0.29224 -0.60575,0.0361 -1.35988,-0.81944 l -1.09712,-1.24458 -3.52778,0.47435 c -1.94028,0.26089 -6.201,0.58593 -9.46827,0.72231 -3.78455,0.15798 -5.9916,0.38872 -6.08131,0.63579 -0.0774,0.2133 -0.19689,0.77632 -0.26543,1.25114 -0.0685,0.47483 -0.33225,0.93253 -0.58602,1.01712 -0.35011,0.1167 -0.41424,-0.19793 -0.26584,-1.30429 0.10756,-0.80195 0.0689,-1.45809 -0.0859,-1.45809 -0.3526,0 -0.70973,0.90209 -0.70973,1.79274 0,1.14567 -0.65404,0.74733 -0.7714,-0.46983 l -0.11054,-1.14652 -0.88195,1.76389 c -2.44447,4.88894 0.0893,11.03449 5.70609,13.83963 1.65274,0.82541 6.14288,1.77371 8.65224,1.82732 0.81507,0.0174 2.3232,-0.14684 3.35139,-0.365 z m -6.93821,-5.4817 c -3.10635,-0.95304 -5.45259,-3.09506 -6.81398,-6.22088 -0.51707,-1.18723 -0.54366,-1.6591 -0.0935,-1.6591 0.18495,0 0.66933,0.75407 1.0764,1.6757 0.89811,2.03334 2.51814,3.78389 4.39779,4.75209 1.80383,0.92914 5.31805,1.21592 7.48059,0.61044 2.23057,-0.62452 4.84155,-3.1382 5.3869,-5.18614 0.46929,-1.76235 1.28364,-2.08848 0.94134,-0.37698 -0.62854,3.14268 -3.5059,5.87379 -6.97136,6.617 -2.25755,0.48415 -3.26341,0.44467 -5.4042,-0.21213 z m 0.76745,-8.45306 c -0.85658,-0.85658 0.25939,-2.88803 1.35547,-2.46742 0.86205,0.3308 0.5451,2.48122 -0.38533,2.61441 -0.39604,0.0567 -0.83261,-0.009 -0.97014,-0.14699 z m 3.4793,-0.33406 c -0.30491,-0.3049 -0.55437,-0.76981 -0.55437,-1.03313 0,-0.72623 1.01109,-1.58349 1.60076,-1.35721 0.72167,0.27693 1.04046,1.78348 0.51211,2.42012 -0.55313,0.66648 -0.86827,0.66045 -1.5585,-0.0298 z m -17.75587,6.80821 c 1.574,-0.68051 1.48718,-1.55014 -0.15476,-1.55014 -1.12513,0 -2.39929,-1.11361 -2.39929,-2.09695 0,-0.79153 1.33838,-1.9012 2.29305,-1.9012 0.75791,0 0.88195,-0.15955 0.88195,-1.13448 v -1.13447 l -1.94028,1.91617 c -2.25925,2.23119 -2.59979,1.70949 -0.50542,-0.7743 1.37708,-1.63314 1.39484,-1.68453 0.44097,-1.27647 -3.34733,1.43199 -5.74204,3.97677 -6.01416,6.39107 -0.16591,1.47193 -0.11342,1.59511 0.83411,1.95736 1.36352,0.52129 4.94068,0.30515 6.56383,-0.39659 z m 0.62095,-3.60801 c 0,-0.95381 -0.14448,-1.23472 -0.635,-1.23472 -1.23667,0 -2.08182,1.8157 -1.0407,2.2358 1.23595,0.49872 1.6757,0.23601 1.6757,-1.00108 z m 33.97774,-1.36812 c 0.23542,-0.6135 -0.40918,-1.27771 -1.23997,-1.27771 -0.44214,0 -0.635,0.26785 -0.635,0.88194 0,0.69504 0.17891,0.88194 0.8442,0.88194 0.46432,0 0.92816,-0.21878 1.03077,-0.48617 z m -17.74997,-6.17003 2.99862,-0.23617 -2.5829,-0.21268 c -1.4206,-0.11698 -2.73362,-0.3634 -2.91782,-0.54761 -0.45738,-0.45738 1.50713,-3.11732 2.95374,-3.99936 0.62473,-0.38091 1.4842,-0.69315 1.90994,-0.69388 1.0495,-0.002 2.4526,1.3073 3.09781,2.89023 0.58779,1.44206 0.48239,1.60323 -1.37165,2.09751 -1.7867,0.47633 3.09846,0.0136 6.76018,-0.64038 1.79476,-0.32052 3.2632,-0.69431 3.2632,-0.83065 0,-0.13633 -0.30739,-0.63865 -0.68308,-1.11626 -1.72082,-2.18767 -8.73288,-4.59656 -13.42804,-4.613 -2.44622,-0.009 -5.62182,0.76707 -7.90099,1.92982 -1.67,0.85197 -4.72464,3.6776 -5.6127,5.19191 l -0.63731,1.08672 5.5762,-0.035 c 3.06691,-0.0193 6.92557,-0.14129 8.5748,-0.27119 z m 4.47845,-1.77213 c 0.31608,-0.16571 0.28117,-0.51075 -0.13955,-1.37946 -0.80524,-1.66262 -1.60761,-1.99122 -3.11522,-1.27582 -1.0599,0.50296 -2.63479,2.13972 -2.63479,2.73831 0,0.49095 4.92725,0.42149 5.88956,-0.083 z"
       id="path3991"
       sodipodi:nodetypes="cscsccccsccssssssscssssscssssssssscsscssssssssssssssssssssscscssssssscccscsscssssssssssssssscsscssssssssscssssssssscsssccssscsscsscsscsscccccccssscccsssscssccssccssssscsscsssssssssssssssssscccssssscssssssssssssscssssssssscssssssssssssssscsscssssssssssscsssssssssssssssccssscssssscssccscssssss" />
    <path
       d="m 153.64036,103.94172 c 0,-0.17801 1.54781,-0.83278 3.43958,-1.455 1.89178,-0.62222 3.54613,-1.23063 3.67634,-1.35199 0.13021,-0.12139 0.35057,-3.117915 0.48968,-6.658905 l 0.25294,-6.43819 h -2.49734 c -1.37354,0 -2.5607,-0.11909 -2.63815,-0.26458 -0.0774,-0.14552 0.0611,-2.40774 0.30782,-5.02709 0.24675,-2.61939 0.56313,-6.24267 0.70306,-8.05179 l 0.25444,-3.2893 -1.24823,0.23419 c -0.69141,0.1297 -1.34147,0.0833 -1.45725,-0.10406 -0.11496,-0.18601 0.26373,-1.63359 0.84154,-3.21683 1.37752,-3.774502 1.40911,-5.019542 0.0748,-2.949052 -1.15171,1.787212 -2.1838,2.119102 -1.30498,0.41965 0.54314,-1.05034 0.5389,-1.07111 -0.14414,-0.70556 -1.7721,0.9484 -1.45074,-0.10049 0.38603,-1.26 l 1.48895,-0.93994 -3.64327,-3.39976 c -2.96211,-2.76414 -3.5517,-3.47577 -3.15351,-3.80624 0.26938,-0.22356 1.70651,-1.20076 3.19363,-2.17156 2.70314,-1.76464 2.70378,-1.76543 2.37011,-2.92885 -0.18356,-0.64006 -0.33376,-1.25789 -0.33376,-1.37299 0,-0.11509 1.67153,-0.97392 3.7145,-1.90851 l 3.7145,-1.69926 -1.50963,-0.85207 c -2.98633,-1.68554 -4.84235,-4.11553 -5.93547,-7.77099 -0.38806,-1.29766 -0.58049,-1.4993 -1.43084,-1.4993 -0.61284,0 -1.18736,-0.29249 -1.527,-0.77739 -0.70534,-1.00702 -0.15051,-1.95485 1.67861,-2.86764 0.71243,-0.35553 1.29533,-0.87599 1.29533,-1.15659 0,-1.19275 2.32848,-4.98784 4.1113,-6.70084 1.63257,-1.56864 1.88134,-1.97495 1.68591,-2.75358 -0.1514,-0.60324 -0.0853,-0.91341 0.1948,-0.91341 0.23323,0 0.50708,0.3175 0.60856,0.70556 0.21302,0.81461 0.26804,0.83043 1.18374,0.34036 0.3913,-0.20941 0.68236,-0.73609 0.68236,-1.23472 0,-1.03351 0.54752,-1.15921 0.80248,-0.18423 0.28709,1.09785 2.16065,0.45097 2.30776,-0.7968 0.14359,-1.21793 0.77032,-1.23725 0.77032,-0.0237 0,0.78512 0.11864,0.8913 0.79375,0.71037 0.43656,-0.11699 0.91281,-0.21488 1.05833,-0.21753 0.14552,-0.003 0.26458,-0.40169 0.26458,-0.88676 0,-1.22403 0.98097,-1.147 1.1231,0.0882 0.0922,0.80166 0.30511,0.98891 1.22574,1.07826 0.9898,0.0961 1.14055,-0.0122 1.35095,-0.97013 0.31798,-1.44779 0.88631,-1.37167 0.88631,0.11871 0,0.76605 0.2009,1.27407 0.55803,1.41111 0.92061,0.35327 1.11908,0.25515 1.35073,-0.66781 0.35639,-1.41996 1.02893,-1.07884 0.75472,0.3828 -0.20575,1.09673 -0.15238,1.24857 0.40171,1.14293 0.35144,-0.067 0.69091,-0.48655 0.75438,-0.93231 0.18816,-1.32158 0.94703,-0.6699 0.82805,0.71109 -0.13445,1.56056 0.71746,2.05868 1.3072,0.76434 0.52959,-1.16231 1.18931,-0.76023 0.7309,0.44546 -0.3032,0.79749 -0.15256,1.11238 1.30205,2.72154 0.9047,1.00084 2.1084,2.85158 2.67489,4.11276 1.4827,3.30096 1.50916,3.34075 2.30112,3.45929 0.39648,0.0594 1.00077,0.41718 1.34286,0.79518 0.85537,0.94517 0.20946,2.38495 -1.19603,2.66605 -0.85076,0.17015 -1.0998,0.49187 -1.59378,2.05897 -1.09717,3.48064 -3.44564,5.92195 -7.14184,7.4242 -2.1498,0.87374 -2.13712,0.8922 1.09307,1.5908 4.30503,0.93105 4.47356,1.01181 4.26904,2.04561 -0.72147,3.64702 -0.91603,3.19262 2.42658,5.66732 1.6698,1.23624 2.97876,2.42686 2.9088,2.64584 -0.07,0.21897 -1.99032,1.74534 -4.26745,3.39193 -4.46512,3.22874 -4.42442,3.11311 -1.36822,3.88612 1.71359,0.43341 2.11413,1.27386 0.44097,0.92528 -0.58208,-0.12126 -1.56801,-0.32639 -2.19094,-0.45583 l -1.13261,-0.23532 1.13261,1.37403 c 1.12645,1.366602 1.44209,2.271642 0.79224,2.271642 -0.1872,0 -0.51756,-0.3311 -0.73414,-0.73576 -0.21657,-0.40468 -0.47314,-0.6564 -0.57015,-0.55938 -0.097,0.097 0.002,0.50983 0.22018,0.91739 0.44421,0.83 0.36857,0.88138 -1.83663,1.2478 -1.25907,0.20921 -1.29814,0.25586 -0.83557,0.99762 0.59184,0.94906 3.22003,14.64772 2.87684,14.99464 -0.1346,0.13607 -2.1581,0.56491 -4.49667,0.95297 l -4.25194,0.70554 0.0648,7.22204 c 0.0357,3.97214 0.10229,7.259515 0.14805,7.305255 0.0458,0.0458 1.74354,0.35116 3.77285,0.67866 3.49258,0.56361 4.60105,0.93358 4.14966,1.38499 -0.20008,0.20008 -8.36243,-1.09244 -8.63779,-1.36779 -0.0814,-0.0814 -0.24469,-3.515025 -0.36287,-7.630225 l -0.21487,-7.48223 -0.99856,0.19971 c -0.87743,0.17547 -1.08212,0.0404 -1.68752,-1.11368 l -0.68897,-1.3134 -0.60281,1.49932 -0.6028,1.49931 h -2.20209 -2.20209 l -0.20497,3.08679 c -0.11273,1.69775 -0.30305,4.78515 -0.42293,6.86091 l -0.21796,3.774075 -3.76033,1.25301 c -4.09929,1.36594 -4.28816,1.40687 -4.28816,0.9293 z m 13.38477,-18.638135 c 0.47363,-1.01864 0.9985,-1.85208 1.16636,-1.85208 0.16787,0 0.62121,0.71438 1.00744,1.5875 0.38623,0.87313 0.77072,1.5875 0.85444,1.5875 0.29032,0 9.1672,-1.42335 9.92019,-1.59065 0.67629,-0.15025 0.72648,-0.30919 0.4717,-1.4936 -0.15682,-0.729 -0.4612,-2.19857 -0.6764,-3.26574 -0.37995,-1.8841 -0.4258,-1.94101 -1.58375,-1.9653 -2.51204,-0.0527 -3.88172,-1.87145 -4.45297,-5.91285 -0.16125,-1.14081 -0.34255,-2.11815 -0.4029,-2.17191 -0.0891,-0.0794 -9.06851,0.7298 -9.37013,0.84433 -0.0485,0.0185 -0.0882,0.56928 -0.0882,1.22415 0,3.2666 -1.73301,5.80419 -4.46549,6.5387 -1.62586,0.43702 -1.48705,0.0418 -2.08191,5.92711 l -0.22148,2.1912 3.29624,0.12472 c 6.02645,0.22802 5.64952,0.32888 6.62685,-1.77308 z m -6.1363,-8.06893 c 1.0987,-0.7199 1.76782,-1.96501 2.06217,-3.83731 0.32411,-2.06155 -0.008,-2.356 -2.34727,-2.08108 l -1.97814,0.23249 -0.21214,2.33543 c -0.11667,1.28447 -0.28585,2.7918 -0.37594,3.34962 -0.15543,0.96232 -0.10971,1.00344 0.89301,0.80288 0.58125,-0.11626 1.46249,-0.47717 1.95831,-0.80203 z m 18.01475,-1.19962 c -0.84778,-5.3017 -1.45072,-6.39831 -3.34819,-6.0896 l -1.1919,0.19394 0.21806,2.08621 c 0.33825,3.23623 1.67468,5.22873 3.50705,5.22873 1.019,0 1.03693,-0.0312 0.81498,-1.41928 z m -9.47641,-6.56378 c 5.86933,-0.53859 10.67152,-1.11321 10.67152,-1.27694 0,-0.16369 -1.05208,-2.869982 -2.33796,-6.013962 -1.28587,-3.14399 -2.64359,-6.82758 -3.01715,-8.18578 -0.37356,-1.35819 -0.9839,-3.50132 -1.35632,-4.7625 l -0.6771,-2.29305 -3.59467,-0.0223 -3.59467,-0.0223 -2.2855,4.78475 c -1.25702,2.63161 -3.04446,6.92787 -3.97209,9.54724 -0.92762,2.61941 -2.10313,5.856642 -2.61223,7.193892 l -0.92564,2.43136 1.51514,-0.20064 c 0.83333,-0.11033 6.31733,-0.64127 12.18667,-1.17985 z m 14.37758,-9.105732 4.07934,-2.97768 -2.56979,-1.94624 -2.56978,-1.94625 -0.39434,1.93747 c -0.21688,1.0656 -0.45501,1.99759 -0.52916,2.07108 -0.0742,0.0735 -0.84921,-0.004 -1.72233,-0.17318 -0.87313,-0.16875 -2.00936,-0.31372 -2.52496,-0.32217 l -0.93746,-0.0154 1.26421,3.175 c 0.69532,1.74625 1.39038,3.175 1.54458,3.175 0.1542,0 2.11606,-1.33996 4.35969,-2.97767 z m -24.9188,-0.57569 c 0.60743,-1.6633 1.10441,-3.14484 1.10441,-3.2923 0,-0.14746 -0.74644,-0.21533 -1.65877,-0.15082 l -1.65877,0.11731 -0.4977,-1.76389 c -0.27373,-0.97013 -0.54114,-1.81203 -0.59426,-1.87086 -0.0531,-0.0588 -1.25685,0.64362 -2.67498,1.561 l -2.57842,1.66797 3.6404,3.48121 c 2.00222,1.91466 3.67939,3.43471 3.72704,3.37789 0.0477,-0.0568 0.58362,-1.4642 1.19105,-3.12751 z m 23.05481,-7.00266 c 0.35666,-2.02131 0.52466,-3.78728 0.37333,-3.92438 -0.35338,-0.32017 -8.27667,-2.15371 -8.47026,-1.96012 -0.15971,0.15971 1.99482,8.0654 2.35835,8.6536 0.22042,0.35665 3.58025,1.05881 4.5815,0.95748 0.35994,-0.0364 0.69817,-1.12575 1.15708,-3.72658 z m -21.4011,2.35241 c 0.0417,-0.0477 1.0399,-2.0158 2.21813,-4.37363 2.13445,-4.27137 2.13918,-4.28771 1.30309,-4.49756 -0.57407,-0.14408 -1.9903,0.30626 -4.48331,1.42562 -2.00428,0.89993 -3.70117,1.68439 -3.77087,1.74326 -0.0697,0.0589 0.23683,1.48317 0.68116,3.16512 l 0.80786,3.0581 1.58402,-0.21712 c 0.87122,-0.11941 1.61818,-0.25612 1.65992,-0.30379 z m 16.53999,-10.15319 c 2.0814,-0.64881 2.77274,-1.08913 4.60554,-2.93318 1.69818,-1.70859 2.29087,-2.60177 2.78861,-4.20241 0.83076,-2.67159 0.53111,-5.67573 -0.8529,-8.55067 -1.2622,-2.62192 -3.40824,-4.94349 -4.06548,-4.39802 -0.54209,0.44989 -0.96239,-0.0604 -0.67233,-0.81629 0.1088,-0.28351 -0.0363,-0.60532 -0.32243,-0.71512 -0.28614,-0.1098 -0.61164,0.0385 -0.72334,0.32962 -0.28835,0.75142 -0.98525,0.20757 -0.73685,-0.57504 0.28252,-0.89016 -1.19737,-1.38963 -1.66126,-0.56069 -0.41574,0.74289 -0.97132,0.40956 -0.74702,-0.44818 0.1183,-0.45237 -0.0566,-0.71633 -0.56229,-0.84856 -0.56185,-0.14693 -0.73399,-0.0273 -0.73399,0.50998 0,0.41259 -0.18177,0.63528 -0.44097,0.54024 -0.24253,-0.0889 -0.3929,-0.36543 -0.33415,-0.61443 0.26401,-1.11902 -2.21045,-1.45627 -2.50209,-0.34101 -0.23937,0.91536 -0.95612,0.91536 -0.95612,0 0,-0.54877 -0.23518,-0.70556 -1.05833,-0.70556 -0.97434,0 -1.05833,0.098 -1.05833,1.23472 0,0.6791 -0.15875,1.23473 -0.35278,1.23473 -0.19403,0 -0.35278,-0.47625 -0.35278,-1.05834 0,-0.67843 -0.17959,-1.05833 -0.50031,-1.05833 -1.10552,0 -1.61636,0.4579 -1.61636,1.44885 0,0.56133 -0.15875,1.02059 -0.35277,1.02059 -0.19403,0 -0.35278,-0.3175 -0.35278,-0.70555 0,-0.78011 -0.86128,-0.95703 -1.2891,-0.2648 -0.14982,0.24242 -0.2266,0.87742 -0.17062,1.41111 0.12719,1.21255 -0.14167,1.2375 -0.75342,0.0699 l -0.47178,-0.90042 -1.85163,1.95782 c -2.65536,2.80765 -3.69837,5.27941 -3.72719,8.83278 -0.0273,3.36694 0.70526,5.26713 2.98341,7.73864 1.97808,2.14596 3.48713,3.02932 6.48533,3.79633 3.31743,0.84869 8.87751,0.65577 12.35651,-0.42873 z m -8.27213,-4.90338 c -3.57856,-1.08855 -7.10085,-4.60604 -7.47179,-7.46162 -0.16125,-1.24134 0.52999,-1.07116 0.98129,0.24159 1.54421,4.49179 5.84684,7.16245 10.8874,6.75784 3.6434,-0.29246 6.20693,-2.05635 7.02749,-4.8354 0.46401,-1.57153 1.15625,-1.83522 0.97135,-0.37002 -0.29231,2.31631 -2.32615,4.52992 -5.04265,5.48835 -1.51234,0.53359 -5.84131,0.63912 -7.35309,0.17926 z m 3.3594,-9.41644 c -1.14884,-1.14884 0.14826,-3.29171 1.37581,-2.27293 0.77047,0.63943 0.70141,2.04003 -0.12232,2.48088 -0.51696,0.27667 -0.81897,0.22656 -1.25349,-0.20795 z m -3.62582,-0.18876 c -0.95939,-0.9594 -0.10382,-2.60382 1.2219,-2.34851 0.96353,0.18556 0.89729,2.54425 -0.0754,2.68365 -0.39032,0.0559 -0.90626,-0.0949 -1.14653,-0.33514 z m 18.60941,4.47125 c 0.58644,-0.70661 0.19557,-1.59199 -0.70282,-1.59199 -0.59841,0 -0.70019,0.17346 -0.56925,0.97014 0.20175,1.22753 0.16452,1.14653 0.52705,1.14653 0.17027,0 0.50553,-0.2361 0.74502,-0.52468 z m -33.07965,-1.25606 c 0.1341,-0.91365 0.0528,-1.05941 -0.54129,-0.97014 -1.0123,0.15211 -1.6315,1.26118 -0.94754,1.69719 0.91533,0.5835 1.32591,0.383 1.48883,-0.72705 z"
       style="fill:#000000;fill-opacity:1;stroke-width:1;stroke-miterlimit:4;stroke-dasharray:none"
       id="path4969" />
    <path
       d="m 59.00804,179.91677 c -0.12407,-0.12409 -0.22559,-1.46915 -0.22559,-2.98903 0,-1.51987 -0.0913,-2.76344 -0.20298,-2.76344 -0.11164,0 -3.24695,1.18155 -6.96736,2.62565 -3.72041,1.44412 -7.00076,2.67443 -7.28966,2.73404 -0.41824,0.0863 -0.57032,-0.48702 -0.74634,-2.81344 -0.12159,-1.60698 -0.31915,-3.01988 -0.43903,-3.13976 -0.11988,-0.11988 -2.70588,0.67313 -5.74666,1.76223 -3.04079,1.08908 -5.6667,1.89489 -5.83535,1.79065 -0.16864,-0.10422 -0.2286,-0.93179 -0.13323,-1.83902 0.0954,-0.90723 0.26355,-2.86771 0.37373,-4.3566 l 0.20032,-2.70711 -1.95255,-0.24397 c -1.34444,-0.16799 -1.95255,-0.40111 -1.95255,-0.74853 0,-0.27755 0.57266,-2.50153 1.27258,-4.94224 1.43689,-5.0106 1.4732,-4.88177 -1.47992,-5.25073 -0.99051,-0.12377 -2.00231,-0.34949 -2.24844,-0.5016 -0.32126,-0.19854 0.91707,-2.19609 4.38875,-7.07946 2.65996,-3.74155 4.91769,-7.01497 5.01718,-7.27426 0.11045,-0.28782 -0.0742,-0.4744 -0.47421,-0.47914 -0.36031,-0.004 -1.32035,-0.30977 -2.13343,-0.67892 -1.19755,-0.54369 -1.51914,-0.89397 -1.69329,-1.84433 -0.30601,-1.67002 0.54885,-3.88982 1.71872,-4.46297 1.11785,-0.54763 1.19856,-0.16547 -1.32321,-6.26575 l -1.88321,-4.55557 -2.34465,0.12441 c -1.40438,0.0745 -2.34464,-0.0164 -2.34464,-0.22683 0,-0.46689 0.86336,-0.77534 2.23371,-0.79801 l 1.11767,-0.0185 -0.86279,-0.59886 c -1.7108,-1.18745 -2.30763,-1.77744 -2.05479,-2.03123 0.14157,-0.14211 0.9102,0.17362 1.70806,0.70162 1.57698,1.0436 2.00935,1.0137 1.4145,-0.0978 -0.20975,-0.39193 -0.38136,-0.96115 -0.38136,-1.26495 0,-0.98962 0.59786,-0.58264 1.132,0.77055 l 0.52219,1.32292 0.42122,-1.49929 c 0.54145,-1.92725 1.27255,-2.01705 0.96905,-0.11906 -0.1214,0.75916 -0.32309,1.64708 -0.44822,1.97315 -0.19748,0.51462 -0.0365,0.49538 1.2199,-0.14555 1.5298,-0.78044 2.72236,-0.97604 2.35818,-0.38679 -0.11952,0.19338 -1.00201,0.68919 -1.9611,1.10178 -0.95908,0.41259 -1.74378,0.84492 -1.74378,0.96075 0,0.11584 0.91281,2.46383 2.02847,5.21772 l 2.02847,5.00713 1.5875,-0.17981 c 0.98292,-0.11134 2.19208,0.0324 3.17499,0.37727 1.46007,0.51234 1.62228,0.51051 2.02072,-0.023 0.3685,-0.49334 0.23177,-0.72811 -0.91543,-1.57176 -3.51335,-2.58376 -5.08974,-7.49697 -4.13542,-12.88904 l 0.26032,-1.47085 -3.113,0.008 c -4.05783,0.0101 -7.23097,-1.01075 -11.00751,-3.54045 -0.26739,-0.17913 -0.37531,-0.50504 -0.23982,-0.72427 0.17218,-0.27861 0.53098,-0.19812 1.19173,0.26725 2.929,2.06306 6.46451,3.21689 9.87678,3.22329 2.0126,0.004 2.20846,-0.0594 2.02051,-0.65156 -0.12164,-0.38325 0.022,-0.84678 0.3457,-1.11541 0.66479,-0.55171 0.12347,-1.03701 -1.16639,-1.04566 -2.67972,-0.018 -8.88285,-3.35333 -10.98927,-5.90878 -1.7704,-2.14781 -0.78632,-2.02417 1.52059,0.19103 3.27283,3.14272 6.83177,4.71469 11.76104,5.1948 2.22393,0.21664 2.44889,0.17328 3.18298,-0.61346 l 0.78991,-0.84659 -2.73018,-0.79986 c -2.82265,-0.82693 -8.41837,-3.4172 -9.95686,-4.60904 -1.14842,-0.88966 -0.61107,-1.40915 0.62635,-0.60553 2.06939,1.34395 6.7466,3.47721 9.54086,4.35158 2.81055,0.87947 2.99379,0.89477 4.14514,0.34573 0.66252,-0.31594 1.20459,-0.71049 1.20459,-0.87678 0,-0.16629 -0.91281,-0.50318 -2.02847,-0.74861 -1.94025,-0.42685 -7.38665,-2.37979 -8.90905,-3.19455 -0.39815,-0.21307 -0.63873,-0.52523 -0.53464,-0.69366 0.10409,-0.16841 1.57698,0.25453 3.27308,0.93993 1.69609,0.68538 4.59193,1.63097 6.43519,2.10135 3.70693,0.94597 5.56005,0.86691 7.04712,-0.30059 0.66401,-0.52131 0.90937,-0.57396 1.02303,-0.2195 0.29655,0.92474 0.93585,0.94872 1.85356,0.0695 0.95391,-0.91393 1.8371,-0.59693 1.03377,0.37102 -0.59265,0.71408 0.63849,1.05839 1.38119,0.38627 0.67324,-0.60929 1.12045,-0.38143 0.81478,0.41513 -0.11192,0.29165 0.0181,0.67058 0.28889,0.84203 0.76832,0.48652 1.37335,0.37775 1.14912,-0.20658 -0.1242,-0.32367 -3e-5,-0.52917 0.31975,-0.52917 0.28755,0 0.61228,0.43656 0.72161,0.97015 0.22641,1.10484 1.65329,2.24919 1.65329,1.3259 0,-0.29268 0.15875,-0.53215 0.35278,-0.53215 0.19403,0 0.35278,0.28779 0.35278,0.63955 0,0.35176 0.47625,1.09582 1.05833,1.65351 0.82742,0.79272 1.05833,0.88408 1.05833,0.41878 0,-0.98962 0.63363,-0.66743 0.87831,0.44659 0.36382,1.65646 1.56193,2.86986 3.86285,3.91216 2.58058,1.16898 7.50931,2.67721 9.81527,3.0036 1.58832,0.22479 2.33962,0.66403 1.8955,1.10813 -0.31624,0.31626 -6.85089,-1.28151 -9.66095,-2.36215 -1.91881,-0.73792 -2.55764,-0.86309 -2.55764,-0.50122 0,0.81722 3.74289,2.42393 8.97669,3.85342 1.5417,0.42105 2.8702,0.96692 2.95222,1.21298 0.20834,0.625 -1.26386,0.28794 -6.72544,-1.5398 -4.43431,-1.48394 -4.49792,-1.4941 -4.49792,-0.72003 0,0.64764 0.50985,1.00338 2.91042,2.0307 1.60073,0.68501 3.86292,1.51516 5.02708,1.84481 2.24498,0.63563 2.91652,1.01782 2.37574,1.35204 -0.42873,0.26496 -4.92343,-1.12881 -7.76293,-2.40723 -2.41777,-1.08855 -3.09558,-0.98978 -1.90494,0.2776 0.42116,0.44829 0.76574,1.05185 0.76574,1.34123 0,0.77914 5.24294,2.90661 5.87345,2.38331 0.36452,-0.3025 0.47655,-0.26993 0.47655,0.13856 0,0.56227 2.34408,1.66902 3.53492,1.66902 1.19148,0 0.77467,0.54922 -1.07387,1.41502 l -1.77227,0.8301 1.79855,1.03839 c 1.20055,0.69313 1.6811,1.15583 1.44532,1.3916 -0.23578,0.2358 -0.75686,0.10377 -1.56721,-0.39706 -0.6677,-0.41264 -1.30868,-0.75028 -1.4244,-0.75028 -0.11572,0 0.0938,0.70972 0.46564,1.57718 0.83683,1.95223 0.29457,2.46907 -0.67102,0.63955 l -0.70447,-1.33477 -0.0156,1.85206 c -0.0238,2.82739 -0.67752,2.20522 -0.7945,-0.75615 l -0.10303,-2.60826 -6.52639,2.9487 -6.52639,2.9487 -0.18817,1.5598 c -0.10348,0.85788 -0.42098,1.84052 -0.70555,2.18363 -0.81335,0.9807 -2.61321,1.57289 -4.78054,1.57289 -1.74787,0 -1.97228,0.0783 -1.82611,0.63725 1.24489,4.76049 3.48905,16.0324 3.23755,16.26148 -0.17781,0.16195 -1.88982,-0.01 -3.80446,-0.38185 -1.91464,-0.37195 -3.53094,-0.62653 -3.59177,-0.5657 -0.0608,0.0608 -0.22381,1.93389 -0.36218,4.16237 -0.14201,2.28709 -0.42143,4.16462 -0.64157,4.31091 -0.21449,0.14256 -1.16256,0.26162 -2.10682,0.26458 -1.60724,0.005 -1.70326,0.0561 -1.50412,0.79915 0.11699,0.43656 0.21488,0.90472 0.21753,1.04034 0.003,0.13563 0.57897,0.007 1.28072,-0.28652 1.64195,-0.68606 2.07797,-0.49154 2.17198,0.96901 0.042,0.65318 0.17374,1.80187 0.29267,2.55263 0.16766,1.0583 0.10875,1.32918 -0.26219,1.20554 -0.27186,-0.0906 -0.59576,-0.97472 -0.75017,-2.04769 -0.14945,-1.03849 -0.32245,-1.93889 -0.38442,-2.00088 -0.062,-0.062 -0.61469,0.0623 -1.22823,0.2762 l -1.11554,0.38888 v 2.7877 c 0,1.89693 0.13219,2.78773 0.41369,2.78773 0.22752,0 3.46993,-1.19065 7.20535,-2.64586 3.73542,-1.45518 7.04176,-2.64583 7.34743,-2.64583 0.46658,0 0.55575,0.53443 0.55575,3.33058 0,3.05445 -0.24299,4.06997 -0.83274,3.48022 z m -19.01101,-6.44554 c 3.24317,-1.15023 3.2632,-1.16465 3.2632,-2.34879 v -1.19147 h -1.87556 -1.87556 l -0.442,-2.22367 c -0.64135,-3.22664 -0.89396,-3.38777 -1.55928,-0.99472 l -0.58234,2.09454 -2.12429,-0.19261 -2.1243,-0.19265 v 1.2305 c 0,0.67678 -0.10281,2.44679 -0.22847,3.93335 l -0.22847,2.70285 2.25694,-0.83 c 1.24132,-0.45648 3.72538,-1.35077 5.52013,-1.98733 z m 6.13717,-4.59859 h 1.35936 v -4.05694 c 0,-2.23131 -0.1451,-4.05694 -0.32244,-4.05694 -0.17735,0 -3.69247,-0.64412 -7.81138,-1.43139 -4.11891,-0.78727 -7.609,-1.30323 -7.75577,-1.14655 -0.27458,0.29313 -2.45484,7.79092 -2.45484,8.44206 0,0.45464 6.68118,1.35975 7.06319,0.95687 0.15364,-0.16203 0.62135,-1.45555 1.03935,-2.87446 0.44025,-1.49442 0.92694,-2.52421 1.15678,-2.44758 0.21823,0.0728 0.68404,1.4718 1.03512,3.10901 0.91521,4.26789 0.68079,3.99201 3.17075,3.73174 1.18828,-0.1242 2.77223,-0.22582 3.51988,-0.22582 z m 9.12047,-7.96751 c 0,-0.83711 -3.02091,-14.09763 -4.46598,-19.60372 l -1.26422,-4.81708 -1.48049,-0.22201 c -0.81427,-0.12211 -2.46027,-0.68538 -3.65778,-1.25169 l -2.17729,-1.02971 -0.41402,0.77711 c -0.22771,0.42741 -1.23442,1.80898 -2.23714,3.07017 -3.51069,4.41566 -12.86415,17.79376 -12.60775,18.03268 0.14237,0.13269 2.24322,0.58436 4.66857,1.00372 2.42535,0.41936 8.61659,1.60914 13.75832,2.64393 5.14174,1.03478 9.46768,1.89817 9.6132,1.9186 0.14552,0.0206 0.26458,-0.21445 0.26458,-0.522 z m -10.93958,-4.26561 c -1.24689,-1.96612 -1.66907,-3.78375 -1.05165,-4.52768 0.51164,-0.61651 1.80602,-0.69162 2.36063,-0.13703 0.28253,0.28255 0.74365,0.25979 1.69302,-0.0835 1.21992,-0.44111 1.34659,-0.42008 1.94886,0.32369 0.51219,0.63251 0.57821,1.02534 0.32228,1.91767 -0.34896,1.21677 -3.01071,4.15666 -3.76339,4.15666 -0.25492,0 -0.9343,-0.74242 -1.50975,-1.64978 z M 48.016,155.2 c 1.09525,-1.61181 1.1543,-2.55513 0.15993,-2.55513 -0.40082,0 -1.03858,0.16581 -1.41726,0.36848 -0.51605,0.27617 -0.88336,0.23199 -1.46641,-0.1764 -1.07599,-0.75364 -1.32648,-0.6867 -1.32648,0.3546 0,0.8564 0.74913,2.65914 1.49225,3.59106 0.49299,0.61819 1.47556,0.0103 2.55797,-1.58261 z m 9.53406,-11.22294 c 0.64893,-0.30795 1.35509,-1.00729 1.5902,-1.5749 0.36085,-0.87117 0.3134,-1.24714 -0.32335,-2.56252 -0.41044,-0.84783 -1.13835,-1.90989 -1.61757,-2.36008 -0.77618,-0.72919 -1.17025,-0.80984 -3.60895,-0.73864 -1.5057,0.044 -2.80247,0.14478 -2.88171,0.224 -0.17138,0.17139 1.3476,6.06057 1.79227,6.9487 0.40325,0.80539 3.40603,0.84312 5.04911,0.0634 z m -19.45537,-5.6543 c 2.38845,-3.09356 2.32722,-3.37275 -0.78904,-3.59818 -3.65146,-0.2641 -5.69299,0.94634 -5.76324,3.4171 -0.0379,1.33175 0.54539,2.06454 1.97261,2.47835 2.15992,0.62622 2.42539,0.49305 4.57967,-2.29727 z m 28.78617,-2.25846 6.73221,-2.9986 -0.0952,-1.20229 c -0.0904,-1.14184 -0.23428,-1.26156 -2.86056,-2.38012 -1.82602,-0.77771 -3.0561,-1.10482 -3.62119,-0.963 -0.50936,0.12785 -1.44998,1.06188 -2.32361,2.30733 -1.58154,2.25462 -3.91432,4.16131 -5.99528,4.90021 l -1.29992,0.46157 1.10062,1.5326 c 0.60534,0.84291 1.21989,1.48947 1.36566,1.43676 0.14577,-0.0527 3.29453,-1.4452 6.99724,-3.09446 z m -7.67416,-1.52014 c 2.12981,-1.04261 4.73233,-3.61838 5.68549,-5.62702 0.90442,-1.90593 1.12132,-5.4783 0.46736,-7.69744 -0.64307,-2.18221 -4.1779,-6.50595 -5.04639,-6.17268 -0.29145,0.11184 -0.64431,-0.14073 -0.86099,-0.61632 -0.20193,-0.44321 -0.67335,-0.99703 -1.0476,-1.23076 -0.60574,-0.37828 -0.68045,-0.32549 -0.68045,0.4808 0,1.18229 -0.58499,0.80504 -0.88751,-0.57232 -0.16871,-0.76812 -0.59057,-1.24458 -1.47569,-1.66667 -1.23622,-0.58951 -1.24152,-0.58843 -2.0395,0.41233 -0.94825,1.18922 -1.55373,0.67268 -0.71392,-0.60904 0.53626,-0.81844 0.52172,-0.85921 -0.38773,-1.08749 -0.74365,-0.18664 -1.23981,-1.4e-4 -2.32976,0.87577 -1.57347,1.26449 -2.23221,1.13461 -0.98403,-0.19402 0.80298,-0.85471 0.806,-0.88054 0.10293,-0.88054 -0.39837,0 -1.64702,0.55563 -2.77477,1.23471 -2.08249,1.25402 -2.97391,1.51839 -2.97391,0.88196 0,-0.19404 0.12841,-0.35279 0.28535,-0.35279 0.15694,0 0.59351,-0.2458 0.97014,-0.54624 1.1644,-0.92882 -1.61038,0.51832 -2.95764,1.54252 -1.71041,1.30025 -4.18048,4.93901 -4.66859,6.87745 -0.23535,0.93467 -0.349,2.80805 -0.2562,4.2232 0.29823,4.54803 2.62163,7.70514 7.2719,9.88126 3.41648,1.59877 5.41964,1.99747 9.58559,1.90786 3.24529,-0.0698 3.95339,-0.20167 5.71592,-1.06453 z m -10.20753,-7.28352 c -4.23256,-1.52334 -6.96123,-4.79002 -7.22069,-8.64439 -0.14923,-2.21679 0.55283,-2.16318 0.82454,0.063 0.60353,4.9448 4.94315,8.33662 10.71137,8.37197 4.32152,0.0265 6.94066,-1.33141 8.86627,-4.59674 0.78995,-1.33956 0.8881,-0.1624 0.10294,1.23463 -0.88194,1.56919 -2.72893,3.01119 -4.80572,3.75197 -1.97632,0.70496 -6.27285,0.61355 -8.47871,-0.18039 z m 6.55061,-11.7588 c -0.4717,-0.62744 -0.67588,-0.69408 -1.04069,-0.33962 -0.59725,0.58031 -1.01831,0.55943 -1.01831,-0.0504 0,-1.0594 2.26736,-1.2509 2.80982,-0.23731 0.78609,1.46881 0.23068,1.93294 -0.75082,0.62738 z m -7.047,-1.67426 c 1.19156,-0.99266 3.22411,-0.85029 3.22411,0.22588 0,0.59994 -0.42237,0.63349 -0.9782,0.0777 -0.3165,-0.3165 -0.62724,-0.3165 -1.32188,0 -1.3813,0.62936 -1.85647,0.47328 -0.92403,-0.30353 z m 26.93108,18.31827 c 0.58553,-0.31337 0.63331,-0.45196 0.24139,-0.70017 -0.81452,-0.51583 -1.37058,-0.35951 -1.37058,0.38529 0,0.81349 0.12984,0.84971 1.12919,0.31488 z m -8.50097,-5.71108 c -0.28392,-0.28393 -0.38642,-0.10758 -0.3786,0.65135 0.009,0.91231 0.0574,0.96035 0.38933,0.38933 0.27134,-0.46683 0.2683,-0.76166 -0.0107,-1.04068 z M 37.27807,116.28061 c 0.34987,-0.6537 0.30355,-0.72101 -0.42495,-0.61735 -0.44969,0.064 -0.87057,0.39415 -0.93528,0.73369 -0.16649,0.87352 0.8783,0.78417 1.36023,-0.11634 z"
       style="fill:#000000;stroke-width:0.132292;stroke-miterlimit:4;stroke-dasharray:none"
       id="path5270" />
    <path
       d="m 34.091218,283.54981 c 0,-0.1741 1.07156,-0.49549 2.38125,-0.71422 4.16715,-0.69588 4.3132,-0.74655 4.48305,-1.55495 0.22628,-1.07696 2.6607,-22.24927 2.6607,-23.14022 0,-0.71962 -0.1383,-0.73237 -7.9375,-0.73237 -5.46374,0 -7.9375,-0.11912 -7.9375,-0.38219 0,-0.21021 1.98437,-4.03201 4.40972,-8.49289 2.42535,-4.4609 4.40972,-8.27618 4.40972,-8.47841 0,-0.22035 -0.31807,-0.2673 -0.79375,-0.11717 -2.78781,0.87985 -3.90533,0.48482 -3.5569,-1.25733 0.11595,-0.57975 0.0537,-1.02757 -0.14274,-1.02757 -0.40976,0 -4.50244,5.14034 -4.50244,5.65499 0,0.19333 0.77433,1.30812 1.72074,2.47729 2.02119,2.49695 1.85485,3.35423 -0.20261,1.04423 l -1.41014,-1.58321 0.25064,1.6714 c 0.17,1.13363 0.12559,1.67142 -0.13802,1.67142 -0.21376,0 -0.49077,-0.63851 -0.61556,-1.41893 -0.28387,-1.77525 -0.68953,-2.06634 -0.96439,-0.69202 -0.11579,0.57894 -0.37324,1.05262 -0.57212,1.05262 -0.45315,0 -0.45707,-0.55372 -0.0149,-2.09563 0.19072,-0.66498 0.30236,-1.25342 0.24812,-1.30766 -0.0542,-0.0542 -0.87552,0.13518 -1.82505,0.42096 -1.06766,0.32131 -1.85198,0.39404 -2.05541,0.19061 -0.20344,-0.20344 0.22606,-0.49525 1.12554,-0.76474 1.68928,-0.50612 1.83764,-0.85701 0.50389,-1.19176 -1.76518,-0.44303 -3.3348,-1.23213 -3.12526,-1.57118 0.12284,-0.19875 1.24383,0.0153 2.73302,0.52177 1.38863,0.47231 2.77477,0.84999 3.08033,0.8393 0.30557,-0.0107 1.41143,-1.14039 2.45748,-2.51046 1.50227,-1.9676 1.90997,-2.77897 1.94029,-3.86139 0.0225,-0.80457 -0.12587,-1.37025 -0.35941,-1.3701 -0.70008,2.7e-4 -1.22685,-0.96373 -1.00639,-1.84208 0.11754,-0.46834 0.71968,-1.41436 1.3381,-2.10229 0.97482,-1.08438 1.88698,-1.50244 6.85703,-3.14272 3.15296,-1.04058 5.73264,-2.00404 5.73264,-2.14103 0,-0.13698 -0.3301,-0.35383 -0.73356,-0.48189 -1.22704,-0.38945 -5.54565,-4.71844 -6.62952,-6.64547 -0.56063,-0.99677 -1.12197,-2.39217 -1.2474,-3.1009 -0.14745,-0.83312 -0.54879,-1.49876 -1.13543,-1.88313 -0.74666,-0.48924 -0.88226,-0.80962 -0.76559,-1.80895 0.12044,-1.03169 0.0195,-1.2451 -0.67059,-1.41831 -0.9045,-0.22702 -0.99121,-0.54516 -0.43287,-1.58841 0.3437,-0.64222 0.31121,-0.67253 -0.3447,-0.3215 -1.26494,0.67698 -1.56318,1.66522 -0.74843,2.47998 0.86421,0.8642 0.92901,2.06425 0.12807,2.3716 -0.39301,0.15081 -0.8515,-0.1088 -1.39424,-0.78945 -0.73284,-0.91909 -0.83215,-0.95295 -1.05923,-0.36116 -0.16376,0.42672 -0.0473,0.80162 0.33589,1.08186 0.77852,0.56926 0.74085,0.88023 -0.10665,0.88023 -0.90066,0 -1.56042,-1.2017 -1.11583,-2.03242 0.18288,-0.34172 0.66471,-0.92195 1.07075,-1.2894 0.40601,-0.36745 0.73823,-0.85191 0.73823,-1.07658 0,-0.76291 1.95976,-2.30438 2.92971,-2.30438 1.02659,0 1.2813,-0.50325 0.42168,-0.83313 -0.29105,-0.11168 -0.52918,-0.60491 -0.52918,-1.09607 0,-0.66921 -0.18385,-0.89302 -0.73359,-0.89302 -0.61449,0 -0.7005,0.1575 -0.52979,0.97014 0.11209,0.53358 0.0423,1.20826 -0.15506,1.49931 -0.31089,0.45843 -0.42868,0.43763 -0.88132,-0.15562 -0.28735,-0.37664 -0.52245,-1.05133 -0.52245,-1.49931 0,-0.44799 -0.12344,-0.81452 -0.27428,-0.81452 -0.62141,0 -1.87706,1.16473 -1.71394,1.58981 0.0967,0.25206 -0.0263,0.73476 -0.2734,1.07267 -0.42155,0.5765 -0.48122,0.56875 -0.96767,-0.12577 -0.51544,-0.73589 -0.522,-0.73415 -1.13397,0.30184 -0.62324,1.05506 -1.2812,1.38082 -1.2812,0.63433 0,-0.57066 1.72122,-2.76732 2.16836,-2.76732 0.20272,0 0.85777,-0.34835 1.45571,-0.77411 0.89863,-0.63989 1.49943,-0.75995 3.46508,-0.6924 1.35289,0.0465 2.47544,-0.076 2.60411,-0.28422 0.34112,-0.55194 2.1778,-0.43893 2.78829,0.17156 0.48147,0.48147 0.57538,0.4667 0.90102,-0.14177 0.31284,-0.58453 0.26253,-0.65284 -0.36084,-0.48983 -0.66203,0.17313 -0.7036,0.0788 -0.48306,-1.09683 0.15615,-0.83226 0.0874,-1.47166 -0.19464,-1.81155 -0.64692,-0.77947 -0.94288,-0.64562 -1.17861,0.53304 -0.2495,1.24748 -1.32166,1.43867 -2.21527,0.39501 -0.5559,-0.64924 -0.58203,-0.64924 -1.23127,0 -0.86093,0.86093 -1.73998,0.84584 -1.97001,-0.0338 -0.14759,-0.56437 -0.31063,-0.62845 -0.85621,-0.33646 -0.81529,0.43633 -1.36488,0.15589 -1.36488,-0.69644 0,-0.69099 1.04872,-1.79775 1.70347,-1.79775 0.63269,0 0.49122,-0.63898 -0.2265,-1.02309 -0.98988,-0.52977 -2.3589,0.30974 -2.3589,1.44652 0,1.32694 -0.45039,1.59362 -0.86219,0.51051 -0.45815,-1.20503 -0.16736,-1.89783 1.0638,-2.53449 1.43558,-0.74237 2.36371,-0.63933 3.29526,0.36583 0.49879,0.5382 1.20431,0.88194 1.81019,0.88194 1.09652,0 3.0085,0.52986 4.4441,1.23157 0.90237,0.44106 0.94959,0.40995 1.49844,-0.98728 l 0.56671,-1.4427 1.20029,1.16335 c 1.34889,1.30741 1.30773,1.30984 5.32783,-0.31387 4.550276,-1.83785 9.319076,-2.12836 13.884446,-0.84582 1.0395,0.29203 1.93334,0.48187 1.98628,0.42188 0.053,-0.06 0.60513,-0.94251 1.22706,-1.96115 0.62193,-1.01865 1.2727,-1.85209 1.44613,-1.85209 0.17346,0 0.61906,0.59532 0.99026,1.32293 0.53799,1.05454 0.99491,1.41741 2.25226,1.78867 1.3644,0.40285 1.75991,0.38945 2.92959,-0.0993 1.75373,-0.73276 2.1999,-0.53505 1.99184,0.88264 l -0.16705,1.13811 1.65648,-0.24841 c 1.01115,-0.15163 1.8301,-0.1043 2.10217,0.12149 0.50559,0.4196 2.88159,0.51983 4.97831,0.21 0.77611,-0.11468 1.80799,-0.20578 2.29307,-0.20244 2.79765,0.0193 2.69228,-0.0299 2.14241,1.00009 -0.17987,0.33692 -0.41301,0.89039 -0.5181,1.22994 -0.3093,0.99936 -0.91877,0.70684 -0.91877,-0.44098 0,-0.80014 -0.16159,-1.05833 -0.66235,-1.05833 -0.36431,0 -0.82705,0.19844 -1.02834,0.44097 -0.36185,0.43601 -0.42598,0.63514 -0.42598,1.32292 0,0.19403 -0.3347,0.35278 -0.74379,0.35278 -0.62345,0 -0.70683,-0.14733 -0.51529,-0.91049 0.3629,-1.44587 -0.85885,-0.93786 -1.34126,0.55771 -0.28647,0.88815 -0.63511,1.2682 -1.24208,1.35401 -0.80205,0.11339 -0.83238,0.0479 -0.61319,-1.32292 0.18445,-1.15348 0.12386,-1.4422 -0.30272,-1.4422 -0.3337,0 -0.53332,0.33011 -0.53332,0.88194 0,0.48507 -0.28434,1.15976 -0.63187,1.49931 -0.60719,0.59327 -0.6061,0.66164 0.028,1.75228 0.86869,1.49411 0.40004,2.2953 -0.48822,0.83467 -0.80135,-1.31772 -1.84702,-1.49977 -1.5378,-0.26772 0.1282,0.51076 0.007,0.98523 -0.32244,1.25833 -0.46421,0.38526 -0.44558,0.52106 0.1537,1.12035 0.37506,0.37507 0.68194,0.92007 0.68194,1.21112 0,0.29104 0.21153,0.52916 0.47006,0.52916 0.25854,0 0.85385,0.58546 1.32292,1.30102 0.76665,1.16951 1.01208,1.30322 2.42813,1.32291 1.80846,0.0251 2.47418,0.82788 2.20538,2.65932 -0.24411,1.6632 -1.02451,1.32184 -0.98888,-0.43255 0.0277,-1.36198 -0.0483,-1.49931 -0.82907,-1.49931 -0.68673,0 -0.92326,0.24822 -1.17659,1.23472 -0.34949,1.36103 -1.18498,2.46945 -1.86138,2.46945 -0.7903,0 -0.8255,-0.9593 -0.0898,-2.44634 0.78533,-1.58729 0.54054,-2.46106 -0.32768,-1.16963 -0.2935,0.43656 -0.7002,0.79375 -0.9038,0.79375 -0.20359,0 -0.66157,0.26371 -1.01773,0.58604 -0.35616,0.32232 -0.97656,0.75888 -1.37866,0.97014 -0.45929,0.2413 -1.02108,1.25545 -1.51112,2.72787 -1.3116,3.94095 -4.05168,7.11445 -7.8071,9.04202 l -1.76389,0.90536 4.06809,0.74539 c 5.99527,1.0985 8.06084,2.66416 5.74268,4.35282 l -0.94896,0.69126 1.06765,0.55211 c 0.58721,0.30366 2.72081,0.96578 4.74132,1.47139 2.02052,0.50561 3.93862,0.99782 4.26246,1.09381 0.42347,0.12552 0.91711,-0.3744 1.75811,-1.78045 1.53529,-2.56684 2.46083,-2.66625 1.14569,-0.12306 l -0.56435,1.09133 1.22335,-0.75607 c 0.67285,-0.41584 1.40305,-0.75608 1.62269,-0.75608 0.80431,0 0.35857,0.55413 -1.277,1.5875 l -1.67505,1.05834 1.5601,0.17639 c 0.88481,0.10003 1.62953,0.38728 1.72051,0.6636 0.13018,0.39544 -0.22132,0.43953 -1.86594,0.23405 l -2.02634,-0.25317 0.92319,1.21036 c 0.50776,0.6657 0.92319,1.39382 0.92319,1.61804 0,0.79863 -0.66054,0.38752 -1.47053,-0.91524 l -0.82252,-1.32292 -0.3202,2.38125 c -0.22839,1.69841 -0.46697,2.38125 -0.832,2.38125 -0.35141,0 -0.45272,-0.24874 -0.32331,-0.79375 0.10367,-0.43656 0.29498,-1.68299 0.42513,-2.76985 l 0.23664,-1.9761 -4.27165,-1.0702 c -2.3494,-0.58862 -4.34738,-0.94768 -4.43993,-0.79792 -0.0926,0.14975 -0.73556,0.3787 -1.4289,0.50877 l -1.26062,0.2365 0.90394,0.71105 c 1.06569,0.83826 1.17274,1.71393 0.23938,1.95801 -0.45479,0.11893 -0.60788,0.39056 -0.48499,0.86052 0.24452,0.93504 -0.86431,2.07464 -2.01862,2.07464 -0.54884,0 -1.28805,-0.36818 -1.77071,-0.88195 -0.80235,-0.85407 -2.93006,-1.25484 -3.2776,-0.61736 -0.0793,0.14552 1.02069,3.99521 2.44451,8.55486 1.42381,4.55965 2.5906,8.48871 2.59287,8.73125 0.003,0.33661 -1.49888,0.44098 -6.34589,0.44098 h -6.35 v 0.84739 c 0,0.91778 -1.29889,19.5209 -1.53756,22.0215 -0.0905,0.94779 0.006,1.57353 0.25499,1.65164 0.22034,0.0692 1.94844,0.2308 3.84021,0.35917 2.04013,0.1384 3.43959,0.38545 3.43959,0.60719 0,0.36947 -8.00041,0.14418 -8.38059,-0.236 -0.16777,-0.16778 1.15128,-20.3344 1.54199,-23.5752 l 0.20203,-1.67569 h -4.06924 c -2.43041,0 -4.160316,0.1474 -4.295436,0.366 -0.12441,0.20132 -0.8699,5.87664 -1.65664,12.61182 -0.78674,6.73518 -1.5631,12.39226 -1.72524,12.57128 -0.28717,0.31707 -4.98836,1.20592 -6.5759,1.2433 -0.43657,0.0103 -0.79375,-0.12374 -0.79375,-0.29787 z m 21.931436,-27.2873 c 4.98028,-0.049 9.14952,-0.18383 9.26497,-0.29953 0.11545,-0.11568 -1.04068,-4.24318 -2.56918,-9.17221 -1.52851,-4.92904 -3.39005,-11.28462 -4.13677,-14.12352 l -1.35768,-5.16163 -3.54069,0.16146 c -2.72214,0.12412 -4.118,0.0101 -6.03779,-0.49313 l -2.497076,-0.65459 -7.99806,14.65755 c -4.39893,8.06165 -7.99815,14.81316 -7.99826,15.00337 -1.3e-4,0.2191 3.26432,0.31387 8.90764,0.25863 4.89931,-0.048 12.982616,-0.12735 17.962896,-0.1764 z m 11.58952,-16.67827 c 0.53013,-0.63876 0.56537,-0.59889 -1.32999,-1.50429 -1.46066,-0.69774 -1.49931,-0.69884 -1.49931,-0.0427 0,0.78084 1.18651,2.08465 1.89709,2.08465 0.26728,0 0.68678,-0.24196 0.93221,-0.53769 z M 35.325938,239.0059 c 0.23113,-0.21698 -0.24108,-1.4502 -1.3694,-3.57632 -2.26543,-4.2688 -2.45296,-4.46029 -3.22066,-3.28862 -0.72011,1.09902 -0.47668,1.98376 0.54581,1.98376 0.74724,0 0.75357,0.23273 0.0566,2.08293 -0.14983,0.39776 0.10315,0.4491 1.28313,0.26042 1.5767,-0.25213 2.01162,0.29555 0.94059,1.18442 -0.54949,0.45604 -0.7055,1.46996 -0.2901,1.88536 0.27762,0.27763 1.53983,-0.0493 2.05399,-0.53195 z m 5.44733,-6.29271 c 1.75379,-3.20123 3.06934,-5.86073 2.92344,-5.91001 -0.1459,-0.0493 -2.75684,0.74447 -5.80209,1.76389 l -5.53682,1.85348 2.35363,4.31628 c 1.29448,2.37395 2.4705,4.19939 2.61337,4.05653 0.14286,-0.14286 1.69467,-2.87894 3.44847,-6.08017 z m 22.457546,5.37487 c 0.39652,-0.26472 3.49096,-9.19794 3.26437,-9.42377 -0.22865,-0.22787 -8.13614,-1.63889 -8.29488,-1.48015 -0.0859,0.0859 0.51021,2.63518 1.3247,5.66505 1.43133,5.3245 1.51162,5.50868 2.39924,5.50346 0.5051,-0.003 1.09306,-0.12204 1.30657,-0.26459 z m 5.42825,-1.05293 c -0.005,-0.31275 -2.31169,-1.85208 -2.77516,-1.85208 -0.31419,0 -0.74825,0.82297 -0.74825,1.41867 0,0.16644 0.59531,0.3649 1.32292,0.44101 0.7276,0.0761 1.52135,0.16507 1.76389,0.19768 0.24253,0.0326 0.439,-0.0598 0.4366,-0.20528 z m 0.39866,-3.65329 c -0.45388,-0.36753 -1.0364,-0.66824 -1.2945,-0.66824 -1.16029,0 -0.76349,-0.77357 0.72382,-1.41111 1.7451,-0.74803 1.77908,-1.11149 0.18113,-1.93782 l -1.00885,-0.5217 -0.78429,2.37629 c -0.43136,1.30696 -0.84243,2.53504 -0.91349,2.72907 -0.0799,0.21807 0.64414,0.30485 1.8961,0.22726 l 2.02531,-0.12552 z m -11.76461,-7.19732 c 8.89749,-2.09776 13.92367,-10.1915 11.42907,-18.40442 -1.39801,-4.60264 -4.6701,-8.21029 -7.77328,-8.57046 -1.30364,-0.15131 -1.61312,-0.31417 -1.53042,-0.80535 0.057,-0.33863 -0.10174,-0.61569 -0.35278,-0.61569 -0.28177,0 -0.43956,0.40501 -0.41234,1.05834 0.0716,1.71942 0.096,1.76389 0.96666,1.76389 0.86455,0 2.69341,1.21508 2.69341,1.78949 0,0.52143 -0.96322,0.37832 -1.17541,-0.17463 -0.32622,-0.85011 -1.75371,-0.82128 -2.60011,0.0525 -1.02534,1.05855 -2.3819,1.09996 -2.1111,0.0644 0.16399,-0.62712 0.0705,-0.7069 -0.62405,-0.53258 -0.5227,0.13119 -0.98617,0.001 -1.28681,-0.36112 -0.40344,-0.48612 -0.33155,-0.68514 0.50848,-1.4077 0.53809,-0.46285 1.36637,-0.84154 1.84061,-0.84154 0.52531,0 0.86228,-0.20362 0.86228,-0.52104 0,-0.96508 -1.69699,-1.68619 -4.33272,-1.84112 -2.33864,-0.13747 -2.4913,-0.10531 -1.87061,0.39413 0.37171,0.2991 0.70644,0.82458 0.74385,1.16773 0.11491,1.05412 0.80302,2.48024 1.29154,2.67672 0.37916,0.1525 0.37641,0.24777 -0.0151,0.5222 -0.7097,0.4975 -3.20048,1.27158 -3.41176,1.0603 -0.38673,-0.38673 0.3027,-1.35799 1.1073,-1.55993 0.46367,-0.11638 0.84304,-0.34376 0.84304,-0.50531 0,-0.56941 -0.66277,-0.69249 -1.55062,-0.28796 -0.69005,0.3144 -1.01801,0.30947 -1.41658,-0.0213 -0.82489,-0.68462 -0.26739,-1.43719 1.06468,-1.43719 0.65834,0 1.19698,-0.16268 1.19698,-0.36151 0,-0.42526 -1.50197,-1.0496 -2.52501,-1.0496 -0.64948,0 -0.70409,0.18636 -0.59439,2.02847 l 0.12079,2.02847 -1.95302,0.0127 c -1.534726,0.01 -2.120286,0.18001 -2.734026,0.79375 -0.97183,0.97183 -2.57998,1.01123 -3.41931,0.0838 -0.78097,-0.86295 -0.88254,-0.79966 -2.41002,1.50157 -1.8575,2.79845 -2.48389,5.36808 -2.27625,9.33778 0.16965,3.24339 0.20369,3.35011 1.82581,5.72417 4.23671,6.20064 12.115326,9.06893 19.881216,7.23797 z m -8.78731,-5.64449 c -2.25059,-0.72197 -4.965096,-3.25675 -6.257586,-5.84325 -1.02751,-2.05622 -2.05444,-5.8422 -1.6849,-6.21174 0.36476,-0.36476 0.93623,0.29888 0.93623,1.08723 0,0.44324 0.30213,1.68405 0.6714,2.75735 1.6762,4.87197 5.053986,7.71107 9.197736,7.73089 4.89695,0.0234 8.70649,-3.65331 9.91764,-9.57189 0.58129,-2.84056 0.64407,-2.99359 1.05821,-2.57945 0.45555,0.45555 -0.41263,4.36724 -1.46722,6.6108 -2.35907,5.01871 -7.57741,7.55799 -12.37151,6.02006 z m -0.45467,-14.8391 c -0.3049,-0.30491 -0.55437,-0.76982 -0.55437,-1.03314 0,-0.53125 0.93889,-1.5875 1.41111,-1.5875 0.47223,0 1.41112,1.05625 1.41112,1.5875 0,0.53125 -0.93889,1.5875 -1.41112,1.5875 -0.16631,0 -0.55184,-0.24946 -0.85674,-0.55436 z m 4.37585,-0.69081 c -0.62304,-0.75072 0.093,-2.28261 1.06701,-2.28261 0.97396,0 1.69004,1.53189 1.067,2.28261 -0.24631,0.29679 -0.72646,0.53961 -1.067,0.53961 -0.34054,0 -0.8207,-0.24282 -1.06701,-0.53961 z m -17.982996,6.88961 c 0,-0.58208 -0.16373,-1.05833 -0.36384,-1.05833 -0.48715,0 -0.81924,0.92995 -0.56691,1.5875 0.34896,0.90939 0.93075,0.57862 0.93075,-0.52917 z m 37.323886,0.635 c 0.55791,-0.5579 0.53432,-0.82639 -0.13103,-1.49174 -0.86034,-0.86035 -1.20952,-0.66393 -1.20952,0.68036 0,1.28124 0.54241,1.60953 1.34055,0.81138 z m -41.429636,-0.81138 c -0.11169,-0.29105 -0.26545,-0.52917 -0.34171,-0.52917 -0.0763,0 -0.13865,0.23812 -0.13865,0.52917 0,0.29104 0.15377,0.52916 0.34171,0.52916 0.18794,0 0.25033,-0.23812 0.13865,-0.52916 z m 43.247376,-2.79625 c -0.19477,-0.19929 -0.59746,-0.0752 -1.03204,0.31813 -0.53823,0.48709 -0.61747,0.75962 -0.32376,1.11351 0.31517,0.37976 0.51078,0.31947 1.03204,-0.31813 0.38643,-0.47268 0.51567,-0.91716 0.32376,-1.11351 z m -40.199956,0.34762 c 0,-0.37235 -0.67702,-0.52878 -0.87839,-0.20296 -0.12187,0.19719 0.0259,0.35853 0.3284,0.35853 0.3025,0 0.54999,-0.07 0.54999,-0.15557 z m 1.31372,-1.8233 c -0.0849,-0.0849 -0.4221,-0.0517 -0.74929,0.0739 -0.55222,0.21191 -0.54952,0.27871 0.0377,0.93154 0.62998,0.70035 0.63308,0.70004 0.74929,-0.0739 0.0642,-0.42743 0.0472,-0.84662 -0.0377,-0.93154 z m 37.491836,0.0318 c 0,-0.67775 -0.82194,-1.22794 -1.83445,-1.22794 -1.13625,0 -1.1007,-0.0764 -0.61394,1.31988 0.35233,1.01068 0.43352,1.04986 1.41111,0.68085 0.5705,-0.21534 1.03728,-0.56309 1.03728,-0.77279 z m -36.530206,-1.81216 c 0.28425,-1.13253 -0.50456,-2.09873 -1.42504,-1.74551 -0.46913,0.18002 -0.51758,0.33412 -0.20374,0.64796 0.22647,0.22648 0.41176,0.7769 0.41176,1.22316 0,1.12311 0.92764,1.02737 1.21702,-0.12561 z m -2.41499,-0.73134 c -0.3586,-0.35861 -0.65449,0.18128 -0.36026,0.65735 0.22226,0.35963 0.30536,0.35991 0.42485,0.001 0.0817,-0.2451 0.0526,-0.54155 -0.0646,-0.65878 z m 37.181306,-0.10784 c 0,-0.15553 0.10629,-0.57358 0.23621,-0.929 0.22569,-0.61745 0.20483,-0.61873 -0.46876,-0.0288 -0.38772,0.33955 -0.89089,0.61737 -1.11815,0.61737 -0.43172,0 -0.55479,0.44636 -0.21638,0.78477 0.27137,0.27137 1.56708,-0.096 1.56708,-0.44429 z m -1.45767,-2.84617 c -0.56668,-0.35899 -1.50701,-0.40926 -1.81903,-0.0973 -0.12061,0.12061 0.0424,0.56618 0.36217,0.99015 0.57388,0.76081 0.5903,0.76201 1.26046,0.0919 0.55299,-0.55298 0.58944,-0.73576 0.1964,-0.98475 z m 3.13336,0.51944 c 0.57098,-0.15301 0.79375,-0.47616 0.79375,-1.15141 0,-0.51628 0.25432,-1.30178 0.56515,-1.74555 0.70271,-1.00325 0.60482,-1.0856 -0.82973,-0.69804 -0.96017,0.2594 -1.14653,0.47675 -1.14653,1.33718 0,1.26881 -0.44849,1.58069 -1.49201,1.0375 -0.79288,-0.41272 -0.79232,-0.40749 0.0542,0.51285 0.93795,1.01974 0.91694,1.01251 2.05517,0.70747 z m -29.167816,-1.04194 c 0.61877,-0.74557 10e-4,-1.73432 -1.08287,-1.73432 -1.08429,0 -1.70164,0.98875 -1.08288,1.73432 0.25504,0.30731 0.74234,0.55874 1.08288,0.55874 0.34054,0 0.82783,-0.25143 1.08287,-0.55874 z m -4.22414,-0.52362 c 0.56353,-0.40126 1.0246,-0.93229 1.0246,-1.18004 0,-0.47076 -1.32529,-1.83856 -1.53729,-1.5866 -0.23157,0.27523 -0.93215,2.54477 -0.93215,3.0197 0,0.64508 0.2434,0.60245 1.44484,-0.25306 z m 29.612926,-0.14813 c 0.89071,0.2827 0.89503,-0.0473 0.007,-0.52261 -0.7579,-0.40561 -2.61685,0.20349 -2.28074,0.74731 0.1027,0.16618 0.50059,0.13417 0.8842,-0.0711 0.38361,-0.20531 1.00898,-0.27441 1.3897,-0.15357 z m 5.98389,-0.18062 c 0,-0.38806 -0.0609,-0.70556 -0.13524,-0.70556 -0.0744,0 -0.21827,0.3175 -0.31975,0.70556 -0.10148,0.38805 -0.0406,0.70555 0.13524,0.70555 0.17587,0 0.31975,-0.3175 0.31975,-0.70555 z M 33.738438,200.1875 c 0,-0.56988 -0.10432,-0.67179 -0.3926,-0.38351 -0.21592,0.21593 -0.28593,0.56518 -0.15556,0.77611 0.36491,0.59044 0.54816,0.45919 0.54816,-0.3926 z m 22.774926,0.25817 c 0.37664,-0.28487 0.5167,-0.523 0.31125,-0.52917 -0.20545,-0.006 -0.6817,0.22186 -1.05834,0.50673 -0.37663,0.28487 -0.51669,0.523 -0.31124,0.52917 0.20545,0.006 0.6817,-0.22186 1.05833,-0.50673 z M 30.845658,200.1875 c 0.23283,-0.23283 0.42333,-0.55033 0.42333,-0.70555 0,-0.51978 -0.53133,-0.28943 -0.97646,0.42333 -0.48241,0.77246 -0.12133,0.95669 0.55313,0.28222 z m 16.298336,-0.98777 c 0,-0.77611 -0.0974,-1.41111 -0.21656,-1.41111 -0.45704,0 -2.958446,1.55593 -2.958446,1.84021 0,0.3842 1.35627,0.93077 2.381246,0.95965 0.69459,0.0196 0.79376,-0.15394 0.79376,-1.38875 z m 23.28333,-0.7433 c 0,-1.57748 -0.0768,-1.77001 -0.61736,-1.54748 -0.33955,0.13979 -0.89518,0.33404 -1.23472,0.43167 -0.98974,0.28458 -0.77043,1.75354 0.35277,2.36288 1.43017,0.77588 1.49931,0.71837 1.49931,-1.24707 z m -41.804166,1.09607 c 0.11992,-0.19402 0.0499,-0.35277 -0.15557,-0.35277 -0.20548,0 -0.3736,0.15875 -0.3736,0.35277 0,0.19403 0.07,0.35278 0.15557,0.35278 0.0856,0 0.25369,-0.15875 0.3736,-0.35278 z m 38.209336,-1.34664 c -0.14906,-1.29022 -1.7991,-1.54452 -2.42563,-0.37383 -0.36458,0.68122 -0.31426,0.87969 0.36181,1.42713 1.07845,0.87328 2.21914,0.29111 2.06382,-1.0533 z m -3.19845,-1.01461 c 0.3664,-0.78903 0.34523,-1.08722 -0.12851,-1.81026 l -0.56719,-0.86562 -1.01801,1.63558 c -0.5599,0.89957 -1.01801,1.71543 -1.01801,1.81301 0,0.0976 0.51594,0.17619 1.14653,0.17468 0.89746,-0.002 1.24182,-0.20796 1.58519,-0.94739 z"
       style="fill:#000000;stroke-width:0.132292;stroke-miterlimit:4;stroke-dasharray:none"
       id="path5502" />
    <path
       d="m 60.463023,5.469103 c 1.647258,4.1392113 1.679085,8.241572 0.09546,12.30212 -0.403898,1.035637 -0.665878,1.885728 -0.582176,1.88912 0.3775,0.0153 2.399944,-4.148232 2.825523,-5.816781 0.259775,-1.018488 0.536279,-3.430241 0.614442,-5.3593677 0.158781,-3.9188648 0.712463,-4.6682439 0.937338,-1.268653 0.247471,3.7410357 -1.230301,9.7883867 -2.883116,11.7983217 -0.232181,0.282352 0.04077,0.134931 0.60653,-0.327604 1.977645,-1.616792 3.246304,-4.985744 3.411337,-9.0589117 0.04886,-1.20593 0.239522,-2.091327 0.44854,-2.082858 0.681511,0.02761 0.739342,1.122782 0.220517,4.1755897 -0.690278,4.061645 -2.276682,7.036239 -4.524525,8.483734 l -1.625263,1.046601 1.809849,0.180678 c 1.169802,0.116754 1.871227,0.362302 1.983401,0.694225 0.165296,0.489083 -2.637142,3.938347 -3.181875,3.916276 -0.139905,-0.0057 -0.49663,-0.576208 -0.792712,-1.267861 -0.437201,-1.021307 -0.735459,-1.265522 -1.58776,-1.300055 -0.604244,-0.02448 -1.322767,-0.360817 -1.693732,-0.792819 -0.488797,-0.569215 -0.881981,-0.700811 -1.629056,-0.545138 -0.967736,0.201628 -0.957876,0.216639 0.570104,0.868582 3.439892,1.467694 5.721755,3.819161 7.22101,7.441206 0.602104,1.454628 0.998367,1.940549 1.71696,2.105456 0.513818,0.117898 1.083234,0.473872 1.265394,0.791016 0.528864,0.920846 -0.09098,2.393549 -1.096014,2.602883 -0.486613,0.101373 -0.893642,0.365331 -0.90451,0.586613 -0.05002,1.012285 -2.049243,4.183468 -3.604866,5.717097 -1.13598,1.11992 -1.650802,1.886646 -1.522237,2.267053 0.106849,0.316145 0.326602,0.527254 0.488349,0.469115 0.374527,-0.134628 11.974606,-11.78267 12.1506,-12.200858 0.07221,-0.171607 -0.485454,-1.112395 -1.239298,-2.090656 -0.753835,-0.97824 -1.366679,-1.875586 -1.361878,-1.994079 0.02325,-0.573809 0.842492,-0.05314 1.817583,1.1552 l 1.08234,1.341217 0.224019,-1.171961 c 0.335184,-1.753518 1.064195,-1.703954 1.122991,0.07633 l 0.04923,1.491126 1.146263,-0.890795 c 0.630451,-0.489918 1.242333,-0.886872 1.359747,-0.882115 0.517955,0.02099 0.101169,0.814233 -0.820363,1.561338 l -1.003913,0.813915 1.703243,0.08012 c 1.993018,0.09376 2.120548,0.870232 0.176993,1.077519 l -1.199524,0.127943 0.93849,0.471791 c 0.516159,0.259479 0.931916,0.633797 0.923892,0.831834 -0.02066,0.509992 -0.179128,0.462928 -2.152352,-0.63958 -1.705139,-0.952702 -1.782131,-0.964338 -2.392537,-0.361736 -0.346878,0.342448 -2.590934,2.608668 -4.986787,5.036024 -2.395853,2.427356 -5.012568,5.052824 -5.814925,5.834362 l -1.458823,1.420986 1.199532,2.212745 c 0.659731,1.217017 1.191788,2.403639 1.182336,2.636928 -0.0095,0.233299 -1.25472,1.557681 -2.767246,2.943084 -1.512536,1.385392 -2.754349,2.624504 -2.759579,2.753588 -0.0052,0.129074 1.478441,3.097563 3.297045,6.596646 1.861219,3.581085 3.210489,6.584882 3.086788,6.871919 -0.169392,0.393065 -0.904263,0.482207 -3.206175,0.38894 -1.642522,-0.06655 -3.065728,-0.0036 -3.162668,0.139947 -0.09699,0.143511 0.863741,1.572647 2.13485,3.175821 1.271108,1.603204 2.303722,3.073474 2.294708,3.267308 -0.0089,0.19383 -0.415044,0.801644 -0.902272,1.350699 l -0.885862,0.998316 6.527969,5.3207 c 3.590382,2.926382 6.572642,5.32251 6.627257,5.324723 0.05456,0.0022 1.208298,-1.456798 2.563761,-3.242237 2.550321,-3.359357 3.418384,-4.217518 3.051946,-3.017088 -0.266515,0.873086 -5.135621,7.337975 -5.5151,7.3226 -0.15857,-0.0064 -3.341397,-2.515626 -7.072939,-5.576013 l -6.784637,-5.56432 -1.187146,1.150152 -1.187146,1.150163 -5.629065,-2.843088 c -3.095994,-1.56369 -5.806352,-2.851202 -6.023029,-2.861122 -0.216681,-0.0098 -1.448641,1.448571 -2.737708,3.241124 -1.289066,1.792543 -2.441714,3.253957 -2.561435,3.247595 -0.119751,-0.0059 -1.432133,-0.354739 -2.916469,-0.774175 l -2.69878,-0.762602 -4.946374,7.075611 c -2.720516,3.891574 -5.004107,7.143451 -5.074673,7.226382 -0.190226,0.223597 -2.110416,-0.613386 -5.861005,-2.554776 -2.111936,-1.093176 -3.21382,-1.848264 -2.993536,-2.051403 0.220284,-0.203128 1.713352,0.38616 4.056273,1.600937 2.039228,1.057323 3.899592,1.92583 4.134125,1.930018 0.399907,0.0072 9.349369,-12.580144 9.417886,-13.246106 0.01736,-0.169126 -0.323208,-0.37267 -0.7569,-0.452293 -0.433692,-0.07962 -0.78035,-0.346786 -0.770346,-0.593693 0.01,-0.246898 1.206355,-2.371967 2.65857,-4.722392 1.452215,-2.350416 2.64766,-4.405914 2.656549,-4.567747 0.0086,-0.161866 -1.178014,-0.231 -2.63755,-0.153705 -2.858947,0.151493 -2.963338,0.07358 -2.071665,-1.546127 0.304978,-0.553987 1.761262,-3.616432 3.236195,-6.805445 l 2.681702,-5.798187 -2.221393,-2.253428 c -2.061346,-2.091056 -2.185221,-2.306127 -1.719227,-2.984949 0.276195,-0.402348 0.805417,-1.198906 1.176046,-1.77014 l 0.67388,-1.03861 -5.501385,-6.556293 c -3.025758,-3.605951 -5.676236,-6.622556 -5.889943,-6.703534 -0.213705,-0.08102 -1.262159,0.306634 -2.329894,0.861423 -1.067725,0.554769 -2.12029,1.001423 -2.339031,0.99256 -0.625536,-0.02535 -0.43853,-0.654069 0.254139,-0.854422 0.343848,-0.09945 1.034254,-0.473657 1.534223,-0.83156 l 0.909039,-0.650722 -1.33033,0.156081 c -1.079703,0.126683 -1.325942,0.0478 -1.307039,-0.418747 0.01779,-0.43909 0.377227,-0.563861 1.521945,-0.528289 l 1.498638,0.04671 -0.958267,-0.571043 c -1.284162,-0.765275 -0.820863,-1.395876 0.480829,-0.65446 1.501968,0.855487 1.643545,0.74728 1.537149,-1.174743 -0.121009,-2.186061 0.552384,-2.385423 0.82549,-0.244382 l 0.190734,1.495218 0.898316,-1.603347 c 0.494066,-0.881841 1.074285,-1.702514 1.289367,-1.823686 0.892806,-0.503008 0.681241,0.313636 -0.638336,2.463997 -1.37458,2.239998 -1.389,2.296501 -0.78281,3.069075 1.39226,1.774329 10.613531,12.680324 10.72536,12.684854 0.06645,0.0027 0.494765,-0.548609 0.951728,-1.225124 l 0.830848,-1.230034 -1.380762,-1.528521 c -0.759418,-0.840684 -1.727642,-2.257543 -2.151628,-3.148558 -0.493341,-1.036782 -1.044153,-1.671582 -1.529912,-1.763212 -1.155722,-0.217987 -1.805551,-1.442279 -1.298234,-2.445913 0.227442,-0.449951 0.690358,-0.893745 1.0287,-0.986243 0.431641,-0.117982 0.709056,-0.71446 0.929831,-1.999256 0.173062,-1.007089 0.407494,-2.152948 0.520954,-2.546367 0.17402,-0.6034 -0.133467,-0.871037 -1.965209,-1.710612 -1.194327,-0.54743 -2.214067,-1.142631 -2.26608,-1.322684 -0.05205,-0.180035 0.776894,-0.711822 1.842031,-1.181716 1.707719,-0.753383 1.920771,-0.960297 1.802615,-1.750748 -0.240167,-1.60656 -6.164253,-3.901803 -11.726522,-4.543332 -1.70154,-0.196256 -2.747366,-0.462813 -2.632535,-0.670955 0.227814,-0.412946 4.945952,-0.09454 6.670185,0.450135 0.660288,0.208562 1.243554,0.339522 1.296161,0.291022 0.05261,-0.04851 -1.109839,-0.878641 -2.583195,-1.84474 -3.19676,-2.096176 -4.414848,-3.123752 -4.075406,-3.438038 0.137746,-0.127528 1.845734,0.852162 3.795525,2.177073 4.522709,3.073277 6.81395,4.513286 6.823068,4.288261 0.004,-0.09782 -0.844285,-1.211273 -1.885009,-2.474462 -2.069954,-2.512439 -4.820697,-6.302868 -4.807653,-6.624814 0.0045,-0.111638 0.210339,-0.194814 0.457367,-0.184805 0.247027,0.01001 1.117361,1.01855 1.934083,2.241197 0.816711,1.222656 2.744096,3.644229 4.283065,5.381287 2.614916,2.951472 2.732922,3.041173 1.802141,1.369831 -2.064745,-3.707589 -3.109184,-8.919705 -2.509707,-12.5244607 0.495114,-2.9771865 0.979284,-2.16584 0.83914,1.4061747 -0.147085,3.753702 0.321837,6.248581 1.769795,9.412514 1.152181,2.517619 2.021889,3.542098 2.787401,3.283367 0.383816,-0.129718 0.48433,-0.551394 0.385209,-1.61601 -0.168294,-1.807495 0.104406,-1.81358 2.952515,-0.06581 l 2.18035,1.337986 -0.170866,-1.080023 c -0.222869,-1.408797 0.44869,-1.394929 0.877968,0.01806 0.247713,0.815397 0.477784,1.021099 0.970324,0.867554 1.102679,-0.343731 1.139595,-0.406849 0.874596,-1.495379 -0.351617,-1.444319 0.335765,-1.757988 0.763939,-0.348609 0.330975,1.089483 0.752317,1.310131 1.815577,0.950791 0.40205,-0.135864 0.504604,-0.478223 0.379719,-1.267626 -0.13152,-0.831366 -0.05834,-1.039264 0.316434,-0.898967 0.268143,0.100438 0.52054,0.608553 0.560894,1.129223 0.05705,0.736073 0.264189,0.954398 0.931172,0.981422 0.71812,0.0291 0.864782,-0.137422 0.900651,-1.022706 0.05365,-1.324054 0.675538,-1.372257 0.773381,-0.05994 0.100299,1.345304 1.194429,1.567791 1.398712,0.284429 0.219825,-1.380923 1.056611,-1.485642 1.001494,-0.125318 -0.07213,1.780239 0.782227,1.311493 2.347107,-1.287746 0.798885,-1.326936 1.571466,-2.407794 1.716846,-2.401904 0.145381,0.0059 0.584939,0.579756 0.976812,1.275301 0.391863,0.695534 0.959835,1.274633 1.262157,1.286882 0.468965,0.019 0.540156,-0.413842 0.484867,-2.948078 -0.07185,-3.293458 -0.949598,-5.969287 -2.784919,-8.4898837 -1.051754,-1.444464 -1.090936,-2.2759117 -0.06362,-1.350593 1.771146,1.595341 3.317276,5.2424037 3.647465,8.6037667 l 0.191509,1.949611 0.520104,-1.567729 C 61.140073,13.177442 60.886873,8.6838773 59.710487,5.7916718 59.033885,4.1282166 58.868629,3.3743623 59.183381,3.3871152 c 0.252163,0.010217 0.828006,0.9471034 1.279643,2.0819579 z m -5.235731,14.128759 c -0.990944,1.467046 -0.986429,1.595444 0.05759,1.637744 0.955006,0.0387 1.486017,-0.903801 1.166914,-2.071126 -0.256903,-0.939831 -0.309509,-0.921226 -1.224499,0.433382 z m 2.051119,1.664412 c -0.405144,0.688483 0.03681,1.467854 0.851098,1.500847 0.546991,0.02216 1.181496,-1.02677 0.990202,-1.636945 -0.211696,-0.675284 -1.416217,-0.586265 -1.8413,0.136098 z m 2.737897,1.423979 c -0.0123,0.303541 0.136782,0.880599 0.331287,1.282343 0.351728,0.726455 0.358492,0.726258 1.237147,-0.03464 1.096894,-0.949882 1.120613,-1.247516 0.118136,-1.483053 -1.467544,-0.344805 -1.664205,-0.317374 -1.686599,0.235313 z m -23.456445,0.987679 c 0.153239,0.161696 0.840231,0.08218 1.526669,-0.176809 l 1.248063,-0.4708 -1.371181,-0.847565 -1.371181,-0.847576 -0.155488,1.024375 c -0.08548,0.563421 -0.03015,1.156678 0.123118,1.318375 z m 6.663228,-0.43193 c -4.163042,1.356576 -7.161557,3.916272 -8.628987,7.366213 -1.162763,2.733658 -1.130353,7.491991 0.06876,10.093188 1.662289,3.605983 4.857335,5.630321 9.668117,6.125626 3.588714,0.369469 6.406129,-0.170384 10.484327,-2.008999 3.553684,-1.602137 6.204606,-4.099384 7.422695,-6.992393 0.694982,-1.650587 0.753103,-2.132579 0.486861,-4.037199 -0.72715,-5.201703 -4.216711,-9.107676 -9.607483,-10.753956 -2.48809,-0.75981 -7.231004,-0.660361 -9.894293,0.20752 z m 6.849009,4.60469 c 0.923968,0.734839 0.5218,2.20206 -0.591227,2.156963 -0.685438,-0.02777 -0.896554,-0.239132 -0.950233,-0.951399 -0.09191,-1.21942 0.722836,-1.856619 1.54146,-1.205564 z m -3.488541,0.606688 c 0.335818,0.993659 -0.09772,1.781984 -0.960754,1.747017 -1.111888,-0.04505 -1.702109,-1.048969 -1.045362,-1.778099 0.606936,-0.673821 1.774002,-0.655768 2.006118,0.03104 z m 10.531316,4.844571 c -0.02321,0.57281 -0.460613,2.063174 -0.972007,3.311934 -4.132627,10.091368 -15.74931,8.413173 -17.821013,-2.574526 -0.191541,-1.015847 -0.228564,-1.957398 -0.08228,-2.092286 0.385976,-0.355926 0.794777,0.53045 0.985254,2.136238 0.369409,3.114168 2.68828,6.508848 5.265635,7.708533 4.765043,2.217987 10.041276,-1.263825 11.595691,-7.652033 0.498521,-2.048768 1.097553,-2.536646 1.028723,-0.83786 z M 36.967013,25.152367 c -0.01461,0.360704 1.279882,-0.209767 1.62057,-0.714148 0.132883,-0.196712 -0.162021,-0.18356 -0.687716,0.03068 -0.506197,0.206316 -0.925982,0.513873 -0.932852,0.683434 z M 34.02839,24.692793 c -0.625064,0.90879 0.406297,1.914979 1.446612,1.411272 0.858582,-0.415692 0.998905,-1.043276 0.382674,-1.711551 -0.535575,-0.580829 -1.310783,-0.453568 -1.829286,0.300279 z m 0.350226,3.345542 c -0.04187,1.033352 0.02144,1.022145 0.675582,-0.119748 0.368589,-0.643386 0.352081,-0.780136 -0.09637,-0.798306 -0.351232,-0.01423 -0.55449,0.307924 -0.579212,0.918054 z M 32.045272,27.42627 c -1.322071,0.41836 -1.512374,0.755712 -0.597587,1.059345 0.335321,0.111267 0.863528,0.319652 1.173788,0.46301 0.43445,0.200732 0.610559,0.01413 0.766133,-0.81156 0.230535,-1.22359 0.248349,-1.214191 -1.342334,-0.710795 z m 31.744815,6.687819 c -0.02157,0.532273 0.165431,0.889366 0.472229,0.901797 0.74373,0.03013 1.053446,-0.617098 0.587331,-1.227389 -0.604816,-0.791924 -1.019444,-0.664516 -1.05956,0.325592 z m -32.197713,3.227374 c -0.07587,0.321252 0.114482,0.692903 0.423101,0.825896 0.75422,0.32503 1.006221,0.02826 0.755323,-0.889581 -0.235103,-0.860073 -0.969503,-0.820372 -1.178424,0.06368 z m 22.655369,8.804828 c -1.551461,0.650604 -2.882867,1.226245 -2.958673,1.2792 -0.106541,0.07445 3.595073,7.300027 4.120494,8.043268 0.150779,0.213289 5.223446,-4.433199 5.238233,-4.798139 0.02466,-0.608571 -2.796156,-5.653524 -3.175642,-5.679569 -0.221975,-0.015 -1.672951,0.504636 -3.224412,1.15524 z m -18.381082,2.922447 c -2.482222,3.491942 -2.495201,3.267122 0.32914,5.699527 l 1.267187,1.091345 2.295565,-4.150849 2.295575,-4.150859 -1.303439,-0.418421 c -0.716891,-0.230131 -1.535033,-0.584303 -1.818108,-0.78703 -0.283065,-0.202735 -0.594032,-0.370392 -0.691033,-0.372581 -0.097,-0.0019 -1.1657,1.387816 -2.374887,3.088868 z m 10.021728,-1.12098 -3.044505,0.06248 -2.911972,5.396555 c -3.106918,5.75785 -8.061351,16.314169 -7.793242,16.604912 0.08878,0.09627 4.181221,0.07353 9.094351,-0.05051 4.913129,-0.124039 11.453933,-0.26908 14.535134,-0.322314 3.081191,-0.05324 5.661359,-0.15135 5.733699,-0.218056 0.136799,-0.126145 -4.836388,-9.810979 -8.994303,-17.515595 -1.886413,-3.495535 -2.524518,-4.399799 -2.986796,-4.232597 -0.32332,0.116947 -1.957882,0.240755 -3.632366,0.275123 z m 0.176696,22.887527 c -4.570168,0.113925 -8.494771,0.261772 -8.721339,0.328505 -0.406856,0.119877 -5.93095,8.755009 -5.718069,8.938377 0.206035,0.177467 6.189553,1.859292 6.686555,1.879429 0.272197,0.01103 1.549604,-1.446571 2.83867,-3.239124 1.289066,-1.792543 2.532101,-3.251537 2.762292,-3.24221 0.230192,0.0093 2.976815,1.305354 6.103598,2.880069 l 5.68507,2.863122 1.918327,-1.937187 c 1.055079,-1.06545 1.929793,-2.067249 1.943801,-2.226242 0.02945,-0.334042 -4.693822,-6.431818 -4.991348,-6.443873 -0.108991,-0.0044 -3.937387,0.08519 -8.507557,0.199134 z"
       style="fill:#000000;stroke-width:0.132292;stroke-miterlimit:4;stroke-dasharray:none"
       id="path5626" />
  </g>
</svg>
