<?xml version="1.0" encoding="UTF-8" standalone="no"?>
<!-- Created with Inkscape (http://www.inkscape.org/) -->

<svg
   width="210mm"
   height="297mm"
   viewBox="0 0 210 297"
   version="1.1"
   id="svg5"
   sodipodi:docname="girl_2.svg"
   inkscape:version="1.1.1 (c3084ef, 2021-09-22)"
   xmlns:inkscape="http://www.inkscape.org/namespaces/inkscape"
   xmlns:sodipodi="http://sodipodi.sourceforge.net/DTD/sodipodi-0.dtd"
   xmlns="http://www.w3.org/2000/svg"
   xmlns:svg="http://www.w3.org/2000/svg">
  <sodipodi:namedview
     id="namedview7"
     pagecolor="#505050"
     bordercolor="#eeeeee"
     borderopacity="1"
     inkscape:pageshadow="0"
     inkscape:pageopacity="0"
     inkscape:pagecheckerboard="0"
     inkscape:document-units="mm"
     showgrid="false"
     inkscape:zoom="0.47123162"
     inkscape:cx="531.58572"
     inkscape:cy="615.40862"
     inkscape:window-width="1512"
     inkscape:window-height="840"
     inkscape:window-x="0"
     inkscape:window-y="38"
     inkscape:window-maximized="1"
     inkscape:current-layer="layer1" />
  <defs
     id="defs2" />
  <g
     inkscape:label="Layer 1"
     inkscape:groupmode="layer"
     id="layer1">
    <path
       d="m 59.00804,179.91677 c -0.12407,-0.12409 -0.22559,-1.46915 -0.22559,-2.98903 0,-1.51987 -0.0913,-2.76344 -0.20298,-2.76344 -0.11164,0 -3.24695,1.18155 -6.96736,2.62565 -3.72041,1.44412 -7.00076,2.67443 -7.28966,2.73404 -0.41824,0.0863 -0.57032,-0.48702 -0.74634,-2.81344 -0.12159,-1.60698 -0.31915,-3.01988 -0.43903,-3.13976 -0.11988,-0.11988 -2.70588,0.67313 -5.74666,1.76223 -3.04079,1.08908 -5.6667,1.89489 -5.83535,1.79065 -0.16864,-0.10422 -0.2286,-0.93179 -0.13323,-1.83902 0.0954,-0.90723 0.26355,-2.86771 0.37373,-4.3566 l 0.20032,-2.70711 -1.95255,-0.24397 c -1.34444,-0.16799 -1.95255,-0.40111 -1.95255,-0.74853 0,-0.27755 0.57266,-2.50153 1.27258,-4.94224 1.43689,-5.0106 1.4732,-4.88177 -1.47992,-5.25073 -0.99051,-0.12377 -2.00231,-0.34949 -2.24844,-0.5016 -0.32126,-0.19854 0.91707,-2.19609 4.38875,-7.07946 2.65996,-3.74155 4.91769,-7.01497 5.01718,-7.27426 0.11045,-0.28782 -0.0742,-0.4744 -0.47421,-0.47914 -0.36031,-0.004 -1.32035,-0.30977 -2.13343,-0.67892 -1.19755,-0.54369 -1.51914,-0.89397 -1.69329,-1.84433 -0.30601,-1.67002 0.54885,-3.88982 1.71872,-4.46297 1.11785,-0.54763 1.19856,-0.16547 -1.32321,-6.26575 l -1.88321,-4.55557 -2.34465,0.12441 c -1.40438,0.0745 -2.34464,-0.0164 -2.34464,-0.22683 0,-0.46689 0.86336,-0.77534 2.23371,-0.79801 l 1.11767,-0.0185 -0.86279,-0.59886 c -1.7108,-1.18745 -2.30763,-1.77744 -2.05479,-2.03123 0.14157,-0.14211 0.9102,0.17362 1.70806,0.70162 1.57698,1.0436 2.00935,1.0137 1.4145,-0.0978 -0.20975,-0.39193 -0.38136,-0.96115 -0.38136,-1.26495 0,-0.98962 0.59786,-0.58264 1.132,0.77055 l 0.52219,1.32292 0.42122,-1.49929 c 0.54145,-1.92725 1.27255,-2.01705 0.96905,-0.11906 -0.1214,0.75916 -0.32309,1.64708 -0.44822,1.97315 -0.19748,0.51462 -0.0365,0.49538 1.2199,-0.14555 1.5298,-0.78044 2.72236,-0.97604 2.35818,-0.38679 -0.11952,0.19338 -1.00201,0.68919 -1.9611,1.10178 -0.95908,0.41259 -1.74378,0.84492 -1.74378,0.96075 0,0.11584 0.91281,2.46383 2.02847,5.21772 l 2.02847,5.00713 1.5875,-0.17981 c 0.98292,-0.11134 2.19208,0.0324 3.17499,0.37727 1.46007,0.51234 1.62228,0.51051 2.02072,-0.023 0.3685,-0.49334 0.23177,-0.72811 -0.91543,-1.57176 -3.51335,-2.58376 -5.08974,-7.49697 -4.13542,-12.88904 l 0.26032,-1.47085 -3.113,0.008 c -4.05783,0.0101 -7.23097,-1.01075 -11.00751,-3.54045 -0.26739,-0.17913 -0.37531,-0.50504 -0.23982,-0.72427 0.17218,-0.27861 0.53098,-0.19812 1.19173,0.26725 2.929,2.06306 6.46451,3.21689 9.87678,3.22329 2.0126,0.004 2.20846,-0.0594 2.02051,-0.65156 -0.12164,-0.38325 0.022,-0.84678 0.3457,-1.11541 0.66479,-0.55171 0.12347,-1.03701 -1.16639,-1.04566 -2.67972,-0.018 -8.88285,-3.35333 -10.98927,-5.90878 -1.7704,-2.14781 -0.78632,-2.02417 1.52059,0.19103 3.27283,3.14272 6.83177,4.71469 11.76104,5.1948 2.22393,0.21664 2.44889,0.17328 3.18298,-0.61346 l 0.78991,-0.84659 -2.73018,-0.79986 c -2.82265,-0.82693 -8.41837,-3.4172 -9.95686,-4.60904 -1.14842,-0.88966 -0.61107,-1.40915 0.62635,-0.60553 2.06939,1.34395 6.7466,3.47721 9.54086,4.35158 2.81055,0.87947 2.99379,0.89477 4.14514,0.34573 0.66252,-0.31594 1.20459,-0.71049 1.20459,-0.87678 0,-0.16629 -0.91281,-0.50318 -2.02847,-0.74861 -1.94025,-0.42685 -7.38665,-2.37979 -8.90905,-3.19455 -0.39815,-0.21307 -0.63873,-0.52523 -0.53464,-0.69366 0.10409,-0.16841 1.57698,0.25453 3.27308,0.93993 1.69609,0.68538 4.59193,1.63097 6.43519,2.10135 3.70693,0.94597 5.56005,0.86691 7.04712,-0.30059 0.66401,-0.52131 0.90937,-0.57396 1.02303,-0.2195 0.29655,0.92474 0.93585,0.94872 1.85356,0.0695 0.95391,-0.91393 1.8371,-0.59693 1.03377,0.37102 -0.59265,0.71408 0.63849,1.05839 1.38119,0.38627 0.67324,-0.60929 1.12045,-0.38143 0.81478,0.41513 -0.11192,0.29165 0.0181,0.67058 0.28889,0.84203 0.76832,0.48652 1.37335,0.37775 1.14912,-0.20658 -0.1242,-0.32367 -3e-5,-0.52917 0.31975,-0.52917 0.28755,0 0.61228,0.43656 0.72161,0.97015 0.22641,1.10484 1.65329,2.24919 1.65329,1.3259 0,-0.29268 0.15875,-0.53215 0.35278,-0.53215 0.19403,0 0.35278,0.28779 0.35278,0.63955 0,0.35176 0.47625,1.09582 1.05833,1.65351 0.82742,0.79272 1.05833,0.88408 1.05833,0.41878 0,-0.98962 0.63363,-0.66743 0.87831,0.44659 0.36382,1.65646 1.56193,2.86986 3.86285,3.91216 2.58058,1.16898 7.50931,2.67721 9.81527,3.0036 1.58832,0.22479 2.33962,0.66403 1.8955,1.10813 -0.31624,0.31626 -6.85089,-1.28151 -9.66095,-2.36215 -1.91881,-0.73792 -2.55764,-0.86309 -2.55764,-0.50122 0,0.81722 3.74289,2.42393 8.97669,3.85342 1.5417,0.42105 2.8702,0.96692 2.95222,1.21298 0.20834,0.625 -1.26386,0.28794 -6.72544,-1.5398 -4.43431,-1.48394 -4.49792,-1.4941 -4.49792,-0.72003 0,0.64764 0.50985,1.00338 2.91042,2.0307 1.60073,0.68501 3.86292,1.51516 5.02708,1.84481 2.24498,0.63563 2.91652,1.01782 2.37574,1.35204 -0.42873,0.26496 -4.92343,-1.12881 -7.76293,-2.40723 -2.41777,-1.08855 -3.09558,-0.98978 -1.90494,0.2776 0.42116,0.44829 0.76574,1.05185 0.76574,1.34123 0,0.77914 5.24294,2.90661 5.87345,2.38331 0.36452,-0.3025 0.47655,-0.26993 0.47655,0.13856 0,0.56227 2.34408,1.66902 3.53492,1.66902 1.19148,0 0.77467,0.54922 -1.07387,1.41502 l -1.77227,0.8301 1.79855,1.03839 c 1.20055,0.69313 1.6811,1.15583 1.44532,1.3916 -0.23578,0.2358 -0.75686,0.10377 -1.56721,-0.39706 -0.6677,-0.41264 -1.30868,-0.75028 -1.4244,-0.75028 -0.11572,0 0.0938,0.70972 0.46564,1.57718 0.83683,1.95223 0.29457,2.46907 -0.67102,0.63955 l -0.70447,-1.33477 -0.0156,1.85206 c -0.0238,2.82739 -0.67752,2.20522 -0.7945,-0.75615 l -0.10303,-2.60826 -6.52639,2.9487 -6.52639,2.9487 -0.18817,1.5598 c -0.10348,0.85788 -0.42098,1.84052 -0.70555,2.18363 -0.81335,0.9807 -2.61321,1.57289 -4.78054,1.57289 -1.74787,0 -1.97228,0.0783 -1.82611,0.63725 1.24489,4.76049 3.48905,16.0324 3.23755,16.26148 -0.17781,0.16195 -1.88982,-0.01 -3.80446,-0.38185 -1.91464,-0.37195 -3.53094,-0.62653 -3.59177,-0.5657 -0.0608,0.0608 -0.22381,1.93389 -0.36218,4.16237 -0.14201,2.28709 -0.42143,4.16462 -0.64157,4.31091 -0.21449,0.14256 -1.16256,0.26162 -2.10682,0.26458 -1.60724,0.005 -1.70326,0.0561 -1.50412,0.79915 0.11699,0.43656 0.21488,0.90472 0.21753,1.04034 0.003,0.13563 0.57897,0.007 1.28072,-0.28652 1.64195,-0.68606 2.07797,-0.49154 2.17198,0.96901 0.042,0.65318 0.17374,1.80187 0.29267,2.55263 0.16766,1.0583 0.10875,1.32918 -0.26219,1.20554 -0.27186,-0.0906 -0.59576,-0.97472 -0.75017,-2.04769 -0.14945,-1.03849 -0.32245,-1.93889 -0.38442,-2.00088 -0.062,-0.062 -0.61469,0.0623 -1.22823,0.2762 l -1.11554,0.38888 v 2.7877 c 0,1.89693 0.13219,2.78773 0.41369,2.78773 0.22752,0 3.46993,-1.19065 7.20535,-2.64586 3.73542,-1.45518 7.04176,-2.64583 7.34743,-2.64583 0.46658,0 0.55575,0.53443 0.55575,3.33058 0,3.05445 -0.24299,4.06997 -0.83274,3.48022 z m -19.01101,-6.44554 c 3.24317,-1.15023 3.2632,-1.16465 3.2632,-2.34879 v -1.19147 h -1.87556 -1.87556 l -0.442,-2.22367 c -0.64135,-3.22664 -0.89396,-3.38777 -1.55928,-0.99472 l -0.58234,2.09454 -2.12429,-0.19261 -2.1243,-0.19265 v 1.2305 c 0,0.67678 -0.10281,2.44679 -0.22847,3.93335 l -0.22847,2.70285 2.25694,-0.83 c 1.24132,-0.45648 3.72538,-1.35077 5.52013,-1.98733 z m 6.13717,-4.59859 h 1.35936 v -4.05694 c 0,-2.23131 -0.1451,-4.05694 -0.32244,-4.05694 -0.17735,0 -3.69247,-0.64412 -7.81138,-1.43139 -4.11891,-0.78727 -7.609,-1.30323 -7.75577,-1.14655 -0.27458,0.29313 -2.45484,7.79092 -2.45484,8.44206 0,0.45464 6.68118,1.35975 7.06319,0.95687 0.15364,-0.16203 0.62135,-1.45555 1.03935,-2.87446 0.44025,-1.49442 0.92694,-2.52421 1.15678,-2.44758 0.21823,0.0728 0.68404,1.4718 1.03512,3.10901 0.91521,4.26789 0.68079,3.99201 3.17075,3.73174 1.18828,-0.1242 2.77223,-0.22582 3.51988,-0.22582 z m 9.12047,-7.96751 c 0,-0.83711 -3.02091,-14.09763 -4.46598,-19.60372 l -1.26422,-4.81708 -1.48049,-0.22201 c -0.81427,-0.12211 -2.46027,-0.68538 -3.65778,-1.25169 l -2.17729,-1.02971 -0.41402,0.77711 c -0.22771,0.42741 -1.23442,1.80898 -2.23714,3.07017 -3.51069,4.41566 -12.86415,17.79376 -12.60775,18.03268 0.14237,0.13269 2.24322,0.58436 4.66857,1.00372 2.42535,0.41936 8.61659,1.60914 13.75832,2.64393 5.14174,1.03478 9.46768,1.89817 9.6132,1.9186 0.14552,0.0206 0.26458,-0.21445 0.26458,-0.522 z m -10.93958,-4.26561 c -1.24689,-1.96612 -1.66907,-3.78375 -1.05165,-4.52768 0.51164,-0.61651 1.80602,-0.69162 2.36063,-0.13703 0.28253,0.28255 0.74365,0.25979 1.69302,-0.0835 1.21992,-0.44111 1.34659,-0.42008 1.94886,0.32369 0.51219,0.63251 0.57821,1.02534 0.32228,1.91767 -0.34896,1.21677 -3.01071,4.15666 -3.76339,4.15666 -0.25492,0 -0.9343,-0.74242 -1.50975,-1.64978 z M 48.016,155.2 c 1.09525,-1.61181 1.1543,-2.55513 0.15993,-2.55513 -0.40082,0 -1.03858,0.16581 -1.41726,0.36848 -0.51605,0.27617 -0.88336,0.23199 -1.46641,-0.1764 -1.07599,-0.75364 -1.32648,-0.6867 -1.32648,0.3546 0,0.8564 0.74913,2.65914 1.49225,3.59106 0.49299,0.61819 1.47556,0.0103 2.55797,-1.58261 z m 9.53406,-11.22294 c 0.64893,-0.30795 1.35509,-1.00729 1.5902,-1.5749 0.36085,-0.87117 0.3134,-1.24714 -0.32335,-2.56252 -0.41044,-0.84783 -1.13835,-1.90989 -1.61757,-2.36008 -0.77618,-0.72919 -1.17025,-0.80984 -3.60895,-0.73864 -1.5057,0.044 -2.80247,0.14478 -2.88171,0.224 -0.17138,0.17139 1.3476,6.06057 1.79227,6.9487 0.40325,0.80539 3.40603,0.84312 5.04911,0.0634 z m -19.45537,-5.6543 c 2.38845,-3.09356 2.32722,-3.37275 -0.78904,-3.59818 -3.65146,-0.2641 -5.69299,0.94634 -5.76324,3.4171 -0.0379,1.33175 0.54539,2.06454 1.97261,2.47835 2.15992,0.62622 2.42539,0.49305 4.57967,-2.29727 z m 28.78617,-2.25846 6.73221,-2.9986 -0.0952,-1.20229 c -0.0904,-1.14184 -0.23428,-1.26156 -2.86056,-2.38012 -1.82602,-0.77771 -3.0561,-1.10482 -3.62119,-0.963 -0.50936,0.12785 -1.44998,1.06188 -2.32361,2.30733 -1.58154,2.25462 -3.91432,4.16131 -5.99528,4.90021 l -1.29992,0.46157 1.10062,1.5326 c 0.60534,0.84291 1.21989,1.48947 1.36566,1.43676 0.14577,-0.0527 3.29453,-1.4452 6.99724,-3.09446 z m -7.67416,-1.52014 c 2.12981,-1.04261 4.73233,-3.61838 5.68549,-5.62702 0.90442,-1.90593 1.12132,-5.4783 0.46736,-7.69744 -0.64307,-2.18221 -4.1779,-6.50595 -5.04639,-6.17268 -0.29145,0.11184 -0.64431,-0.14073 -0.86099,-0.61632 -0.20193,-0.44321 -0.67335,-0.99703 -1.0476,-1.23076 -0.60574,-0.37828 -0.68045,-0.32549 -0.68045,0.4808 0,1.18229 -0.58499,0.80504 -0.88751,-0.57232 -0.16871,-0.76812 -0.59057,-1.24458 -1.47569,-1.66667 -1.23622,-0.58951 -1.24152,-0.58843 -2.0395,0.41233 -0.94825,1.18922 -1.55373,0.67268 -0.71392,-0.60904 0.53626,-0.81844 0.52172,-0.85921 -0.38773,-1.08749 -0.74365,-0.18664 -1.23981,-1.4e-4 -2.32976,0.87577 -1.57347,1.26449 -2.23221,1.13461 -0.98403,-0.19402 0.80298,-0.85471 0.806,-0.88054 0.10293,-0.88054 -0.39837,0 -1.64702,0.55563 -2.77477,1.23471 -2.08249,1.25402 -2.97391,1.51839 -2.97391,0.88196 0,-0.19404 0.12841,-0.35279 0.28535,-0.35279 0.15694,0 0.59351,-0.2458 0.97014,-0.54624 1.1644,-0.92882 -1.61038,0.51832 -2.95764,1.54252 -1.71041,1.30025 -4.18048,4.93901 -4.66859,6.87745 -0.23535,0.93467 -0.349,2.80805 -0.2562,4.2232 0.29823,4.54803 2.62163,7.70514 7.2719,9.88126 3.41648,1.59877 5.41964,1.99747 9.58559,1.90786 3.24529,-0.0698 3.95339,-0.20167 5.71592,-1.06453 z m -10.20753,-7.28352 c -4.23256,-1.52334 -6.96123,-4.79002 -7.22069,-8.64439 -0.14923,-2.21679 0.55283,-2.16318 0.82454,0.063 0.60353,4.9448 4.94315,8.33662 10.71137,8.37197 4.32152,0.0265 6.94066,-1.33141 8.86627,-4.59674 0.78995,-1.33956 0.8881,-0.1624 0.10294,1.23463 -0.88194,1.56919 -2.72893,3.01119 -4.80572,3.75197 -1.97632,0.70496 -6.27285,0.61355 -8.47871,-0.18039 z m 6.55061,-11.7588 c -0.4717,-0.62744 -0.67588,-0.69408 -1.04069,-0.33962 -0.59725,0.58031 -1.01831,0.55943 -1.01831,-0.0504 0,-1.0594 2.26736,-1.2509 2.80982,-0.23731 0.78609,1.46881 0.23068,1.93294 -0.75082,0.62738 z m -7.047,-1.67426 c 1.19156,-0.99266 3.22411,-0.85029 3.22411,0.22588 0,0.59994 -0.42237,0.63349 -0.9782,0.0777 -0.3165,-0.3165 -0.62724,-0.3165 -1.32188,0 -1.3813,0.62936 -1.85647,0.47328 -0.92403,-0.30353 z m 26.93108,18.31827 c 0.58553,-0.31337 0.63331,-0.45196 0.24139,-0.70017 -0.81452,-0.51583 -1.37058,-0.35951 -1.37058,0.38529 0,0.81349 0.12984,0.84971 1.12919,0.31488 z m -8.50097,-5.71108 c -0.28392,-0.28393 -0.38642,-0.10758 -0.3786,0.65135 0.009,0.91231 0.0574,0.96035 0.38933,0.38933 0.27134,-0.46683 0.2683,-0.76166 -0.0107,-1.04068 z M 37.27807,116.28061 c 0.34987,-0.6537 0.30355,-0.72101 -0.42495,-0.61735 -0.44969,0.064 -0.87057,0.39415 -0.93528,0.73369 -0.16649,0.87352 0.8783,0.78417 1.36023,-0.11634 z"
       style="fill:#000000;stroke-width:0.132292;stroke-miterlimit:4;stroke-dasharray:none"
       id="path5270" />
  </g>
</svg>
