<?xml version="1.0" encoding="UTF-8" standalone="no"?>
<!-- Created with Inkscape (http://www.inkscape.org/) -->

<svg
   width="210mm"
   height="297mm"
   viewBox="0 0 210 297"
   version="1.1"
   id="svg5"
   sodipodi:docname="girl_1.svg"
   inkscape:version="1.1.1 (c3084ef, 2021-09-22)"
   xmlns:inkscape="http://www.inkscape.org/namespaces/inkscape"
   xmlns:sodipodi="http://sodipodi.sourceforge.net/DTD/sodipodi-0.dtd"
   xmlns="http://www.w3.org/2000/svg"
   xmlns:svg="http://www.w3.org/2000/svg">
  <sodipodi:namedview
     id="namedview7"
     pagecolor="#505050"
     bordercolor="#eeeeee"
     borderopacity="1"
     inkscape:pageshadow="0"
     inkscape:pageopacity="0"
     inkscape:pagecheckerboard="0"
     inkscape:document-units="mm"
     showgrid="false"
     inkscape:zoom="0.47123162"
     inkscape:cx="531.58572"
     inkscape:cy="615.40862"
     inkscape:window-width="1512"
     inkscape:window-height="840"
     inkscape:window-x="0"
     inkscape:window-y="38"
     inkscape:window-maximized="1"
     inkscape:current-layer="layer1" />
  <defs
     id="defs2" />
  <g
     inkscape:label="Layer 1"
     inkscape:groupmode="layer"
     id="layer1">
    <path
       d="m 60.463023,5.469103 c 1.647258,4.1392113 1.679085,8.241572 0.09546,12.30212 -0.403898,1.035637 -0.665878,1.885728 -0.582176,1.88912 0.3775,0.0153 2.399944,-4.148232 2.825523,-5.816781 0.259775,-1.018488 0.536279,-3.430241 0.614442,-5.3593677 0.158781,-3.9188648 0.712463,-4.6682439 0.937338,-1.268653 0.247471,3.7410357 -1.230301,9.7883867 -2.883116,11.7983217 -0.232181,0.282352 0.04077,0.134931 0.60653,-0.327604 1.977645,-1.616792 3.246304,-4.985744 3.411337,-9.0589117 0.04886,-1.20593 0.239522,-2.091327 0.44854,-2.082858 0.681511,0.02761 0.739342,1.122782 0.220517,4.1755897 -0.690278,4.061645 -2.276682,7.036239 -4.524525,8.483734 l -1.625263,1.046601 1.809849,0.180678 c 1.169802,0.116754 1.871227,0.362302 1.983401,0.694225 0.165296,0.489083 -2.637142,3.938347 -3.181875,3.916276 -0.139905,-0.0057 -0.49663,-0.576208 -0.792712,-1.267861 -0.437201,-1.021307 -0.735459,-1.265522 -1.58776,-1.300055 -0.604244,-0.02448 -1.322767,-0.360817 -1.693732,-0.792819 -0.488797,-0.569215 -0.881981,-0.700811 -1.629056,-0.545138 -0.967736,0.201628 -0.957876,0.216639 0.570104,0.868582 3.439892,1.467694 5.721755,3.819161 7.22101,7.441206 0.602104,1.454628 0.998367,1.940549 1.71696,2.105456 0.513818,0.117898 1.083234,0.473872 1.265394,0.791016 0.528864,0.920846 -0.09098,2.393549 -1.096014,2.602883 -0.486613,0.101373 -0.893642,0.365331 -0.90451,0.586613 -0.05002,1.012285 -2.049243,4.183468 -3.604866,5.717097 -1.13598,1.11992 -1.650802,1.886646 -1.522237,2.267053 0.106849,0.316145 0.326602,0.527254 0.488349,0.469115 0.374527,-0.134628 11.974606,-11.78267 12.1506,-12.200858 0.07221,-0.171607 -0.485454,-1.112395 -1.239298,-2.090656 -0.753835,-0.97824 -1.366679,-1.875586 -1.361878,-1.994079 0.02325,-0.573809 0.842492,-0.05314 1.817583,1.1552 l 1.08234,1.341217 0.224019,-1.171961 c 0.335184,-1.753518 1.064195,-1.703954 1.122991,0.07633 l 0.04923,1.491126 1.146263,-0.890795 c 0.630451,-0.489918 1.242333,-0.886872 1.359747,-0.882115 0.517955,0.02099 0.101169,0.814233 -0.820363,1.561338 l -1.003913,0.813915 1.703243,0.08012 c 1.993018,0.09376 2.120548,0.870232 0.176993,1.077519 l -1.199524,0.127943 0.93849,0.471791 c 0.516159,0.259479 0.931916,0.633797 0.923892,0.831834 -0.02066,0.509992 -0.179128,0.462928 -2.152352,-0.63958 -1.705139,-0.952702 -1.782131,-0.964338 -2.392537,-0.361736 -0.346878,0.342448 -2.590934,2.608668 -4.986787,5.036024 -2.395853,2.427356 -5.012568,5.052824 -5.814925,5.834362 l -1.458823,1.420986 1.199532,2.212745 c 0.659731,1.217017 1.191788,2.403639 1.182336,2.636928 -0.0095,0.233299 -1.25472,1.557681 -2.767246,2.943084 -1.512536,1.385392 -2.754349,2.624504 -2.759579,2.753588 -0.0052,0.129074 1.478441,3.097563 3.297045,6.596646 1.861219,3.581085 3.210489,6.584882 3.086788,6.871919 -0.169392,0.393065 -0.904263,0.482207 -3.206175,0.38894 -1.642522,-0.06655 -3.065728,-0.0036 -3.162668,0.139947 -0.09699,0.143511 0.863741,1.572647 2.13485,3.175821 1.271108,1.603204 2.303722,3.073474 2.294708,3.267308 -0.0089,0.19383 -0.415044,0.801644 -0.902272,1.350699 l -0.885862,0.998316 6.527969,5.3207 c 3.590382,2.926382 6.572642,5.32251 6.627257,5.324723 0.05456,0.0022 1.208298,-1.456798 2.563761,-3.242237 2.550321,-3.359357 3.418384,-4.217518 3.051946,-3.017088 -0.266515,0.873086 -5.135621,7.337975 -5.5151,7.3226 -0.15857,-0.0064 -3.341397,-2.515626 -7.072939,-5.576013 l -6.784637,-5.56432 -1.187146,1.150152 -1.187146,1.150163 -5.629065,-2.843088 c -3.095994,-1.56369 -5.806352,-2.851202 -6.023029,-2.861122 -0.216681,-0.0098 -1.448641,1.448571 -2.737708,3.241124 -1.289066,1.792543 -2.441714,3.253957 -2.561435,3.247595 -0.119751,-0.0059 -1.432133,-0.354739 -2.916469,-0.774175 l -2.69878,-0.762602 -4.946374,7.075611 c -2.720516,3.891574 -5.004107,7.143451 -5.074673,7.226382 -0.190226,0.223597 -2.110416,-0.613386 -5.861005,-2.554776 -2.111936,-1.093176 -3.21382,-1.848264 -2.993536,-2.051403 0.220284,-0.203128 1.713352,0.38616 4.056273,1.600937 2.039228,1.057323 3.899592,1.92583 4.134125,1.930018 0.399907,0.0072 9.349369,-12.580144 9.417886,-13.246106 0.01736,-0.169126 -0.323208,-0.37267 -0.7569,-0.452293 -0.433692,-0.07962 -0.78035,-0.346786 -0.770346,-0.593693 0.01,-0.246898 1.206355,-2.371967 2.65857,-4.722392 1.452215,-2.350416 2.64766,-4.405914 2.656549,-4.567747 0.0086,-0.161866 -1.178014,-0.231 -2.63755,-0.153705 -2.858947,0.151493 -2.963338,0.07358 -2.071665,-1.546127 0.304978,-0.553987 1.761262,-3.616432 3.236195,-6.805445 l 2.681702,-5.798187 -2.221393,-2.253428 c -2.061346,-2.091056 -2.185221,-2.306127 -1.719227,-2.984949 0.276195,-0.402348 0.805417,-1.198906 1.176046,-1.77014 l 0.67388,-1.03861 -5.501385,-6.556293 c -3.025758,-3.605951 -5.676236,-6.622556 -5.889943,-6.703534 -0.213705,-0.08102 -1.262159,0.306634 -2.329894,0.861423 -1.067725,0.554769 -2.12029,1.001423 -2.339031,0.99256 -0.625536,-0.02535 -0.43853,-0.654069 0.254139,-0.854422 0.343848,-0.09945 1.034254,-0.473657 1.534223,-0.83156 l 0.909039,-0.650722 -1.33033,0.156081 c -1.079703,0.126683 -1.325942,0.0478 -1.307039,-0.418747 0.01779,-0.43909 0.377227,-0.563861 1.521945,-0.528289 l 1.498638,0.04671 -0.958267,-0.571043 c -1.284162,-0.765275 -0.820863,-1.395876 0.480829,-0.65446 1.501968,0.855487 1.643545,0.74728 1.537149,-1.174743 -0.121009,-2.186061 0.552384,-2.385423 0.82549,-0.244382 l 0.190734,1.495218 0.898316,-1.603347 c 0.494066,-0.881841 1.074285,-1.702514 1.289367,-1.823686 0.892806,-0.503008 0.681241,0.313636 -0.638336,2.463997 -1.37458,2.239998 -1.389,2.296501 -0.78281,3.069075 1.39226,1.774329 10.613531,12.680324 10.72536,12.684854 0.06645,0.0027 0.494765,-0.548609 0.951728,-1.225124 l 0.830848,-1.230034 -1.380762,-1.528521 c -0.759418,-0.840684 -1.727642,-2.257543 -2.151628,-3.148558 -0.493341,-1.036782 -1.044153,-1.671582 -1.529912,-1.763212 -1.155722,-0.217987 -1.805551,-1.442279 -1.298234,-2.445913 0.227442,-0.449951 0.690358,-0.893745 1.0287,-0.986243 0.431641,-0.117982 0.709056,-0.71446 0.929831,-1.999256 0.173062,-1.007089 0.407494,-2.152948 0.520954,-2.546367 0.17402,-0.6034 -0.133467,-0.871037 -1.965209,-1.710612 -1.194327,-0.54743 -2.214067,-1.142631 -2.26608,-1.322684 -0.05205,-0.180035 0.776894,-0.711822 1.842031,-1.181716 1.707719,-0.753383 1.920771,-0.960297 1.802615,-1.750748 -0.240167,-1.60656 -6.164253,-3.901803 -11.726522,-4.543332 -1.70154,-0.196256 -2.747366,-0.462813 -2.632535,-0.670955 0.227814,-0.412946 4.945952,-0.09454 6.670185,0.450135 0.660288,0.208562 1.243554,0.339522 1.296161,0.291022 0.05261,-0.04851 -1.109839,-0.878641 -2.583195,-1.84474 -3.19676,-2.096176 -4.414848,-3.123752 -4.075406,-3.438038 0.137746,-0.127528 1.845734,0.852162 3.795525,2.177073 4.522709,3.073277 6.81395,4.513286 6.823068,4.288261 0.004,-0.09782 -0.844285,-1.211273 -1.885009,-2.474462 -2.069954,-2.512439 -4.820697,-6.302868 -4.807653,-6.624814 0.0045,-0.111638 0.210339,-0.194814 0.457367,-0.184805 0.247027,0.01001 1.117361,1.01855 1.934083,2.241197 0.816711,1.222656 2.744096,3.644229 4.283065,5.381287 2.614916,2.951472 2.732922,3.041173 1.802141,1.369831 -2.064745,-3.707589 -3.109184,-8.919705 -2.509707,-12.5244607 0.495114,-2.9771865 0.979284,-2.16584 0.83914,1.4061747 -0.147085,3.753702 0.321837,6.248581 1.769795,9.412514 1.152181,2.517619 2.021889,3.542098 2.787401,3.283367 0.383816,-0.129718 0.48433,-0.551394 0.385209,-1.61601 -0.168294,-1.807495 0.104406,-1.81358 2.952515,-0.06581 l 2.18035,1.337986 -0.170866,-1.080023 c -0.222869,-1.408797 0.44869,-1.394929 0.877968,0.01806 0.247713,0.815397 0.477784,1.021099 0.970324,0.867554 1.102679,-0.343731 1.139595,-0.406849 0.874596,-1.495379 -0.351617,-1.444319 0.335765,-1.757988 0.763939,-0.348609 0.330975,1.089483 0.752317,1.310131 1.815577,0.950791 0.40205,-0.135864 0.504604,-0.478223 0.379719,-1.267626 -0.13152,-0.831366 -0.05834,-1.039264 0.316434,-0.898967 0.268143,0.100438 0.52054,0.608553 0.560894,1.129223 0.05705,0.736073 0.264189,0.954398 0.931172,0.981422 0.71812,0.0291 0.864782,-0.137422 0.900651,-1.022706 0.05365,-1.324054 0.675538,-1.372257 0.773381,-0.05994 0.100299,1.345304 1.194429,1.567791 1.398712,0.284429 0.219825,-1.380923 1.056611,-1.485642 1.001494,-0.125318 -0.07213,1.780239 0.782227,1.311493 2.347107,-1.287746 0.798885,-1.326936 1.571466,-2.407794 1.716846,-2.401904 0.145381,0.0059 0.584939,0.579756 0.976812,1.275301 0.391863,0.695534 0.959835,1.274633 1.262157,1.286882 0.468965,0.019 0.540156,-0.413842 0.484867,-2.948078 -0.07185,-3.293458 -0.949598,-5.969287 -2.784919,-8.4898837 -1.051754,-1.444464 -1.090936,-2.2759117 -0.06362,-1.350593 1.771146,1.595341 3.317276,5.2424037 3.647465,8.6037667 l 0.191509,1.949611 0.520104,-1.567729 C 61.140073,13.177442 60.886873,8.6838773 59.710487,5.7916718 59.033885,4.1282166 58.868629,3.3743623 59.183381,3.3871152 c 0.252163,0.010217 0.828006,0.9471034 1.279643,2.0819579 z m -5.235731,14.128759 c -0.990944,1.467046 -0.986429,1.595444 0.05759,1.637744 0.955006,0.0387 1.486017,-0.903801 1.166914,-2.071126 -0.256903,-0.939831 -0.309509,-0.921226 -1.224499,0.433382 z m 2.051119,1.664412 c -0.405144,0.688483 0.03681,1.467854 0.851098,1.500847 0.546991,0.02216 1.181496,-1.02677 0.990202,-1.636945 -0.211696,-0.675284 -1.416217,-0.586265 -1.8413,0.136098 z m 2.737897,1.423979 c -0.0123,0.303541 0.136782,0.880599 0.331287,1.282343 0.351728,0.726455 0.358492,0.726258 1.237147,-0.03464 1.096894,-0.949882 1.120613,-1.247516 0.118136,-1.483053 -1.467544,-0.344805 -1.664205,-0.317374 -1.686599,0.235313 z m -23.456445,0.987679 c 0.153239,0.161696 0.840231,0.08218 1.526669,-0.176809 l 1.248063,-0.4708 -1.371181,-0.847565 -1.371181,-0.847576 -0.155488,1.024375 c -0.08548,0.563421 -0.03015,1.156678 0.123118,1.318375 z m 6.663228,-0.43193 c -4.163042,1.356576 -7.161557,3.916272 -8.628987,7.366213 -1.162763,2.733658 -1.130353,7.491991 0.06876,10.093188 1.662289,3.605983 4.857335,5.630321 9.668117,6.125626 3.588714,0.369469 6.406129,-0.170384 10.484327,-2.008999 3.553684,-1.602137 6.204606,-4.099384 7.422695,-6.992393 0.694982,-1.650587 0.753103,-2.132579 0.486861,-4.037199 -0.72715,-5.201703 -4.216711,-9.107676 -9.607483,-10.753956 -2.48809,-0.75981 -7.231004,-0.660361 -9.894293,0.20752 z m 6.849009,4.60469 c 0.923968,0.734839 0.5218,2.20206 -0.591227,2.156963 -0.685438,-0.02777 -0.896554,-0.239132 -0.950233,-0.951399 -0.09191,-1.21942 0.722836,-1.856619 1.54146,-1.205564 z m -3.488541,0.606688 c 0.335818,0.993659 -0.09772,1.781984 -0.960754,1.747017 -1.111888,-0.04505 -1.702109,-1.048969 -1.045362,-1.778099 0.606936,-0.673821 1.774002,-0.655768 2.006118,0.03104 z m 10.531316,4.844571 c -0.02321,0.57281 -0.460613,2.063174 -0.972007,3.311934 -4.132627,10.091368 -15.74931,8.413173 -17.821013,-2.574526 -0.191541,-1.015847 -0.228564,-1.957398 -0.08228,-2.092286 0.385976,-0.355926 0.794777,0.53045 0.985254,2.136238 0.369409,3.114168 2.68828,6.508848 5.265635,7.708533 4.765043,2.217987 10.041276,-1.263825 11.595691,-7.652033 0.498521,-2.048768 1.097553,-2.536646 1.028723,-0.83786 z M 36.967013,25.152367 c -0.01461,0.360704 1.279882,-0.209767 1.62057,-0.714148 0.132883,-0.196712 -0.162021,-0.18356 -0.687716,0.03068 -0.506197,0.206316 -0.925982,0.513873 -0.932852,0.683434 z M 34.02839,24.692793 c -0.625064,0.90879 0.406297,1.914979 1.446612,1.411272 0.858582,-0.415692 0.998905,-1.043276 0.382674,-1.711551 -0.535575,-0.580829 -1.310783,-0.453568 -1.829286,0.300279 z m 0.350226,3.345542 c -0.04187,1.033352 0.02144,1.022145 0.675582,-0.119748 0.368589,-0.643386 0.352081,-0.780136 -0.09637,-0.798306 -0.351232,-0.01423 -0.55449,0.307924 -0.579212,0.918054 z M 32.045272,27.42627 c -1.322071,0.41836 -1.512374,0.755712 -0.597587,1.059345 0.335321,0.111267 0.863528,0.319652 1.173788,0.46301 0.43445,0.200732 0.610559,0.01413 0.766133,-0.81156 0.230535,-1.22359 0.248349,-1.214191 -1.342334,-0.710795 z m 31.744815,6.687819 c -0.02157,0.532273 0.165431,0.889366 0.472229,0.901797 0.74373,0.03013 1.053446,-0.617098 0.587331,-1.227389 -0.604816,-0.791924 -1.019444,-0.664516 -1.05956,0.325592 z m -32.197713,3.227374 c -0.07587,0.321252 0.114482,0.692903 0.423101,0.825896 0.75422,0.32503 1.006221,0.02826 0.755323,-0.889581 -0.235103,-0.860073 -0.969503,-0.820372 -1.178424,0.06368 z m 22.655369,8.804828 c -1.551461,0.650604 -2.882867,1.226245 -2.958673,1.2792 -0.106541,0.07445 3.595073,7.300027 4.120494,8.043268 0.150779,0.213289 5.223446,-4.433199 5.238233,-4.798139 0.02466,-0.608571 -2.796156,-5.653524 -3.175642,-5.679569 -0.221975,-0.015 -1.672951,0.504636 -3.224412,1.15524 z m -18.381082,2.922447 c -2.482222,3.491942 -2.495201,3.267122 0.32914,5.699527 l 1.267187,1.091345 2.295565,-4.150849 2.295575,-4.150859 -1.303439,-0.418421 c -0.716891,-0.230131 -1.535033,-0.584303 -1.818108,-0.78703 -0.283065,-0.202735 -0.594032,-0.370392 -0.691033,-0.372581 -0.097,-0.0019 -1.1657,1.387816 -2.374887,3.088868 z m 10.021728,-1.12098 -3.044505,0.06248 -2.911972,5.396555 c -3.106918,5.75785 -8.061351,16.314169 -7.793242,16.604912 0.08878,0.09627 4.181221,0.07353 9.094351,-0.05051 4.913129,-0.124039 11.453933,-0.26908 14.535134,-0.322314 3.081191,-0.05324 5.661359,-0.15135 5.733699,-0.218056 0.136799,-0.126145 -4.836388,-9.810979 -8.994303,-17.515595 -1.886413,-3.495535 -2.524518,-4.399799 -2.986796,-4.232597 -0.32332,0.116947 -1.957882,0.240755 -3.632366,0.275123 z m 0.176696,22.887527 c -4.570168,0.113925 -8.494771,0.261772 -8.721339,0.328505 -0.406856,0.119877 -5.93095,8.755009 -5.718069,8.938377 0.206035,0.177467 6.189553,1.859292 6.686555,1.879429 0.272197,0.01103 1.549604,-1.446571 2.83867,-3.239124 1.289066,-1.792543 2.532101,-3.251537 2.762292,-3.24221 0.230192,0.0093 2.976815,1.305354 6.103598,2.880069 l 5.68507,2.863122 1.918327,-1.937187 c 1.055079,-1.06545 1.929793,-2.067249 1.943801,-2.226242 0.02945,-0.334042 -4.693822,-6.431818 -4.991348,-6.443873 -0.108991,-0.0044 -3.937387,0.08519 -8.507557,0.199134 z"
       style="fill:#000000;stroke-width:0.132292;stroke-miterlimit:4;stroke-dasharray:none"
       id="path5626" />
  </g>
</svg>
