<?xml version="1.0" encoding="UTF-8" standalone="no"?>
<!-- Created with Inkscape (http://www.inkscape.org/) -->

<svg
   width="210mm"
   height="297mm"
   viewBox="0 0 210 297"
   version="1.1"
   id="svg5"
   sodipodi:docname="girl_3.svg"
   inkscape:version="1.1.1 (c3084ef, 2021-09-22)"
   xmlns:inkscape="http://www.inkscape.org/namespaces/inkscape"
   xmlns:sodipodi="http://sodipodi.sourceforge.net/DTD/sodipodi-0.dtd"
   xmlns="http://www.w3.org/2000/svg"
   xmlns:svg="http://www.w3.org/2000/svg">
  <sodipodi:namedview
     id="namedview7"
     pagecolor="#505050"
     bordercolor="#eeeeee"
     borderopacity="1"
     inkscape:pageshadow="0"
     inkscape:pageopacity="0"
     inkscape:pagecheckerboard="0"
     inkscape:document-units="mm"
     showgrid="false"
     inkscape:zoom="0.47123162"
     inkscape:cx="531.58572"
     inkscape:cy="615.40862"
     inkscape:window-width="1512"
     inkscape:window-height="840"
     inkscape:window-x="0"
     inkscape:window-y="38"
     inkscape:window-maximized="1"
     inkscape:current-layer="layer1" />
  <defs
     id="defs2" />
  <g
     inkscape:label="Layer 1"
     inkscape:groupmode="layer"
     id="layer1">
    <path
       d="m 34.091218,283.54981 c 0,-0.1741 1.07156,-0.49549 2.38125,-0.71422 4.16715,-0.69588 4.3132,-0.74655 4.48305,-1.55495 0.22628,-1.07696 2.6607,-22.24927 2.6607,-23.14022 0,-0.71962 -0.1383,-0.73237 -7.9375,-0.73237 -5.46374,0 -7.9375,-0.11912 -7.9375,-0.38219 0,-0.21021 1.98437,-4.03201 4.40972,-8.49289 2.42535,-4.4609 4.40972,-8.27618 4.40972,-8.47841 0,-0.22035 -0.31807,-0.2673 -0.79375,-0.11717 -2.78781,0.87985 -3.90533,0.48482 -3.5569,-1.25733 0.11595,-0.57975 0.0537,-1.02757 -0.14274,-1.02757 -0.40976,0 -4.50244,5.14034 -4.50244,5.65499 0,0.19333 0.77433,1.30812 1.72074,2.47729 2.02119,2.49695 1.85485,3.35423 -0.20261,1.04423 l -1.41014,-1.58321 0.25064,1.6714 c 0.17,1.13363 0.12559,1.67142 -0.13802,1.67142 -0.21376,0 -0.49077,-0.63851 -0.61556,-1.41893 -0.28387,-1.77525 -0.68953,-2.06634 -0.96439,-0.69202 -0.11579,0.57894 -0.37324,1.05262 -0.57212,1.05262 -0.45315,0 -0.45707,-0.55372 -0.0149,-2.09563 0.19072,-0.66498 0.30236,-1.25342 0.24812,-1.30766 -0.0542,-0.0542 -0.87552,0.13518 -1.82505,0.42096 -1.06766,0.32131 -1.85198,0.39404 -2.05541,0.19061 -0.20344,-0.20344 0.22606,-0.49525 1.12554,-0.76474 1.68928,-0.50612 1.83764,-0.85701 0.50389,-1.19176 -1.76518,-0.44303 -3.3348,-1.23213 -3.12526,-1.57118 0.12284,-0.19875 1.24383,0.0153 2.73302,0.52177 1.38863,0.47231 2.77477,0.84999 3.08033,0.8393 0.30557,-0.0107 1.41143,-1.14039 2.45748,-2.51046 1.50227,-1.9676 1.90997,-2.77897 1.94029,-3.86139 0.0225,-0.80457 -0.12587,-1.37025 -0.35941,-1.3701 -0.70008,2.7e-4 -1.22685,-0.96373 -1.00639,-1.84208 0.11754,-0.46834 0.71968,-1.41436 1.3381,-2.10229 0.97482,-1.08438 1.88698,-1.50244 6.85703,-3.14272 3.15296,-1.04058 5.73264,-2.00404 5.73264,-2.14103 0,-0.13698 -0.3301,-0.35383 -0.73356,-0.48189 -1.22704,-0.38945 -5.54565,-4.71844 -6.62952,-6.64547 -0.56063,-0.99677 -1.12197,-2.39217 -1.2474,-3.1009 -0.14745,-0.83312 -0.54879,-1.49876 -1.13543,-1.88313 -0.74666,-0.48924 -0.88226,-0.80962 -0.76559,-1.80895 0.12044,-1.03169 0.0195,-1.2451 -0.67059,-1.41831 -0.9045,-0.22702 -0.99121,-0.54516 -0.43287,-1.58841 0.3437,-0.64222 0.31121,-0.67253 -0.3447,-0.3215 -1.26494,0.67698 -1.56318,1.66522 -0.74843,2.47998 0.86421,0.8642 0.92901,2.06425 0.12807,2.3716 -0.39301,0.15081 -0.8515,-0.1088 -1.39424,-0.78945 -0.73284,-0.91909 -0.83215,-0.95295 -1.05923,-0.36116 -0.16376,0.42672 -0.0473,0.80162 0.33589,1.08186 0.77852,0.56926 0.74085,0.88023 -0.10665,0.88023 -0.90066,0 -1.56042,-1.2017 -1.11583,-2.03242 0.18288,-0.34172 0.66471,-0.92195 1.07075,-1.2894 0.40601,-0.36745 0.73823,-0.85191 0.73823,-1.07658 0,-0.76291 1.95976,-2.30438 2.92971,-2.30438 1.02659,0 1.2813,-0.50325 0.42168,-0.83313 -0.29105,-0.11168 -0.52918,-0.60491 -0.52918,-1.09607 0,-0.66921 -0.18385,-0.89302 -0.73359,-0.89302 -0.61449,0 -0.7005,0.1575 -0.52979,0.97014 0.11209,0.53358 0.0423,1.20826 -0.15506,1.49931 -0.31089,0.45843 -0.42868,0.43763 -0.88132,-0.15562 -0.28735,-0.37664 -0.52245,-1.05133 -0.52245,-1.49931 0,-0.44799 -0.12344,-0.81452 -0.27428,-0.81452 -0.62141,0 -1.87706,1.16473 -1.71394,1.58981 0.0967,0.25206 -0.0263,0.73476 -0.2734,1.07267 -0.42155,0.5765 -0.48122,0.56875 -0.96767,-0.12577 -0.51544,-0.73589 -0.522,-0.73415 -1.13397,0.30184 -0.62324,1.05506 -1.2812,1.38082 -1.2812,0.63433 0,-0.57066 1.72122,-2.76732 2.16836,-2.76732 0.20272,0 0.85777,-0.34835 1.45571,-0.77411 0.89863,-0.63989 1.49943,-0.75995 3.46508,-0.6924 1.35289,0.0465 2.47544,-0.076 2.60411,-0.28422 0.34112,-0.55194 2.1778,-0.43893 2.78829,0.17156 0.48147,0.48147 0.57538,0.4667 0.90102,-0.14177 0.31284,-0.58453 0.26253,-0.65284 -0.36084,-0.48983 -0.66203,0.17313 -0.7036,0.0788 -0.48306,-1.09683 0.15615,-0.83226 0.0874,-1.47166 -0.19464,-1.81155 -0.64692,-0.77947 -0.94288,-0.64562 -1.17861,0.53304 -0.2495,1.24748 -1.32166,1.43867 -2.21527,0.39501 -0.5559,-0.64924 -0.58203,-0.64924 -1.23127,0 -0.86093,0.86093 -1.73998,0.84584 -1.97001,-0.0338 -0.14759,-0.56437 -0.31063,-0.62845 -0.85621,-0.33646 -0.81529,0.43633 -1.36488,0.15589 -1.36488,-0.69644 0,-0.69099 1.04872,-1.79775 1.70347,-1.79775 0.63269,0 0.49122,-0.63898 -0.2265,-1.02309 -0.98988,-0.52977 -2.3589,0.30974 -2.3589,1.44652 0,1.32694 -0.45039,1.59362 -0.86219,0.51051 -0.45815,-1.20503 -0.16736,-1.89783 1.0638,-2.53449 1.43558,-0.74237 2.36371,-0.63933 3.29526,0.36583 0.49879,0.5382 1.20431,0.88194 1.81019,0.88194 1.09652,0 3.0085,0.52986 4.4441,1.23157 0.90237,0.44106 0.94959,0.40995 1.49844,-0.98728 l 0.56671,-1.4427 1.20029,1.16335 c 1.34889,1.30741 1.30773,1.30984 5.32783,-0.31387 4.550276,-1.83785 9.319076,-2.12836 13.884446,-0.84582 1.0395,0.29203 1.93334,0.48187 1.98628,0.42188 0.053,-0.06 0.60513,-0.94251 1.22706,-1.96115 0.62193,-1.01865 1.2727,-1.85209 1.44613,-1.85209 0.17346,0 0.61906,0.59532 0.99026,1.32293 0.53799,1.05454 0.99491,1.41741 2.25226,1.78867 1.3644,0.40285 1.75991,0.38945 2.92959,-0.0993 1.75373,-0.73276 2.1999,-0.53505 1.99184,0.88264 l -0.16705,1.13811 1.65648,-0.24841 c 1.01115,-0.15163 1.8301,-0.1043 2.10217,0.12149 0.50559,0.4196 2.88159,0.51983 4.97831,0.21 0.77611,-0.11468 1.80799,-0.20578 2.29307,-0.20244 2.79765,0.0193 2.69228,-0.0299 2.14241,1.00009 -0.17987,0.33692 -0.41301,0.89039 -0.5181,1.22994 -0.3093,0.99936 -0.91877,0.70684 -0.91877,-0.44098 0,-0.80014 -0.16159,-1.05833 -0.66235,-1.05833 -0.36431,0 -0.82705,0.19844 -1.02834,0.44097 -0.36185,0.43601 -0.42598,0.63514 -0.42598,1.32292 0,0.19403 -0.3347,0.35278 -0.74379,0.35278 -0.62345,0 -0.70683,-0.14733 -0.51529,-0.91049 0.3629,-1.44587 -0.85885,-0.93786 -1.34126,0.55771 -0.28647,0.88815 -0.63511,1.2682 -1.24208,1.35401 -0.80205,0.11339 -0.83238,0.0479 -0.61319,-1.32292 0.18445,-1.15348 0.12386,-1.4422 -0.30272,-1.4422 -0.3337,0 -0.53332,0.33011 -0.53332,0.88194 0,0.48507 -0.28434,1.15976 -0.63187,1.49931 -0.60719,0.59327 -0.6061,0.66164 0.028,1.75228 0.86869,1.49411 0.40004,2.2953 -0.48822,0.83467 -0.80135,-1.31772 -1.84702,-1.49977 -1.5378,-0.26772 0.1282,0.51076 0.007,0.98523 -0.32244,1.25833 -0.46421,0.38526 -0.44558,0.52106 0.1537,1.12035 0.37506,0.37507 0.68194,0.92007 0.68194,1.21112 0,0.29104 0.21153,0.52916 0.47006,0.52916 0.25854,0 0.85385,0.58546 1.32292,1.30102 0.76665,1.16951 1.01208,1.30322 2.42813,1.32291 1.80846,0.0251 2.47418,0.82788 2.20538,2.65932 -0.24411,1.6632 -1.02451,1.32184 -0.98888,-0.43255 0.0277,-1.36198 -0.0483,-1.49931 -0.82907,-1.49931 -0.68673,0 -0.92326,0.24822 -1.17659,1.23472 -0.34949,1.36103 -1.18498,2.46945 -1.86138,2.46945 -0.7903,0 -0.8255,-0.9593 -0.0898,-2.44634 0.78533,-1.58729 0.54054,-2.46106 -0.32768,-1.16963 -0.2935,0.43656 -0.7002,0.79375 -0.9038,0.79375 -0.20359,0 -0.66157,0.26371 -1.01773,0.58604 -0.35616,0.32232 -0.97656,0.75888 -1.37866,0.97014 -0.45929,0.2413 -1.02108,1.25545 -1.51112,2.72787 -1.3116,3.94095 -4.05168,7.11445 -7.8071,9.04202 l -1.76389,0.90536 4.06809,0.74539 c 5.99527,1.0985 8.06084,2.66416 5.74268,4.35282 l -0.94896,0.69126 1.06765,0.55211 c 0.58721,0.30366 2.72081,0.96578 4.74132,1.47139 2.02052,0.50561 3.93862,0.99782 4.26246,1.09381 0.42347,0.12552 0.91711,-0.3744 1.75811,-1.78045 1.53529,-2.56684 2.46083,-2.66625 1.14569,-0.12306 l -0.56435,1.09133 1.22335,-0.75607 c 0.67285,-0.41584 1.40305,-0.75608 1.62269,-0.75608 0.80431,0 0.35857,0.55413 -1.277,1.5875 l -1.67505,1.05834 1.5601,0.17639 c 0.88481,0.10003 1.62953,0.38728 1.72051,0.6636 0.13018,0.39544 -0.22132,0.43953 -1.86594,0.23405 l -2.02634,-0.25317 0.92319,1.21036 c 0.50776,0.6657 0.92319,1.39382 0.92319,1.61804 0,0.79863 -0.66054,0.38752 -1.47053,-0.91524 l -0.82252,-1.32292 -0.3202,2.38125 c -0.22839,1.69841 -0.46697,2.38125 -0.832,2.38125 -0.35141,0 -0.45272,-0.24874 -0.32331,-0.79375 0.10367,-0.43656 0.29498,-1.68299 0.42513,-2.76985 l 0.23664,-1.9761 -4.27165,-1.0702 c -2.3494,-0.58862 -4.34738,-0.94768 -4.43993,-0.79792 -0.0926,0.14975 -0.73556,0.3787 -1.4289,0.50877 l -1.26062,0.2365 0.90394,0.71105 c 1.06569,0.83826 1.17274,1.71393 0.23938,1.95801 -0.45479,0.11893 -0.60788,0.39056 -0.48499,0.86052 0.24452,0.93504 -0.86431,2.07464 -2.01862,2.07464 -0.54884,0 -1.28805,-0.36818 -1.77071,-0.88195 -0.80235,-0.85407 -2.93006,-1.25484 -3.2776,-0.61736 -0.0793,0.14552 1.02069,3.99521 2.44451,8.55486 1.42381,4.55965 2.5906,8.48871 2.59287,8.73125 0.003,0.33661 -1.49888,0.44098 -6.34589,0.44098 h -6.35 v 0.84739 c 0,0.91778 -1.29889,19.5209 -1.53756,22.0215 -0.0905,0.94779 0.006,1.57353 0.25499,1.65164 0.22034,0.0692 1.94844,0.2308 3.84021,0.35917 2.04013,0.1384 3.43959,0.38545 3.43959,0.60719 0,0.36947 -8.00041,0.14418 -8.38059,-0.236 -0.16777,-0.16778 1.15128,-20.3344 1.54199,-23.5752 l 0.20203,-1.67569 h -4.06924 c -2.43041,0 -4.160316,0.1474 -4.295436,0.366 -0.12441,0.20132 -0.8699,5.87664 -1.65664,12.61182 -0.78674,6.73518 -1.5631,12.39226 -1.72524,12.57128 -0.28717,0.31707 -4.98836,1.20592 -6.5759,1.2433 -0.43657,0.0103 -0.79375,-0.12374 -0.79375,-0.29787 z m 21.931436,-27.2873 c 4.98028,-0.049 9.14952,-0.18383 9.26497,-0.29953 0.11545,-0.11568 -1.04068,-4.24318 -2.56918,-9.17221 -1.52851,-4.92904 -3.39005,-11.28462 -4.13677,-14.12352 l -1.35768,-5.16163 -3.54069,0.16146 c -2.72214,0.12412 -4.118,0.0101 -6.03779,-0.49313 l -2.497076,-0.65459 -7.99806,14.65755 c -4.39893,8.06165 -7.99815,14.81316 -7.99826,15.00337 -1.3e-4,0.2191 3.26432,0.31387 8.90764,0.25863 4.89931,-0.048 12.982616,-0.12735 17.962896,-0.1764 z m 11.58952,-16.67827 c 0.53013,-0.63876 0.56537,-0.59889 -1.32999,-1.50429 -1.46066,-0.69774 -1.49931,-0.69884 -1.49931,-0.0427 0,0.78084 1.18651,2.08465 1.89709,2.08465 0.26728,0 0.68678,-0.24196 0.93221,-0.53769 z M 35.325938,239.0059 c 0.23113,-0.21698 -0.24108,-1.4502 -1.3694,-3.57632 -2.26543,-4.2688 -2.45296,-4.46029 -3.22066,-3.28862 -0.72011,1.09902 -0.47668,1.98376 0.54581,1.98376 0.74724,0 0.75357,0.23273 0.0566,2.08293 -0.14983,0.39776 0.10315,0.4491 1.28313,0.26042 1.5767,-0.25213 2.01162,0.29555 0.94059,1.18442 -0.54949,0.45604 -0.7055,1.46996 -0.2901,1.88536 0.27762,0.27763 1.53983,-0.0493 2.05399,-0.53195 z m 5.44733,-6.29271 c 1.75379,-3.20123 3.06934,-5.86073 2.92344,-5.91001 -0.1459,-0.0493 -2.75684,0.74447 -5.80209,1.76389 l -5.53682,1.85348 2.35363,4.31628 c 1.29448,2.37395 2.4705,4.19939 2.61337,4.05653 0.14286,-0.14286 1.69467,-2.87894 3.44847,-6.08017 z m 22.457546,5.37487 c 0.39652,-0.26472 3.49096,-9.19794 3.26437,-9.42377 -0.22865,-0.22787 -8.13614,-1.63889 -8.29488,-1.48015 -0.0859,0.0859 0.51021,2.63518 1.3247,5.66505 1.43133,5.3245 1.51162,5.50868 2.39924,5.50346 0.5051,-0.003 1.09306,-0.12204 1.30657,-0.26459 z m 5.42825,-1.05293 c -0.005,-0.31275 -2.31169,-1.85208 -2.77516,-1.85208 -0.31419,0 -0.74825,0.82297 -0.74825,1.41867 0,0.16644 0.59531,0.3649 1.32292,0.44101 0.7276,0.0761 1.52135,0.16507 1.76389,0.19768 0.24253,0.0326 0.439,-0.0598 0.4366,-0.20528 z m 0.39866,-3.65329 c -0.45388,-0.36753 -1.0364,-0.66824 -1.2945,-0.66824 -1.16029,0 -0.76349,-0.77357 0.72382,-1.41111 1.7451,-0.74803 1.77908,-1.11149 0.18113,-1.93782 l -1.00885,-0.5217 -0.78429,2.37629 c -0.43136,1.30696 -0.84243,2.53504 -0.91349,2.72907 -0.0799,0.21807 0.64414,0.30485 1.8961,0.22726 l 2.02531,-0.12552 z m -11.76461,-7.19732 c 8.89749,-2.09776 13.92367,-10.1915 11.42907,-18.40442 -1.39801,-4.60264 -4.6701,-8.21029 -7.77328,-8.57046 -1.30364,-0.15131 -1.61312,-0.31417 -1.53042,-0.80535 0.057,-0.33863 -0.10174,-0.61569 -0.35278,-0.61569 -0.28177,0 -0.43956,0.40501 -0.41234,1.05834 0.0716,1.71942 0.096,1.76389 0.96666,1.76389 0.86455,0 2.69341,1.21508 2.69341,1.78949 0,0.52143 -0.96322,0.37832 -1.17541,-0.17463 -0.32622,-0.85011 -1.75371,-0.82128 -2.60011,0.0525 -1.02534,1.05855 -2.3819,1.09996 -2.1111,0.0644 0.16399,-0.62712 0.0705,-0.7069 -0.62405,-0.53258 -0.5227,0.13119 -0.98617,0.001 -1.28681,-0.36112 -0.40344,-0.48612 -0.33155,-0.68514 0.50848,-1.4077 0.53809,-0.46285 1.36637,-0.84154 1.84061,-0.84154 0.52531,0 0.86228,-0.20362 0.86228,-0.52104 0,-0.96508 -1.69699,-1.68619 -4.33272,-1.84112 -2.33864,-0.13747 -2.4913,-0.10531 -1.87061,0.39413 0.37171,0.2991 0.70644,0.82458 0.74385,1.16773 0.11491,1.05412 0.80302,2.48024 1.29154,2.67672 0.37916,0.1525 0.37641,0.24777 -0.0151,0.5222 -0.7097,0.4975 -3.20048,1.27158 -3.41176,1.0603 -0.38673,-0.38673 0.3027,-1.35799 1.1073,-1.55993 0.46367,-0.11638 0.84304,-0.34376 0.84304,-0.50531 0,-0.56941 -0.66277,-0.69249 -1.55062,-0.28796 -0.69005,0.3144 -1.01801,0.30947 -1.41658,-0.0213 -0.82489,-0.68462 -0.26739,-1.43719 1.06468,-1.43719 0.65834,0 1.19698,-0.16268 1.19698,-0.36151 0,-0.42526 -1.50197,-1.0496 -2.52501,-1.0496 -0.64948,0 -0.70409,0.18636 -0.59439,2.02847 l 0.12079,2.02847 -1.95302,0.0127 c -1.534726,0.01 -2.120286,0.18001 -2.734026,0.79375 -0.97183,0.97183 -2.57998,1.01123 -3.41931,0.0838 -0.78097,-0.86295 -0.88254,-0.79966 -2.41002,1.50157 -1.8575,2.79845 -2.48389,5.36808 -2.27625,9.33778 0.16965,3.24339 0.20369,3.35011 1.82581,5.72417 4.23671,6.20064 12.115326,9.06893 19.881216,7.23797 z m -8.78731,-5.64449 c -2.25059,-0.72197 -4.965096,-3.25675 -6.257586,-5.84325 -1.02751,-2.05622 -2.05444,-5.8422 -1.6849,-6.21174 0.36476,-0.36476 0.93623,0.29888 0.93623,1.08723 0,0.44324 0.30213,1.68405 0.6714,2.75735 1.6762,4.87197 5.053986,7.71107 9.197736,7.73089 4.89695,0.0234 8.70649,-3.65331 9.91764,-9.57189 0.58129,-2.84056 0.64407,-2.99359 1.05821,-2.57945 0.45555,0.45555 -0.41263,4.36724 -1.46722,6.6108 -2.35907,5.01871 -7.57741,7.55799 -12.37151,6.02006 z m -0.45467,-14.8391 c -0.3049,-0.30491 -0.55437,-0.76982 -0.55437,-1.03314 0,-0.53125 0.93889,-1.5875 1.41111,-1.5875 0.47223,0 1.41112,1.05625 1.41112,1.5875 0,0.53125 -0.93889,1.5875 -1.41112,1.5875 -0.16631,0 -0.55184,-0.24946 -0.85674,-0.55436 z m 4.37585,-0.69081 c -0.62304,-0.75072 0.093,-2.28261 1.06701,-2.28261 0.97396,0 1.69004,1.53189 1.067,2.28261 -0.24631,0.29679 -0.72646,0.53961 -1.067,0.53961 -0.34054,0 -0.8207,-0.24282 -1.06701,-0.53961 z m -17.982996,6.88961 c 0,-0.58208 -0.16373,-1.05833 -0.36384,-1.05833 -0.48715,0 -0.81924,0.92995 -0.56691,1.5875 0.34896,0.90939 0.93075,0.57862 0.93075,-0.52917 z m 37.323886,0.635 c 0.55791,-0.5579 0.53432,-0.82639 -0.13103,-1.49174 -0.86034,-0.86035 -1.20952,-0.66393 -1.20952,0.68036 0,1.28124 0.54241,1.60953 1.34055,0.81138 z m -41.429636,-0.81138 c -0.11169,-0.29105 -0.26545,-0.52917 -0.34171,-0.52917 -0.0763,0 -0.13865,0.23812 -0.13865,0.52917 0,0.29104 0.15377,0.52916 0.34171,0.52916 0.18794,0 0.25033,-0.23812 0.13865,-0.52916 z m 43.247376,-2.79625 c -0.19477,-0.19929 -0.59746,-0.0752 -1.03204,0.31813 -0.53823,0.48709 -0.61747,0.75962 -0.32376,1.11351 0.31517,0.37976 0.51078,0.31947 1.03204,-0.31813 0.38643,-0.47268 0.51567,-0.91716 0.32376,-1.11351 z m -40.199956,0.34762 c 0,-0.37235 -0.67702,-0.52878 -0.87839,-0.20296 -0.12187,0.19719 0.0259,0.35853 0.3284,0.35853 0.3025,0 0.54999,-0.07 0.54999,-0.15557 z m 1.31372,-1.8233 c -0.0849,-0.0849 -0.4221,-0.0517 -0.74929,0.0739 -0.55222,0.21191 -0.54952,0.27871 0.0377,0.93154 0.62998,0.70035 0.63308,0.70004 0.74929,-0.0739 0.0642,-0.42743 0.0472,-0.84662 -0.0377,-0.93154 z m 37.491836,0.0318 c 0,-0.67775 -0.82194,-1.22794 -1.83445,-1.22794 -1.13625,0 -1.1007,-0.0764 -0.61394,1.31988 0.35233,1.01068 0.43352,1.04986 1.41111,0.68085 0.5705,-0.21534 1.03728,-0.56309 1.03728,-0.77279 z m -36.530206,-1.81216 c 0.28425,-1.13253 -0.50456,-2.09873 -1.42504,-1.74551 -0.46913,0.18002 -0.51758,0.33412 -0.20374,0.64796 0.22647,0.22648 0.41176,0.7769 0.41176,1.22316 0,1.12311 0.92764,1.02737 1.21702,-0.12561 z m -2.41499,-0.73134 c -0.3586,-0.35861 -0.65449,0.18128 -0.36026,0.65735 0.22226,0.35963 0.30536,0.35991 0.42485,0.001 0.0817,-0.2451 0.0526,-0.54155 -0.0646,-0.65878 z m 37.181306,-0.10784 c 0,-0.15553 0.10629,-0.57358 0.23621,-0.929 0.22569,-0.61745 0.20483,-0.61873 -0.46876,-0.0288 -0.38772,0.33955 -0.89089,0.61737 -1.11815,0.61737 -0.43172,0 -0.55479,0.44636 -0.21638,0.78477 0.27137,0.27137 1.56708,-0.096 1.56708,-0.44429 z m -1.45767,-2.84617 c -0.56668,-0.35899 -1.50701,-0.40926 -1.81903,-0.0973 -0.12061,0.12061 0.0424,0.56618 0.36217,0.99015 0.57388,0.76081 0.5903,0.76201 1.26046,0.0919 0.55299,-0.55298 0.58944,-0.73576 0.1964,-0.98475 z m 3.13336,0.51944 c 0.57098,-0.15301 0.79375,-0.47616 0.79375,-1.15141 0,-0.51628 0.25432,-1.30178 0.56515,-1.74555 0.70271,-1.00325 0.60482,-1.0856 -0.82973,-0.69804 -0.96017,0.2594 -1.14653,0.47675 -1.14653,1.33718 0,1.26881 -0.44849,1.58069 -1.49201,1.0375 -0.79288,-0.41272 -0.79232,-0.40749 0.0542,0.51285 0.93795,1.01974 0.91694,1.01251 2.05517,0.70747 z m -29.167816,-1.04194 c 0.61877,-0.74557 10e-4,-1.73432 -1.08287,-1.73432 -1.08429,0 -1.70164,0.98875 -1.08288,1.73432 0.25504,0.30731 0.74234,0.55874 1.08288,0.55874 0.34054,0 0.82783,-0.25143 1.08287,-0.55874 z m -4.22414,-0.52362 c 0.56353,-0.40126 1.0246,-0.93229 1.0246,-1.18004 0,-0.47076 -1.32529,-1.83856 -1.53729,-1.5866 -0.23157,0.27523 -0.93215,2.54477 -0.93215,3.0197 0,0.64508 0.2434,0.60245 1.44484,-0.25306 z m 29.612926,-0.14813 c 0.89071,0.2827 0.89503,-0.0473 0.007,-0.52261 -0.7579,-0.40561 -2.61685,0.20349 -2.28074,0.74731 0.1027,0.16618 0.50059,0.13417 0.8842,-0.0711 0.38361,-0.20531 1.00898,-0.27441 1.3897,-0.15357 z m 5.98389,-0.18062 c 0,-0.38806 -0.0609,-0.70556 -0.13524,-0.70556 -0.0744,0 -0.21827,0.3175 -0.31975,0.70556 -0.10148,0.38805 -0.0406,0.70555 0.13524,0.70555 0.17587,0 0.31975,-0.3175 0.31975,-0.70555 z M 33.738438,200.1875 c 0,-0.56988 -0.10432,-0.67179 -0.3926,-0.38351 -0.21592,0.21593 -0.28593,0.56518 -0.15556,0.77611 0.36491,0.59044 0.54816,0.45919 0.54816,-0.3926 z m 22.774926,0.25817 c 0.37664,-0.28487 0.5167,-0.523 0.31125,-0.52917 -0.20545,-0.006 -0.6817,0.22186 -1.05834,0.50673 -0.37663,0.28487 -0.51669,0.523 -0.31124,0.52917 0.20545,0.006 0.6817,-0.22186 1.05833,-0.50673 z M 30.845658,200.1875 c 0.23283,-0.23283 0.42333,-0.55033 0.42333,-0.70555 0,-0.51978 -0.53133,-0.28943 -0.97646,0.42333 -0.48241,0.77246 -0.12133,0.95669 0.55313,0.28222 z m 16.298336,-0.98777 c 0,-0.77611 -0.0974,-1.41111 -0.21656,-1.41111 -0.45704,0 -2.958446,1.55593 -2.958446,1.84021 0,0.3842 1.35627,0.93077 2.381246,0.95965 0.69459,0.0196 0.79376,-0.15394 0.79376,-1.38875 z m 23.28333,-0.7433 c 0,-1.57748 -0.0768,-1.77001 -0.61736,-1.54748 -0.33955,0.13979 -0.89518,0.33404 -1.23472,0.43167 -0.98974,0.28458 -0.77043,1.75354 0.35277,2.36288 1.43017,0.77588 1.49931,0.71837 1.49931,-1.24707 z m -41.804166,1.09607 c 0.11992,-0.19402 0.0499,-0.35277 -0.15557,-0.35277 -0.20548,0 -0.3736,0.15875 -0.3736,0.35277 0,0.19403 0.07,0.35278 0.15557,0.35278 0.0856,0 0.25369,-0.15875 0.3736,-0.35278 z m 38.209336,-1.34664 c -0.14906,-1.29022 -1.7991,-1.54452 -2.42563,-0.37383 -0.36458,0.68122 -0.31426,0.87969 0.36181,1.42713 1.07845,0.87328 2.21914,0.29111 2.06382,-1.0533 z m -3.19845,-1.01461 c 0.3664,-0.78903 0.34523,-1.08722 -0.12851,-1.81026 l -0.56719,-0.86562 -1.01801,1.63558 c -0.5599,0.89957 -1.01801,1.71543 -1.01801,1.81301 0,0.0976 0.51594,0.17619 1.14653,0.17468 0.89746,-0.002 1.24182,-0.20796 1.58519,-0.94739 z"
       style="fill:#000000;stroke-width:0.132292;stroke-miterlimit:4;stroke-dasharray:none"
       id="path5502" />
  </g>
</svg>
