<?xml version="1.0" encoding="UTF-8" standalone="no"?>
<!-- Created with Inkscape (http://www.inkscape.org/) -->

<svg
   width="210mm"
   height="297mm"
   viewBox="0 0 210 297"
   version="1.1"
   id="svg5"
   inkscape:version="1.1.1 (c3084ef, 2021-09-22)"
   sodipodi:docname="banana.svg"
   xmlns:inkscape="http://www.inkscape.org/namespaces/inkscape"
   xmlns:sodipodi="http://sodipodi.sourceforge.net/DTD/sodipodi-0.dtd"
   xmlns="http://www.w3.org/2000/svg"
   xmlns:svg="http://www.w3.org/2000/svg">
  <sodipodi:namedview
     id="namedview7"
     pagecolor="#505050"
     bordercolor="#eeeeee"
     borderopacity="1"
     inkscape:pageshadow="0"
     inkscape:pageopacity="0"
     inkscape:pagecheckerboard="0"
     inkscape:document-units="mm"
     showgrid="false"
     inkscape:zoom="1.2611523"
     inkscape:cx="429.36924"
     inkscape:cy="228.75905"
     inkscape:window-width="1312"
     inkscape:window-height="837"
     inkscape:window-x="0"
     inkscape:window-y="38"
     inkscape:window-maximized="0"
     inkscape:current-layer="layer1" />
  <defs
     id="defs2" />
  <g
     inkscape:label="Layer 1"
     inkscape:groupmode="layer"
     id="layer1">
    <path
       style="fill:#ffea00;fill-opacity:1;stroke:none;stroke-width:1;stroke-linecap:butt;stroke-linejoin:miter;stroke-miterlimit:4;stroke-dasharray:none;stroke-opacity:1"
       d="m 89.070642,22.040766 -2.00217,1.547132 -1.72915,2.548218 -1.27411,5.460466 0.36403,4.914421 1.75843,5.494194 2.67295,4.518568 4.20036,4.582209 7.509728,5.47319 10.30997,4.90042 9.16442,2.54567 6.2369,0.70006 8.84621,-0.44549 6.04597,-2.54567 -0.0636,-5.85505 -2.86387,-2.22746 -9.67356,-2.92752 -7.38245,-1.71833 -7.76429,-2.863881 -7.06424,-3.882149 -3.88215,-3.054806 -2.800238,-2.927524 -3.11845,-4.709491 -1.52741,-3.627583 -3.56394,-6.364179 z"
       id="path2395" />
    <path
       style="fill:#662700;fill-opacity:1;stroke:none;stroke-width:1;stroke-miterlimit:4;stroke-dasharray:none;stroke-opacity:1"
       d="m 127.8014,65.225294 c -0.17858,-0.0119 -0.78957,-0.0495 -1.35777,-0.0834 -5.25588,-0.31373 -11.04904,-1.59379 -16.70731,-3.69167 -5.84,-2.16526 -11.522818,-5.51839 -15.993088,-9.43665 -1.03812,-0.90992 -2.73372,-2.62206 -3.60637,-3.64153 -3.82583,-4.469531 -5.97373,-9.208419 -6.46387,-14.261192 -0.17441,-1.797955 -0.0893,-4.045912 0.20418,-5.390434 0.3798,-1.740192 0.97636,-2.88836 2.58641,-4.977924 0.92012,-1.19416 1.20751,-1.682105 1.49862,-2.544406 0.36524,-1.081894 0.67837,-3.241264 0.73711,-5.083185 0.0289,-0.905961 0.0156,-1.177317 -0.0901,-1.840844 -0.26399,-1.657638 -0.12204,-2.001346 0.91809,-2.223073 1.10286,-0.235096 2.33758,-0.241799 2.87727,-0.01562 0.47308,0.198266 0.74069,0.630839 0.65516,1.059026 -0.0205,0.102805 -0.21022,0.846448 -0.42153,1.65254 -0.53703,2.048643 -0.60946,2.490369 -0.65021,3.96543 -0.0396,1.433656 0.0398,2.519188 0.22878,3.128758 0.18051,0.582167 0.8936,1.954188 1.8409,3.54199 0.44553,0.746769 0.95184,1.649977 1.12512,2.007128 0.17329,0.35715 0.59822,1.233793 0.94429,1.948094 2.16422,4.467028 4.410518,7.658683 6.935698,9.854602 2.6148,2.273858 7.18144,5.050662 11.21998,6.822458 4.3456,1.906506 8.60439,3.200692 14.37458,4.368232 2.89986,0.58675 3.70887,0.79062 5.54912,1.39839 3.16902,1.0466 5.69372,2.42564 8.02851,4.38531 0.35715,0.29977 0.7689,0.62584 0.91501,0.72462 0.61917,0.41857 0.84184,0.73388 0.93743,1.32743 0.11263,0.69935 -0.11412,1.64153 -0.54873,2.28004 -0.18086,0.26572 -0.4275,0.50031 -0.92286,0.87779 -2.8381,2.16276 -6.63316,3.42618 -11.30199,3.76258 -0.93573,0.0674 -3.02316,0.11823 -3.51247,0.0855 z m 2.21374,-0.91106 c 3.41316,-0.16959 6.12888,-0.65684 7.74261,-1.38916 0.3923,-0.17804 1.02239,-0.56738 0.75817,-0.46849 -1.7875,0.66897 -4.57729,1.22083 -6.61172,1.30787 -1.46209,0.0625 -4.84625,-0.12077 -7.32011,-0.39653 -6.47468,-0.72173 -12.80967,-2.66656 -19.36288,-5.94437 -7.460308,-3.73153 -13.266148,-8.59422 -17.109938,-14.330472 -1.33617,-1.994013 -2.38194,-4.001925 -2.89976,-5.56762 -0.0893,-0.269923 -0.17331,-0.479777 -0.18674,-0.466344 -0.0306,0.03056 0.31978,1.234613 0.58768,2.019709 0.33847,0.991889 0.62059,1.667562 1.13386,2.715525 1.87076,3.819612 4.81086,7.371912 8.82298,10.660162 3.2888,2.69543 7.812418,5.42228 11.895178,7.17045 5.78452,2.47682 12.2016,4.11881 17.97781,4.60012 1.85867,0.15488 2.85807,0.17436 4.57286,0.0892 z m 3.15827,-1.51176 c 1.5561,-0.17481 3.12079,-0.51441 4.61315,-1.00123 0.73885,-0.24102 1.01664,-0.38229 0.89457,-0.45494 -0.0259,-0.0154 -0.21982,-0.0459 -0.43086,-0.0677 -0.56519,-0.0584 -1.32715,-0.19913 -1.83003,-0.33806 -0.83805,-0.23152 -0.85563,-0.19773 0.3007,-0.57795 1.10497,-0.36333 2.3757,-0.89367 2.63312,-1.09894 0.35747,-0.28503 0.0119,-0.44921 -1.36944,-0.65062 -1.672,-0.24378 -3.50658,-0.62388 -3.79781,-0.78687 -0.0594,-0.0332 0.79161,-0.0633 2.23467,-0.0791 2.41917,-0.0264 2.76251,-0.0592 3.24851,-0.31049 0.43959,-0.22733 0.12375,-0.39126 -1.5708,-0.8153 -2.18652,-0.54714 -4.20625,-0.96984 -8.35823,-1.74925 -3.72626,-0.6995 -5.90266,-1.19973 -8.61031,-1.97904 -6.73256,-1.93774 -12.62915,-4.735335 -17.65092,-8.374349 -2.05323,-1.487869 -3.487838,-2.846321 -4.996738,-4.73147 -2.01233,-2.514107 -3.73755,-5.468546 -5.4855,-9.393908 -0.3344,-0.750968 -0.78374,-1.716081 -0.99851,-2.144694 -0.85192,-1.700086 -1.3128,-2.779583 -1.61204,-3.775774 l -0.11384,-0.378984 -0.23929,0.615117 c -0.4477,1.150895 -0.80613,2.529436 -0.87749,3.374916 -0.0212,0.251629 -0.0595,0.457508 -0.0849,0.457508 -0.057,0 -0.25332,-0.5162 -0.37346,-0.981958 -0.23691,-0.918413 -0.26611,-2.381635 -0.0681,-3.411901 0.0495,-0.257485 0.0819,-0.476197 0.0721,-0.486026 -0.0299,-0.0299 -0.83704,1.388178 -1.1479,2.016776 -0.16057,0.324682 -0.40698,0.875261 -0.54759,1.223508 -0.14061,0.348248 -0.26292,0.625912 -0.27179,0.617034 -0.036,-0.03597 0.10364,-1.460976 0.18901,-1.929092 0.0503,-0.27598 0.15663,-0.718143 0.23623,-0.982584 0.0796,-0.264442 0.14473,-0.500705 0.14473,-0.52503 0,-0.08934 -0.43361,0.527341 -0.78219,1.112421 -1.23571,2.074109 -1.72615,4.231275 -1.57373,6.921876 0.1665,2.939309 1.09696,5.895556 2.73947,8.703875 4.23857,7.246989 11.18507,12.967579 20.986458,17.282779 6.69619,2.94809 12.82126,4.39348 20.07128,4.73639 2.51777,0.11908 3.07997,0.11439 4.42748,-0.037 z m 6.67075,-7.40018 c -0.28908,-0.22457 -1.63578,-0.99905 -2.39641,-1.37816 -1.55961,-0.77732 -3.2898,-1.43086 -5.16816,-1.95215 -1.22759,-0.34068 -1.40353,-0.3808 -3.68125,-0.83948 -7.03044,-1.41579 -12.04448,-3.065999 -17.20816,-5.663533 -2.79531,-1.40615 -4.98535,-2.757345 -7.40867,-4.570944 -2.38766,-1.786923 -4.028178,-3.571697 -5.887978,-6.405721 -1.016,-1.548235 -1.59526,-2.583052 -2.92446,-5.224436 -1.40351,-2.789045 -1.6634,-3.267045 -2.31098,-4.250388 l -0.44708,-0.678882 -0.0168,0.60238 c -0.0437,1.566752 0.79814,4.007538 2.64268,7.662264 2.11157,4.183805 4.26754,7.155356 6.907968,9.521148 1.50416,1.347711 4.75055,3.540295 7.30497,4.933714 5.75266,3.138048 11.81839,5.197078 19.76174,6.708168 1.03898,0.19764 2.61959,0.5036 3.51247,0.67989 2.39752,0.47336 3.50339,0.62538 6.4051,0.88045 0.48702,0.0428 0.92534,0.0806 0.97405,0.0841 0.0548,0.004 0.0324,-0.0374 -0.059,-0.1084 z"
       id="path1597"
       sodipodi:nodetypes="ccsssscssscssssssssssssssssssscccsscsssssssssscccsssssssscssssssssscscssscsscssssssssccssssssssscssssssscss" />
  </g>
</svg>
