<?xml version="1.0" encoding="UTF-8" standalone="no"?>
<!-- Generator: Adobe Illustrator 18.0.0, SVG Export Plug-In . SVG Version: 6.00 Build 0)  -->

<svg
   version="1.1"
   id="Capa_1"
   x="0px"
   y="0px"
   viewBox="0 0 120.78 120.78"
   style="enable-background:new 0 0 120.78 120.78;"
   xml:space="preserve"
   sodipodi:docname="box_of_oranges.svg"
   inkscape:version="1.1.1 (c3084ef, 2021-09-22)"
   xmlns:inkscape="http://www.inkscape.org/namespaces/inkscape"
   xmlns:sodipodi="http://sodipodi.sourceforge.net/DTD/sodipodi-0.dtd"
   xmlns="http://www.w3.org/2000/svg"
   xmlns:svg="http://www.w3.org/2000/svg"><defs
   id="defs925">
	
	
	
	
	
	
















		
		
		
		
	
		
		
		
		
	
		
		
		
		
	
		
		
		
		
	
		
		
		
	
		
		
		
		
	</defs><sodipodi:namedview
   id="namedview923"
   pagecolor="#505050"
   bordercolor="#eeeeee"
   borderopacity="1"
   inkscape:pageshadow="0"
   inkscape:pageopacity="0"
   inkscape:pagecheckerboard="0"
   showgrid="false"
   inkscape:zoom="3.1004596"
   inkscape:cx="38.058874"
   inkscape:cy="42.7356"
   inkscape:window-width="1312"
   inkscape:window-height="837"
   inkscape:window-x="0"
   inkscape:window-y="38"
   inkscape:window-maximized="0"
   inkscape:current-layer="Capa_1" />
















<g
   id="g1921"><path
     style="clip-rule:evenodd;fill:#ff8400;fill-rule:evenodd"
     d="M 64.402,20.052 C 68.009,30.088 63.53,41.438 54.398,45.403 45.266,49.368 34.937,44.446 31.33,34.41 27.722,24.373 32.201,13.023 41.333,9.057 50.466,5.094 60.794,10.015 64.402,20.052 Z"
     id="path824" /><path
     style="clip-rule:evenodd;fill:#bf6300;fill-rule:evenodd"
     d="M 58.454,37.339 C 43.175,43.97 32.252,26.677 35.693,13.388 30.711,18.72 28.842,27.015 31.559,34.57 c 3.607,10.035 13.936,14.957 23.068,10.992 5.552,-2.408 9.367,-7.555 10.709,-13.469 -1.677,2.138 -3.932,3.964 -6.882,5.246 z"
     id="path826" /><path
     style="clip-rule:evenodd;fill:#ff5c00;fill-rule:evenodd"
     d="m 41.325,12.28 c -0.461,0.325 -0.917,0.663 -1.383,0.985 -0.374,0.26 -0.395,1.01 -0.011,1.277 1.042,0.72 1.8,0.506 2.833,-0.163 1.313,-0.843 -0.133,-3.029 -1.439,-2.099 z"
     id="path828" /><path
     id="path830"
     style="clip-rule:evenodd;fill:#31bd4c;fill-rule:evenodd"
     d="m 39.983542,5.5477862 c -0.0676,2.767758 0.411615,5.4808508 1.292968,8.2402348 0.118,0.368 0.657469,0.219937 0.605469,-0.164063 C 41.524314,10.9139 41.961839,7.9499374 42.680807,5.1805988 42.338135,3.3641454 40.427298,4.2143943 39.983542,5.5477862 Z"
     sodipodi:nodetypes="ccccc" /><path
     style="clip-rule:evenodd;fill:#ff8400;fill-rule:evenodd"
     d="m 93.922,18.853 c 4.682,9.486 1.48,21.347 -7.151,26.492 -8.63,5.146 -19.423,1.629 -24.105,-7.855 -4.684,-9.487 -1.481,-21.347 7.15,-26.494 8.631,-5.145 19.424,-1.628 24.106,7.857 z"
     id="path834" /><path
     style="clip-rule:evenodd;fill:#bf6300;fill-rule:evenodd"
     d="m 89.898,36.833 c -14.44,8.607 -27.18,-7.113 -25.222,-20.76 -4.36,5.953 -5.305,14.434 -1.78,21.574 4.682,9.484 15.475,13.002 24.105,7.855 5.248,-3.125 8.471,-8.738 9.154,-14.789 -1.429,2.348 -3.469,4.458 -6.257,6.12 z"
     id="path836" /><path
     style="clip-rule:evenodd;fill:#ff5c00;fill-rule:evenodd"
     d="m 70.161,14.197 c -0.422,0.384 -0.837,0.777 -1.265,1.161 -0.343,0.308 -0.281,1.055 0.129,1.266 1.114,0.578 1.843,0.266 2.796,-0.535 1.209,-1.011 -0.466,-2.988 -1.66,-1.892 z"
     id="path838" /><path
     style="clip-rule:evenodd;fill:#ff9d33;fill-rule:evenodd"
     d="m 50.839,28.396 c 5.055,9.252 2.328,21.254 -6.091,26.809 -8.418,5.556 -19.34,2.561 -24.395,-6.691 -5.055,-9.251 -2.329,-21.255 6.09,-26.81 8.419,-5.555 19.342,-2.559 24.396,6.692 z"
     id="path844" /><path
     style="clip-rule:evenodd;fill:#ff8400;fill-rule:evenodd"
     d="M 47.528,46.561 C 33.445,55.854 20.091,40.76 21.505,27.032 c -4.121,6.158 -4.726,14.676 -0.922,21.639 5.055,9.252 15.977,12.248 24.395,6.691 5.119,-3.377 8.115,-9.135 8.557,-15.213 -1.335,2.414 -3.288,4.617 -6.007,6.412 z"
     id="path846" /><path
     style="clip-rule:evenodd;fill:#ff5c00;fill-rule:evenodd"
     d="m 26.915,24.884 c -0.407,0.402 -0.805,0.817 -1.216,1.22 -0.331,0.324 -0.239,1.068 0.178,1.261 1.136,0.523 1.852,0.176 2.772,-0.669 1.168,-1.07 -0.584,-2.965 -1.734,-1.812 z"
     id="path848" /><path
     style="clip-rule:evenodd;fill:#ff9d33;fill-rule:evenodd"
     d="m 77.33,27.55 c 5.431,8.99 3.202,21.116 -4.979,27.085 -8.18,5.97 -19.215,3.52 -24.645,-5.47 -5.432,-8.991 -3.204,-21.118 4.977,-27.086 8.179,-5.968 19.215,-3.518 24.647,5.471 z"
     id="path854" /><path
     style="clip-rule:evenodd;fill:#ff8400;fill-rule:evenodd"
     d="M 74.764,45.872 C 61.078,55.86 47.116,41.444 47.962,27.661 44.1,34.016 43.847,42.557 47.935,49.323 c 5.431,8.99 16.465,11.439 24.645,5.471 4.973,-3.629 7.729,-9.535 7.92,-15.625 -1.234,2.476 -3.093,4.777 -5.736,6.703 z"
     id="path856" /><path
     style="clip-rule:evenodd;fill:#ff5c00;fill-rule:evenodd"
     d="m 53.284,25.232 c -0.39,0.423 -0.77,0.858 -1.165,1.279 -0.316,0.342 -0.195,1.079 0.23,1.252 1.157,0.466 1.856,0.084 2.742,-0.806 1.124,-1.127 -0.705,-2.934 -1.807,-1.725 z"
     id="path858" /><path
     style="clip-rule:evenodd;fill:#ff9d33;fill-rule:evenodd"
     d="m 104.376,28.322 c 5.089,9.229 2.405,21.244 -5.993,26.836 -8.398,5.591 -19.331,2.644 -24.42,-6.586 -5.089,-9.229 -2.405,-21.244 5.991,-26.836 8.399,-5.593 19.333,-2.645 24.422,6.586 z"
     id="path864" /><path
     style="clip-rule:evenodd;fill:#ff8400;fill-rule:evenodd"
     d="m 101.131,46.501 c -14.05,9.355 -27.458,-5.68 -26.095,-19.414 -4.097,6.176 -4.672,14.697 -0.842,21.643 5.089,9.23 16.021,12.178 24.42,6.586 5.106,-3.4 8.081,-9.176 8.502,-15.252 -1.329,2.417 -3.274,4.632 -5.985,6.437 z"
     id="path866" /><path
     style="clip-rule:evenodd;fill:#ff5c00;fill-rule:evenodd"
     d="m 80.439,24.914 c -0.405,0.405 -0.801,0.82 -1.212,1.226 -0.329,0.327 -0.235,1.07 0.183,1.26 1.138,0.518 1.853,0.169 2.77,-0.68 1.164,-1.076 -0.596,-2.963 -1.741,-1.806 z"
     id="path868" /><rect
     x="10.899"
     y="39.549"
     style="clip-rule:evenodd;fill:#934b17;fill-rule:evenodd"
     width="98.981003"
     height="81.230003"
     id="rect874" /><rect
     x="10.899"
     y="117.583"
     style="clip-rule:evenodd;fill:#4a260c;fill-rule:evenodd"
     width="98.981003"
     height="3.197"
     id="rect876" /><g
     id="g886">
			<rect
   x="89.739998"
   y="50.284"
   style="clip-rule:evenodd;fill:#d66d11;fill-rule:evenodd"
   width="14.215"
   height="59.762001"
   id="rect878" />
			<rect
   x="65.573997"
   y="50.284"
   style="clip-rule:evenodd;fill:#d66d11;fill-rule:evenodd"
   width="14.215"
   height="59.762001"
   id="rect880" />
			<rect
   x="41.398998"
   y="50.284"
   style="clip-rule:evenodd;fill:#d66d11;fill-rule:evenodd"
   width="14.226"
   height="59.762001"
   id="rect882" />
			<rect
   x="17.235001"
   y="50.284"
   style="clip-rule:evenodd;fill:#d66d11;fill-rule:evenodd"
   width="14.214"
   height="59.762001"
   id="rect884" />
		</g><path
     id="path830-4"
     style="clip-rule:evenodd;fill:#31bd4c;fill-rule:evenodd"
     d="m 25.568809,17.610908 c -0.0676,2.767758 0.411615,5.480851 1.292968,8.240235 0.118,0.368 0.657469,0.219937 0.605469,-0.164063 -0.357665,-2.710058 0.07986,-5.674021 0.798828,-8.443359 -0.342672,-1.816454 -2.253509,-0.966205 -2.697265,0.367187 z"
     sodipodi:nodetypes="ccccc" /><path
     id="path830-3"
     style="clip-rule:evenodd;fill:#31bd4c;fill-rule:evenodd"
     d="m 52.013771,17.993575 c -0.0676,2.767758 0.411615,5.480851 1.292968,8.240235 0.118,0.368 0.657469,0.219937 0.605469,-0.164063 -0.357665,-2.710058 0.07986,-5.674021 0.798828,-8.443359 -0.342672,-1.816454 -2.253509,-0.966205 -2.697265,0.367187 z"
     sodipodi:nodetypes="ccccc" /><path
     id="path830-7"
     style="clip-rule:evenodd;fill:#31bd4c;fill-rule:evenodd"
     d="m 68.810253,7.1922198 c -0.0676,2.7677583 0.411615,5.4808502 1.292968,8.2402342 0.118,0.368 0.657469,0.219937 0.605469,-0.164063 -0.357665,-2.710058 0.07986,-5.67402 0.798828,-8.4433586 C 71.164846,5.008579 69.254009,5.8588279 68.810253,7.1922198 Z"
     sodipodi:nodetypes="ccccc" /><path
     id="path830-2"
     style="clip-rule:evenodd;fill:#31bd4c;fill-rule:evenodd"
     d="m 79.142279,18.039343 c -0.0676,2.767758 0.411615,5.48085 1.292968,8.240234 0.118,0.368 0.657469,0.219937 0.605469,-0.164063 -0.357665,-2.710058 0.07986,-5.67402 0.798828,-8.443359 -0.342672,-1.816453 -2.253509,-0.966204 -2.697265,0.367188 z"
     sodipodi:nodetypes="ccccc" /></g></svg>
