<?xml version="1.0" encoding="UTF-8" standalone="no"?>
<!-- Created with Inkscape (http://www.inkscape.org/) -->

<svg
   width="210mm"
   height="297mm"
   viewBox="0 0 210 297"
   version="1.1"
   id="svg5"
   inkscape:version="1.1.1 (c3084ef, 2021-09-22)"
   sodipodi:docname="carrot.svg"
   xmlns:inkscape="http://www.inkscape.org/namespaces/inkscape"
   xmlns:sodipodi="http://sodipodi.sourceforge.net/DTD/sodipodi-0.dtd"
   xmlns="http://www.w3.org/2000/svg"
   xmlns:svg="http://www.w3.org/2000/svg">
  <sodipodi:namedview
     id="namedview7"
     pagecolor="#505050"
     bordercolor="#eeeeee"
     borderopacity="1"
     inkscape:pageshadow="0"
     inkscape:pageopacity="0"
     inkscape:pagecheckerboard="0"
     inkscape:document-units="mm"
     showgrid="false"
     inkscape:zoom="2.0364714"
     inkscape:cx="403.63936"
     inkscape:cy="397.99234"
     inkscape:window-width="1512"
     inkscape:window-height="837"
     inkscape:window-x="0"
     inkscape:window-y="38"
     inkscape:window-maximized="1"
     inkscape:current-layer="layer1" />
  <defs
     id="defs2" />
  <g
     inkscape:label="Layer 1"
     inkscape:groupmode="layer"
     id="layer1">
    <g
       id="g1322">
      <path
         style="fill:#ff6600;stroke:none;stroke-width:0.264583px;stroke-linecap:butt;stroke-linejoin:miter;stroke-opacity:1"
         d="m 82.119376,142.7701 4.605486,-9.84866 9.777804,-14.6667 11.265734,-14.80842 2.83414,-1.77134 3.67616,-0.29424 2.6813,6.65702 1.8954,2.17277 5.13145,1.8954 0.27737,3.97571 -10.29569,8.9161 -23.509641,15.67309 -7.295401,3.13649 z"
         id="path969" />
      <path
         style="fill:#008000;stroke:none;stroke-width:0.264583px;stroke-linecap:butt;stroke-linejoin:miter;stroke-opacity:1"
         d="m 123.98685,112.10593 -5.13145,-1.8954 -1.8954,-2.17277 -2.6813,-6.65702 -3.61069,-5.568761 -3.667,-3.008818 0.3761,-3.761017 4.60725,-0.84623 3.85505,-1.222333 4.13712,1.50441 3.38492,4.795298 5.26543,-1.03428 3.57296,-0.09403 2.82077,4.231148 -2.06856,4.795303 -1.03428,2.25661 4.88932,2.06856 2.44467,3.10284 -0.84623,3.94908 0.47012,4.60725 -2.91479,1.88051 -3.94907,-1.22234 -4.13712,-4.0431 z"
         id="path1120" />
      <path
         style="fill:#000000;stroke-width:0.264583"
         d="m 82.114066,144.6116 c -0.62827,-0.25932 -1.14178,-1.03651 -1.14178,-1.72804 0,-0.70765 1.52571,-3.9904 3.50257,-7.53622 6.05297,-10.85698 16.188914,-25.31364 22.095824,-31.51478 1.98695,-2.08591 3.45026,-3.01541 5.16651,-3.28177 l 0.99928,-0.15509 -0.47011,-0.80468 c -0.84121,-1.43987 -2.217,-2.87153 -3.77844,-3.93188 -3.22539,-2.19033 -3.53431,-5.66519 -0.69227,-7.78708 0.56214,-0.4197 1.14207,-0.54805 2.53135,-0.56027 1.18946,-0.0105 2.02355,-0.16091 2.45337,-0.44254 1.03047,-0.67519 2.80624,-1.05309 4.00661,-0.85264 2.74575,0.4585 5.74635,2.84048 6.65181,5.28043 0.26944,0.72605 0.50179,1.34319 0.51634,1.37143 0.0145,0.0282 0.81604,-0.34605 1.78109,-0.83176 3.27634,-1.64897 6.3283,-1.43342 8.31306,0.58712 2.65132,2.69912 2.60552,6.0609 -0.12284,9.01624 -1.06929,1.15825 -1.09458,1.36352 -0.16794,1.36352 1.12445,0 3.79842,1.59308 5.02713,2.99503 1.89986,2.16773 2.13733,4.09286 0.79103,6.41259 -0.42477,0.73189 -0.54602,1.19474 -0.38122,1.45521 0.13292,0.21008 0.24349,1.04896 0.24572,1.86419 0.007,2.54672 -1.68952,4.20631 -4.2998,4.20631 -1.86535,0 -2.8746,-0.54173 -5.02367,-2.69652 -1.0607,-1.06353 -2.53756,-2.26118 -3.28191,-2.66144 l -1.35336,-0.72776 -0.17797,1.18677 c -0.11875,0.79188 -0.50988,1.60627 -1.1755,2.44754 -4.16487,5.26399 -25.253444,19.99726 -36.674374,25.62211 -3.72579,1.83496 -4.45755,2.06844 -5.34051,1.70398 z m 3.71031,-3.02935 c 2.75707,-1.33468 5.8384,-3.07968 10.20048,-5.77667 l 3.01404,-1.86351 -0.93149,-0.47788 c -0.51231,-0.26284 -1.24312,-0.84825 -1.62402,-1.30091 -0.55287,-0.65705 -0.63749,-0.92589 -0.41959,-1.33303 0.32968,-0.61601 1.12043,-0.66354 1.59172,-0.0957 0.45511,0.54838 1.75254,1.20792 2.877084,1.46254 0.85318,0.19319 1.18769,0.0154 5.61792,-2.98602 2.5909,-1.75529 4.83908,-3.34611 4.99597,-3.53514 0.22055,-0.26574 0.0192,-0.4614 -0.8878,-0.8626 -1.59902,-0.70732 -3.40483,-2.36957 -3.30393,-3.04128 0.0434,-0.28924 0.27475,-0.64856 0.51401,-0.79849 0.34451,-0.21588 0.69161,-0.0467 1.66832,0.813 1.20918,1.06437 3.10729,1.91909 4.26178,1.91909 0.61535,0 4.66032,-3.07156 7.44159,-5.6508 2.38619,-2.21285 3.45028,-4.79288 2.24318,-5.4389 -0.26761,-0.14322 -1.84346,-0.67127 -3.5019,-1.17344 -1.65843,-0.50216 -3.09353,-1.07378 -3.18911,-1.27026 -0.0956,-0.19647 -0.44402,-1.36926 -0.77432,-2.60618 -0.3303,-1.23693 -0.87235,-2.87404 -1.20456,-3.63802 l -0.60401,-1.38907 h -1.43172 c -1.21893,0 -1.6045,0.13241 -2.59425,0.89088 -1.40465,1.07644 -3.94065,3.94991 -3.94065,4.46506 0,0.9416 0.92932,2.92566 1.87196,3.99655 1.13382,1.28809 1.28243,1.86177 0.58361,2.25285 -0.96095,0.53777 -2.6349,-1.05882 -3.6375,-3.4694 -0.22697,-0.5457 -0.46166,-0.99219 -0.52154,-0.99219 -0.0599,0 -1.50109,1.85482 -3.20269,4.12181 -2.900154,3.86377 -3.084204,4.18118 -2.939934,5.07019 0.0846,0.52161 0.52355,1.40837 0.97535,1.97057 0.87544,1.08937 0.93198,1.70193 0.19964,2.16311 -0.36417,0.22932 -0.61616,0.13076 -1.28039,-0.50081 -0.45485,-0.43248 -1.00516,-1.12754 -1.2229,-1.54459 l -0.39591,-0.75826 -2.27433,3.40409 c -1.25089,1.87226 -3.08336,4.68459 -4.07216,6.24963 l -1.79783,2.84552 1.44898,0.81775 c 1.51427,0.85461 1.80701,1.46364 1.0182,2.1183 -0.36999,0.30706 -0.64533,0.24051 -1.95115,-0.4716 l -1.52037,-0.82911 -1.8571,3.61285 c -1.86221,3.62277 -2.36369,4.80347 -2.04019,4.80347 0.0955,0 1.26434,-0.52804 2.59751,-1.17342 z m 33.770484,-25.59456 c -2.04979,-1.02429 -5.34468,-4.04772 -5.23156,-4.80053 0.0433,-0.28838 0.27724,-0.64869 0.5198,-0.8007 0.35873,-0.2248 0.76352,0.0253 2.16931,1.34035 0.95055,0.8892 2.4785,2.01344 3.39543,2.49831 1.80446,0.9542 2.28281,1.79491 1.31574,2.31247 -0.40743,0.21805 -0.86317,0.10249 -2.16872,-0.5499 z m 17.22487,1.12375 c 1.37798,-1.37798 0.99003,-2.76312 -1.46011,-5.21327 -3.61532,-3.61532 -8.56974,-4.61706 -14.01642,-2.83401 l -1.30096,0.42589 2.40411,0.85839 c 4.11171,1.46807 6.31209,2.7184 8.64648,4.91324 2.49702,2.34773 2.89673,2.60436 4.07325,2.61511 0.62696,0.006 1.10279,-0.21449 1.65365,-0.76535 z m 1.51615,-6.70108 c 0.83618,-3.14367 -3.68546,-6.43021 -8.12863,-5.90828 -1.81482,0.21318 -4.11725,0.79766 -5.5621,1.41196 l -1.08527,0.46142 3.11402,0.0202 c 2.51734,0.0164 3.41819,0.13188 4.70152,0.60292 1.83607,0.67393 3.83504,1.94013 5.15937,3.26808 1.17912,1.18236 1.51763,1.20936 1.80109,0.14366 z m -20.08747,-5.58715 c 1.8184,-5.88728 0.36845,-10.70226 -4.24193,-14.08659 -2.58992,-1.90118 -5.05164,-2.03684 -5.93578,-0.3271 -0.58373,1.12881 -0.26792,2.20306 0.90376,3.07417 0.53334,0.39651 1.81918,1.56146 2.85742,2.58875 1.57114,1.55459 2.13362,2.36767 3.35406,4.84844 0.80649,1.63934 1.61664,3.56703 1.80032,4.28375 0.18369,0.71672 0.42576,1.30312 0.53792,1.30312 0.11216,0 0.43807,-0.75804 0.72423,-1.68454 z m 5.70128,-0.70516 c 1.15459,-0.45834 2.8585,-0.99219 3.78645,-1.18634 1.86789,-0.39081 2.50486,-0.74211 4.25274,-2.34542 2.14452,-1.96716 2.59608,-3.91516 1.37256,-5.92106 -1.63169,-2.67507 -6.05767,-2.55446 -8.26704,0.22528 -0.51395,0.64662 -0.95467,1.75505 -1.37868,3.46741 -0.34279,1.38433 -1.05154,3.44394 -1.57501,4.57691 -1.06669,2.30871 -1.08257,2.36399 -0.62102,2.16158 0.1819,-0.0798 1.2754,-0.52003 2.43,-0.97836 z m -1.91128,-7.29817 c 0.56693,-3.6466 -0.40563,-6.04378 -3.20142,-7.89089 -1.13424,-0.74937 -1.68456,-0.94207 -2.69034,-0.94207 -2.21631,0 -2.26716,0.19051 -0.42946,1.6092 3.08733,2.38339 4.83427,5.47765 5.14104,9.1061 l 0.15661,1.85241 0.35686,-0.87081 c 0.19627,-0.47895 0.49629,-1.76772 0.66671,-2.86394 z"
         id="path836" />
    </g>
  </g>
</svg>
