<?xml version="1.0" encoding="UTF-8" standalone="no"?>
<svg
   id="Layer_1"
   data-name="Layer 1"
   viewBox="0 0 1525.39 1069"
   version="1.1"
   sodipodi:docname="mandarin.svg"
   inkscape:version="1.1.1 (c3084ef, 2021-09-22)"
   xmlns:inkscape="http://www.inkscape.org/namespaces/inkscape"
   xmlns:sodipodi="http://sodipodi.sourceforge.net/DTD/sodipodi-0.dtd"
   xmlns="http://www.w3.org/2000/svg"
   xmlns:svg="http://www.w3.org/2000/svg">
  <sodipodi:namedview
     id="namedview23897"
     pagecolor="#505050"
     bordercolor="#eeeeee"
     borderopacity="1"
     inkscape:pageshadow="0"
     inkscape:pageopacity="0"
     inkscape:pagecheckerboard="0"
     showgrid="false"
     inkscape:zoom="1.1221172"
     inkscape:cx="844.83156"
     inkscape:cy="554.7549"
     inkscape:window-width="1296"
     inkscape:window-height="835"
     inkscape:window-x="0"
     inkscape:window-y="38"
     inkscape:window-maximized="0"
     inkscape:current-layer="Layer_1"
     inkscape:object-paths="false"
     inkscape:snap-intersection-paths="false" />
  <defs
     id="defs23866">
    <style
       id="style23864">.cls-1{fill:#ff7800;}.cls-2{fill:#ff6200;}.cls-3{fill:#ff9109;}.cls-4{fill:#ffb120;}.cls-5{fill:#e85100;}.cls-6{fill:#009047;stroke:#006837;stroke-miterlimit:10;stroke-width:1.43px;}.cls-7{fill:#006322;}</style>
  </defs>
  <title
     id="title23868">mandarin</title>
  <g
     id="g11208">
    <ellipse
       class="cls-1"
       cx="816.7384"
       cy="592.56775"
       rx="122.21"
       ry="118.09"
       id="ellipse23870-2"
       style="fill:#ff7800" />
    <path
       class="cls-2"
       d="m 938.96873,596.70253 c 0.82512,35.80674 -16.88749,57.69517 -22.32806,64.76 -8.62085,11.19458 -24.78484,26.43431 -36.90222,32.19727 -33.23721,15.80745 -39.45862,15.33347 -57.36084,16.71991 35.39154,-21.84053 43.21697,-28.43429 62.45084,-47.6219 0,0 12.58,-12.77 19.45,-30.11 12.65,-31.93 3.09,-75.1 -21.22,-104.48 -9.25,-11.18 -36.88,-40 -76.4,-38.82 -30.22,0.9 -51.42,18.87 -63,28.66 -28.93,24.52 -37.51,52.65 -38.91,51.88 -1.76,-1 9.53,-47.22 48.82,-75.46 12.21604,-8.76976 26.0335,-15.05845 40.67,-18.51 8.87,-2.08 40.91,-8.47 74.29,7.26 44.68984,25.64645 69.16602,58.22686 70.44028,113.52472 z"
       id="path23872-3"
       style="fill:#ff6200"
       sodipodi:nodetypes="sssccccccccccs" />
    <path
       class="cls-3"
       d="m 873.85845,646.08781 c -11.66,29.94001 -44.75,45.44001 -71.45,46.07001 -55,1.30999 -103.55,-60 -98.69,-111.74 3.65,-38.84001 37.16,-70.13 42.8,-67.12 5,2.68 -7.17,35 -3.18,36.63999 3.99,1.64 11.51,-31.85 32.54,-38.81999 28.19,-9.33 64,34.37 69.33,41 12.96,16.23999 43.84,54.93999 28.65,93.96999 z"
       id="path23874-2"
       style="fill:#ff9109" />
    <ellipse
       class="cls-4"
       cx="738.9184"
       cy="638.64777"
       rx="8.6700001"
       ry="14.69"
       id="ellipse23878-1"
       style="fill:#ffb120" />
    <path
       class="cls-5"
       d="m 791.74845,494.77782 a 63,63 0 0 1 6.09,12.55 74.38,74.38 0 0 1 4.37,27.56 63,63 0 0 1 -1.89,13.82999 c 0.28,-4.64 0.39,-9.24 0.22,-13.81999 a 115.68,115.68 0 0 0 -1.33,-13.66001 113.87,113.87 0 0 0 -3,-13.38999 c -1.22,-4.41001 -2.75,-8.75 -4.46,-13.07 z"
       id="path23882-1"
       style="fill:#e85100" />
    <path
       class="cls-5"
       d="m 793.41845,499.16782 a 20.83,20.83 0 0 1 7.08,2 26.15,26.15 0 0 1 6.21,4.07999 26.57,26.57 0 0 1 4.84,5.64 21.52,21.52 0 0 1 2.9,6.76 66.15,66.15 0 0 0 -4.26,-5.77 45.57,45.57 0 0 0 -4.9,-5 44.57,44.57 0 0 0 -5.6,-4.22 59.07,59.07 0 0 0 -6.27,-3.48999 z"
       id="path23884-0"
       style="fill:#e85100" />
    <path
       class="cls-5"
       d="m 802.41845,490.20781 a 23.65,23.65 0 0 1 8.47,0.14 29.23,29.23 0 0 1 15,7.86 24.11,24.11 0 0 1 5,6.85 56.87,56.87 0 0 0 -6.09,-5.58999 44.77,44.77 0 0 0 -6.82,-4.4 44.14,44.14 0 0 0 -7.48,-3.1 52.93,52.93 0 0 0 -8.08,-1.76001 z"
       id="path23886-1"
       style="fill:#e85100" />
    <path
       class="cls-5"
       d="m 801.40845,485.15782 a 49.44,49.44 0 0 1 6.36,-0.83 c 2.13,-0.17 4.25,-0.22 6.37,-0.24 2.12,-0.02 4.24,0.06 6.37,0.23 a 49.47,49.47 0 0 1 6.36,0.84 47.77,47.77 0 0 1 -6.36,0.83999 c -2.13,0.17001 -4.25,0.22001 -6.37,0.24 -2.12,0.02 -4.24,-0.07 -6.37,-0.24 a 47.77,47.77 0 0 1 -6.36,-0.83999 z"
       id="path23888-3"
       style="fill:#e85100" />
    <path
       class="cls-5"
       d="m 771.18845,501.56781 c -3.33,2.13 -6.59,4.27 -9.75,6.55 -3.16,2.28 -6.21,4.66001 -9.14,7.21 -2.93,2.55 -5.77,5.19 -8.5,7.95 -2.73,2.76 -5.35,5.67 -8,8.63 a 59.53,59.53 0 0 1 6.71,-9.76 74,74 0 0 1 8.35,-8.45 73,73 0 0 1 9.62,-7 59.24,59.24 0 0 1 10.71,-5.13 z"
       id="path23890-8"
       style="fill:#e85100" />
    <path
       class="cls-5"
       d="m 782.36553,500.77353 c -2.59,4.41 -5.36,8.69999 -8.19,12.94 -2.83,4.24 -5.73,8.43 -8.67,12.58999 -2.94,4.16001 -6,8.26 -9.06,12.31 -3.06,4.05 -6.23,8.08 -9.55,12 2.59,-4.41 5.35,-8.7 8.18,-12.94 2.83,-4.24 5.74,-8.43 8.68,-12.59 2.94,-4.16 6,-8.25999 9.06,-12.31 3.06,-4.05 6.23,-8.11 9.55,-11.99999 z"
       id="path23880-0"
       style="fill:#e85100" />
    <ellipse
       style="fill:#ffb120;fill-opacity:1;stroke-width:3.77953;stroke-linecap:round;stroke-linejoin:round"
       id="path25124"
       cx="730.37207"
       cy="580.50366"
       rx="20.343668"
       ry="29.617987" />
    <g
       id="g11009"
       transform="translate(-19.411194,42.746987)">
      <g
         id="g10799"
         transform="matrix(0.41848895,0,0,0.41848895,435.62003,306.86177)">
        <path
           style="fill:#006322;fill-opacity:1;stroke-width:0.139249"
           d="m 874.01977,375.52856 c -13.05577,-0.83396 -25.47636,-5.44336 -34.81208,-12.91912 -5.25101,-4.20485 -8.84478,-9.40262 -9.83106,-14.21892 -0.2336,-1.1407 -0.20124,-3.82301 0.0605,-5.01511 1.18907,-5.4158 5.56734,-10.87945 12.86378,-16.05275 8.312,-5.89335 20.18262,-11.04601 31.6581,-13.74179 14.22312,-3.34125 31.64716,-3.13422 42.8654,0.50931 7.6793,2.49414 12.22557,6.2848 13.71916,11.43902 2.84721,9.82492 -5.06298,25.36422 -18.67482,36.68606 -8.99178,7.47905 -19.45935,12.08102 -29.84219,13.11987 -1.57821,0.15791 -6.64627,0.28035 -8.00678,0.19343 z"
           id="path3432" />
        <path
           style="fill:#009047;fill-opacity:1;stroke-width:0.127549"
           d="m 874.85304,372.84274 c -11.95885,-0.76389 -23.33588,-4.98602 -31.88723,-11.83368 -4.80982,-3.85156 -8.10165,-8.61262 -9.00507,-13.02427 -0.21397,-1.04486 -0.18433,-3.5018 0.0554,-4.59375 1.08917,-4.96078 5.09958,-9.96538 11.78298,-14.70402 7.61365,-5.3982 18.48692,-10.11794 28.99825,-12.58723 13.02812,-3.06052 28.98822,-2.87089 39.26392,0.46652 7.0341,2.28458 11.1984,5.75676 12.5665,10.47793 2.608,8.99945 -4.6376,23.23316 -17.1058,33.60376 -8.2363,6.85067 -17.8244,11.06599 -27.3349,12.01756 -1.4456,0.14464 -6.08785,0.25679 -7.33406,0.17718 z"
           id="path3432-3" />
      </g>
      <path
         class="cls-7"
         d="m 818.56531,446.27333 c 0.52,3.75 -5.47,7.56 -8.84,9.06999 -7.83,3.52 -18.79,2.46 -20.16,-1.81 -1.32,-4.06999 5.85,-11.67 13.79,-13.06 6.49,-1.14999 14.64,1.73001 15.21,5.80001 z"
         id="path23894-4-6-3"
         style="fill:#006322" />
    </g>
  </g>
</svg>
