<?xml version="1.0" encoding="UTF-8" standalone="no"?>
<!-- Created with Inkscape (http://www.inkscape.org/) -->

<svg
   width="210mm"
   height="297mm"
   viewBox="0 0 210 297"
   version="1.1"
   id="svg27844"
   inkscape:version="1.1.1 (c3084ef, 2021-09-22)"
   sodipodi:docname="mushroom.svg"
   xmlns:inkscape="http://www.inkscape.org/namespaces/inkscape"
   xmlns:sodipodi="http://sodipodi.sourceforge.net/DTD/sodipodi-0.dtd"
   xmlns="http://www.w3.org/2000/svg"
   xmlns:svg="http://www.w3.org/2000/svg">
  <sodipodi:namedview
     id="namedview27846"
     pagecolor="#505050"
     bordercolor="#eeeeee"
     borderopacity="1"
     inkscape:pageshadow="0"
     inkscape:pageopacity="0"
     inkscape:pagecheckerboard="0"
     inkscape:document-units="mm"
     showgrid="false"
     inkscape:zoom="0.45528014"
     inkscape:cx="429.40595"
     inkscape:cy="600.72903"
     inkscape:window-width="1312"
     inkscape:window-height="837"
     inkscape:window-x="0"
     inkscape:window-y="38"
     inkscape:window-maximized="0"
     inkscape:current-layer="layer1" />
  <defs
     id="defs27841" />
  <g
     inkscape:label="Layer 1"
     inkscape:groupmode="layer"
     id="layer1">
    <g
       id="g14098"
       transform="matrix(0.19391935,0,0,0.19391935,161.92214,31.563667)">
      <path
         d="m -234.08686,15.440475 c 0,0.633923 -6.11802,14.353966 -14.36209,33.543968 -16.92432,32.110652 -36.73422,31.363972 -41.42622,64.808697 -5.00554,29.63539 48.87816,18.46469 66.26153,10.19336 20.89116,-11.47548 34.78949,-30.014055 43.78907,-57.634035 7.17718,-27.53941 1.73037,-51.58317 2.05581,-51.82658"
         id="path10140"
         style="fill:#e4d974;fill-opacity:1;stroke:#000000;stroke-width:5.065;stroke-miterlimit:4;stroke-dasharray:none;stroke-opacity:1"
         sodipodi:nodetypes="cccccc" />
      <g
         id="g12530"
         transform="translate(91.91976,-113.00024)">
        <path
           style="fill:#e30000;fill-opacity:1;stroke:none;stroke-width:0.264583px;stroke-linecap:butt;stroke-linejoin:miter;stroke-opacity:1"
           d="m -218.17771,38.748144 -8.85473,3.233523 -9.7589,-4.419124 -1.09797,-6.915054 6.88556,-7.560615 -5.41933,-8.724725 -9.57476,-6.9969442 -12.40704,-8.5007731 -3.78523,1.64026534 3.9114,12.86977396 -4.28992,7.948979 -10.28851,-0.26174 -4.32036,-6.345516 6.78606,-10.804792 5.80401,-3.78522774 -2.39731,-3.91140206 -31.29121,-6.1825388 -25.9919,3.0281824 -23.21605,9.4630694 -18.04292,13.1221228 -19.1194,26.477812 -10.65773,23.487195 -4.66844,27.379816 2.39731,18.673789 6.43488,6.56106 28.01069,5.67784 41.38515,1.64027 84.91527,-2.39731 24.35164,-3.28053 10.85098,-10.47247 2.01879,-14.888561 -3.65905,-20.944927 -5.80402,-20.818752 z"
           id="path11835" />
        <g
           id="g11800">
          <path
             style="fill:#ffffff;stroke:none;stroke-width:0.264583px;stroke-linecap:butt;stroke-linejoin:miter;stroke-opacity:1"
             d="m -313.56861,70.592862 -11.81869,-7.879144 -14.69353,2.555399 -7.87916,8.837417 1.91656,14.693537 5.5367,9.263316 18.63309,-0.212949 8.41153,-4.897845 3.93957,-10.966916 z"
             id="path10751" />
          <path
             style="fill:#ffffff;fill-opacity:1;stroke:none;stroke-width:0.264583px;stroke-linecap:butt;stroke-linejoin:miter;stroke-opacity:1"
             d="m -251.79544,61.835019 8.10066,2.970241 5.26543,9.450769 -3.24027,9.180745 -9.18074,4.320349 -9.45077,-3.240262 -3.78031,-11.340922 4.45537,-8.100656 z"
             id="path10982" />
          <path
             style="fill:#ffffff;fill-opacity:1;stroke:none;stroke-width:0.264583px;stroke-linecap:butt;stroke-linejoin:miter;stroke-opacity:1"
             d="m -231.00375,23.086874 -6.88556,7.560615 4.05033,10.530853 15.66127,-2.430198 -4.45536,-10.125821 z"
             id="path11133" />
          <path
             style="fill:#ffffff;fill-opacity:1;stroke:none;stroke-width:0.264583px;stroke-linecap:butt;stroke-linejoin:miter;stroke-opacity:1"
             d="m -259.22104,17.686436 0.27002,-9.8558002 -6.34552,-4.5903727 -9.45076,3.5102848 -2.4302,7.9656461 4.32036,6.345516 7.5606,0.945076 z"
             id="path11284" />
          <path
             style="fill:#ffffff;fill-opacity:1;stroke:none;stroke-width:0.264583px;stroke-linecap:butt;stroke-linejoin:miter;stroke-opacity:1"
             d="m -296.21406,20.116633 -11.47593,-3.645296 -12.15096,7.02057 -1.89016,11.610943 2.97024,8.100658 7.69562,4.590372 14.58119,-1.620131 4.99541,-9.720791 -0.27003,-10.530854 z"
             id="path11435" />
          <path
             style="fill:#ffffff;fill-opacity:1;stroke:none;stroke-width:0.264583px;stroke-linecap:butt;stroke-linejoin:miter;stroke-opacity:1"
             d="m -359.8042,10.935888 8.37068,9.315756 2.4302,14.041139 -6.48052,10.530856 -16.74138,3.780305 -12.421,-6.480524 z"
             id="path11586" />
          <g
             transform="matrix(0.02645833,0,0,-0.02645833,-432.02101,119.94071)"
             id="g9428">
            <path
               d="M 4401.1,4966.7 C 3594.9,4841 2920.5,4482.4 2328.8,3863.1 1571.6,3072.2 1105.7,1901.2 1090.3,754.7 c -3.1,-300.4 3.1,-331.1 79.7,-462.9 202.3,-343.3 769.4,-542.6 1738.1,-613.1 1959.1535,-82.85366 2365.8982,-92.56597 3871.6,-24.5 1167.9,64.4 1820.9,263.6 2032.4,625.3 101.2,171.7 116.5,312.7 79.7,732.6 C 8738.5,2646 7886.3,4013.2 6626.4,4644.7 5998.2,4960.6 5146,5083.2 4401.1,4966.7 Z m 1146.5,-239.1 c 337.2,-52.1 809.3,-193.1 659.1,-199.3 -226.9,-9.2 -472.1,-263.6 -475.1,-487.4 0,-239.1 254.4,-496.6 490.5,-496.6 229.9,0 490.5,260.6 490.5,493.5 0,67.4 -36.8,162.5 -95,254.4 l -92,150.2 147.2,-85.8 c 205.4,-119.5 487.4,-321.9 665.2,-478.2 l 147.1,-131.8 -79.7,-58.2 c -104.2,-76.6 -202.3,-266.7 -202.3,-395.5 3.1,-233 254.4,-484.3 490.5,-484.3 58.3,0 165.5,33.7 239.1,76.6 l 128.8,73.6 119.6,-236 c 254.4,-505.8 407.7,-1076 465.9,-1738.1 42.9,-475.1 9.2,-607 -199.2,-748 -417.2,-288.1 -1192.7,-370.9 -3452,-370.9 -1854.6,0 -2654.7,55.2 -3129.9,217.7 -285.1,95 -423,193.1 -493.5,355.6 -58.2,134.9 -61.3,165.5 -27.6,533.4 52.1,619.2 211.5,1247.6 420,1658.4 l 73.6,147.1 177.8,-101.2 c 153.3,-85.8 202.3,-98.1 404.6,-98.1 343.3,3.1 582.4,144.1 751,450.6 79.7,141 92,193.1 92,392.4 0,251.4 -58.2,395.4 -229.9,594.7 l -95,104.2 223.8,141 c 689.7,429.3 1532.7,591.7 2384.9,466 z m 843,-524.2 c 49,-46 76.6,-110.4 76.6,-168.6 0,-58.2 -27.6,-122.6 -76.6,-168.6 -46,-49.1 -110.4,-76.6 -168.6,-76.6 -58.3,0 -122.6,27.6 -168.6,76.6 -49.1,46 -76.6,110.4 -76.6,168.6 0,58.2 27.6,122.6 76.6,168.6 46,49.1 110.3,76.6 168.6,76.6 58.2,0.1 122.6,-27.5 168.6,-76.6 z m -3556,-328 c 183.9,-144.1 251.4,-475.1 141,-714.3 -144.1,-309.6 -508.9,-438.4 -818.5,-288.1 -214.6,101.2 -214.6,116.5 -46,367.9 150.2,223.8 567.1,702 613.1,702 15.4,0 64.4,-30.7 110.4,-67.5 z m 4950.8,-493.5 c 67.4,-92 122.6,-180.9 122.6,-199.2 0,-55.2 -128.8,-128.8 -223.8,-128.8 -116.5,0 -236,122.6 -236,245.2 0,92 113.4,245.2 180.9,245.2 18.4,0.1 85.8,-73.5 156.3,-162.4 z"
               id="path9420"
               sodipodi:nodetypes="cccccccccccccsscccccccscccccsccccccccscccccscscscccccccsccssscc" />
            <path
               d="m 4459.3,3961.3 c -407.7,-187 -557.9,-656 -334.1,-1020.8 101.2,-165.5 331.1,-334.1 490.5,-364.8 530.3,-98.1 1030,493.5 818.5,971.8 -88.9,196.2 -202.3,318.8 -383.2,407.7 -202.3,101.1 -386.3,104.2 -591.7,6.1 z m 561,-254.5 c 156.3,-116.5 205.4,-214.6 205.4,-407.7 0,-297.4 -177.8,-475.2 -475.2,-475.2 -193.1,0 -291.2,49.1 -407.7,205.4 -159.4,211.5 -67.4,576.3 171.7,698.9 156.3,79.8 383.2,70.6 505.8,-21.4 z"
               id="path9422" />
            <path
               d="m 3637.8,2275.3 c -619.2,-229.9 -797,-959.5 -343.3,-1413.2 183.9,-180.9 334.1,-245.2 597.8,-245.2 263.7,0 413.8,64.4 597.8,245.2 180.9,183.9 245.2,334.1 245.2,597.8 0,177.8 -15.3,257.5 -70.5,358.7 -88.9,168.6 -248.3,328 -410.8,410.8 -162.5,82.6 -456.8,104.1 -616.2,45.9 z m 493.5,-248.4 c 150.2,-64.4 248.3,-159.4 315.8,-306.5 107.3,-229.9 49.1,-548.7 -128.8,-711.2 -229.9,-211.5 -622.3,-211.5 -852.2,0 -233,214.6 -245.2,637.6 -24.5,876.7 159.4,171.7 462.9,233 689.7,141 z"
               id="path9424" />
            <path
               d="m 6605.2,2259.9 c -220.7,-101.2 -383.2,-340.3 -383.2,-561 3.1,-297.3 315.7,-607 613.1,-607 300.4,0 613.1,312.7 613.1,613.1 0,223.8 -177.8,469 -404.6,564.1 -150.2,64.4 -288.2,61.3 -438.4,-9.2 z m 413.8,-233 c 49,-27.6 110.4,-88.9 137.9,-137.9 95,-183.9 30.7,-420 -137.9,-505.8 -337.2,-174.7 -680.5,168.6 -505.8,505.8 88.9,168.6 321.9,233 505.8,137.9 z"
               id="path9426" />
          </g>
        </g>
      </g>
    </g>
  </g>
</svg>
