<?xml version="1.0" encoding="UTF-8" standalone="no"?>
<!-- Generator: Adobe Illustrator 19.0.0, SVG Export Plug-In . SVG Version: 6.00 Build 0)  -->

<svg
   version="1.1"
   id="Layer_1"
   x="0px"
   y="0px"
   viewBox="0 0 453.207 453.207"
   style="enable-background:new 0 0 453.207 453.207;"
   xml:space="preserve"
   width="512"
   height="512"
   sodipodi:docname="pear.svg"
   inkscape:version="1.1.1 (c3084ef, 2021-09-22)"
   xmlns:inkscape="http://www.inkscape.org/namespaces/inkscape"
   xmlns:sodipodi="http://sodipodi.sourceforge.net/DTD/sodipodi-0.dtd"
   xmlns="http://www.w3.org/2000/svg"
   xmlns:svg="http://www.w3.org/2000/svg"><defs
   id="defs845">
	
	
	
	
	
	
	
	
</defs><sodipodi:namedview
   id="namedview843"
   pagecolor="#505050"
   bordercolor="#eeeeee"
   borderopacity="1"
   inkscape:pageshadow="0"
   inkscape:pageopacity="0"
   inkscape:pagecheckerboard="0"
   showgrid="false"
   inkscape:zoom="4.0831585"
   inkscape:cx="290.70633"
   inkscape:cy="103.47382"
   inkscape:window-width="1312"
   inkscape:window-height="837"
   inkscape:window-x="0"
   inkscape:window-y="38"
   inkscape:window-maximized="0"
   inkscape:current-layer="g3993" />
















<g
   id="g3993"><path
     style="fill:#f7b239;stroke-width:0.32244"
     d="m 284.0893,88.213999 c 7.62892,7.493497 12.68155,17.985681 12.68155,29.603181 0,22.78036 -18.56607,33.94 -41.34321,33.94 -22.78036,0 -41.23036,-11.15964 -41.23036,-33.94 0,-11.68521 4.66571,-22.232211 12.55903,-29.735381 5.37829,-5.113893 8.38665,-12.133404 8.38665,-19.555964 v -0.119303 c 0,-11.395017 9.58613,-20.587771 21.07466,-20.178273 10.94037,0.386928 19.59788,9.711882 19.59788,20.661932 0,7.303258 3.06318,14.206691 8.2738,19.323808 z"
     id="path824" /><path
     style="fill:#e09b2d;stroke-width:0.32244"
     d="m 243.44578,88.081799 c -3.30823,7.50317 -5.26221,18.050171 -5.26221,29.735381 0,22.75457 7.71598,33.9142 17.24407,33.94 -22.78036,0 -41.23036,-11.15964 -41.23036,-33.94 0,-11.68521 4.66571,-22.232211 12.55903,-29.735381 5.37829,-5.113893 8.38665,-12.133404 8.38665,-19.555964 v -0.119303 c 0,-11.149963 9.17986,-20.19117 20.33627,-20.19117 -4.67537,0.0032 -8.51885,9.044432 -8.51885,20.19117 v 0.119303 c 0,7.422238 -1.26074,14.442071 -3.5146,19.555964 z"
     id="path826" /><g
     id="g1999"
     transform="matrix(0.92217999,0,0,0.92217999,19.882891,3.2856414)"><path
       style="fill:#9ad14b;stroke-width:0.32244"
       d="m 255.49843,42.221033 c -16.56372,0 -29.99011,-13.426387 -29.99011,-29.986887 8.28025,0 15.7802,3.356597 21.20685,8.783256 5.42666,5.426982 8.78326,12.923703 8.78326,21.203631 z"
       id="path828" /><path
       style="fill:#90bc42;stroke-width:0.32244"
       d="M 255.49843,42.221033 225.50832,12.234146 c 8.28025,0 15.7802,3.356597 21.20685,8.783256 5.42666,5.426982 8.78326,12.923703 8.78326,21.203631 z"
       id="path830" /></g><path
     id="path838"
     style="fill:#1e1e1e;stroke-width:0;stroke-miterlimit:4;stroke-dasharray:none;fill-opacity:1"
     d="m 290.90234,53.852133 -3.64648,-0.02747 c -6.20131,0.320556 -11.99998,2.776766 -16.5293,7.14799 -5.03638,4.8608 -5.81054,9.363085 -5.81054,16.308594 v 0.134766 c 0,7.680239 -3.06312,14.823372 -8.62696,20.113281 -9.69538,9.218546 -15.03515,21.849776 -15.03515,35.570316 0,13.00257 4.73213,22.88696 14.36376,30.1665 8.72023,6.59108 19.03852,8.91162 32.94483,8.91162 13.91507,0 25.41837,-3.72299 34.16992,-10.31152 9.67716,-7.28573 13.26953,-15.76841 13.26953,-28.7666 -3.6e-4,-13.03827 -5.04288,-24.86046 -14.66796,-34.313963 -5.49863,-5.400646 -9.00391,-13.537737 -9.00391,-20.957525 0,-12.800036 -7.43916,-21.729403 -19.60938,-23.75 -0.64218,-0.122552 -1.24239,-0.170027 -1.81836,-0.225992 z m -2.28906,3.347086 c 0.24733,0 0.4957,0.005 0.74414,0.01367 10.75649,0.382481 19.50781,9.630714 19.50781,20.615234 0,8.89799 3.60892,17.343034 10.16211,23.779297 8.58581,8.43282 13.50977,19.91064 13.50977,31.49219 0,26.2583 -22.71517,35.61328 -43.97461,35.61328 -21.19607,0 -43.8457,-9.35535 -43.8457,-35.61328 0,-12.20847 4.73629,-23.43459 13.33593,-31.61133 6.6592,-6.331353 10.32813,-14.879947 10.32813,-24.072266 V 77.28125 c 0,-5.44873 2.18102,-10.555411 6.14062,-14.376953 3.82884,-3.695141 8.80736,-5.705078 14.0918,-5.705078 z"
     transform="scale(0.88516992)"
     sodipodi:nodetypes="cccsscscsccssccccscssscsscsc" /><path
     id="path1513"
     style="fill:#212226;stroke-width:0;stroke-miterlimit:4;stroke-dasharray:none;fill-opacity:1"
     d="m 258.91767,15.300888 c -2.69986,0.07625 -2.77302,0.144772 -2.73242,2.732422 0.2686,17.120382 14.45008,28.253746 31.05563,29.836857 0,0 1.59805,-1.633561 1.78449,-3.075559 -1.24798,-17.271687 -16.08481,-29.889731 -30.1077,-29.49372 z m -0.37861,2.249893 c 14.89604,1.36273 26.79156,13.256671 28.1543,28.152344 -14.89567,-1.362729 -26.79158,-13.25667 -28.1543,-28.152344 z"
     sodipodi:nodetypes="ssccsccc"
     transform="scale(0.88516992)" /><path
     d="m 257.48975,35.976178 c -2.07646,2.184828 -3.80896,5.509202 -4.54356,8.951972 -0.15864,0.947973 -0.2994,1.868823 -0.2994,2.850651 2.43221,-0.148511 4.42009,-0.148545 6.65904,0.169844 0,-6.721576 4.73842,-10.036525 11.36907,-10.036525 1.33552,0 1.92414,-3.362286 1.81605,-4.693451 -0.20087,-2.473806 -2.08748,-4.494309 -3.423,-4.494309 -4.83286,0.458965 -9.08012,4.554893 -11.5782,7.251821 z"
     style="fill:#552200;stroke-width:0;stroke-miterlimit:4;stroke-dasharray:none"
     id="path2294"
     sodipodi:nodetypes="ccccssccc" /></g></svg>
