<?xml version="1.0" encoding="UTF-8" standalone="no"?>
<!-- Created with Inkscape (http://www.inkscape.org/) -->

<svg
   width="210mm"
   height="297mm"
   viewBox="0 0 210 297"
   version="1.1"
   id="svg5"
   inkscape:version="1.1.1 (c3084ef, 2021-09-22)"
   sodipodi:docname="red_apple.svg"
   xmlns:inkscape="http://www.inkscape.org/namespaces/inkscape"
   xmlns:sodipodi="http://sodipodi.sourceforge.net/DTD/sodipodi-0.dtd"
   xmlns="http://www.w3.org/2000/svg"
   xmlns:svg="http://www.w3.org/2000/svg">
  <sodipodi:namedview
     id="namedview7"
     pagecolor="#505050"
     bordercolor="#eeeeee"
     borderopacity="1"
     inkscape:pageshadow="0"
     inkscape:pageopacity="0"
     inkscape:pagecheckerboard="0"
     inkscape:document-units="mm"
     showgrid="false"
     inkscape:zoom="2.3524617"
     inkscape:cx="408.72079"
     inkscape:cy="375.98912"
     inkscape:window-width="1312"
     inkscape:window-height="837"
     inkscape:window-x="0"
     inkscape:window-y="38"
     inkscape:window-maximized="0"
     inkscape:current-layer="layer1" />
  <defs
     id="defs2" />
  <g
     inkscape:label="Layer 1"
     inkscape:groupmode="layer"
     id="layer1">
    <g
       id="g2338"
       transform="translate(-17.377704,-8.9116429)">
      <path
         style="fill:#aa0000;fill-opacity:1;stroke-width:0.264583"
         d="m 118.50253,127.01554 c -1.82687,-0.59123 -4.14132,-2.14825 -6.32147,-4.30258 -5.39205,-5.3282 -8.27508,-12.55422 -7.85959,-19.69933 0.18656,-3.208296 0.68526,-5.210076 1.93274,-7.758066 1.32911,-2.71472 3.15741,-4.64937 5.47448,-5.79292 2.53772,-1.25245 4.41368,-1.30328 8.63975,-0.23411 1.54763,0.39154 3.98301,0.49392 3.97358,0.16705 l 0.77564,0.0482 c 0.0859,0.0513 1.40624,-0.19281 2.93421,-0.54242 6.17197,-1.41219 10.03114,-0.51846 14.01867,3.24652 6.71822,6.34327 6.90658,17.344666 0.46121,26.938246 -1.60351,2.38674 -4.34795,5.17775 -7.123,6.42688 -6.1025,2.32016 -11.47793,2.84903 -16.90622,1.50253 z m 26.74012,-18.80745 c 1.57484,-5.09874 -0.12004,-10.746746 -4.19849,-13.990986 -1.80362,-1.43471 -2.22742,-1.51705 -1.0796,-0.20975 1.27878,1.45645 2.63812,3.68507 3.33981,5.47554 1.21724,3.106026 1.66738,7.884106 0.97212,10.318746 -0.0897,0.31402 -0.0368,0.43132 0.14407,0.31955 0.15716,-0.0971 0.5271,-0.95803 0.82209,-1.9131 z"
         id="path21-3"
         sodipodi:nodetypes="csssssccsssccsssssss" />
      <path
         d="m 125.95471,86.92814 c -0.6207,-0.182819 -0.59489,-0.315209 0.35291,-1.809739 2.74196,-4.32361 7.90641,-6.836704 13.14035,-6.394271 2.77357,0.23445 2.87932,0.331402 1.95359,1.791121 -1.58133,2.4935 -4.49783,4.795898 -7.39776,5.840061 -1.09932,0.39583 -2.31439,0.562919 -4.54336,0.624768 -1.67349,0.0464 -3.25107,0.0231 -3.50573,-0.0519 z"
         style="fill:#338000;stroke-width:0.0700042"
         id="path165-9" />
      <path
         d="m 124.34202,89.395584 c -0.0315,-1.091848 -1.21908,-5.223647 -1.96613,-6.840529 -0.51858,-1.12241 -0.91214,-2.06991 -0.87457,-2.10556 0.0376,-0.0357 0.74384,-0.148428 1.5695,-0.250618 l 1.50119,-0.185791 0.28292,1.020159 c 0.4436,1.599589 0.61246,4.8284 0.34793,6.653099 -0.13269,0.91531 -0.17101,1.70616 -0.0852,1.757442"
         style="fill:#502d16;stroke-width:0.0700042"
         id="path401-9" />
    </g>
  </g>
</svg>
