<?xml version="1.0" encoding="UTF-8" standalone="no"?>
<!-- Created with Inkscape (http://www.inkscape.org/) -->

<svg
   width="210mm"
   height="297mm"
   viewBox="0 0 210 297"
   version="1.1"
   id="svg5"
   inkscape:version="1.1.1 (c3084ef, 2021-09-22)"
   sodipodi:docname="tomato_.svg"
   xmlns:inkscape="http://www.inkscape.org/namespaces/inkscape"
   xmlns:sodipodi="http://sodipodi.sourceforge.net/DTD/sodipodi-0.dtd"
   xmlns="http://www.w3.org/2000/svg"
   xmlns:svg="http://www.w3.org/2000/svg">
  <sodipodi:namedview
     id="namedview7"
     pagecolor="#505050"
     bordercolor="#eeeeee"
     borderopacity="1"
     inkscape:pageshadow="0"
     inkscape:pageopacity="0"
     inkscape:pagecheckerboard="0"
     inkscape:document-units="mm"
     showgrid="false"
     inkscape:zoom="1.4677497"
     inkscape:cx="424.4593"
     inkscape:cy="414.92089"
     inkscape:window-width="1512"
     inkscape:window-height="840"
     inkscape:window-x="0"
     inkscape:window-y="38"
     inkscape:window-maximized="1"
     inkscape:current-layer="layer1" />
  <defs
     id="defs2" />
  <g
     inkscape:label="Layer 1"
     inkscape:groupmode="layer"
     id="layer1">
    <path
       style="fill:#c60000;stroke:none;stroke-width:0.264583px;stroke-linecap:butt;stroke-linejoin:miter;stroke-opacity:1;fill-opacity:1"
       d="m 108.50062,95.615679 -6.28534,1.335636 -4.2426,2.671267 -6.049634,7.385268 -1.72847,4.94971 0.07857,7.85666 2.199868,6.91387 4.478303,6.44248 8.485203,6.91387 6.44247,1.57133 8.40663,1.09993 7.46384,-1.4142 8.56377,-4.08547 5.81394,-6.04963 3.5355,-5.97107 2.1213,-7.46384 -0.31427,-6.20677 -1.4142,-4.39973 -3.45693,-5.26397 -4.55687,-3.614073 -6.20677,-2.5927 h -4.08547 -1.72846 l 2.60222,3.287895 -0.20381,5.042988 -9.28877,-7.440028 -9.28876,7.394938 -0.22546,-6.042205 2.0291,-2.119281 z"
       id="path1020" />
    <path
       style="fill:#008000;stroke:none;stroke-width:0.264583px;stroke-linecap:butt;stroke-linejoin:miter;stroke-opacity:1;fill-opacity:1"
       d="m 111.64552,95.818554 -3.1449,-0.202877 -3.92369,-2.876693 1.36011,-1.057857 4.93667,1.057857 7.40502,3.223953 0.20149,-3.324701 -3.17357,-5.59154 2.56908,-1.611977 1.49344,2.521514 -0.15138,4.579477 0.52985,2.573589 5.22287,-2.876365 5.07149,-0.454163 -0.49201,1.438183 -3.52899,2.477291 2.60222,3.287895 -0.20381,5.04299 -9.28877,-7.44003 -9.28876,7.39494 -0.22546,-6.042205 z"
       id="path13373" />
    <path
       style="fill:#000000;stroke-width:0.264583"
       d="m 115.37219,143.40211 c -11.02114,-1.28642 -21.368575,-9.47946 -24.83181,-19.66167 -2.000347,-5.8812 -1.619708,-11.95397 1.103476,-17.60503 1.141606,-2.36902 1.641562,-3.06797 3.617039,-5.05674 2.680045,-2.698077 5.466605,-4.446047 8.708475,-5.462714 1.20055,-0.376497 2.18281,-0.719826 2.18281,-0.762954 0,-0.04313 -0.59965,-0.447383 -1.33256,-0.898345 -0.7329,-0.450963 -1.40219,-1.001391 -1.48729,-1.223174 -0.41554,-1.08288 2.14028,-2.172702 4.32651,-1.844857 1.6652,0.249713 3.84605,1.087474 7.15364,2.748034 1.48894,0.747517 2.8222,1.359123 2.9628,1.359123 0.38227,0 -0.1087,-1.304024 -1.87894,-4.990496 -1.79088,-3.729455 -1.81911,-3.511316 0.64765,-5.004961 0.8082,-0.489372 1.61258,-0.798194 1.84586,-0.708675 0.2274,0.08726 0.68666,0.775217 1.02057,1.52879 0.49733,1.122383 0.63332,2.004688 0.75204,4.879407 l 0.14493,3.509274 1.42435,-0.960378 c 2.57098,-1.733502 4.18916,-2.341596 6.24857,-2.348128 2.26732,-0.0072 3.83646,0.643102 3.83646,1.589932 0,0.454769 -0.34267,0.807309 -1.34998,1.388875 l -1.34997,0.779402 2.01854,0.30022 c 6.24688,0.929108 12.33953,5.357835 15.10764,10.981695 1.75314,3.56179 2.28697,5.91281 2.32096,10.22171 0.0321,4.06602 -0.32338,5.83919 -1.90943,9.525 -1.34616,3.12834 -3.40521,6.06633 -6.22102,8.87659 -6.76176,6.74842 -15.76708,9.92493 -25.06132,8.84007 z m 8.37478,-1.89094 c 3.75652,-0.57359 8.73096,-2.69231 12.03855,-5.12746 7.16178,-5.27274 11.20906,-12.55265 11.1696,-20.09097 -0.0194,-3.71366 -0.57707,-6.21561 -2.08633,-9.36075 -0.98106,-2.04442 -1.57139,-2.86457 -3.35112,-4.65564 -2.31541,-2.330184 -4.86742,-4.009721 -7.45449,-4.905972 -1.49278,-0.517151 -5.62479,-1.20308 -5.85579,-0.972083 -0.0583,0.05834 0.19295,0.748463 0.55844,1.533597 0.55494,1.192126 0.66059,1.798356 0.64073,3.676478 -0.0462,4.36768 -0.56713,4.63919 -3.60864,1.88085 -2.36565,-2.14541 -6.95577,-5.849604 -7.24864,-5.849604 -0.33708,0 -3.40457,2.637024 -6.09556,5.240164 -3.45817,3.34527 -3.84383,3.21927 -3.89133,-1.27141 -0.0199,-1.878122 0.0858,-2.484352 0.64073,-3.676478 0.36548,-0.785134 0.61678,-1.475252 0.55844,-1.533597 -0.23107,-0.231067 -4.44703,0.458356 -5.87752,0.961132 -2.5483,0.895655 -5.141702,2.611241 -7.432765,4.916923 -3.674511,3.69795 -5.418159,8.18829 -5.442711,14.01639 -0.03916,9.29643 6.188282,18.21357 15.973926,22.87322 5.44547,2.59298 10.50578,3.30088 16.76448,2.34521 z M 99.3832,131.18745 c -1.94511,-2.077 -3.140755,-3.82726 -4.382919,-6.416 -0.852465,-1.77659 -1.048475,-2.41978 -0.838863,-2.75266 0.622309,-0.98828 1.085802,-0.63409 2.154496,1.64645 1.261525,2.69202 2.224494,4.13036 4.177786,6.24014 1.51462,1.63598 1.75024,2.46043 0.74447,2.60499 -0.37132,0.0534 -0.95774,-0.36485 -1.85497,-1.32292 z m 43.92904,-11.08075 c -0.0976,-0.15789 -0.15878,-1.63424 -0.13598,-3.28078 0.0637,-4.60177 -0.84013,-7.66808 -3.177,-10.77816 -1.10486,-1.47044 -1.15171,-1.72043 -0.40691,-2.17153 1.06896,-0.64745 3.90488,3.86064 4.81952,7.66132 0.57302,2.38106 0.6614,7.78881 0.13762,8.41992 -0.41521,0.5003 -0.97831,0.56822 -1.23725,0.14923 z m -50.04719,-1.21563 c -0.384767,-1.00269 -0.230167,-2.78203 0.268775,-3.09343 0.752037,-0.46936 1.281787,0.4604 1.186604,2.0826 -0.06707,1.14313 -0.158687,1.33443 -0.674117,1.40762 -0.386064,0.0548 -0.661677,-0.0852 -0.781262,-0.39679 z m 41.52828,-17.06434 c -1.42822,-0.80314 -1.83818,-1.65013 -0.96152,-1.986536 0.52411,-0.201119 3.23586,1.089496 3.44738,1.640726 0.17288,0.4505 -0.34537,1.20104 -0.79847,1.15636 -0.16408,-0.0162 -0.92341,-0.38093 -1.68739,-0.81055 z m -7.43658,-2.972431 c -0.7787,-1.760373 -1.55462,-2.148123 -4.11374,-2.055745 -1.16999,0.04223 -2.18644,0.135978 -2.25878,0.208322 -0.0724,0.07234 0.28121,0.452664 0.78567,0.845157 0.50446,0.392494 2.04864,1.686855 3.43151,2.876357 l 2.51431,2.16274 0.0793,-1.43339 c 0.0548,-0.9898 -0.0809,-1.795488 -0.43827,-2.603441 z m -12.5027,-0.497149 c 0.78421,-0.693748 1.37325,-1.313943 1.30898,-1.378212 -0.0643,-0.06427 -0.89018,-0.149968 -1.83535,-0.190443 -1.3092,-0.05606 -1.89407,0.04144 -2.45563,0.409392 -1.0093,0.661315 -1.73825,2.382792 -1.74531,4.121693 l -0.006,1.431 1.65365,-1.56604 c 0.9095,-0.86132 2.29527,-2.133642 3.07947,-2.82739 z m 12.45698,-4.564162 c 1.55327,-0.905537 1.87421,-1.191574 1.49864,-1.335691 -0.78356,-0.300681 -3.1751,0.379894 -4.83391,1.375614 -2.30403,1.383024 -2.33844,1.506483 -0.36108,1.295703 1.35043,-0.143951 2.1443,-0.430805 3.69635,-1.335626 z m -14.27968,0.80134 c -1.69219,-0.973941 -4.85755,-2.00661 -5.91442,-1.929522 l -1.09704,0.08002 1.5875,0.926042 c 1.50836,0.879876 2.73566,1.18208 5.15938,1.270415 l 0.92604,0.03375 z m 5.29046,-6.617819 c -0.16444,-0.792091 -0.39763,-1.501135 -0.5182,-1.575653 -0.12057,-0.07452 -0.48129,0.07672 -0.80158,0.33608 l -0.58236,0.471567 1.01782,2.064673 c 1.01247,2.053834 1.01825,2.059631 1.10056,1.104087 0.0455,-0.528324 -0.0518,-1.608663 -0.21624,-2.400754 z"
       id="path836" />
  </g>
</svg>
