<?xml version="1.0" encoding="UTF-8" standalone="no"?>
<!-- Created with Inkscape (http://www.inkscape.org/) -->

<svg
   width="210mm"
   height="297mm"
   viewBox="0 0 210 297"
   version="1.1"
   id="svg5"
   inkscape:version="1.1.1 (c3084ef, 2021-09-22)"
   sodipodi:docname="tomato.svg"
   xmlns:inkscape="http://www.inkscape.org/namespaces/inkscape"
   xmlns:sodipodi="http://sodipodi.sourceforge.net/DTD/sodipodi-0.dtd"
   xmlns="http://www.w3.org/2000/svg"
   xmlns:svg="http://www.w3.org/2000/svg">
  <sodipodi:namedview
     id="namedview7"
     pagecolor="#505050"
     bordercolor="#eeeeee"
     borderopacity="1"
     inkscape:pageshadow="0"
     inkscape:pageopacity="0"
     inkscape:pagecheckerboard="0"
     inkscape:document-units="mm"
     showgrid="false"
     inkscape:zoom="0.83337855"
     inkscape:cx="413.97754"
     inkscape:cy="376.17959"
     inkscape:window-width="1312"
     inkscape:window-height="837"
     inkscape:window-x="0"
     inkscape:window-y="38"
     inkscape:window-maximized="0"
     inkscape:current-layer="layer1" />
  <defs
     id="defs2" />
  <g
     inkscape:label="Layer 1"
     inkscape:groupmode="layer"
     id="layer1">
    <g
       id="g1314">
      <path
         style="fill:#c60000;stroke:none;stroke-width:0.264583px;stroke-linecap:butt;stroke-linejoin:miter;stroke-opacity:1;fill-opacity:1"
         d="m 88.768398,98.052198 -6.613118,5.850072 -4.832664,14.11646 4.451138,13.48059 9.919676,9.15662 12.91126,3.40796 12.49445,-1.91775 8.84934,-5.44914 7.1079,-10.57517 1.04018,-10.22844 -1.30023,-6.15439 -4.16072,-7.62799 -5.80767,-4.940858 -7.71467,0.866817 0.0867,1.820315 3.29391,4.160726 0.60677,2.77381 -9.18826,-3.38059 -0.9535,2.94718 -1.99368,7.88803 -2.13729,2.73731 -1.50314,-1.37244 -1.17637,-8.49602 0.0961,-2.52534 -0.57441,-1.57962 -10.004258,4.06872 -0.335071,-1.29242 6.079144,-7.323687 -1.148816,-1.053078 z"
         id="path969" />
      <path
         style="fill:#008000;stroke:none;stroke-width:0.264583px;stroke-linecap:butt;stroke-linejoin:miter;stroke-opacity:1"
         d="m 102.71766,86.969697 -0.53383,6.895295 -12.233586,1.423546 -1.181846,2.763658 7.492701,-0.642321 1.148815,1.053076 -6.079143,7.323689 0.335071,1.29242 10.004258,-4.06872 0.57441,1.57962 -0.0961,2.52534 1.17637,8.49602 1.50314,1.37244 2.13729,-2.73731 2.94718,-10.83521 9.18826,3.38059 -0.60677,-2.77381 -3.29391,-4.160728 -0.0867,-1.820315 7.71467,-0.866815 -2.36045,-2.281997 -6.5839,-2.09083 -5.69418,0.889715 -0.6228,-6.583895 z"
         id="path1192" />
      <path
         style="fill:#000000;stroke-width:0.264583"
         d="m 103.45869,144.98388 c -3.633266,-0.50479 -5.063741,-0.79845 -7.050083,-1.44734 -9.387411,-3.06662 -16.362673,-10.1077 -18.807158,-18.98461 -0.844241,-3.06578 -0.839897,-9.36502 0.0086,-12.47025 0.76392,-2.7957 2.026723,-5.54756 3.668946,-7.99525 1.384413,-2.06343 4.807668,-5.647855 5.6489,-5.914852 0.394592,-0.125238 0.486072,-0.319802 0.369239,-0.785305 -0.257106,-1.024392 0.363483,-1.726229 2.368225,-2.678277 2.721419,-1.292396 5.247821,-1.766454 8.700102,-1.632501 l 2.844269,0.110361 v -2.859878 c 0,-2.778015 0.0218,-2.884316 0.76276,-3.713549 0.69952,-0.782902 0.91925,-0.862513 2.65059,-0.960342 3.5162,-0.198683 4.50769,0.886512 4.51834,4.945376 0.006,2.169121 0.0178,2.210209 0.60112,2.041618 2.89696,-0.837259 5.99473,-0.655422 9.16836,0.538177 2.7342,1.028329 4.78661,2.423519 4.79022,3.2563 10e-4,0.229295 0.42942,0.708157 0.95205,1.064136 1.52752,1.040443 4.65244,4.234866 6.00743,6.141046 1.57003,2.20868 3.20375,5.67001 3.94122,8.35018 0.84902,3.08554 0.84833,9.36873 -0.001,12.5105 -2.69329,9.95839 -11.59738,17.93418 -22.28489,19.96157 -2.20414,0.41811 -7.40217,0.725 -8.85687,0.52289 z m 6.08542,-2.25694 c 4.52139,-0.55408 9.19803,-2.28089 12.88672,-4.75832 2.35382,-1.58088 5.69228,-5.03999 7.19387,-7.45384 4.90416,-7.88357 4.77739,-17.30825 -0.33714,-25.0627 -1.20746,-1.8307 -3.9509,-4.75387 -5.59264,-5.959012 -1.24598,-0.914635 -1.28145,-0.922786 -3.9998,-0.919205 -1.50848,0.002 -3.00622,0.07427 -3.32832,0.160621 -0.54089,0.145011 -0.47857,0.25486 0.81561,1.437666 1.66126,1.5183 3.04052,3.96224 3.25416,5.76613 0.1295,1.09346 0.0653,1.38565 -0.40847,1.85944 -0.80988,0.80988 -1.58617,0.69798 -3.11214,-0.44862 -1.6038,-1.20507 -2.91049,-1.85134 -4.71461,-2.3318 -2.21225,-0.58915 -2.12725,-0.66556 -2.46748,2.21805 -0.37422,3.17161 -1.40278,6.44566 -2.70631,8.61449 -1.70237,2.83243 -3.18889,2.9533 -4.378,0.35595 -0.80436,-1.75696 -1.43622,-5.8289 -1.43827,-9.26883 l -0.002,-2.61351 -1.12448,0.1763 c -1.503888,0.23578 -4.238337,1.5338 -5.943895,2.82151 -1.992322,1.50421 -2.663595,1.71353 -3.500469,1.09153 -1.598668,-1.18821 -0.443991,-4.07209 3.087348,-7.71084 1.051165,-1.083143 1.868626,-2.011932 1.816578,-2.06398 -0.114641,-0.114641 -4.175246,0.587977 -6.373622,1.102847 -1.454376,0.340623 -1.746799,0.540123 -3.487122,2.379043 -9.087042,9.60187 -8.911747,23.43735 0.41454,32.71842 4.049673,4.03003 9.514199,6.83367 14.860432,7.62431 1.08377,0.16027 2.26814,0.3351 2.63194,0.3885 1.39032,0.20409 3.66115,0.15673 5.95313,-0.12415 z M 82.872882,124.40888 c -0.562921,-0.85912 -1.506901,-3.69189 -1.506901,-4.52202 0,-0.73096 0.777516,-1.29943 1.433169,-1.04783 0.227243,0.0872 0.537231,0.65232 0.688861,1.25582 0.15163,0.6035 0.52103,1.64268 0.820889,2.30929 0.707463,1.57275 0.595098,2.46536 -0.323781,2.57206 -0.492178,0.0572 -0.808926,-0.1044 -1.112237,-0.56732 z m -1.084397,-8.52059 c -0.478351,-0.47835 -0.348131,-2.09544 0.339921,-4.22116 0.358448,-1.10742 0.543826,-1.33628 1.138009,-1.40492 0.913867,-0.10558 1.389778,0.67056 1.015232,1.65569 -0.142675,0.37527 -0.377537,1.41581 -0.521915,2.31231 -0.324126,2.01264 -1.026174,2.60315 -1.971247,1.65808 z m 24.810535,-4.36924 c 0.66092,-1.98078 1.22529,-5.25386 1.22529,-7.1061 0,-0.66048 0.17813,-1.15939 0.52651,-1.47467 1.07432,-0.97224 6.05681,0.0646 8.58658,1.78685 0.57381,0.39065 1.08861,0.66496 1.14399,0.60958 0.14441,-0.14441 -0.70032,-1.7247 -1.44713,-2.70725 -0.35015,-0.46067 -1.28826,-1.28638 -2.0847,-1.83491 -1.47798,-1.017919 -1.8872,-1.739046 -1.56426,-2.756524 0.2756,-0.868367 1.79342,-1.349625 4.879,-1.546993 l 2.79231,-0.17861 -1.28861,-0.58908 c -3.06931,-1.403131 -6.74749,-1.802275 -9.03014,-0.979921 -1.39227,0.501581 -2.23143,0.487126 -2.82344,-0.04864 -0.41107,-0.372016 -0.48386,-0.861894 -0.48386,-3.256722 0,-3.526651 -0.14439,-3.775618 -2.1247,-3.663426 l -1.44717,0.08199 -0.13229,3.395609 c -0.16891,4.33559 -0.0428,4.217296 -4.242633,3.979945 -2.39778,-0.13551 -3.502604,-0.07708 -5.036837,0.266385 -2.787616,0.624055 -2.881445,0.818839 -0.417106,0.865896 2.654663,0.05069 4.152351,0.516512 4.588855,1.42726 0.499218,1.041599 0.16437,1.695018 -1.564804,3.053531 -1.48575,1.16727 -4.077098,4.26349 -3.800108,4.54048 0.06788,0.0679 0.478017,-0.12908 0.91142,-0.43769 1.735308,-1.23565 4.682981,-2.41614 6.443603,-2.58055 1.63358,-0.15255 1.7911,-0.11872 2.43216,0.52234 0.6526,0.6526 0.68554,0.82234 0.68732,3.54175 0.002,2.96043 0.50801,7.04145 1.0416,8.39954 l 0.30675,0.78074 0.63277,-1.06111 c 0.34802,-0.58361 0.92835,-1.94697 1.28963,-3.0297 z"
         id="path836" />
    </g>
  </g>
</svg>
