<svg id="Layer_1" data-name="Layer 1" xmlns="http://www.w3.org/2000/svg" viewBox="0 0 1525.39 1069"><defs><style>.cls-1{fill:#8cc63f;stroke:#39b54a;stroke-width:6px;}.cls-1,.cls-4{stroke-miterlimit:10;}.cls-2{fill:#006837;}.cls-3{fill:#557826;opacity:0.6;}.cls-4{fill:#d9e028;stroke:#fcee21;stroke-width:2px;}</style></defs><title>dzmeruk1</title><path class="cls-1" d="M1030.47,560.4c6.47,28.77,21.76,97.46-13.42,169.14-31.35,63.88-92.63,112.2-172.51,126.93-142.13,26.2-289.31-63.87-328.75-201.18-17.27-60.14-11-119.37,13.42-169.14,44.14-89.93,137.63-116.76,172.51-126.94,32.6-9.5,94.69-27.62,164.54-3.21C992,399.94,1026.06,540.85,1030.47,560.4Z"/><path class="cls-2" d="M764.31,357.73a146.39,146.39,0,0,1,18.85,1.87c3.11.48,6.19,1.1,9.3,1.68s6.16,1.35,9.22,2.11l4.6,1.15c1.53.4,3,.87,4.56,1.3,3,.85,6,1.84,9.07,2.78,6,2,12,4.23,17.89,6.56s11.69,5.07,17.46,7.84c2.94,1.32,5.7,2.91,8.55,4.4,1.41.76,2.85,1.49,4.24,2.29l4.19,2.39c2.8,1.59,5.63,3.16,8.31,4.95l4.09,2.61c1.37.87,2.72,1.75,4.05,2.68l8,5.52c2.64,1.9,5.19,3.91,7.78,5.89s5.08,4.1,7.62,6.17l3.78,3.13c1.26,1.05,2.46,2.17,3.69,3.25s2.43,2.21,3.64,3.33,2.43,2.21,3.59,3.38l7,7,1.75,1.75,1.68,1.82,3.36,3.66c2.26,2.42,4.46,4.9,6.54,7.49l6.31,7.71c2,2.65,4,5.35,5.94,8l3,4,2.75,4.18,5.47,8.4c1.72,2.87,3.37,5.77,5,8.67l2.49,4.36,2.31,4.46,4.51,9,4.08,9.18,2,4.61c.67,1.54,1.2,3.12,1.8,4.68l3.51,9.41c.6,1.56,1.09,3.16,1.57,4.76l1.48,4.78,1.47,4.79c.47,1.6,1,3.18,1.39,4.81,1.58,6.49,3.34,12.92,4.49,19.51,1.34,6.54,2.3,13.16,3.17,19.77.41,3.32.66,6.65,1,10,.15,1.66.31,3.32.43,5l.22,5a250.3,250.3,0,0,1-1,39.79c-.32,3.3-.62,6.58-1.11,9.85l-.67,4.89c-.21,1.63-.44,3.26-.77,4.88l-1.86,9.68-2.18,9.58a276.75,276.75,0,0,1-28.83,71.68,251.69,251.69,0,0,1-21.44,31.44c-3.9,5-8.1,9.7-12.42,14.27a151.75,151.75,0,0,1-13.8,12.91l-3-2.11a285.29,285.29,0,0,0,17.81-31,333.83,333.83,0,0,0,14.24-32.78,328.72,328.72,0,0,0,18-68.92l1.17-8.83.87-8.87c.29-2.95.42-5.92.64-8.88s.31-5.92.4-8.89.22-5.93.14-8.9,0-5.93-.1-8.9l-.42-8.88c-.05-1.49-.19-3-.32-4.44L976.4,623l-.39-4.43-.57-4.41c-.4-2.94-.72-5.89-1.19-8.82l-1.52-8.76-.38-2.19-.47-2.18-.94-4.34c-1.15-5.82-2.8-11.52-4.29-17.26-.79-2.86-1.75-5.67-2.62-8.5l-1.34-4.24c-.44-1.42-.88-2.83-1.42-4.21l-3.06-8.35c-.53-1.39-1-2.8-1.57-4.16L954.91,537l-3.47-8.19-3.87-8-1.93-4-2.11-3.92-4.24-7.81-4.59-7.62-2.3-3.81L929.93,490c-1.66-2.46-3.28-4.95-5-7.39l-5.27-7.17c-1.71-2.43-3.6-4.71-5.45-7l-2.78-3.48-1.4-1.73-1.46-1.68-5.84-6.72c-2-2.21-4.06-4.33-6.07-6.52-1-1.07-2-2.19-3.06-3.24l-3.16-3.14c-2.12-2.08-4.16-4.24-6.37-6.23l-6.54-6.06-6.75-5.83c-1.11-1-2.26-1.93-3.42-2.86l-3.47-2.81c-1.16-.93-2.3-1.89-3.48-2.79l-3.55-2.7a356.73,356.73,0,0,0-29.47-20.18q-15.2-9.42-31.29-17.31-8-3.94-16.27-7.43c-5.49-2.32-11.06-4.52-16.67-6.39Z"/><path class="cls-2" d="M717.45,355.22a226.54,226.54,0,0,1,33.65,15.14c2.69,1.48,5.43,2.92,8,4.53s5.29,3.14,7.9,4.77,5.18,3.32,7.75,5,5.1,3.46,7.64,5.23A343.9,343.9,0,0,1,838,439.55,353,353,0,0,1,861.58,469l5.41,7.81c.93,1.29,1.77,2.63,2.62,4l2.56,4,2.56,4,2.44,4.1c1.59,2.76,3.25,5.48,4.77,8.28a352.12,352.12,0,0,1,16.72,34.53c2.33,6,4.76,11.93,6.81,18l1.55,4.57c.52,1.52,1,3,1.48,4.59l2.78,9.25a323.38,323.38,0,0,1,12,76.19,306.52,306.52,0,0,1-7,76.34,295.49,295.49,0,0,1-25.56,70.9,269.08,269.08,0,0,1-19.38,31.79,204.59,204.59,0,0,1-23.9,28.25l-3.71-1.92a392.4,392.4,0,0,0,25.47-64.77,374.89,374.89,0,0,0,13.72-68c1.2-11.51,1.85-23.07,2-34.63s-.27-23.13-1.23-34.65a362.84,362.84,0,0,0-12.59-68.09l-2.44-8.32c-.39-1.39-.84-2.77-1.3-4.14L866.06,567c-1.73-5.52-3.84-10.91-5.81-16.35-4.23-10.76-8.79-21.4-13.91-31.78s-10.67-20.56-16.65-30.48c-3-4.93-6.06-9.87-9.28-14.69-1.59-2.42-3.15-4.86-4.82-7.23s-3.25-4.8-5-7.15a478.38,478.38,0,0,0-44.4-53.57,504.34,504.34,0,0,0-51.34-47.2Z"/><path class="cls-2" d="M702.84,360.28a289.27,289.27,0,0,1,20.21,26.5c3.2,4.49,6.07,9.09,9.06,13.65s5.69,9.23,8.52,13.85c5.54,9.29,10.7,18.72,15.66,28.22s9.64,19.11,14,28.81c8.89,19.38,16.77,39.1,23.83,59.07s13.32,40.19,18.74,60.63a762.77,762.77,0,0,1,22.63,125c1,10.61,1.73,21.26,2.17,32s.65,21.46.48,32.28l-.2,8.12c-.08,2.71-.1,5.4-.28,8.13-.31,5.44-.52,10.86-1,16.34a288.73,288.73,0,0,1-4.3,33l-4.54.93-7-30.62q-3.51-15.3-7.12-30.58-7.05-30.58-14.53-61.07c-5.06-20.3-9.94-40.64-15.14-60.91s-10.48-40.5-15.93-60.7-10.82-40.42-16.44-60.57q-4.21-15.12-8.55-30.19L734.46,482q-8.67-30.15-17.8-60.19-4.47-15-9-30.07l-9.17-30Z"/><path class="cls-2" d="M666.68,369.72c2.4,11.63,4.19,22.9,6,34,1,5.56,1.76,11,2.74,16.52s1.72,10.87,2.73,16.26c1.84,10.77,3.68,21.38,5.61,31.88s4,20.89,6,31.17A1185.25,1185.25,0,0,0,720.44,619.3c12.28,39,26.83,77.4,43.24,116.33,4.06,9.75,8.31,19.5,12.58,29.37s8.72,19.74,13.12,29.82L796.12,810c1.12,2.55,2.22,5.13,3.38,7.67s2.27,5.13,3.39,7.72c4.56,10.33,9.15,20.82,13.37,31.91l-3.42,3.14a648.27,648.27,0,0,1-43.47-50.56,626.37,626.37,0,0,1-37.74-55.09,544.6,544.6,0,0,1-31.27-59.09,566.77,566.77,0,0,1-24.11-62.41,545.64,545.64,0,0,1-16-65c-1-5.48-1.87-11-2.77-16.51s-1.61-11-2.21-16.59-1.22-11.09-1.74-16.64-.85-11.12-1.09-16.69a549.82,549.82,0,0,1,.63-66.83q1.26-16.65,3.5-33.2c.38-2.76.76-5.52,1.19-8.26s.83-5.5,1.3-8.24c.93-5.49,2-10.95,3-16.4Z"/><path class="cls-2" d="M640.2,383.33c-4.88,12-9.52,23.74-13.88,35.35-2.1,5.85-4.31,11.55-6.26,17.35s-4,11.44-5.76,17.19a506.16,506.16,0,0,0-17.12,67.35c-3.84,22-5.71,43.61-5,64.48a242.81,242.81,0,0,0,9.57,60.65c5.63,19.61,14.1,38.71,24.55,57.28A361.8,361.8,0,0,0,664,756.73a583.82,583.82,0,0,0,48.41,50.53c2.21,2,4.4,4.14,6.65,6.17l6.8,6.11c4.52,4.15,9.22,8.11,13.89,12.25,9.41,8.18,19.14,16.24,29,24.88l-1.7,4.3a449.57,449.57,0,0,1-67.64-32.33,385.41,385.41,0,0,1-60.66-44.43,296.37,296.37,0,0,1-49.32-57.06c-13.84-21.1-25.07-44.08-32.18-68.43a237.62,237.62,0,0,1-9.22-75.11,269.52,269.52,0,0,1,13.4-74.29,353.11,353.11,0,0,1,31-68.55q9.57-16.2,20.62-31.41,5.52-7.59,11.41-14.91c4-4.88,8-9.64,12.31-14.27Z"/><path class="cls-3" d="M672.26,380c0-10.75,51.36-25,97.5-24.5,87.3.93,189.23,54.9,239,151,10.94,21.14,49.38,95.37,25,178-38,128.6-199.62,181.33-204.5,174.5-2.44-3.41,33.93-22.14,68-75,15.2-23.58,42.65-66.16,43-125,.34-58-25.83-99.67-43-127-10.65-17-38.61-60.41-90-91-16.59-9.87-46.63-24.95-81-38C690.62,389.48,672.23,386.45,672.26,380Z"/><path class="cls-4" d="M633.26,376c-.14,2.57,13.59,8.3,28,5,8.36-1.91,8.06-4.83,18-8,10.39-3.31,20.27-3.16,31-3,11.91.18,16.8,1.55,20-2,2.82-3.13,3.57-9.24,1-13-5.78-8.43-22.9,2.8-40-4-18.23-7.24-16.67-34.65-29-35-3.57-.1-7.77,1.93-8,4-.28,2.48,5.32,3.1,10,8,6.89,7.23,7.26,19,5,27a23.43,23.43,0,0,1-3,7C657,375.93,633.44,372.67,633.26,376Z"/></svg>