<?xml version="1.0" encoding="UTF-8" standalone="no"?>
<!-- Created with Inkscape (http://www.inkscape.org/) -->

<svg
   width="210mm"
   height="297mm"
   viewBox="0 0 210 297"
   version="1.1"
   id="svg4199"
   inkscape:version="1.1.1 (c3084ef, 2021-09-22)"
   sodipodi:docname="goose.svg"
   xmlns:inkscape="http://www.inkscape.org/namespaces/inkscape"
   xmlns:sodipodi="http://sodipodi.sourceforge.net/DTD/sodipodi-0.dtd"
   xmlns="http://www.w3.org/2000/svg"
   xmlns:svg="http://www.w3.org/2000/svg">
  <sodipodi:namedview
     id="namedview4201"
     pagecolor="#505050"
     bordercolor="#eeeeee"
     borderopacity="1"
     inkscape:pageshadow="0"
     inkscape:pageopacity="0"
     inkscape:pagecheckerboard="0"
     inkscape:document-units="mm"
     showgrid="false"
     inkscape:zoom="5.0342763"
     inkscape:cx="408.59895"
     inkscape:cy="374.6318"
     inkscape:window-width="1312"
     inkscape:window-height="834"
     inkscape:window-x="0"
     inkscape:window-y="38"
     inkscape:window-maximized="0"
     inkscape:current-layer="layer1" />
  <defs
     id="defs4196" />
  <g
     inkscape:label="Layer 1"
     inkscape:groupmode="layer"
     id="layer1">
    <path
       d="m 107.43905,103.03515 a 0.63147226,0.63147226 0 0 0 -0.5468,-0.0494 c -0.41628,0.1905 -0.53623,0.98073 -0.65617,2.70934 -0.0564,0.82197 -0.11995,1.92969 -0.1517,3.25614 a 2.3177501,2.3177501 0 0 0 1.46403,0.67027 c 0.44803,0 0.57856,-0.1658 1.016,-0.12347 0.6597,0.0635 0.78317,0.49742 1.50284,0.82903 a 3.4078335,3.4078335 0 0 0 2.04964,0.17992 c 0.52563,-0.0741 0.58913,-0.17639 1.63336,-0.52917 1.36525,-0.46567 2.46944,-0.70556 2.44122,-0.78669 A 3.7994169,3.7994169 0 0 1 114.88266,109.05 c -0.44097,-0.16227 -0.8643,-0.46919 -0.83608,-0.5715 0.0282,-0.1023 0.24694,0 0.53622,0 0.80434,0.0282 1.56281,-0.35277 1.55222,-0.50094 -0.0106,-0.14817 -0.40569,-0.17992 -1.90852,-0.14111 a 2.144889,2.144889 0 0 1 0.65616,-0.70556 1.8803057,1.8803057 0 0 1 1.01248,-0.28575 c 0,-0.0318 -1.37584,-0.15875 -3.57012,0.0776 a 18.78189,18.78189 0 0 1 -2.63172,0.20814 c -1.72155,-0.0176 -2.06022,-0.33161 -2.18722,-0.61383 -0.17992,-0.39864 0.067,-0.72672 0.1023,-1.74272 a 6.6604449,6.6604449 0 0 0 -0.16933,-1.7392 z"
       fill="#c17144"
       id="path4"
       style="stroke-width:0.352778" />
    <path
       d="m 108.7408,108.83482 a 1.6862779,1.6862779 0 0 1 1.01247,0.0706 c 0.83609,0.25047 0.9525,0.53975 1.49225,0.70555 0.63148,0.20461 0.77964,-0.0952 2.02495,-0.21519 0.9525,-0.0917 1.99319,-0.0282 2.00378,0.0988 0.0106,0.127 -0.70556,0.14112 -2.89631,0.61384 -0.67028,0.14464 -1.10772,0.25047 -1.66864,0.0741 -0.56091,-0.17639 -0.58914,-0.40922 -1.13594,-0.5715 -0.94545,-0.28575 -1.63689,0.16933 -1.70392,-0.0282 -0.067,-0.19756 0.37394,-0.5962 0.87136,-0.74789 z"
       fill="#885334"
       id="path6"
       style="stroke-width:0.352778" />
    <path
       d="m 114.2265,107.83646 c 0,-0.14111 -0.68086,-0.37395 -1.0795,-0.46567 -1.20298,-0.27516 -2.38831,0.13406 -2.38125,0.32456 0.0247,0.3175 3.42194,0.44803 3.46075,0.14111 z"
       fill="#885334"
       id="path8"
       style="stroke-width:0.352778" />
    <path
       d="m 106.90988,102.98576 c 0.21167,0.0564 -1.10419,3.92995 0.23989,5.4222 0.80786,0.89958 2.19428,0.508 2.20486,0.78317 0.0106,0.27516 -0.97013,0.6738 -1.90852,0.43038 -0.51506,-0.13405 -0.51859,-0.35277 -1.01248,-0.40569 -0.61383,-0.0776 -0.79727,0.21519 -1.55222,0.1905 -0.53622,-0.0176 -1.016,-0.18344 -1.01247,-0.28575 0.004,-0.10231 0.762,0.0212 1.54869,-0.49742 a 1.9720279,1.9720279 0 0 0 0.89606,-1.143 2.335389,2.335389 0 0 0 -0.10231,-1.15711 c -0.381,-1.61925 0.5327,-3.38314 0.6985,-3.33728 z"
       fill="#885334"
       id="path10"
       style="stroke-width:0.352778" />
    <path
       d="m 107.78125,100.82324 c -0.13053,0.14111 0.66675,1.03011 1.22413,1.99319 1.05834,1.83445 1.7392,4.77661 0.67734,6.70278 -0.9772,1.76389 -3.1997,2.22603 -3.12209,2.41653 0.0776,0.1905 3.32317,-1.19239 3.80295,-0.42686 0.27869,0.44802 -0.56445,1.34761 -0.27164,1.69333 0.29281,0.34572 0.99836,-0.35278 2.30717,-0.41275 0.87136,-0.0423 0.87489,0.2293 2.33539,0.41275 a 8.3255561,8.3255561 0 0 0 2.69169,0 8.6642228,8.6642228 0 0 0 2.03906,-0.70556 c 1.59808,-0.68439 2.7693,-1.43933 2.71639,-1.56633 -0.0529,-0.127 -1.44639,0.74083 -2.43417,0.12347 -0.32808,-0.20461 -0.635,-0.58561 -0.55386,-0.83608 0.13758,-0.42333 1.32644,-0.21872 1.35819,-0.42686 0.0318,-0.20814 -0.97366,-0.70556 -2.17311,-0.70556 -0.83608,0 -0.97719,0.254 -2.03905,0.43039 -1.06187,0.17639 -1.9932,0.32808 -2.85045,-0.14464 -1.17122,-0.63853 -1.52047,-2.11666 -1.63336,-2.56116 -0.0917,-0.39512 -0.16933,-0.92781 0.13758,-3.70064 0.20461,-1.82739 0.35278,-2.75873 0.13406,-2.84692 -0.30339,-0.11642 -0.68792,1.46403 -1.76389,1.70744 -1.20297,0.26459 -2.39536,-1.33702 -2.58233,-1.14652 z"
       fill="#ab6130"
       id="path12"
       style="stroke-width:0.352778" />
    <path
       d="m 110.56819,108.93713 c 0.22578,-0.0318 0.22578,1.17475 1.016,1.99319 0.26458,0.27164 0.51858,0.39158 2.44828,0.99483 1.13594,0.35278 1.70392,0.53623 1.90147,0.5715 a 6.8791671,6.8791671 0 0 0 3.73239,-0.42686 c 0,0.0318 -2.70228,1.71097 -5.10469,0.81492 -0.61737,-0.23283 -1.22767,-0.63853 -2.16253,-0.5327 -0.81139,0.0952 -1.58397,0.55034 -1.69686,0.35278 -0.0388,-0.0635 0.0388,-0.14111 0.11289,-0.33161 0.21519,-0.58208 0.0741,-1.36878 -0.24695,-1.51694 -0.18697,-0.0882 -0.40217,0.0529 -0.55739,0.14111 -1.18886,0.68086 -2.57175,0.52564 -2.58586,0.45861 -0.0141,-0.067 2.30717,-0.2152 2.87161,-1.59103 0.18345,-0.45861 0.14111,-0.9278 0.27164,-0.9278 z"
       fill="#885334"
       id="path14"
       style="stroke-width:0.352778" />
    <path
       d="m 118.5198,109.77321 c -0.32455,-0.23636 -0.86078,0.37042 -1.97555,0.78669 -1.11478,0.41628 -1.76389,0.28575 -1.76389,0.42686 0,0.14112 1.41111,0.50448 2.98803,0.5715 1.85561,0.0776 3.14325,-0.2293 3.13972,-0.3175 -0.004,-0.0882 -1.63689,0.25048 -2.11667,-0.53975 -0.23989,-0.381 -0.0353,-0.75494 -0.27164,-0.9278 z"
       fill="#885334"
       id="path16"
       style="stroke-width:0.352778" />
    <path
       d="m 75.865438,77.162429 a 8.3396672,8.3396672 0 0 0 2.151945,2.599972 7.8246116,7.8246116 0 0 0 2.649361,1.386417 5.6903059,5.6903059 0 0 0 2.314223,0.705556 5.8561115,5.8561115 0 0 0 3.478389,-0.867834 c 1.083028,-0.673805 2.748139,-1.700389 4.797778,-2.945694 3.750028,-2.278945 4.885972,-2.377723 6.124222,-3.817056 1.488723,-1.732139 4.466164,-3.813528 5.129394,-4.15925 0.66322,-0.345723 8.43844,-3.580695 8.43844,-3.580695 0,0 2.82222,-3.009195 2.82222,-3.527778 0,-1.622778 0.17639,-2.557639 0,-5.549195 -0.0423,-0.705555 -0.0282,-2.490611 0,-6.067778 0,-2.070806 0.0353,-4.885972 0.17639,-7.468306 a 81.519894,81.519894 0 0 1 1.31234,-10.738556 l 2.64583,-7.976306 3.4678,-3.654778 5.79262,-1.735667 h 3.14677 l -1.32644,2.25425 1.34056,2.956278 v 3.986389 l 1.32291,-0.172861 -3.47486,1.559278 -2.31775,2.081389 -2.31775,1.36525 c 0,0 -2.15194,5.203473 -2.31422,6.244167 -0.16228,1.040695 -0.49742,5.044723 -0.49742,5.044723 l 1.48872,10.406945 c 0,0 2.97745,8.322028 3.97228,10.057695 0.99483,1.735667 3.14325,6.76275 3.14325,7.627056 a 19.296946,19.296946 0 0 1 -1.82033,7.976306 24.024168,24.024168 0 0 1 -3.64067,5.376334 28.268085,28.268085 0 0 1 -2.15194,2.25425 l -4.03225,4.088694 a 19.014723,19.014723 0 0 1 -3.41489,6.314723 18.175112,18.175112 0 0 1 -9.59556,6.071303 l -6.939138,-0.87136 -6.949723,-3.29494 C 88.907634,99.239264 87.475356,97.690569 86.487578,96.582847 85.813772,95.827902 84.9918,94.885986 83.665356,93.460763 82.808106,92.540013 82.091967,91.788597 81.601605,91.284124 A 11.73339,11.73339 0 0 1 79.858883,89.992958 13.377334,13.377334 0 0 1 78.0703,87.996235 14.435668,14.435668 0 0 1 75.805466,82.496429 c 0.373945,0.66675 3.400778,5.887862 8.854723,6.455834 3.880556,0.409222 7.186084,-1.763889 7.941028,-2.25425 0.832556,-0.546806 1.100667,-0.860778 3.14325,-2.599972 2.201334,-1.869723 4.028723,-3.323167 5.235223,-4.261556 q 3.75356,-2.592917 3.70417,-2.674056 -0.0917,-0.144639 -12.700004,8.025695 c -1.241778,0.465667 -3.771195,1.393472 -6.505223,2.204861 a 4.6390281,4.6390281 0 0 1 -2.469444,0.172861 4.4061947,4.4061947 0 0 1 -2.162528,-1.2065 10.756195,10.756195 0 0 1 -3.640667,-3.986389 11.444112,11.444112 0 0 1 -1.340556,-5.210528 z"
       fill="#ecf0f2"
       id="path18"
       style="stroke-width:0.352778" />
    <path
       d="m 75.054049,79.762401 c 0.455084,-0.352777 3.266723,5.492751 8.438445,6.071306 0.448028,0.04939 1.957917,0.176389 5.626806,-1.389944 5.069417,-2.159 6.180667,-4.106334 12.74233,-8.322028 4.02873,-2.58939 6.36764,-3.626556 8.44198,-4.33564 2.96686,-1.012472 6.16303,-1.612194 6.2865,-1.213555 0.15875,0.504472 -4.93889,1.524 -10.58334,5.722056 -3.73944,2.776361 -4.03577,4.205111 -9.930691,8.844139 -3.340806,2.631722 -4.78014,3.376084 -6.452306,3.813528 -1.058334,0.275167 -4.691945,1.17475 -8.346723,-0.673805 -4.854223,-2.451806 -6.653389,-8.180918 -6.223001,-8.516057 z"
       fill="#b7cbce"
       id="path20"
       style="stroke-width:0.352778" />
    <path
       d="m 81.509883,89.474374 c -0.04939,0.303389 4.691945,1.672167 10.428112,2.427112 5.203473,0.687916 7.806973,1.030111 11.250085,0.172861 1.4605,-0.352778 6.09953,-1.580445 9.76489,-5.722056 2.46944,-2.779889 3.83117,-6.141862 3.47486,-6.417028 -0.35631,-0.275167 -1.63689,1.993194 -4.63197,4.335639 a 26.200807,26.200807 0 0 1 -9.26748,4.5085 33.358669,33.358669 0 0 1 -7.61294,1.213556 C 86.995578,90.550347 81.5628,89.149819 81.509883,89.474374 Z"
       fill="#b7cbce"
       id="path22"
       style="stroke-width:0.352778" />
    <path
       d="m 130.32728,27.985204 c -0.22578,0.282222 -0.42687,0.705555 -0.31045,0.836083 0.11642,0.130528 0.28928,-0.07056 0.67733,-0.172861 0.66323,-0.172861 0.80787,0.137583 1.58398,0.04939 a 6.8050838,6.8050838 0 0 0 1.17475,-0.331611 6.928556,6.928556 0 0 1 0.9525,-0.28575 c 0.23636,-0.04939 0.25047,-0.03528 0.68086,-0.09525 a 13.32089,13.32089 0 0 1 1.58397,-0.236361 c 0.40569,0 0.62442,0.0388 0.63147,0 0.007,-0.03881 -0.70555,-0.264584 -1.22061,-0.381 a 11.595806,11.595806 0 0 0 -1.49578,-0.236362 c -0.19755,0 -0.62794,-0.02822 -1.49225,-0.04939 -0.47977,0 -0.55739,0 -0.68086,0 a 3.8100002,3.8100002 0 0 0 -1.23472,0.310444 2.0531668,2.0531668 0 0 0 -0.85019,0.592667 z"
       fill="#915b1d"
       id="path24"
       style="stroke-width:0.352778" />
    <path
       d="m 130.69416,28.648426 c -0.0423,-0.119944 -1.09361,0 -2.11666,0.5715 -0.77611,0.416278 -0.75847,0.649111 -1.76389,1.411111 -1.05834,0.829028 -1.55575,0.913695 -2.85397,1.922639 a 4.3109447,4.3109447 0 0 0 -1.01953,1.058334 9.2145561,9.2145561 0 0 0 -0.47272,0.927805 c -0.33162,0.705556 -0.57503,1.262945 -0.61384,1.351139 -1.71097,4.109862 -1.15358,10.957279 -1.15358,10.960806 a 54.412448,54.412448 0 0 0 3.19617,14.029974 c 1.27705,3.4925 2.794,6.600472 2.77988,6.607528 -0.0141,0.0071 -0.73377,-1.545167 -1.55927,-3.559528 -1.29823,-3.153834 -2.49414,-6.067778 -3.2632,-9.877779 a 42.418003,42.418003 0 0 1 -0.65616,-4.917722 c -0.31045,-3.453695 -0.70556,-8.300862 0.79375,-12.59064 0.31397,-0.896055 1.16063,-2.885722 2.51177,-3.912306 0.43039,-0.324555 0.50448,-0.278694 1.41111,-0.924277 0.73378,-0.518584 1.11478,-0.846667 1.49225,-1.139473 1.79917,-1.386417 3.33728,-1.767417 3.28789,-1.919111 z"
       fill="#c6d0d3"
       id="path26"
       style="stroke-width:0.352778" />
    <path
       d="m 129.33244,19.765481 c 0.64911,-0.398639 1.98967,0.377472 2.31775,1.386417 0.24342,0.754944 -0.254,1.090083 0,1.735667 0.20461,0.522111 0.67734,0.758472 2.82222,1.559277 1.91912,0.705556 2.49414,0.896056 2.83987,1.545167 0.28222,0.522111 0.35277,1.252361 0.0917,1.471084 -0.21167,0.172861 -0.50447,-0.08467 -1.26647,-0.331612 a 8.4666672,8.4666672 0 0 0 -2.76225,-0.331611 4.9388892,4.9388892 0 0 0 -0.99837,0.04586 c -1.19238,0.250473 -1.49577,1.058334 -2.03905,0.896056 -0.54328,-0.162278 -0.81845,-1.093611 -0.82903,-1.732139 0,-0.705556 0.28928,-0.769056 0.33514,-1.439333 0.0706,-1.019528 -0.58914,-1.284112 -0.83256,-2.550584 -0.0388,-0.148167 -0.34925,-1.8415 0.32103,-2.25425 z"
       fill="#c7954a"
       id="path28"
       style="stroke-width:0.352778" />
    <path
       d="m 130.82822,22.00562 c -0.10936,-0.03528 -0.46567,0.352778 -0.35278,0.705556 0.11289,0.352777 0.60678,0.47625 0.68086,0.381 0.0741,-0.09525 -0.127,-0.215195 -0.22577,-0.617362 -0.0847,-0.296333 -0.0318,-0.448027 -0.10231,-0.469194 z"
       fill="#554133"
       id="path30"
       style="stroke-width:0.352778" />
    <path
       d="m 127.01822,23.526092 a 0.62088893,0.62088893 0 0 0 -0.27164,-0.426861 1.0160001,1.0160001 0 0 0 -1.31233,0.377472 0.87136117,0.87136117 0 0 0 -0.0917,0.903112 c 0.24342,0.306916 0.88195,0.116416 1.23473,-0.144639 0.11641,-0.08114 0.48683,-0.352778 0.44097,-0.709084 z"
       fill="#abaf9c"
       id="path32"
       style="stroke-width:0.352778" />
    <path
       d="m 126.11864,23.289731 a 1.3370279,1.3370279 0 0 1 0.635,0.141111 c 0,0 0.44097,0.165806 0.45155,0.331611 0.0106,0.165806 -0.47272,0.433917 -0.94897,0.426862 -0.0529,0 -0.65617,0 -0.72672,-0.28575 -0.0706,-0.28575 0.27164,-0.575028 0.58914,-0.613834 z"
       fill="#4a1e22"
       id="path34"
       style="stroke-width:0.352778" />
    <path
       d="m 126.47141,23.325009 c 0.11289,0.09172 0.0988,0.306917 0.0564,0.437444 a 0.60325004,0.60325004 0 0 1 -0.59972,0.391584 c -0.12348,0 -0.35278,-0.07408 -0.39864,-0.250472 -0.0459,-0.176389 0.15875,-0.381 0.22225,-0.437445 a 0.75141671,0.75141671 0 0 1 0.50094,-0.179917 c 0.0988,-0.0035 0.16581,-0.0071 0.21872,0.03881 z"
       fill="#0c1323"
       id="path36"
       style="stroke-width:0.352778" />
    <path
       d="m 126.00222,23.420259 c 0.0847,0 0.17639,0.08819 0.18697,0.194028 0.0106,0.105833 -0.06,0.225778 -0.15522,0.232833 a 0.19402779,0.19402779 0 0 1 -0.16933,-0.144639 c -0.0353,-0.116416 0.0353,-0.271639 0.13758,-0.282222 z"
       fill="#7c7776"
       id="path38"
       style="stroke-width:0.352778" />
    <path
       d="m 89.853078,98.819458 a 15.03539,15.03539 0 0 0 6.120695,2.988032 c 0.881944,0.20108 6.240637,1.33702 11.179527,-1.63689 0.56797,-0.352781 0.21872,-0.186975 6.477,-6.050142 2.63525,-2.469445 3.9617,-3.707695 4.48381,-4.1275 2.93864,-2.363612 4.0393,-2.631723 5.56683,-4.695473 0.77964,-1.058333 0.66322,-1.210028 2.17311,-3.418417 1.44992,-2.116667 1.76389,-2.286 2.3107,-3.414889 a 9.0522783,9.0522783 0 0 0 1.016,-4.483806 c -0.16581,-2.677583 -1.76389,-4.716639 -1.9685,-4.624917 -0.20461,0.09172 1.31233,2.25425 1.35819,5.266973 0.0529,3.203222 -1.57339,5.644445 -3.51014,8.466667 -2.28953,3.337278 -3.1115,3.175 -6.5405,7.623528 -1.92264,2.497667 -1.73919,2.642306 -3.80294,5.266973 -2.61056,3.316111 -3.91584,4.974163 -5.842,6.120693 -3.09034,1.83445 -6.19831,1.76389 -7.46831,1.70745 -6.642805,-0.26459 -11.585222,-4.931837 -11.553472,-4.988282 z"
       fill="#b7cbce"
       id="path40"
       style="stroke-width:0.352778" />
    <path
       d="m 90.8973,89.460263 0.250473,0.07056 c -0.186973,0.292805 -0.402167,0.275166 -0.144639,0.398639 -0.105834,-0.458612 0.814917,-0.313973 0.680861,-0.779639 l 0.169333,0.04233 c -0.03881,0 -0.03528,0.04233 -0.07761,0.04939 0.352778,0.116417 0.07056,-0.398639 0.423334,-0.462139 0.127,0 0.232833,0 0.179916,0.102306 l 0.204611,-0.22225 c 0.07761,-0.02469 0.09172,0.05997 0,0.08467 0.123473,-0.07055 0.250473,-0.134055 0.352778,-0.208139 v 0 a 1.763889,1.763889 0 0 1 0.130528,-0.331611 c 0.123472,0 -0.0247,0.07056 0.02469,0.112889 l 0.155223,-0.204611 c 0.141111,0.06703 0.02469,0.261056 -0.130528,0.313972 0.409222,0.335139 0.119944,-0.186972 0.663222,-0.15875 l -0.169333,0.155222 c 0.254,0.172862 0.352778,0 0.66675,0.03528 -0.09525,-0.04233 -0.649111,-0.137583 -0.479778,-0.352778 A 0.26105557,0.26105557 0 0 0 94.03702,87.92216 c 0.08467,0.148167 0.179917,0.04586 0.3175,-0.04586 l 0.105833,0.201083 c 0.123472,-0.144639 0.05292,-0.236361 0.08819,-0.377472 0.183444,-0.08467 0.310444,0.04233 0.426861,0.141111 0.292805,-0.134056 -0.352778,-0.123472 -0.03528,-0.352778 0.268111,-0.07055 0.377472,-0.246944 0.560917,-0.532694 0.197555,-0.03881 0.05292,0.130528 0.141111,0.148166 l 0.03528,-0.239888 c 0.03528,-0.02117 0.05644,0.03175 0.06703,0.05997 0.07408,-0.134056 -0.119944,-0.194028 0.02117,-0.352778 -0.09878,-0.236361 0.5715,0.04233 0.617361,-0.352778 0.09172,0 0.05645,0.130528 0.127,0.1905 a 1.9014723,1.9014723 0 0 0 0.254,-0.673805 l 0.289278,-0.04233 c -0.250472,-0.01764 -0.186972,-0.321028 -0.130528,-0.575028 a 1.9296946,1.9296946 0 0 0 -0.239889,-0.04939 l 0.176389,-0.299862 c 0.05292,0 0.07761,0.08467 0.09525,0.194028 a 0.78669449,0.78669449 0 0 0 0,-0.08114 c 0.141111,0 0.176389,0.130528 0.1905,0.282223 l -0.179916,-0.03528 a 0.74788894,0.74788894 0 0 0 0.155222,0.416278 0.21166668,0.21166668 0 0 1 0.04586,-0.112889 c 0,0.04233 0,0.07761 0.03881,0.08819 0.03881,0.01058 0,-0.04939 0.02469,-0.127 l 0.215194,0.148167 -0.04586,-0.09172 0.437445,-0.151695 c 0.07408,-0.395111 0.03881,-0.850194 0.352778,-1.248833 0.03175,0.218722 0.179916,0.243416 0.3175,0.41275 -0.254,-0.0882 -0.218723,0.324555 -0.448028,0.455083 0.119944,-0.06703 0.162278,0.03175 0.162278,0.07761 l 0.204611,-0.455083 c 0.109361,0.141111 0.162277,0.0388 0.299861,0 -0.299861,-0.208139 0.09878,-0.402167 0.162278,-0.60325 0.08819,0.07761 0.137583,0.197555 -0.04939,0.328083 0.352778,0.03175 -0.03881,-0.522111 0.292805,-0.518583 -0.0388,0.03881 -0.07408,0.04586 -0.04939,0.105833 0.0247,-0.165805 0.310445,-0.310444 0.328084,-0.186972 l -0.03881,0.0388 c 0.296334,-0.211666 0.811385,-0.747888 0.645585,-1.001888 a 3.1185558,3.1185558 0 0 1 0.23989,0.352777 l -0.22225,-1.178278 c 0.13405,0.225778 0.70555,0.522112 0.59619,0.836084 a 0.3845278,0.3845278 0 0 0 0.28222,-0.232834 c -0.067,0 -0.35278,-0.172861 -0.32103,-0.243416 0.35278,0.05644 0.2152,0 0.58209,0 -0.10231,0.02117 -0.31045,-0.352778 -0.20109,-0.426861 0.0282,0.05997 0.28575,0.282222 0.27517,0.352777 l -0.0212,-0.525638 c 0,0.109361 0.21873,0.254 0.35278,0.282222 -0.0776,-0.03175 0.22225,-0.201084 0.26106,-0.292806 l -0.16934,0.03528 c 0.32456,-0.22225 -0.10583,-0.670278 0.1905,-0.92075 0.0247,0.09172 0.26459,0.448028 0.44098,0.352778 -0.0741,-0.208139 -0.381,-0.98425 -0.23284,-1.3335 l 0.127,0.0388 0.10231,-0.275166 a 7.8740005,7.8740005 0 0 1 0.17992,1.471083 c 0.1658,-0.03175 0.12347,0.07408 0.27163,-0.08114 0.13053,0.02469 0.0282,0.197556 0,0.246945 l 0.41628,-0.289278 c -0.17991,-0.162278 0.11995,-0.437445 -0.0282,-0.567973 l -0.23283,0.550334 a 0.7055556,0.7055556 0 0 1 0.067,-0.92075 c 0.13053,0 0.23284,0.352778 0.29281,0.409222 -0.0212,-0.09172 0.14464,-0.352778 0.20814,-0.321028 l -0.0247,0.194028 c 0.20462,-0.06703 0.0282,-0.448028 0.35278,-0.440972 0.0706,-0.04586 0.38453,0.06703 0.30339,-0.04939 a 2.6458335,2.6458335 0 0 1 -0.92428,-0.931334 2.5505835,2.5505835 0 0 1 0.66323,-0.05997 c 0.23988,0.07056 0.17638,0.515056 0.38452,0.578556 a 0.3210278,0.3210278 0 0 1 -0.0282,-0.201083 c 0.10231,0 0.10231,0.172861 0.22578,0.02822 -0.13406,-0.201084 0.30339,-0.232834 -0.0635,-0.211667 0.0952,-0.169333 0.17992,-0.08819 0.35278,-0.236361 -0.1517,-0.07408 -0.18698,-0.529167 -0.0882,-0.705556 a 0.3527778,0.3527778 0 0 0 0.1517,0.105834 c 0.31044,-0.22225 0.53622,-0.268111 0.81844,-0.479778 0.06,0.02469 0.23636,-0.02117 0.24342,0.102305 0,-0.0635 0,-0.155222 0.0847,-0.225777 0.29281,0.0388 -0.17286,0.172861 0.10584,0.275166 -0.0741,-0.119944 0.10583,-0.324555 0.17639,-0.486833 -0.16581,-0.148167 -0.31045,0.183444 -0.381,0.352778 a 0.88900006,0.88900006 0 0 1 0.067,-0.98425 c 0.19756,-0.236361 0.2152,0.07761 0.23284,0 0.47978,-0.28575 0.0847,-0.705556 0.59266,-0.79375 0.26106,0.04939 0.22225,0.306916 0.33162,0.395111 -0.15523,0.194028 -0.35278,0.112889 -0.50095,0.211666 l 0.2152,-0.04233 c -0.0247,0.09525 -0.13053,0.225778 -0.23284,0.232833 0.22225,0.04939 0.7867,-0.511527 1.2312,-0.610305 0.0282,-0.09525 0.1023,-0.22225 0,-0.254 l -0.0988,0.09878 c -0.18697,-0.05997 0.0988,-0.3175 -0.0847,-0.28575 0.0917,-0.1905 0.17639,-0.4445 0.4445,-0.508 l 0.15522,0.15875 c -0.0388,-0.05292 -0.21166,-0.02117 -0.23636,0.07408 0.0388,-0.137583 0.48684,0.0388 0.43745,-0.264583 l -0.23284,-0.03175 c 0.0988,-0.1905 0.17639,-0.504473 0.41275,-0.564445 -0.20108,-0.130528 -0.0353,0.04586 -0.30338,-0.08114 0.28222,0.186972 -0.51506,0.296334 -0.14817,0.455084 -0.29633,-0.155223 -0.31045,0.05292 -0.63147,-0.03881 0.0459,0.05644 0.14111,0.07408 -0.0423,0.148167 a 0.25400002,0.25400002 0 0 1 0,0.07408 v 0 c 0,0 0,0 0,0 a 0.25752779,0.25752779 0 0 1 0.14464,0.03528 c 0,0.1905 -0.254,0.352778 -0.2928,0.483305 -0.11289,0.03528 0,-0.09525 -0.0988,-0.123472 l -0.06,0.1905 c -0.0988,-0.123472 -0.40217,-0.04939 -0.22578,-0.275167 l -0.20814,0.130528 a 0.50094448,0.50094448 0 0 0 -0.41628,0.218723 c -0.11641,0.03881 -0.13758,0.310444 -0.127,0.151694 l -0.254,0.303389 -0.0282,-0.02822 c -0.32103,0.204611 -0.46567,0.670277 -0.98425,0.705555 a 0.85372228,0.85372228 0 0 1 -0.35278,0.328084 l -0.11994,-0.08114 c -0.0988,0.137583 -0.4692,0.201083 -0.43392,0.352778 -0.37394,-0.172862 -0.66322,0.451555 -0.92075,0.589138 l 0.11289,0.144639 a 1.859139,1.859139 0 0 0 -0.39864,0.500945 l 0.11642,0.105833 c -0.0706,0.236361 -0.47625,0.278695 -0.70556,0.515056 -0.0247,-0.05997 0.0494,-0.105834 0.11642,-0.116417 -0.5327,0 -0.43392,0.754945 -0.87136,0.807861 a 0.17286112,0.17286112 0 0 1 -0.15875,0.144639 0.02116667,0.02116667 0 0 0 0,-0.02117 l -0.0282,0.02469 a 1.1782779,1.1782779 0 0 0 -0.14817,0.02469 0.49036114,0.49036114 0 0 0 0.13405,0 0.9454445,0.9454445 0 0 0 -0.15522,0.232834 l -0.14816,-0.09172 v 0.01764 c -0.11642,0.0247 0,0.112889 0.12347,0.169334 a 0.56797226,0.56797226 0 0 0 -0.0282,0.169333 c -0.24695,-0.144639 -0.13053,0.250472 -0.40923,0.112889 0.0459,0.151694 -0.29633,0.426861 -0.13052,0.684389 -0.0282,-0.02822 -0.0635,-0.02117 -0.0247,-0.05997 -0.10583,0.05292 -0.21167,0.105833 -0.22578,0.236361 l -0.18344,-0.123472 0.0212,0.381 c -0.201086,0 -0.299864,0 -0.303391,-0.229306 -0.08467,0.430389 -0.144639,0.268111 -0.194028,0.659694 l -0.08467,-0.109361 c -0.07761,0.07761 -0.07761,0.331612 -0.204611,0.292806 -0.352778,-0.02822 -0.906639,0.790222 -1.538111,1.008944 0.352778,0.232834 -0.352778,0.04939 -0.148167,0.306917 -0.09172,-0.04939 -0.1905,-0.03528 -0.169333,-0.165805 -0.176389,0.278694 -0.458611,0.186972 -0.451556,0.532694 -0.09172,-0.05292 -0.0388,-0.151694 -0.102305,-0.176389 0,0.03175 -0.02117,0.130528 -0.08467,0.105833 -0.0635,-0.02469 0,-0.09172 0,-0.15875 -0.236361,0.215195 -0.07408,0.469195 0.08467,0.705556 -0.208139,0 -0.261056,0.0635 -0.239889,0.282222 -0.09878,-0.03881 -0.232834,-0.05292 -0.09878,-0.204611 -0.09525,0.05997 -0.620889,0.3175 -0.493889,0.500945 -0.0635,-0.02469 -0.137583,0.08114 -0.144639,0.119944 a 3.3231669,3.3231669 0 0 0 -0.430389,0.296333 h 0.07761 c 0.08114,0.278695 -0.130527,0.172862 -0.275166,0.310445 v -0.0247 c -0.490362,0.09525 -0.109361,0.194028 -0.610306,0.254001 l 0.112889,0.130527 c 0.15875,0.324556 -0.451556,0.03881 -0.599722,0.289278 l 0.130527,0.03175 c -0.05997,0.179917 -0.596194,-0.211667 -0.737305,-0.186972 -0.04233,0 0,-0.06703 0.0388,-0.109361 -0.423333,0 0.07056,0.215194 -0.141111,0.395111 -0.102305,-0.07761 -0.09525,-0.296333 -0.264583,-0.225778 -0.119945,-0.0388 -0.282222,0.596195 -0.613833,0.504472 0.09172,0.05645 0.183444,0.116417 0.09878,0.232834 -0.165805,0.119944 -0.620889,-0.08467 -0.663222,0.246944 a 0.10936112,0.10936112 0 0 1 -0.0635,-0.05292 c -0.102305,0.134056 -0.395111,0.299862 -0.423333,0.479778 -0.169334,-0.243416 -0.352778,-0.09878 -0.536223,0.04233 -0.183444,0.141111 -0.352777,0.282222 -0.419805,0.02469 -0.141111,0.04939 -0.282222,0.109361 -0.426861,0.155222 v -0.05644 a 0.47272225,0.47272225 0 0 0 -0.426861,0.352778 c -0.07408,-0.02469 -0.03881,-0.08467 -0.03881,-0.112889 -0.440972,-0.01764 -0.465667,0 -0.779639,0.335139 l -0.0635,-0.169334 c -0.08467,0.119945 -0.635,-0.183444 -1.030111,0.03881 a 0.13758334,0.13758334 0 0 1 0.04233,-0.08467 c -0.225778,0.123472 -0.511528,0 -0.751416,-0.05644 -0.239889,-0.05645 -0.433917,-0.09172 -0.536223,0.225778 L 86.24065,88.72999 c 0.405695,0.07761 -0.07761,0.271639 0.08467,0.388056 -0.169333,0.02469 -0.409222,-0.218723 -0.204611,-0.239889 l 0.02822,0.03528 C 86.244161,88.59243 85.651495,88.747652 85.6903,88.521874 84.900078,88.444263 84.187467,88.095013 83.503078,87.86218 v 0.271639 q -0.123472,-0.04233 -0.243417,-0.09525 c -0.04233,-0.08114 0,-0.22225 0.148167,-0.151695 -0.04233,-0.169333 -0.328084,0 -0.352778,0.06703 -0.303389,-0.218722 0.232833,-0.236361 0.130528,-0.278695 l -0.144639,-0.03175 0.02117,0.03881 c -0.148167,0.05997 -0.197556,0.15875 -0.398639,0.0635 -0.109362,-0.09878 0,-0.172861 -0.05292,-0.201083 -0.05292,-0.02822 0,-0.03175 -0.07408,-0.03881 -0.07408,-0.0071 -0.1905,-0.09878 -0.282223,-0.148167 l 0.03175,0.236362 c -0.172861,0.03175 -0.275166,-0.134056 -0.232833,0.137583 -0.0635,-0.395111 -1.026583,-0.670278 -1.090083,-0.843139 a 0.83961116,0.83961116 0 0 1 -0.613834,-0.243417 c 0.02469,0.07056 -0.07055,0.282223 -0.236361,0.134056 0.352778,-0.352778 -0.208139,-0.391583 -0.134055,-0.772584 -0.01764,0.275167 -0.508,-0.328083 -0.518584,0.07056 -0.116416,-0.144639 0.102306,-0.144639 0.07056,-0.3175 -0.451556,-0.127 -0.613834,-0.705556 -1.016,-1.023056 -0.05292,0.03528 -0.05997,0.165806 -0.204611,0.148167 l 0.04233,-0.41275 c -0.09172,-0.05644 -0.352778,0.169333 -0.296333,-0.116417 -0.02117,0.05644 -0.05292,0.137584 -0.112889,0.09878 a 6.7733338,6.7733338 0 0 0 -0.913695,-1.280583 2.3001113,2.3001113 0 0 1 -0.5715,-1.474611 c -0.04233,0.179916 -0.09525,0.102305 -0.151694,0 0,0.07408 -0.137584,0.06703 -0.204611,0.116416 0,-0.165805 0,-0.331611 0,-0.493889 -0.250473,0.02822 -0.201084,-0.419805 -0.426862,-0.373944 l 0.09525,0.112889 c -0.3175,-0.07056 -0.433916,0.479778 -0.751416,0.596194 0.352777,0.06703 -0.148167,0.73025 0.41275,0.85725 -0.02117,0.102306 -0.127,0 -0.176389,0.0635 0.172861,0 0.246944,0.09878 0.296333,0.310445 h -0.03881 a 3.6159724,3.6159724 0 0 1 0.331611,0.642055 5.0764725,5.0764725 0 0 0 0.313972,0.73025 l 0.105833,-0.137583 a 0.47625003,0.47625003 0 0 1 0.04586,0.264583 c 0.299862,-0.02117 -0.218722,-0.331611 0.09172,-0.377472 -0.172861,0.352778 0.596194,0.790222 0.384527,1.132417 0.141112,0.169333 0.105834,-0.176389 0.246945,0 l -0.04233,0.112889 0.137583,-0.04586 a 0.26811113,0.26811113 0 0 1 -0.03175,0.324555 c 0,-0.03175 -0.08467,-0.05644 -0.116417,-0.08114 0.03528,0.22225 0.388056,0.352778 0.405695,0.437445 L 77.27655,85.653791 c 0.479777,0.352777 0.927805,0.977194 1.516944,1.178278 v -0.09172 c 0.433917,0.15875 0.22225,0.289278 0.649111,0.522111 h -0.02469 a 0.50094448,0.50094448 0 0 1 0.352778,0.112889 c -0.151695,0 0.08819,0.278695 -0.09878,0.275167 0.490361,0.130528 0.268111,0.02469 0.687917,-0.05644 v 0.151694 a 0.43744447,0.43744447 0 0 1 0.41275,0 c -0.225778,0 0.03175,0.250472 -0.232834,0.271639 a 0.59619448,0.59619448 0 0 0 0.518584,0.296333 c 0.162277,0.02117 0.282222,0.04233 0.299861,0.278695 0.352778,-0.22225 -0.306917,-0.373945 -0.155222,-0.388056 -0.03881,-0.155222 0.289277,-0.151694 0.41275,-0.05644 0.123472,0.09525 0.04939,0.53975 0.433916,0.705555 -0.0388,0 -0.04939,0 -0.08819,0 0.109361,0.141111 0.324555,0 0.448028,0.204611 0.172861,-0.169333 0.225777,0.09525 0.352777,-0.15875 -0.119944,-0.02117 -0.246944,-0.0388 -0.370416,-0.06703 0.225777,0 0.515055,-0.236361 0.786694,0.02117 a 0.5291667,0.5291667 0 0 1 -0.243416,0.09878 c 0.07055,0.116417 0.201083,0 0.278694,0.119945 -0.116417,0.264583 -0.448028,-0.08114 -0.737306,0.04233 0.06703,0.148167 0.47625,-0.04586 0.271639,0.201083 0.275167,-0.306916 0.373945,0.172861 0.705556,-0.02822 l -0.0635,0.155222 a 0.45155558,0.45155558 0 0 1 0.236361,-0.0388 l -0.201083,0.169333 c 0.268111,-0.116417 0.388055,0.268111 0.627944,0.22225 -0.448028,-0.105833 -0.05644,-0.218722 -0.211667,-0.384528 0.585612,-0.08467 0.211667,0.500945 0.857251,0.550334 -0.09172,0 -0.299862,-0.162278 -0.155223,-0.211667 a 0.90311117,0.90311117 0 0 1 0.3175,0.246944 c 0.419806,0.03175 -0.03528,-0.179916 0.155223,-0.254 0.109361,0.22225 0.215194,-0.04586 0.398638,-0.09172 v 0.169334 c 0.458612,0.15875 0.162278,-0.335139 0.564445,-0.165806 -0.0635,0.07761 -0.130528,0.148167 -0.197556,0.218722 l 0.225778,-0.0388 -0.05997,0.186972 a 0.57150004,0.57150004 0 0 1 0.557389,0 0.2398889,0.2398889 0 0 1 0.250472,-0.306917 c 0.141111,0.102306 -0.08114,0.15875 0.211667,0.141111 -0.06703,0.105834 -0.144639,0.236361 -0.268111,0.07761 0,0.05292 -0.07056,0.105834 -0.08819,0.15875 0.155222,0.119945 0.395111,0.03881 0.500945,0.03528 a 0.20108335,0.20108335 0 0 1 -0.116417,-0.04233 c 0.144639,-0.07408 0.289278,-0.15875 0.430389,-0.239889 0.06703,0.05997 0,0.112889 -0.03528,0.165806 0.08467,-0.02117 0.144639,-0.09878 0.271639,-0.119945 -0.02822,0.141111 0,0.282222 -0.197556,0.352778 0.137584,-0.05292 0.275167,-0.109361 0.41275,-0.172861 0.02822,0.05997 0.222251,0.151694 0.172862,0.204611 0.243416,0.07055 0.543277,-0.321028 0.85725,-0.250472 a 0.20108335,0.20108335 0 0 1 0.102305,-0.08819 c 0.28575,0 0.575028,0.112889 0.867834,-0.148166 l 0.246944,0.201083 c 0.246945,-0.119945 -0.324556,-0.239889 0.08114,-0.440972 0.278694,-0.151695 0.165806,0.176389 0.289278,0.218722 0.123472,-0.15875 0.303389,-0.483306 0.635,-0.373945 -0.07056,0.03881 -0.155222,0.02469 -0.232834,0.06703 z m 2.924528,-1.337028 c -0.0388,0.05997 -0.09525,0.215195 -0.183444,0.144639 -0.02822,-0.215194 0.0635,-0.144639 0.183444,-0.144639 z m 3.690056,-3.026833 c 0,0.07055 -0.07055,0.09172 -0.169333,0.09172 a 0.23636113,0.23636113 0 0 1 0.169333,-0.102306 z m 9.073446,-9.440334 v 0 c -0.1517,0.02117 -0.0952,0.01764 0,-0.01058 z m 0.27164,-0.09878 a 0.04938889,0.04938889 0 0 0 -0.0282,-0.06703 c 0,0.04586 -0.0423,0.08467 -0.10584,0.116417 0.0388,0.01411 0.0882,0.01764 0.13406,-0.05997 z m -24.316976,12.001501 0.02822,0.05997 c -0.123473,0.0035 -0.07761,-0.02469 -0.02822,-0.05997 z"
       fill="#9ca4a8"
       id="path156"
       style="stroke-width:0.352778" />
    <path
       d="m 95.434023,92.420069 0.15875,0.141111 c -0.1905,0.225778 -0.328083,0.144639 -0.179917,0.352778 0.02117,-0.479778 0.610306,-0.04586 0.635,-0.525639 l 0.102306,0.102305 c -0.02822,0 -0.03175,0.02117 -0.0635,0 0.201083,0.229306 0.151694,-0.352777 0.41275,-0.275166 0.09172,0.03528 0.155222,0.105833 0.09172,0.162278 l 0.201083,-0.119945 a 0.042335,0.042335 0 1 1 0,0.08467 l 0.310445,-0.03881 v 0 a 1.7356668,1.7356668 0 0 1 0.194028,-0.239889 c 0.07761,0.07056 -0.03881,0.05292 -0.02117,0.112889 l 0.172861,-0.116416 c 0.07056,0.123472 -0.07408,0.243416 -0.1905,0.225777 0.15875,0.479778 0.141111,-0.119944 0.486834,0.162278 l -0.162278,0.05997 c 0.102305,0.271639 0.229305,0.172861 0.41275,0.352778 -0.04586,-0.08819 -0.352778,-0.426861 -0.179917,-0.546805 0.05292,0.03528 0.119945,0.05292 0.22225,-0.04233 0,0.169334 0.09878,0.127 0.22225,0.119945 v 0.225777 c 0.134056,-0.06703 0.123472,-0.179916 0.201083,-0.282222 0.148167,0.02117 0.179917,0.197556 0.215195,0.352778 0.239889,0.03528 -0.165806,-0.278694 0.116417,-0.321028 0.197555,0.08467 0.352777,0 0.575027,-0.144639 0.137584,0.07408 -0.02469,0.137584 0.02822,0.201084 l 0.119944,-0.183445 c 0.03175,0 0.02117,0.05997 0.01764,0.08819 0.102306,-0.07056 0,-0.225778 0.165806,-0.289278 0.0388,-0.246945 0.35277,0.352778 0.53975,0.07055 0.0494,0.05997 -0.0212,0.137584 0,0.225778 a 1.5522223,1.5522223 0 0 0 0.45508,-0.402166 l 0.19756,0.141111 c -0.14817,-0.162278 0.0247,-0.370417 0.17286,-0.543278 a 1.763889,1.763889 0 0 0 -0.13053,-0.183445 l 0.24342,-0.134055 c 0.0318,0.03528 0,0.116417 -0.0247,0.211667 a 0.46919447,0.46919447 0 0 0 0.0423,-0.05644 c 0.0953,0.07761 0.0564,0.211667 0,0.352778 l -0.0988,-0.134056 a 0.91016672,0.91016672 0 0 0 -0.0882,0.426861 0.18697223,0.18697223 0 0 1 0.0811,-0.0635 0.13052779,0.13052779 0 0 0 0,0.09172 c 0,0.02469 0.0353,-0.02822 0.0741,-0.08819 l 0.0706,0.250472 v -0.102305 l 0.35278,0.137583 c 0.22578,-0.268111 0.40216,-0.656166 0.762,-0.797278 -0.0741,0.194028 0,0.303389 0.0282,0.522112 -0.127,-0.22225 -0.28575,0.123472 -0.48683,0.09525 0.1023,0 0.0882,0.119944 0.067,0.15875 l 0.33162,-0.239889 c 0,0.179916 0.0882,0.123472 0.1905,0.1905 -0.10584,-0.352778 0.23636,-0.261056 0.35277,-0.388056 0.0212,0.116417 0,0.239889 -0.17639,0.232833 0.22578,0.239889 0.20109,-0.437444 0.41628,-0.243416 -0.0423,0 -0.067,0 -0.0776,0.05997 0.0847,-0.119944 0.35278,-0.07408 0.29633,0.03528 h -0.0423 c 0.28928,0 0.86431,-0.127 0.84667,-0.437445 a 3.1750002,3.1750002 0 0 1 0.0212,0.423334 q 0.16581,-0.546806 0.29634,-1.090084 c 0,0.264584 0.30339,0.829028 0.1023,1.019528 a 0.25752779,0.25752779 0 0 0 0.28928,-0.07055 c -0.0564,-0.02822 -0.19403,-0.352778 -0.13758,-0.377473 0.23283,0.243417 0.15169,0.130528 0.41628,0.3175 -0.0811,-0.03528 -0.0952,-0.448028 0,-0.462139 0,0.0635 0.1023,0.384528 0.0705,0.437445 l 0.16933,-0.455084 c -0.0459,0.08819 0.0706,0.331612 0.15875,0.423334 -0.0459,-0.06703 0.23284,-0.05292 0.29281,-0.105833 l -0.13406,-0.0635 c 0.3175,-0.01764 0.14817,-0.606778 0.43745,-0.677334 0,0.08819 0.0529,0.511528 0.21872,0.511528 0,-0.215195 0,-1.026583 0.20461,-1.248833 l 0.0847,0.09525 c 0.0494,-0.05997 0.0953,-0.127 0.14464,-0.1905 a 5.5103892,5.5103892 0 0 1 -0.27164,1.344083 c 0.13758,0.05644 0.0741,0.123472 0.23636,0.05997 0.0917,0.08819 -0.0423,0.186972 -0.0882,0.208139 l 0.41275,-0.05292 c -0.0882,-0.218722 0.21872,-0.331611 0.14111,-0.511527 -0.10936,0.130527 -0.22225,0.254 -0.35278,0.373944 -0.0847,-0.218722 0.0353,-0.705556 0.30692,-0.772583 0.0988,0.0635 0.0917,0.416277 0.12347,0.490361 0,-0.09172 0.20108,-0.239889 0.24694,-0.194028 l -0.0705,0.15875 c 0.17991,0.02822 0.13405,-0.384528 0.39511,-0.236361 0.067,0 0.29633,0.211667 0.254,0.07761 a 3.3337502,3.3337502 0 0 1 -0.5327,-1.199444 2.3600835,2.3600835 0 0 1 0.51859,0.208138 c 0.18344,0.155223 0.0494,0.529167 0.20108,0.663223 a 0.3527778,0.3527778 0 0 1 0,-0.194028 c 0.0847,0.02469 0.0494,0.197555 0.17639,0.112889 -0.0706,-0.232834 0.28928,-0.09878 0,-0.215195 0.10936,-0.119944 0.16228,0 0.3175,-0.09172 a 0.74788894,0.74788894 0 0 1 0.0212,-0.670278 0.3527778,0.3527778 0 0 0 0.10936,0.144639 c 0.27164,-0.109361 0.46566,-0.07761 0.70555,-0.197555 0.0494,0.0388 0.19756,0.0388 0.19756,0.155222 0,-0.05644 0,-0.144639 0.0811,-0.1905 0.24341,0.102305 -0.1517,0.119944 0.0741,0.278694 -0.0529,-0.127 0.10583,-0.275166 0.17286,-0.409222 -0.13758,-0.172861 -0.26458,0.09525 -0.33514,0.232833 a 0.90311117,0.90311117 0 0 1 0.0811,-0.892527 c 0.15875,-0.172862 0.17639,0.119944 0.1905,0.0635 0.39511,-0.15875 0.0423,-0.627945 0.44803,-0.620889 0.21872,0.09172 0.20461,0.3175 0.30339,0.419805 -0.12347,0.15875 -0.30339,0.04586 -0.4057,0.116417 h 0.17639 c -0.0176,0.08467 -0.0988,0.1905 -0.18344,0.179917 0.18344,0.08114 0.63147,-0.352778 0.99483,-0.395112 0,-0.08467 0.06,-0.197555 -0.0212,-0.232833 l -0.0706,0.08114 c -0.16228,-0.07761 0.0423,-0.289278 -0.10583,-0.275167 0.0564,-0.165805 0.0847,-0.391583 0.2928,-0.426861 l 0.15522,0.155222 c -0.0423,-0.04939 -0.17991,-0.03528 -0.18697,0.04939 0,-0.123472 0.41275,0.07408 0.32456,-0.208139 l -0.20109,-0.04586 c 0.0529,-0.165805 0.0529,-0.448028 0.22225,-0.497416 -0.18697,-0.123473 0,0.04586 -0.25752,-0.08467 0.26811,0.194028 -0.35278,0.236361 -0.0282,0.405694 -0.26811,-0.169333 -0.24694,0 -0.51505,-0.09525 0.0423,0.05645 0.12347,0.08114 0,0.130528 a 0.24341668,0.24341668 0 0 1 0,0.07056 v 0 c 0,0 0,0 0,0 a 0.22930557,0.22930557 0 0 1 0.11994,0.04939 c 0.0353,0.176388 -0.15522,0.299861 -0.16933,0.41275 -0.0917,0.01764 0,-0.08819 -0.0952,-0.127 l -0.0282,0.165805 c -0.0953,-0.127 -0.33161,-0.105833 -0.2152,-0.28575 l -0.15169,0.08467 a 0.27869446,0.27869446 0 0 0 -0.31397,0.123472 c -0.0882,0 -0.0882,0.261056 -0.0917,0.116417 a 2.8857224,2.8857224 0 0 1 -0.18697,0.225778 l -0.0212,-0.03528 c -0.24694,0.112889 -0.37041,0.504472 -0.77963,0.395111 a 0.4162778,0.4162778 0 0 1 -0.28575,0.186972 l -0.0882,-0.109361 c -0.0847,0.09525 -0.37394,0.02822 -0.35278,0.179917 -0.26105,-0.275167 -0.55033,0.148166 -0.76552,0.172861 l 0.06,0.165805 a 1.255889,1.255889 0 0 0 -0.381,0.278695 l 0.067,0.141111 c -0.0988,0.176389 -0.40923,0.03175 -0.63148,0.130528 0,-0.0635 0.0564,-0.07056 0.11289,-0.04939 -0.38453,-0.236361 -0.50094,0.440972 -0.83255,0.271639 a 0.10583334,0.10583334 0 0 1 -0.1517,0.04586 v 0 h -0.0282 l -0.10936,-0.05644 a 0.27516668,0.27516668 0 0 0 0.0952,0.05997 0.59972226,0.59972226 0 0 0 -0.17639,0.119944 l -0.0741,-0.155222 v 0 c -0.0882,-0.04233 -0.0353,0.09172 0.0388,0.204611 a 0.33161113,0.33161113 0 0 0 -0.0705,0.123472 c -0.13053,-0.250472 -0.16934,0.137584 -0.32456,-0.123472 0,0.148167 -0.35278,0.197556 -0.31044,0.497417 0,-0.03528 -0.0388,-0.04939 0,-0.05997 -0.0917,0 -0.17992,-0.02822 -0.23989,0.07056 l -0.0811,-0.204611 -0.11995,0.321028 c -0.13758,-0.105834 -0.19755,-0.172861 -0.12347,-0.352778 -0.21166,0.303389 -0.19403,0.137583 -0.35278,0.430389 v -0.137584 c -0.0776,0.02117 -0.17638,0.229306 -0.24694,0.119945 -0.22225,-0.236361 -0.90311,0.109361 -1.41111,-0.09525 0.13053,0.398639 -0.23636,-0.162278 -0.22225,0.155222 -0.0388,-0.09525 -0.10583,-0.144639 -0.0388,-0.232833 -0.2293,0.116416 -0.35277,-0.127 -0.51505,0.155222 -0.0353,-0.09525 0.0423,-0.144639 0,-0.201083 0,0.02117 -0.0706,0.08819 -0.0988,0.03175 -0.0282,-0.05645 0.0282,-0.08467 0.0635,-0.127 -0.24342,0.03175 -0.25047,0.331611 -0.25047,0.613833 -0.13406,-0.127 -0.19403,-0.105833 -0.2787,0.08467 -0.0459,-0.09172 -0.12347,-0.183445 0.0282,-0.22225 -0.0882,0 -0.5327,-0.112889 -0.53623,0.112889 -0.0282,-0.05644 -0.11994,0 -0.14464,0 a 1.7356668,1.7356668 0 0 0 -0.405687,0 l 0.05644,0.03528 c -0.07055,0.275167 -0.15875,0.0635 -0.313972,0.102306 v -0.02822 c -0.352778,-0.194028 -0.151694,0.09525 -0.508,-0.127 l 0.02117,0.169333 c -0.02822,0.352778 -0.313972,-0.211667 -0.518584,-0.07056 l 0.07408,0.09525 c -0.109361,0.127001 -0.310445,-0.493888 -0.423334,-0.53975 -0.02469,-0.03175 0.03881,-0.04939 0.07408,-0.07408 -0.296334,-0.215194 -0.03881,0.22225 -0.257528,0.271639 -0.04233,-0.116417 0.05292,-0.303389 -0.09525,-0.324556 -0.07408,-0.09525 -0.430389,0.388056 -0.631472,0.155223 0.04586,0.09525 0.08819,0.186972 0,0.254 -0.08819,0.06703 -0.423334,-0.352778 -0.564445,-0.05645 a 0.12347223,0.12347223 0 0 1 -0.02822,-0.07408 c -0.119945,0.07408 -0.388056,0.123472 -0.462139,0.278694 -0.109361,-0.582083 -0.744361,0.282223 -0.740833,-0.254 l -0.352778,0.02822 v -0.05644 a 0.3527778,0.3527778 0 0 0 -0.398639,0.22225 c -0.05645,-0.03881 0,-0.08819 0,-0.116417 -0.352778,-0.109361 -0.377472,-0.08467 -0.66675,0.179917 l -0.03175,-0.172861 c -0.07761,0.102306 -0.493889,-0.275167 -0.832556,-0.07408 a 0.14816668,0.14816668 0 0 1 0.03528,-0.07761 c -0.377472,0.204611 -0.906639,-0.486834 -1.058333,0.148166 l -0.250473,0.155222 c 0.324556,0.05292 -0.04939,0.278695 0.08467,0.384528 -0.127,0.03528 -0.328083,-0.194028 -0.172861,-0.225778 l 0.02469,0.03175 c 0.05997,-0.331611 -0.398639,-0.119944 -0.384527,-0.352777 a 8.5760283,8.5760283 0 0 1 -1.742723,-0.303389 l 0.02469,0.264583 -0.1905,-0.04586 c -0.03881,-0.06703 -0.03175,-0.211667 0.09878,-0.176389 -0.04233,-0.155222 -0.243416,0.08114 -0.261055,0.134056 -0.239889,-0.15875 0.162278,-0.275167 0.08114,-0.299861 H 89.44738 v 0.03528 c -0.105834,0.08114 -0.137584,0.1905 -0.296334,0.141111 -0.08819,-0.07761 0,-0.169333 -0.04939,-0.1905 -0.04939,-0.02117 0,-0.02822 -0.05997,-0.02117 l -0.22225,-0.08819 0.03528,0.22225 c -0.134056,0.0635 -0.22225,-0.07761 -0.179917,0.176389 -0.05644,-0.381 -0.843139,-0.426861 -0.906639,-0.578555 a 0.55386115,0.55386115 0 0 1 -0.522111,-0.07761 c 0.02822,0.05997 -0.03175,0.282222 -0.179916,0.1905 0.243416,-0.41275 -0.204612,-0.313973 -0.197556,-0.680862 0.02469,0.257528 -0.472722,-0.144639 -0.419806,0.229306 -0.116416,-0.09525 0.05997,-0.165806 0,-0.313972 -0.388055,0.03528 -0.659694,-0.409223 -1.100666,-0.504473 -0.02822,0.05644 0,0.169334 -0.112889,0.225778 L 85.1188,88.931096 c -0.09525,0 -0.1905,0.313973 -0.275167,0.05644 0,0.05644 0,0.141111 -0.04586,0.144639 A 2.6811113,2.6811113 0 0 0 83.552468,88.72648 2.3424446,2.3424446 0 0 1 82.285995,88.239647 c 0.102306,0.134056 0.02117,0.134056 -0.07055,0.127 0.05644,0.03881 -0.02117,0.151694 0,0.239889 l -0.352778,-0.275167 c -0.08819,0.225778 -0.395111,0 -0.448028,0.201084 l 0.116417,-0.03175 c -0.169333,0.250472 0.165805,0.60325 0.109361,0.938388 0.194028,-0.28575 0.352778,0.479778 0.677333,0.09172 0.04586,0.07761 -0.0635,0.102305 -0.04586,0.183444 a 0.18697223,0.18697223 0 0 1 0.306917,-0.0635 l -0.02117,0.03175 c 0.416278,0.03528 0.564445,0.211667 0.987778,0.41275 v -0.172861 c 0.09172,0.04586 0.09878,0.102306 0.130528,0.155222 0.176389,-0.215194 -0.264583,-0.08467 -0.09878,-0.328083 0.04586,0.352778 0.687917,0.1905 0.659695,0.589139 0.144638,0.04939 0,-0.197556 0.15875,-0.148167 v 0.112889 l 0.08114,-0.116417 a 0.25047224,0.25047224 0 0 1 0.06703,0.275167 c -0.01764,-0.01764 -0.07055,0 -0.09878,0 0.08114,0.155222 0.352778,0.07761 0.384528,0.130528 L 84.71311,90.483311 c 0.423333,0.04586 0.846666,0.352778 1.319389,0.352778 v -0.08467 c 0.352777,0 0.201083,0.183444 0.557389,0.261055 h -0.01764 a 0.31397224,0.31397224 0 0 1 0.28575,0 c -0.119945,0.04939 0.08819,0.232834 -0.05997,0.278695 0.391584,0 0.211667,-0.04233 0.53975,-0.225778 v 0.141111 c 0.116417,-0.07761 0.144639,-0.134055 0.328084,-0.09878 -0.179917,0.04939 0.03528,0.225778 -0.172861,0.303389 0.264583,0.41275 0.635,-0.07408 0.673805,0.381 0.282223,-0.289277 -0.261055,-0.296333 -0.137583,-0.352777 -0.03881,-0.141112 0.225778,-0.211667 0.324556,-0.137584 0.09878,0.07408 0.05997,0.508 0.381,0.582084 -0.03175,0 -0.04233,0 -0.07056,0 0.09525,0.123472 0.257528,-0.05997 0.352778,0.116416 0.130528,-0.194027 0.1905,0.05292 0.268111,-0.215194 h -0.299861 c 0.179916,-0.03528 0.388055,-0.324556 0.624416,-0.127 a 0.50800003,0.50800003 0 0 1 -0.183444,0.144639 c 0.06703,0.09525 0.15875,-0.02822 0.229306,0.06703 -0.06703,0.275166 -0.352778,0 -0.582084,0.172861 0.0635,0.137583 0.377472,-0.130528 0.232834,0.148166 0.194027,-0.352777 0.313972,0.102306 0.5715,-0.162277 l -0.03528,0.165805 c 0.0388,-0.02117 0.119944,-0.09525 0.179917,-0.08114 l -0.137584,0.201084 c 0.197556,-0.162278 0.328084,0.197555 0.508,0.109361 -0.352778,-0.02117 -0.0635,-0.208139 -0.201083,-0.352778 0.440972,-0.1905 0.215194,0.458611 0.705555,0.402167 -0.0635,0.02117 -0.239888,-0.109362 -0.134055,-0.183445 a 0.55738892,0.55738892 0 0 1 0.261055,0.197556 c 0.3175,-0.02822 -0.04233,-0.172861 0.09172,-0.271639 0.102305,0.204611 0.15875,-0.08114 0.292805,-0.144639 v 0.172861 c 0.352778,0.112889 0.09525,-0.352778 0.409223,-0.218722 l -0.134056,0.232833 0.162278,-0.05997 -0.03528,0.194028 c 0.179917,-0.141111 0.232833,-0.105834 0.405694,-0.04939 -0.0388,-0.119945 0.02469,-0.310445 0.176389,-0.313972 0.102306,0.09878 -0.05997,0.162277 0.155223,0.137583 -0.04939,0.105833 -0.102306,0.239889 -0.194028,0.08114 0,0.05644 -0.04939,0.109361 -0.05997,0.162278 0.112888,0.116416 0.282222,0.02822 0.352777,0.02469 a 0.11994445,0.11994445 0 0 1 -0.08467,-0.03881 l 0.313972,-0.232833 c 0.04939,0.0635 0,0.112889 -0.02822,0.162278 0.0635,-0.01764 0.105833,-0.09525 0.201083,-0.109361 -0.02469,0.137583 -0.02117,0.282222 -0.151694,0.352778 l 0.296333,-0.151695 c 0.02117,0.05997 0.155222,0.165806 0.116417,0.215195 0.162277,0.08114 0.405694,-0.268112 0.624416,-0.15875 a 0.11994445,0.11994445 0 0 1 0.08114,-0.07056 c 0.204611,0.03175 0.388056,0.201083 0.631472,0 l 0.137584,0.250472 c 0.1905,-0.05644 -0.186972,-0.313972 0.130528,-0.405694 0.225777,-0.07761 0.08467,0.211666 0.162277,0.278694 0.112889,-0.123472 0.310445,-0.377472 0.515056,-0.172861 -0.03881,0.08819 -0.09172,0.04939 -0.15875,0.06703 z m 2.360083,-0.102306 c -0.04586,0.03528 -0.137583,0.144639 -0.172861,0.04586 0.05292,-0.194027 0.09525,-0.102305 0.172861,-0.04586 z m 3.605394,-0.483305 c -0.0282,0.05644 -0.0847,0.03175 -0.14817,-0.02822 a 0.1446389,0.1446389 0 0 1 0.14817,0.02822 z m 8.98172,-4.0005 v 0 c -0.11642,0.0035 -0.0741,0.01058 0,0 z m 0.21167,-0.04233 a 0.0635,0.0635 0 0 0 -0.0282,-0.06703 c 0,0.04586 -0.0282,0.07056 -0.0776,0.08819 0.0353,0.03175 0.0741,0.04233 0.10584,-0.02117 z m -21.544145,2.779889 0.02822,0.05292 c -0.09878,0.02469 -0.0635,-0.01411 -0.02822,-0.05292 z"
       fill="#9ca4a8"
       id="path318"
       style="stroke-width:0.352778" />
    <path
       d="m 86.177133,85.495041 0.144639,0.02117 c -0.162277,0.07408 -0.289277,0.06703 -0.151694,0.102306 0,-0.116417 0.550333,-0.07761 0.550333,-0.208139 h 0.09525 c -0.02822,0 -0.03175,0 -0.05644,0 0.186972,0.02822 0.116417,-0.105833 0.352778,-0.130528 0.08114,0 0.141111,0 0.08819,0.02469 l 0.169333,-0.07056 c 0.05292,0 0.04586,0 0,0.02469 l 0.264584,-0.07408 v 0 L 87.7858,85.08934 c 0.07408,0 -0.03175,0.02117 0,0.02822 0.03175,0.0071 0.09525,-0.04233 0.141111,-0.0635 0.04586,-0.02117 -0.04586,0.07761 -0.148166,0.09525 0.169333,0.08467 0.112889,-0.05997 0.426861,-0.07761 l -0.134056,0.05644 c 0.105834,0.0388 0.208139,-0.01764 0.377473,-0.02117 -0.04233,0 -0.352778,0 -0.194028,-0.08819 a 0.4162778,0.4162778 0 0 0 0.186972,-0.0635 c 0,0.0388 0.09525,0 0.197556,-0.03175 v 0.05644 c 0.105833,-0.05644 0.08819,-0.07761 0.144638,-0.127 a 0.21166668,0.21166668 0 0 1 0.208139,0.02117 c 0.201084,-0.05997 -0.162277,-0.01764 0.07056,-0.109361 a 1.3440834,1.3440834 0 0 0 0.458611,-0.215195 c 0.119944,-0.02469 0,0.04233 0.03881,0.04233 l 0.08467,-0.08467 c 0.0247,0 0.02117,0 0.02117,0.01764 0.07761,-0.04939 0,-0.05644 0.112889,-0.123472 0,-0.07056 0.303389,-0.03175 0.437444,-0.169334 0.04586,0 0,0.04233 0,0.05644 a 1.6651112,1.6651112 0 0 0 0.331611,-0.257528 l 0.169334,-0.03881 c -0.130528,0 0,-0.09878 0.09525,-0.197555 h -0.116417 l 0.186972,-0.123473 c 0.02822,0 0,0.02117 0,0.05997 l 0.03175,-0.03175 c 0.08114,0 0.05644,0.03175 0.02117,0.08467 h -0.08819 c -0.03528,0.05644 -0.0635,0.112889 -0.03881,0.137584 a 0.1763889,0.1763889 0 0 1 0.05997,-0.04586 c 0,0 0,0.02469 0,0.02822 0,0.0035 0.02469,-0.02117 0.05292,-0.04939 l 0.07408,0.03528 v 0 l 0.275167,-0.09525 a 3.1432502,3.1432502 0 0 1 0.546806,-0.497417 c -0.04939,0.07761 0.02117,0.07408 0.04233,0.123472 -0.102306,0 -0.211667,0.144639 -0.352778,0.211667 0.08114,-0.03528 0.07761,0 0.05997,0 0.08114,-0.0635 0.165806,-0.123472 0.243417,-0.186972 0.01764,0.04233 0.07408,0 0.151694,-0.0247 -0.09525,-0.04939 0.169334,-0.165805 0.264584,-0.246944 0.02117,0.02117 0,0.05997 -0.127,0.130528 0.179916,-0.0247 0.137583,-0.194028 0.306916,-0.229306 -0.03175,0.02117 -0.04939,0.02469 -0.05644,0.04586 0.0635,-0.06703 0.254,-0.155222 0.225778,-0.109361 l -0.03175,0.02117 c 0.215194,-0.112889 0.638528,-0.381 0.627944,-0.465667 a 0.27163891,0.27163891 0 0 1 0.01764,0.112889 l 0.236361,-0.4445 c 0,0.07408 0.208139,0.127 0.05644,0.264583 a 0.58913893,0.58913893 0 0 0 0.211666,-0.137583 c -0.0388,0 -0.134055,-0.0247 -0.09172,-0.05997 a 1.1888612,1.1888612 0 0 0 0.296334,-0.07056 c -0.05644,0.02117 -0.05644,-0.09878 0.02469,-0.148167 0,0.02117 0.05997,0.07761 0.03528,0.105834 l 0.144639,-0.208139 c -0.03881,0.04586 0.03528,0.07408 0.09525,0.07055 -0.03175,0 0.169333,-0.112889 0.215194,-0.155222 l -0.09525,0.03528 c 0.229306,-0.134056 0.141111,-0.261056 0.352778,-0.398639 0,0.03175 0,0.148167 0.119944,0.08114 a 1.2029723,1.2029723 0 0 1 0.257528,-0.515056 h 0.05292 l 0.127,-0.127 a 3.5630558,3.5630558 0 0 1 -0.3175,0.578556 c 0.09172,-0.03528 0.04233,0 0.162278,-0.07056 0.05644,0 -0.04586,0.07761 -0.07761,0.102306 l 0.271639,-0.162278 c -0.04586,-0.04233 0.183445,-0.197555 0.144639,-0.232833 l -0.271639,0.261055 c -0.04586,-0.0388 0.08114,-0.261055 0.289278,-0.388055 0.0635,-0.01764 0.02117,0.112889 0.03528,0.127 a 0.65969449,0.65969449 0 0 1 0.197556,-0.165806 l -0.06703,0.08467 c 0.123472,-0.05645 0.137583,-0.1905 0.303389,-0.236361 0.04939,-0.02822 0.183444,-0.03175 0.169333,-0.0635 -0.112889,0 -0.246944,-0.169334 -0.225778,-0.243417 a 3.5560002,3.5560002 0 0 1 0.352778,-0.123472 c 0.105833,0 -0.04233,0.183444 0.04939,0.176389 0,0 0.02469,-0.05997 0.0388,-0.07761 0.01411,-0.01764 0,0.05292 0.109362,-0.02469 0,-0.05997 0.218722,-0.141111 0.02117,-0.07408 0.09172,-0.08819 0.116417,-0.06703 0.236361,-0.151695 -0.05997,0 0.03528,-0.183444 0.130528,-0.268111 0,0 0.03528,0 0.05292,0 0.215194,-0.141111 0.352778,-0.194028 0.546805,-0.328083 0.0247,0 0.130528,-0.04939 0.105834,0 a 0.31750002,0.31750002 0 0 1 0.09878,-0.105833 c 0.148166,-0.03528 -0.134056,0.09878 0,0.08819 0,-0.03175 0.130527,-0.144639 0.208138,-0.218722 -0.05644,-0.02822 -0.211666,0.123472 -0.28575,0.201083 -0.04233,-0.0635 0.06703,-0.229305 0.261056,-0.395111 0.194028,-0.165806 0.09878,0 0.119944,-0.03528 0.321028,-0.194028 0.197556,-0.282222 0.490362,-0.405694 0.130527,-0.0247 0.05644,0.07761 0.09878,0.09172 a 2.0743335,2.0743335 0 0 1 -0.321027,0.169333 l 0.127,-0.05292 a 0.59619448,0.59619448 0 0 1 -0.176389,0.127 c 0.109361,-0.01764 0.536222,-0.331612 0.804333,-0.448028 0.03528,-0.04233 0.102306,-0.102306 0.05644,-0.09525 l -0.07408,0.05292 c -0.09172,0 0.119945,-0.134055 0,-0.09172 a 1.2382501,1.2382501 0 0 1 0.352778,-0.264583 l 0.05292,0.03175 c 0,0 -0.112889,0.02822 -0.144639,0.07055 0.04939,-0.05997 0.264583,-0.07408 0.296333,-0.176388 l -0.123472,0.02822 a 1.351139,1.351139 0 0 1 0.352778,-0.271639 c -0.08819,0 -0.02822,0.02469 -0.155223,0.02469 0.119945,0.01764 -0.352777,0.194028 -0.169333,0.186973 -0.137583,0 -0.183444,0.07408 -0.352778,0.09525 0,0 0.0635,0 -0.05292,0.0635 v 0.02822 0 c 0,0 0,0 0,0 a 0.1446389,0.1446389 0 0 1 0.07055,0 c -0.03528,0.06703 -0.211666,0.172861 -0.257528,0.225778 -0.04586,0.05292 0,-0.03528 -0.02822,-0.02822 l -0.07408,0.08114 c -0.02822,-0.02822 -0.204611,0.05292 -0.06703,-0.0635 l -0.137583,0.08467 a 0.80080561,0.80080561 0 0 0 -0.268111,0.155222 c -0.07056,0.03175 -0.141112,0.137584 -0.09878,0.07761 l -0.201084,0.15875 v 0 a 3.6371391,3.6371391 0 0 1 -0.673805,0.437445 1.4922501,1.4922501 0 0 1 -0.254,0.183444 h -0.04233 c -0.08467,0.07056 -0.289278,0.155222 -0.306917,0.211667 -0.148167,0 -0.448028,0.278694 -0.613834,0.373944 l 0.02117,0.03881 a 3.6512502,3.6512502 0 0 0 -0.331611,0.261055 l 0.03175,0.02822 a 4.4908614,4.4908614 0 0 1 -0.493889,0.306916 c 0,-0.02117 0.05292,-0.04939 0.09172,-0.0635 -0.268111,0.07761 -0.423333,0.352778 -0.659694,0.448028 a 0.2892778,0.2892778 0 0 1 -0.119945,0.08114 v 0 h -0.02117 l -0.08114,0.02822 a 0.28222224,0.28222224 0 0 0 0.07056,-0.02117 l -0.144639,0.116416 -0.04586,-0.02117 v 0 c -0.0635,0.02469 -0.03175,0.04586 0,0.05292 a 0.49388892,0.49388892 0 0 0 -0.05997,0.07056 c -0.08467,-0.0247 -0.137583,0.119944 -0.239889,0.102305 0,0.05292 -0.275166,0.208139 -0.264583,0.289278 0,0 -0.02469,0 0,-0.01764 a 0.48330559,0.48330559 0 0 0 -0.183445,0.123473 l -0.0635,-0.02117 -0.102305,0.148167 c -0.102306,0.02822 -0.148167,0.03175 -0.08819,-0.05644 -0.169333,0.183445 -0.151694,0.127 -0.292805,0.289278 v -0.03528 c -0.0635,0.03881 -0.137584,0.141111 -0.1905,0.141111 -0.176389,0.02469 -0.705556,0.409223 -1.104195,0.557389 0.119945,0.04939 -0.194028,0.05644 -0.172861,0.134056 -0.03175,0 -0.09172,0 -0.0388,-0.04586 -0.179917,0.119944 -0.303389,0.116416 -0.405695,0.243416 -0.03175,0 0.02469,-0.05292 0,-0.05644 -0.02469,-0.0035 -0.05292,0.05292 -0.07761,0.04939 -0.02469,-0.0035 0.01764,-0.03175 0.04233,-0.05997 -0.1905,0.109361 -0.179916,0.183444 -0.162277,0.254 a 0.26458335,0.26458335 0 0 0 -0.215195,0.123472 c -0.04586,0 -0.112889,0 0,-0.06703 -0.07055,0.03175 -0.437444,0.176389 -0.419805,0.229306 a 0.25400002,0.25400002 0 0 0 -0.116417,0.05292 c -0.15875,0.06703 -0.176389,0.06703 -0.328083,0.141111 h 0.04586 c -0.03528,0.08819 -0.123473,0.07408 -0.246945,0.130528 v 0 c -0.306917,0.06703 -0.116417,0.07056 -0.423333,0.130528 l 0.03175,0.03528 c 0,0.09878 -0.275167,0.04939 -0.433917,0.137583 h 0.07056 c -0.08467,0.0635 -0.299861,-0.02822 -0.395111,0 -0.02117,0 0.02822,-0.02117 0.05292,-0.0388 -0.257528,0.03175 0,0.06703 -0.1905,0.137583 -0.04233,-0.02117 0.02117,-0.0882 -0.102305,-0.05645 -0.06703,0 -0.328084,0.197556 -0.511528,0.1905 0.04233,0 0.08467,0.0247 0,0.0635 -0.08467,0.03881 -0.377472,0 -0.479778,0.09878 0,0 -0.02822,0 -0.02822,0 a 2.4694446,2.4694446 0 0 0 -0.377472,0.148167 c -0.0635,-0.0635 -0.215195,-0.02117 -0.352778,0.02469 -0.137584,0.04586 -0.278695,0.07408 -0.28575,0 l -0.3175,0.04233 v 0 a 0.78316672,0.78316672 0 0 0 -0.352778,0.07761 c -0.04586,0 0,-0.02117 0,-0.02822 a 1.3687779,1.3687779 0 0 0 -0.575028,0.0635 l -0.02469,-0.04586 c -0.07056,0 -0.426862,-0.0635 -0.705556,-0.04939 a 0.04938889,0.04938889 0 0 1 0.03528,0 1.9296946,1.9296946 0 0 1 -0.525639,-0.07408 c -0.162278,-0.04586 -0.303389,-0.07055 -0.377472,0 h -0.218723 c 0.275167,0.05645 -0.05644,0.05997 0.05292,0.105834 -0.112889,0 -0.271639,-0.109362 -0.137583,-0.08467 h 0.02117 c 0.0635,-0.07056 -0.335139,-0.112889 -0.313972,-0.165806 a 9.2921673,9.2921673 0 0 1 -1.509889,-0.536222 l 0.02822,0.08114 c -0.05292,-0.02117 -0.109361,-0.04233 -0.165805,-0.07056 -0.05645,-0.02822 -0.03881,-0.07055 0.07761,0 a 0.27516668,0.27516668 0 0 0 -0.215195,-0.04939 c -0.218722,-0.127 0.119945,-0.02822 0.04939,-0.05997 l -0.09878,-0.03881 h 0.02117 a 0.46919447,0.46919447 0 0 1 -0.246944,-0.05292 c -0.08467,-0.05292 -0.02822,-0.05644 -0.0635,-0.07408 -0.03528,-0.01764 0,0 -0.05292,-0.02822 l -0.201083,-0.109361 0.05997,0.08819 c -0.102306,-0.02469 -0.1905,-0.102306 -0.123472,0 A 1.4111112,1.4111112 0 0 0 79.9118,83.847568 c -0.176389,-0.105833 -0.352778,-0.197555 -0.384528,-0.232833 a 1.319389,1.319389 0 0 1 -0.402167,-0.215194 c 0.03175,0.03175 0.02117,0.09525 -0.09878,0 0.109362,-0.07056 -0.204611,-0.194028 -0.254,-0.331612 0.05644,0.109362 -0.352777,-0.239888 -0.261055,-0.07408 -0.09525,-0.08114 0.02117,-0.03881 -0.03881,-0.119944 a 6.801556,6.801556 0 0 1 -0.797277,-0.635 c 0,0 0.01764,0.06703 -0.05644,0.03175 l -0.09878,-0.183445 c -0.05997,-0.04233 -0.105833,0.02469 -0.172861,-0.102305 0,0.02117 0,0.05292 -0.02469,0.02469 -0.486834,-0.529167 -1.128889,-0.956028 -1.513417,-1.598083 0.04586,0.09525 0,0.04586 -0.05292,0 0.02822,0.04233 -0.02822,0.02469 -0.03881,0.04586 -0.05644,-0.08819 -0.105834,-0.176389 -0.15875,-0.268111 -0.08114,0 -0.218723,-0.246945 -0.282223,-0.232834 l 0.07056,0.06703 c -0.134056,-0.05644 0,0.232833 -0.06703,0.271639 0.151695,0.0635 0.169334,0.352778 0.416278,0.469194 0.02117,0.04939 -0.05292,0 -0.04586,0.02117 0.06703,0 0.119944,0.06703 0.201083,0.179917 v 0 c 0.268111,0.271639 0.352778,0.41275 0.652639,0.73025 v -0.05292 a 0.66675004,0.66675004 0 0 1 0.09525,0.127 c 0.119945,0.02822 -0.186972,-0.179917 -0.07055,-0.162278 0.03528,0.144639 0.472722,0.448028 0.47625,0.5715 0.105833,0.09172 0,-0.0635 0.105833,0.02822 v 0.04586 h 0.04939 c 0.06703,0.06703 0.08114,0.119944 0.06703,0.141111 a 0.52563892,0.52563892 0 0 0 -0.07056,-0.05292 2.3106946,2.3106946 0 0 0 0.289278,0.250472 l -0.09172,-0.102305 a 8.1773894,8.1773894 0 0 0 1.005416,0.73025 v -0.03528 c 0.254,0.137583 0.169334,0.15875 0.440973,0.3175 v 0 a 0.84666672,0.84666672 0 0 1 0.211666,0.105833 c -0.08114,-0.02469 0.09878,0.119945 0,0.08467 0.28575,0.137583 0.144639,0.05997 0.352778,0.102306 l 0.0247,0.05292 a 0.46213892,0.46213892 0 0 1 0.229305,0.07408 c -0.127,-0.04233 0.05997,0.09172 -0.08467,0.04939 0.250472,0.236361 0.462138,0.179916 0.546805,0.352777 0.179917,0 -0.229305,-0.176389 -0.144639,-0.155222 -0.04939,-0.05644 0.144639,0 0.229306,0.05645 0.08467,0.05644 0.105833,0.186972 0.352778,0.299861 -0.0247,0 -0.02822,0 -0.05292,0 0.08114,0.05997 0.194028,0.04939 0.289278,0.134055 0.08467,-0.02117 0.144639,0.07056 0.1905,0 l -0.229306,-0.08467 a 1.2735279,1.2735279 0 0 1 0.47625,0.141111 0.32808335,0.32808335 0 0 1 -0.137583,0 c 0.04939,0.04939 0.123472,0.03528 0.179917,0.08114 -0.04939,0.0635 -0.282223,-0.09525 -0.437445,-0.112889 0.05292,0.05644 0.275167,0.07055 0.179917,0.109361 0.130528,-0.04233 0.239889,0.109361 0.433916,0.105833 l -0.02469,0.03528 a 0.47625003,0.47625003 0 0 1 0.137583,0.02822 h -0.105833 c 0.151694,0 0.246944,0.144639 0.391583,0.162278 -0.278694,-0.09172 -0.04586,-0.07056 -0.151694,-0.141111 0.352778,0.06703 0.162278,0.169333 0.557389,0.275167 -0.05292,0 -0.1905,-0.08467 -0.102306,-0.07761 a 0.98425006,0.98425006 0 0 1 0.204611,0.112889 c 0.264584,0.05997 -0.02822,-0.04939 0.08819,-0.04586 0.07761,0.07056 0.137583,0 0.254,0.02117 v 0.04233 c 0.292805,0.09878 0.09878,-0.06703 0.352778,0.02822 l -0.123473,0.03175 h 0.141112 l -0.03881,0.04233 a 0.99130562,0.99130562 0 0 1 0.352778,0.04939 c -0.02822,-0.03528 0.03528,-0.07056 0.169333,-0.04939 0.134056,0.02117 -0.05997,0.03175 0.134056,0.05644 a 0.15522223,0.15522223 0 0 1 -0.176389,0 c 0,0 -0.04939,0 -0.05997,0.03175 a 1.3370279,1.3370279 0 0 0 0.3175,0.05997 0.3527778,0.3527778 0 0 1 -0.07408,-0.02469 c 0.09525,0 0.194028,-0.01764 0.28575,-0.02469 0.09172,-0.0071 0,0.02822 -0.02822,0.0388 0.05644,0 0.09878,0 0.179917,0 -0.0247,0.03175 -0.02117,0.06703 -0.141111,0.07408 h 0.271638 c 0,0.01764 0.134056,0.05644 0.09525,0.0635 0.148167,0.03881 0.352778,-0.05292 0.564445,0 a 0.18344446,0.18344446 0 0 1 0.07408,0 1.5486945,1.5486945 0 0 0 0.567973,0 l 0.127,0.05644 c 0.172861,-0.02117 -0.172862,-0.07056 0.112888,-0.105833 0.197556,-0.03528 0.07761,0.04586 0.148167,0.05644 a 0.82550005,0.82550005 0 0 1 0.455084,-0.09525 1.4499168,1.4499168 0 0 1 -0.190501,-0.105833 z M 88.2303,85.043485 c -0.03528,0.02117 -0.105833,0.07056 -0.141111,0.05292 0.03175,-0.05644 0.07056,-0.04586 0.141111,-0.05292 z m 2.896306,-1.284111 a 0.17991668,0.17991668 0 0 1 -0.116417,0.04939 0.44450003,0.44450003 0 0 1 0.116417,-0.04939 z m 7.231945,-4.967112 v 0 c -0.08819,0.03881 -0.05645,0.02822 0,0 z m 0.165805,-0.08467 c 0,0 0,-0.01764 0,-0.01764 a 0.21166668,0.21166668 0 0 1 -0.08114,0.05997 c 0,0 0.0388,-0.0035 0.08114,-0.04233 z m -17.910528,5.418667 0.02822,0.02469 c -0.08114,-0.02117 -0.05644,-0.02117 -0.02822,-0.02469 z"
       fill="#d6e7ed"
       id="path480"
       style="stroke-width:0.352778" />
    <path
       d="m 81.605133,85.791374 0.04586,0.05292 c -0.08819,0.02822 -0.130527,0 -0.09525,0.05644 0.04939,-0.109361 0.22225,0.07056 0.271639,-0.0388 l 0.02822,0.0388 c 0,0 0,0 -0.02469,0 0.05292,0.07761 0.08467,-0.05997 0.169333,0 0.03175,0.02117 0.04939,0.04586 0.02117,0.05292 h 0.08114 c 0.02117,0 0,0.02469 0,0.01764 l 0.112889,0.02822 v 0 a 0.45861114,0.45861114 0 0 1 0.08819,-0.03528 c 0.02117,0.02822 -0.02117,0 0,0.02469 h 0.07056 c 0,0.03881 -0.04586,0.04939 -0.08467,0.03175 0,0.130527 0.05997,0 0.162278,0.09525 h -0.0635 c 0.01764,0.07408 0.07055,0.06703 0.123472,0.127 0,-0.02822 -0.09878,-0.141111 -0.02469,-0.151695 a 0.08113889,0.08113889 0 0 0 0.08467,0 c 0,0.04233 0.0247,0.04233 0.07056,0.05292 l -0.01764,0.05292 c 0.05292,0 0.05644,-0.02822 0.09172,-0.04586 0.03528,-0.01764 0.04939,0.06703 0.05292,0.105834 0.08467,0.03528 -0.03881,-0.08467 0.0635,-0.0635 a 0.31750002,0.31750002 0 0 0 0.218722,0.02117 c 0.04586,0.03175 0,0.03175 0,0.04939 l 0.05644,-0.03175 c 0,0 0,0.01764 0,0.02469 0,0.0071 0.01764,-0.05292 0.07761,-0.05292 0.03175,-0.05644 0.09878,0.119945 0.1905,0.06703 0,0.02117 -0.01764,0.03175 -0.01764,0.05292 a 0.52211114,0.52211114 0 0 0 0.1905,-0.05292 l 0.0635,0.04939 c -0.04233,-0.05292 0.03528,-0.08467 0.09878,-0.112889 a 0.3527778,0.3527778 0 0 0 -0.03175,-0.05644 h 0.09525 c 0,0 0,0.02822 -0.02117,0.04586 v 0 c 0.02822,0.02822 0,0.05644 -0.02469,0.08467 l -0.02469,-0.04233 a 0.16227779,0.16227779 0 0 0 -0.0635,0.09525 0.05291667,0.05291667 0 0 1 0.03528,0 c 0,0 0,0.01764 0,0.02117 0,0.0035 0,0 0.03175,0 v 0.06703 -0.02469 l 0.112889,0.0635 a 0.74788894,0.74788894 0 0 1 0.335139,-0.123472 c -0.04233,0.03881 -0.02117,0.07408 -0.03175,0.127 -0.02822,-0.0635 -0.112889,0 -0.183445,-0.02117 0.03881,0 0.02469,0.03881 0,0.04586 l 0.137584,-0.02822 c 0,0.04233 0.02117,0.0388 0.04939,0.0635 0,-0.09172 0.105834,-0.04586 0.162278,-0.0635 0,0.03175 0,0.05997 -0.08114,0.04233 0.05997,0.07408 0.109361,-0.08819 0.169334,-0.02117 0,0 -0.02469,0 -0.03175,0 -0.0071,0 0.123472,0.01764 0.09878,0.0388 v 0 c 0.102306,0.03175 0.313973,0.04586 0.352778,-0.02822 a 0.67027782,0.67027782 0 0 1 -0.03175,0.102305 l 0.215195,-0.225777 c -0.02469,0.0635 0.02117,0.22225 -0.07056,0.246944 a 0.11994445,0.11994445 0 0 0 0.109361,0 c 0,0 -0.03175,-0.09878 0,-0.09878 0.05292,0.07761 0.03881,0.04233 0.109361,0.109361 -0.02469,0 0,-0.112888 0.05644,-0.105833 0,0 0,0.09878 -0.02469,0.109361 l 0.109362,-0.09172 c -0.02469,0.01764 0,0.08467 0,0.116417 0,-0.02117 0.08819,0 0.116416,0 l -0.04233,-0.0247 c 0.112889,0.0247 0.123472,-0.130528 0.232833,-0.116416 0,0.01764 -0.04233,0.123472 0,0.137583 0.02822,-0.04586 0.130528,-0.236361 0.229306,-0.268111 v 0.03175 l 0.07761,-0.02822 a 1.5557501,1.5557501 0 0 1 -0.268111,0.282222 c 0.0388,0.02469 0,0.03528 0.07408,0.03528 0.07408,0 -0.0388,0.03881 -0.05644,0.03881 l 0.144639,0.02822 c 0,-0.05997 0.116416,-0.04939 0.112888,-0.102305 l -0.162277,0.05292 a 0.19402779,0.19402779 0 0 1 0.204611,-0.148166 c 0.02469,0.02469 -0.0247,0.105833 -0.02117,0.127 0.0035,0.02117 0.09878,-0.03528 0.109361,-0.02117 l -0.04586,0.02822 c 0.05644,0.02469 0.09878,-0.07408 0.165806,0 0.02469,0 0.07055,0.07761 0.07408,0.04233 a 0.55386115,0.55386115 0 0 1 0,-0.328084 0.80786116,0.80786116 0 0 1 0.148167,0.102306 c 0.0388,0.05292 -0.05997,0.127 -0.02822,0.172861 a 0.08466667,0.08466667 0 0 1 0.03528,-0.04233 c 0.02469,0 0,0.04939 0.04233,0.04233 0.04233,-0.0071 0.112889,0 0.02822,-0.04939 0.05292,-0.01764 0.05644,0 0.119944,0 -0.02117,-0.0388 0.05644,-0.134055 0.109361,-0.148167 a 0.05644445,0.05644445 0 0 0 0,0.04233 c 0.109362,0 0.169334,0.03175 0.271639,0.03175 0,0 0.05997,0.03175 0.03881,0.05644 a 0.08819445,0.08819445 0 0 1 0.05997,-0.03175 c 0.05997,0.04939 -0.07055,0 -0.02469,0.07056 0,-0.03528 0.08114,-0.05292 0.127,-0.07408 -0.01764,-0.05292 -0.105834,0 -0.148167,0 0,-0.07408 0.07408,-0.151694 0.176389,-0.1905 0.102305,-0.03881 0.03881,0.04586 0.05292,0.03528 0.15875,0 0.130527,-0.134055 0.264583,-0.08819 0.05292,0.04586 0,0.09525 0.01764,0.127 -0.06703,0.02117 -0.105834,-0.0247 -0.151695,-0.02117 l 0.05644,0.02117 a 0.09525001,0.09525001 0 0 1 -0.09172,0 c 0.04586,0.0388 0.268111,0 0.395111,0.02822 0.02117,-0.01764 0.05644,-0.03881 0.03881,-0.05644 h -0.03881 c -0.03881,-0.03528 0.06703,-0.05645 0.01764,-0.07056 a 0.24694446,0.24694446 0 0 1 0.179916,-0.0635 v 0.05292 c 0,0 -0.04939,-0.02822 -0.07055,0 -0.02117,0.02822 0.119944,0.06703 0.148166,0 l -0.05644,-0.03528 c 0.04939,-0.03175 0.109361,-0.09172 0.176389,-0.08114 -0.03528,-0.04939 0,0 -0.06703,-0.04939 0.04586,0.07408 -0.162278,0 -0.09525,0.08467 -0.04939,-0.06703 -0.08114,-0.0247 -0.148167,-0.08114 0,0.01764 0.0247,0.03175 -0.02822,0.02822 v 0 0 c 0,0 0.0247,0 0.02822,0.0247 0.0035,0.02469 -0.109361,0.04939 -0.137583,0.07055 -0.02822,0.02117 0,-0.02117 0,-0.0388 l -0.03881,0.03528 c 0,-0.0388 -0.09172,-0.0635 -0.01764,-0.08819 h -0.06703 a 0.14816668,0.14816668 0 0 0 -0.127,0 c -0.03528,0 -0.08114,0.04586 -0.05292,0 l -0.105833,0.03175 v 0 c -0.105834,0 -0.215195,0.07055 -0.352778,0 a 0.24341668,0.24341668 0 0 1 -0.130528,0 v -0.03175 c -0.04586,0 -0.134055,-0.03528 -0.155222,0 -0.04939,-0.09172 -0.218722,-0.02117 -0.296333,-0.03881 v 0.04586 a 0.44450003,0.44450003 0 0 0 -0.172862,0.02117 v 0.03881 c -0.05997,0.03175 -0.148166,-0.03175 -0.239888,-0.03175 0,0 0.02822,0 0.04586,0 -0.105834,-0.09525 -0.239889,0.04939 -0.352778,-0.02117 a 0.05291667,0.05291667 0 0 1 -0.05997,0 v 0 l -0.03528,-0.02469 0.02822,0.02469 h -0.07761 v -0.04233 0 c -0.02822,0 -0.02469,0.01764 0,0.04939 l -0.03881,0.02117 c 0,-0.07055 -0.07761,0 -0.102305,-0.05997 -0.02117,0.03528 -0.148167,0 -0.169333,0.08819 0,0 0,0 0,0 0,0 -0.0635,-0.02469 -0.09172,0 v -0.05292 l -0.07761,0.0635 c -0.0388,-0.03881 -0.05292,-0.05997 0,-0.09525 -0.109361,0.04939 -0.08467,0 -0.179916,0.0635 v -0.03175 c -0.03175,0 -0.08819,0.03528 -0.102306,0 -0.01411,-0.03528 -0.352778,-0.0635 -0.504472,-0.151695 0,0.109361 -0.07408,-0.05997 -0.09525,0.01764 0,-0.02469 -0.02822,-0.04586 0,-0.05997 -0.09172,0 -0.123473,-0.0635 -0.197556,0 0,-0.02469 0.02469,-0.02822 0.01764,-0.04586 -0.0071,-0.01764 -0.03175,0 -0.03881,0 -0.0071,0 0,0 0.03528,-0.02469 -0.09172,0 -0.116416,0.05644 -0.137583,0.123473 -0.03881,-0.03881 -0.0635,-0.04233 -0.105833,0 0,-0.02822 -0.03528,-0.05645 0.02469,-0.05292 -0.03175,0 -0.186972,-0.07408 -0.201083,-0.02117 0,0 -0.04586,0 -0.05644,0 a 0.96308339,0.96308339 0 0 0 -0.144639,-0.03528 h 0.01764 c -0.04586,0.05644 -0.0635,0 -0.119944,0 v 0 c -0.116417,-0.08114 -0.0635,0 -0.172861,-0.08114 v 0.04233 c -0.03528,0.08467 -0.09878,-0.07761 -0.179917,-0.06703 l 0.02117,0.03175 c -0.04939,0.01764 -0.07761,-0.155222 -0.112889,-0.176389 -0.03528,-0.02117 0.01764,0 0.03175,0 -0.08819,-0.08114 -0.03175,0.04939 -0.112889,0.03881 0,-0.03175 0.04233,-0.06703 0,-0.08819 -0.04233,-0.02117 -0.179917,0.04939 -0.232834,-0.03175 0,0.02469 0,0.05292 -0.02469,0.05644 -0.02469,0.0035 -0.119944,-0.130528 -0.194028,-0.08114 a 0.03880556,0.03880556 0 0 1 0,-0.01764 c -0.04586,0 -0.144639,0 -0.183444,0 0,-0.151694 -0.282222,-0.03175 -0.232834,-0.15875 l -0.130527,-0.04233 v 0 a 0.15169445,0.15169445 0 0 0 -0.15875,0 c 0,0 0,-0.02117 0,-0.02822 a 0.22930557,0.22930557 0 0 0 -0.243417,-0.05292 v -0.04586 c -0.03528,0 -0.137583,-0.137584 -0.271639,-0.144639 a 0.03175,0.03175 0 0 1 0.02117,0 c -0.148167,0 -0.243417,-0.257528 -0.352778,-0.137584 h -0.102306 c 0.102306,0.06703 -0.04586,0.05292 0,0.09878 -0.04939,0 -0.08819,-0.09878 -0.03175,-0.07761 v 0 c 0.05645,-0.0635 -0.119944,-0.09525 -0.08819,-0.144639 -0.208139,-0.109361 -0.384528,-0.261055 -0.567972,-0.381 v 0.06703 l -0.0635,-0.04233 c 0,-0.02469 0,-0.05997 0.04939,-0.02822 0,-0.04586 -0.09525,-0.02117 -0.102306,0 -0.07761,-0.07761 0.07408,-0.04233 0.04586,-0.05997 h -0.0388 v 0 c -0.04586,0 -0.05997,0.02469 -0.112889,0 -0.05292,-0.02469 0,-0.04586 0,-0.05644 0,-0.01058 0,0 0,-0.01764 l -0.07761,-0.05644 v 0.0635 c -0.04939,0 -0.07408,-0.05292 -0.07056,0.02117 0,-0.109361 -0.278695,-0.232833 -0.292806,-0.278694 a 0.32455558,0.32455558 0 0 1 -0.176389,-0.08819 c 0,0 -0.01764,0.07056 -0.0635,0.02822 0.08819,-0.08114 -0.05997,-0.112889 -0.04939,-0.211666 0,0.07055 -0.148167,-0.102306 -0.141112,0 -0.03528,-0.04233 0.02469,-0.03881 0,-0.08467 C 78.6418,83.734679 78.5783,83.572402 78.4513,83.484207 c 0,0 0,0.04586 -0.04939,0.04233 v -0.112889 c -0.02822,0 -0.08114,0.04939 -0.08467,-0.02822 0,0 0,0.03881 -0.02469,0.02822 -0.172861,-0.261056 -0.497417,-0.384528 -0.60325,-0.705556 0,0.04939 0,0.03175 -0.03881,0 -0.0388,-0.03175 -0.02822,0.02822 -0.0388,0.04586 l -0.04586,-0.137583 c -0.05644,0.02117 -0.09525,-0.09878 -0.144639,-0.07408 l 0.03528,0.02469 c -0.08819,0 -0.05997,0.155222 -0.127,0.204611 0.09525,0 0.02822,0.197556 0.176389,0.201083 0,0.02822 -0.03528,0 -0.0388,0.02822 -0.0035,0.02822 0.07055,0 0.09878,0.0635 v 0 a 2.4694446,2.4694446 0 0 1 0.257528,0.335139 l 0.02117,-0.03881 a 0.13405556,0.13405556 0 0 1 0.02822,0.0635 c 0.07761,0 -0.08114,-0.07761 0,-0.09878 -0.02117,0.09525 0.201083,0.1905 0.162278,0.28575 0.04233,0.04233 0.01764,-0.04939 0.0635,0 v 0.03175 h 0.03528 a 0.07055556,0.07055556 0 0 1 0,0.08467 c 0,0 -0.02469,0 -0.03175,0 0.01764,0.05644 0.116416,0.08819 0.123472,0.105833 l -0.03175,-0.04939 a 2.4694446,2.4694446 0 0 0 0.433917,0.306917 v -0.02117 c 0.119944,0.04586 0.0635,0.07761 0.179916,0.148167 v 0 a 0.14111112,0.14111112 0 0 1 0.09525,0.03881 c -0.0388,0 0.02469,0.07408 -0.02469,0.06703 0.130528,0.04586 0.07055,0 0.183444,0 v -0.08114 a 0.11641667,0.11641667 0 0 1 0.109361,0 c -0.05997,0 0,0.0635 -0.0635,0.05997 0.07056,0.141111 0.208139,0.05997 0.204612,0.183444 0.105833,-0.0388 -0.07408,-0.109361 -0.03175,-0.105833 0.04233,0.0035 0.08114,-0.02469 0.112888,0 0.03175,0.02469 0,0.137583 0.09525,0.197555 0,0 0,0 -0.02469,0 -0.02469,0 0.08819,0.02117 0.109361,0.08114 0.05292,-0.03175 0.05644,0.03881 0.102306,-0.01764 l -0.09878,-0.04233 c 0.05997,0.02117 0.151694,-0.02117 0.211667,0.05997 a 0.14816668,0.14816668 0 0 1 -0.07056,0 c 0,0.03175 0.05292,0 0.06703,0.04939 -0.04233,0.05292 -0.116417,-0.05292 -0.197556,-0.04233 0,0.04233 0.130528,0.02117 0.0635,0.06703 0.08819,-0.05644 0.08819,0.07055 0.1905,0.04586 l -0.02469,0.03528 a 0.13758334,0.13758334 0 0 1 0.0635,0 l -0.0635,0.02822 c 0.07761,0 0.08114,0.09878 0.148166,0.105833 -0.109361,-0.0635 0,-0.05997 -0.02822,-0.112889 0.15875,0.03175 0.02117,0.141111 0.179917,0.208139 -0.02117,0 -0.0635,-0.0635 -0.02117,-0.0635 a 0.23283335,0.23283335 0 0 1 0.05997,0.08819 c 0.105834,0.04939 0,-0.04586 0.05997,-0.04586 0,0.0635 0.05997,0 0.112889,0.02117 l -0.02117,0.03528 c 0.102305,0.08819 0.07055,-0.05997 0.15875,0.02469 l -0.07056,0.02822 h 0.05997 l -0.03175,0.0388 c 0.07408,0 0.08819,0 0.141111,0.05644 0,-0.03175 0.04233,-0.0635 0.09525,-0.03881 0.05292,0.02469 -0.03881,0.02469 0.0388,0.05644 -0.02822,0.01764 -0.0635,0.03528 -0.07761,0 0,0 -0.02822,0 -0.03881,0.02469 -0.01058,0.02469 0.09525,0.05644 0.119944,0.07055 a 0.08113889,0.08113889 0 0 1 -0.02469,-0.02469 h 0.134055 c 0,0.02117 0,0.02822 -0.02822,0.03175 -0.02822,0.0035 0.04586,0 0.08114,0 -0.02469,0.02822 -0.03881,0.05997 -0.09172,0.05292 h 0.119944 c 0,0 0.03528,0.0635 0.01764,0.06703 0.04939,0.04586 0.165806,0 0.232833,0.0635 h 0.03528 c 0.06703,0.03881 0.116417,0.105834 0.218722,0.09878 l 0.02469,0.07761 c 0.07408,0 -0.03528,-0.102305 0.08467,-0.07408 0.119945,0.02822 0,0.05997 0.03175,0.08819 0.03175,0.02822 0.141112,-0.04586 0.197556,0.02822 -0.08819,0.0635 -0.105833,0.04586 -0.130528,0.04233 z m 0.853722,0.271639 c -0.02117,0 -0.05997,0.02117 -0.06703,0 -0.0071,-0.02117 0.04233,-0.02117 0.06703,0 z m 1.333501,0.236361 c 0,0 -0.03528,0 -0.05292,-0.01764 a 0.0635,0.0635 0 0 1 0.05292,0.01764 z m 3.71475,-0.0388 v 0 c -0.04586,-0.01411 -0.03175,-0.0071 0,0 z m 0.07761,0 c 0,0 0,0 0,0 0,0 -0.02117,0 -0.04233,0 -0.02117,0 0.01764,0.02469 0.0388,0.01411 z m -7.979834,-1.943806 v 0 c -0.02822,0.01058 -0.01411,0.0071 0,0 z"
       fill="#d6e7ed"
       id="path642"
       style="stroke-width:0.352778" />
    <path
       d="m 83.407828,87.442374 0.03175,0.04939 c -0.07056,0.03528 -0.102306,0 -0.07761,0.0635 0.04586,-0.112889 0.176389,0.04586 0.22225,-0.06703 l 0.02117,0.03528 h -0.02117 c 0.03881,0.07408 0.07055,-0.06703 0.137583,-0.02822 0.06703,0.03881 0.03528,0.03881 0,0.04586 h 0.0635 c 0,0 0,0.02469 0,0.01764 h 0.08819 v 0 a 0.37394447,0.37394447 0 0 1 0.07056,-0.04233 c 0,0.02117 0,0 0,0.02469 h 0.05644 c 0,0.03528 -0.03528,0.05292 -0.07055,0.0388 0,0.127 0.04939,0 0.130528,0.07761 h -0.05292 c 0,0.07055 0.05644,0.05644 0.09878,0.112888 0,-0.02469 -0.07761,-0.130527 -0.01764,-0.144638 a 0.05644445,0.05644445 0 0 0 0.06703,0 c 0,0.04233 0.01764,0.0388 0.05292,0.04586 v 0.05292 c 0.04233,0 0.04586,-0.03528 0.07408,-0.05292 0.02822,-0.01764 0.0388,0.05997 0.04233,0.09878 0.0635,0.0247 -0.03175,-0.07761 0.04939,-0.07055 0.08114,0.0071 0.09878,0 0.172861,0 0.07408,0 0,0.03175 0,0.05292 l 0.04586,-0.03881 c 0,0 0,0 0,0.02469 0,0.02469 0,-0.05644 0.05997,-0.05997 0.0247,-0.05997 0.07761,0.109361 0.151695,0.04939 0,0.01764 0,0.03175 0,0.05292 a 0.45861114,0.45861114 0 0 0 0.151694,-0.07056 l 0.04939,0.04586 c -0.03528,-0.04939 0.0247,-0.08819 0.07408,-0.123472 0,-0.02117 -0.01764,-0.04233 -0.02469,-0.05292 l 0.07408,-0.01764 c 0,0 0,0.02822 -0.01764,0.04939 v 0 c 0.02469,0.0247 0,0.05645 0,0.08467 l -0.02117,-0.03881 a 0.19402779,0.19402779 0 0 0 -0.04586,0.09878 0.03175,0.03175 0 0 1 0.02469,0 c 0,0 0,0 0,0.02117 0,0.02117 0,0 0.02469,-0.01764 v 0.0635 -0.02117 l 0.09172,0.04939 a 0.61030559,0.61030559 0 0 1 0.257528,-0.151694 c -0.03175,0.04586 0,0.07408 -0.02117,0.130528 -0.02469,-0.0635 -0.08819,0 -0.141111,0 a 0.02469445,0.02469445 0 0 1 0,0.04233 l 0.105833,-0.03881 c 0,0.04586 0,0.03881 0.04233,0.05644 0,-0.08819 0.08114,-0.05292 0.123472,-0.07408 0.04233,-0.02117 0,0.05997 -0.05997,0.04586 0.04939,0.07055 0.07761,-0.09525 0.127,-0.03528 0,0 0,0 -0.02469,0 -0.02469,0 0.09878,0 0.08114,0.02469 v 0 c 0.08114,0.02117 0.246944,0 0.261056,-0.05997 0,0 0,0.09172 0,0.105834 l 0.151694,-0.246945 c 0,0.0635 0.03175,0.218722 -0.03881,0.254 a 0.07761112,0.07761112 0 0 0 0.08467,0 c 0,0 -0.03175,-0.09525 0,-0.09878 0.04586,0.07056 0.03175,0.03881 0.09172,0.09878 0,0 0,-0.116417 0.03528,-0.112889 0.03528,0.0035 0,0.102306 0,0.112889 l 0.07761,-0.102305 c 0,0.02117 0,0.08467 0,0.112888 0,0.02822 0.06703,0 0.08819,0 l -0.03528,-0.02469 c 0.08819,0 0.08467,-0.137583 0.169333,-0.137583 0,0.02117 -0.02117,0.127 0.02469,0.137583 0,-0.05292 0.07761,-0.246945 0.151694,-0.289278 v 0.02822 l 0.05644,-0.03528 a 1.5698612,1.5698612 0 0 1 -0.176389,0.306916 c 0.03175,0.02117 0,0.03528 0.05997,0.02822 0.05997,-0.0071 -0.02469,0.04233 -0.03881,0.04586 h 0.116417 c 0,-0.05997 0.08467,-0.0635 0.07761,-0.112889 l -0.123472,0.06703 c 0,-0.05997 0.0635,-0.169334 0.144639,-0.165806 0.02117,0.02117 0,0.105833 0,0.127 0,0.02117 0.07408,-0.04586 0.08114,-0.03175 l -0.03175,0.03528 c 0.04939,0.01764 0.06703,-0.08819 0.127,-0.03528 0.05997,0.05292 0.0635,0.07056 0.0635,0.03528 a 0.7055556,0.7055556 0 0 1 -0.04939,-0.324556 0.7055556,0.7055556 0 0 1 0.127,0.08467 c 0.03881,0.04939 -0.03175,0.134055 0,0.172861 a 0.10936112,0.10936112 0 0 1 -0.01764,-0.05645 c 0.02117,0 0,0.05292 0.03881,0.03881 0.0388,-0.01411 0.08819,0 0,-0.05292 0.0388,-0.02117 0.04586,0 0.09525,0 -0.02117,-0.03528 0.02469,-0.137583 0.0635,-0.15875 0.0388,-0.02117 0,0.03175 0,0.04233 a 2.081389,2.081389 0 0 0 0.211666,0 c 0,0 0.04939,0.02117 0.03881,0.04939 -0.01058,0.02822 0,-0.03175 0.0388,-0.03881 0.03881,-0.0071 -0.05292,0.01764 0,0.07408 0,-0.03528 0.05292,-0.05997 0.08467,-0.08819 -0.02469,-0.05292 -0.08114,0 -0.112889,0.03175 a 0.22225001,0.22225001 0 0 1 0.102306,-0.208139 c 0.05997,-0.03175 0.03881,0.03881 0.04586,0.02822 0.123472,0 0.07055,-0.151694 0.179916,-0.123472 0.05292,0.03881 0.02469,0.09172 0.04233,0.123472 -0.04586,0.02822 -0.08467,0 -0.119945,0 h 0.04939 a 0.07055556,0.07055556 0 0 1 -0.06703,0.03175 c 0.04233,0.03175 0.204612,-0.03881 0.303389,-0.02822 0,-0.02117 0.03881,-0.04586 0.01764,-0.05997 h -0.02469 c -0.03881,-0.02822 0.0388,-0.06703 0,-0.07056 0.03175,-0.0388 0.0635,-0.09172 0.123472,-0.08819 l 0.02469,0.04939 c 0,0 -0.04586,-0.02117 -0.05644,0 -0.01058,0.02117 0.105833,0.04586 0.109361,-0.02822 l -0.04939,-0.02469 c 0.03175,-0.03881 0.05997,-0.105833 0.109361,-0.105833 -0.03528,-0.04233 0,0 -0.05997,-0.03881 0.05292,0.06703 -0.119944,0.03175 -0.04939,0.09525 -0.05644,-0.05644 -0.06703,0 -0.130527,-0.05644 0,0.01764 0.02469,0.02822 0,0.03175 v 0.01764 0 a 0.03880556,0.03880556 0 0 1 0.02469,0.02117 c 0,0.04586 -0.07056,0.0635 -0.08467,0.08819 -0.01411,0.02469 0,-0.02117 0,-0.03528 l -0.02469,0.0388 c 0,-0.0388 -0.07761,-0.04939 -0.02822,-0.08467 h -0.05292 a 0.09172223,0.09172223 0 0 0 -0.09525,0 c -0.02822,0 -0.04939,0.05997 -0.03881,0.02469 l -0.07055,0.04233 v 0 c -0.07761,0 -0.148167,0.09525 -0.250472,0.04586 a 0.1446389,0.1446389 0 0 1 -0.09525,0.02822 v -0.03175 c -0.03528,0 -0.109362,-0.02117 -0.116417,0 -0.05292,-0.08467 -0.169333,0 -0.229306,0 v 0.06703 a 0.3527778,0.3527778 0 0 0 -0.127,0.04233 v 0.03881 c -0.04233,0.03528 -0.119944,0 -0.1905,0 0,0 0.02469,0 0.03528,0 -0.08819,-0.08114 -0.172861,0.07408 -0.254,0 a 0.03175,0.03175 0 0 1 -0.04586,0 v 0 h -0.02822 0.02469 l -0.05997,0.02117 v -0.04233 0 c -0.02117,0 -0.01764,0.02117 0,0.05292 a 0.09525001,0.09525001 0 0 0 -0.02822,0.02469 c 0,-0.06703 -0.05644,0.02469 -0.08114,-0.04939 0,0.03528 -0.109361,0.02822 -0.123472,0.102306 0,0 0,0 0,0 0,0 -0.04939,-0.01764 -0.07056,0 v -0.05292 l -0.05292,0.07056 c -0.03528,-0.03528 -0.04586,-0.05292 0,-0.09525 -0.07761,0.05997 -0.0635,0.02117 -0.134055,0.08114 v -0.03175 c -0.0247,0 -0.0635,0.04233 -0.07761,0 -0.01411,-0.04233 -0.264584,-0.02822 -0.395111,-0.102305 0,0.105833 -0.05644,-0.04939 -0.07056,0.02822 0,-0.02822 -0.02469,-0.04233 0,-0.05997 -0.07056,0 -0.09878,-0.05292 -0.155222,0 0,-0.0247 0.02117,-0.03175 0,-0.04586 -0.02117,-0.01411 -0.02469,0.01764 -0.02822,0 -0.0035,-0.01764 0,0 0.02469,-0.02822 -0.07056,0 -0.08819,0.07055 -0.102306,0.137583 -0.03175,-0.03528 -0.04939,-0.03528 -0.08467,0 0,-0.02469 -0.02469,-0.05292 0.02117,-0.05292 -0.02469,0 -0.144638,-0.05997 -0.15875,0 0,-0.01764 -0.03175,0 -0.04233,0 a 0.58208337,0.58208337 0 0 0 -0.112889,-0.02117 v 0 c -0.03528,0.0635 -0.04939,0 -0.09525,0 v 0 c -0.08819,-0.07056 -0.04939,0 -0.134055,-0.0635 v 0.04233 c -0.02822,0.08467 -0.07761,-0.07056 -0.141112,-0.04939 v 0.02822 c -0.03881,0.02117 -0.05644,-0.144639 -0.08467,-0.162278 -0.02822,-0.01764 0,0 0.02469,0 -0.06703,-0.07055 -0.02469,0.05292 -0.08819,0.04939 0,-0.03175 0.03528,-0.07055 0,-0.08467 -0.03528,-0.01411 -0.144639,0.0635 -0.183445,0 0,0.02469 0,0.04939 -0.02117,0.05997 -0.02117,0.01058 -0.09172,-0.119945 -0.148167,-0.05997 a 0.02469445,0.02469445 0 0 1 0,-0.02117 c -0.03881,0 -0.116417,0 -0.148167,0.03175 0,-0.148167 -0.22225,0 -0.179916,-0.127 l -0.102306,-0.02822 v 0 a 0.10583334,0.10583334 0 0 0 -0.127,0 c 0,0 0,-0.02117 0,-0.02822 -0.08114,-0.05997 -0.09172,-0.05645 -0.194028,-0.02117 V 86.9555 c -0.03175,0 -0.105833,-0.116417 -0.211666,-0.105834 0,0 0,0 0,0 -0.123473,0 -0.1905,-0.211666 -0.289278,-0.08114 H 82.5788 c 0.07761,0.04939 -0.04233,0.05644 0,0.09525 -0.03881,0 -0.06703,-0.08114 -0.02117,-0.07056 v 0 c 0.05292,-0.07056 -0.09172,-0.07408 -0.0635,-0.127 -0.165805,-0.07408 -0.306916,-0.194028 -0.451555,-0.275167 v 0.06703 l -0.04939,-0.03175 c 0,-0.02117 0,-0.05644 0.0388,-0.03175 0,-0.04233 -0.07761,0 -0.08467,0 -0.05997,-0.05997 0.0635,-0.04939 0.04233,-0.0635 h -0.03175 v 0 c -0.03881,0 -0.05292,0.03175 -0.09525,0 -0.04233,-0.03175 0,-0.04233 0,-0.04939 0,-0.0071 0,0 0,0 l -0.0635,-0.04233 v 0.05997 c -0.03881,0 -0.05997,-0.0388 -0.05644,0.02822 0,-0.09878 -0.225778,-0.165805 -0.239889,-0.204611 a 0.19755557,0.19755557 0 0 1 -0.144639,-0.04939 c 0,0 0,0.06703 -0.05644,0.03881 0.07761,-0.09172 -0.04939,-0.09172 -0.03528,-0.186972 0,0.06703 -0.127,-0.0635 -0.123473,0.03528 -0.02822,-0.02822 0.02117,-0.0388 0,-0.07761 -0.105833,0 -0.162278,-0.141111 -0.271639,-0.197555 0,0 0,0.04586 -0.0388,0.04939 v -0.09878 c -0.02469,0 -0.07056,0.05997 -0.07408,0 0,0 0,0.03528 -0.02117,0.02822 -0.151695,-0.194028 -0.433917,-0.225778 -0.53975,-0.486833 0,0.04586 0,0.03528 -0.03175,0.02117 -0.03175,-0.01411 -0.0247,0.02822 -0.03528,0.04939 l -0.04233,-0.109361 c -0.04939,0.03528 -0.08819,-0.0635 -0.130528,-0.02469 h 0.03175 c -0.07408,0.02822 -0.04233,0.151694 -0.09878,0.215194 0.08467,-0.02822 0.03175,0.165806 0.162278,0.130528 0,0.02469 -0.02822,0 -0.03528,0.03175 a 0.0635,0.0635 0 0 1 0.08819,0.03175 v 0 c 0.105833,0.06703 0.127,0.130528 0.229305,0.232833 l 0.01764,-0.04233 a 0.13405556,0.13405556 0 0 1 0.02469,0.05292 c 0.0635,-0.03175 -0.07055,-0.04939 0,-0.08819 0,0.09172 0.176389,0.123472 0.144639,0.218722 0.03528,0.02822 0,-0.04939 0.05292,-0.02117 v 0.02822 l 0.02822,-0.02117 a 0.0635,0.0635 0 0 1 0,0.07761 c 0,0 -0.02117,0 -0.02822,0 0.01764,0.04939 0.09878,0.05292 0.105833,0.07056 l -0.02822,-0.03881 c 0.119945,0.04939 0.232833,0.169334 0.352778,0.186973 v -0.02117 c 0.102306,0.02117 0.05292,0.05997 0.151694,0.09878 v 0 a 0.09877778,0.09877778 0 0 1 0.08114,0.01764 c -0.03528,0 0.01764,0.0635 -0.02469,0.06703 0.109361,0.01764 0.05997,0 0.155222,-0.02822 v 0.03528 a 0.09172223,0.09172223 0 0 1 0.09172,0 c -0.04939,0 0,0.05997 -0.05644,0.06703 0.05997,0.119944 0.176389,0.01764 0.169333,0.134055 0.08819,-0.05292 -0.05644,-0.08819 -0.02469,-0.09172 0.03175,-0.0035 0.07055,-0.0388 0.09525,0 0.02469,0.03881 0,0.127 0.07055,0.169333 h -0.01764 c 0.01764,0.03528 0.07056,0 0.08819,0.05644 0.04586,-0.03528 0.04586,0.02822 0.08467,-0.03175 l -0.07761,-0.02117 c 0.04586,0 0.123473,-0.04939 0.169334,0.02117 a 0.09877778,0.09877778 0 0 1 -0.05644,0.01764 c 0,0.02822 0.04233,0 0.05292,0.03528 0.01058,0.03528 -0.09172,-0.02822 -0.162278,0 0,0.03881 0.105834,0 0.04939,0.05644 0.07761,-0.07056 0.07056,0.04939 0.15875,0 l -0.02469,0.03528 c 0,0 0.0388,0 0.05292,0 l -0.05292,0.03528 c 0.0635,-0.02117 0.0635,0.07761 0.116416,0.07761 -0.08467,-0.04233 0,-0.05644 0,-0.102306 0.130528,0 0,0.127 0.141111,0.169333 0,0 -0.04939,-0.05292 0,-0.05644 a 0.15169445,0.15169445 0 0 1 0.04939,0.07408 c 0.08467,0.03175 0,-0.04586 0.04939,-0.05292 0,0.05997 0.04939,0 0.09172,0 l -0.01764,0.0388 c 0.07761,0.07056 0.05997,-0.06703 0.130527,0 l -0.05997,0.03528 h 0.04939 l -0.03175,0.03881 c 0.0635,0 0.07408,0 0.116417,0.0388 a 0.05997223,0.05997223 0 0 1 0.07761,-0.05292 c 0,0.03528 -0.03175,0.03175 0.02822,0.05292 -0.02469,0.01764 -0.05292,0.04233 -0.05997,0 l -0.03175,0.03175 c 0,0.03881 0.07055,0.03881 0.09172,0.04939 l -0.01764,-0.02117 0.105834,-0.01764 c 0,0.02117 0,0.02822 -0.02117,0.03528 -0.02117,0.0071 0.0388,0 0.0635,0 0.02469,0 -0.03175,0.0635 -0.07408,0.0635 h 0.09525 c 0,0 0.02822,0.05292 0,0.05997 0.0388,0.03881 0.137583,0 0.186972,0.03528 a 0.03527778,0.03527778 0 0 1 0.02822,0 c 0.05644,0.02822 0.09172,0.08819 0.172861,0.07056 v 0.07055 c 0.05997,0 -0.02469,-0.09172 0.07056,-0.08114 0.09525,0.01058 0,0.05645 0.02117,0.08114 0.02117,0.02469 0.119945,-0.05997 0.15875,0 -0.07055,-0.01058 -0.08467,-0.02469 -0.102305,-0.02822 z m 0.673805,0.176389 c 0,0 -0.04939,0.02469 -0.05292,0 -0.0035,-0.02469 0.03175,-0.01764 0.05292,0 z m 1.058334,0.109361 c 0,0 -0.02469,0 -0.03881,0 a 0.03880556,0.03880556 0 0 1 0.02822,0 z m 2.822222,-0.430389 v 0 c -0.04233,-0.0071 -0.03175,0 -0.01058,0 z m 0.0635,0 c 0,0 0,0 0,-0.02117 0,-0.02117 0,0 -0.02822,0 -0.02822,0 0.0035,0.03881 0.01764,0.02822 z m -6.184195,-0.994833 v 0 c -0.03528,0.02117 -0.02469,0.01411 -0.01058,0.0071 z"
       fill="#d6e7ed"
       id="path804"
       style="stroke-width:0.352778" />
  </g>
</svg>
