<?xml version="1.0" encoding="UTF-8" standalone="no"?>
<!-- Created with Inkscape (http://www.inkscape.org/) -->

<svg
   width="210mm"
   height="297mm"
   viewBox="0 0 210 297"
   version="1.1"
   id="svg5"
   sodipodi:docname="scale_2.svg"
   inkscape:version="1.1.1 (c3084ef, 2021-09-22)"
   xmlns:inkscape="http://www.inkscape.org/namespaces/inkscape"
   xmlns:sodipodi="http://sodipodi.sourceforge.net/DTD/sodipodi-0.dtd"
   xmlns="http://www.w3.org/2000/svg"
   xmlns:svg="http://www.w3.org/2000/svg">
  <sodipodi:namedview
     id="namedview7"
     pagecolor="#505050"
     bordercolor="#eeeeee"
     borderopacity="1"
     inkscape:pageshadow="0"
     inkscape:pageopacity="0"
     inkscape:pagecheckerboard="0"
     inkscape:document-units="mm"
     showgrid="false"
     inkscape:zoom="5.8642597"
     inkscape:cx="375.49496"
     inkscape:cy="57.381497"
     inkscape:window-width="1378"
     inkscape:window-height="837"
     inkscape:window-x="0"
     inkscape:window-y="38"
     inkscape:window-maximized="0"
     inkscape:current-layer="layer1" />
  <defs
     id="defs2" />
  <g
     inkscape:label="Layer 1"
     inkscape:groupmode="layer"
     id="layer1">
    <path
       style="fill:#000000;stroke-width:0.106586"
       d="m 93.270357,21.852131 c -0.281564,-0.197212 -0.46506,-0.608023 -0.375653,-0.841009 0.05401,-0.140713 0.811274,-0.160805 6.061019,-0.160805 6.523457,0 6.254767,-0.02569 6.025867,0.576394 -0.23144,0.608711 -0.10348,0.596054 -6.025867,0.596054 -4.817064,0 -5.469718,-0.01959 -5.685366,-0.170634 z m 0.141097,-1.826453 c 0.04167,-0.277684 0.143457,-0.635878 0.226242,-0.795985 0.172883,-0.334313 0.678492,-0.830859 0.846038,-0.830859 0.06232,0 0.363317,-0.124542 0.6688,-0.27677 0.410336,-0.204479 0.630164,-0.404337 0.841632,-0.765181 0.268283,-0.457796 0.289898,-0.592973 0.344861,-2.156541 0.05703,-1.623708 0.06722,-1.682024 0.381206,-2.18977 0.45164,-0.730348 1.150703,-1.145303 2.023052,-1.200849 1.174547,-0.07479 2.069045,0.412064 2.545155,1.385271 0.25348,0.51814 0.28059,0.702404 0.31271,2.124889 0.033,1.461676 0.0526,1.587339 0.31876,2.041482 0.20871,0.356153 0.43025,0.557008 0.839,0.760699 0.30547,0.152224 0.60995,0.27677 0.6766,0.27677 0.0667,0 0.29417,0.172991 0.5056,0.384422 0.35393,0.353916 0.61039,1.023114 0.61039,1.592669 0,0.133161 -0.77871,0.154633 -5.607874,0.154633 h -5.607882 z m 6.050848,-5.142504 c 0.352981,-0.27765 0.444565,-0.671056 0.245723,-1.055552 -0.169963,-0.328673 -0.35818,-0.43834 -0.752302,-0.43834 -0.136967,0 -0.32667,0.0298 -0.421565,0.06621 -0.259823,0.0997 -0.499113,0.637521 -0.421414,0.947126 0.08309,0.330861 0.522994,0.692044 0.842979,0.692044 0.130749,0 0.358709,-0.09517 0.506579,-0.211488 z M 88.830042,14.76295 c -4.157732,-0.282496 -6.133844,-0.379401 -6.260504,-0.307007 -0.823537,0.430671 -1.203175,0.342303 -1.571933,-0.137671 -0.513341,-0.716073 0.619769,-0.824359 0.424685,-3.154206 l -2.744596,-0.0332 C 76.129107,11.100038 75.897507,11.081218 75.434737,10.86735 74.748501,10.5502 74.024727,9.8544433 73.697035,9.1969124 l -0.274464,-0.5507252 4.319618,-0.027847 c 2.37579,-0.015308 6.263446,-0.015308 8.639244,0 l 4.319613,0.027847 -0.274464,0.5507252 c -0.32769,0.6575309 -1.051465,1.3532876 -1.7377,1.6704376 -0.461774,0.213411 -0.695953,0.232767 -3.189668,0.263618 l -2.691304,0.0333 v 0.952624 0.952625 h 6.542495 6.542496 l -0.142645,0.399699 c -0.07843,0.219834 -0.144748,0.699472 -0.147316,1.065861 l -0.005,0.666165 -0.34641,-0.01275 c -0.190521,-0.007 -3.080327,-0.198507 -6.421806,-0.425542 z m -6.648466,-0.811879 c 0.230321,-0.277519 -0.107522,-0.670183 -0.460184,-0.534854 -0.371512,0.142562 -0.251607,0.681224 0.151639,0.681224 0.102889,0 0.241733,-0.06587 0.308545,-0.14637 z m 20.126934,0.584008 c -0.003,-0.366389 -0.0689,-0.846027 -0.14732,-1.065861 l -0.14264,-0.399699 h 6.59994 6.59993 l -0.0308,-0.93263 -0.0308,-0.932629 -2.71795,-0.05329 c -2.49631,-0.04895 -2.75859,-0.07207 -3.21631,-0.283615 -0.68623,-0.317149 -1.41001,-1.0129064 -1.7377,-1.6704373 l -0.27446,-0.5507252 4.31961,-0.027847 c 2.3758,-0.015308 6.26345,-0.015308 8.63924,0 l 4.31961,0.027847 -0.27445,0.5507252 c -0.3277,0.6575309 -1.05148,1.3532883 -1.73771,1.6704373 -0.45772,0.211539 -0.72,0.234667 -3.21631,0.283615 l -2.71795,0.05329 c -0.26823,2.012857 0.74587,2.610624 -0.002,3.134207 -0.3569,0.294821 -0.70853,0.342947 -1.1092,0.120698 -0.12679,-0.07033 -2.33461,0.0378 -6.62798,0.319022 -3.54,0.231868 -6.44835,0.42191 -6.463,0.422315 -0.0147,4.26e-4 -0.0287,-0.299037 -0.0314,-0.665427 z m 13.84968,-0.652654 c 0.23031,-0.277519 -0.10751,-0.670183 -0.46019,-0.534854 -0.37151,0.142562 -0.2516,0.681224 0.15165,0.681224 0.10285,0 0.24173,-0.06587 0.30854,-0.14637 z"
       id="path268"
       sodipodi:nodetypes="ssssssccssscssssssssssccsssscssccccssscsscssscccccccccccsssscccccccssscsscsssccsssccssss" />
    <path
       d="m 106.83986,8.1649722 c -0.0724,-0.087191 -0.10373,-0.2310773 -0.0696,-0.3197588 0.0545,-0.1421743 1.13365,-0.1612352 9.12839,-0.1612352 7.99472,0 9.07383,0.019061 9.12839,0.1612352 0.034,0.088676 0.003,0.2325728 -0.0697,0.3197588 -0.11456,0.1379971 -1.28747,0.1585235 -9.0587,0.1585235 -7.77125,0 -8.94418,-0.020532 -9.05872,-0.1585235 z"
       style="fill:#000000;stroke-width:0.0282009"
       id="path235" />
    <path
       d="m 73.013504,8.1471298 c -0.07236,-0.087191 -0.103719,-0.2310773 -0.06969,-0.3197588 0.05456,-0.1421744 1.133666,-0.1612352 9.128392,-0.1612352 7.994737,0 9.073835,0.019061 9.128398,0.1612352 0.03399,0.088676 0.0024,0.2325727 -0.06974,0.3197588 -0.114559,0.1379971 -1.287468,0.1585235 -9.058703,0.1585235 -7.771233,0 -8.944176,-0.020532 -9.058704,-0.1585235 z"
       style="fill:#000000;stroke-width:0.0282009"
       id="path119" />
  </g>
</svg>
