<?xml version="1.0" encoding="UTF-8" standalone="no"?>
<svg
   id="Layer_1"
   data-name="Layer 1"
   viewBox="0 0 1080 809"
   version="1.1"
   sodipodi:docname="scale_5.svg"
   inkscape:version="1.1.1 (c3084ef, 2021-09-22)"
   xmlns:inkscape="http://www.inkscape.org/namespaces/inkscape"
   xmlns:sodipodi="http://sodipodi.sourceforge.net/DTD/sodipodi-0.dtd"
   xmlns="http://www.w3.org/2000/svg"
   xmlns:svg="http://www.w3.org/2000/svg"
   xmlns:rdf="http://www.w3.org/1999/02/22-rdf-syntax-ns#"
   xmlns:cc="http://creativecommons.org/ns#"
   xmlns:dc="http://purl.org/dc/elements/1.1/">
  <sodipodi:namedview
     id="namedview126"
     pagecolor="#505050"
     bordercolor="#eeeeee"
     borderopacity="1"
     inkscape:pageshadow="0"
     inkscape:pageopacity="0"
     inkscape:pagecheckerboard="0"
     showgrid="false"
     inkscape:zoom="4.0551213"
     inkscape:cx="481.61321"
     inkscape:cy="124.28728"
     inkscape:window-width="1512"
     inkscape:window-height="832"
     inkscape:window-x="0"
     inkscape:window-y="38"
     inkscape:window-maximized="0"
     inkscape:current-layer="Layer_1" />
  <defs
     id="defs83">
    <style
       id="style81">.cls-1,.cls-7{fill:#8c6239;}.cls-2{fill:#764d26;}.cls-3{fill:#603813;}.cls-4{fill:#00786f;}.cls-10,.cls-5{fill:#0d524c;}.cls-5{opacity:0.71;}.cls-6{fill:#00a99d;}.cls-7{stroke:#1a1a1a;stroke-miterlimit:10;}.cls-8{fill:#3d240c;}.cls-9{opacity:0.93;}</style>
  </defs>
  <title
     id="title85">ksherq</title>
  <rect
     class="cls-1"
     x="392.85504"
     y="100.24191"
     width="243.73"
     height="12.243893"
     id="rect87-8"
     style="stroke-width:0.382622" />
  <rect
     class="cls-2"
     x="392.85504"
     y="103.30289"
     width="243.73"
     height="9.1829195"
     id="rect89-3"
     style="stroke-width:0.382622" />
  <rect
     class="cls-3"
     x="392.85504"
     y="106.36386"
     width="243.73"
     height="6.1219463"
     id="rect91-9"
     style="stroke-width:0.382622;opacity:1" />
  <path
     class="cls-4"
     d="m 526.38999,84.896112 c -3.31893,-2.227202 -13.05172,-1.988725 -16.83535,0.445093 -2.03555,1.530486 -3.80513,3.906958 -6.50457,16.048575 -2.22637,19.68197 -2.539,15.85635 -3.82622,34.95294 h 39.41003 c -2.88994,-14.53107 -4.23251,-22.26783 -6.12194,-34.57032 -2.13513,-11.642904 -4.34408,-15.078383 -6.12195,-16.876288 z"
     id="path93-0"
     style="stroke-width:0.382622"
     sodipodi:nodetypes="ccccccc" />
  <polygon
     class="cls-6"
     points="499.33,602 601.67,602 654,628 447,628 "
     id="polygon97-2"
     transform="matrix(0.38262165,0,0,0.38262165,308.39495,-94.219702)" />
  <polygon
     class="cls-7"
     points="569.48,521.32 545.52,535.18 521.54,521.36 521.52,493.68 545.48,479.82 569.46,493.64 "
     id="polygon99-2"
     transform="matrix(0.26246182,0,0,0.26246182,374.57031,-27.334973)" />
  <circle
     cx="517.612"
     cy="105.99563"
     r="2.88708"
     id="circle101-7"
     style="stroke-width:0.262462" />
  <rect
     class="cls-4"
     x="479.42682"
     y="144.53616"
     width="79.202682"
     height="1.5304866"
     id="rect103-3"
     style="stroke-width:0.382622" />
  <rect
     class="cls-8"
     x="392.85504"
     y="91.058998"
     width="9.1829195"
     height="9.1829195"
     rx="4.5914598"
     id="rect105-7"
     style="stroke-width:0.382622;fill:#4a2c06;fill-opacity:1" />
  <rect
     class="cls-8"
     x="627.4021"
     y="91.058998"
     width="9.1829195"
     height="9.1829195"
     rx="4.5914598"
     id="rect107-9"
     style="stroke-width:0.382622;fill:#4a2c06;fill-opacity:1" />
  <path
     class="cls-4"
     d="m 445.74094,77.284614 c 0.72649,3.497162 -23.2311,14.095782 -49.94604,13.77438 -24.92761,-0.302271 -47.32489,-10.051471 -46.64381,-13.391758 0.41278,-2.001111 8.96965,-1.105777 43.75437,-1.147865 42.51604,-0.04974 52.38142,-1.411874 52.83548,0.765243 z"
     id="path109-0"
     style="stroke-width:0.397414" />
  <path
     class="cls-4"
     d="m 682.117,76.519371 c 0.69255,3.39768 -22.99556,14.868677 -49.74081,14.539623 -25.35251,-0.31375 -47.75119,-11.161074 -47.06247,-14.539623 0.5242,-2.571218 14.24118,-0.605584 50.88868,-0.678284 33.58271,-0.06887 45.43632,-1.659534 45.9146,0.678284 z"
     id="path111-2"
     style="stroke-width:0.382622"
     sodipodi:nodetypes="ccscc" />
  <metadata
     id="metadata258">
    <rdf:RDF>
      <cc:Work
         rdf:about="">
        <dc:title>ksherq</dc:title>
      </cc:Work>
    </rdf:RDF>
  </metadata>
</svg>
