<?xml version="1.0" encoding="UTF-8" standalone="no"?>
<!-- Created with Inkscape (http://www.inkscape.org/) -->

<svg
   width="210mm"
   height="297mm"
   viewBox="0 0 210 297"
   version="1.1"
   id="svg5"
   inkscape:version="1.1.1 (c3084ef, 2021-09-22)"
   sodipodi:docname="scales_1.svg"
   xmlns:inkscape="http://www.inkscape.org/namespaces/inkscape"
   xmlns:sodipodi="http://sodipodi.sourceforge.net/DTD/sodipodi-0.dtd"
   xmlns="http://www.w3.org/2000/svg"
   xmlns:svg="http://www.w3.org/2000/svg">
  <sodipodi:namedview
     id="namedview7"
     pagecolor="#505050"
     bordercolor="#eeeeee"
     borderopacity="1"
     inkscape:pageshadow="0"
     inkscape:pageopacity="0"
     inkscape:pagecheckerboard="0"
     inkscape:document-units="mm"
     showgrid="false"
     inkscape:zoom="0.86475736"
     inkscape:cx="537.1449"
     inkscape:cy="49.146734"
     inkscape:window-width="1378"
     inkscape:window-height="837"
     inkscape:window-x="0"
     inkscape:window-y="38"
     inkscape:window-maximized="0"
     inkscape:current-layer="layer1" />
  <defs
     id="defs2" />
  <g
     inkscape:label="Layer 1"
     inkscape:groupmode="layer"
     id="layer1">
    <path
       style="fill:#000000;stroke-width:0.0722401"
       d="m 41.234719,22.680038 c -0.297077,-0.102321 -0.580418,-0.488134 -0.580418,-0.790328 0,-0.501782 0.384448,-0.920952 0.845235,-0.921567 0.257675,-3.61e-4 0.653796,-0.240059 0.745356,-0.451064 0.06365,-0.14672 0.282692,-1.032633 1.120751,-4.533233 0.973987,-4.068363 0.956829,-4.015514 1.400261,-4.314342 0.616714,-0.415601 1.466761,-0.231333 1.834068,0.397577 0.07602,0.130102 0.42827,1.446568 0.782855,2.925479 1.111614,4.636333 1.28929,5.357285 1.361448,5.524519 0.091,0.210872 0.487117,0.45072 0.744963,0.451064 0.460787,6.5e-4 0.845235,0.419785 0.845235,0.921567 0,0.302194 -0.28334,0.688007 -0.580418,0.790328 -0.356368,0.122743 -8.162967,0.122743 -8.519336,0 z m 4.536503,-6.305736 c 0.240576,-0.168504 0.195901,-0.59676 -0.07816,-0.749387 -0.178402,-0.09935 -0.218922,-0.09935 -0.397324,0 -0.274074,0.152627 -0.318749,0.580883 -0.07815,0.749387 0.09048,0.06338 0.215048,0.115224 0.27683,0.115224 0.06177,0 0.186362,-0.05185 0.276839,-0.115224 z m -4.141679,0.692942 c -0.238393,-0.03183 -0.774775,-0.0949 -1.191962,-0.140142 -0.417187,-0.04525 -1.164872,-0.129822 -1.66152,-0.187951 -4.564266,-0.534216 -5.308206,-0.607917 -6.140412,-0.608321 -0.425488,-2.16e-4 -0.961769,0.04754 -1.221458,0.108753 -0.357469,0.08427 -0.517646,0.09106 -0.703121,0.02985 -0.334944,-0.110541 -0.56942,-0.462117 -0.560879,-0.840976 0.0087,-0.38513 0.185851,-0.654905 0.522535,-0.795678 0.248512,-0.103907 0.316079,-0.09896 1.068901,0.07827 l 0.803614,0.189191 h 5.282609 c 4.9831,0 5.282584,0.0072 5.282097,0.12642 -2.9e-4,0.06953 -0.109819,0.565278 -0.243418,1.101661 l -0.242905,0.975242 -0.280321,0.01078 c -0.154178,0.006 -0.475368,-0.01526 -0.71376,-0.04711 z m 6.682204,-0.04253 c 0,-0.06324 -0.09752,-0.504354 -0.21672,-0.980255 -0.119196,-0.475901 -0.216721,-0.924398 -0.216721,-0.996662 0,-0.125717 0.228308,-0.131899 5.291594,-0.143293 5.41817,-0.01219 5.357352,-0.0095 6.520091,-0.293717 0.654453,-0.159999 1.143379,0.19362 1.143379,0.826961 0,0.39665 -0.231507,0.733522 -0.567927,0.826413 -0.186499,0.05149 -0.434038,0.03078 -0.99019,-0.08287 l -0.741525,-0.151536 -2.456166,0.274175 c -1.350893,0.150797 -3.138836,0.35171 -3.973209,0.446474 -2.284505,0.259465 -3.503754,0.389297 -3.655842,0.389297 -0.07688,0 -0.136764,-0.05032 -0.136764,-0.11498 z M 29.962771,13.891875 C 28.360337,13.685408 26.754284,13.02541 25.498052,12.057131 25.009701,11.68072 24.028194,10.663 23.691449,10.183873 L 23.45218,9.8434365 h 7.558195 7.558189 l -0.291668,0.4153815 c -0.395634,0.563455 -1.439509,1.581784 -2.110207,2.058576 -0.963595,0.685001 -2.190019,1.209854 -3.410214,1.459412 -0.677985,0.13866 -2.14246,0.198982 -2.793704,0.115069 z m 28.91666,-0.005 c -2.410826,-0.304313 -4.657883,-1.616509 -6.123424,-3.575846 l -0.322691,-0.4314157 7.486612,-0.018396 c 4.117643,-0.010119 7.502431,-0.00256 7.521765,0.016749 0.118582,0.1185836 -1.225869,1.6203287 -1.950969,2.1792207 -0.998868,0.769905 -2.284548,1.37668 -3.504428,1.6539 -0.888195,0.201846 -2.277619,0.280459 -3.106865,0.175786 z M 23.147273,9.2778881 c -0.151012,-0.1668678 -0.15399,-0.4732993 -0.0061,-0.6212527 0.101789,-0.1017894 0.914336,-0.1135205 7.862974,-0.1135205 7.415794,0 7.754594,0.00572 7.869004,0.132109 0.157899,0.1744718 0.151943,0.4663531 -0.01254,0.6152161 -0.121192,0.1096809 -0.770696,0.1195562 -7.862963,0.1195562 -7.397798,0 -7.736021,-0.00572 -7.850428,-0.1321081 z M 52.109515,9.29648 c -0.06246,-0.062439 -0.113522,-0.2064005 -0.113522,-0.319921 0,-0.4634854 -0.55332,-0.4334407 7.982535,-0.4334407 6.954128,0 7.767222,0.011732 7.869012,0.1135205 0.153274,0.1532785 0.143488,0.4871284 -0.0186,0.6338046 -0.121193,0.1096818 -0.771115,0.1195562 -7.869004,0.1195562 -6.937235,0 -7.748639,-0.011732 -7.85043,-0.1135196 z"
       id="path21" />
  </g>
</svg>
