<?xml version="1.0" encoding="UTF-8" standalone="no"?>
<!-- Created with Inkscape (http://www.inkscape.org/) -->

<svg
   width="210mm"
   height="297mm"
   viewBox="0 0 210 297"
   version="1.1"
   id="svg5"
   sodipodi:docname="scale_1.svg"
   inkscape:version="1.1.1 (c3084ef, 2021-09-22)"
   xmlns:inkscape="http://www.inkscape.org/namespaces/inkscape"
   xmlns:sodipodi="http://sodipodi.sourceforge.net/DTD/sodipodi-0.dtd"
   xmlns="http://www.w3.org/2000/svg"
   xmlns:svg="http://www.w3.org/2000/svg">
  <sodipodi:namedview
     id="namedview7"
     pagecolor="#505050"
     bordercolor="#eeeeee"
     borderopacity="1"
     inkscape:pageshadow="0"
     inkscape:pageopacity="0"
     inkscape:pagecheckerboard="0"
     inkscape:document-units="mm"
     showgrid="false"
     inkscape:zoom="2.6103622"
     inkscape:cx="335.77715"
     inkscape:cy="103.24238"
     inkscape:window-width="1512"
     inkscape:window-height="837"
     inkscape:window-x="0"
     inkscape:window-y="38"
     inkscape:window-maximized="1"
     inkscape:current-layer="layer1" />
  <defs
     id="defs2" />
  <g
     inkscape:label="Layer 1"
     inkscape:groupmode="layer"
     id="layer1">
    <g
       id="g1150"
       transform="translate(-11.300759,-3.2712728)">
      <path
         style="fill:#666666;stroke:none;stroke-width:0.264583px;stroke-linecap:butt;stroke-linejoin:miter;stroke-opacity:1"
         d="m 109.68387,11.974264 1.57738,0.543556 0.77802,-0.01066 0.0746,-0.618161 -0.77803,-0.72474 -1.09777,-0.511582 -0.85263,-0.149211 -1.35356,0.05329 -1.27896,0.447634 -0.85263,0.714082 -0.0213,0.788688 0.26645,0.298423 1.12975,-0.458292 1.1303,-0.38283 z"
         id="path26950" />
      <path
         id="path419"
         style="fill:#ffffff;stroke:none;stroke-width:0.264583"
         d="m 108.95894,10.342856 v 5.29e-4 c -0.95641,0.0051 -1.91968,0.226606 -2.54042,0.644923 -0.40236,0.27686 -0.74808,0.518898 -0.93379,1.086238 -0.12299,0.37574 0.10276,0.846105 0.51108,0.993738 0.38451,0.11504 0.67057,-0.05746 1.02216,-0.312126 0.35078,-0.32353 0.5364,-0.477914 0.82114,-0.505912 0.33447,-0.03134 0.53326,0.51467 0.0212,1.117761 -0.64799,0.648308 -0.9921,1.756795 -0.34623,2.859774 0.56455,1.01433 0.56448,1.06609 0.56947,3.337264 0.23345,3.138569 -0.39853,4.282374 -1.49603,4.929931 L 91.751727,24.23091 83.395648,24.161147 v -1.190625 -0.98392 l -1.058333,0.0083 c 0.05791,2.18693 -0.180409,2.265226 -1.303798,2.290816 -1.305136,0.0404 -1.190842,-0.32037 -1.209743,-2.33009 l -1.058334,0.0078 v 1.790072 2.106331 l 0.992188,0.2651 c 0.575857,0.15386 5.253222,0.271086 11.146604,0.280086 5.584759,0.008 16.240558,-0.072 16.367478,0.0062 0.12693,0.0784 0.23047,1.683527 0.23047,3.566707 v 2.894912 l 2.77813,-0.162264 v -2.880457 -3.439583 l 16.29461,-0.133842 5.3e-4,5.3e-4 c 5.89338,-0.009 10.57075,-0.126227 11.14661,-0.280087 l 0.99219,-0.2651 V 23.605702 21.81563 l -1.05834,-0.0078 c -0.0189,2.00972 0.0954,2.37049 -1.20974,2.33009 -1.12339,-0.02559 -1.3617,-0.103886 -1.3038,-2.290816 l -1.05833,-0.0083 v 0.983919 1.190625 l -8.35608,0.06976 -5.3e-4,-5.29e-4 -14.06943,0.07751 c -2.46961,0.418299 -1.87911,-3.116783 -1.91719,-4.384229 -0.0715,-2.416862 0.0329,-2.526583 0.57619,-3.487642 0.66143,-1.17003 0.20495,-2.371547 -0.39894,-2.966227 -0.42353,-0.58511 -0.13951,-1.116556 0.21962,-1.086756 0.30423,0.02524 0.30732,0.28563 0.67542,0.533301 0.33157,0.249859 0.53569,0.38406 1.03456,0.17725 0.4458,-0.22743 0.6189,-0.643319 0.39067,-1.119828 -0.13884,-0.289872 -0.42595,-0.602452 -0.8909,-0.908471 -0.59743,-0.393223 -1.49005,-0.579384 -2.38849,-0.574642 z m 0.0274,0.270785 c 0.46087,0.0021 0.90641,0.14211 1.57148,0.398425 1.31999,0.576879 1.55637,1.584053 0.48059,1.179256 -1.95549,-0.735814 -2.20432,-0.732571 -4.14704,0.07286 -0.96114,0.53313 -1.14954,-0.470416 0.43047,-1.222147 0.72701,-0.295102 1.20363,-0.430594 1.6645,-0.428398 z m 1.08343,0.531188 c -0.0116,0.0021 -0.0311,0.02196 -0.0734,0.05426 l -5.3e-4,5.29e-4 c -0.0424,0.04232 -0.223,0.5801 -0.223,0.5801 l 0.19844,0.06098 c 0,0 0.14642,-0.54796 0.13618,-0.605938 -0.0206,-0.06649 -0.0228,-0.09273 -0.0377,-0.08992 z m -2.23788,0.04293 c -0.011,0.0034 -0.0143,0.03082 -0.0326,0.08992 -0.0102,0.05798 0.13897,0.595172 0.13897,0.595172 l 0.19895,-0.06098 c 0,0 -0.1829,-0.528034 -0.2263,-0.569333 l -0.001,-5.29e-4 c -0.0483,-0.03692 -0.067,-0.05764 -0.078,-0.05426 z m 2.83999,0.199583 c -0.01,0.0021 -0.0265,0.01948 -0.063,0.04858 l -0.001,5.29e-4 c -0.0378,0.0371 -0.22114,0.534519 -0.22114,0.534519 l 0.15916,0.05478 c 0,0 0.15654,-0.505833 0.15138,-0.557773 -0.0132,-0.05955 -0.013,-0.08317 -0.0253,-0.08062 z m -3.40482,0.04847 c -0.009,0.003 -0.01,0.02768 -0.0217,0.08061 -0.005,0.05194 0.16374,0.561043 0.16374,0.561043 l 0.15916,-0.05426 c 0,0 -0.1957,-0.501206 -0.2335,-0.538305 h -5.3e-4 c -0.0418,-0.03325 -0.0584,-0.0521 -0.0672,-0.04909 z m 3.91036,0.208772 c -0.009,0.0016 -0.0246,0.01753 -0.0584,0.04392 l -0.001,5.3e-4 c -0.0353,0.0339 -0.21308,0.47419 -0.21308,0.47419 l 0.13347,0.0281 c 0,0 0.16122,-0.424161 0.15867,-0.472321 -0.008,-0.0492 -0.009,-0.07151 -0.0165,-0.07441 -0.001,-2.64e-4 -0.002,-2.35e-4 -0.003,0 z m -4.4142,0.05064 c -0.008,0.0029 -0.008,0.02572 -0.0165,0.07493 -0.003,0.04815 0.14465,0.49403 0.14465,0.49403 l 0.16534,-0.02754 c 0,0 -0.19562,-0.462557 -0.23093,-0.496458 l -5.2e-4,-5.29e-4 c -0.0386,-0.0302 -0.0542,-0.04734 -0.062,-0.04444 z m 2.15777,10.915117 c 0,0 -2.78242,0.04963 -2.79578,2.616876 -0.0123,2.361039 2.78498,2.506486 2.78498,2.506486 0,0 2.71407,7.6e-5 2.70023,-2.700224 -0.0121,-2.361184 -2.68943,-2.423138 -2.68943,-2.423138 z"
         sodipodi:nodetypes="cccscccccccccccccccccsccsccccccscccccccccccccscsccssccccccsccccsccccccsccccccccccccccccccccccccccccccccccccccccscsc" />
      <path
         id="path16908"
         style="fill:#ff6600;stroke:none;stroke-width:0.264583px;stroke-linecap:butt;stroke-linejoin:miter;stroke-opacity:1"
         d="m 108.91605,10.75265 c -0.13334,-5.02e-4 -0.0447,0.401049 -0.4005,0.844393 -0.1052,0.152162 -0.10507,0.169821 -0.11006,0.36742 h 5.2e-4 c 0,0 0.0631,0.210102 0.0641,0.579809 5.3e-4,0.173442 -0.0612,0.382244 -0.0605,0.620634 0.001,0.339923 -0.67389,0.833563 -0.67334,1.900143 5.3e-4,1.266571 0.68016,1.339624 0.68316,2.194698 0.008,2.487115 -0.0487,4.514904 -0.0403,6.487459 -0.43978,0.149681 -0.9744,0.50329 -0.97875,1.339453 -0.007,1.307555 1.54203,1.388029 1.54203,1.388029 0,0 1.50317,4.5e-4 1.49551,-1.494999 -0.004,-0.780262 -0.53373,-1.107603 -0.96015,-1.244369 -0.007,-1.991171 -0.0513,-3.960698 -0.0543,-6.475573 -10e-4,-0.888063 0.71231,-0.960839 0.71831,-2.18798 0.005,-1.133976 -0.72216,-1.556616 -0.72244,-1.891358 -2e-4,-0.244378 -0.0624,-0.45834 -0.0625,-0.636137 -2.6e-4,-0.378321 0.0615,-0.593762 0.0615,-0.593762 h -5.3e-4 c 7.9e-4,-0.222939 -0.006,-0.23787 -0.123,-0.379822 -0.34601,-0.41827 -0.25563,-0.817005 -0.37878,-0.818038 z" />
      <path
         d="m 105.41463,32.44269 c -2.48163,0 -2.96364,0.201936 -2.96364,1.243336 0,0.57844 -0.0941,0.608748 -1.89756,0.608748 -2.569197,0 -3.572786,0.895183 -2.426724,2.162143 0.409926,0.45235 1.097706,0.483174 10.696504,0.483174 8.97344,0 10.3106,-0.0518 10.67428,-0.415478 0.53544,-0.53545 0.5277,-1.138486 -0.0222,-1.746147 -0.34376,-0.379859 -0.83073,-0.484208 -2.26653,-0.484208 -1.65265,0 -2.26554,-0.05065 -2.26432,-0.484725 0.16643,-1.328316 -0.24834,-1.406845 -2.31421,-1.421101 -2.45121,0.0069 -4.9542,0.0523 -7.21558,0.05426 z"
         style="fill:#ffffff;fill-opacity:1;stroke:none;stroke-width:0.264583"
         id="path15727"
         sodipodi:nodetypes="ssscssssccss" />
      <path
         d="m 85.517539,20.160097 c -3.97468,0.003 -7.99334,0.0258 -11.94707,0.0258 -3.81784,0 -4.22115,0.0451 -4.65037,0.51934 -0.25849,0.28562 -0.39947,0.70235 -0.31367,0.92605 0.13285,0.34623 0.90536,0.40669 5.19141,0.40669 4.95574,-0.0285 9.63804,0.1322 14.63735,0.0599 5.30038,-0.0768 5.60481,-0.16007 4.96146,-1.36219 -0.27509,-0.51403 -0.53103,-0.55152 -3.92328,-0.57102 -1.31116,-0.005 -2.63094,-0.006 -3.95583,-0.005 z"
         style="fill:#ffffff;stroke-width:0.264583"
         id="path8760" />
      <path
         d="m 140.77057,20.021127 c -3.97468,0.003 -7.99334,0.0258 -11.94707,0.0258 -3.81784,0 -4.22115,0.0451 -4.65036,0.51934 -0.25851,0.28562 -0.39949,0.70235 -0.31369,0.92605 0.13286,0.34623 0.90537,0.40669 5.19142,0.40669 4.95574,-0.0285 9.63804,0.1322 14.63735,0.0599 5.30038,-0.0768 5.60481,-0.16007 4.96146,-1.36219 -0.27509,-0.51403 -0.53103,-0.55152 -3.92328,-0.57102 -1.31116,-0.005 -2.63094,-0.006 -3.95583,-0.005 z"
         style="fill:#ffffff;stroke-width:0.264583"
         id="path8760-2" />
    </g>
  </g>
</svg>
