<?xml version="1.0" encoding="UTF-8" standalone="no"?>
<!-- Created with Inkscape (http://www.inkscape.org/) -->

<svg
   width="210mm"
   height="297mm"
   viewBox="0 0 210 297"
   version="1.1"
   id="svg5"
   sodipodi:docname="scale_3.svg"
   inkscape:version="1.1.1 (c3084ef, 2021-09-22)"
   xmlns:inkscape="http://www.inkscape.org/namespaces/inkscape"
   xmlns:sodipodi="http://sodipodi.sourceforge.net/DTD/sodipodi-0.dtd"
   xmlns="http://www.w3.org/2000/svg"
   xmlns:svg="http://www.w3.org/2000/svg">
  <sodipodi:namedview
     id="namedview7"
     pagecolor="#505050"
     bordercolor="#eeeeee"
     borderopacity="1"
     inkscape:pageshadow="0"
     inkscape:pageopacity="0"
     inkscape:pagecheckerboard="0"
     inkscape:document-units="mm"
     showgrid="false"
     inkscape:zoom="17.065265"
     inkscape:cx="635.58933"
     inkscape:cy="36.653402"
     inkscape:window-width="1378"
     inkscape:window-height="837"
     inkscape:window-x="0"
     inkscape:window-y="38"
     inkscape:window-maximized="0"
     inkscape:current-layer="layer1" />
  <defs
     id="defs2" />
  <g
     inkscape:label="Layer 1"
     inkscape:groupmode="layer"
     id="layer1">
    <path
       style="fill:#000000;stroke-width:0.0846667"
       d="m 146.15784,20.712918 c -0.0752,-0.195923 0.0334,-0.848837 0.19304,-1.160922 0.39343,-0.769077 0.97958,-1.183054 2.12418,-1.500239 1.01829,-0.282182 1.76731,-0.80508 2.33414,-1.629481 0.5714,-0.831034 0.67783,-1.266023 0.72027,-2.943654 0.0401,-1.586261 0.10409,-1.853894 0.54031,-2.260792 0.65988,-0.615526 1.81664,-0.580785 2.41018,0.07239 0.40136,0.441688 0.4544,0.671438 0.4544,1.968368 0,1.394446 0.0834,1.90494 0.43214,2.644941 0.47485,1.007629 1.31436,1.728516 2.4042,2.064485 0.95043,0.292993 1.41242,0.523433 1.83881,0.917182 0.44522,0.411152 0.74352,1.062665 0.74352,1.623939 v 0.335491 h -0.93702 -0.93702 l -0.27948,-0.296333 -0.27948,-0.296334 h -4.66091 c -2.5635,0 -4.72258,0.02367 -4.79796,0.05259 -0.0754,0.02893 -0.19378,0.162277 -0.2631,0.296334 l -0.12605,0.24374 h -0.93181 c -0.76497,0 -0.94087,-0.02358 -0.98236,-0.131704 z m 7.70656,-7.838761 c 0.20677,-0.227119 0.23569,-0.316023 0.19689,-0.605302 -0.0596,-0.444382 -0.28861,-0.661491 -0.75295,-0.713829 -0.309,-0.03483 -0.41589,-0.0071 -0.60739,0.157631 -0.3289,0.282912 -0.38979,0.791859 -0.13362,1.116853 0.37161,0.471445 0.89219,0.489363 1.29707,0.04465 z m -13.40804,1.309168 c -0.94899,-0.153501 -2.43758,-0.567206 -2.62821,-0.730427 -0.14084,-0.120588 -0.15616,-0.210882 -0.11028,-0.649828 l 0.0533,-0.509781 h -0.68327 c -1.34649,0 -2.84948,-0.308738 -3.79645,-0.779852 -0.37567,-0.186894 -0.72354,-0.453533 -1.05775,-0.810745 -0.27389,-0.292746 -0.49798,-0.568971 -0.49798,-0.613834 0,-0.0516 2.36631,-0.08157 6.44043,-0.08157 h 6.44043 l -0.19507,0.275167 c -0.3476,0.490319 -0.51555,0.650452 -1.04189,0.993375 -0.92055,0.599761 -2.08944,0.910468 -3.7699,1.002089 l -1.05834,0.0577 -0.0259,0.267293 c -0.0258,0.265638 -0.0224,0.268094 0.55033,0.396374 1.17081,0.262248 1.97795,0.332606 3.27347,0.285346 1.38781,-0.05063 2.08856,-0.183657 4.25723,-0.808195 0.64547,-0.185883 1.55458,-0.419671 2.02025,-0.519528 0.83511,-0.179081 2.59763,-0.438543 2.64657,-0.389604 0.0138,0.01384 -0.014,0.128177 -0.0619,0.254083 -0.0479,0.125906 -0.087,0.485073 -0.087,0.798149 v 0.569229 l -1.5875,0.143004 c -0.87312,0.07865 -2.2733,0.259726 -3.1115,0.402384 -2.33446,0.397317 -3.36107,0.507509 -4.61111,0.494934 -0.63042,-0.0063 -1.24147,-0.02694 -1.35789,-0.04577 z m 22.43667,0.0023 c -0.16298,-0.0208 -1.21073,-0.189069 -2.32833,-0.373931 -1.1176,-0.184863 -2.74638,-0.400638 -3.6195,-0.479502 l -1.5875,-0.143388 v -0.569228 c 0,-0.313076 -0.0392,-0.672243 -0.087,-0.798149 -0.0479,-0.125907 -0.0749,-0.24106 -0.0601,-0.255896 0.0388,-0.03884 1.67889,0.195755 2.47543,0.354078 0.37253,0.07405 1.41731,0.340713 2.32172,0.592592 0.90441,0.251879 2.03982,0.534274 2.52313,0.627542 1.19744,0.231084 2.87214,0.229984 4.17851,-0.0027 1.3214,-0.235405 1.27801,-0.216848 1.2473,-0.533413 l -0.026,-0.267925 -0.97367,-0.05452 c -2.54241,-0.142365 -4.00291,-0.744979 -4.91709,-2.028828 l -0.17444,-0.244984 h 6.44043 c 3.97765,0 6.44043,0.03053 6.44043,0.07984 0,0.04391 -0.20903,0.305621 -0.46452,0.581576 -0.95834,1.035123 -2.75178,1.624583 -4.94282,1.624583 h -0.62811 l 0.0496,0.486833 c 0.0766,0.752038 0.0694,0.756903 -1.80344,1.214585 -0.56057,0.136996 -1.05657,0.181715 -2.24367,0.202288 -0.8382,0.01453 -1.65735,0.0094 -1.82033,-0.0114 z"
       id="path1074"
       sodipodi:nodetypes="sssssssssssscccccssscssssssssssssscssssscsssccssssssscsscsscsscsccssscscsscsssscssscc" />
    <path
       d="m 161.69715,9.6716149 c -0.029,-0.046983 -0.0287,-0.1612831 7.9e-4,-0.254 0.0529,-0.1664203 0.13776,-0.1685756 6.64146,-0.1685756 6.96164,0 6.87205,-0.00493 6.72807,0.3702688 -0.0482,0.1255752 -0.63821,0.1377312 -6.68513,0.1377312 -4.3694,0 -6.65029,-0.029146 -6.68508,-0.085424 z"
       style="fill:#000000;stroke-width:0.0224014"
       id="path661" />
    <path
       d="m 131.5144,9.6572378 c -0.0252,-0.065605 -7.9e-4,-0.1807879 0.0542,-0.2559629 0.0908,-0.1241137 0.70726,-0.1346022 6.70402,-0.114063 2.20133,0.00754 6.45217,-0.1006175 6.604,0.022619 0.10886,0.1310524 0.14692,0.3380458 0,0.4233333 -0.1631,0.069388 -4.43883,0.014451 -6.65825,0.021677 -5.66312,0.018437 -6.66509,0.00385 -6.70402,-0.097604 z"
       style="fill:#000000;stroke-width:0.0224014"
       id="path119"
       sodipodi:nodetypes="cssccscc" />
  </g>
</svg>
