<?xml version="1.0" encoding="UTF-8" standalone="no"?>
<svg
   xmlns:dc="http://purl.org/dc/elements/1.1/"
   xmlns:cc="http://creativecommons.org/ns#"
   xmlns:rdf="http://www.w3.org/1999/02/22-rdf-syntax-ns#"
   xmlns:svg="http://www.w3.org/2000/svg"
   xmlns="http://www.w3.org/2000/svg"
   xmlns:sodipodi="http://sodipodi.sourceforge.net/DTD/sodipodi-0.dtd"
   xmlns:inkscape="http://www.inkscape.org/namespaces/inkscape"
   version="1.1"
   x="0"
   y="0"
   width="269.291"
   height="255.118"
   viewBox="0, 0, 269.291, 255.118"
   id="svg92"
   sodipodi:docname="perplexed_male_grn.svg"
   inkscape:version="0.92.3 (2405546, 2018-03-11)">
  <metadata
     id="metadata96">
    <rdf:RDF>
      <cc:Work
         rdf:about="">
        <dc:format>image/svg+xml</dc:format>
        <dc:type
           rdf:resource="http://purl.org/dc/dcmitype/StillImage" />
        <dc:title></dc:title>
      </cc:Work>
    </rdf:RDF>
  </metadata>
  <sodipodi:namedview
     pagecolor="#ffffff"
     bordercolor="#666666"
     borderopacity="1"
     objecttolerance="10"
     gridtolerance="10"
     guidetolerance="10"
     inkscape:pageopacity="0"
     inkscape:pageshadow="2"
     inkscape:window-width="2736"
     inkscape:window-height="1699"
     id="namedview94"
     showgrid="false"
     inkscape:zoom="0.92506214"
     inkscape:cx="134.64549"
     inkscape:cy="127.559"
     inkscape:window-x="-13"
     inkscape:window-y="-13"
     inkscape:window-maximized="1"
     inkscape:current-layer="g89" />
  <defs
     id="defs5">
    <clipPath
       id="Clip_1">
      <path
         d="M259,0.451 L259,254.315 L11.248,254.315 L11.248,0.451 L259,0.451 z"
         id="path2" />
    </clipPath>
  </defs>
  <g
     id="g89"
     clip-path="url(#Clip_1)">
    <g
       id="g986">
      <path
         d="m 204.456,169.471 c 0.85,4.696 -0.856,7.559 -0.856,7.559 0,0 -11.531,-1.747 -14.347,8.06 -1.64,5.713 -1.244,10.309 1.632,13.981 l -0.584,2.866 c -4.423,-7.691 -9.231,-14.818 -11.813,-17.637 -0.236,-0.26 -0.537,-0.521 -0.868,-0.776 l 0.004,-0.074 c -0.468,-0.505 -1.611,-1.169 -3.255,-1.879 -1.063,-0.531 -1.887,-0.872 -1.887,-0.872 l -0.019,0.113 c -0.398,-0.146 -0.817,-0.293 -1.247,-0.439 12.942,-1.473 23.874,-5.892 32.787,-12.351 0.204,0.473 0.364,0.954 0.453,1.449 m 28.479,-54.499 c 0.26,-2.451 0.419,-4.917 0.474,-7.387 0.109,0.59 0.218,1.179 0.303,1.777 0,0 24.03,-46.645 -17.227,-74.685 0,0 -11.507,-30.801 -72.586,-23.058 -7.864,0.217 -21.294,-0.402 -30.769,-6.121 0,0 -2.526,6.371 5.766,12.62 -40.453,18.484 -34.521,67.527 -33.294,75.347 -0.328,1.888 -0.595,3.786 -0.799,5.687 -5.905,1.069 -11.818,4.805 -12.926,15.183 -1.183,11.074 4.385,17.588 16.861,20.508 7.18,20.147 23.282,36.926 49.749,43.341 -7.196,1.417 -12.844,3.686 -14.061,4.968 l 0.01,0.258 c -0.022,0.015 -0.04,0.025 -0.062,0.04 -8.719,5.674 -19.936,26.695 -40.633,80.813 l 1.152,0.582 c -4.957,4.191 -22.358,19.562 -19.787,26.759 2.993,8.376 24.671,-12.087 24.671,-12.087 0,0 -2.82,6.705 0.964,8.394 4.969,2.216 5.348,-4.555 7.447,-11.721 0.679,-2.31 0.622,-4.566 0.214,-6.615 l 21.184,-35.684 -9.832,60.004 h 2.715 c -0.597,5.088 -0.948,10.457 -1.12,15.848 l -0.091,0.105 c 0.03,-0.018 0.058,-0.038 0.089,-0.056 -0.783,24.594 2.126,49.552 2.126,49.552 l 10.828,0.06 1.449,10.008 h -0.001 l 7.201,49.752 h 0.001 c -2.188,0.844 -4.203,2.105 -5.659,3.98 -1.362,1.756 -2.055,3.149 -2.366,4.244 l -0.003,0.001 c -2.369,4.243 -0.594,6.02 -0.594,6.02 l 22.631,-0.068 0.014,-2.392 0.065,-11.706 v -0.02 l 0.008,-1.431 c 0,0 -0.014,-0.002 -0.02,-0.002 l -0.375,-48.261 -0.078,-10 1.631,0.009 1.876,-34.296 0.212,-11.209 0.087,11.211 1.491,34.314 1.632,0.009 -0.19,9.999 -0.917,48.254 c -0.004,0.001 -0.017,0.002 -0.017,0.002 l -0.008,1.325 -0.002,0.126 h 0.002 l -0.065,11.706 -0.014,2.392 22.627,0.321 c 0,0 1.798,-1.757 -0.527,-6.027 h -0.001 c -0.299,-1.099 -0.976,-2.498 -2.32,-4.27 -1.434,-1.89 -3.434,-3.174 -5.613,-4.043 l 7.758,-49.669 1.56,-9.991 10.828,0.061 c 0,0 3.187,-24.924 2.681,-49.525 0.029,0.02 0.058,0.039 0.088,0.058 l -0.09,-0.106 c -0.115,-5.542 -0.416,-11.066 -0.985,-16.285 h 4.059 L 181.958,230.43 c 3.202,3.415 12.014,11.044 19.619,1.311 5.495,-7.033 6.942,-17.879 6.859,-27.757 2.451,-0.956 4.038,-2.152 4.038,-2.152 0,0 7.39,-6.812 2.628,-20.631 0,0 2.098,-9.017 -1.895,-17.299 -0.445,-0.923 -0.922,-1.756 -1.415,-2.526 3.733,-3.735 6.99,-7.884 9.759,-12.349 12.812,-0.219 19.629,-5.41 20.812,-16.484 1.108,-10.378 -3.883,-15.279 -9.428,-17.571"
         id="path7"
         inkscape:connector-curvature="0"
         style="fill:#666666" />
      <path
         d="m 204.456,169.471 c 0.85,4.696 -0.856,7.559 -0.856,7.559 0,0 -11.531,-1.747 -14.347,8.06 -1.64,5.713 -1.244,10.309 1.632,13.981 l -0.584,2.866 c -4.423,-7.691 -9.231,-14.818 -11.813,-17.637 -0.236,-0.26 -0.537,-0.521 -0.868,-0.776 l 0.004,-0.074 c -0.468,-0.505 -1.611,-1.169 -3.255,-1.879 -1.063,-0.531 -1.887,-0.872 -1.887,-0.872 l -0.019,0.113 c -0.398,-0.146 -0.817,-0.293 -1.247,-0.439 12.942,-1.473 23.874,-5.892 32.787,-12.351 0.204,0.473 0.364,0.954 0.453,1.449 z m 28.479,-54.499 c 0.26,-2.451 0.419,-4.917 0.474,-7.387 0.109,0.59 0.218,1.179 0.303,1.777 0,0 24.03,-46.645 -17.227,-74.685 0,0 -11.507,-30.801 -72.586,-23.058 -7.864,0.217 -21.294,-0.402 -30.769,-6.121 0,0 -2.526,6.371 5.766,12.62 -40.453,18.484 -34.521,67.527 -33.294,75.347 -0.328,1.888 -0.595,3.786 -0.799,5.687 -5.905,1.069 -11.818,4.805 -12.926,15.183 -1.183,11.074 4.385,17.588 16.861,20.508 7.18,20.147 23.282,36.926 49.749,43.341 -7.196,1.417 -12.844,3.686 -14.061,4.968 l 0.01,0.258 c -0.022,0.015 -0.04,0.025 -0.062,0.04 -8.719,5.674 -19.936,26.695 -40.633,80.813 l 1.152,0.582 c -4.957,4.191 -22.358,19.562 -19.787,26.759 2.993,8.376 24.671,-12.087 24.671,-12.087 0,0 -2.82,6.705 0.964,8.394 4.969,2.216 5.348,-4.555 7.447,-11.721 0.679,-2.31 0.622,-4.566 0.214,-6.615 l 21.184,-35.684 -9.832,60.004 h 2.715 c -0.597,5.088 -0.948,10.457 -1.12,15.848 l -0.091,0.105 c 0.03,-0.018 0.058,-0.038 0.089,-0.056 -0.783,24.594 2.126,49.552 2.126,49.552 l 10.828,0.06 1.449,10.008 h -0.001 l 7.201,49.752 h 0.001 c -2.188,0.844 -4.203,2.105 -5.659,3.98 -1.362,1.756 -2.055,3.149 -2.366,4.244 l -0.003,0.001 c -2.369,4.243 -0.594,6.02 -0.594,6.02 l 22.631,-0.068 0.014,-2.392 0.065,-11.706 v -0.02 l 0.008,-1.431 c 0,0 -0.014,-0.002 -0.02,-0.002 l -0.375,-48.261 -0.078,-10 1.631,0.009 1.876,-34.296 0.212,-11.209 0.087,11.211 1.491,34.314 1.632,0.009 -0.19,9.999 -0.917,48.254 c -0.004,0.001 -0.017,0.002 -0.017,0.002 l -0.008,1.325 -0.002,0.126 h 0.002 l -0.065,11.706 -0.014,2.392 22.627,0.321 c 0,0 1.798,-1.757 -0.527,-6.027 h -0.001 c -0.299,-1.099 -0.976,-2.498 -2.32,-4.27 -1.434,-1.89 -3.434,-3.174 -5.613,-4.043 l 7.758,-49.669 1.56,-9.991 10.828,0.061 c 0,0 3.187,-24.924 2.681,-49.525 0.029,0.02 0.058,0.039 0.088,0.058 l -0.09,-0.106 c -0.115,-5.542 -0.416,-11.066 -0.985,-16.285 h 4.059 L 181.958,230.43 c 3.202,3.415 12.014,11.044 19.619,1.311 5.495,-7.033 6.942,-17.879 6.859,-27.757 2.451,-0.956 4.038,-2.152 4.038,-2.152 0,0 7.39,-6.812 2.628,-20.631 0,0 2.098,-9.017 -1.895,-17.299 -0.445,-0.923 -0.922,-1.756 -1.415,-2.526 3.733,-3.735 6.99,-7.884 9.759,-12.349 12.812,-0.219 19.629,-5.41 20.812,-16.484 1.108,-10.378 -3.883,-15.279 -9.428,-17.571 z"
         id="path9"
         inkscape:connector-curvature="0"
         style="fill-opacity:0;stroke:#666666;stroke-width:8;stroke-linecap:round;stroke-linejoin:round" />
      <path
         d="m 27.541,47.393 c 0,0 -10.192,-11.752 -3.958,-22.642 6.916,-12.083 37.033,-14.422 40.728,6.453 3.694,20.876 -19.015,26.674 -19.015,26.674 l 3.536,13.214"
         id="path11"
         inkscape:connector-curvature="0"
         style="fill-opacity:0;stroke:#2dce89;stroke-width:6;stroke-linecap:round;stroke-linejoin:round;stroke-opacity:1" />
      <path
         d="m 52.428,86.73 0.741,2.239"
         id="path13"
         inkscape:connector-curvature="0"
         style="fill-opacity:0;stroke:#2dce89;stroke-width:6;stroke-linecap:round;stroke-linejoin:round;stroke-opacity:1" />
      <path
         d="m 151.062,176.926 c -12.369,-0.07 -24.762,4.251 -26.636,6.226 l 1.061,27.256 50.771,0.284 1.366,-27.242 c -1.85,-1.996 -14.194,-6.455 -26.562,-6.524"
         id="path15"
         inkscape:connector-curvature="0"
         style="fill:#ffc46b" />
      <path
         d="m 151.062,176.926 c -12.369,-0.07 -24.762,4.251 -26.636,6.226 l 1.061,27.256 50.771,0.284 1.366,-27.242 c -1.85,-1.996 -14.194,-6.455 -26.562,-6.524 z"
         id="path17"
         inkscape:connector-curvature="0"
         style="fill-opacity:0;stroke:#666666;stroke-width:4;stroke-linecap:round;stroke-linejoin:round" />
      <path
         d="m 127.328,181.705 c 0,0 -0.837,0.358 -2.954,1.745 -8.719,5.674 -19.936,26.695 -40.633,80.813 l 13.705,6.923 32.363,-54.515"
         id="path19"
         inkscape:connector-curvature="0"
         style="fill:#ffc46b" />
      <path
         d="m 127.328,181.705 c 0,0 -0.837,0.358 -2.954,1.745 -8.719,5.674 -19.936,26.695 -40.633,80.813 l 13.705,6.923 32.363,-54.515"
         id="path21"
         inkscape:connector-curvature="0"
         style="fill-opacity:0;stroke:#666666;stroke-width:4;stroke-linecap:round;stroke-linejoin:round" />
      <path
         d="m 150.921,201.884 9.491,-18.128 -18.829,-0.106 z"
         id="path23"
         inkscape:connector-curvature="0"
         style="fill:#def3ff" />
      <path
         d="m 150.921,201.884 9.491,-18.128 -18.829,-0.106 z"
         id="path25"
         inkscape:connector-curvature="0"
         style="fill-opacity:0;stroke:#666666;stroke-width:4;stroke-linecap:round;stroke-linejoin:round" />
      <path
         d="m 157.94,175.912 -1.193,-13.408 -5.585,-3.677 -5.626,3.613 -1.344,13.395 -4.543,2.123 c 0,0 0.166,9.957 11.35,10.019 11.184,0.063 11.462,-9.891 11.462,-9.891 z"
         id="path27"
         inkscape:connector-curvature="0"
         style="fill:#ffecd0" />
      <path
         d="m 157.94,175.912 -1.193,-13.408 -5.585,-3.677 -5.626,3.613 -1.344,13.395 -4.543,2.123 c 0,0 0.166,9.957 11.35,10.019 11.184,0.063 11.462,-9.891 11.462,-9.891 z"
         id="path29"
         inkscape:connector-curvature="0"
         style="fill-opacity:0;stroke:#666666;stroke-width:4;stroke-linecap:round;stroke-linejoin:round" />
      <path
         d="m 97.85,100.053 c 0,0 -23.639,-7.571 -25.973,14.282 -1.373,12.856 6.326,19.58 23.406,21.651"
         id="path31"
         inkscape:connector-curvature="0"
         style="fill:#ffecd0" />
      <path
         d="m 97.85,100.053 c 0,0 -23.639,-7.571 -25.973,14.282 -1.373,12.856 6.326,19.58 23.406,21.651"
         id="path33"
         inkscape:connector-curvature="0"
         style="fill-opacity:0;stroke:#666666;stroke-width:4;stroke-linecap:round;stroke-linejoin:round" />
      <path
         d="m 80.962,116.502 c 0,0 3.325,-1.125 6.342,-0.784"
         id="path35"
         inkscape:connector-curvature="0"
         style="fill:#ffecd0" />
      <path
         d="m 80.962,116.502 c 0,0 3.325,-1.125 6.342,-0.784"
         id="path37"
         inkscape:connector-curvature="0"
         style="fill-opacity:0;stroke:#666666;stroke-width:4;stroke-linecap:round;stroke-linejoin:round" />
      <path
         d="m 219.991,113.097 c 0,0 24.705,-2.407 22.372,19.446 -1.374,12.856 -10.317,17.803 -27.45,16.22"
         id="path39"
         inkscape:connector-curvature="0"
         style="fill:#ffecd0" />
      <path
         d="m 219.991,113.097 c 0,0 24.705,-2.407 22.372,19.446 -1.374,12.856 -10.317,17.803 -27.45,16.22"
         id="path41"
         inkscape:connector-curvature="0"
         style="fill-opacity:0;stroke:#666666;stroke-width:4;stroke-linecap:round;stroke-linejoin:round" />
      <path
         d="m 233.025,132.742 c 0,0 -3.012,-1.802 -6.033,-2.105"
         id="path43"
         inkscape:connector-curvature="0"
         style="fill:#ffecd0" />
      <path
         d="m 233.025,132.742 c 0,0 -3.012,-1.802 -6.033,-2.105"
         id="path45"
         inkscape:connector-curvature="0"
         style="fill-opacity:0;stroke:#666666;stroke-width:4;stroke-linecap:round;stroke-linejoin:round" />
      <path
         d="M 151.042,180.347 C 47.328,169.27 73.628,18.042 167.308,28.047 c 93.678,10.005 87.448,163.378 -16.266,152.3"
         id="path47"
         inkscape:connector-curvature="0"
         style="fill:#ffecd0" />
      <path
         d="M 151.042,180.347 C 47.328,169.27 73.628,18.042 167.308,28.047 c 93.678,10.005 87.448,163.378 -16.266,152.3 z"
         id="path49"
         inkscape:connector-curvature="0"
         style="fill-opacity:0;stroke:#666666;stroke-width:4;stroke-linecap:round;stroke-linejoin:round" />
      <path
         d="m 193.147,118.509 c -0.678,6.358 -3.328,11.29 -5.918,11.014 -2.587,-0.276 -4.135,-5.657 -3.458,-12.015 0.68,-6.359 3.331,-11.291 5.918,-11.015 2.59,0.277 4.138,5.657 3.458,12.016"
         id="path51"
         inkscape:connector-curvature="0"
         style="fill:#666666" />
      <path
         d="m 122.947,111.012 c -0.678,6.358 0.869,11.738 3.458,12.014 2.588,0.278 5.239,-4.655 5.917,-11.013 0.68,-6.359 -0.869,-11.74 -3.457,-12.016 -2.59,-0.276 -5.239,4.656 -5.918,11.015"
         id="path53"
         inkscape:connector-curvature="0"
         style="fill:#666666" />
      <path
         d="m 153.221,133.578 c 0,0 -1.585,4.702 2.658,4.885"
         id="path55"
         inkscape:connector-curvature="0"
         style="fill-opacity:0;stroke:#666666;stroke-width:4;stroke-linecap:round;stroke-linejoin:round" />
      <path
         d="m 124.48,43.959 c 0,0 11.035,23.806 42.607,34.218 l -0.435,-24.183 c 0,0 7.956,19.181 37.753,27.392 l -1.314,-15.455 c 0,0 26.933,17.324 30.621,43.431 0,0 24.03,-46.645 -17.227,-74.685 0,0 -12.12,-32.47 -77.562,-22.363 -67.068,10.358 -53.141,82.219 -53.141,82.219 0,0 8.057,-36.75 38.698,-50.574"
         id="path57"
         inkscape:connector-curvature="0"
         style="fill:#997b5c" />
      <path
         d="m 124.48,43.959 c 0,0 11.035,23.806 42.607,34.218 l -0.435,-24.183 c 0,0 7.956,19.181 37.753,27.392 l -1.314,-15.455 c 0,0 26.933,17.324 30.621,43.431 0,0 24.03,-46.645 -17.227,-74.685 0,0 -12.12,-32.47 -77.562,-22.363 -67.068,10.358 -53.141,82.219 -53.141,82.219 0,0 8.057,-36.75 38.698,-50.574 z"
         id="path59"
         inkscape:connector-curvature="0"
         style="fill-opacity:0;stroke:#666666;stroke-width:4;stroke-linecap:round;stroke-linejoin:round" />
      <path
         d="m 150.335,11.2 c 0,0 -23.033,2.851 -37.205,-5.702 0,0 -3.274,8.237 9.815,15.166"
         id="path61"
         inkscape:connector-curvature="0"
         style="fill:#997b5c" />
      <path
         d="m 150.335,11.2 c 0,0 -23.033,2.851 -37.205,-5.702 0,0 -3.274,8.237 9.815,15.166"
         id="path63"
         inkscape:connector-curvature="0"
         style="fill-opacity:0;stroke:#666666;stroke-width:4;stroke-linecap:round;stroke-linejoin:round" />
      <path
         d="m 123.431,80.411 c 3.125,-5.7 10.442,-5.169 13.732,0.126"
         id="path65"
         inkscape:connector-curvature="0"
         style="fill-opacity:0;stroke:#666666;stroke-width:4;stroke-linecap:round;stroke-linejoin:round" />
      <path
         d="m 199.136,88.496 c -1.851,-6.232 -9.115,-7.258 -13.448,-2.776"
         id="path67"
         inkscape:connector-curvature="0"
         style="fill-opacity:0;stroke:#666666;stroke-width:4;stroke-linecap:round;stroke-linejoin:round" />
      <path
         d="m 166.508,214.879 15.383,13.979 c 10.503,9.469 20.072,5.434 17.951,-5.678 -1.919,-10.049 -16.153,-33.201 -21.354,-38.88 -1.628,-1.787 -6.006,-3.601 -6.006,-3.601"
         id="path69"
         inkscape:connector-curvature="0"
         style="fill:#ffc46b" />
      <path
         d="m 166.508,214.879 15.383,13.979 c 10.503,9.469 20.072,5.434 17.951,-5.678 -1.919,-10.049 -16.153,-33.201 -21.354,-38.88 -1.628,-1.787 -6.006,-3.601 -6.006,-3.601"
         id="path71"
         inkscape:connector-curvature="0"
         style="fill-opacity:0;stroke:#666666;stroke-width:4;stroke-linecap:round;stroke-linejoin:round" />
      <path
         d="m 188.953,208.554 5.91,-29.02 10.98,1.31 c 0,0 8.087,35.088 -4.266,50.897 -9.489,12.145 -20.866,-2.749 -20.866,-2.749"
         id="path73"
         inkscape:connector-curvature="0"
         style="fill:#ffc46b" />
      <path
         d="m 188.953,208.554 5.91,-29.02 10.98,1.31 c 0,0 8.087,35.088 -4.266,50.897 -9.489,12.145 -20.866,-2.749 -20.866,-2.749"
         id="path75"
         inkscape:connector-curvature="0"
         style="fill-opacity:0;stroke:#666666;stroke-width:4;stroke-linecap:round;stroke-linejoin:round" />
      <path
         d="m 124.426,204.353 -14.672,89.542 h 82.603 l -14.671,-89.542"
         id="path77"
         inkscape:connector-curvature="0"
         style="fill:#ffc46b" />
      <path
         d="m 124.426,204.353 -14.672,89.542 h 82.603 l -14.671,-89.542"
         id="path79"
         inkscape:connector-curvature="0"
         style="fill-opacity:0;stroke:#666666;stroke-width:4;stroke-linecap:round;stroke-linejoin:round" />
      <path
         d="m 154.717,146.253 c 4.975,0.504 9.445,24.208 -2.659,22.983 -12.105,-1.224 -2.317,-23.486 2.659,-22.983"
         id="path81"
         inkscape:connector-curvature="0"
         style="fill:#f09a96" />
      <path
         d="m 154.717,146.253 c 4.975,0.504 9.445,24.208 -2.659,22.983 -12.105,-1.224 -2.317,-23.486 2.659,-22.983 z"
         id="path83"
         inkscape:connector-curvature="0"
         style="fill-opacity:0;stroke:#666666;stroke-width:4;stroke-linecap:round;stroke-linejoin:round" />
      <path
         d="m 212.474,201.832 c 0,0 7.39,-6.812 2.628,-20.631 0,0 2.098,-9.017 -1.895,-17.299 -3.993,-8.281 -10.264,-10.388 -13.385,-6.583 -3.122,3.807 3.784,7.456 4.634,12.152 0.85,4.696 -0.856,7.559 -0.856,7.559 0,0 -11.531,-1.747 -14.347,8.06 -2.415,8.411 -0.432,14.409 7.412,18.585 7.844,4.174 15.809,-1.843 15.809,-1.843"
         id="path85"
         inkscape:connector-curvature="0"
         style="fill:#ffecd0" />
      <path
         d="m 212.474,201.832 c 0,0 7.39,-6.812 2.628,-20.631 0,0 2.098,-9.017 -1.895,-17.299 -3.993,-8.281 -10.264,-10.388 -13.385,-6.583 -3.122,3.807 3.784,7.456 4.634,12.152 0.85,4.696 -0.856,7.559 -0.856,7.559 0,0 -11.531,-1.747 -14.347,8.06 -2.415,8.411 -0.432,14.409 7.412,18.585 7.844,4.174 15.809,-1.843 15.809,-1.843 z"
         id="path87"
         inkscape:connector-curvature="0"
         style="fill-opacity:0;stroke:#666666;stroke-width:4;stroke-linecap:round;stroke-linejoin:round" />
    </g>
  </g>
</svg>
