<?xml version="1.0" standalone="no"?>
<!DOCTYPE svg PUBLIC "-//W3C//DTD SVG 20010904//EN"
 "http://www.w3.org/TR/2001/REC-SVG-20010904/DTD/svg10.dtd">
<svg version="1.0" xmlns="http://www.w3.org/2000/svg"
 width="794.000000pt" height="1123.000000pt" viewBox="0 0 794.000000 1123.000000"
 preserveAspectRatio="xMidYMid meet">

<g transform="translate(0.000000,1123.000000) scale(0.100000,-0.100000)"
fill="#000000" stroke="none">
<path d="M3715 10983 c-284 -16 -566 -51 -802 -99 -1081 -217 -1977 -757
-2445 -1474 -155 -237 -255 -478 -309 -749 -31 -149 -38 -462 -15 -619 55
-375 213 -725 474 -1052 96 -120 298 -322 420 -420 l93 -75 -6 -45 c-19 -131
-128 -391 -227 -540 -168 -252 -466 -548 -795 -790 -92 -67 -102 -78 -103
-107 l0 -31 313 153 c622 304 1204 566 1660 746 83 32 155 59 161 59 7 0 93
-27 192 -59 495 -164 973 -244 1529 -258 1202 -28 2317 320 3095 968 116 96
314 295 402 404 506 627 625 1410 318 2098 -192 431 -549 834 -1015 1147 -631
424 -1466 686 -2348 739 -161 10 -463 12 -592 4z m675 -224 c1390 -102 2594
-760 3043 -1664 135 -272 191 -507 190 -795 -1 -357 -100 -673 -311 -996 -436
-665 -1287 -1169 -2318 -1373 -529 -105 -1125 -125 -1679 -56 -350 44 -753
141 -1063 256 -72 27 -115 38 -132 34 -71 -18 -658 -260 -979 -404 -62 -28
-115 -51 -117 -51 -2 0 24 40 57 90 121 181 211 403 264 653 27 128 27 129 7
143 -11 7 -75 58 -143 112 -458 366 -744 804 -841 1284 -33 164 -33 462 0 626
86 429 326 830 692 1159 649 585 1611 941 2674 993 188 9 446 4 656 -11z"/>
</g>
</svg>
