<?xml version="1.0" standalone="no"?>
<!DOCTYPE svg PUBLIC "-//W3C//DTD SVG 20010904//EN"
 "http://www.w3.org/TR/2001/REC-SVG-20010904/DTD/svg10.dtd">
<svg version="1.0" xmlns="http://www.w3.org/2000/svg"
 width="800.000000pt" height="800.000000pt" viewBox="0 0 800.000000 800.000000"
 preserveAspectRatio="xMidYMid meet">

<g transform="translate(0.000000,800.000000) scale(0.100000,-0.100000)"
fill="#000000" stroke="none">
<path d="M3130 7360 c-196 -32 -263 -45 -390 -71 -222 -47 -342 -79 -575 -154
-83 -27 -262 -91 -290 -104 -11 -6 -74 -33 -140 -62 -661 -285 -1188 -703
-1493 -1184 -57 -90 -159 -308 -192 -410 -18 -55 -36 -108 -41 -117 -5 -10 -9
-201 -9 -424 0 -350 2 -413 16 -458 58 -178 72 -214 140 -348 274 -548 862
-1041 1614 -1357 69 -29 134 -56 145 -61 40 -19 345 -121 430 -145 430 -120
731 -171 1255 -215 287 -24 817 -2 1325 55 l140 16 20 -27 c400 -544 1338
-1341 1870 -1589 55 -26 108 -51 117 -56 20 -10 318 -13 318 -3 0 4 -15 27
-34 53 -124 172 -286 414 -371 556 -152 255 -196 340 -320 630 -7 17 -25 71
-40 120 -14 50 -31 100 -35 112 -18 43 -50 275 -50 355 0 45 8 131 17 191 l17
109 111 79 c290 208 555 448 752 684 42 50 85 101 97 115 35 41 149 200 193
270 106 168 171 298 234 470 l39 105 0 373 c0 205 -4 380 -9 390 -5 9 -23 62
-41 117 -33 102 -135 320 -192 410 -68 108 -207 283 -306 386 -312 326 -702
588 -1187 798 -66 29 -129 56 -140 62 -28 13 -207 77 -290 104 -257 82 -429
127 -675 173 -58 11 -145 29 -195 39 -83 17 -159 18 -940 19 -467 1 -870 -2
-895 -6z m1305 -100 c279 -24 479 -49 650 -81 28 -5 87 -16 133 -24 89 -17
312 -72 427 -106 92 -27 335 -107 360 -119 11 -5 56 -23 100 -40 44 -17 98
-39 120 -48 62 -26 415 -206 458 -233 316 -203 424 -286 609 -469 286 -283
439 -531 552 -897 25 -82 56 -305 56 -407 0 -221 -82 -478 -238 -750 -177
-308 -487 -662 -811 -926 -23 -19 -53 -43 -64 -54 -39 -33 -159 -121 -254
-184 -90 -61 -92 -62 -98 -109 -4 -27 -14 -81 -22 -122 -32 -161 -12 -453 44
-636 28 -92 64 -200 77 -230 7 -16 26 -61 42 -100 83 -205 286 -565 472 -839
29 -43 51 -80 48 -83 -15 -16 -253 114 -452 247 -385 256 -887 689 -1218 1050
-139 151 -256 314 -256 357 0 21 -18 24 -77 14 -32 -6 -110 -15 -173 -21 -63
-6 -151 -15 -195 -20 -137 -18 -491 -42 -690 -47 -139 -4 -269 1 -484 17 -162
11 -298 23 -301 25 -4 3 -65 11 -136 20 -71 9 -136 18 -144 21 -8 3 -62 14
-120 24 -136 25 -359 76 -445 102 -27 9 -90 28 -140 43 -93 28 -294 98 -330
115 -11 5 -58 24 -105 42 -100 39 -444 210 -521 260 -30 19 -88 56 -129 83
-104 67 -281 201 -365 276 -152 136 -323 330 -410 466 -21 32 -45 69 -55 83
-24 35 -125 245 -150 310 -29 76 -67 229 -82 330 -28 184 -10 488 38 642 46
149 70 213 120 314 104 212 258 418 451 604 180 173 285 253 590 449 47 30
399 209 468 237 59 25 249 98 320 124 28 10 91 30 140 45 50 15 101 31 115 36
56 20 344 88 470 112 246 47 425 71 720 97 121 10 766 11 885 0z"/>
</g>
</svg>
