<?xml version="1.0" encoding="UTF-8" standalone="no"?>
<svg
   version="1.0"
   width="794.000000pt"
   height="1123.000000pt"
   viewBox="0 0 794.000000 1123.000000"
   preserveAspectRatio="xMidYMid meet"
   id="svg19"
   sodipodi:docname="thinking_bubble_right_2.svg"
   inkscape:version="1.1.1 (c3084ef, 2021-09-22)"
   xmlns:inkscape="http://www.inkscape.org/namespaces/inkscape"
   xmlns:sodipodi="http://sodipodi.sourceforge.net/DTD/sodipodi-0.dtd"
   xmlns="http://www.w3.org/2000/svg"
   xmlns:svg="http://www.w3.org/2000/svg">
  <defs
     id="defs23" />
  <sodipodi:namedview
     id="namedview21"
     pagecolor="#505050"
     bordercolor="#eeeeee"
     borderopacity="1"
     inkscape:pageshadow="0"
     inkscape:pageopacity="0"
     inkscape:pagecheckerboard="0"
     inkscape:document-units="pt"
     showgrid="false"
     inkscape:zoom="0.41406946"
     inkscape:cx="503.53871"
     inkscape:cy="567.53763"
     inkscape:window-width="1312"
     inkscape:window-height="842"
     inkscape:window-x="0"
     inkscape:window-y="38"
     inkscape:window-maximized="0"
     inkscape:current-layer="svg19" />
  <g
     transform="matrix(0.08623267,0,0,-0.08623267,2.1339353,971.84566)"
     fill="#000000"
     stroke="none"
     id="g17">
    <path
       d="m 4213,10969 c -69,-12 -164,-48 -295,-113 -282,-142 -441,-299 -626,-622 -23,-39 -47,-75 -54,-81 -9,-8 -45,-2 -126,18 -279,71 -591,62 -811,-22 -100,-38 -242,-111 -306,-157 -137,-97 -269,-240 -365,-395 l -55,-88 -180,7 c -272,10 -418,-17 -610,-111 -178,-86 -352,-234 -456,-386 -54,-79 -133,-246 -156,-329 -14,-53 -18,-103 -18,-265 0,-231 8,-270 96,-445 158,-315 451,-543 793,-616 40,-9 152,-18 256,-21 l 185,-6 19,-96 c 42,-220 153,-478 283,-660 223,-312 582,-555 967,-655 169,-44 294,-58 506,-58 169,0 212,4 320,26 219,44 413,118 597,228 58,35 110,62 114,61 5,-2 66,-27 136,-57 149,-64 324,-119 438,-137 111,-18 339,-16 455,5 216,38 442,132 612,253 102,72 250,217 311,303 69,100 162,283 201,400 l 35,105 223,6 c 207,5 229,8 308,33 171,56 285,132 445,297 70,72 112,125 137,174 82,158 115,324 97,500 -34,336 -192,555 -553,767 -52,31 -54,36 -91,168 -80,293 -269,523 -550,672 -165,86 -304,125 -487,135 -116,6 -118,7 -118,74 0,50 -49,219 -90,314 -158,358 -507,656 -900,764 -68,19 -101,21 -355,20 -154,-1 -303,-5 -332,-10 z m 714,-138 c 59,-21 137,-53 173,-71 247,-123 459,-335 576,-575 50,-104 77,-200 99,-357 8,-61 18,-114 21,-117 3,-3 64,-8 137,-12 73,-4 161,-12 197,-19 372,-68 675,-320 784,-652 13,-42 32,-114 41,-160 l 17,-83 104,-54 c 239,-123 413,-316 470,-521 9,-31 18,-116 21,-195 6,-172 -9,-253 -68,-375 -36,-72 -59,-102 -153,-196 -119,-118 -217,-187 -326,-227 -114,-43 -186,-51 -393,-44 -121,4 -196,3 -208,-3 -25,-14 -43,-51 -83,-173 -154,-468 -516,-789 -997,-882 -117,-22 -344,-30 -454,-16 -111,15 -274,69 -465,154 l -145,64 -103,-64 c -260,-160 -442,-225 -751,-269 -127,-18 -388,-5 -543,26 -337,69 -620,227 -866,484 -160,168 -258,332 -332,555 -35,104 -90,344 -90,391 0,17 -12,18 -212,17 -238,-2 -330,10 -468,64 -271,105 -512,351 -599,614 -66,198 -65,416 3,595 113,301 354,532 666,637 l 85,28 h 281 c 212,1 286,4 297,14 9,6 46,61 83,121 129,208 270,343 464,444 150,77 277,115 429,128 203,17 338,-2 634,-89 27,-8 77,52 152,184 96,168 140,226 247,328 153,146 323,250 503,308 113,36 94,35 392,36 l 272,1 z"
       id="path9" />
  </g>
  <path
     d="m 720.30154,560.42382 c -6.63992,-2.41452 -10.95155,-8.7095 -10.95155,-15.86682 0,-10.00298 12.24504,-17.67769 22.1618,-13.88346 2.93191,1.0348 7.76094,5.5189 9.39936,8.7095 5.7776,11.12402 -8.36457,25.52487 -20.60961,21.04078 z m 9.65806,-11.38271 c 3.27684,-2.67322 3.27684,-3.79425 0.43117,-7.15732 -2.75945,-3.27684 -5.34643,-3.4493 -8.88197,-0.43116 -3.27684,2.75944 -3.36308,4.91526 -0.43117,7.6747 2.93191,2.75945 5.60513,2.75945 8.88197,-0.0862 z"
     id="path15"
     sodipodi:nodetypes="csccccccsc"
     style="stroke-width:0.0862327" />
  <path
     d="m 658.18662,491.85288 c -5.00149,1.63842 -10.69285,6.12252 -13.1936,10.43416 -2.84567,4.91526 -3.70801,12.50374 -2.06958,18.36756 1.63842,6.03629 8.96819,13.1936 15.78058,15.26318 18.88495,5.95005 36.47642,-11.38271 30.26767,-29.75027 -3.01815,-8.88197 -11.21025,-14.65956 -21.47194,-15.09072 -3.36307,-0.17246 -7.58847,0.17247 -9.31313,0.77609 z m 16.03928,10.86532 c 4.31163,2.67321 6.03628,6.55368 5.51889,12.50374 -0.34493,3.88048 -0.94856,5.43266 -2.84568,7.41601 -6.03628,6.29499 -16.55667,5.95005 -22.24803,-0.7761 -7.50224,-8.96819 0.60363,-22.59295 12.58997,-21.29946 2.32829,0.2587 5.43266,1.20725 6.98485,2.15581 z"
     id="path13"
     style="stroke-width:0.0862327" />
  <path
     d="m 571.53918,430.81157 c -10.34792,3.36307 -18.28133,10.34792 -23.45529,20.69584 -2.84568,5.60512 -3.10438,6.72614 -3.10438,13.71099 0,9.65806 1.63843,15.00449 6.38122,21.47194 6.20875,8.4508 17.24653,14.57332 29.06042,16.21174 5.51888,0.68986 15.00448,-0.94856 20.52337,-3.62177 6.29499,-3.01815 14.65955,-11.46895 18.28132,-18.36757 2.84569,-5.43265 2.93191,-5.95004 2.93191,-15.52188 0,-9.39936 -0.17246,-10.17544 -2.58697,-14.57332 -5.43266,-9.83052 -13.88346,-16.9016 -23.80022,-20.00597 -6.81238,-2.15582 -17.50524,-2.06959 -24.23138,0 z m 26.04227,11.3827 c 17.33277,9.2269 20.17844,30.18144 5.95005,43.63374 -5.77759,5.43266 -9.65806,6.72615 -19.74728,6.72615 -7.84717,0 -9.57183,-0.2587 -12.76244,-1.98335 -12.07257,-6.46745 -18.28132,-18.79873 -15.26318,-30.52637 1.37972,-5.51889 4.13917,-10.34792 7.84717,-13.71099 6.46745,-5.86383 12.07258,-7.76095 21.55817,-7.32978 5.95005,0.25869 7.84718,0.77609 12.41751,3.1906 z"
     id="path11"
     style="stroke-width:0.0862327" />
</svg>
