<?xml version="1.0" encoding="UTF-8" standalone="no"?>
<svg
   version="1.0"
   width="794.000000pt"
   height="1123.000000pt"
   viewBox="0 0 794.000000 1123.000000"
   preserveAspectRatio="xMidYMid meet"
   id="svg111"
   sodipodi:docname="thinking_bubble_right_1.svg"
   inkscape:version="1.1.1 (c3084ef, 2021-09-22)"
   xmlns:inkscape="http://www.inkscape.org/namespaces/inkscape"
   xmlns:sodipodi="http://sodipodi.sourceforge.net/DTD/sodipodi-0.dtd"
   xmlns="http://www.w3.org/2000/svg"
   xmlns:svg="http://www.w3.org/2000/svg">
  <defs
     id="defs115" />
  <sodipodi:namedview
     id="namedview113"
     pagecolor="#505050"
     bordercolor="#eeeeee"
     borderopacity="1"
     inkscape:pageshadow="0"
     inkscape:pageopacity="0"
     inkscape:pagecheckerboard="0"
     inkscape:document-units="pt"
     showgrid="false"
     inkscape:zoom="0.35355339"
     inkscape:cx="530.33009"
     inkscape:cy="576.99913"
     inkscape:window-width="1296"
     inkscape:window-height="842"
     inkscape:window-x="0"
     inkscape:window-y="38"
     inkscape:window-maximized="0"
     inkscape:current-layer="svg111" />
  <g
     transform="matrix(0.0866576,0,0,-0.0866576,6.7040148,982.58169)"
     fill="#000000"
     stroke="none"
     id="g109">
    <path
       d="m 3730,11185 c -500,-70 -918,-297 -1153,-626 -61,-86 -132,-234 -159,-334 -32,-118 -32,-357 0,-468 12,-42 22,-79 22,-81 0,-3 -27,6 -60,20 -83,34 -214,70 -323,91 -143,26 -429,24 -575,-5 -213,-43 -400,-117 -566,-227 -102,-67 -255,-210 -326,-304 -65,-86 -153,-263 -187,-376 -25,-84 -27,-102 -27,-280 0,-178 2,-196 27,-280 35,-118 123,-292 191,-380 30,-38 52,-73 50,-76 -2,-4 -33,-24 -69,-44 C 411,7724 236,7560 156,7423 -20,7125 31,6803 294,6535 c 281,-285 733,-460 1283,-496 254,-16 565,11 802,72 41,10 78,19 82,19 4,0 28,-39 54,-86 324,-594 1068,-944 1802,-849 678,89 1226,509 1418,1088 18,56 39,138 46,182 7,44 16,84 19,88 4,4 72,1 151,-9 273,-31 612,-10 869,56 489,125 868,398 1022,737 97,214 96,463 -2,679 -103,228 -317,431 -611,578 -81,41 -152,75 -159,78 -7,2 4,35 34,94 67,133 89,223 89,369 0,91 -5,139 -21,198 -82,302 -346,568 -702,708 -235,93 -388,121 -664,124 l -199,1 -17,65 c -24,93 -79,214 -135,300 -63,94 -247,279 -346,346 -233,159 -526,268 -827,307 -149,19 -417,20 -552,1 z m 650,-294 c 528,-92 911,-374 1081,-795 36,-90 37,-91 70,-90 19,1 95,-2 169,-7 527,-36 989,-290 1166,-641 60,-120 79,-205 79,-358 -1,-114 -5,-150 -27,-230 -15,-53 -38,-122 -52,-154 -14,-32 -26,-60 -26,-61 0,-2 17,-9 38,-15 66,-22 195,-93 273,-152 337,-254 450,-672 273,-1008 -101,-192 -261,-334 -507,-450 -244,-115 -521,-176 -907,-200 -96,-6 -217,-10 -269,-8 l -94,3 -14,-70 C 5522,6107 4957,5637 4269,5521 c -462,-78 -895,12 -1239,258 -106,76 -260,228 -336,332 -51,69 -157,242 -167,272 -2,6 -50,-8 -108,-31 -414,-161 -883,-182 -1265,-56 -108,35 -269,113 -356,171 -132,87 -267,230 -337,357 -97,173 -103,395 -16,573 68,138 168,244 336,358 46,32 86,59 87,61 2,1 -16,31 -41,66 -166,235 -235,445 -224,678 6,139 31,230 93,352 155,299 466,532 864,648 176,51 277,65 485,64 199,0 305,-15 450,-63 33,-11 61,-18 64,-16 2,2 -1,24 -7,48 -56,221 -20,477 95,672 199,339 657,586 1193,645 131,14 407,4 540,-19 z"
       id="path103" />
  </g>
  <path
     d="m 735.20307,586.32638 c -9.27237,2.59973 -16.55161,8.83908 -20.71117,17.76481 -1.90647,4.0729 -2.2531,5.97938 -2.2531,12.99865 0,7.36589 0.25997,8.75241 2.51307,13.34527 5.37277,10.91886 16.29163,18.11143 27.73045,18.19809 7.7992,0 12.73865,-1.38652 18.71806,-5.37277 16.98488,-11.52546 18.71799,-36.13622 3.37958,-49.91477 -7.62582,-6.84596 -19.58457,-9.70566 -29.37689,-7.01928 z m 18.71802,18.45807 c 9.70567,5.02615 11.95875,15.59837 4.76622,22.79095 -7.1926,7.27924 -18.80474,6.15269 -27.47049,-2.59972 -6.49933,-6.41267 -8.31914,-13.95188 -4.59286,-18.63139 2.42642,-3.11967 5.97937,-3.98625 15.51169,-3.72628 6.4127,0.25997 9.01238,0.69326 11.78544,2.16644 z"
     id="path532"
     style="stroke-width:0.678291" />
  <path
     d="m 588.52299,524.22153 c -9.18571,1.99313 -19.32465,7.3659 -25.47734,13.51858 -7.10592,7.19259 -9.44568,12.04541 -9.87896,21.0578 -0.4333,9.09905 1.64648,14.99178 7.88584,21.83772 5.80605,6.32601 12.82532,10.8322 21.6644,13.86522 6.58597,2.25309 8.05916,2.42641 20.53784,2.42641 12.4787,0 13.95188,-0.17332 20.53786,-2.42641 8.5791,-2.94636 15.77169,-7.45255 21.31777,-13.51859 6.41266,-6.84595 7.97249,-11.00552 7.97249,-20.88448 0,-7.71253 -0.17331,-8.57911 -2.94636,-13.6919 -5.63274,-10.31225 -18.45805,-19.06468 -32.75656,-22.18435 -7.62587,-1.64649 -21.14446,-1.73315 -28.85698,0 z m 24.87073,19.49796 c 12.73867,1.73315 21.92437,7.71253 21.92437,14.29851 0,8.40579 -8.31914,13.86521 -22.53097,14.81844 -12.04541,0.77993 -26.1706,-4.15956 -33.96979,-11.95874 -3.63961,-3.63962 -4.15956,-4.59285 -4.15956,-7.71253 0,-4.76617 2.8597,-7.27924 9.7923,-9.01239 6.49933,-1.47318 19.67129,-1.73316 28.94365,-0.43329 z"
     id="path648"
     style="stroke-width:0.678291" />
</svg>
