<?xml version="1.0" encoding="UTF-8" standalone="no"?>
<svg
   version="1.0"
   width="794.000000pt"
   height="1123.000000pt"
   viewBox="0 0 794.000000 1123.000000"
   preserveAspectRatio="xMidYMid meet"
   id="svg19"
   sodipodi:docname="thinking_bubble_left_2.svg"
   inkscape:version="1.1.1 (c3084ef, 2021-09-22)"
   xmlns:inkscape="http://www.inkscape.org/namespaces/inkscape"
   xmlns:sodipodi="http://sodipodi.sourceforge.net/DTD/sodipodi-0.dtd"
   xmlns="http://www.w3.org/2000/svg"
   xmlns:svg="http://www.w3.org/2000/svg">
  <defs
     id="defs23" />
  <sodipodi:namedview
     id="namedview21"
     pagecolor="#505050"
     bordercolor="#eeeeee"
     borderopacity="1"
     inkscape:pageshadow="0"
     inkscape:pageopacity="0"
     inkscape:pagecheckerboard="0"
     inkscape:document-units="pt"
     showgrid="false"
     inkscape:zoom="0.41406946"
     inkscape:cx="528.89677"
     inkscape:cy="748.66667"
     inkscape:window-width="773"
     inkscape:window-height="842"
     inkscape:window-x="0"
     inkscape:window-y="38"
     inkscape:window-maximized="0"
     inkscape:current-layer="svg19" />
  <g
     transform="matrix(0.08842538,0,0,-0.08842538,93.777573,934.97856)"
     fill="#000000"
     stroke="none"
     id="g17">
    <path
       d="m 3085,10281 c -146,-39 -326,-129 -467,-232 -275,-203 -472,-521 -518,-836 l -12,-83 h -62 c -358,0 -733,-202 -932,-500 -73,-111 -115,-205 -149,-338 -13,-51 -31,-102 -40,-112 -9,-10 -43,-32 -76,-50 -138,-73 -301,-220 -386,-348 -90,-136 -139,-334 -130,-532 6,-142 25,-214 91,-350 69,-143 288,-353 451,-433 146,-72 186,-80 435,-85 l 225,-4 30,-96 c 82,-265 251,-514 462,-679 264,-206 561,-307 903,-307 225,1 395,41 664,160 55,24 106,44 113,44 6,0 54,-26 105,-57 257,-156 538,-243 838,-258 714,-37 1368,333 1670,943 62,125 124,307 147,434 l 18,98 h 128 c 70,0 171,5 224,11 421,47 803,368 938,789 24,72 28,108 33,232 5,169 -8,278 -45,382 -114,317 -354,564 -669,689 -155,61 -229,72 -479,70 l -220,-1 -75,115 c -173,268 -432,463 -727,548 -198,58 -480,56 -718,-5 -113,-28 -121,-29 -133,-13 -7,10 -48,76 -90,147 -127,213 -265,361 -441,474 -79,51 -307,159 -376,178 -49,14 -114,18 -360,21 -268,2 -307,1 -370,-16 z m 735,-128 c 207,-74 362,-173 520,-332 85,-86 118,-128 172,-221 105,-182 148,-247 173,-260 18,-10 38,-7 121,19 133,40 179,50 297,61 280,27 534,-34 760,-183 153,-101 264,-222 375,-408 29,-48 59,-92 68,-100 13,-11 73,-14 288,-14 310,0 332,-4 501,-84 115,-55 241,-146 316,-229 109,-120 207,-297 246,-443 23,-87 23,-317 0,-411 -56,-230 -189,-428 -388,-578 -205,-154 -417,-209 -745,-196 l -160,7 -13,-80 c -33,-218 -110,-454 -196,-605 -221,-388 -641,-686 -1084,-770 -140,-27 -401,-40 -505,-26 -309,41 -490,105 -753,266 -58,35 -110,64 -116,64 -6,0 -81,-31 -166,-69 -292,-129 -418,-157 -665,-148 -164,6 -263,22 -398,67 -387,129 -684,436 -814,840 -32,103 -58,156 -81,169 -11,6 -93,7 -213,4 -229,-7 -305,5 -435,67 -104,50 -190,116 -297,228 -136,144 -184,256 -194,462 -7,133 11,264 50,360 71,175 249,348 467,456 74,36 77,39 83,78 51,332 219,580 501,741 138,79 364,135 545,135 120,0 116,-3 130,108 16,132 37,223 72,311 89,226 262,432 483,573 100,65 145,86 280,135 l 120,43 285,-3 285,-3 z"
       id="path9" />
  </g>
  <path
     d="m 56.01742,557.46092 c -6.985606,2.21063 -12.467978,9.28467 -12.467978,16.18183 0,2.65278 0.707403,4.5097 2.918036,7.33932 4.332845,5.74765 6.985606,7.25087 12.910107,7.693 4.59812,0.3537 5.924501,0.0883 9.284665,-1.94535 2.210637,-1.32638 5.040249,-3.8023 6.278198,-5.65923 5.570807,-8.22356 0.176858,-21.22209 -9.992065,-24.0517 -3.979142,-1.0611 -4.067567,-1.0611 -8.930963,0.44213 z m 7.869859,10.61103 c 1.503231,0.79584 2.918038,2.3875 3.183315,3.71388 0.530552,1.94535 0.08843,2.82961 -2.210635,4.86339 -3.625441,3.27174 -6.455054,3.18332 -9.284665,-0.26528 -1.237956,-1.50323 -2.299061,-3.00647 -2.299061,-3.36016 0,-1.32638 2.918038,-4.68655 4.774971,-5.39393 2.652762,-1.06112 2.918037,-1.06112 5.836075,0.4421 z"
     id="path15"
     style="stroke-width:0.0884254" />
  <path
     d="m 118.55402,518.66544 c -19.276719,7.42773 -20.160978,33.33636 -1.4148,43.41686 5.48238,2.91802 16.18184,2.74118 22.19478,-0.44212 14.76703,-7.78143 17.7735,-25.90865 6.27819,-37.66922 -6.80875,-6.89719 -17.4198,-9.01939 -27.05817,-5.30552 z m 17.59665,10.25735 c 8.57728,6.36661 8.22357,18.21562 -0.79581,23.52115 -6.63191,3.80229 -16.97769,1.0611 -19.98414,-5.39395 -3.97915,-8.31199 -0.26527,-16.97769 8.40041,-19.80729 3.27172,-1.06112 9.81521,-0.17685 12.37954,1.68009 z"
     id="path13"
     style="stroke-width:0.0884254" />
  <path
     d="m 206.87858,454.3602 c -10.52263,3.36015 -19.45358,10.87632 -24.49383,20.60311 -2.56435,5.04025 -2.74119,5.92451 -2.74119,14.76704 0,8.22356 0.26526,9.99206 2.29907,14.23648 8.13512,17.59665 24.84752,26.88133 42.62102,23.87485 13.44067,-2.21062 25.1128,-10.61105 30.59518,-21.66421 2.21064,-4.5097 2.65277,-6.6319 3.00648,-14.41335 0.44212,-9.01939 0.35369,-9.10782 -2.7412,-15.56285 -5.65923,-11.31846 -13.6175,-18.39249 -24.58226,-21.84107 -6.89716,-2.12222 -17.15452,-2.12222 -23.96327,0 z m 24.22855,10.52261 c 9.90364,4.50969 16.62398,14.50177 16.62398,24.93597 0,7.95828 -2.03379,13.2638 -7.07404,18.8346 -14.50176,15.82814 -39.43772,12.20271 -48.72238,-7.16246 -1.14954,-2.29906 -2.12222,-6.36662 -2.38749,-9.90365 -0.3537,-5.12868 -0.0884,-6.72031 1.94536,-11.14158 3.80228,-8.40043 10.7879,-14.50176 19.09988,-16.88926 5.39395,-1.50323 15.6513,-0.88426 20.51469,1.32638 z"
     id="path11"
     style="stroke-width:0.0884254" />
</svg>
