<?xml version="1.0" standalone="no"?>
<!DOCTYPE svg PUBLIC "-//W3C//DTD SVG 20010904//EN"
 "http://www.w3.org/TR/2001/REC-SVG-20010904/DTD/svg10.dtd">
<svg version="1.0" xmlns="http://www.w3.org/2000/svg"
 width="794.000000pt" height="1123.000000pt" viewBox="0 0 794.000000 1123.000000"
 preserveAspectRatio="xMidYMid meet">

<g transform="translate(0.000000,1123.000000) scale(0.100000,-0.100000)"
fill="#000000" stroke="none">
<path d="M3750 11193 c-684 -70 -1248 -465 -1377 -965 l-17 -67 -121 6 c-276
14 -575 -45 -821 -161 -154 -73 -253 -143 -370 -260 -120 -120 -191 -229 -237
-366 -30 -90 -31 -103 -31 -245 0 -142 1 -155 32 -245 17 -52 48 -121 67 -154
20 -32 35 -60 33 -61 -2 -1 -46 -21 -98 -44 -195 -85 -351 -192 -491 -339
-112 -117 -186 -236 -231 -372 -30 -89 -32 -104 -32 -240 -1 -173 12 -229 85
-375 115 -233 321 -420 623 -566 288 -139 613 -209 968 -209 139 0 213 5 378
26 l56 6 17 -95 c53 -298 200 -562 444 -798 618 -596 1679 -654 2378 -130 196
146 370 348 461 534 16 31 32 57 37 57 5 0 44 -9 87 -20 387 -99 865 -100
1259 -4 487 120 864 374 1001 678 16 34 36 91 45 127 21 81 21 233 0 314 -38
144 -132 294 -258 411 -69 63 -232 179 -289 205 -16 7 -28 16 -28 21 0 5 22
36 48 71 354 457 295 1076 -141 1482 -405 378 -1045 497 -1592 297 -44 -16
-87 -32 -96 -36 -13 -6 -11 8 9 86 35 133 35 322 -1 459 -131 497 -651 877
-1320 964 -106 14 -378 18 -477 8z m506 -302 c385 -65 709 -221 924 -447 132
-140 209 -285 246 -464 19 -97 15 -284 -10 -382 -8 -32 -13 -58 -12 -58 2 0
29 9 61 20 163 56 442 83 635 61 217 -25 374 -70 567 -161 162 -77 288 -164
403 -280 201 -200 293 -404 294 -655 1 -222 -69 -423 -222 -640 l-50 -69 92
-59 c129 -84 269 -227 323 -332 69 -133 92 -250 73 -371 -62 -410 -495 -745
-1065 -826 -127 -18 -386 -15 -522 5 -133 21 -326 72 -454 122 -74 28 -96 33
-102 23 -4 -7 -30 -53 -58 -102 -149 -262 -382 -487 -639 -616 -394 -198 -862
-220 -1335 -65 -444 145 -802 436 -980 794 -43 85 -85 213 -99 296 l-7 40
-187 1 c-827 5 -1397 248 -1606 683 -53 112 -70 200 -63 345 6 136 20 194 77
309 97 194 279 362 492 454 46 19 85 37 86 39 2 1 -10 38 -27 81 -125 318 -93
609 94 858 221 294 694 501 1160 508 l125 2 11 35 c52 156 169 339 300 465
244 236 551 365 974 409 93 10 384 -4 501 -23z"/>
<path d="M2541 4849 c-134 -26 -287 -109 -351 -188 -165 -209 -90 -461 178
-595 133 -67 348 -87 506 -46 161 41 305 146 359 262 135 286 -146 581 -547
577 -56 -1 -121 -5 -145 -10z m381 -238 c60 -19 98 -57 98 -97 0 -81 -170
-198 -324 -225 -214 -36 -413 62 -381 188 15 62 120 123 245 143 72 11 314 5
362 -9z"/>
<path d="M1564 3950 c-109 -22 -206 -101 -257 -208 -28 -59 -32 -77 -32 -152
1 -72 5 -95 29 -147 31 -69 106 -147 172 -181 141 -72 322 -37 433 83 125 138
127 348 4 485 -93 103 -217 146 -349 120z m231 -210 c67 -32 80 -81 44 -160
-37 -81 -122 -148 -210 -165 -42 -8 -113 9 -150 36 -84 59 -79 207 8 265 73
47 234 60 308 24z"/>
</g>
</svg>
