<?xml version="1.0" encoding="UTF-8" standalone="no"?>
<svg
   version="1.0"
   width="794.000000pt"
   height="1123.000000pt"
   viewBox="0 0 794.000000 1123.000000"
   preserveAspectRatio="xMidYMid meet"
   id="svg17"
   sodipodi:docname="thinking_bubble_left_1.svg"
   inkscape:version="1.1.1 (c3084ef, 2021-09-22)"
   xmlns:inkscape="http://www.inkscape.org/namespaces/inkscape"
   xmlns:sodipodi="http://sodipodi.sourceforge.net/DTD/sodipodi-0.dtd"
   xmlns="http://www.w3.org/2000/svg"
   xmlns:svg="http://www.w3.org/2000/svg">
  <defs
     id="defs21" />
  <sodipodi:namedview
     id="namedview19"
     pagecolor="#505050"
     bordercolor="#eeeeee"
     borderopacity="1"
     inkscape:pageshadow="0"
     inkscape:pageopacity="0"
     inkscape:pagecheckerboard="0"
     inkscape:document-units="pt"
     showgrid="false"
     inkscape:zoom="0.41406946"
     inkscape:cx="432.29462"
     inkscape:cy="574.7828"
     inkscape:window-width="789"
     inkscape:window-height="842"
     inkscape:window-x="0"
     inkscape:window-y="38"
     inkscape:window-maximized="0"
     inkscape:current-layer="svg17" />
  <g
     transform="matrix(0.07588297,0,0,-0.07588297,181.78379,858.92413)"
     fill="#000000"
     stroke="none"
     id="g15">
    <path
       d="m 3750,11193 c -684,-70 -1248,-465 -1377,-965 l -17,-67 -121,6 c -276,14 -575,-45 -821,-161 -154,-73 -253,-143 -370,-260 -120,-120 -191,-229 -237,-366 -30,-90 -31,-103 -31,-245 0,-142 1,-155 32,-245 17,-52 48,-121 67,-154 20,-32 35,-60 33,-61 -2,-1 -46,-21 -98,-44 C 615,8546 459,8439 319,8292 207,8175 133,8056 88,7920 58,7831 56,7816 56,7680 c -1,-173 12,-229 85,-375 115,-233 321,-420 623,-566 288,-139 613,-209 968,-209 139,0 213,5 378,26 l 56,6 17,-95 c 53,-298 200,-562 444,-798 618,-596 1679,-654 2378,-130 196,146 370,348 461,534 16,31 32,57 37,57 5,0 44,-9 87,-20 387,-99 865,-100 1259,-4 487,120 864,374 1001,678 16,34 36,91 45,127 21,81 21,233 0,314 -38,144 -132,294 -258,411 -69,63 -232,179 -289,205 -16,7 -28,16 -28,21 0,5 22,36 48,71 354,457 295,1076 -141,1482 -405,378 -1045,497 -1592,297 -44,-16 -87,-32 -96,-36 -13,-6 -11,8 9,86 35,133 35,322 -1,459 -131,497 -651,877 -1320,964 -106,14 -378,18 -477,8 z m 506,-302 c 385,-65 709,-221 924,-447 132,-140 209,-285 246,-464 19,-97 15,-284 -10,-382 -8,-32 -13,-58 -12,-58 2,0 29,9 61,20 163,56 442,83 635,61 217,-25 374,-70 567,-161 162,-77 288,-164 403,-280 201,-200 293,-404 294,-655 1,-222 -69,-423 -222,-640 l -50,-69 92,-59 c 129,-84 269,-227 323,-332 69,-133 92,-250 73,-371 -62,-410 -495,-745 -1065,-826 -127,-18 -386,-15 -522,5 -133,21 -326,72 -454,122 -74,28 -96,33 -102,23 -4,-7 -30,-53 -58,-102 -149,-262 -382,-487 -639,-616 -394,-198 -862,-220 -1335,-65 -444,145 -802,436 -980,794 -43,85 -85,213 -99,296 l -7,40 -187,1 c -827,5 -1397,248 -1606,683 -53,112 -70,200 -63,345 6,136 20,194 77,309 97,194 279,362 492,454 46,19 85,37 86,39 2,1 -10,38 -27,81 -125,318 -93,609 94,858 221,294 694,501 1160,508 l 125,2 11,35 c 52,156 169,339 300,465 244,236 551,365 974,409 93,10 384,-4 501,-23 z"
       id="path9" />
  </g>
  <path
     d="m 77.798396,560.52592 c -8.271246,1.66943 -15.631891,7.66418 -19.501923,15.78367 -2.124724,4.47708 -2.428255,5.84297 -2.428255,11.5342 0.07588,5.46358 0.379414,7.20889 2.200606,11.1548 2.352373,5.23593 8.043595,11.15479 13.051872,13.73482 10.699502,5.46357 24.434312,2.80767 32.857324,-6.29829 9.48537,-10.47184 9.63714,-26.40728 0.30353,-36.80324 -7.057112,-7.81595 -16.466605,-11.07891 -26.483154,-9.10596 z m 17.528972,15.93542 c 5.084152,2.42827 6.070632,6.14653 3.33885,12.14127 -2.80768,6.14653 -9.25773,11.23069 -15.935426,12.5207 -3.187083,0.60706 -8.57478,-0.68295 -11.382445,-2.73179 -6.374173,-4.47709 -5.994758,-15.70777 0.607059,-20.10898 5.539465,-3.5665 17.756622,-4.55298 23.371962,-1.8212 z"
     id="path13"
     style="stroke-width:0.075883" />
  <path
     d="m 221.90005,472.26069 c -10.16831,1.97297 -21.77841,8.27125 -26.63493,14.26601 -12.52069,15.85953 -6.82946,34.98204 13.50717,45.15037 10.09244,5.08415 26.40728,6.60181 38.39679,3.49061 12.21715,-3.11121 23.1443,-11.07892 27.24199,-19.88133 10.24419,-21.70254 -11.07892,-44.08801 -41.50799,-43.78448 -4.24944,0.0759 -9.18184,0.37941 -11.00303,0.75882 z m 28.91141,18.06016 c 4.55298,1.44178 7.43654,4.32532 7.43654,7.36064 0,6.14652 -12.90011,15.02483 -24.58609,17.07368 -16.23895,2.73179 -31.33967,-4.70475 -28.9114,-14.26601 1.13823,-4.70474 9.10595,-9.3336 18.59132,-10.85127 5.46357,-0.83471 23.82725,-0.37941 27.46963,0.68296 z"
     id="path11"
     style="stroke-width:0.075883" />
</svg>
