<?xml version="1.0" standalone="no"?>
<!DOCTYPE svg PUBLIC "-//W3C//DTD SVG 20010904//EN"
 "http://www.w3.org/TR/2001/REC-SVG-20010904/DTD/svg10.dtd">
<svg version="1.0" xmlns="http://www.w3.org/2000/svg"
 width="980.000000pt" height="844.000000pt" viewBox="0 0 980.000000 844.000000"
 preserveAspectRatio="xMidYMid meet">

<g transform="translate(0.000000,844.000000) scale(0.100000,-0.100000)"
fill="#000000" stroke="none">
<path d="M9588 8407 c-24 -18 -43 -37 -41 -43 2 -6 -1069 -718 -2379 -1584
-1311 -865 -2391 -1580 -2400 -1589 -9 -9 -46 -97 -81 -196 -369 -1031 -773
-1957 -1039 -2385 -94 -151 -73 -140 -179 -91 -294 137 -671 134 -1000 -8
-457 -197 -794 -593 -916 -1077 -26 -102 -28 -122 -27 -314 0 -189 2 -213 27
-303 120 -448 476 -754 938 -808 164 -19 373 4 549 61 102 34 265 115 375 187
127 84 325 280 412 409 164 241 256 502 270 769 13 235 -45 477 -158 662 l-39
65 56 137 c241 585 662 1261 1095 1760 277 320 1961 1821 4358 3886 l393 339
-23 19 c-13 10 -51 45 -85 77 l-61 59 -45 -32z m-4320 -3416 c70 -36 113 -103
114 -179 2 -69 -18 -115 -66 -160 -174 -160 -433 42 -324 253 19 35 51 66 93
88 43 23 137 22 183 -2z m-2023 -2755 c111 -35 197 -88 285 -176 113 -113 176
-234 206 -400 35 -196 -5 -449 -103 -645 -113 -224 -330 -443 -548 -552 -254
-128 -556 -149 -777 -55 -214 92 -369 283 -423 522 -20 88 -22 265 -5 360 67
375 337 725 682 885 222 102 480 125 683 61z"/>
<path d="M4285 4898 c-202 -120 -365 -199 -515 -248 -252 -83 -789 -211 -1287
-306 l-192 -36 -47 41 c-164 144 -404 241 -644 260 -416 33 -831 -130 -1155
-454 -127 -128 -204 -232 -280 -377 -333 -641 -141 -1353 440 -1633 168 -81
309 -110 520 -109 243 1 421 45 647 161 148 75 263 159 388 283 212 210 344
434 410 696 64 249 61 472 -8 691 l-19 62 266 64 c146 36 525 127 842 203
l576 138 107 324 c60 178 106 325 104 327 -1 1 -70 -37 -153 -87z m-2555 -658
c384 -111 598 -475 525 -891 -81 -463 -482 -865 -953 -955 -94 -18 -278 -18
-364 1 -212 45 -403 184 -495 361 -73 141 -88 206 -88 384 1 173 16 251 79
397 155 363 504 646 886 718 109 21 312 13 410 -15z"/>
</g>
</svg>
