<?xml version="1.0" encoding="UTF-8" standalone="no"?>
<!-- Created with Inkscape (http://www.inkscape.org/) -->

<svg
   width="210mm"
   height="297mm"
   viewBox="0 0 210 297"
   version="1.1"
   id="svg5"
   inkscape:version="1.1.1 (c3084ef, 2021-09-22)"
   sodipodi:docname="books.svg"
   xmlns:inkscape="http://www.inkscape.org/namespaces/inkscape"
   xmlns:sodipodi="http://sodipodi.sourceforge.net/DTD/sodipodi-0.dtd"
   xmlns="http://www.w3.org/2000/svg"
   xmlns:svg="http://www.w3.org/2000/svg">
  <sodipodi:namedview
     id="namedview7"
     pagecolor="#505050"
     bordercolor="#eeeeee"
     borderopacity="1"
     inkscape:pageshadow="0"
     inkscape:pageopacity="0"
     inkscape:pagecheckerboard="0"
     inkscape:document-units="mm"
     showgrid="false"
     inkscape:zoom="0.37172445"
     inkscape:cx="552.82885"
     inkscape:cy="622.77314"
     inkscape:window-width="1512"
     inkscape:window-height="835"
     inkscape:window-x="0"
     inkscape:window-y="38"
     inkscape:window-maximized="1"
     inkscape:current-layer="layer1" />
  <defs
     id="defs2" />
  <g
     inkscape:label="Layer 1"
     inkscape:groupmode="layer"
     id="layer1">
    <path
       style="fill:#d38d5f;stroke-width:0.0960127"
       d="m 45.57568,116.75264 c -0.692423,-0.57624 -1.17376,-1.45514 -1.241003,-2.266 l -0.0432,-0.52093 4.5965,-0.024 c 5.891788,-0.0308 10.989102,0.002 11.6187,0.0743 0.271331,0.0312 0.571392,0.11389 0.666801,0.18365 0.167197,0.12226 0.167061,0.14802 -0.0038,0.71228 -0.379548,1.25356 -1.048883,2.0009 -1.985461,2.21685 -0.257842,0.0594 -2.8457,0.0975 -6.726909,0.099 l -6.307857,0.002 z m -1.260424,-5.79574 v -1.21575 h 8.504068 8.504068 l -0.06729,1.12815 c -0.03701,0.62048 -0.07805,1.14087 -0.09121,1.15642 -0.01316,0.0156 -3.809706,0.055 -8.436778,0.0876 l -8.412856,0.0593 z m 0,-28.86743 V 56.358044 h 8.497132 8.497132 V 82.08947 107.8209 h -8.497132 -8.497132 z m -1.5e-5,-28.852363 v -1.104669 l 8.473129,0.02452 8.473129,0.02452 0.02715,1.080144 0.02715,1.080144 h -8.500261 -8.500276 z m 0.026,-3.527948 c 0.123615,-1.178739 0.662546,-2.038743 1.545438,-2.466144 0.634579,-0.307194 2.034644,-0.384106 7.021711,-0.385733 4.738627,-0.0016 6.175082,0.0766 6.744138,0.366915 0.415524,0.211984 0.98705,0.800804 1.226238,1.263343 0.128342,0.248185 0.422811,1.383082 0.429076,1.653677 9.43e-4,0.03961 -3.828088,0.07201 -8.508898,0.07201 h -8.51055 z"
       id="path21"
       sodipodi:nodetypes="csccsssscccccccssscccccccccccccccccccccscsscscc" />
    <path
       d="m 143.46924,117.26501 c -0.85684,-0.72435 -1.09746,-1.24969 -1.20872,-2.63893 -0.13667,-1.70664 -0.15935,-4.48395 -0.0372,-4.55832 0.0986,-0.0601 8.37394,-0.1134 16.86306,-0.10872 5.18152,0.003 4.74727,-0.0199 4.89742,0.2568 0.14709,0.27106 0.18474,3.86095 0.0515,4.91476 -0.10922,0.86417 -0.50279,1.53835 -1.27952,2.19184 -0.82527,0.69431 -1.31571,0.80492 -3.69768,0.83395 -5.96773,0.0727 -13.69126,-0.0563 -14.45328,-0.24148 -0.34188,-0.0831 -0.72332,-0.30138 -1.1356,-0.6499 z m -1.32036,-10.28141 c -0.0288,-0.98206 0.039,-2.11293 0.13006,-2.16867 0.0849,-0.052 8.30578,-0.10316 16.11811,-0.10037 5.01782,0.002 5.34796,0.01 5.52173,0.12965 0.18585,0.12846 0.25847,1.97708 0.0951,2.41998 -0.10044,0.27226 -0.19818,0.30583 -0.93796,0.32217 -1.46753,0.0324 -19.12238,-0.0196 -20.53281,-0.0605 -0.36329,-0.0105 -0.37925,-0.0325 -0.3942,-0.54228 z m 0.0958,-4.97551 c -0.1517,-0.58672 -0.17582,-37.680495 -0.0249,-38.301525 0.044,-0.18109 0.22757,-0.2366 0.89416,-0.27037 1.36372,-0.0691 6.10494,-0.11799 12.33505,-0.1272 7.86283,-0.0116 8.26489,-0.007 8.40512,0.089 0.19783,0.13598 0.2212,0.58629 0.2245,4.3254 0.002,1.95803 0.006,5.13492 0.0103,7.05974 0.006,3.17674 0.009,13.59021 0.004,17.85879 -10e-4,0.94479 -0.004,3.45185 -0.005,5.57125 -0.002,2.119395 -0.054,3.881245 -0.11609,3.915225 -0.35457,0.19412 -17.47545,0.30556 -20.84753,0.13569 -0.73927,-0.0373 -0.82934,-0.0635 -0.87913,-0.25603 z m -0.15039,-42.222118 c -0.01,-0.532649 -0.011,-1.133114 -0.003,-1.334372 l 0.0148,-0.365916 3.46991,0.0026 c 1.90846,0.0014 5.70813,-0.0031 8.44372,-0.01 9.26345,-0.02342 9.87077,-0.0207 9.93499,0.04436 0.0722,0.07319 0.14764,1.663313 0.10722,2.260901 -0.0202,0.29858 -0.0822,0.4045 -0.26446,0.45162 -0.54723,0.14148 -19.40022,0.10549 -21.19086,-0.0405 l -0.49488,-0.0403 z m 0.0691,-4.595953 c -0.10219,-0.643893 -0.0673,-2.974114 0.0621,-4.156765 0.19401,-1.771885 0.81711,-2.732001 2.1031,-3.240603 0.6171,-0.244065 7.88519,-0.382428 14.21732,-0.270658 3.01287,0.05318 3.22621,0.09718 4.16869,0.859726 0.9494,0.768157 1.13822,1.187369 1.25736,2.791599 0.11599,1.561811 0.13853,3.764409 0.0426,4.16032 -0.0497,0.205165 -0.18341,0.257755 -0.71229,0.280204 -1.54188,0.06545 -9.37718,0.09037 -16.91976,0.05382 -4.62065,-0.0224 -4.1382,0.03222 -4.21912,-0.477639 z"
       style="fill:#d3bc5f;stroke-width:0.0315551"
       id="path168" />
    <path
       d="m 108.8924,119.19111 c -1.01077,-0.37027 -1.98719,-1.3487 -2.34416,-2.34896 -0.13639,-0.38219 -0.18267,-1.57056 -0.18715,-4.80467 l -0.006,-4.29687 5.65023,2.7e-4 c 3.10762,1.3e-4 6.97481,0.0403 8.59375,0.0892 l 2.94353,0.0889 v 4.41742 4.41742 l -0.59592,0.81897 c -0.69311,0.95255 -1.13891,1.33373 -1.82193,1.55788 -0.77171,0.25327 -11.56049,0.30652 -12.23241,0.0604 z m -2.53725,-15.64588 v -1.62401 h 8.66142 8.66144 v 1.62401 1.62402 h -8.66144 -8.66142 z m 0,-34.172033 V 39.667225 h 8.66142 8.66144 V 69.373197 99.07919 h -8.66144 -8.66142 z m 0,-34.172023 v -1.624017 h 8.57605 8.57605 l 0.0839,0.507506 c 0.0462,0.27913 0.0845,1.009936 0.0854,1.624017 l 0.002,1.11651 h -8.66145 -8.66143 z m 0.0226,-8.627588 c 0.0508,-4.995501 0.0381,-4.927926 1.12939,-6.050731 1.10705,-1.13908 0.73903,-1.08292 7.40388,-1.129784 l 5.91688,-0.04161 0.80972,0.549867 c 0.88891,0.603653 1.37685,1.176075 1.621,1.901705 0.24008,0.713455 0.41284,3.395413 0.41627,6.462235 l 0.003,2.740528 h -8.6726 -8.67263 z"
       style="fill:#deaa87;stroke-width:0.0358073"
       id="path364" />
    <path
       d="m 80.676629,117.55198 c -0.9644,-0.13988 -1.80684,-0.98744 -2.15868,-2.17182 -0.0852,-0.28681 -0.15492,-0.9411 -0.15492,-1.45397 v -0.9325 h 6.40892 6.4089 l -0.0423,1.18961 c -0.0607,1.70937 -0.43706,2.46093 -1.56672,3.12888 l -0.47585,0.28136 -3.96538,0.0146 c -2.18097,0.008 -4.18527,-0.0173 -4.45402,-0.0562 z m -2.3136,-7.88922 v -1.32179 h 6.3975 6.3975 v 1.32179 1.3218 h -6.3975 -6.3975 z m 0,-33.732247 V 45.634938 h 6.3975 6.3975 v 30.295575 30.295577 h -6.3975 -6.3975 z m 0,-33.732245 v -1.321797 h 6.39749 6.3975 v 1.321797 1.321797 h -6.39749 -6.3975 z m 0,-4.263428 c 0,-1.590103 0.51809,-2.727262 1.5249,-3.347038 l 0.52035,-0.320313 h 4.34387 c 4.25126,0 4.35288,0.0048 4.76684,0.228591 0.59216,0.320023 1.10524,0.851894 1.36063,1.410437 0.16904,0.369717 0.22684,0.752962 0.25912,1.718335 l 0.0415,1.242489 h -6.40862 -6.40864 z"
       style="fill:#ffeeaa;stroke-width:0.027978"
       id="path480" />
  </g>
</svg>
