<?xml version="1.0" encoding="UTF-8" standalone="no"?>
<!-- Created with Inkscape (http://www.inkscape.org/) -->

<svg
   width="210mm"
   height="297mm"
   viewBox="0 0 210 297"
   version="1.1"
   id="svg5"
   inkscape:version="1.1.1 (c3084ef, 2021-09-22)"
   sodipodi:docname="book_4.svg"
   xmlns:inkscape="http://www.inkscape.org/namespaces/inkscape"
   xmlns:sodipodi="http://sodipodi.sourceforge.net/DTD/sodipodi-0.dtd"
   xmlns="http://www.w3.org/2000/svg"
   xmlns:svg="http://www.w3.org/2000/svg">
  <sodipodi:namedview
     id="namedview7"
     pagecolor="#505050"
     bordercolor="#eeeeee"
     borderopacity="1"
     inkscape:pageshadow="0"
     inkscape:pageopacity="0"
     inkscape:pagecheckerboard="0"
     inkscape:document-units="mm"
     showgrid="false"
     inkscape:zoom="0.69239103"
     inkscape:cx="449.89029"
     inkscape:cy="405.1179"
     inkscape:window-width="1512"
     inkscape:window-height="835"
     inkscape:window-x="0"
     inkscape:window-y="38"
     inkscape:window-maximized="1"
     inkscape:current-layer="layer1" />
  <defs
     id="defs2" />
  <g
     inkscape:label="Layer 1"
     inkscape:groupmode="layer"
     id="layer1">
    <path
       d="m 143.46924,117.26501 c -0.85684,-0.72435 -1.09746,-1.24969 -1.20872,-2.63893 -0.13667,-1.70664 -0.15935,-4.48395 -0.0372,-4.55832 0.0986,-0.0601 8.37394,-0.1134 16.86306,-0.10872 5.18152,0.003 4.74727,-0.0199 4.89742,0.2568 0.14709,0.27106 0.18474,3.86095 0.0515,4.91476 -0.10922,0.86417 -0.50279,1.53835 -1.27952,2.19184 -0.82527,0.69431 -1.31571,0.80492 -3.69768,0.83395 -5.96773,0.0727 -13.69126,-0.0563 -14.45328,-0.24148 -0.34188,-0.0831 -0.72332,-0.30138 -1.1356,-0.6499 z m -1.32036,-10.28141 c -0.0288,-0.98206 0.039,-2.11293 0.13006,-2.16867 0.0849,-0.052 8.30578,-0.10316 16.11811,-0.10037 5.01782,0.002 5.34796,0.01 5.52173,0.12965 0.18585,0.12846 0.25847,1.97708 0.0951,2.41998 -0.10044,0.27226 -0.19818,0.30583 -0.93796,0.32217 -1.46753,0.0324 -19.12238,-0.0196 -20.53281,-0.0605 -0.36329,-0.0105 -0.37925,-0.0325 -0.3942,-0.54228 z m 0.0958,-4.97551 c -0.1517,-0.58672 -0.17582,-37.680495 -0.0249,-38.301525 0.044,-0.18109 0.22757,-0.2366 0.89416,-0.27037 1.36372,-0.0691 6.10494,-0.11799 12.33505,-0.1272 7.86283,-0.0116 8.26489,-0.007 8.40512,0.089 0.19783,0.13598 0.2212,0.58629 0.2245,4.3254 0.002,1.95803 0.006,5.13492 0.0103,7.05974 0.006,3.17674 0.009,13.59021 0.004,17.85879 -10e-4,0.94479 -0.004,3.45185 -0.005,5.57125 -0.002,2.119395 -0.054,3.881245 -0.11609,3.915225 -0.35457,0.19412 -17.47545,0.30556 -20.84753,0.13569 -0.73927,-0.0373 -0.82934,-0.0635 -0.87913,-0.25603 z m -0.15039,-42.222118 c -0.01,-0.532649 -0.011,-1.133114 -0.003,-1.334372 l 0.0148,-0.365916 3.46991,0.0026 c 1.90846,0.0014 5.70813,-0.0031 8.44372,-0.01 9.26345,-0.02342 9.87077,-0.0207 9.93499,0.04436 0.0722,0.07319 0.14764,1.663313 0.10722,2.260901 -0.0202,0.29858 -0.0822,0.4045 -0.26446,0.45162 -0.54723,0.14148 -19.40022,0.10549 -21.19086,-0.0405 l -0.49488,-0.0403 z m 0.0691,-4.595953 c -0.10219,-0.643893 -0.0673,-2.974114 0.0621,-4.156765 0.19401,-1.771885 0.81711,-2.732001 2.1031,-3.240603 0.6171,-0.244065 7.88519,-0.382428 14.21732,-0.270658 3.01287,0.05318 3.22621,0.09718 4.16869,0.859726 0.9494,0.768157 1.13822,1.187369 1.25736,2.791599 0.11599,1.561811 0.13853,3.764409 0.0426,4.16032 -0.0497,0.205165 -0.18341,0.257755 -0.71229,0.280204 -1.54188,0.06545 -9.37718,0.09037 -16.91976,0.05382 -4.62065,-0.0224 -4.1382,0.03222 -4.21912,-0.477639 z"
       style="fill:#000000;stroke-width:0.0315551"
       id="path168" />
  </g>
</svg>
