<?xml version="1.0" encoding="UTF-8" standalone="no"?>
<!-- Created with Inkscape (http://www.inkscape.org/) -->

<svg
   width="210mm"
   height="297mm"
   viewBox="0 0 210 297"
   version="1.1"
   id="svg5"
   sodipodi:docname="man_20.svg"
   inkscape:version="1.1.1 (c3084ef, 2021-09-22)"
   xmlns:inkscape="http://www.inkscape.org/namespaces/inkscape"
   xmlns:sodipodi="http://sodipodi.sourceforge.net/DTD/sodipodi-0.dtd"
   xmlns="http://www.w3.org/2000/svg"
   xmlns:svg="http://www.w3.org/2000/svg">
  <sodipodi:namedview
     id="namedview7"
     pagecolor="#505050"
     bordercolor="#eeeeee"
     borderopacity="1"
     inkscape:pageshadow="0"
     inkscape:pageopacity="0"
     inkscape:pagecheckerboard="0"
     inkscape:document-units="mm"
     showgrid="false"
     inkscape:zoom="0.62885375"
     inkscape:cx="496.9359"
     inkscape:cy="465.132"
     inkscape:window-width="1512"
     inkscape:window-height="837"
     inkscape:window-x="0"
     inkscape:window-y="38"
     inkscape:window-maximized="1"
     inkscape:current-layer="layer1" />
  <defs
     id="defs2" />
  <g
     inkscape:label="Layer 1"
     inkscape:groupmode="layer"
     id="layer1">
    <path
       style="fill:#000000;stroke-width:0.0758416"
       d="m 110.66091,61.69369 c -0.15627,-0.0846 -0.32767,-0.15384 -0.38088,-0.15384 -0.14128,0 -0.65858,-0.44542 -0.81386,-0.70075 -0.12028,-0.19779 -0.12319,-0.25484 -0.029,-0.56796 0.18764,-0.62348 0.13279,-0.86792 -0.38997,-1.73767 -0.13033,-0.21685 -0.13458,-0.28134 -0.0475,-0.7205 0.0808,-0.40714 0.0784,-0.52372 -0.0151,-0.74778 -0.061,-0.146 -0.13515,-0.43609 -0.16489,-0.64465 -0.0297,-0.20857 -0.12441,-0.4955 -0.21038,-0.63764 -0.15188,-0.2511 -0.15262,-0.26881 -0.0259,-0.62553 0.11798,-0.33219 0.11968,-0.39864 0.0178,-0.69864 -0.0619,-0.18235 -0.15125,-0.70289 -0.19853,-1.15675 -0.0473,-0.45386 -0.13147,-1.01292 -0.18707,-1.24233 -0.0556,-0.22943 -0.12497,-0.72402 -0.15415,-1.09909 -0.0292,-0.37508 -0.11757,-0.84561 -0.19641,-1.04563 -0.0788,-0.20003 -0.14335,-0.44051 -0.14335,-0.53444 0,-0.0939 -0.0683,-0.30464 -0.15168,-0.46827 -0.0834,-0.16364 -0.15168,-0.35018 -0.15168,-0.41454 0,-0.0643 -0.0875,-0.35577 -0.19452,-0.64757 -0.10699,-0.29181 -0.27438,-0.76947 -0.37199,-1.06146 -0.37172,-1.11202 -0.63893,-1.78774 -0.86058,-2.17624 -0.4993,-0.87513 -0.7087,-1.64135 -0.84173,-3.07993 -0.0957,-1.03441 -0.21369,-1.04901 -0.42614,-0.0528 -0.12209,0.57251 -0.13297,0.73709 -0.11032,1.66851 0.005,0.20857 -0.0186,1.10089 -0.0527,1.98294 -0.0554,1.4342 -0.0776,1.62105 -0.21029,1.7676 -0.21027,0.23228 -0.2706,1.11473 -0.0788,1.15303 0.11774,0.0236 0.13242,0.17063 0.14644,1.46713 0.0117,1.0804 0.0513,1.60474 0.15816,2.09537 0.12632,0.57978 0.13059,0.69069 0.0374,0.97289 -0.0887,0.26869 -0.0891,0.36802 -0.003,0.63494 0.13989,0.43274 0.19021,2.20735 0.0728,2.56609 -0.0795,0.24282 -0.0707,0.31957 0.0696,0.60938 l 0.16051,0.33157 -0.19508,0.63524 c -0.15603,0.50806 -0.17851,0.67165 -0.11228,0.817 0.0918,0.20147 0.0354,0.35792 -0.20859,0.57873 -0.16246,0.14702 -0.52339,0.835 -0.61212,1.16677 -0.0437,0.16353 -0.14504,0.22947 -0.57584,0.37479 -0.63047,0.21267 -0.95927,0.21968 -1.37846,0.0294 -0.48823,-0.22167 -0.58106,-0.42134 -0.54039,-1.16238 0.0377,-0.68671 0.23069,-1.1785 0.54273,-1.38295 0.20006,-0.13109 0.35198,-0.41902 0.35204,-0.66723 2e-5,-0.0919 0.0697,-0.3505 0.15496,-0.57469 0.12104,-0.31845 0.1463,-0.51752 0.11548,-0.9101 -0.0674,-0.85788 -0.0872,-0.94703 -0.29545,-1.32908 -0.11141,-0.20435 -0.20256,-0.43434 -0.20256,-0.51111 0,-0.0768 -0.0682,-0.31912 -0.15164,-0.53856 -0.0834,-0.21944 -0.15166,-0.50615 -0.15168,-0.63712 -4e-5,-0.24649 -0.27278,-1.66075 -0.34182,-1.77245 -0.0215,-0.0348 -0.0747,-0.72289 -0.11825,-1.5291 -0.12136,-2.24745 -0.1616,-2.54826 -0.40293,-3.01276 -0.21713,-0.41792 -0.21871,-0.44197 -0.0809,-1.2295 0.0342,-0.19537 0.006,-0.35805 -0.10003,-0.56881 -0.32497,-0.64857 -0.46375,-1.33039 -0.5527,-2.71538 -0.048,-0.74712 -0.134983,-1.49371 -0.19333,-1.65908 -0.05835,-0.16539 -0.106463,-0.5609 -0.106923,-0.87893 -4.55e-4,-0.31803 -0.02153,-0.70338 -0.04682,-0.85634 l -0.04599,-0.27809 -0.33163,0.0998 c -0.182395,0.0549 -0.483095,0.18857 -0.668218,0.29706 -0.412951,0.24201 -0.519431,0.24408 -0.963641,0.0187 -0.192882,-0.0979 -0.421676,-0.19652 -0.508433,-0.2192 -0.147611,-0.0386 -0.121444,-0.1122 0.407575,-1.14639 0.310927,-0.60782 0.565319,-1.162 0.565319,-1.23149 0,-0.16822 -0.237265,-0.5519 -0.776663,-1.25596 -0.244738,-0.31943 -0.559008,-0.84842 -0.698378,-1.17554 -0.275362,-0.64628 -0.665667,-1.47102 -0.836138,-1.76682 -0.059,-0.10238 -0.145136,-0.42661 -0.191407,-0.72049 -0.04627,-0.2939 -0.131217,-0.6538 -0.188765,-0.7998 -0.05755,-0.146 -0.126466,-0.39841 -0.153149,-0.56094 -0.02669,-0.16252 -0.09946,-0.37324 -0.161718,-0.46827 -0.100653,-0.15361 -0.100042,-0.21153 0.0056,-0.52245 0.06529,-0.19232 0.12075,-0.51061 0.123232,-0.70727 0.0088,-0.69667 0.253475,-2.65126 0.491001,-3.92216 0.07016,-0.37542 0.153724,-0.88735 0.185692,-1.13763 0.03197,-0.25027 0.110298,-0.65982 0.174065,-0.9101 0.130696,-0.51296 0.247122,-1.09852 0.335953,-1.68968 l 0.06016,-0.40038 0.758416,-0.33217 c 0.417129,-0.18269 1.031446,-0.4179 1.365149,-0.52269 0.333703,-0.10478 0.811504,-0.27772 1.061782,-0.38431 0.250277,-0.10659 0.524589,-0.19461 0.609589,-0.1956 0.28105,-0.004 1.47606,-1.37642 1.47606,-1.6961 0,-0.21499 -0.18759,-0.98426 -0.27598,-1.13171 -0.031,-0.0516 -0.23548,-0.33317 -0.45451,-0.62562 -0.23705,-0.31651 -0.42796,-0.66405 -0.47168,-0.85864 -0.0404,-0.17981 -0.12518,-0.38421 -0.18839,-0.45422 -0.19199,-0.21264 -0.504157,-1.26177 -0.550184,-1.84908 -0.04171,-0.53216 -0.0317,-0.57727 0.260004,-1.172186 0.46616,-0.9506802 0.71908,-1.1855702 1.7945,-1.6664802 0.72364,-0.32361 2.03311,-0.33786 2.6424,-0.0288 0.5916,0.30013 0.88356,0.59784 0.96769,0.98673 0.0406,0.1877102 0.18846,0.5631302 0.32856,0.8342702 0.26671,0.516156 0.51078,1.389846 0.65676,2.350966 0.0858,0.56521 0.0747,0.90236 -0.0806,2.42705 -0.0956,0.93939 -0.0473,1.48474 0.13656,1.54125 0.0696,0.0214 0.42789,0.14411 0.79613,0.27269 0.44027,0.15373 0.81513,0.23378 1.09472,0.23378 0.24953,0 0.55257,0.0574 0.73354,0.13901 0.39769,0.17927 0.81774,0.31604 0.97061,0.31604 0.22636,0 0.82939,0.91199 1.00296,1.51683 0.0299,0.10429 0.16657,0.44557 0.30365,0.75842 0.24114,0.55032 0.33779,0.85165 0.51681,1.61125 0.0542,0.23017 0.13411,0.37551 0.22159,0.40329 0.15805,0.0502 0.17238,0.11895 0.0502,0.24111 -0.0649,0.0649 -0.0644,0.19907 0.002,0.53538 0.0486,0.24684 0.0665,0.50573 0.0398,0.57529 -0.0469,0.12215 0.20013,0.5628 0.52131,0.93 0.13309,0.15217 0.14045,0.28534 0.1111,2.00981 -0.0307,1.805 -0.1086,2.41566 -0.30803,2.41566 -0.17697,0 -2.19366,0.86967 -2.22876,0.96111 -0.0213,0.0555 0.0191,0.24543 0.0897,0.42198 0.0981,0.24522 0.14446,0.72417 0.19627,2.02861 0.0636,1.60018 0.14503,2.27718 0.31319,2.60271 0.0388,0.0752 0.11702,0.34822 0.17375,0.60673 0.0567,0.25852 0.14717,0.58042 0.20098,0.71531 0.084,0.21058 0.081,0.25884 -0.0213,0.34129 -0.0655,0.0528 -0.22837,0.29135 -0.36186,0.53008 -0.22777,0.40735 -0.56915,0.74148 -0.75754,0.74148 -0.11582,0 -0.10395,0.52809 0.0198,0.88161 0.0761,0.2175 0.11655,1.08286 0.15537,3.3276 0.0527,3.04792 0.0897,3.50262 0.36302,4.46694 0.15594,0.5501 0.3069,1.38748 0.58247,3.23099 0.34782,2.32695 0.39152,4.48651 0.10512,5.19516 -0.0843,0.20856 -0.19115,0.71032 -0.23746,1.11504 -0.0709,0.61947 -0.0652,0.81137 0.0358,1.21347 0.066,0.26269 0.16491,0.54834 0.2198,0.63479 0.0549,0.0864 0.14284,0.30828 0.19545,0.49297 0.0526,0.18469 0.17729,0.42513 0.27708,0.53431 0.11265,0.12325 0.22463,0.3964 0.29537,0.7205 0.13639,0.62492 0.13913,1.03605 0.009,1.39416 -0.0855,0.23577 -0.12931,0.26748 -0.39175,0.28354 -0.16252,0.01 -0.34981,0.067 -0.4162,0.1268 -0.21565,0.19427 -0.48239,0.21022 -0.78404,0.0469 z"
       id="path120"
       sodipodi:nodetypes="sssssssssssssssssssssssssscssscsscssssscssssssssssssscsssscsscsssssssssscssssscssscsssssssscssssssscsssssssssssssssssssssssssssssssscsss" />
  </g>
</svg>
