<?xml version="1.0" encoding="UTF-8" standalone="no"?>
<!-- Created with Inkscape (http://www.inkscape.org/) -->

<svg
   width="210mm"
   height="297mm"
   viewBox="0 0 210 297"
   version="1.1"
   id="svg5"
   sodipodi:docname="man_2.svg"
   inkscape:version="1.1.1 (c3084ef, 2021-09-22)"
   xmlns:inkscape="http://www.inkscape.org/namespaces/inkscape"
   xmlns:sodipodi="http://sodipodi.sourceforge.net/DTD/sodipodi-0.dtd"
   xmlns="http://www.w3.org/2000/svg"
   xmlns:svg="http://www.w3.org/2000/svg">
  <sodipodi:namedview
     id="namedview7"
     pagecolor="#505050"
     bordercolor="#eeeeee"
     borderopacity="1"
     inkscape:pageshadow="0"
     inkscape:pageopacity="0"
     inkscape:pagecheckerboard="0"
     inkscape:document-units="mm"
     showgrid="false"
     inkscape:zoom="0.67546093"
     inkscape:cx="625.4988"
     inkscape:cy="354.57269"
     inkscape:window-width="1512"
     inkscape:window-height="837"
     inkscape:window-x="0"
     inkscape:window-y="38"
     inkscape:window-maximized="1"
     inkscape:current-layer="layer1" />
  <defs
     id="defs2" />
  <g
     inkscape:label="Layer 1"
     inkscape:groupmode="layer"
     id="layer1">
    <path
       d="m 109.52126,61.161321 c -1.10659,-0.39946 -1.78228,-1.02984 -1.78228,-1.66276 0,-0.55524 -0.19948,-0.92552 -0.79339,-1.47279 l -0.5755,-0.53028 0.0521,-0.80678 c 0.0356,-0.5501 0.0933,-0.8744 0.1814,-1.01931 0.11707,-0.1925 0.11873,-0.24253 0.0177,-0.53135 -0.11522,-0.32907 -0.10386,-0.80156 0.0487,-2.02526 0.039,-0.31285 0.08,-1.90333 0.0911,-3.5344 0.02,-2.93133 0.0183,-2.96884 -0.14562,-3.24657 -0.12168,-0.20624 -0.16618,-0.4059 -0.16728,-0.75065 -0.002,-0.67112 -0.12946,-1.46249 -0.28065,-1.74439 -0.0714,-0.13316 -0.13399,-0.41276 -0.13904,-0.62132 -0.005,-0.20857 -0.0548,-0.49866 -0.11053,-0.64466 -0.38335,-1.00419 -0.45416,-1.22514 -0.45376,-1.416 7.9e-4,-0.23447 -0.58271,-2.12864 -0.70214,-2.28044 -0.1249,-0.15877 -0.20842,-0.0272 -0.20842,0.32825 0,0.1865 -0.081,0.53431 -0.17995,0.7729 -0.14928,0.35988 -0.1889,0.62581 -0.23248,1.56058 -0.0289,0.61973 -0.084,1.20949 -0.12242,1.3106 -0.0384,0.10111 -0.10697,0.75444 -0.15228,1.45185 -0.0453,0.6974 -0.11383,1.38746 -0.15226,1.53345 -0.0889,0.33748 -0.0803,2.47141 0.0123,3.07159 0.0386,0.25027 0.0894,0.64275 0.11281,0.87218 0.0235,0.22941 0.0629,0.46831 0.0877,0.53088 0.0248,0.0626 0.0479,0.71102 0.0514,1.441 0.006,1.30492 0.01,1.33233 0.20781,1.63059 0.18094,0.27246 0.19823,0.35746 0.16961,0.83426 -0.0175,0.29199 -0.057,1.01368 -0.0877,1.60376 l -0.0559,1.07285 -0.34128,0.31492 c -0.18771,0.17322 -0.45325,0.36537 -0.5901,0.42701 -0.26321,0.11856 -0.5188,0.46681 -0.57803,0.78761 -0.0195,0.10596 -0.0561,0.34911 -0.0812,0.54031 -0.0421,0.32101 -0.0826,0.37484 -0.52905,0.70266 -0.26594,0.19526 -0.67504,0.4427 -0.90912,0.54986 -0.45889,0.21009 -0.77351,0.2052 -1.313493,-0.0204 -0.23072,-0.0964 -0.25641,-0.13408 -0.2139,-0.31377 0.0266,-0.1123 0.0684,-0.35777 0.0928,-0.54548 0.0863,-0.66209 0.904343,-2.07131 1.493083,-2.57187 0.15193,-0.12918 0.20533,-0.23384 0.18187,-0.35655 -0.0183,-0.0955 0.0297,-0.26921 0.10676,-0.38595 0.16941,-0.25695 0.17817,-0.52179 0.0291,-0.87866 -0.19153,-0.45837 -0.27283,-0.93985 -0.1938,-1.14769 0.0588,-0.15458 0.0392,-0.23082 -0.103,-0.40181 -0.27729,-0.33342 -0.36339,-0.54502 -0.31373,-0.77112 0.0253,-0.11545 0.0119,-0.2999 -0.0299,-0.40989 -0.0834,-0.21931 -0.38528,-2.54378 -0.38528,-2.96648 0,-0.1451 -0.03,-0.28232 -0.0666,-0.30495 -0.0366,-0.0227 -0.21579,0.0902 -0.39817,0.2507 l -0.331593,0.29185 -0.87221,0.0545 -0.872232,0.0545 -0.15885,-0.21486 c -0.29198,-0.39493 -0.4357,-0.74333 -0.42031,-1.01888 0.0175,-0.31314 -0.16135,-0.53345 -0.31131,-0.38349 -0.14812,0.14812 -0.18448,0.1045 -0.32205,-0.38622 -0.0731,-0.26069 -0.17998,-0.54132 -0.23751,-0.62359 -0.0575,-0.0823 -0.10464,-0.25945 -0.10464,-0.3937 0,-0.13426 -0.0341,-0.26519 -0.0759,-0.29097 -0.0417,-0.0258 -0.0769,-0.22404 -0.0783,-0.44056 -0.002,-0.22523 -0.0501,-0.45669 -0.11376,-0.54091 -0.14117,-0.18666 -0.13902,-0.4924 0.004,-0.68258 0.0613,-0.081 0.11083,-0.20042 0.11019,-0.26545 -8e-4,-0.0994 -0.012,-0.10103 -0.0693,-0.0105 -0.058,0.0918 -0.0974,0.0887 -0.26428,-0.0207 -0.20287,-0.13293 -0.2548,-0.30726 -0.11691,-0.39248 0.0435,-0.0269 0.12033,-0.0147 0.17064,0.0271 0.0711,0.059 0.087,-0.37687 0.0714,-1.95767 l -0.0201,-2.03366 0.23446,-0.19728 c 0.12895,-0.10851 0.31826,-0.19729 0.42068,-0.19729 0.10242,0 0.30458,-0.0494 0.44923,-0.10989 0.35734,-0.14931 0.34857,-0.36509 -0.0244,-0.60052 -0.31306,-0.19764 -0.69855,-0.65551 -0.69855,-0.82972 0,-0.0601 0.083,-0.25863 0.18443,-0.44115 0.22583,-0.40634 0.22115,-0.20262 0.1198,-5.22369 -0.0504,-2.49925 -0.11208,-4.05606 -0.17114,-4.32297 -0.11716,-0.5294 -0.16986,-6.07985 -0.0625,-6.58843 0.26211,-1.24234 0.35211,-1.54892 0.58681,-1.99919 0.0793,-0.15212 0.0869,-0.24647 0.0287,-0.35526 -0.0436,-0.0815 -0.0793,-0.18268 -0.0793,-0.22491 0,-0.12323 1.76335,-1.22251 1.961022,-1.22251 0.14923,0 1.380523,-0.75867 1.746943,-1.07639 0.18315,-0.15882 0.37874,-0.28876 0.43463,-0.28876 0.0559,0 0.12184,-0.0938 0.14651,-0.20856 0.0246,-0.11471 0.0969,-0.33251 0.1606,-0.484 0.0881,-0.20966 0.0958,-0.3126 0.0324,-0.4311 -0.0459,-0.0856 -0.0833,-0.37704 -0.0833,-0.6476 0,-0.48101 -0.004,-0.493 -0.21966,-0.54018 -0.38267,-0.0841 -0.46327,-0.25478 -0.57878,-1.2261 -0.28377,-2.38628 -0.0514,-3.5078901 0.86827,-4.1905301 1.16048,-0.8614 2.51005,-0.65071 3.82346,0.5969 0.63385,0.60209 0.69609,0.7298301 0.96174,1.9739401 0.13662,0.6398 0.1834,0.74598 0.41763,0.94802 0.14509,0.12514 0.26379,0.2788 0.26378,0.34146 0,0.0627 -0.17108,0.40396 -0.38018,0.75842 -0.38824,0.65812 -0.52875,1.02238 -0.5295,1.37262 -7.9e-4,0.30279 -0.1521,0.6696 -0.31176,0.75504 -0.11406,0.061 -0.14371,0.16218 -0.14371,0.49009 v 0.41319 l 0.36025,0.1813 c 0.50225,0.25278 2.11853,0.84983 2.48119,0.91655 0.16541,0.0304 0.38724,0.099 0.49296,0.15241 0.10574,0.0534 0.37195,0.13933 0.5916,0.19095 0.49571,0.11652 0.6245,0.28526 0.6245,0.81821 0,0.24165 0.0486,0.47706 0.12135,0.58815 0.0667,0.10186 0.14848,0.29691 0.18161,0.43341 0.0332,0.13652 0.11355,0.40178 0.17872,0.58949 0.0652,0.18771 0.17338,0.66551 0.24048,1.06179 0.0671,0.39627 0.16897,0.89114 0.22637,1.0997 0.0574,0.20857 0.17436,0.82288 0.25994,1.36515 0.0871,0.552 0.2424,1.19903 0.35285,1.4701 0.12197,0.29934 0.18429,0.5726 0.16327,0.71582 -0.0221,0.1507 0.0296,0.35427 0.14807,0.58258 0.11076,0.2135 0.22625,0.64602 0.29489,1.10438 0.0621,0.4144 0.1431,0.87291 0.18009,1.0189 0.037,0.146 0.10581,0.57261 0.15293,0.94803 0.0471,0.37541 0.11667,0.80202 0.15456,0.94801 0.10795,0.41577 0.31938,3.47402 0.33296,4.81594 0.0127,1.25282 -0.0275,1.55476 -0.20685,1.55476 -0.0575,0 -0.39632,0.27304 -0.75299,0.60674 -0.35666,0.3337 -0.68782,0.60674 -0.73589,0.60674 -0.1581,0 -0.38768,-0.66979 -0.4613,-1.34577 -0.0398,-0.36522 -0.0896,-0.73871 -0.11066,-0.82997 -0.0211,-0.0913 0.0119,-0.35884 0.0733,-0.59458 0.0635,-0.24384 0.11588,-0.81312 0.12145,-1.32043 0.008,-0.75257 -0.0137,-0.93795 -0.14086,-1.18769 -0.15764,-0.30967 -0.21185,-0.4889 -0.46794,-1.54732 -0.0858,-0.35456 -0.25806,-0.8457 -0.38284,-1.09143 -0.17593,-0.34645 -0.22687,-0.54741 -0.22687,-0.8949 0,-0.25058 -0.0503,-0.5454 -0.11409,-0.66877 -0.0627,-0.12134 -0.14792,-0.48652 -0.18929,-0.81152 -0.11645,-0.91502 -0.2374,-1.38268 -0.49606,-1.91814 -0.18209,-0.37692 -0.23051,-0.56565 -0.20565,-0.80175 0.0374,-0.35479 -0.1455,-0.86676 -0.30954,-0.86676 -0.36317,0 -0.47722,2.00593 -0.20052,3.52664 0.0835,0.45884 0.1877,0.98783 0.23158,1.17554 0.0439,0.18771 0.10751,0.53338 0.14142,0.76817 0.0339,0.23478 0.20153,0.78462 0.37249,1.22186 0.22756,0.58203 0.37099,1.13813 0.5354,2.0759 0.12352,0.7045 0.2964,1.61702 0.38418,2.02783 0.15846,0.74148 0.15855,0.74875 0.0125,0.99639 -0.13188,0.22352 -0.13708,0.28381 -0.0502,0.5803 0.31458,1.07247 0.41867,1.54768 0.41867,1.9113 0,0.22445 0.0493,0.91627 0.10954,1.53738 0.0869,0.89564 0.0954,1.55297 0.0414,3.17702 -0.0374,1.12625 -0.10584,2.37194 -0.15195,2.76821 -0.0576,0.49515 -0.0607,0.92212 -0.01,1.36515 0.0995,0.86301 0.009,2.73894 -0.14068,2.91937 -0.0842,0.1014 -0.13128,0.55859 -0.19552,1.89687 -0.0772,1.60795 -0.099,1.7835 -0.24815,1.9929 -0.0899,0.1263 -0.16352,0.27617 -0.16352,0.33304 0,0.0569 -0.0939,0.23931 -0.20856,0.40542 -0.19219,0.27831 -0.20856,0.35937 -0.20856,1.03271 0,0.69173 0.0124,0.74836 0.23143,1.06178 0.3346,0.47869 1.0203,1.99531 1.10643,2.44721 0.13151,0.68993 0.16534,1.34071 0.0744,1.43164 -0.0468,0.0468 -0.0851,0.14648 -0.0851,0.22156 0,0.18399 -0.50599,0.1811 -1.02386,-0.006 z m -9.32052,-16.5785 c -0.0618,-1.4628 -0.17803,-2.30285 -0.498823,-3.60469 -0.12849,-0.52141 -0.28695,-1.40876 -0.35215,-1.97188 -0.0652,-0.56313 -0.18375,-1.21903 -0.26348,-1.45757 -0.0797,-0.23852 -0.14493,-0.50409 -0.14493,-0.59014 0,-0.19006 -0.216852,-0.29069 -0.309862,-0.14379 -0.0369,0.0582 -0.0677,0.29356 -0.0687,0.52298 -7.9e-4,0.22942 -0.0462,0.50259 -0.10075,0.60704 -0.10718,0.20535 -0.12591,2.16924 -0.0223,2.33691 0.0305,0.0493 0.13023,0.0902 0.22162,0.0909 0.0914,7.9e-4 0.202312,0.0263 0.246492,0.0569 0.0442,0.0306 0.20649,0.67899 0.36069,1.44078 0.33939,1.67671 0.882673,3.96177 0.941913,3.96177 0.0237,0 0.0193,-0.56213 -0.01,-1.24917 z"
       style="fill:#000000;stroke-width:0.0200664"
       id="path344" />
  </g>
</svg>
