<?xml version="1.0" encoding="UTF-8" standalone="no"?>
<!-- Created with Inkscape (http://www.inkscape.org/) -->

<svg
   width="210mm"
   height="297mm"
   viewBox="0 0 210 297"
   version="1.1"
   id="svg5"
   sodipodi:docname="man_4.svg"
   inkscape:version="1.1.1 (c3084ef, 2021-09-22)"
   xmlns:inkscape="http://www.inkscape.org/namespaces/inkscape"
   xmlns:sodipodi="http://sodipodi.sourceforge.net/DTD/sodipodi-0.dtd"
   xmlns="http://www.w3.org/2000/svg"
   xmlns:svg="http://www.w3.org/2000/svg">
  <sodipodi:namedview
     id="namedview7"
     pagecolor="#505050"
     bordercolor="#eeeeee"
     borderopacity="1"
     inkscape:pageshadow="0"
     inkscape:pageopacity="0"
     inkscape:pagecheckerboard="0"
     inkscape:document-units="mm"
     showgrid="false"
     inkscape:zoom="0.67546093"
     inkscape:cx="625.4988"
     inkscape:cy="354.57269"
     inkscape:window-width="1512"
     inkscape:window-height="837"
     inkscape:window-x="0"
     inkscape:window-y="38"
     inkscape:window-maximized="1"
     inkscape:current-layer="layer1" />
  <defs
     id="defs2" />
  <g
     inkscape:label="Layer 1"
     inkscape:groupmode="layer"
     id="layer1">
    <path
       d="m 98.351386,59.299364 c -0.79866,-0.276 -1.15261,-0.72938 -0.88843,-1.13799 0.30582,-0.47297 0.85557,-1.04219 1.25,-1.29426 0.2336,-0.14928 0.80309,-0.6301 1.26553,-1.06848 l 0.840824,-0.79706 0.0475,-0.60601 c 0.0632,-0.80605 0.16895,-1.28547 0.3847,-1.74364 0.13131,-0.27885 0.19844,-0.61003 0.25368,-1.25138 0.0413,-0.4797 0.12852,-1.04282 0.19379,-1.25139 0.0653,-0.20856 0.13662,-0.77274 0.15855,-1.25372 0.0334,-0.73298 0.009,-1.02983 -0.14783,-1.83433 -0.10323,-0.52791 -0.22081,-1.02173 -0.2613,-1.09738 -0.0405,-0.0756 -0.0985,-0.30819 -0.12893,-0.51675 -0.0305,-0.20857 -0.10122,-0.49866 -0.15728,-0.64465 -0.0561,-0.146 -0.27652,-1.08454 -0.48991,-2.08565 -0.22144,-1.03895 -0.47988,-2.0368 -0.60214,-2.32484 -0.117804,-0.27755 -0.271544,-0.78949 -0.341654,-1.13763 -0.0701,-0.34813 -0.2762,-1.26436 -0.458,-2.03605 -0.18178,-0.77168 -0.36858,-1.71022 -0.4151,-2.08564 -0.0986,-0.79523 -0.2019,-1.1709 -0.32654,-1.1871 -0.88164,-0.11453 -1.00965,-0.20908 -0.88911,-0.65672 0.0445,-0.16535 0.14764,-0.70548 0.22914,-1.20029 0.2897,-1.75887 0.42349,-2.35989 0.63803,-2.86623 0.0942,-0.22227 0.34955,-1.23484 0.35008,-1.38813 4e-5,-0.01 -0.16931,-0.10352 -0.37634,-0.20843 -0.6043,-0.30622 -0.87741,-0.599014 -1.21151,-1.298819 -0.28568,-0.598359 -0.30813,-0.692475 -0.30813,-1.291653 0,-0.499214 0.0411,-0.752755 0.18063,-1.114253 0.17234,-0.446559 0.34838,-1.622289 0.34259,-2.288183 -0.002,-0.166853 0.021,-0.742204 0.0499,-1.278559 0.0373,-0.694005 0.0257,-1.056485 -0.0405,-1.25712 -0.077,-0.233218 -0.072,-0.363893 0.0285,-0.756331 0.0668,-0.260921 0.12154,-0.697985 0.12154,-0.971256 0,-0.661979 0.1678,-0.933391 0.74339,-1.202374 1.741904,-0.814038 2.258404,-1.113295 2.652464,-1.536821 0.22007,-0.236509 0.41905,-0.502999 0.44219,-0.592199 0.0396,-0.152592 -0.42201,-1.861649 -0.58512,-2.166452 -0.0414,-0.07726 -0.10642,-0.121157 -0.14462,-0.09755 -0.13065,0.08075 -0.67732,-0.265901 -0.803204,-0.509325 -0.0687,-0.132907 -0.12916,-0.414133 -0.13428,-0.62495 l -0.009,-0.383301 0.255754,0.0205 c 0.23422,0.01878 0.25129,0.006 0.20291,-0.151683 -0.029,-0.0947 -0.10108,-0.3940243 -0.16011,-0.6651583 -0.059,-0.271134 -0.145854,-0.63664 -0.192974,-0.812237 -0.0783,-0.291916 -0.0683,-0.348948 0.117394,-0.665733 0.11856,-0.202317 0.1847,-0.404249 0.15897,-0.48535 -0.0292,-0.09192 0.0699,-0.293646 0.2928,-0.596517 l 0.3369,-0.457633 1.01101,-0.05031 c 0.61712,-0.03071 1.10956,-0.02043 1.26391,0.02636 0.38043,0.115346 0.88569,0.432983 1.02364,0.643544 0.0674,0.102829 0.18957,0.208245 0.27153,0.234258 0.2226,0.07066 0.33045,0.493276 0.26998,1.058042 -0.0287,0.267517 -0.028,0.693408 7.9e-4,0.946426 0.05,0.431003 0.063,0.454882 0.20591,0.378405 0.21437,-0.114726 0.30212,2.12e-4 0.34559,0.4526533 0.0358,0.37246 -0.078,0.673673 -0.50762,1.343664 -0.0768,0.119716 -0.0878,0.332915 -0.046,0.889494 l 0.0549,0.732039 0.26282,0.07257 c 0.14455,0.03992 0.39366,0.185698 0.55359,0.323971 0.64545,0.558061 1.30092,0.987699 1.6476,1.079939 0.20139,0.05358 0.77569,0.257593 1.27625,0.453362 0.50055,0.195771 1.00591,0.393399 1.12303,0.439175 0.11711,0.04577 0.36105,0.227185 0.54209,0.403133 0.35018,0.340342 0.34488,0.324983 0.61463,1.781639 0.16605,0.896644 0.62347,2.783999 0.76074,3.138887 0.0627,0.162155 0.16424,0.639958 0.22558,1.061783 0.0614,0.421826 0.17561,0.954664 0.25391,1.184084 0.29763,0.872085 0.34339,1.123325 0.35228,1.933962 0.009,0.842156 0.14112,1.564283 0.59661,3.266867 0.10127,0.37853 0.32516,1.62217 0.49753,2.76363 0.17237,1.14146 0.33206,2.10557 0.35486,2.14246 0.0228,0.0369 -0.0271,0.14135 -0.1109,0.23212 -0.0838,0.0908 -0.18814,0.29709 -0.23186,0.4585 -0.0437,0.16141 -0.25157,0.55557 -0.46188,0.87591 -0.21032,0.32035 -0.43726,0.76847 -0.50432,0.99584 -0.13781,0.46723 -0.22594,0.603 -0.39139,0.603 -0.095,0 -0.10815,-0.0909 -0.0767,-0.5309 0.0209,-0.29199 0.011,-0.53089 -0.0219,-0.53089 -0.1364,0 -0.24176,0.57281 -0.19905,1.08221 l 0.0442,0.52659 -0.22379,-0.0329 c -0.17931,-0.0263 -0.22379,-0.005 -0.22379,0.10808 0,0.20117 -0.20745,0.25368 -0.38116,0.0965 -0.26373,-0.23867 -0.59386,-0.82338 -0.67852,-1.20176 -0.0488,-0.21798 -0.0615,-0.60169 -0.0313,-0.93654 l 0.0514,-0.56725 0.48767,-0.38325 c 0.39676,-0.3118 0.4789,-0.4129 0.44063,-0.54237 -0.0259,-0.0875 -0.0979,-0.48215 -0.16004,-0.87695 -0.0622,-0.39479 -0.19581,-0.99205 -0.29701,-1.32723 -0.1012,-0.33518 -0.24016,-0.9507 -0.3088,-1.36783 -0.0686,-0.41713 -0.18352,-0.89493 -0.25529,-1.06178 -0.0717,-0.16685 -0.22425,-0.64466 -0.33883,-1.06179 -0.11457,-0.41713 -0.30535,-1.049436 -0.42395,-1.405128 -0.1186,-0.355692 -0.25568,-0.867544 -0.30462,-1.137446 -0.12286,-0.677544 -0.19816,-0.789693 -0.27731,-0.413025 -0.0991,0.471493 -0.0527,1.158054 0.19743,2.917679 0.2555,1.79804 0.38527,2.5257 0.60626,3.3992 0.0811,0.32037 0.22027,0.96675 0.3094,1.43641 l 0.16204,0.85391 -0.21185,0.22445 c -0.1165,0.12344 -0.29828,0.25841 -0.40392,0.29993 -0.32853,0.12909 -1.3897,0.37668 -1.84259,0.4299 -0.4118,0.0484 -0.4338,0.0619 -0.46746,0.28702 -0.0194,0.12992 -0.0572,0.37273 -0.0839,0.53958 -0.0267,0.16685 -0.0777,0.59346 -0.1133,0.94802 -0.0356,0.35456 -0.11698,0.8275 -0.18086,1.05098 -0.0639,0.22348 -0.16865,0.92312 -0.23282,1.55476 -0.29279,2.88173 -0.33282,3.10612 -0.6375,3.57536 -0.28825,0.44395 -0.28216,0.71843 0.0263,1.18454 0.10595,0.16012 0.19264,0.37188 0.19264,0.47059 0,0.21901 -0.21835,0.43051 -0.44444,0.43051 -0.24072,0 -0.28387,0.20423 -0.0967,0.45745 0.20215,0.27342 0.20601,0.59976 0.0115,0.98083 -0.13831,0.27114 -0.14426,0.36005 -0.0746,1.11565 0.16249,1.76244 0.39332,3.58383 0.54137,4.27181 0.0853,0.39628 0.22063,1.02189 0.30076,1.39026 0.0802,0.36836 0.19415,0.74378 0.25334,0.83425 0.0592,0.0905 0.19646,0.67306 0.30506,1.29463 0.1086,0.62156 0.24412,1.22033 0.30114,1.33058 0.25122,0.48583 0.47954,1.79754 0.35376,2.03254 -0.0865,0.16168 -0.90385,0.39369 -2.6648,0.75644 -0.80002,0.1648 -1.23111,0.21091 -1.97188,0.21091 -0.5214,0 -1.0396,-0.0257 -1.15152,-0.0571 -0.27405,-0.0768 -0.33449,-0.30689 -0.15941,-0.60666 0.14562,-0.24934 0.42268,-0.38664 0.95522,-0.47335 0.37989,-0.0619 0.79498,-0.44306 1.26949,-1.16586 0.2697,-0.41082 0.36186,-0.61622 0.32638,-0.72744 -0.0271,-0.0852 -0.10773,-0.53039 -0.17898,-0.98924 -0.11532,-0.74263 -0.13927,-0.81343 -0.21809,-0.64465 -0.0487,0.10428 -0.173,0.30557 -0.27621,0.4473 -0.10322,0.14174 -0.18767,0.35122 -0.18767,0.4655 0,0.11429 -0.11741,0.37849 -0.26091,0.5871 -0.14349,0.20861 -0.31226,0.5022 -0.37502,0.65242 -0.0628,0.15022 -0.47547,0.63535 -0.91711,1.07806 -0.44164,0.44271 -0.86852,0.93339 -0.94861,1.09041 -0.16416,0.32177 -0.54529,0.53635 -1.199364,0.67525 -0.55349,0.11754 -0.89602,0.10363 -1.35516,-0.055 z"
       style="fill:#000000;stroke-width:0.0200664"
       id="path1344" />
  </g>
</svg>
