<?xml version="1.0" encoding="UTF-8" standalone="no"?>
<!-- Created with Inkscape (http://www.inkscape.org/) -->

<svg
   width="210mm"
   height="297mm"
   viewBox="0 0 210 297"
   version="1.1"
   id="svg5"
   sodipodi:docname="man_15.svg"
   inkscape:version="1.1.1 (c3084ef, 2021-09-22)"
   xmlns:inkscape="http://www.inkscape.org/namespaces/inkscape"
   xmlns:sodipodi="http://sodipodi.sourceforge.net/DTD/sodipodi-0.dtd"
   xmlns="http://www.w3.org/2000/svg"
   xmlns:svg="http://www.w3.org/2000/svg">
  <sodipodi:namedview
     id="namedview7"
     pagecolor="#505050"
     bordercolor="#eeeeee"
     borderopacity="1"
     inkscape:pageshadow="0"
     inkscape:pageopacity="0"
     inkscape:pagecheckerboard="0"
     inkscape:document-units="mm"
     showgrid="false"
     inkscape:zoom="0.62885375"
     inkscape:cx="398.34381"
     inkscape:cy="433.3281"
     inkscape:window-width="1512"
     inkscape:window-height="837"
     inkscape:window-x="0"
     inkscape:window-y="38"
     inkscape:window-maximized="1"
     inkscape:current-layer="layer1" />
  <defs
     id="defs2" />
  <g
     inkscape:label="Layer 1"
     inkscape:groupmode="layer"
     id="layer1">
    <path
       d="m 97.667004,56.758627 c -0.67924,-0.12886 -1.01899,-0.23284 -1.24103,-0.37978 -0.29481,-0.1951 -0.30396,-0.21351 -0.25585,-0.51439 0.0964,-0.60301 0.24604,-0.73799 1.53199,-1.38217 0.9143,-0.45801 1.21672,-0.64652 1.30991,-0.81648 0.20589,-0.37553 0.39433,-0.58824 0.6821,-0.76989 0.15213,-0.096 0.342126,-0.29629 0.422206,-0.44499 0.0801,-0.14872 0.20733,-0.28652 0.28277,-0.30625 0.0754,-0.0197 0.13738,-0.0988 0.13765,-0.1757 0,-0.0769 0.0683,-0.2422 0.15119,-0.36734 0.0829,-0.12514 0.15091,-0.27121 0.15118,-0.32462 0,-0.0534 -0.2396,-0.37762 -0.53305,-0.72049 -0.29345,-0.34287 -0.636406,-0.83059 -0.762136,-1.08382 -0.15002,-0.30217 -0.37746,-0.59145 -0.66179,-0.84172 -0.47128,-0.41484 -0.48415,-0.43645 -1.12192,-1.88321 -0.23904,-0.54227 -0.48012,-1.03982 -0.53574,-1.10567 -0.0556,-0.0658 -0.10111,-0.17792 -0.10111,-0.24901 0,-0.21116 -0.36144,-0.86722 -0.95739,-1.73779 -0.30769,-0.44947 -0.55943,-0.8357 -0.55943,-0.85828 0,-0.0226 -0.0853,-0.15292 -0.18961,-0.28964 -0.10428,-0.13672 -0.1896,-0.27591 -0.1896,-0.30932 0,-0.0334 -0.11386,-0.3032 -0.25304,-0.59957 -0.13916,-0.29636 -0.39563,-0.8418 -0.56993,-1.21207 l -0.31689,-0.67323 0.0788,-0.9764 c 0.0434,-0.53701 0.10891,-1.05539 0.14562,-1.15195 0.0967,-0.25426 0.75322,-0.94994 1.38208,-1.46443 l 0.54455,-0.44552 1.12631,-0.005 c 0.72188,-0.004 1.15676,-0.0356 1.21106,-0.0899 0.0624,-0.0624 0.0421,-0.16655 -0.0772,-0.39535 -0.20022,-0.38414 -0.22745,-1.35407 -0.0477,-1.69875 0.0624,-0.11948 0.1133,-0.27477 0.1133,-0.34508 0,-0.0703 0.0295,-0.16027 0.0656,-0.1999 0.036,-0.0396 0.14006,-0.41333 0.23115,-0.83047 0.28135,-1.2884 0.55645,-2.15853 1.288386,-4.0754 0.20887,-0.54702 0.3471,-1.07209 0.4212,-1.59997 0.0606,-0.43217 0.18378,-0.97018 0.27359,-1.19559 0.0898,-0.2254 0.27705,-0.72606 0.41611,-1.11257 0.13905,-0.3865 0.43216,-1.08042 0.65136,-1.54203 0.3788,-0.79769 0.41702,-0.84865 0.77142,-1.02824 0.20509,-0.10393 0.58155,-0.22255 0.8366,-0.26363 0.25504,-0.041 0.56985,-0.14028 0.69959,-0.22046 0.13468,-0.0832 0.5747,-0.19893 1.02566,-0.26967 0.43439,-0.0682 0.80243,-0.13549 0.81789,-0.14966 0.0155,-0.0142 -0.0727,-0.15534 -0.19573,-0.31369 -0.12311,-0.15834 -0.28353,-0.44148 -0.35649,-0.62919 -0.13859,-0.35652 -0.39233,-0.68231 -0.53193,-0.68295 -0.0449,0 -0.18139,-0.0803 -0.30338,-0.17786 -0.30397,-0.24321 -0.39489,-0.88658 -0.35256,-2.49518 0.003,-0.0938 -0.0157,-0.50515 -0.0403,-0.914 -0.0603,-0.99919 0.11636,-1.5282 0.78754,-2.35852 0.34493,-0.42673 1.30485,-1.241736 1.65811,-1.407776 0.63788,-0.29984 1.87527,-0.166 2.39823,0.25942 0.13502,0.10984 0.48465,0.384106 0.777,0.609506 0.33766,0.26033 0.62185,0.55886 0.77921,0.81852 0.32371,0.53411 0.62324,1.48958 0.62324,1.98806 0,0.32599 0.0403,0.44687 0.22752,0.68246 0.22361,0.28138 0.22752,0.30161 0.22752,1.1762 v 0.88989 l -0.27187,0.18043 c -0.27143,0.18013 -0.27181,0.18115 -0.23191,0.63546 0.022,0.25028 0.11979,0.63557 0.21733,0.8562 0.144,0.32573 0.24884,0.44199 0.55773,0.6184 0.28543,0.16302 0.41339,0.19878 0.51263,0.14324 0.0952,-0.0533 0.3492,-0.0105 0.90659,0.15289 0.4259,0.12479 1.217,0.31824 1.758,0.42989 1.25703,0.25941 1.67213,0.41788 2.24409,0.85674 0.25481,0.19554 0.55719,0.42377 0.6719,0.5072 0.11558,0.084 0.25024,0.28696 0.30196,0.45505 0.0513,0.16685 0.17312,0.47401 0.27059,0.68257 0.0975,0.20857 0.21772,0.53279 0.26721,0.7205 0.0495,0.18771 0.32588,0.81628 0.61417,1.39682 0.2883,0.58053 0.52416,1.10071 0.52416,1.15593 0,0.0553 -0.0683,0.14304 -0.15167,0.19515 -0.0834,0.0521 -0.15168,0.12694 -0.15168,0.1663 0,0.0393 -0.0668,0.21033 -0.14849,0.37993 -0.12465,0.25888 -0.16771,0.64294 -0.26849,2.39399 -0.066,1.1471 -0.1722,2.61464 -0.23595,3.26119 -0.0638,0.64655 -0.1439,1.76473 -0.17811,2.48485 -0.0402,0.84587 -0.0955,1.34942 -0.15631,1.42268 -0.12244,0.14751 -0.12412,1.5156 -0.002,1.66268 0.0479,0.0578 0.11877,0.40655 0.15743,0.77508 0.0386,0.36853 0.1248,0.85777 0.19149,1.08719 0.0762,0.26241 0.11891,0.68438 0.11501,1.13763 -0.004,0.49135 0.0279,0.78027 0.10092,0.90846 0.0929,0.16299 0.092,0.21725 -0.006,0.408 -0.1105,0.2137 -0.1087,0.30731 0.0204,1.06239 0.0486,0.28384 0.0254,0.39152 -0.32831,1.52699 -0.065,0.20857 -0.19832,0.51872 -0.2963,0.68923 -0.098,0.17052 -0.17832,0.37529 -0.17853,0.45505 0,0.0797 -0.0845,0.28154 -0.18724,0.44839 -0.10277,0.16685 -0.18791,0.34864 -0.18922,0.40398 -0.006,0.28428 -0.59337,1.45786 -0.92062,1.84156 -0.19952,0.23393 -0.38396,0.52403 -0.40986,0.64465 -0.0497,0.2314 -0.30036,0.87337 -0.44101,1.12942 -0.046,0.0837 -0.10175,0.73191 -0.12445,1.44628 l -0.0411,1.2946 -0.29998,0.39336 c -0.45071,0.59101 -0.7514,0.75357 -1.79197,0.96877 -1.12551,0.23276 -1.38749,0.18711 -1.86694,-0.32541 -0.29666,-0.31713 -0.31811,-0.36866 -0.30337,-0.72894 l 0.0159,-0.38769 -0.48621,-0.2687 c -0.26742,-0.14779 -0.51071,-0.3199 -0.54065,-0.38247 -0.0299,-0.0626 -0.11199,-0.24757 -0.18235,-0.4111 -0.0703,-0.16354 -0.31624,-0.51186 -0.54643,-0.77406 l -0.41854,-0.47672 0.0259,-1.69079 c 0.024,-1.56951 0.0378,-1.71326 0.19282,-2.00397 0.14136,-0.26512 0.32235,-1.03457 0.32434,-1.37878 7.9e-4,-0.17046 -0.16137,-0.009 -0.28007,0.27919 -0.0624,0.15132 -0.2999,0.55657 -0.52778,0.90055 -0.4308,0.65033 -0.5882,0.75776 -0.99422,0.67855 -0.14546,-0.0284 -0.25779,0.006 -0.3772,0.11783 -0.21406,0.19923 -0.61061,0.20904 -0.74991,0.0185 -0.089,-0.12178 -0.12584,-0.12702 -0.28678,-0.0409 -0.25542,0.1367 -0.53268,0.0478 -0.70638,-0.22657 -0.0805,-0.12716 -0.26319,-0.2895 -0.40595,-0.36076 -0.2292,-0.11441 -0.27891,-0.19605 -0.4252,-0.69837 -0.0911,-0.31285 -0.24073,-0.77359 -0.3325,-1.02386 -0.11485,-0.31323 -0.17366,-0.6678 -0.18869,-1.13763 -0.012,-0.37541 -0.0501,-0.68067 -0.0847,-0.67834 -0.0346,0.003 -0.15877,0.0322 -0.27607,0.0663 -0.14855,0.0433 -0.30963,0.0223 -0.53088,-0.0688 -0.81966,-0.33774 -1.26939,-0.56302 -1.85807,-0.93074 -0.35059,-0.21899 -0.66788,-0.39817 -0.7051,-0.39817 -0.10046,0 -0.082,0.20729 0.0393,0.44197 0.0589,0.1138 0.15885,0.40545 0.22221,0.64811 0.0633,0.24264 0.19951,0.56592 0.30255,0.71838 0.10303,0.15245 0.21241,0.36251 0.24307,0.46679 0.0306,0.10429 0.15352,0.30171 0.27303,0.43873 0.11951,0.13702 0.21729,0.31632 0.21729,0.39845 0,0.21725 0.2452,0.6403 0.51979,0.8968 0.13125,0.12261 0.23863,0.29291 0.23863,0.37845 0,0.0984 0.1222,0.23961 0.33256,0.38434 0.42515,0.29251 0.72922,0.65409 0.72922,0.86712 0,0.0918 0.0522,0.24142 0.11597,0.33248 0.0733,0.10457 0.0978,0.23771 0.0668,0.36145 -0.0279,0.11143 7.9e-4,0.33345 0.0674,0.51493 0.064,0.17547 0.13074,0.516 0.14814,0.75672 0.0228,0.31489 0.0752,0.47824 0.18676,0.58224 0.14662,0.1366 0.15333,0.21053 0.12211,1.34459 -0.0182,0.66002 -0.0485,1.27543 -0.0674,1.36757 -0.0189,0.0921 -0.27926,0.3737 -0.57862,0.6257 -0.48867,0.41133 -0.57907,0.45816 -0.8845,0.45816 -0.20705,0 -0.3933,-0.048 -0.47585,-0.12275 -0.18597,-0.16831 -0.41466,-0.094 -0.8167,0.26541 -0.54543,0.4876 -2.02276,1.24971 -3.041276,1.56893 -0.46116,0.14453 -0.85533,0.12819 -1.95915,-0.0812 z m 9.315786,-18.61391 c 0,-0.16413 -0.0502,-0.53699 -0.11153,-0.82858 -0.0614,-0.29158 -0.18305,-1.18968 -0.27047,-1.99579 -0.0874,-0.8061 -0.211,-1.65336 -0.27461,-1.88277 -0.11124,-0.40122 -0.65378,-1.7389 -1.20991,-2.98316 -0.14606,-0.32677 -0.36521,-0.86442 -0.48701,-1.19477 -0.12182,-0.33035 -0.27748,-0.70896 -0.34596,-0.84136 l -0.12447,-0.24072 -0.18029,0.29787 c -0.0992,0.16384 -0.39009,0.92926 -0.6465,1.70095 -0.25642,0.77168 -0.61103,1.72732 -0.78804,2.12363 -0.47568,1.06503 -0.52885,1.27948 -0.39575,1.59625 0.0605,0.14399 0.28718,0.47337 0.50373,0.73196 0.21656,0.25859 0.64411,0.90371 0.9501,1.4336 0.63612,1.10156 1.04684,1.61352 1.51414,1.88738 0.34103,0.19986 1.29802,0.48253 1.65801,0.48973 0.19289,0.004 0.20856,-0.0183 0.20856,-0.29422 z m -7.925446,-2.35606 c -0.0755,-0.0834 -0.19171,-0.15054 -0.25824,-0.14915 -0.0919,0.002 -0.078,0.0383 0.058,0.15168 0.23353,0.19455 0.37688,0.19273 0.20016,-0.003 z"
       style="fill:#000000;stroke-width:0.0200664"
       id="path3571" />
  </g>
</svg>
