<?xml version="1.0" encoding="UTF-8" standalone="no"?>
<!-- Created with Inkscape (http://www.inkscape.org/) -->

<svg
   width="210mm"
   height="297mm"
   viewBox="0 0 210 297"
   version="1.1"
   id="svg5"
   sodipodi:docname="man_6.svg"
   inkscape:version="1.1.1 (c3084ef, 2021-09-22)"
   xmlns:inkscape="http://www.inkscape.org/namespaces/inkscape"
   xmlns:sodipodi="http://sodipodi.sourceforge.net/DTD/sodipodi-0.dtd"
   xmlns="http://www.w3.org/2000/svg"
   xmlns:svg="http://www.w3.org/2000/svg">
  <sodipodi:namedview
     id="namedview7"
     pagecolor="#505050"
     bordercolor="#eeeeee"
     borderopacity="1"
     inkscape:pageshadow="0"
     inkscape:pageopacity="0"
     inkscape:pagecheckerboard="0"
     inkscape:document-units="mm"
     showgrid="false"
     inkscape:zoom="0.67546093"
     inkscape:cx="625.4988"
     inkscape:cy="354.57269"
     inkscape:window-width="1512"
     inkscape:window-height="837"
     inkscape:window-x="0"
     inkscape:window-y="38"
     inkscape:window-maximized="1"
     inkscape:current-layer="layer1" />
  <defs
     id="defs2" />
  <g
     inkscape:label="Layer 1"
     inkscape:groupmode="layer"
     id="layer1">
    <path
       d="m 96.682279,63.026331 c -0.21473,-0.11582 -0.39987,-0.27857 -0.43986,-0.38667 -0.0426,-0.11504 -0.0377,-0.50001 0.0126,-1.0032 0.0761,-0.76142 0.0713,-0.83686 -0.0721,-1.1178 -0.17162,-0.33641 -0.20252,-1.25312 -0.0807,-2.39297 0.0625,-0.5844 0.0238,-1.33195 -0.15088,-2.9199 -0.0436,-0.39628 -0.0936,-1.76143 -0.1112,-3.03367 -0.0175,-1.27224 -0.0524,-2.43489 -0.0774,-2.58367 -0.0251,-0.14878 0.007,-0.67777 0.0711,-1.17555 0.33623,-2.60998 0.52272,-4.7673 0.53387,-6.17603 0.007,-0.8134 0.0406,-1.96525 0.076,-2.55965 0.0578,-0.97231 0.0519,-1.08075 -0.0587,-1.08075 -0.0676,0 -0.23502,-0.0982 -0.37204,-0.2183 -0.13702,-0.12006 -0.38564,-0.28315 -0.55249,-0.36241 -0.35617,-0.16919 -0.36084,-0.22146 -0.0871,-0.97428 0.10621,-0.29212 0.21593,-0.67386 0.24383,-0.84832 l 0.0507,-0.3172 -0.36494,-0.10641 c -0.35119,-0.1024 -0.36819,-0.12045 -0.45121,-0.4789 -0.11127,-0.4804 -0.49571,-1.38648 -0.83379,-1.96517 -0.14622,-0.25028 -0.40641,-0.74514 -0.57821,-1.0997 -1.30268,-2.68849 -1.3601,-2.913885 -1.20794,-4.741356 0.0832,-0.999648 0.10053,-1.073592 0.30115,-1.288056 0.11707,-0.125138 0.37347,-0.568812 0.56978,-0.98594 0.19631,-0.417129 0.40796,-0.843738 0.47033,-0.948021 0.0624,-0.104281 0.16356,-0.309054 0.22486,-0.455049 0.0613,-0.145995 0.14485,-0.316639 0.18565,-0.379208 0.0408,-0.06257 0.11061,-0.199023 0.15512,-0.303228 0.0445,-0.104206 0.12986,-0.243517 0.18964,-0.309579 0.0598,-0.06606 0.14573,-0.322091 0.19097,-0.568951 0.0452,-0.246861 0.13047,-0.502717 0.18939,-0.568571 0.0589,-0.06586 0.10712,-0.152652 0.10712,-0.192887 0,-0.04024 0.16989,-0.274086 0.37754,-0.519672 0.2755,-0.325823 0.43057,-0.605733 0.57371,-1.035534 0.2264,-0.679809 0.35575,-0.866095 0.85099,-1.225507 0.3853,-0.279629 0.52351,-0.324142 1.34519,-0.433229 0.29198,-0.03877 0.6674,-0.103917 0.83425,-0.144781 0.70939,-0.173738 0.9991,-0.251232 1.213471,-0.324587 0.12514,-0.04282 0.36554,-0.10185 0.53422,-0.131173 0.34702,-0.06032 0.84739,-0.383088 1.26576,-0.816472 0.28304,-0.293206 0.28312,-0.293487 0.23604,-0.797733 -0.0418,-0.447177 -0.0673,-0.509488 -0.22489,-0.549044 -0.24003,-0.06024 -0.41616,-0.428161 -0.46551,-0.972371 -0.0447,-0.49342 0.012,-0.583623 0.36818,-0.585723 l 0.19696,-0.0012 0.0904,-1.088233 c 0.1025,-1.234027 0.18961,-1.629842 0.37362,-1.697548 0.0704,-0.02591 0.27613,-0.17608 0.45718,-0.333723 0.18104,-0.157644 0.49479,-0.369158 0.69722,-0.470032 0.32698,-0.16294 0.41296,-0.175393 0.77053,-0.111601 0.58882,0.105051 0.98889,0.316944 1.50218,0.79562 0.18771,0.175049 0.4368,0.354124 0.55352,0.397945 0.37427,0.140503 0.42245,0.39999 0.39543,2.129657 -0.0329,2.105639 -0.11225,2.412238 -0.8259,3.190708 -0.47804,0.521466 -0.65394,0.755854 -0.65394,0.871397 0,0.291342 0.63082,1.093832 0.85984,1.093832 0.0445,0 0.18497,0.09671 0.3121,0.214907 0.12712,0.118199 0.53592,0.348179 0.90844,0.511067 0.72874,0.318655 1.35079,0.813573 1.64308,1.307286 0.0911,0.15395 0.24816,0.403947 0.34893,0.555548 0.16125,0.242583 0.18866,0.390645 0.22853,1.234641 0.0331,0.69957 0.0196,1.00713 -0.0499,1.13691 -0.0666,0.124339 -0.0724,0.220731 -0.0193,0.320113 0.0468,0.0876 0.069,0.957617 0.0579,2.265769 -0.0131,1.554427 0.008,2.215034 0.0799,2.464851 0.13806,0.481435 0.34048,1.897788 0.28424,1.988798 -0.0258,0.0417 -0.004,0.10246 0.0487,0.13494 0.13541,0.0837 0.0383,0.52853 -0.18824,0.86237 -0.16784,0.24732 -0.17784,0.30861 -0.11418,0.69978 0.0639,0.39263 0.0531,0.45709 -0.12779,0.76584 -0.18061,0.3082 -0.18982,0.36298 -0.1073,0.6384 0.0811,0.27066 0.0708,0.34371 -0.10101,0.71906 -0.1052,0.22978 -0.2606,0.50592 -0.34533,0.61364 -0.0912,0.11594 -0.15406,0.30926 -0.15406,0.47382 0,0.15288 -0.0372,0.31514 -0.0826,0.36059 -0.0596,0.0596 -0.0393,0.23565 0.0728,0.63178 l 0.15542,0.54917 -0.45972,0.51726 c -0.25284,0.28449 -0.48184,0.52747 -0.50888,0.53996 -0.1235,0.057 -0.32048,0.57058 -0.39301,1.02464 -0.0714,0.44668 -0.0911,1.45606 -0.0548,2.80488 0.009,0.35379 -0.0201,0.50597 -0.11999,0.61634 -0.11662,0.12886 -0.1239,0.21698 -0.0602,0.72973 0.0435,0.35006 0.0452,0.67806 0.004,0.82057 -0.0507,0.17691 -0.0382,0.283 0.0491,0.41632 0.0951,0.14517 0.10119,0.22751 0.0322,0.43646 -0.0606,0.18357 -0.0618,0.30088 -0.004,0.40844 0.0587,0.10976 0.0478,0.38474 -0.04,1.00862 -0.0928,0.65908 -0.10782,1.11238 -0.0647,1.95741 0.0309,0.60484 0.064,1.81641 0.0736,2.69238 0.01,0.87597 0.0379,1.96809 0.0629,2.42693 0.0323,0.59287 0.0109,1.04273 -0.0739,1.55475 -0.13431,0.81114 -0.14736,2.3346 -0.0232,2.71075 0.12103,0.36674 0.26592,0.41048 1.16691,0.35223 1.11652,-0.0722 1.17491,0.002 0.87053,1.10984 -0.24016,0.87391 -0.42391,1.09842 -1.18788,1.45138 -0.35682,0.16485 -0.90861,0.3844 -1.2262,0.4879 -0.3176,0.1035 -0.79725,0.27597 -1.06591,0.38327 -0.56154,0.22427 -1.06465,0.22125 -1.54713,-0.009 -0.28973,-0.13843 -0.29096,-0.14095 -0.23916,-0.48638 0.045,-0.29981 0.22115,-1.00695 0.49337,-1.9801 0.0408,-0.146 0.0962,-0.62436 0.12309,-1.06304 0.0447,-0.73066 0.0346,-0.8255 -0.12086,-1.13025 -0.32459,-0.63624 -0.38925,-0.95842 -0.49589,-2.4709 -0.0588,-0.8343 -0.12697,-1.7558 -0.15143,-2.04779 -0.0245,-0.29199 -0.0577,-0.77848 -0.074,-1.08108 -0.0204,-0.38107 -0.0894,-0.68111 -0.22447,-0.97614 -0.10726,-0.23428 -0.19502,-0.53477 -0.19502,-0.66775 0,-0.13298 -0.0501,-0.30803 -0.11135,-0.389 -0.0749,-0.099 -0.11214,-0.33832 -0.11376,-0.731 -0.003,-0.63481 -0.50998,-2.89398 -0.7229,-3.21893 -0.0626,-0.0955 -0.11377,-0.2355 -0.11377,-0.31112 0,-0.0756 -0.0462,-0.20479 -0.10274,-0.28707 -0.0565,-0.0823 -0.12559,-0.37877 -0.15352,-0.65887 -0.0475,-0.47588 -0.4341,-1.71952 -0.60325,-1.94044 -0.13309,-0.17382 -0.28948,0.0828 -0.438,0.71868 -0.24569,1.05186 -0.60514,2.47146 -0.80317,3.17201 -0.655471,2.31883 -0.771321,3.00839 -1.818731,10.82622 -0.12655,0.94452 -0.12605,0.97775 0.0215,1.44099 l 0.15108,0.47418 0.35654,0.0569 c 0.1961,0.0313 0.51866,0.0825 0.71679,0.11376 l 0.360251,0.0569 0.0221,0.67446 0.0221,0.67446 -0.628801,0.6577 c -0.34585,0.36174 -0.84815,0.90708 -1.11624,1.21187 -0.55628,0.63245 -1.01778,0.99496 -1.24934,0.98139 -0.0876,-0.005 -0.32613,-0.0993 -0.53007,-0.20934 z m 0.0672,-31.67273 c 0.41122,-0.98434 0.52528,-1.7704 0.47836,-3.296857 -0.0242,-0.788019 -0.0592,-1.017853 -0.2051,-1.346055 -0.23124,-0.520302 -0.34464,-0.6139 -0.53504,-0.441593 -0.15987,0.144683 -0.98938,1.730841 -0.98938,1.891861 0,0.05533 -0.0751,0.196057 -0.16686,0.312725 -0.17128,0.217755 -0.29676,0.739577 -0.3131,1.302099 -0.007,0.23325 0.0358,0.36619 0.15952,0.49786 0.0928,0.0988 0.16875,0.2383 0.16875,0.30999 0,0.0717 0.0853,0.29873 0.18961,0.50452 0.10428,0.20579 0.1896,0.45984 0.1896,0.56454 0,0.11717 0.0699,0.23616 0.18169,0.30942 0.0999,0.0655 0.20129,0.19404 0.22526,0.28571 0.0386,0.14768 0.0564,0.15376 0.15587,0.0534 0.0618,-0.0623 0.26913,-0.48873 0.46082,-0.94757 z"
       style="fill:#000000;stroke-width:0.0200664"
       id="path875" />
  </g>
</svg>
