<?xml version="1.0" encoding="UTF-8" standalone="no"?>
<!-- Created with Inkscape (http://www.inkscape.org/) -->

<svg
   width="210mm"
   height="297mm"
   viewBox="0 0 210 297"
   version="1.1"
   id="svg5"
   sodipodi:docname="man_8.svg"
   inkscape:version="1.1.1 (c3084ef, 2021-09-22)"
   xmlns:inkscape="http://www.inkscape.org/namespaces/inkscape"
   xmlns:sodipodi="http://sodipodi.sourceforge.net/DTD/sodipodi-0.dtd"
   xmlns="http://www.w3.org/2000/svg"
   xmlns:svg="http://www.w3.org/2000/svg">
  <sodipodi:namedview
     id="namedview7"
     pagecolor="#505050"
     bordercolor="#eeeeee"
     borderopacity="1"
     inkscape:pageshadow="0"
     inkscape:pageopacity="0"
     inkscape:pagecheckerboard="0"
     inkscape:document-units="mm"
     showgrid="false"
     inkscape:zoom="0.67546093"
     inkscape:cx="625.4988"
     inkscape:cy="354.57269"
     inkscape:window-width="1512"
     inkscape:window-height="837"
     inkscape:window-x="0"
     inkscape:window-y="38"
     inkscape:window-maximized="1"
     inkscape:current-layer="layer1" />
  <defs
     id="defs2" />
  <g
     inkscape:label="Layer 1"
     inkscape:groupmode="layer"
     id="layer1">
    <path
       d="m 107.49545,64.130046 -0.75842,-0.39235 -0.0709,-0.36167 c -0.0945,-0.48221 0.0704,-1.99134 0.26433,-2.41845 0.17448,-0.38434 0.18538,-0.92833 0.0353,-1.75932 -0.17001,-0.94099 -0.1508,-1.9104 0.0451,-2.27817 0.088,-0.16525 0.21391,-0.40212 0.27966,-0.52639 0.15138,-0.28601 0.14541,-0.85216 -0.0122,-1.15689 -0.15361,-0.29705 -0.25101,-1.20434 -0.31673,-2.95048 l -0.0518,-1.37548 -0.45434,-0.50341 -0.45434,-0.5034 0.0492,-1.00309 c 0.0271,-0.5517 0.0219,-1.04064 -0.0113,-1.08654 -0.11997,-0.16567 -0.39915,-0.25784 -0.78093,-0.25784 -0.55725,0 -0.65866,0.0773 -0.71991,0.54862 -0.0286,0.21967 -0.13236,0.57864 -0.23068,0.79771 l -0.17877,0.3983 0.15175,0.43596 c 0.11371,0.32666 0.14157,0.55002 0.11114,0.891 -0.0708,0.79322 -0.19044,3.77983 -0.25608,6.39231 l -0.0634,2.52439 -0.41192,0.42122 c -0.22655,0.23168 -0.48987,0.45191 -0.58513,0.48942 -0.0953,0.0375 -0.2808,0.24124 -0.41227,0.45274 -0.18118,0.29146 -0.33245,0.42875 -0.62482,0.56706 -0.21218,0.10037 -0.57012,0.32003 -0.79543,0.48814 -0.64428,0.4807 -1.03668,0.64741 -1.271763,0.5403 -0.14527,-0.0662 -0.29628,-0.0674 -0.59734,-0.005 -0.79769,0.1656 -0.93549,-0.19861 -0.38139,-1.00796 0.18271,-0.26688 0.35688,-0.56297 0.38704,-0.658 0.0302,-0.095 0.42673,-0.55668 0.881273,-1.02588 l 0.82643,-0.8531 v -0.64898 c 0,-0.71073 -0.0391,-0.88891 -0.19505,-0.88891 -0.0566,0 -0.13367,-0.0597 -0.17119,-0.13272 -0.0375,-0.073 -0.0898,-1.00301 -0.11624,-2.06669 -0.0264,-1.06368 -0.082,-2.35996 -0.12354,-2.88064 -0.11996,-1.50423 -0.11376,-1.86721 0.0357,-2.09538 0.11161,-0.17033 0.12409,-0.307 0.0814,-0.8927 -0.0426,-0.58542 -0.0268,-0.75931 0.10318,-1.13283 0.14823,-0.42607 0.14902,-0.45478 0.0231,-0.83426 -0.11465,-0.34551 -0.15332,-0.39057 -0.32002,-0.3729 -0.10427,0.0111 -0.621983,0.0411 -1.150463,0.0667 l -0.96085,0.0466 -0.0406,-0.33217 c -0.0223,-0.18269 -0.0602,-1.06593 -0.0842,-1.96276 -0.0239,-0.89683 -0.0761,-1.93776 -0.11586,-2.31317 -0.0398,-0.37542 -0.0731,-1.26276 -0.0741,-1.97188 -8e-4,-0.70912 -0.0237,-1.57151 -0.0506,-1.91641 -0.0464,-0.59602 -0.0586,-0.62939 -0.24603,-0.67338 -0.23675,-0.0556 -0.58692,-0.36543 -0.73644,-0.6517 -0.0597,-0.1143 -0.246,-0.27794 -0.414,-0.36364 -0.16798,-0.0857 -0.57501,-0.42978 -0.9045,-0.76463 l -0.59906,-0.6088 -0.0429,-1.03736 c -0.0237,-0.57054 -0.0434,-1.34451 -0.044,-1.71993 -8e-4,-0.37542 -0.009,-1.04092 -0.018,-1.47891 -0.0424,-1.995001 -0.0187,-2.273377 0.23818,-2.80614 0.13076,-0.271133 0.23912,-0.595356 0.24082,-0.720495 0.002,-0.125138 0.10409,-0.415233 0.22757,-0.644654 0.12347,-0.229421 0.22449,-0.46926 0.22452,-0.532976 0,-0.06372 0.0567,-0.196814 0.12603,-0.295773 0.0693,-0.09896 0.15129,-0.302794 0.18217,-0.452965 0.0309,-0.150171 0.0908,-0.375425 0.13327,-0.500564 0.16143,-0.476215 0.25655,-1.019228 0.34862,-1.990121 0.072,-0.759235 0.12808,-1.040503 0.22996,-1.153081 0.15726,-0.173781 0.77652,-0.440844 2.65458,-1.144839 l 1.361483,-0.510343 0.0961,-0.423329 c 0.0529,-0.232831 0.19958,-0.566125 0.32602,-0.740654 0.24009,-0.331434 0.28318,-0.514283 0.15209,-0.645369 -0.0427,-0.04277 -0.1272,-0.476156 -0.1876,-0.963069 -0.11545,-0.930623 -0.22927,-1.253521 -0.51157,-1.451132 -0.24583,-0.172081 -1.090743,-1.008318 -1.407663,-1.393192 -0.35029,-0.425435 -0.28584,-0.465484 0.751673,-0.466982 l 0.8044,-0.0012 0.1247,-0.505346 c 0.14947,-0.605628 0.35623,-0.968383 0.91063,-1.597646 0.22892,-0.259819 0.43695,-0.537712 0.46227,-0.617537 0.0834,-0.262869 0.43669,-0.339904 1.31645,-0.287086 0.97739,0.05868 1.49283,0.188525 1.97394,0.497252 0.73098,0.469075 0.81368,0.663302 0.8963,2.105202 0.0429,0.749011 0.0649,0.780539 0.54475,0.783334 0.32628,0.0019 1.26141,0.318444 1.39587,0.47251 0.21504,0.246365 0.16538,0.628308 -0.1476,1.135392 -0.33373,0.540666 -0.78641,0.957039 -1.31165,1.206401 -0.35527,0.168675 -0.38019,0.198077 -0.3365,0.39703 0.026,0.118176 0.0716,0.394837 0.10147,0.614803 0.0308,0.227157 0.12594,0.491042 0.22015,0.610816 0.0912,0.115983 0.16587,0.305951 0.16587,0.422149 0,0.177353 0.0396,0.219444 0.24648,0.262178 0.13558,0.028 0.46833,0.182591 0.73946,0.343539 0.57753,0.342825 2.2823,0.944911 2.88199,1.01785 0.52102,0.06338 1.02207,0.279897 1.1347,0.490355 0.0544,0.101653 0.0675,0.323643 0.0356,0.605384 -0.0398,0.351299 -0.0166,0.542436 0.11019,0.908709 0.0883,0.255109 0.16074,0.591681 0.16102,0.747939 0,0.156256 0.0683,0.38649 0.15118,0.511629 0.0829,0.125138 0.15091,0.286463 0.15119,0.358499 0,0.07204 0.0855,0.186674 0.1894,0.25475 0.21535,0.1411 0.31286,0.444426 0.38803,1.20695 0.033,0.334812 0.10418,0.597693 0.19275,0.711763 0.0772,0.09948 0.14042,0.273311 0.14042,0.386295 0,0.112983 0.0683,0.403817 0.15168,0.646298 0.11606,0.337337 0.15275,0.647368 0.1562,1.320142 0.003,0.483596 0.0395,1.049904 0.0823,1.258474 0.16618,0.80969 0.16518,1.15587 -0.004,1.42975 -0.0873,0.14117 -0.15864,0.29869 -0.15864,0.35005 0,0.0514 -0.11618,0.28623 -0.25819,0.52194 -0.14201,0.23571 -0.27913,0.55163 -0.30476,0.70206 -0.0339,0.19926 -0.22119,0.47247 -0.68982,1.00643 -0.3538,0.40311 -0.64327,0.76316 -0.64327,0.80012 0,0.037 -0.16741,0.18748 -0.37201,0.33448 -0.24111,0.17321 -0.38917,0.34252 -0.42073,0.48112 -0.0614,0.26969 -0.1574,0.39194 -0.52637,0.67031 l -0.29527,0.22276 0.0561,10.56432 0.0561,10.56432 -0.2708,0.29976 c -0.14894,0.16487 -0.29327,0.38926 -0.32074,0.49865 -0.0275,0.10939 -0.009,0.71603 0.0414,1.3481 0.0608,0.76616 0.0676,1.29762 0.0202,1.59444 -0.0391,0.24488 -0.0456,0.5587 -0.0143,0.69739 0.0651,0.28864 -0.0782,0.56382 -0.29361,0.56382 -0.0727,0 -0.17317,0.0409 -0.22324,0.091 -0.1159,0.11591 -0.11784,0.45856 -0.004,0.57318 0.147,0.14698 -0.0483,0.29287 -0.51828,0.38726 -0.60325,0.12115 -0.65579,0.10966 -1.50348,-0.32887 z"
       style="fill:#000000;stroke-width:0.0200664"
       id="path1228" />
  </g>
</svg>
