<?xml version="1.0" encoding="UTF-8" standalone="no"?>
<!-- Created with Inkscape (http://www.inkscape.org/) -->

<svg
   width="210mm"
   height="297mm"
   viewBox="0 0 210 297"
   version="1.1"
   id="svg5"
   sodipodi:docname="man_17.svg"
   inkscape:version="1.1.1 (c3084ef, 2021-09-22)"
   xmlns:inkscape="http://www.inkscape.org/namespaces/inkscape"
   xmlns:sodipodi="http://sodipodi.sourceforge.net/DTD/sodipodi-0.dtd"
   xmlns="http://www.w3.org/2000/svg"
   xmlns:svg="http://www.w3.org/2000/svg">
  <sodipodi:namedview
     id="namedview7"
     pagecolor="#505050"
     bordercolor="#eeeeee"
     borderopacity="1"
     inkscape:pageshadow="0"
     inkscape:pageopacity="0"
     inkscape:pagecheckerboard="0"
     inkscape:document-units="mm"
     showgrid="false"
     inkscape:zoom="0.62885375"
     inkscape:cx="398.34381"
     inkscape:cy="433.3281"
     inkscape:window-width="1512"
     inkscape:window-height="837"
     inkscape:window-x="0"
     inkscape:window-y="38"
     inkscape:window-maximized="1"
     inkscape:current-layer="layer1" />
  <defs
     id="defs2" />
  <g
     inkscape:label="Layer 1"
     inkscape:groupmode="layer"
     id="layer1">
    <path
       d="m 110.33818,62.372502 c -0.0417,-0.0142 -0.22942,-0.0679 -0.41713,-0.11935 -0.18771,-0.0514 -0.54606,-0.15679 -0.79634,-0.23414 -0.25027,-0.0774 -0.62569,-0.19148 -0.83425,-0.25362 -0.35467,-0.10569 -2.10908,-0.34795 -3.35599,-0.4634 l -0.54986,-0.0509 0.003,-0.39047 c 0.002,-0.22238 0.0503,-0.45385 0.11376,-0.53769 0.0613,-0.081 0.11135,-0.29537 0.11135,-0.47644 0,-0.18108 0.0512,-0.45175 0.11377,-0.6015 0.18481,-0.44233 0.15919,-0.50228 -0.18944,-0.44339 -0.25416,0.0429 -0.31047,0.0287 -0.34817,-0.0881 -0.0247,-0.0767 -0.0752,-0.20762 -0.11219,-0.29104 -0.037,-0.0834 -0.15463,-0.6881 -0.26146,-1.34372 -0.10681,-0.65562 -0.24576,-1.35526 -0.30875,-1.55475 -0.0678,-0.21481 -0.13195,-0.81117 -0.1572,-1.46242 -0.0369,-0.9525 -0.0682,-1.15786 -0.23345,-1.53407 -0.18493,-0.42103 -0.18809,-0.45595 -0.10299,-1.13762 0.0634,-0.50793 0.0654,-0.81913 0.007,-1.1204 -0.0522,-0.27029 -0.065,-1.19136 -0.0363,-2.61654 0.0244,-1.20967 0.0167,-2.36884 -0.0171,-2.57593 l -0.0614,-0.37651 -0.27338,0.37651 c -0.39535,0.5445 -0.90106,1.54405 -0.90106,1.78094 0,0.35491 -0.15072,0.66243 -0.36896,0.75283 -0.37061,0.15351 -0.83118,0.67056 -0.93815,1.0532 -0.0844,0.30187 -0.13626,0.36513 -0.35163,0.42884 -0.172077,0.0509 -0.371957,0.22467 -0.626907,0.54506 -0.20584,0.2587 -0.54219,0.61096 -0.74744,0.7828 -0.4897,0.41001 -0.85584,0.92661 -1.01931,1.4382 -0.0727,0.22762 -0.20989,0.56891 -0.30481,0.75841 -0.0949,0.18952 -0.21414,0.47293 -0.26494,0.62981 -0.0538,0.16617 -0.20282,0.3695 -0.35699,0.4871 -0.14555,0.11102 -0.34706,0.36449 -0.44778,0.56327 -0.18846,0.37188 -0.59912,0.75003 -0.81452,0.75003 -0.12481,0 -0.97624,0.20905 -0.99922,0.24533 -0.27185,0.42937 -0.36278,0.69886 -0.426915,1.26507 -0.04058,0.3581 -0.146756,0.91782 -0.235963,1.24384 -0.133622,0.48827 -0.220019,0.65139 -0.490233,0.92547 -0.325893,0.33057 -0.328038,0.33634 -0.329875,0.88617 -0.0011,0.30438 -0.04186,0.70701 -0.09074,0.89472 -0.04889,0.18771 -0.09072,0.66551 -0.09295,1.06179 l -0.004,0.72049 -0.204808,0.0236 c -0.515012,0.0594 -0.679429,-0.31322 -0.439039,-0.99504 0.181041,-0.51346 0.338193,-1.56868 0.272573,-1.83014 -0.02711,-0.10798 -0.194243,-0.2725 -0.414588,-0.40808 -0.341456,-0.2101 -0.384615,-0.27183 -0.57472,-0.82194 -0.113044,-0.32713 -0.275678,-0.77681 -0.361408,-0.99928 -0.203483,-0.52803 -0.158311,-1.17062 0.12931,-1.83963 0.224689,-0.52262 0.343114,-0.80931 0.482806,-1.16875 0.04864,-0.12513 0.134636,-0.53722 0.191114,-0.91577 0.05649,-0.37853 0.158221,-0.80514 0.226087,-0.94801 0.06786,-0.14288 0.412689,-0.57507 0.766278,-0.96042 0.353589,-0.38535 0.708514,-0.82925 0.788712,-0.98645 0.203483,-0.39887 0.464909,-1.21855 0.464909,-1.45769 0,-0.10991 0.0335,-0.23332 0.0744,-0.27425 0.0409,-0.0409 0.17539,-0.67061 0.29879,-1.39928 0.12341,-0.72867 0.26088,-1.48778 0.30552,-1.6869 0.0446,-0.19912 0.27133,-1.51204 0.50379,-2.91759 0.23246,-1.40555 0.45455,-2.61518 0.49356,-2.68804 0.11136,-0.20808 0.68522,-4.21049 0.65985,-4.6022 -0.0207,-0.31943 -0.0486,-0.3651 -0.30766,-0.50301 -0.35614,-0.1896 -0.39477,-0.30867 -0.24409,-0.75247 0.066,-0.19449 0.0998,-0.41736 0.0751,-0.49527 -0.0247,-0.0779 -0.2996,-0.38351 -0.61083,-0.67915 -0.31123,-0.29564 -0.56588,-0.55696 -0.56588,-0.58073 0,-0.0237 -0.0806,-0.15183 -0.17916,-0.28462 -0.0985,-0.13278 -0.323,-0.56564 -0.49881,-0.96192 -0.175799,-0.39627 -0.380867,-0.83994 -0.455681,-0.98594 -0.196495,-0.38341 -0.24939,-0.92459 -0.120515,-1.23303 0.07274,-0.17415 0.08752,-0.34159 0.04622,-0.52455 -0.09859,-0.43714 0.190101,-1.75053 0.4816,-2.19102 0.129006,-0.19493 0.195406,-0.39939 0.195406,-0.60165 0,-0.33325 0.55364,-1.52639 1.02877,-2.21713 0.28978,-0.42127 0.44417,-0.8965 0.38656,-1.18988 -0.0268,-0.13645 0.0144,-0.25312 0.13609,-0.38532 0.17518,-0.1903 0.86512,-1.28884 1.27119,-2.02399 0.36078,-0.65319 1.40696,-1.508166 2.25393,-1.842006 0.21791,-0.0859 0.758357,-0.24174 1.200967,-0.34633 0.6653,-0.1572 0.87578,-0.24377 1.21455,-0.49954 0.63594,-0.48014 0.76336,-0.97421 0.35114,-1.36148 -0.1527,-0.14344 -0.1832,-0.24505 -0.1832,-0.6102 0,-0.24094 0.0377,-0.6141 0.0838,-0.82923 l 0.0838,-0.39113 -0.36543,-0.37101 c -0.34839,-0.35371 -0.35637,-0.37102 -0.17104,-0.37102 0.10691,0 0.30088,-0.0371 0.43104,-0.0825 0.27007,-0.0942 0.26948,-0.0919 0.37443,-1.41752 0.0524,-0.6615 0.10185,-0.90108 0.21831,-1.05708 0.0829,-0.11094 0.47273,-0.36574 0.86643,-0.56622 0.65089,-0.3314403 0.79838,-0.3747603 1.62593,-0.4775603 0.50055,-0.0622 1.0165,-0.15348 1.14654,-0.20289 0.36688,-0.13939 0.66551,0.079 1.05328,0.7701003 0.17553,0.31285 0.47761,0.84677 0.67129,1.18648 0.19368,0.33972 0.35225,0.68101 0.35238,0.75842 0,0.0943 0.14409,0.21585 0.43607,0.36828 0.23974,0.12514 0.43588,0.27774 0.43588,0.33912 0,0.0627 -0.1464,0.16569 -0.33386,0.23493 -0.58883,0.21751 -0.66462,0.56468 -0.1345,0.61606 0.21309,0.0207 0.24367,0.0531 0.26552,0.28203 0.0136,0.14228 -0.0521,0.4665 -0.14581,0.7205 -0.16842,0.4563 -0.18145,0.62606 -0.14035,1.82858 0.0174,0.50931 0.037,0.56054 0.44958,1.17555 0.43256,0.64479 0.5272,0.70865 0.84772,0.57201 0.20437,-0.0872 0.82229,0.55166 0.82229,0.850056 0,0.3022 -0.23318,0.47234 -0.64734,0.47234 -0.37591,0 -0.49848,-0.11804 -1.17048,-1.127196 -0.45253,-0.6796 -0.47657,-0.7024 -0.55994,-0.5309 -0.0516,0.10611 -0.29205,0.27794 -0.58961,0.4213 l -0.50251,0.24211 -0.094,0.498006 -0.094,0.49801 0.30267,0.39751 c 0.16647,0.21863 0.3878,0.53402 0.49185,0.70087 0.10405,0.16685 0.26703,0.37162 0.36222,0.45505 0.0952,0.0834 0.32086,0.37861 0.50153,0.65597 0.18066,0.27736 0.58741,0.77951 0.90384,1.11589 l 0.57535,0.61161 -0.0308,0.7043 c -0.0169,0.38737 -0.0763,0.93938 -0.13196,1.22667 -0.0787,0.40624 -0.0819,0.59476 -0.0141,0.848 0.0706,0.26395 0.0658,0.37644 -0.025,0.59386 -0.0616,0.14753 -0.11207,0.43488 -0.11207,0.63856 0,0.20368 -0.0385,0.48086 -0.0856,0.61596 -0.0664,0.19035 -0.0583,0.44467 0.0358,1.12998 0.0668,0.4864 0.14296,1.22564 0.16922,1.64277 0.0262,0.41713 0.13445,1.09971 0.24045,1.51683 0.14187,0.55841 0.19484,0.97178 0.2008,1.56748 0.007,0.73723 -0.007,0.82497 -0.16008,0.98824 -0.12155,0.12946 -0.16844,0.27323 -0.169,0.51817 -8e-4,0.51152 -0.13503,2.13069 -0.1957,2.3671 -0.0441,0.17164 -0.0122,0.2464 0.18289,0.42859 0.13878,0.12965 0.23625,0.29654 0.23625,0.40456 0,0.23587 -0.29877,0.51639 -0.61995,0.58208 -0.19368,0.0396 -0.2648,0.1023 -0.3129,0.27584 -0.0342,0.12352 -0.13356,0.42935 -0.22072,0.67963 -0.56891,1.63353 -0.54795,1.54778 -0.4468,1.82751 0.12091,0.33431 0.0435,1.14031 -0.15934,1.65914 -0.13847,0.35418 -0.14924,0.63818 -0.17704,4.66426 -0.0163,2.35791 -0.0362,4.44069 -0.0442,4.6284 -0.0159,0.37031 0.16608,1.39206 0.29075,1.63297 0.0425,0.0821 0.10087,0.42234 0.12971,0.75604 0.0288,0.33371 0.10265,0.68387 0.16404,0.77815 0.0916,0.14067 0.0946,0.20188 0.0164,0.34129 -0.12716,0.22693 -0.12897,1.77817 -0.003,2.00389 0.0511,0.091 0.15694,0.18585 0.23526,0.2107 0.0783,0.0248 0.25265,0.26915 0.38739,0.54284 0.3371,0.68474 0.61763,0.85257 1.80866,1.08206 0.84899,0.16358 0.93995,0.1977 1.14291,0.42886 0.42999,0.48973 0.3655,0.93869 -0.19659,1.36867 -0.2766,0.21158 -0.32595,0.22165 -1.16105,0.23705 -0.4797,0.009 -0.90631,0.004 -0.94802,-0.01 z M 96.787173,46.261222 c 0.43068,-0.0847 0.83169,-0.1943 0.89114,-0.24363 0.17675,-0.1467 0.12569,-0.41712 -0.19608,-1.0385 -0.35913,-0.69352 -0.39921,-0.94147 -0.56701,-3.50729 -0.11167,-1.70762 -0.17849,-2.38919 -0.22913,-2.33724 -0.0129,0.0132 -0.29996,1.66225 -0.63789,3.66447 -0.33793,2.00222 -0.6312,3.71481 -0.65171,3.80577 l -0.0373,0.16537 0.32245,-0.1775 c 0.17735,-0.0976 0.67482,-0.24678 1.1055,-0.33145 z"
       style="fill:#000000;stroke-width:0.0200664"
       id="path3803" />
  </g>
</svg>
